<svg width="50" height="50" viewBox="0 0 50 50" fill="none" xmlns="http://www.w3.org/2000/svg">
<rect width="50" height="50" rx="25" fill="#DCEDFF"/>
<rect x="12.2891" y="13.1336" width="22.7928" height="26.8661" rx="1.31445" fill="#CC7051"/>
<rect x="14.918" y="10.5046" width="22.7928" height="26.8661" rx="1.31445" fill="white"/>
<path d="M17.5186 13.8853C17.5186 13.4545 17.8678 13.1052 18.2987 13.1052H34.3302C34.7611 13.1052 35.1104 13.4544 35.1104 13.8853V22.3734C35.1104 22.8042 34.7611 23.1535 34.3302 23.1535H18.2987C17.8678 23.1535 17.5186 22.8042 17.5186 22.3734V13.8853Z" fill="#F9B66F"/>
<path d="M30.7696 17.7133C30.3775 17.6332 30.1215 17.4332 30.0895 17.1692C30.0655 16.9691 30.1775 16.7851 30.3855 16.6891C30.9376 16.433 31.2737 16.8411 31.3297 16.9211L32.0418 16.425C31.8978 16.209 31.5938 15.9369 31.1857 15.8089V15.0087H30.3135V15.8009C30.2175 15.8249 30.1215 15.8569 30.0174 15.9049C29.4573 16.161 29.1533 16.7051 29.2253 17.2812C29.2893 17.7773 29.6814 18.3534 30.5536 18.5294V18.5374C30.9456 18.6094 31.2017 18.8095 31.2417 19.0735C31.2657 19.2736 31.1537 19.4576 30.9456 19.5536C30.3855 19.8177 30.0575 19.4016 30.0014 19.3216L29.2973 19.8177C29.4653 20.0577 29.8254 20.3698 30.3135 20.4658V21.2499H31.1777V20.3858C31.2257 20.3698 31.2657 20.3618 31.3137 20.3378C31.8658 20.0817 32.1779 19.5376 32.0979 18.9615C32.0338 18.4654 31.6418 17.8893 30.7696 17.7133Z" fill="#CC7051"/>
<path d="M22.7565 10.5295V10.5295C22.7565 9.13249 21.624 8 20.227 8H20.1517C18.7131 8 17.5469 9.16621 17.5469 10.6048V16.9612C17.5469 17.9682 18.3632 18.7845 19.3702 18.7845V18.7845C20.3771 18.7845 21.1935 17.9682 21.1935 16.9612V11.4311C21.1935 10.9332 20.7898 10.5295 20.2918 10.5295V10.5295C19.7939 10.5295 19.3902 10.9332 19.3902 11.4311V16.1397" stroke="#CC7051" stroke-width="0.78867" stroke-linecap="round"/>
</svg>
