<svg width="50" height="50" viewBox="0 0 50 50" fill="none" xmlns="http://www.w3.org/2000/svg">
<rect width="50" height="50" rx="25" fill="#DCEDFF"/>
<rect x="12.292" y="13.1097" width="22.8131" height="26.8901" rx="1.31562" fill="#CC7051"/>
<rect x="14.8945" y="10.5069" width="22.8131" height="26.8901" rx="1.31562" fill="white"/>
<path d="M24.1013 30.8111V30.0911H25.3883V33.2726H24.5783V30.8111H24.1013ZM25.8448 31.6481C25.8448 32.1461 25.9453 32.5406 26.1463 32.8316C26.3473 33.1226 26.6683 33.2681 27.1093 33.2681C27.5473 33.2681 27.8668 33.1226 28.0678 32.8316C28.2718 32.5406 28.3738 32.1461 28.3738 31.6481C28.3738 31.1531 28.2718 30.7616 28.0678 30.4736C27.8668 30.1826 27.5473 30.0371 27.1093 30.0371C26.6683 30.0371 26.3473 30.1826 26.1463 30.4736C25.9453 30.7616 25.8448 31.1531 25.8448 31.6481ZM27.6088 31.6481C27.6088 31.9331 27.5743 32.1536 27.5053 32.3096C27.4393 32.4626 27.3073 32.5391 27.1093 32.5391C26.9083 32.5391 26.7733 32.4626 26.7043 32.3096C26.6353 32.1536 26.6008 31.9331 26.6008 31.6481C26.6008 31.3661 26.6353 31.1486 26.7043 30.9956C26.7733 30.8426 26.9083 30.7661 27.1093 30.7661C27.3073 30.7661 27.4393 30.8426 27.5053 30.9956C27.5743 31.1456 27.6088 31.3631 27.6088 31.6481Z" fill="#F6B755"/>
<path d="M17.498 13.8906C17.498 13.4593 17.8476 13.1097 18.2789 13.1097H34.3247C34.7559 13.1097 35.1055 13.4593 35.1055 13.8906V22.3862C35.1055 22.8174 34.7559 23.167 34.3247 23.167H18.2789C17.8476 23.167 17.498 22.8174 17.498 22.3862V13.8906Z" fill="#F9B66F"/>
<path d="M18.0186 26.2906V28.6332" stroke="#CC7051" stroke-width="0.789373" stroke-linecap="round"/>
<path d="M34.5859 26.2906V28.6332" stroke="#CC7051" stroke-width="0.789373" stroke-linecap="round"/>
<path d="M18.0186 27.4618H34.5851" stroke="#CC7051" stroke-width="0.789373" stroke-linecap="round"/>
<path d="M22.7406 10.5317V10.5317C22.7406 9.1335 21.6071 8 20.2089 8H20.1335C18.6936 8 17.5264 9.16725 17.5264 10.6071V16.9692C17.5264 17.9771 18.3434 18.7941 19.3513 18.7941V18.7941C20.3592 18.7941 21.1762 17.9771 21.1762 16.9692V11.4342C21.1762 10.9358 20.7722 10.5317 20.2738 10.5317V10.5317C19.7754 10.5317 19.3713 10.9358 19.3713 11.4342V16.1469" stroke="#CC7051" stroke-width="0.789373" stroke-linecap="round"/>
</svg>
