<svg width="50" height="50" viewBox="0 0 50 50" fill="none" xmlns="http://www.w3.org/2000/svg">
<rect width="50" height="50" rx="25" fill="#DCEDFF"/>
<rect x="12.292" y="13.1097" width="22.8131" height="26.8901" rx="1.31562" fill="#CC7051"/>
<rect x="14.8945" y="10.5069" width="22.8131" height="26.8901" rx="1.31562" fill="white"/>
<path d="M24.1035 30.8052V30.0852H25.3905V33.2667H24.5805V30.8052H24.1035ZM28.196 30.6837H26.765V31.3272C26.828 31.2552 26.915 31.1997 27.026 31.1607C27.14 31.1187 27.263 31.0977 27.395 31.0977C27.608 31.0977 27.7865 31.1457 27.9305 31.2417C28.0745 31.3347 28.181 31.4607 28.25 31.6197C28.319 31.7787 28.3535 31.9542 28.3535 32.1462C28.3535 32.4942 28.256 32.7702 28.061 32.9742C27.866 33.1752 27.5915 33.2757 27.2375 33.2757C26.9975 33.2757 26.789 33.2337 26.612 33.1497C26.435 33.0627 26.2985 32.9427 26.2025 32.7897C26.1065 32.6367 26.0555 32.4597 26.0495 32.2587H26.801C26.816 32.3607 26.8565 32.4447 26.9225 32.5107C26.9915 32.5767 27.0845 32.6097 27.2015 32.6097C27.3365 32.6097 27.437 32.5662 27.503 32.4792C27.572 32.3922 27.6065 32.2767 27.6065 32.1327C27.6065 31.9947 27.5705 31.8882 27.4985 31.8132C27.4265 31.7382 27.326 31.7007 27.197 31.7007C27.098 31.7007 27.0155 31.7232 26.9495 31.7682C26.8835 31.8102 26.8385 31.8657 26.8145 31.9347H26.0675V30.0087H28.196V30.6837Z" fill="#F6B755"/>
<path d="M17.498 13.8906C17.498 13.4593 17.8476 13.1097 18.2789 13.1097H34.3247C34.7559 13.1097 35.1055 13.4593 35.1055 13.8906V22.3862C35.1055 22.8174 34.7559 23.167 34.3247 23.167H18.2789C17.8476 23.167 17.498 22.8174 17.498 22.3862V13.8906Z" fill="#F9B66F"/>
<path d="M18.0186 26.2906V28.6332" stroke="#CC7051" stroke-width="0.789373" stroke-linecap="round"/>
<path d="M34.5859 26.2906V28.6332" stroke="#CC7051" stroke-width="0.789373" stroke-linecap="round"/>
<path d="M18.0186 27.4618H34.5851" stroke="#CC7051" stroke-width="0.789373" stroke-linecap="round"/>
<path d="M22.7406 10.5317V10.5317C22.7406 9.1335 21.6071 8 20.2089 8H20.1335C18.6936 8 17.5264 9.16725 17.5264 10.6071V16.9692C17.5264 17.9771 18.3434 18.7941 19.3513 18.7941V18.7941C20.3592 18.7941 21.1762 17.9771 21.1762 16.9692V11.4342C21.1762 10.9358 20.7722 10.5317 20.2738 10.5317V10.5317C19.7754 10.5317 19.3713 10.9358 19.3713 11.4342V16.1469" stroke="#CC7051" stroke-width="0.789373" stroke-linecap="round"/>
</svg>
