<svg width="50" height="50" viewBox="0 0 50 50" fill="none" xmlns="http://www.w3.org/2000/svg">
<rect width="50" height="50" rx="25" fill="#DCEDFF"/>
<rect x="12.2891" y="13.1336" width="22.7928" height="26.8661" rx="1.31445" fill="#CC7051"/>
<rect x="14.918" y="10.5046" width="22.7928" height="26.8661" rx="1.31445" fill="white"/>
<path d="M17.5195 13.8853C17.5195 13.4545 17.8688 13.1052 18.2997 13.1052H24.801C25.2318 13.1052 25.5811 13.4544 25.5811 13.8853V22.3734C25.5811 22.8042 25.2318 23.1535 24.801 23.1535H18.2997C17.8688 23.1535 17.5195 22.8042 17.5195 22.3734V13.8853Z" fill="#F9B66F"/>
<path d="M27.0498 13.8853C27.0498 13.4544 27.3991 13.1051 27.83 13.1051H34.3312C34.7621 13.1051 35.1114 13.4544 35.1114 13.8853V22.3733C35.1114 22.8042 34.7621 23.1535 34.3312 23.1535H27.83C27.3991 23.1535 27.0498 22.8042 27.0498 22.3733V13.8853Z" fill="#F9B66F"/>
<path d="M31.1697 17.7825C30.8429 17.7158 30.6295 17.5491 30.6029 17.3291C30.5829 17.1624 30.6762 17.009 30.8496 16.929C31.3097 16.7156 31.5897 17.0557 31.6364 17.1224L32.2299 16.709C32.1098 16.5289 31.8565 16.3022 31.5164 16.1955V15.5287H30.7896V16.1889C30.7096 16.2089 30.6295 16.2356 30.5429 16.2756C30.0761 16.4889 29.8227 16.9424 29.8827 17.4225C29.9361 17.8359 30.2628 18.316 30.9896 18.4627V18.4693C31.3163 18.5293 31.5297 18.696 31.5631 18.9161C31.5831 19.0828 31.4897 19.2361 31.3163 19.3162C30.8496 19.5362 30.5762 19.1895 30.5295 19.1228L29.9427 19.5362C30.0828 19.7362 30.3828 19.9963 30.7896 20.0763V20.7298H31.5097V20.0096C31.5497 19.9963 31.5831 19.9896 31.6231 19.9696C32.0832 19.7562 32.3432 19.3028 32.2765 18.8227C32.2232 18.4093 31.8965 17.9292 31.1697 17.7825Z" fill="#CC7051"/>
<path d="M17.5186 25.502C17.5186 25.0711 17.8678 24.7218 18.2987 24.7218H24.8C25.2308 24.7218 25.5801 25.0711 25.5801 25.502V33.99C25.5801 34.4209 25.2308 34.7702 24.8 34.7702H18.2987C17.8678 34.7702 17.5186 34.4209 17.5186 33.99V25.502Z" fill="#F9B66F"/>
<path d="M27.0488 25.502C27.0488 25.0711 27.3981 24.7218 27.829 24.7218H34.3303C34.7611 24.7218 35.1104 25.0711 35.1104 25.502V33.99C35.1104 34.4209 34.7611 34.7702 34.3303 34.7702H27.829C27.3981 34.7702 27.0488 34.4209 27.0488 33.99V25.502Z" fill="#F9B66F"/>
<path d="M31.1697 29.3992C30.8429 29.3325 30.6295 29.1658 30.6029 28.9458C30.5829 28.7791 30.6762 28.6257 30.8496 28.5457C31.3097 28.3323 31.5897 28.6724 31.6364 28.7391L32.2299 28.3257C32.1098 28.1456 31.8565 27.9189 31.5164 27.8122V27.1454H30.7896V27.8056C30.7096 27.8256 30.6295 27.8523 30.5429 27.8923C30.0761 28.1056 29.8227 28.5591 29.8827 29.0392C29.9361 29.4526 30.2628 29.9327 30.9896 30.0794V30.086C31.3163 30.146 31.5297 30.3127 31.5631 30.5328C31.5831 30.6995 31.4897 30.8528 31.3163 30.9329C30.8496 31.1529 30.5762 30.8062 30.5295 30.7395L29.9427 31.1529C30.0828 31.3529 30.3828 31.613 30.7896 31.693V32.3465H31.5097V31.6263C31.5497 31.613 31.5831 31.6063 31.6231 31.5863C32.0832 31.3729 32.3432 30.9195 32.2765 30.4394C32.2232 30.026 31.8965 29.5459 31.1697 29.3992Z" fill="#CC7051"/>
<path d="M21.6384 29.3992C21.3117 29.3325 21.0983 29.1658 21.0716 28.9458C21.0516 28.7791 21.145 28.6257 21.3183 28.5457C21.7784 28.3323 22.0585 28.6724 22.1052 28.7391L22.6986 28.3257C22.5786 28.1456 22.3252 27.9189 21.9851 27.8122V27.1454H21.2583V27.8056C21.1783 27.8256 21.0983 27.8523 21.0116 27.8923C20.5449 28.1056 20.2915 28.5591 20.3515 29.0392C20.4048 29.4526 20.7316 29.9327 21.4584 30.0794V30.086C21.7851 30.146 21.9985 30.3127 22.0318 30.5328C22.0518 30.6995 21.9585 30.8528 21.7851 30.9329C21.3183 31.1529 21.045 30.8062 20.9983 30.7395L20.4115 31.1529C20.5515 31.3529 20.8516 31.613 21.2583 31.693V32.3465H21.9785V31.6263C22.0185 31.613 22.0518 31.6063 22.0918 31.5863C22.5519 31.3729 22.812 30.9195 22.7453 30.4394C22.6919 30.026 22.3652 29.5459 21.6384 29.3992Z" fill="#CC7051"/>
<path d="M22.7565 10.5295V10.5295C22.7565 9.13249 21.624 8 20.227 8H20.1517C18.7131 8 17.5469 9.16621 17.5469 10.6048V16.9612C17.5469 17.9682 18.3632 18.7845 19.3702 18.7845V18.7845C20.3771 18.7845 21.1935 17.9682 21.1935 16.9612V11.4311C21.1935 10.9332 20.7898 10.5295 20.2918 10.5295V10.5295C19.7939 10.5295 19.3902 10.9332 19.3902 11.4311V16.1397" stroke="#CC7051" stroke-width="0.78867" stroke-linecap="round"/>
</svg>
