<svg width="20" height="20" viewBox="0 0 20 20" fill="none" xmlns="http://www.w3.org/2000/svg">
<path d="M18.3307 9.16797V6.59366C18.3307 5.25399 17.2447 4.16797 15.905 4.16797H4.08975C2.75008 4.16797 1.66406 5.25399 1.66406 6.59366V13.4089C1.66406 14.7486 2.75008 15.8346 4.08975 15.8346H15.905C17.2447 15.8346 18.3307 14.7486 18.3307 13.4089V11.2513" stroke="#93A6FF" stroke-width="1.3" stroke-miterlimit="10" stroke-linecap="round" stroke-linejoin="round"/>
<line x1="2.31406" y1="7.29141" x2="17.6803" y2="7.29141" stroke="#93A6FF" stroke-width="1.3" stroke-miterlimit="10" stroke-linecap="round" stroke-linejoin="round"/>
<path fill-rule="evenodd" clip-rule="evenodd" d="M13.9983 12.8504C13.7902 13.0518 13.4988 13.177 13.1763 13.177C12.5439 13.177 12.0312 12.6958 12.0312 12.1022C12.0312 11.5086 12.5439 11.0273 13.1763 11.0273C13.4989 11.0273 13.7904 11.1526 13.9985 11.3542C14.2066 11.1527 14.498 11.0275 14.8206 11.0275C15.4529 11.0275 15.9656 11.5088 15.9656 12.1024C15.9656 12.696 15.4529 13.1772 14.8206 13.1772C14.4979 13.1772 14.2064 13.0519 13.9983 12.8504Z" fill="#93A6FF"/>
<path d="M5 12.1016H7.91924" stroke="#93A6FF" stroke-width="1.3" stroke-miterlimit="10" stroke-linecap="round" stroke-linejoin="round"/>
</svg>
