<svg width="20" height="20" viewBox="0 0 20 20" fill="none" xmlns="http://www.w3.org/2000/svg">
<path d="M6.68964 17.1528H2.25794C1.70566 17.1528 1.25795 16.705 1.25794 16.1528L1.25783 4.85158C1.25782 3.74701 2.15325 2.85156 3.25783 2.85156H5.78843C6.36141 2.85156 6.90687 3.09732 7.28649 3.5265L7.43814 3.69795C7.81776 4.12713 8.36323 4.37288 8.93621 4.37288H14.1895C15.0179 4.37288 15.6895 5.04442 15.6895 5.87283L15.6896 8.13231" stroke="#93A6FF" stroke-width="1.3" stroke-linecap="round"/>
<path d="M4.44889 9.17338C4.67668 8.60389 5.22825 8.23047 5.8416 8.23047H17.7806C18.4881 8.23047 18.9719 8.94499 18.7091 9.60186L16.0666 16.2082C15.8388 16.7776 15.2872 17.1511 14.6739 17.1511H2.73485C2.02738 17.1511 1.54362 16.4365 1.80637 15.7797L4.44889 9.17338Z" stroke="#93A6FF" stroke-width="1.3" stroke-linecap="round"/>
</svg>
