<svg width="20" height="20" viewBox="0 0 20 20" fill="none" xmlns="http://www.w3.org/2000/svg">
<path d="M2.89062 6.40625V5.75625C2.53164 5.75625 2.24063 6.04726 2.24063 6.40625H2.89062ZM17.7605 9.51739C17.7605 9.15841 17.4695 8.86739 17.1105 8.86739C16.7515 8.86739 16.4605 9.15841 16.4605 9.51739H17.7605ZM2.89062 7.05625H17.1105V5.75625H2.89062V7.05625ZM16.1105 17.2285H3.89062V18.5285H16.1105V17.2285ZM3.54062 16.8785V6.40625H2.24063V16.8785H3.54062ZM16.4605 9.51739V16.8785H17.7605V9.51739H16.4605ZM3.89062 17.2285C3.69733 17.2285 3.54062 17.0718 3.54062 16.8785H2.24063C2.24063 17.7898 2.97935 18.5285 3.89062 18.5285V17.2285ZM16.1105 18.5285C17.0217 18.5285 17.7605 17.7898 17.7605 16.8785H16.4605C16.4605 17.0718 16.3038 17.2285 16.1105 17.2285V18.5285Z" fill="#93A6FF"/>
<path d="M2.89062 6.40625H17.1105L14.8693 2.61923C14.6893 2.31508 14.3621 2.12853 14.0087 2.12853H5.99241C5.63899 2.12853 5.31182 2.31508 5.13182 2.61923L2.89062 6.40625Z" stroke="#93A6FF" stroke-width="1.3" stroke-linejoin="round"/>
<path d="M10 2.125L10 6.4027" stroke="#93A6FF" stroke-width="1.3" stroke-linecap="round" stroke-linejoin="round"/>
<path d="M7.48436 11.9296L9.30391 13.7491L12.5218 10.5312" stroke="#93A6FF" stroke-width="1.3" stroke-linecap="round" stroke-linejoin="round"/>
</svg>
