<svg width="20" height="20" viewBox="0 0 20 20" fill="none" xmlns="http://www.w3.org/2000/svg">
<path d="M4.0625 19L15.938 19C17.0426 19 17.938 18.1046 17.938 17L17.938 7.40843C17.938 6.86984 17.7208 6.35401 17.3355 5.97767L12.822 1.56924C12.4484 1.2043 11.9468 1 11.4245 1H4.0625C2.95793 1 2.0625 1.89543 2.0625 3V17C2.0625 18.1046 2.95793 19 4.0625 19Z" stroke="#93A6FF" stroke-width="1.3" stroke-linecap="round"/>
<path d="M10.9297 1.27344V5.51739C10.9297 6.06968 11.3774 6.51739 11.9297 6.51739H14.2015" stroke="#93A6FF" stroke-width="1.3" stroke-linecap="round"/>
<path d="M7.77344 13.7577C7.77344 14.6177 8.43344 15.311 9.25344 15.311H10.9268C11.6401 15.311 12.2201 14.7043 12.2201 13.9577C12.2201 13.1443 11.8668 12.8577 11.3401 12.671L8.65344 11.7377C8.12677 11.551 7.77344 11.2643 7.77344 10.451C7.77344 9.70432 8.35344 9.09766 9.06677 9.09766H10.7401C11.5601 9.09766 12.2201 9.79099 12.2201 10.651" stroke="#93A6FF" stroke-width="1.3" stroke-linecap="round" stroke-linejoin="round"/>
<path d="M9.99219 8.20312V10.4253V12.2031V13.9809V16.2031" stroke="#93A6FF" stroke-width="1.3" stroke-linecap="round" stroke-linejoin="round"/>
</svg>
