<svg width="20" height="20" viewBox="0 0 20 20" fill="none" xmlns="http://www.w3.org/2000/svg">
<path d="M15.8007 6.80023C15.8007 10.1091 12.9413 13.552 11.2378 15.3096C10.5499 16.0193 9.45095 16.0193 8.76304 15.3096C7.05955 13.552 4.2002 10.1091 4.2002 6.80023C4.2002 4.98766 5.01585 3.35634 6.37528 2.2688C7.3722 1.45314 8.641 1 10.0004 1C11.5411 1 12.9005 1.6344 13.9881 2.54069C15.0756 3.62823 15.8007 5.07829 15.8007 6.80023Z" stroke="#203551" stroke-width="1.3" stroke-miterlimit="10" stroke-linecap="round" stroke-linejoin="round"/>
<path d="M10.0007 8.7943C11.1018 8.7943 11.9945 7.90163 11.9945 6.80047C11.9945 5.69931 11.1018 4.80664 10.0007 4.80664C8.8995 4.80664 8.00684 5.69931 8.00684 6.80047C8.00684 7.90163 8.8995 8.7943 10.0007 8.7943Z" stroke="#203551" stroke-width="1.3" stroke-miterlimit="10" stroke-linecap="round" stroke-linejoin="round"/>
<path d="M4.2001 13.959L2.5126 17.2519C2.10339 18.0505 2.68327 18.9992 3.58053 18.9992H16.4201C17.3174 18.9992 17.8973 18.0505 17.4881 17.2519L15.8006 13.959" stroke="#203551" stroke-width="1.3" stroke-miterlimit="10" stroke-linecap="round" stroke-linejoin="round"/>
</svg>
