<svg width="20" height="20" viewBox="0 0 20 20" fill="none" xmlns="http://www.w3.org/2000/svg">
<path d="M15.8007 6.80023C15.8007 10.1091 12.9413 13.552 11.2378 15.3096C10.5499 16.0193 9.45095 16.0193 8.76304 15.3096C7.05955 13.552 4.2002 10.1091 4.2002 6.80023C4.2002 4.98766 5.01585 3.35634 6.37528 2.2688C7.3722 1.45314 8.641 1 10.0004 1C11.5411 1 12.9005 1.6344 13.9881 2.54069C15.0756 3.62823 15.8007 5.07829 15.8007 6.80023Z" stroke="#6C7E95" stroke-width="1.3" stroke-miterlimit="10" stroke-linecap="round" stroke-linejoin="round"/>
<path d="M10.0007 8.79381C11.1018 8.79381 11.9945 7.90114 11.9945 6.79998C11.9945 5.69882 11.1018 4.80615 10.0007 4.80615C8.8995 4.80615 8.00684 5.69882 8.00684 6.79998C8.00684 7.90114 8.8995 8.79381 10.0007 8.79381Z" stroke="#6C7E95" stroke-width="1.3" stroke-miterlimit="10" stroke-linecap="round" stroke-linejoin="round"/>
<path d="M4.2001 13.9597L2.5126 17.2527C2.10339 18.0512 2.68327 18.9999 3.58053 18.9999H16.4201C17.3174 18.9999 17.8973 18.0512 17.4881 17.2527L15.8006 13.9597" stroke="#6C7E95" stroke-width="1.3" stroke-miterlimit="10" stroke-linecap="round" stroke-linejoin="round"/>
</svg>
