<svg width="40" height="40" viewBox="0 0 40 40" fill="none" xmlns="http://www.w3.org/2000/svg">
<rect width="40" height="40" rx="20" fill="#DCEDFF"/>
<rect x="9.9375" y="12.2754" width="18.2343" height="17.5471" rx="1.3" fill="#CC7051"/>
<rect x="11.8359" y="10.1816" width="18.2343" height="17.6" rx="1.3" fill="white"/>
<rect x="13.3438" y="11.7002" width="15.2335" height="14.507" fill="#DCEDFF"/>
<rect x="14.6641" y="17.0521" width="3.63602" height="12.9152" rx="1.81801" transform="rotate(-90 14.6641 17.0521)" fill="#F9B66F"/>
<rect opacity="0.7" x="14.6714" y="20.9642" width="2.41793" height="3.4152" rx="1.20896" transform="rotate(-90 14.6714 20.9642)" fill="#B6C5D6"/>
<rect opacity="0.7" x="14.6714" y="24.4912" width="2.41793" height="3.4152" rx="1.20896" transform="rotate(-90 14.6714 24.4912)" fill="#B6C5D6"/>
<rect opacity="0.7" x="19.0698" y="20.9642" width="2.41793" height="3.4152" rx="1.20896" transform="rotate(-90 19.0698 20.9642)" fill="#B6C5D6"/>
<rect opacity="0.7" x="19.0698" y="24.4912" width="2.41793" height="3.4152" rx="1.20896" transform="rotate(-90 19.0698 24.4912)" fill="#B6C5D6"/>
<rect opacity="0.7" x="23.8198" y="24.4912" width="5.9449" height="3.4152" rx="1.7076" transform="rotate(-90 23.8198 24.4912)" fill="#B6C5D6"/>
</svg>
