<svg width="32" height="32" viewBox="0 0 32 32" fill="none" xmlns="http://www.w3.org/2000/svg">
<circle cx="16" cy="16" r="16" fill="#E4D8FF"/>
<rect width="16" height="6.81837" rx="2" transform="matrix(-1 0 0 1 24.002 12.594)" stroke="#7C23EE" stroke-width="1.3" stroke-miterlimit="10" stroke-linecap="round" stroke-linejoin="round"/>
<path d="M24.002 22.8953C24.002 22.1014 23.3584 21.4578 22.5645 21.4578L9.43945 21.4578C8.64554 21.4578 8.00195 22.1014 8.00195 22.8953V22.8953C8.00195 23.6892 8.64554 24.3327 9.43945 24.3327L22.5645 24.3327C23.3584 24.3327 24.002 23.6892 24.002 22.8953V22.8953Z" stroke="#7C23EE" stroke-width="1.3" stroke-miterlimit="10" stroke-linecap="round" stroke-linejoin="round"/>
<path d="M24.002 9.10619C24.002 8.31229 23.3584 7.6687 22.5645 7.6687L9.43945 7.6687C8.64554 7.6687 8.00195 8.31229 8.00195 9.10619V9.10619C8.00195 9.9001 8.64554 10.5437 9.43945 10.5437L22.5645 10.5437C23.3584 10.5437 24.002 9.9001 24.002 9.10619V9.10619Z" stroke="#7C23EE" stroke-width="1.3" stroke-miterlimit="10" stroke-linecap="round" stroke-linejoin="round"/>
</svg>
