<svg width="21" height="21" viewBox="0 0 21 21" fill="none" xmlns="http://www.w3.org/2000/svg">
<path d="M3.6667 14.6667V14.5C3.6667 13.0999 3.6667 12.3998 3.9392 11.865C4.1789 11.3946 4.5613 11.0122 5.0317 10.7725C5.5665 10.5 6.2666 10.5 7.6667 10.5H13C14.4002 10.5 15.1002 10.5 15.635 10.7725C16.1054 11.0122 16.4879 11.3946 16.7276 11.865C17 12.3998 17 13.0999 17 14.5V14.6667M3.6667 14.6667C2.7462 14.6667 2 15.4129 2 16.3333C2 17.2538 2.7462 18 3.6667 18C4.5872 18 5.3334 17.2538 5.3334 16.3333C5.3334 15.4129 4.5872 14.6667 3.6667 14.6667ZM17 14.6667C16.0796 14.6667 15.3334 15.4129 15.3334 16.3333C15.3334 17.2538 16.0796 18 17 18C17.9205 18 18.6667 17.2538 18.6667 16.3333C18.6667 15.4129 17.9205 14.6667 17 14.6667ZM10.3334 6.3333V14.6667M10.3334 6.3333C9.4129 6.3333 8.6667 5.5871 8.6667 4.6667C8.6667 3.7462 9.4129 3 10.3334 3C11.2539 3 12 3.7462 12 4.6667C12 5.5871 11.2539 6.3333 10.3334 6.3333ZM10.3334 14.6667C9.4129 14.6667 8.6667 15.4129 8.6667 16.3333C8.6667 17.2538 9.4129 18 10.3334 18C11.2539 18 12 17.2538 12 16.3333C12 15.4129 11.2539 14.6667 10.3334 14.6667Z" stroke="white" stroke-width="1.3" stroke-linecap="round" stroke-linejoin="round"/>
</svg>
