<svg width="60" height="60" viewBox="0 0 60 60" fill="none" xmlns="http://www.w3.org/2000/svg">
<rect width="60" height="60" rx="30" fill="#DCEDFF"/>
<path d="M13.7539 41.0292C13.7539 43.8127 16.0104 46.0692 18.7939 46.0692H45.7164C46.4123 46.0692 46.9764 45.5051 46.9764 44.8092V24.6407C46.9764 23.9448 46.4123 23.3807 45.7164 23.3807H13.7539V41.0292Z" fill="#EB934E"/>
<path d="M17.123 28.7435L17.123 40.8948" stroke="#F9B66F" stroke-width="1.83132" stroke-linecap="round"/>
<path d="M37.6768 34.7162C37.6768 36.9119 39.4568 38.692 41.6525 38.692H47.9262C48.4922 38.692 48.9511 38.2331 48.9511 37.667V31.7653C48.9511 31.1993 48.4922 30.7404 47.9262 30.7404H41.6525C39.4568 30.7404 37.6768 32.5204 37.6768 34.7162Z" fill="#F9B66F"/>
<path d="M13.7539 20.2321H44.0053V23.3824H13.7539V20.2321Z" fill="#EB934E"/>
<path d="M13.7539 20.2249C13.7539 18.4845 15.1647 17.0737 16.9051 17.0737H42.7453C43.4411 17.0737 44.0053 17.6378 44.0053 18.3337V23.376H16.9051C15.1647 23.376 13.7539 21.9652 13.7539 20.2249Z" fill="#93452B"/>
<path d="M17.124 14.9631C17.124 14.2672 17.6881 13.7031 18.384 13.7031H39.3769C40.0727 13.7031 40.6369 14.2672 40.6369 14.9631V23.3748H17.124V14.9631Z" fill="#F6B755"/>
<path d="M34.9526 18.5399L22.8013 18.5399" stroke="white" stroke-width="1.83132" stroke-linecap="round"/>
<circle cx="41.9561" cy="34.7181" r="1.68463" fill="#93452B"/>
</svg>
