<svg xmlns="http://www.w3.org/2000/svg" width="19.3" height="15.152" viewBox="0 0 19.3 15.152">
  <g id="assignationn_icon" transform="translate(-0.35 -2.424)">
    <circle id="Ellipse_1" data-name="Ellipse 1" cx="3.425" cy="3.425" r="3.425" transform="translate(3.123 3.074)" fill="none" stroke="#6c7e95" stroke-width="1.3"/>
    <circle id="Ellipse_2" data-name="Ellipse 2" cx="2.488" cy="2.488" r="2.488" transform="translate(12.481 4.323)" fill="none" stroke="#6c7e95" stroke-width="1.3"/>
    <path id="Path_1" data-name="Path 1" d="M9.095,12.415H4a3,3,0,0,0-3,3v.511a1,1,0,0,0,1,1h9.1a1,1,0,0,0,1-1v-.511A3,3,0,0,0,9.095,12.415Z" fill="none" stroke="#6c7e95" stroke-linecap="round" stroke-width="1.3"/>
    <path id="Path_2" data-name="Path 2" d="M14.969,14.388h3.211A.819.819,0,0,0,19,13.568h0a2.458,2.458,0,0,0-2.458-2.458h-3.6" fill="none" stroke="#6c7e95" stroke-linecap="round" stroke-width="1.3"/>
  </g>
</svg>
