<svg width="32" height="32" viewBox="0 0 32 32" fill="none" xmlns="http://www.w3.org/2000/svg">
<circle cx="16" cy="16" r="16" fill="#CCE0FF"/>
<ellipse cx="12.781" cy="12.7821" rx="3.02364" ry="3.0821" stroke="#0066FF" stroke-width="1.3"/>
<ellipse cx="20.2169" cy="13.0643" rx="2.19686" ry="2.23933" stroke="#0066FF" stroke-width="1.3"/>
<path d="M15.0154 18.1057H10.5463C9.07529 18.1057 7.88281 19.2982 7.88281 20.7692V21.2776C7.88281 21.768 8.2803 22.1654 8.77064 22.1654H16.7911C17.2814 22.1654 17.6789 21.768 17.6789 21.2776V20.7692C17.6789 19.2982 16.4864 18.1057 15.0154 18.1057Z" stroke="#0066FF" stroke-width="1.3" stroke-linecap="round"/>
<path d="M20.2168 19.8821H23.0381C23.4453 19.8821 23.7755 19.552 23.7755 19.1447V19.1447C23.7755 17.9229 22.785 16.9325 21.5632 16.9325H18.4299" stroke="#0066FF" stroke-width="1.3" stroke-linecap="round"/>
</svg>
