<svg width="21" height="21" viewBox="0 0 21 21" fill="none" xmlns="http://www.w3.org/2000/svg">
<path d="M8.54956 10.8257C10.4409 10.8257 11.9741 9.29245 11.9741 7.40112C11.9741 5.50979 10.4409 3.97656 8.54956 3.97656C6.65823 3.97656 5.125 5.50979 5.125 7.40112C5.125 9.29245 6.65823 10.8257 8.54956 10.8257Z" stroke="white" stroke-width="1.3"/>
<path d="M11.4315 13.3125H5.66347C4.19248 13.3125 3 14.505 3 15.976V16.9355C3 17.4258 3.39749 17.8233 3.88782 17.8233H13.2072C13.6975 17.8233 14.095 17.4258 14.095 16.9355V15.976C14.095 14.505 12.9025 13.3125 11.4315 13.3125Z" stroke="white" stroke-width="1.3" stroke-linecap="round"/>
<path d="M18.393 7.79932L15.8543 10.3381L14.055 8.53881" stroke="white" stroke-width="1.3" stroke-linecap="round" stroke-linejoin="round"/>
</svg>
