<svg width="20" height="20" viewBox="0 0 20 20" fill="none" xmlns="http://www.w3.org/2000/svg">
<path d="M10.171 16.1427L9.71142 15.6831L9.71142 15.6831L10.171 16.1427ZM11.1627 3.83729L10.7031 3.37767L11.1627 3.83729ZM4.51419 10.4858L4.97381 10.9455L4.51419 10.4858ZM13.2795 6.68037C13.5333 6.42653 13.5333 6.01498 13.2795 5.76113C13.0257 5.50729 12.6141 5.50729 12.3603 5.76113L13.2795 6.68037ZM17.2792 9.95377C17.5331 9.69993 17.5331 9.28837 17.2792 9.03453C17.0254 8.78069 16.6138 8.78069 16.36 9.03453L17.2792 9.95377ZM4.97381 10.9455L11.6224 4.29691L10.7031 3.37767L4.05457 10.0262L4.97381 10.9455ZM9.71142 15.6831C9.21718 16.1773 8.53899 16.5186 7.79417 16.5389C7.06388 16.5588 6.19152 16.2722 5.28808 15.3688L4.36884 16.288C5.4857 17.4049 6.69065 17.8695 7.82959 17.8384C8.95399 17.8078 9.93693 17.296 10.6307 16.6023L9.71142 15.6831ZM14.8744 4.16622C15.7097 5.00144 15.7054 6.45659 14.7437 7.41828L15.663 8.33752C17.0772 6.92328 17.19 4.64332 15.7937 3.24698L14.8744 4.16622ZM11.6224 4.29691C12.584 3.33522 14.0392 3.33099 14.8744 4.16622L15.7937 3.24698C14.3973 1.85064 12.1174 1.96343 10.7031 3.37767L11.6224 4.29691ZM4.05457 10.0262C3.36084 10.72 2.84911 11.7029 2.81846 12.8273C2.78742 13.9662 3.25197 15.1712 4.36884 16.288L5.28808 15.3688C4.38464 14.4654 4.09807 13.593 4.11798 12.8627C4.13828 12.1179 4.47957 11.4397 4.97381 10.9455L4.05457 10.0262ZM14.7437 7.41828L12.7045 9.45754L13.6237 10.3768L15.663 8.33752L14.7437 7.41828ZM12.7045 9.45754L9.52436 12.6377L10.4436 13.5569L13.6237 10.3768L12.7045 9.45754ZM8.42329 11.5366L13.2795 6.68037L12.3603 5.76113L7.50405 10.6173L8.42329 11.5366ZM10.6307 16.6023L17.2792 9.95377L16.36 9.03453L9.71142 15.6831L10.6307 16.6023ZM8.42329 12.6377C8.11924 12.3336 8.11924 11.8406 8.42329 11.5366L7.50405 10.6173C6.69232 11.4291 6.69232 12.7452 7.50405 13.5569L8.42329 12.6377ZM9.52436 12.6377C9.22031 12.9417 8.72734 12.9417 8.42329 12.6377L7.50405 13.5569C8.31578 14.3686 9.63186 14.3686 10.4436 13.5569L9.52436 12.6377Z" fill="white"/>
</svg>
