<svg width="21" height="20" viewBox="0 0 21 20" fill="none" xmlns="http://www.w3.org/2000/svg">
<path d="M10.671 16.1427L10.2114 15.6831L10.671 16.1427ZM11.6627 3.83729L11.2031 3.37767L11.6627 3.83729ZM5.01416 10.4858L5.47378 10.9455L5.01416 10.4858ZM13.7795 6.68037C14.0333 6.42653 14.0333 6.01498 13.7795 5.76113C13.5256 5.50729 13.1141 5.50729 12.8602 5.76113L13.7795 6.68037ZM17.7792 9.95377C18.033 9.69993 18.033 9.28837 17.7792 9.03453C17.5253 8.78069 17.1138 8.78069 16.8599 9.03453L17.7792 9.95377ZM5.47378 10.9455L12.1223 4.29691L11.2031 3.37767L4.55454 10.0262L5.47378 10.9455ZM10.2114 15.6831C9.71715 16.1773 9.03896 16.5186 8.29414 16.5389C7.56384 16.5588 6.69149 16.2722 5.78805 15.3688L4.86881 16.288C5.98567 17.4049 7.19062 17.8695 8.32956 17.8384C9.45396 17.8078 10.4369 17.296 11.1306 16.6023L10.2114 15.6831ZM15.3744 4.16622C16.2096 5.00144 16.2054 6.45659 15.2437 7.41828L16.1629 8.33752C17.5772 6.92328 17.69 4.64332 16.2936 3.24698L15.3744 4.16622ZM12.1223 4.29691C13.084 3.33522 14.5392 3.33099 15.3744 4.16622L16.2936 3.24698C14.8973 1.85064 12.6173 1.96343 11.2031 3.37767L12.1223 4.29691ZM4.55454 10.0262C3.86081 10.72 3.34908 11.7029 3.31843 12.8273C3.28739 13.9662 3.75194 15.1712 4.86881 16.288L5.78805 15.3688C4.88461 14.4654 4.59804 13.593 4.61795 12.8627C4.63825 12.1179 4.97954 11.4397 5.47378 10.9455L4.55454 10.0262ZM15.2437 7.41828L13.2044 9.45755L14.1237 10.3768L16.1629 8.33752L15.2437 7.41828ZM13.2044 9.45755L10.0243 12.6377L10.9436 13.5569L14.1237 10.3768L13.2044 9.45755ZM8.92326 11.5366L13.7795 6.68037L12.8602 5.76113L8.00402 10.6174L8.92326 11.5366ZM11.1306 16.6023L17.7792 9.95377L16.8599 9.03453L10.2114 15.6831L11.1306 16.6023ZM8.92326 12.6377C8.61921 12.3336 8.61921 11.8406 8.92326 11.5366L8.00402 10.6174C7.19229 11.4291 7.19229 12.7452 8.00402 13.5569L8.92326 12.6377ZM10.0243 12.6377C9.72028 12.9417 9.22731 12.9417 8.92326 12.6377L8.00402 13.5569C8.81575 14.3686 10.1318 14.3686 10.9436 13.5569L10.0243 12.6377Z" fill="#203551"/>
</svg>
