<svg width="40" height="40" viewBox="0 0 40 40" fill="none" xmlns="http://www.w3.org/2000/svg">
<path d="M0 12C0 5.37258 5.37258 0 12 0H28C34.6274 0 40 5.37258 40 12V28C40 34.6274 34.6274 40 28 40H12C5.37258 40 0 34.6274 0 28V12Z" fill="white"/>
<path d="M12.5 20.0013L27.5 20.0013M18.3333 14.168L12.5 20.0013L18.3333 14.168ZM12.5 20.0013L18.3333 25.8346L12.5 20.0013Z" stroke="#203551" stroke-width="1.5" stroke-linecap="round" stroke-linejoin="round"/>
<path d="M12 0.5H28V-0.5H12V0.5ZM39.5 12V28H40.5V12H39.5ZM28 39.5H12V40.5H28V39.5ZM0.5 28V12H-0.5V28H0.5ZM12 39.5C5.64873 39.5 0.5 34.3513 0.5 28H-0.5C-0.5 34.9036 5.09644 40.5 12 40.5V39.5ZM39.5 28C39.5 34.3513 34.3513 39.5 28 39.5V40.5C34.9036 40.5 40.5 34.9036 40.5 28H39.5ZM28 0.5C34.3513 0.5 39.5 5.64873 39.5 12H40.5C40.5 5.09644 34.9036 -0.5 28 -0.5V0.5ZM12 -0.5C5.09644 -0.5 -0.5 5.09644 -0.5 12H0.5C0.5 5.64873 5.64873 0.5 12 0.5V-0.5Z" fill="#BFCEE0"/>
</svg>
