<svg width="40" height="40" viewBox="0 0 40 40" fill="none" xmlns="http://www.w3.org/2000/svg">
<rect width="40" height="40" rx="20" fill="#DCEDFF"/>
<path d="M12.7692 30.0234L32.6787 30.0234C33.5071 30.0234 34.1787 29.3519 34.1787 28.5234V21.0556C34.1787 20.2272 33.5071 19.5556 32.6787 19.5556H12.7692V30.0234Z" fill="#EB934E"/>
<path d="M20.3542 19.6328H29.0254V11.4882C29.0254 10.6597 28.3538 9.98816 27.5254 9.98816L20.3542 9.98816V19.6328Z" fill="#CC7051"/>
<path d="M20.4092 9.98438H12.5283C11.6999 9.98438 11.0283 10.6559 11.0283 11.4844V19.6129H21.9092V11.4844C21.9092 10.6559 21.2376 9.98438 20.4092 9.98438Z" fill="#F9B66F"/>
<path d="M25.9771 19.6172H16.4453V30.0247H25.9771C26.8055 30.0247 27.4771 29.3531 27.4771 28.5247V21.1172C27.4771 20.2888 26.8055 19.6172 25.9771 19.6172Z" fill="#F9B66F"/>
<mask id="mask0_6209_28584" style="mask-type:alpha" maskUnits="userSpaceOnUse" x="16" y="19" width="12" height="12">
<path d="M25.9536 19.6172H16.4219V30.0247H25.9536C26.7821 30.0247 27.4536 29.3531 27.4536 28.5247V21.1172C27.4536 20.2888 26.7821 19.6172 25.9536 19.6172Z" fill="#F9B66F"/>
</mask>
<g mask="url(#mask0_6209_28584)">
<ellipse opacity="0.5" cx="25.7231" cy="27.9213" rx="5.37443" ry="5.37443" fill="#EB934E"/>
</g>
<path d="M17.8002 9.98438H15.1416V12.2119H17.8002V9.98438Z" fill="#CC7051"/>
<path d="M16.4359 19.2266H7.33594C6.50751 19.2266 5.83594 19.8981 5.83594 20.7266V28.5235C5.83594 29.352 6.50751 30.0235 7.33594 30.0235H16.4359V19.2266Z" fill="#F9B66F"/>
<path d="M21.9091 19.4219H11.0283" stroke="#CC7051" stroke-width="0.5" stroke-miterlimit="10"/>
<path d="M23.248 19.6172H20.5894V21.8608H23.248V19.6172Z" fill="#CC7051"/>
<path d="M16.4453 30.0247L16.4453 19.6172" stroke="#CC7051" stroke-width="0.5" stroke-miterlimit="10"/>
<path d="M12.3676 19.2266H9.70898V21.8435H12.3676V19.2266Z" fill="#CC7051"/>
<circle cx="27.0889" cy="28.0396" r="5.17242" fill="#F36565"/>
<circle cx="27.0889" cy="28.0396" r="5.17242" fill="#59B277"/>
<path d="M25.1138 27.9152L26.517 29.3183L29.0774 26.7578" stroke="white" stroke-width="1.3" stroke-linecap="round" stroke-linejoin="round"/>
</svg>
