<svg width="40" height="40" viewBox="0 0 40 40" fill="none" xmlns="http://www.w3.org/2000/svg">
<rect width="40" height="40" rx="20" fill="#DCEDFF"/>
<mask id="mask0_6209_28522" style="mask-type:alpha" maskUnits="userSpaceOnUse" x="9" y="10" width="18" height="21">
<path d="M25.6045 10.5469H10.7866C10.2343 10.5469 9.78662 10.9946 9.78662 11.5469V26.3242C9.78662 28.5334 11.5775 30.3242 13.7866 30.3242H26.6045V11.5469C26.6045 10.9946 26.1568 10.5469 25.6045 10.5469Z" fill="white"/>
</mask>
<g mask="url(#mask0_6209_28522)">
<path d="M25.6045 10.5469H10.7866C10.2343 10.5469 9.78662 10.9946 9.78662 11.5469V26.3242C9.78662 28.5334 11.5775 30.3242 13.7866 30.3242H26.6045V11.5469C26.6045 10.9946 26.1568 10.5469 25.6045 10.5469Z" fill="white"/>
<path d="M13.2924 27.7031L18.5821 27.7031C18.928 27.7031 19.2085 27.4227 19.2085 27.0767C19.2085 26.7308 18.928 26.4503 18.5821 26.4503L13.2924 26.4503C12.9465 26.4503 12.666 26.7308 12.666 27.0767C12.666 27.4227 12.9465 27.7031 13.2924 27.7031Z" fill="#BAC8DB"/>
<path d="M13.2833 24.0625L23.0909 24.0625C23.4368 24.0625 23.7173 23.7821 23.7173 23.4361C23.7173 23.0902 23.4368 22.8097 23.0909 22.8097L13.2833 22.8097C12.9374 22.8097 12.6569 23.0902 12.6569 23.4361C12.6569 23.7821 12.9374 24.0625 13.2833 24.0625Z" fill="#BAC8DB"/>
<path d="M18.414 16.433C17.9518 16.3458 17.6466 16.1103 17.6117 15.7964C17.5768 15.561 17.7163 15.3429 17.9605 15.2296C18.6145 14.9244 19.007 15.404 19.0767 15.5086L19.9139 14.9244C19.7395 14.6715 19.382 14.3488 18.9023 14.2005V13.25H17.8733V14.1831C17.7599 14.218 17.6466 14.2529 17.5245 14.3052C16.8704 14.6104 16.5042 15.247 16.6001 15.9272C16.6786 16.5115 17.1408 17.1917 18.1698 17.401V17.4097C18.632 17.4882 18.9372 17.7237 18.9808 18.0376C19.007 18.2731 18.8762 18.4911 18.632 18.6044C17.9779 18.9097 17.5855 18.43 17.5158 18.3254L16.6699 18.9184C16.8617 19.1974 17.2977 19.5637 17.8733 19.6858V20.6102H18.8936V19.5899C18.9459 19.5724 18.9983 19.5637 19.0593 19.5375C19.7046 19.2323 20.0709 18.5957 19.9837 17.9068C19.9052 17.3225 19.443 16.651 18.414 16.433Z" fill="#5CB97B"/>
<ellipse cx="27.0203" cy="14.4597" rx="5.54566" ry="5.54565" fill="#FFD9B1"/>
</g>
<ellipse cx="27.9591" cy="13.0719" rx="5.09533" ry="5.09533" fill="#59B277"/>
<path d="M26.1001 12.8684L27.5343 14.3026L30.001 11.8359" stroke="white" stroke-width="1.45343" stroke-linecap="round" stroke-linejoin="round"/>
<path d="M17.7544 26.0703V26.3185C17.7544 28.5277 15.9636 30.3186 13.7544 30.3186H27.0055C29.2146 30.3186 31.0055 28.5277 31.0055 26.3185V26.0703C31.0055 25.518 30.5577 25.0703 30.0055 25.0703H18.7544C18.2021 25.0703 17.7544 25.518 17.7544 26.0703Z" fill="#EB934E"/>
</svg>
