<svg width="40" height="40" viewBox="0 0 40 40" fill="none" xmlns="http://www.w3.org/2000/svg">
<rect width="40" height="40" rx="20" fill="#DCEDFF"/>
<path d="M12.7614 30.0156L32.6709 30.0156C33.4993 30.0156 34.1709 29.3441 34.1709 28.5156V21.0478C34.1709 20.2194 33.4993 19.5478 32.6709 19.5478H12.7614V30.0156Z" fill="#EB934E"/>
<path d="M20.3532 19.625H29.0244V11.4804C29.0244 10.6519 28.3528 9.98035 27.5244 9.98035L20.3532 9.98035V19.625Z" fill="#CC7051"/>
<path d="M20.414 9.97656H12.5332C11.7048 9.97656 11.0332 10.6481 11.0332 11.4766V19.6051H21.914V11.4766C21.914 10.6481 21.2425 9.97656 20.414 9.97656Z" fill="#F9B66F"/>
<path d="M25.9644 19.6094H16.4326V30.0169H25.9644C26.7928 30.0169 27.4644 29.3453 27.4644 28.5169V21.1094C27.4644 20.2809 26.7928 19.6094 25.9644 19.6094Z" fill="#F9B66F"/>
<mask id="mask0_5509_32966" style="mask-type:alpha" maskUnits="userSpaceOnUse" x="16" y="19" width="12" height="12">
<path d="M25.9605 19.6094H16.4287V30.0169H25.9605C26.7889 30.0169 27.4605 29.3453 27.4605 28.5169V21.1094C27.4605 20.2809 26.7889 19.6094 25.9605 19.6094Z" fill="#F9B66F"/>
</mask>
<g mask="url(#mask0_5509_32966)">
<path d="M28.0668 25.7344H18.1035C17.5512 25.7344 17.1035 26.1821 17.1035 26.7344V30.2665C17.1035 30.8188 17.5512 31.2665 18.1035 31.2665H28.0668C28.6191 31.2665 29.0668 30.8188 29.0668 30.2665V26.7344C29.0668 26.1821 28.6191 25.7344 28.0668 25.7344Z" fill="#F1A45E"/>
</g>
<path d="M17.8002 9.97656H15.1416V12.2041H17.8002V9.97656Z" fill="#CC7051"/>
<path d="M16.4339 19.2188H7.33398C6.50556 19.2188 5.83398 19.8903 5.83398 20.7188V28.5157C5.83398 29.3442 6.50556 30.0157 7.33398 30.0157H16.4339V19.2188Z" fill="#F9B66F"/>
<path d="M21.914 19.4141H11.0332" stroke="#CC7051" stroke-width="0.5" stroke-miterlimit="10"/>
<path d="M23.2387 19.6094H20.5801V21.853H23.2387V19.6094Z" fill="#CC7051"/>
<path d="M16.4326 30.0169L16.4326 19.6094" stroke="#CC7051" stroke-width="0.5" stroke-miterlimit="10"/>
<path d="M12.3608 19.2188H9.70215V21.8357H12.3608V19.2188Z" fill="#CC7051"/>
<path d="M21.8486 26.8037L24.637 23.6875L27.5296 26.8037" stroke="white" stroke-linecap="round" stroke-linejoin="round"/>
<path d="M29.6703 26.3438H19.707C19.1547 26.3438 18.707 26.7915 18.707 27.3438V30.8759C18.707 31.4282 19.1547 31.8759 19.707 31.8759H29.6703C30.2226 31.8759 30.6703 31.4282 30.6703 30.8759V27.3438C30.6703 26.7915 30.2226 26.3438 29.6703 26.3438Z" fill="#F36565"/>
<path d="M21.9131 28.5H27.4684" stroke="white" stroke-linecap="round" stroke-linejoin="round"/>
<path d="M23.1982 30.1172H26.175" stroke="white" stroke-linecap="round" stroke-linejoin="round"/>
</svg>
