<svg width="40" height="40" viewBox="0 0 40 40" fill="none" xmlns="http://www.w3.org/2000/svg">
<rect width="40" height="40" rx="20" fill="#DCEDFF"/>
<path d="M23.0992 31.1271C28.4506 31.1271 32.7887 26.7889 32.7887 21.4376C32.7887 16.0862 28.4506 11.748 23.0992 11.748C17.7478 11.748 13.4097 16.0862 13.4097 21.4376C13.4097 26.7889 17.7478 31.1271 23.0992 31.1271Z" fill="#458B5C"/>
<rect x="20.5156" y="11.748" width="2.80057" height="19.3532" fill="#458B5C"/>
<path d="M20.524 31.1271C25.8754 31.1271 30.2135 26.7889 30.2135 21.4376C30.2135 16.0862 25.8754 11.748 20.524 11.748C15.1726 11.748 10.8345 16.0862 10.8345 21.4376C10.8345 26.7889 15.1726 31.1271 20.524 31.1271Z" fill="#59B377"/>
<mask id="mask0_6209_48092" style="mask-type:alpha" maskUnits="userSpaceOnUse" x="10" y="11" width="21" height="21">
<path d="M20.5269 31.1271C25.8783 31.1271 30.2165 26.7889 30.2165 21.4376C30.2165 16.0862 25.8783 11.748 20.5269 11.748C15.1755 11.748 10.8374 16.0862 10.8374 21.4376C10.8374 26.7889 15.1755 31.1271 20.5269 31.1271Z" fill="#59B377"/>
</mask>
<g mask="url(#mask0_6209_48092)">
<circle cx="12.8721" cy="15.983" r="5.17242" fill="#458B5C"/>
<path d="M20.7209 20.6076C20.0197 20.4801 19.5097 20.0976 19.446 19.6514C19.3823 19.2689 19.5735 18.9502 19.956 18.759C20.9759 18.3127 21.5496 19.014 21.6771 19.2052L22.3784 18.6952L23.0796 18.1852C22.7608 17.739 22.1871 17.1653 21.2947 16.9741V15.9541H19.5735V17.0378C19.446 17.1015 19.3185 17.1015 19.191 17.1653C18.1073 17.6753 17.5336 18.6952 17.6611 19.7789C17.7886 20.7351 18.5535 21.8188 20.211 22.2013C20.9122 22.3288 21.4222 22.7113 21.4859 23.1575C21.5496 23.54 21.3584 23.8587 20.9759 24.05C19.956 24.4962 19.3823 23.795 19.2548 23.6037L18.5535 24.1137L17.8523 24.6237C18.1711 25.0699 18.7448 25.5799 19.6372 25.8349V26.9823H21.3584V25.7711C21.4859 25.7074 21.6134 25.7074 21.7409 25.6436C22.8246 25.1336 23.3983 24.1137 23.2708 23.03C23.1433 22.0738 22.3784 20.9264 20.7209 20.6076Z" fill="white"/>
</g>
<circle cx="12.3912" cy="14.0191" r="5.17242" fill="#F36565"/>
<path d="M12.2572 11.6139L12.2572 13.9037" stroke="white" stroke-width="1.45343" stroke-linecap="round"/>
<circle cx="12.2625" cy="16.1028" r="0.756159" fill="white"/>
</svg>
