<svg width="40" height="40" viewBox="0 0 40 40" fill="none" xmlns="http://www.w3.org/2000/svg">
<rect width="40" height="40" rx="20" fill="#DCEDFF"/>
<path d="M9.16928 27.3528C9.16928 29.2084 10.6736 30.7128 12.5293 30.7128H30.4776C30.9415 30.7128 31.3176 30.3367 31.3176 29.8728V16.4271C31.3176 15.9632 30.9415 15.5871 30.4776 15.5871H9.16928V27.3528Z" fill="#EB934E"/>
<path d="M11.4154 19.1623L11.4154 27.2632" stroke="#F9B66F" stroke-width="1.22088" stroke-linecap="round"/>
<path d="M25.1179 23.1441C25.1179 24.6079 26.3046 25.7946 27.7684 25.7946H31.9509C32.3282 25.7946 32.6342 25.4887 32.6342 25.1113V21.1769C32.6342 20.7995 32.3282 20.4936 31.9509 20.4936H27.7684C26.3046 20.4936 25.1179 21.6803 25.1179 23.1441Z" fill="#F9B66F"/>
<path d="M9.16928 13.4881H29.3369V15.5883H9.16928V13.4881Z" fill="#EB934E"/>
<path d="M9.16928 13.4832C9.16928 12.323 10.1098 11.3824 11.2701 11.3824H28.4969C28.9608 11.3824 29.3369 11.7585 29.3369 12.2224V15.584H11.2701C10.1098 15.584 9.16928 14.6435 9.16928 13.4832Z" fill="#93452B"/>
<path d="M11.4163 9.97538C11.4163 9.51146 11.7924 9.13538 12.2563 9.13538H26.2515C26.7154 9.13538 27.0915 9.51146 27.0915 9.97538V15.5831H11.4163V9.97538Z" fill="#F6B755"/>
<path d="M23.3016 12.36L15.2007 12.3599" stroke="white" stroke-width="1.22088" stroke-linecap="round"/>
<circle cx="27.9709" cy="23.1454" r="1.12309" fill="#93452B"/>
</svg>
