<svg width="55" height="38" viewBox="0 0 55 38" fill="none" xmlns="http://www.w3.org/2000/svg">
<rect width="55" height="38" rx="6" fill="#0060AF"/>
<path fill-rule="evenodd" clip-rule="evenodd" d="M14.0116 22.2862C14.0116 21.8306 14.0169 20.6129 14.005 20.4628C14.0153 18.6508 12.6177 17.3726 11.7348 17.4722C11.1238 17.5222 10.6117 17.7571 10.3368 18.4327C10.0819 19.0623 10.3098 19.8998 11.157 20.0963C12.0628 20.3073 12.5919 20.4829 12.9748 20.7307C13.4438 21.0339 13.8268 21.6134 13.8369 22.2869" fill="white"/>
<path fill-rule="evenodd" clip-rule="evenodd" d="M13.639 22.2878C13.642 21.7038 13.2962 21.1875 12.8443 20.91C12.4434 20.6647 11.9053 20.5036 11.0371 20.296C10.7687 20.2313 10.488 20.0875 10.4011 19.9043C10.1712 20.1227 10.1294 20.6136 10.1699 20.9006C10.2169 21.2325 10.6285 21.7797 11.2482 21.8011C11.6266 21.8154 12.1051 21.7243 12.3346 21.6784C12.7304 21.5978 13.3567 21.8315 13.4564 22.2871" fill="white"/>
<path fill-rule="evenodd" clip-rule="evenodd" d="M14.3341 14.6484C13.2833 14.6484 12.3757 15.3017 12.3789 16.432C12.3822 17.3825 13.1931 17.8914 13.4826 18.2548C13.9198 18.8025 14.1565 19.4508 14.181 20.4428C14.2002 21.2322 14.1992 22.0118 14.2035 22.2881H14.4354C14.4314 21.999 14.4209 21.1714 14.4329 20.4184C14.4486 19.4261 14.6938 18.8025 15.1313 18.2548C15.4233 17.8914 16.2334 17.3825 16.2352 16.432C16.2392 15.3017 15.332 14.6484 14.2822 14.6484" fill="white"/>
<path fill-rule="evenodd" clip-rule="evenodd" d="M14.5989 22.2862C14.5989 21.8306 14.5935 20.6129 14.6052 20.4628C14.5949 18.6508 15.9916 17.3726 16.8753 17.4722C17.4863 17.5222 17.9978 17.7571 18.2735 18.4327C18.5281 19.0623 18.299 19.8998 17.4528 20.0963C16.5464 20.3073 16.0181 20.4829 15.6343 20.7307C15.1657 21.0339 14.8096 21.6134 14.7987 22.2869" fill="white"/>
<path fill-rule="evenodd" clip-rule="evenodd" d="M14.9766 22.2878C14.9733 21.7038 15.319 21.1875 15.7696 20.91C16.1722 20.6647 16.7109 20.5036 17.5783 20.296C17.8472 20.2313 18.1276 20.0875 18.213 19.9043C18.444 20.1227 18.4857 20.6136 18.4452 20.9006C18.3973 21.2325 17.9867 21.7797 17.3681 21.8011C16.9899 21.8154 16.5088 21.7243 16.2803 21.6784C15.886 21.5978 15.258 21.8315 15.1578 22.2871" fill="white"/>
<path fill-rule="evenodd" clip-rule="evenodd" d="M15.2984 24.1737L15.1641 23.2488L15.4886 23.2024C15.5675 23.1923 15.6637 23.2053 15.7022 23.2519C15.7448 23.3006 15.7578 23.3409 15.766 23.4048C15.7783 23.484 15.754 23.5753 15.6596 23.6208V23.6236C15.765 23.6236 15.8287 23.695 15.8473 23.8156C15.8499 23.8411 15.858 23.9025 15.8499 23.9539C15.8285 24.076 15.7513 24.1153 15.6208 24.1326L15.2984 24.1737ZM15.5058 24.0083C15.5443 24.0031 15.5833 24.0011 15.6138 23.9828C15.6606 23.954 15.6564 23.8926 15.6498 23.8469C15.6336 23.7466 15.6059 23.7084 15.4929 23.7241L15.4219 23.7344L15.4669 24.0134L15.5058 24.0083ZM15.4406 23.58C15.4836 23.5735 15.5417 23.5685 15.566 23.5301C15.5788 23.5044 15.595 23.484 15.5843 23.4269C15.571 23.3593 15.5473 23.3173 15.456 23.3336L15.3711 23.3465L15.4047 23.5835L15.4406 23.58Z" fill="white"/>
<path fill-rule="evenodd" clip-rule="evenodd" d="M16.7055 23.6173C16.708 23.6345 16.7109 23.6537 16.712 23.6709C16.7383 23.8395 16.7055 23.9792 16.5043 24.0177C16.2069 24.0716 16.1499 23.8975 16.0977 23.6537L16.0698 23.5217C16.0288 23.2885 16.0112 23.1119 16.3011 23.0574C16.4645 23.0293 16.5725 23.0907 16.6175 23.244C16.6245 23.2669 16.6332 23.2894 16.6365 23.3125L16.4586 23.3471C16.4381 23.2894 16.4109 23.1865 16.3308 23.1951C16.1872 23.2115 16.2346 23.3799 16.2494 23.4504L16.3029 23.7036C16.3189 23.7802 16.3508 23.9025 16.4751 23.8789C16.576 23.8598 16.532 23.7116 16.523 23.6508" fill="white"/>
<path fill-rule="evenodd" clip-rule="evenodd" d="M16.995 23.8969L16.9336 22.9398L17.1724 22.8711L17.6734 23.7035L17.4853 23.7566L17.3666 23.545L17.1577 23.6042L17.1847 23.8447L16.995 23.8969ZM17.1394 23.45L17.2903 23.4087L17.0898 23.0215L17.1394 23.45Z" fill="white"/>
<path fill-rule="evenodd" clip-rule="evenodd" d="M11.0956 23.1717C11.1704 22.9461 11.2373 22.7799 11.5227 22.8537C11.6754 22.894 11.7701 22.9573 11.7656 23.1246C11.7649 23.1618 11.7519 23.1998 11.7433 23.2365L11.5657 23.1903C11.589 23.0979 11.6037 23.0246 11.483 22.9896C11.3436 22.9535 11.3096 23.113 11.2903 23.1819L11.2181 23.4327C11.1951 23.5072 11.1676 23.6304 11.2903 23.6622C11.3918 23.6879 11.4532 23.5941 11.4899 23.457L11.3657 23.4259L11.4087 23.2808L11.7009 23.3693L11.5622 23.8529L11.4277 23.8185L11.458 23.7163H11.4542C11.3922 23.8 11.3168 23.8087 11.2506 23.7967C10.9584 23.7223 10.9889 23.5422 11.0587 23.3017" fill="white"/>
<path fill-rule="evenodd" clip-rule="evenodd" d="M12.1767 23.5792L12.0887 23.9726L11.8906 23.9324L12.1017 23.0137L12.4394 23.0855C12.637 23.1258 12.6967 23.2086 12.6687 23.3795C12.6528 23.4775 12.6015 23.583 12.4763 23.5745L12.475 23.5729C12.5808 23.6077 12.5898 23.6581 12.5713 23.745C12.5634 23.7821 12.5084 24.0065 12.5463 24.0428L12.5476 24.0704L12.3426 24.0199C12.3341 23.9578 12.3632 23.8459 12.3747 23.7839C12.3862 23.729 12.4046 23.6518 12.3456 23.6228C12.2995 23.5995 12.2822 23.6006 12.2299 23.5894L12.1767 23.5792ZM12.207 23.4377L12.3404 23.4716C12.4214 23.4827 12.4664 23.4432 12.4824 23.3508C12.4968 23.2662 12.4781 23.2332 12.4054 23.2169L12.2625 23.1895L12.207 23.4377Z" fill="white"/>
<path fill-rule="evenodd" clip-rule="evenodd" d="M13.447 23.2194L13.6429 23.2408L13.5585 23.8867C13.5175 24.0915 13.4335 24.1809 13.1946 24.153C12.9514 24.124 12.8937 24.0197 12.9084 23.8133L12.9934 23.168L13.1908 23.1892L13.1061 23.8201C13.097 23.8886 13.0803 23.9901 13.2095 24.0025C13.3242 24.0107 13.3502 23.939 13.3632 23.8499" fill="white"/>
<path fill-rule="evenodd" clip-rule="evenodd" d="M13.8633 24.1892L13.9223 23.2656L14.2986 23.281C14.4765 23.2893 14.523 23.4262 14.5175 23.5568C14.5123 23.6363 14.4861 23.725 14.4126 23.7731C14.3524 23.8141 14.2749 23.8237 14.2031 23.8204L14.0805 23.8141L14.056 24.2011L13.8633 24.1892ZM14.0859 23.6714L14.1856 23.6767C14.2666 23.6794 14.3203 23.6492 14.3273 23.5371C14.3314 23.4295 14.2881 23.4112 14.1831 23.4069L14.1042 23.4043L14.0859 23.6714Z" fill="white"/>
<path fill-rule="evenodd" clip-rule="evenodd" d="M40.4053 15.5416L38.9095 18.1011C38.3448 17.6688 37.6555 17.3508 36.7758 17.3508C34.6941 17.3508 33.8485 18.8135 33.8485 19.8439C33.8485 20.6088 34.3797 21.7372 36.232 21.7372C37.0095 21.7372 38.1147 21.2274 38.4328 20.9953L36.9535 23.9648C36.2483 24.0974 36.0165 24.1797 35.4197 24.1971C32.1043 24.2903 30.7648 22.3704 30.7656 20.4088C30.7679 17.8154 33.2138 14.6614 37.2686 14.6614C37.517 14.6614 37.8209 14.7425 38.0807 14.8323L38.3434 14.5156" fill="white"/>
<path fill-rule="evenodd" clip-rule="evenodd" d="M46.577 14.5957L47.0006 23.898H43.8481L43.8464 22.3027H41.6967L40.9893 23.898H37.5703L41.1447 17.2554L40.3387 17.2505L41.87 14.5957H46.577ZM43.8285 17.4395L42.6133 20.1452H43.8653L43.8285 17.4395Z" fill="white"/>
<path fill-rule="evenodd" clip-rule="evenodd" d="M28.7729 14.5974C30.334 14.6057 31.2162 15.4045 31.2162 16.5583C31.2162 17.6222 30.2858 18.5638 29.2644 19.0507C30.316 19.4152 30.4069 20.3096 30.4069 20.9423C30.4069 22.4713 28.7796 23.8998 26.6643 23.8998H22.0508L23.8503 17.3496L23.1111 17.3456L24.6222 14.5974C24.6222 14.5974 27.5034 14.5892 28.7729 14.5974ZM27.2432 18.3678C27.5661 18.3678 28.1363 18.2907 28.2788 17.7016C28.4351 17.0619 27.8999 17.0447 27.6433 17.0447L26.7261 17.041L26.4062 18.3678H27.2432ZM25.9457 20.0137L25.5234 21.5425H26.6035C27.0283 21.5425 27.6073 21.3436 27.7492 20.8461C27.8894 20.3472 27.4846 20.0137 27.0613 20.0137H25.9457Z" fill="white"/>
<path fill-rule="evenodd" clip-rule="evenodd" d="M14.3791 25.0379C12.7816 25.0379 11.1402 24.6671 9.50074 23.9336L9.46051 23.9149L9.44127 23.8763C8.70557 22.4123 8.31641 20.8113 8.31641 19.2447C8.31641 17.6804 8.68961 16.1478 9.42575 14.6858L9.44608 14.647L9.48707 14.6276C11.0036 13.9504 12.6349 13.6074 14.3375 13.6074C15.9234 13.6074 17.6172 13.9892 19.2349 14.7137L19.2763 14.7311L19.2956 14.7706C20.0453 16.2616 20.4407 17.8623 20.4407 19.403C20.4407 20.9375 20.061 22.4716 19.3103 23.9616L19.2907 24.0006L19.2489 24.0188C17.7554 24.6852 16.0714 25.0379 14.3791 25.0379ZM9.65328 23.7333C11.2458 24.4396 12.8343 24.7962 14.3799 24.7962C16.0188 24.7962 17.6486 24.4585 19.0995 23.8184C19.8202 22.3745 20.1856 20.8886 20.1856 19.4035C20.1856 17.9123 19.8043 16.3613 19.083 14.9142C17.5131 14.2185 15.8736 13.8496 14.3384 13.8496C12.6901 13.8496 11.1101 14.1792 9.63951 14.8294C8.93354 16.2463 8.57422 17.7312 8.57422 19.2453C8.57422 20.762 8.94753 22.3137 9.65328 23.7333Z" fill="white"/>
</svg>
