<svg width="42" height="30" viewBox="0 0 42 30" fill="none" xmlns="http://www.w3.org/2000/svg">
<rect width="42" height="30" rx="4" fill="#0060AF"/>
<path fill-rule="evenodd" clip-rule="evenodd" d="M8.63847 17.8747C8.63847 17.4721 8.6431 16.3959 8.63257 16.2633C8.64175 14.6619 7.40659 13.5322 6.62627 13.6203C6.08632 13.6645 5.6337 13.872 5.39082 14.4691C5.16552 15.0255 5.36696 15.7657 6.11568 15.9393C6.9162 16.1258 7.38379 16.281 7.72212 16.5C8.13667 16.768 8.4751 17.2801 8.48408 17.8753" fill="white"/>
<path fill-rule="evenodd" clip-rule="evenodd" d="M8.30356 17.8753C8.30617 17.3592 8.00059 16.9028 7.6012 16.6576C7.24694 16.4408 6.77132 16.2985 6.00405 16.115C5.76687 16.0578 5.51877 15.9307 5.44197 15.7688C5.2388 15.9618 5.20189 16.3956 5.23764 16.6493C5.27918 16.9426 5.64292 17.4262 6.1906 17.4452C6.52506 17.4578 6.94793 17.3773 7.15071 17.3367C7.50054 17.2655 8.05402 17.472 8.14213 17.8746" fill="white"/>
<path fill-rule="evenodd" clip-rule="evenodd" d="M8.92134 11.1245C7.99262 11.1245 7.19056 11.7018 7.19337 12.7008C7.19626 13.5408 7.91292 13.9905 8.16874 14.3117C8.55518 14.7958 8.76434 15.3687 8.78599 16.2454C8.80299 16.9431 8.80212 17.632 8.80589 17.8762H9.0108C9.00732 17.6207 8.99804 16.8893 9.00858 16.2238C9.02249 15.3469 9.23918 14.7958 9.62582 14.3117C9.88386 13.9905 10.5998 13.5408 10.6014 12.7008C10.605 11.7018 9.80319 11.1245 8.87545 11.1245" fill="white"/>
<path fill-rule="evenodd" clip-rule="evenodd" d="M9.1564 17.8747C9.1564 17.4721 9.15157 16.3959 9.16191 16.2633C9.15283 14.6619 10.3872 13.5322 11.1682 13.6203C11.7082 13.6645 12.1602 13.872 12.4039 14.4691C12.6289 15.0255 12.4264 15.7657 11.6786 15.9393C10.8775 16.1258 10.4106 16.281 10.0714 16.5C9.65732 16.768 9.34257 17.2801 9.33291 17.8753" fill="white"/>
<path fill-rule="evenodd" clip-rule="evenodd" d="M9.49123 17.8753C9.48833 17.3592 9.79381 16.9028 10.192 16.6576C10.5479 16.4408 11.024 16.2985 11.7906 16.115C12.0282 16.0578 12.276 15.9307 12.3515 15.7688C12.5556 15.9618 12.5925 16.3956 12.5567 16.6493C12.5144 16.9426 12.1515 17.4262 11.6048 17.4452C11.2705 17.4578 10.8453 17.3773 10.6434 17.3367C10.2949 17.2655 9.73991 17.472 9.65141 17.8746" fill="white"/>
<path fill-rule="evenodd" clip-rule="evenodd" d="M9.77694 19.5416L9.6582 18.7242L9.94504 18.6833C10.0148 18.6743 10.0998 18.6858 10.1338 18.727C10.1714 18.77 10.1829 18.8057 10.1901 18.8621C10.2011 18.9321 10.1796 19.0128 10.0961 19.053V19.0555C10.1893 19.0555 10.2456 19.1186 10.262 19.2251C10.2643 19.2477 10.2715 19.302 10.2643 19.3474C10.2454 19.4553 10.1772 19.4901 10.0618 19.5053L9.77694 19.5416ZM9.96156 19.3953C9.99557 19.3907 10.0301 19.389 10.057 19.3728C10.0984 19.3474 10.0946 19.2931 10.0888 19.2526C10.0745 19.164 10.05 19.1302 9.95016 19.1442L9.88736 19.1533L9.92717 19.3998L9.96156 19.3953ZM9.90156 19.0176C9.93953 19.0118 9.99093 19.0075 10.0124 18.9735C10.0237 18.9508 10.038 18.9328 10.0285 18.8823C10.0168 18.8226 9.99586 18.7854 9.91519 18.7998L9.84012 18.8112L9.86978 19.0207L9.90156 19.0176Z" fill="white"/>
<path fill-rule="evenodd" clip-rule="evenodd" d="M11.0195 19.05C11.0218 19.0652 11.0244 19.0822 11.0253 19.0974C11.0485 19.2464 11.0195 19.3699 10.8418 19.4038C10.5789 19.4515 10.5286 19.2976 10.4824 19.0822L10.4578 18.9655C10.4215 18.7594 10.406 18.6033 10.6622 18.5551C10.8066 18.5304 10.9021 18.5846 10.9418 18.7201C10.948 18.7403 10.9557 18.7602 10.9586 18.7806L10.8014 18.8112C10.7832 18.7602 10.7592 18.6692 10.6885 18.6769C10.5615 18.6914 10.6034 18.8402 10.6165 18.9025L10.6637 19.1262C10.6779 19.1939 10.7061 19.302 10.816 19.2812C10.9052 19.2643 10.8662 19.1333 10.8583 19.0796" fill="white"/>
<path fill-rule="evenodd" clip-rule="evenodd" d="M11.2721 19.2972L11.2178 18.4514L11.4289 18.3906L11.8716 19.1263L11.7054 19.1732L11.6004 18.9862L11.4158 19.0385L11.4397 19.2511L11.2721 19.2972ZM11.4004 18.9019L11.5338 18.8655L11.3566 18.5232L11.4004 18.9019Z" fill="white"/>
<path fill-rule="evenodd" clip-rule="evenodd" d="M6.0556 18.6578C6.12168 18.4584 6.18081 18.3115 6.43306 18.3768C6.56802 18.4124 6.65168 18.4684 6.64772 18.6162C6.64705 18.6491 6.63555 18.6827 6.62802 18.7151L6.47102 18.6743C6.4916 18.5926 6.50464 18.5278 6.39799 18.4969C6.27471 18.465 6.24467 18.606 6.22766 18.6668L6.1638 18.8885C6.14352 18.9543 6.11917 19.0632 6.22766 19.0913C6.31732 19.114 6.37161 19.0311 6.40407 18.91L6.29432 18.8825L6.33229 18.7542L6.59053 18.8325L6.46793 19.2599L6.3491 19.2295L6.37586 19.1391H6.37248C6.3177 19.2131 6.25104 19.2208 6.19259 19.2102C5.93435 19.1444 5.96131 18.9853 6.02295 18.7727" fill="white"/>
<path fill-rule="evenodd" clip-rule="evenodd" d="M7.01748 19.0188L6.93971 19.3666L6.76465 19.3309L6.9512 18.519L7.24963 18.5825C7.4243 18.6181 7.47705 18.6914 7.45232 18.8423C7.43821 18.929 7.3929 19.0222 7.28229 19.0147L7.28113 19.0133C7.37465 19.0441 7.38257 19.0886 7.36624 19.1654C7.35919 19.1982 7.31059 19.3965 7.34412 19.4286L7.34528 19.453L7.16413 19.4084C7.1566 19.3534 7.18229 19.2545 7.19244 19.1997C7.20258 19.1513 7.21891 19.083 7.16674 19.0574C7.12597 19.0368 7.11071 19.0378 7.06453 19.0279L7.01748 19.0188ZM7.04733 18.8931L7.16519 18.923C7.23678 18.9329 7.27659 18.8979 7.29069 18.8163C7.30344 18.7415 7.28692 18.7124 7.22268 18.6979L7.09631 18.6737L7.04733 18.8931Z" fill="white"/>
<path fill-rule="evenodd" clip-rule="evenodd" d="M8.13998 18.7002L8.31311 18.7192L8.23852 19.29C8.20229 19.471 8.1281 19.55 7.91691 19.5253C7.70205 19.4997 7.65104 19.4075 7.66398 19.2251L7.73914 18.6548L7.91362 18.6735L7.83875 19.2311C7.83073 19.2916 7.81595 19.3814 7.93014 19.3923C8.03149 19.3996 8.05448 19.3362 8.06598 19.2575" fill="white"/>
<path fill-rule="evenodd" clip-rule="evenodd" d="M8.50391 19.5567L8.55608 18.7405L8.88861 18.754C9.04589 18.7614 9.08695 18.8824 9.08212 18.9978C9.07748 19.0681 9.05429 19.1465 8.98937 19.189C8.93614 19.2252 8.86764 19.2337 8.80427 19.2308L8.69587 19.2252L8.67423 19.5672L8.50391 19.5567ZM8.7007 19.1007L8.78881 19.1053C8.8604 19.1078 8.90783 19.0811 8.91402 18.982C8.91759 18.8869 8.87933 18.8707 8.78659 18.8669L8.71684 18.8646L8.7007 19.1007Z" fill="white"/>
<path fill-rule="evenodd" clip-rule="evenodd" d="M31.9636 11.9133L30.6416 14.1753C30.1426 13.7933 29.5334 13.5122 28.756 13.5122C26.9162 13.5122 26.1688 14.8049 26.1688 15.7155C26.1688 16.3916 26.6384 17.3888 28.2753 17.3888C28.9625 17.3888 29.9392 16.9383 30.2204 16.7332L28.913 19.3575C28.2897 19.4747 28.0849 19.5474 27.5574 19.5628C24.6274 19.6452 23.4436 17.9484 23.4443 16.2148C23.4464 13.9228 25.6079 11.1355 29.1915 11.1355C29.411 11.1355 29.6796 11.2071 29.9092 11.2865L30.1414 11.0066" fill="white"/>
<path fill-rule="evenodd" clip-rule="evenodd" d="M37.4188 11.0776L37.7932 19.2987H35.0071L35.0056 17.8889H33.1057L32.4806 19.2987H29.459L32.6179 13.4282L31.9056 13.4238L33.259 11.0776H37.4188ZM34.9874 13.5927L33.9134 15.9839H35.0199L34.9874 13.5927Z" fill="white"/>
<path fill-rule="evenodd" clip-rule="evenodd" d="M21.6859 11.0777C23.0656 11.085 23.8452 11.791 23.8452 12.8107C23.8452 13.7509 23.023 14.583 22.1203 15.0134C23.0496 15.3355 23.13 16.126 23.13 16.6852C23.13 18.0364 21.6919 19.2988 19.8224 19.2988H15.7451L17.3355 13.51L16.6822 13.5065L18.0177 11.0777C18.0177 11.0777 20.5639 11.0704 21.6859 11.0777ZM20.3323 14.4109C20.6177 14.4109 21.1216 14.3428 21.2475 13.8221C21.3856 13.2569 20.9127 13.2416 20.6859 13.2416L19.8753 13.2384L19.5926 14.4109H20.3323ZM19.1863 15.8637L18.8131 17.2148H19.7676C20.143 17.2148 20.6547 17.0391 20.7801 16.5994C20.904 16.1585 20.5463 15.8637 20.1722 15.8637H19.1863Z" fill="white"/>
<path fill-rule="evenodd" clip-rule="evenodd" d="M8.95761 20.3089C7.54585 20.3089 6.09515 19.9812 4.64628 19.3329L4.61073 19.3165L4.59373 19.2823C3.94354 17.9885 3.59961 16.5736 3.59961 15.1891C3.59961 13.8066 3.92944 12.4521 4.58001 11.1601L4.59798 11.1258L4.63421 11.1086C5.97448 10.5101 7.41619 10.207 8.9209 10.207C10.3224 10.207 11.8194 10.5445 13.249 11.1847L13.2856 11.2001L13.3027 11.235C13.9652 12.5527 14.3146 13.9674 14.3146 15.329C14.3146 16.6851 13.9791 18.0409 13.3157 19.3577L13.2983 19.3922L13.2614 19.4083C11.9415 19.9972 10.4532 20.3089 8.95761 20.3089ZM4.78038 19.1555C6.1878 19.7797 7.59164 20.0948 8.95761 20.0948C10.406 20.0948 11.8464 19.7964 13.1287 19.2307C13.7656 17.9547 14.0885 16.6414 14.0885 15.329C14.0885 14.0111 13.7515 12.6404 13.1141 11.3615C11.7267 10.7466 10.2777 10.4206 8.9209 10.4206C7.46421 10.4206 6.0679 10.7118 4.76821 11.2865C4.1443 12.5387 3.82674 13.851 3.82674 15.1891C3.82674 16.5296 4.15666 17.9009 4.78038 19.1555Z" fill="white"/>
</svg>
