<?xml version="1.0" encoding="UTF-8"?><svg id="Layer_1" xmlns="http://www.w3.org/2000/svg" viewBox="0 0 14 16"><defs><style>.cls-1{fill:#2e47ba;}</style></defs><path class="cls-1" d="m7,16c1.1,0,2-.9,2-2h-4c0,1.1.9,2,2,2Zm0-14.08l-.8.16c-1.86.38-3.2,2.02-3.2,3.92,0,.63-.13,2.2-.46,3.74-.16.77-.38,1.57-.66,2.26h10.24c-.29-.69-.5-1.49-.66-2.26-.32-1.55-.46-3.11-.46-3.74,0-1.9-1.34-3.54-3.2-3.92l-.8-.16h0Zm6.22,10.08c.22.45.48.8.78,1H0c.3-.2.56-.55.78-1,.9-1.8,1.22-5.12,1.22-6C2,3.58,3.72,1.56,6.01,1.1c-.06-.55.35-1.04.9-1.09.55-.06,1.04.35,1.09.9,0,.07,0,.13,0,.2,2.33.47,4,2.52,4.01,4.9,0,.88.32,4.2,1.22,6Z"/></svg>