<svg width="20" height="20" viewBox="0 0 20 20" fill="none" xmlns="http://www.w3.org/2000/svg">
<rect width="20" height="20" fill="#F6F8FC"/>
<path d="M4.06226 19L15.9378 19C17.0423 19 17.9377 18.1046 17.9377 17L17.9377 7.40843C17.9377 6.86984 17.7205 6.35401 17.3352 5.97767L12.8218 1.56924C12.4481 1.2043 11.9466 1 11.4243 1H4.06226C2.95769 1 2.06226 1.89543 2.06226 3V17C2.06226 18.1046 2.95769 19 4.06226 19Z" stroke="#2E47BA" stroke-width="1.3" stroke-linecap="round"/>
<path d="M10.9294 1.27344V5.51739C10.9294 6.06968 11.3772 6.51739 11.9294 6.51739H14.2013" stroke="#2E47BA" stroke-width="1.3" stroke-linecap="round"/>
<path d="M7.77344 13.7577C7.77344 14.6177 8.43344 15.311 9.25344 15.311H10.9268C11.6401 15.311 12.2201 14.7043 12.2201 13.9577C12.2201 13.1443 11.8668 12.8577 11.3401 12.671L8.65344 11.7377C8.12677 11.551 7.77344 11.2643 7.77344 10.451C7.77344 9.70432 8.35344 9.09766 9.06677 9.09766H10.7401C11.5601 9.09766 12.2201 9.79099 12.2201 10.651" stroke="#2E47BA" stroke-width="1.3" stroke-linecap="round" stroke-linejoin="round"/>
<path d="M9.99219 8.20312V10.4253V12.2031V13.9809V16.2031" stroke="#2E47BA" stroke-width="1.3" stroke-linecap="round" stroke-linejoin="round"/>
</svg>
