<svg width="44" height="32" viewBox="0 0 44 32" fill="none" xmlns="http://www.w3.org/2000/svg">
<rect x="1" y="1" width="42" height="30" rx="4" fill="white" stroke="#BFCEE0"/>
<path fill-rule="evenodd" clip-rule="evenodd" d="M7.81084 18.8143L9.2362 20.5794H5.70726L7.81084 18.8143ZM7.36265 18.2691L4.60213 20.5848L4.601 14.8895L7.36265 18.2691ZM14.0047 12.5343C14.0047 12.5343 13.3987 12.2474 12.6946 12.2893C11.8898 12.3367 11.2164 12.6454 10.8293 13.0526C10.5857 13.3085 10.3165 13.6207 10.1812 13.9597C9.98505 14.4501 9.94317 15.0981 9.94317 15.0981C9.94317 15.0981 9.66167 14.8592 9.30898 14.163C8.8989 13.3532 8.78674 12.8627 8.73116 12.3031C8.6817 11.812 8.75934 11.3264 8.75934 11.3264H14.0047V12.5343ZM14.0047 14.1488V17.7399C14.0047 17.7399 13.6786 17.8652 13.4126 17.8652C13.1466 17.8652 12.6936 17.8257 12.1675 17.5365C11.6453 17.2496 11.3562 16.9025 11.1321 16.588C10.9048 16.2681 10.7171 15.8246 10.6613 15.5051C10.6165 15.2494 10.5682 14.6117 10.8293 14.0935C10.971 13.8122 11.3513 13.3301 12.0835 13.3027C12.6804 13.2798 13.0113 13.4367 13.3147 13.6032C13.8919 13.9206 14.0047 14.1488 14.0047 14.1488ZM8.29313 17.4877L9.23926 16.6991C8.93773 16.3139 8.85804 16.1688 8.52097 15.6715C8.17586 15.1626 7.88679 14.6026 7.63958 13.9456C7.37201 13.2339 7.30738 12.8344 7.33692 12.3031C7.37393 11.6271 7.52764 11.3264 7.52764 11.3264H4.59961L4.60097 12.9045C4.60097 12.9045 6.8423 15.7133 8.29313 17.4877ZM10.9965 20.5768H14.0047V18.3834C14.0047 18.3834 13.2585 18.7257 12.7735 18.7533C12.4848 18.7702 12.2045 18.7813 11.7523 18.661C11.2497 18.5274 10.9641 18.3972 10.4982 18.013C10.124 17.7048 9.69619 17.2496 9.69619 17.2496L8.74452 18.0431C9.18606 18.5831 9.51215 18.9763 9.61198 19.0821C10.0412 19.5357 10.2231 19.7024 10.5122 19.864C10.8011 20.026 11.7666 20.0172 11.7666 20.0172L10.9965 20.5768Z" fill="#E94E0F"/>
<path fill-rule="evenodd" clip-rule="evenodd" d="M36.7556 18.6257C36.7556 19.2612 36.8413 20.3059 36.1296 20.5602V20.6025H38.8327V20.5602C38.1215 20.292 38.2068 19.2612 38.2068 18.6257V13.3029C38.2068 12.6677 38.1215 11.6228 38.8327 11.3546V11.3123H36.1296V11.3546C36.8552 11.6228 36.7556 12.6535 36.7556 13.3029V18.6257ZM26.8437 13.3029L31.7238 19.4448C32.3496 20.2494 32.7909 20.7155 33.801 21.0542V13.1335C33.801 12.343 33.801 11.7781 34.541 11.3546V11.3123H32.0368V11.3546C32.7909 11.7781 32.7764 12.343 32.7764 13.1335V18.4846L27.5695 11.9616L27.3701 11.6792C27.2707 11.5663 27.2139 11.4958 27.1569 11.3264V11.3123H25.0794V11.3546C25.8193 11.7781 25.8193 12.343 25.8193 13.1335V18.7672C25.8193 19.5577 25.8193 20.1223 25.0655 20.5602V20.6025H27.5838V20.5602C26.8296 20.1223 26.8437 19.5577 26.8437 18.7672V13.3029ZM18.8891 15.0538V12.2866L19.8421 12.1875C20.6959 12.1028 21.6062 12.6112 21.6062 13.5855C21.6062 14.7433 20.2831 15.0538 19.3586 15.0538H18.8891ZM18.8891 19.473V15.9855L19.8848 15.9291C21.1369 15.8584 22.4742 16.4516 22.4742 17.8211C22.4742 19.1624 21.2936 19.6989 20.1267 19.586L18.8891 19.473ZM17.4377 18.6117C17.4377 19.2612 17.5231 20.292 16.8115 20.5602V20.6025H19.1591C20.2261 20.6025 21.3504 20.645 22.3461 20.1649C23.2994 19.713 24.0536 18.7811 24.0536 17.6938C24.0536 16.3104 23.0147 15.4632 21.7343 15.1947C22.5453 14.8419 23.1569 14.3054 23.1569 13.3594C23.1569 12.1028 22.0617 11.3123 20.1838 11.3123H16.8115V11.3546C17.5375 11.6228 17.4377 12.6535 17.4377 13.2887V18.6117Z" fill="#005B6A"/>
</svg>
