<svg width="20" height="20" viewBox="0 0 20 20" fill="none" xmlns="http://www.w3.org/2000/svg">
<path d="M10.4619 12.0734C10.1866 12.3488 9.83682 12.5378 9.4556 12.6172L7.73374 12.9759C7.31055 13.0641 6.93581 12.6893 7.02398 12.2661L7.3827 10.5443C7.46212 10.1631 7.6511 9.81332 7.92645 9.53797L14.7573 2.70711C15.1478 2.31658 15.781 2.31658 16.1715 2.70711L17.2928 3.82836C17.6833 4.21888 17.6833 4.85205 17.2928 5.24257L10.4619 12.0734Z" stroke="#6C7E95" stroke-width="1.3" stroke-miterlimit="10" stroke-linecap="round" stroke-linejoin="round"/>
<path d="M16.6065 10.441V15.9997C16.6065 17.1042 15.711 17.9997 14.6065 17.9997H3.99987C2.8953 17.9997 1.99987 17.1042 1.99987 15.9997V5.39307C1.99987 4.2885 2.8953 3.39307 3.99987 3.39307H9.55853" stroke="#6C7E95" stroke-width="1.3" stroke-miterlimit="10" stroke-linecap="round" stroke-linejoin="round"/>
</svg>
