<svg width="40" height="40" viewBox="0 0 40 40" fill="none" xmlns="http://www.w3.org/2000/svg">
<rect width="40" height="40" rx="20" fill="#DCEDFF"/>
<rect x="9.9375" y="12.2754" width="18.2343" height="17.5471" rx="1.3" fill="#CC7051"/>
<rect x="11.8359" y="10.1816" width="18.2343" height="17.6" rx="1.3" fill="white"/>
<rect x="13.3438" y="11.7002" width="15.2335" height="14.507" fill="#DCEDFF"/>
<rect x="15.0156" y="21.3568" width="7.48509" height="11.5394" rx="3.74254" transform="rotate(-90 15.0156 21.3568)" fill="#F9B66F"/>
<path d="M20.9042 17.2128C20.5774 17.1533 20.3397 16.9749 20.31 16.7667C20.2803 16.5883 20.3694 16.4396 20.5477 16.3504C21.023 16.1423 21.2903 16.4694 21.3497 16.5586L21.6765 16.3207L22.0033 16.0828C21.8548 15.8746 21.5874 15.607 21.1715 15.5178V15.042H20.3694V15.5475C20.31 15.5773 20.2506 15.5773 20.1912 15.607C19.6862 15.8449 19.4189 16.3207 19.4783 16.8262C19.5377 17.2722 19.8941 17.7778 20.6665 17.9562C20.9933 18.0157 21.2309 18.1941 21.2606 18.4022C21.2903 18.5806 21.2012 18.7293 21.023 18.8185C20.5477 19.0267 20.2803 18.6996 20.2209 18.6104L19.8941 18.8483L19.5674 19.0862C19.7159 19.2943 19.9833 19.5322 20.3992 19.6511V20.1864H21.2012V19.6214C21.2606 19.5917 21.32 19.5917 21.3795 19.5619C21.8845 19.324 22.1518 18.8483 22.0924 18.3428C22.033 17.8967 21.6765 17.3615 20.9042 17.2128Z" fill="white"/>
<rect opacity="0.7" x="15.0156" y="24.791" width="1.95648" height="11.5394" rx="0.978242" transform="rotate(-90 15.0156 24.791)" fill="#B6C5D6"/>
</svg>
