<svg width="20" height="20" viewBox="0 0 20 20" fill="none" xmlns="http://www.w3.org/2000/svg">
<path d="M18.3057 15.2724C18.3057 15.5724 18.2391 15.8807 18.0974 16.1807C17.9557 16.4807 17.7724 16.7641 17.5307 17.0307C17.1224 17.4807 16.6724 17.8057 16.1641 18.0141C15.6641 18.2224 15.1224 18.3307 14.5391 18.3307C13.6891 18.3307 12.7807 18.1307 11.8224 17.7224C10.8641 17.3141 9.90573 16.7641 8.95573 16.0724C7.9974 15.3724 7.08906 14.5974 6.2224 13.7391C5.36406 12.8724 4.58906 11.9641 3.8974 11.0141C3.21406 10.0641 2.66406 9.11406 2.26406 8.1724C1.86406 7.2224 1.66406 6.31406 1.66406 5.4474C1.66406 4.88073 1.76406 4.33906 1.96406 3.83906C2.16406 3.33073 2.48073 2.86406 2.9224 2.4474C3.45573 1.9224 4.03906 1.66406 4.65573 1.66406C4.88906 1.66406 5.1224 1.71406 5.33073 1.81406C5.5474 1.91406 5.73906 2.06406 5.88906 2.28073L7.8224 5.00573C7.9724 5.21406 8.08073 5.40573 8.15573 5.58906C8.23073 5.76406 8.2724 5.93906 8.2724 6.0974C8.2724 6.2974 8.21406 6.4974 8.0974 6.68906C7.98906 6.88073 7.83073 7.08073 7.63073 7.28073L6.9974 7.93906C6.90573 8.03073 6.86406 8.13906 6.86406 8.2724C6.86406 8.33906 6.8724 8.3974 6.88906 8.46406C6.91406 8.53073 6.93906 8.58073 6.95573 8.63073C7.10573 8.90573 7.36406 9.26406 7.73073 9.6974C8.10573 10.1307 8.50573 10.5724 8.93906 11.0141C9.38906 11.4557 9.8224 11.8641 10.2641 12.2391C10.6974 12.6057 11.0557 12.8557 11.3391 13.0057C11.3807 13.0224 11.4307 13.0474 11.4891 13.0724C11.5557 13.0974 11.6224 13.1057 11.6974 13.1057C11.8391 13.1057 11.9474 13.0557 12.0391 12.9641L12.6724 12.3391C12.8807 12.1307 13.0807 11.9724 13.2724 11.8724C13.4641 11.7557 13.6557 11.6974 13.8641 11.6974C14.0224 11.6974 14.1891 11.7307 14.3724 11.8057C14.5557 11.8807 14.7474 11.9891 14.9557 12.1307L17.7141 14.0891C17.9307 14.2391 18.0807 14.4141 18.1724 14.6224C18.2557 14.8307 18.3057 15.0391 18.3057 15.2724Z" stroke="#203551" stroke-width="1.3" stroke-linecap="round" stroke-linejoin="round"/>
</svg>
