<svg width="32" height="32" viewBox="0 0 32 32" fill="none" xmlns="http://www.w3.org/2000/svg">
<circle cx="16" cy="16" r="16" fill="#CCE0FF"/>
<path d="M9.16507 8.89807L15.8887 8.05762L22.6123 8.89807C22.6123 8.89807 22.6123 14.3865 22.6123 17.9846C22.6123 22.0735 15.8887 23.9421 15.8887 23.9421C15.8887 23.9421 9.16502 22.0735 9.16504 17.9846C9.16505 14.3411 9.16507 8.89807 9.16507 8.89807Z" stroke="#0066FF" stroke-width="1.3" stroke-linecap="round" stroke-linejoin="round"/>
<path d="M13.7242 18.8733H18.2219C18.4208 18.8733 18.6114 18.7943 18.752 18.6537C18.8926 18.5131 18.9716 18.3225 18.9716 18.1237V15.8748C18.9716 15.676 18.8926 15.4853 18.752 15.3447C18.6114 15.2042 18.4208 15.1252 18.2219 15.1252H13.7242C13.5254 15.1252 13.3347 15.2042 13.1942 15.3447C13.0536 15.4853 12.9746 15.676 12.9746 15.8748V18.1237C12.9746 18.3225 13.0536 18.5131 13.1942 18.6537C13.3347 18.7943 13.5254 18.8733 13.7242 18.8733ZM16.4723 15.1252C17.0246 15.1252 17.4723 14.6775 17.4723 14.1252V13.6259C17.4723 13.2283 17.3144 12.847 17.0332 12.5658C16.752 12.2847 16.3707 12.1267 15.9731 12.1267C15.5755 12.1267 15.1941 12.2847 14.913 12.5658C14.6318 12.847 14.4738 13.2283 14.4738 13.6259V14.1252C14.4738 14.6775 14.9216 15.1252 15.4738 15.1252H16.4723Z" stroke="#0066FF" stroke-width="1.3" stroke-linecap="round" stroke-linejoin="round"/>
<circle cx="15.9734" cy="16.926" r="0.56321" fill="#0066FF"/>
</svg>
