<svg width="20" height="20" viewBox="0 0 20 20" fill="none" xmlns="http://www.w3.org/2000/svg">
<path d="M3 5.08398V4.43398C2.64101 4.43398 2.35 4.725 2.35 5.08398H3ZM14.1602 5.08398H14.8102C14.8102 4.725 14.5192 4.43398 14.1602 4.43398V5.08398ZM8.5094 13.5413C8.86839 13.5413 9.1594 13.2503 9.1594 12.8913C9.1594 12.5324 8.86839 12.2413 8.5094 12.2413V13.5413ZM13.5102 8.8885C13.5102 9.24749 13.8012 9.5385 14.1602 9.5385C14.5192 9.5385 14.8102 9.24749 14.8102 8.8885H13.5102ZM3 5.73398H14.1602V4.43398H3V5.73398ZM8.5094 12.2413H4V13.5413H8.5094V12.2413ZM3.65 11.8913V5.08398H2.35V11.8913H3.65ZM13.5102 5.08398V8.8885H14.8102V5.08398H13.5102ZM4 12.2413C3.8067 12.2413 3.65 12.0846 3.65 11.8913H2.35C2.35 12.8026 3.08873 13.5413 4 13.5413V12.2413Z" fill="#6C7E95"/>
<path d="M3 5.08398V5.73398C2.75901 5.73398 2.5378 5.60066 2.42525 5.38757C2.3127 5.17448 2.32727 4.91661 2.46312 4.71756L3 5.08398ZM14.1602 5.08398L14.6971 4.71756C14.8329 4.91661 14.8475 5.17448 14.7349 5.38757C14.6224 5.60066 14.4012 5.73398 14.1602 5.73398V5.08398ZM12.4711 2.6091L13.008 2.24268L12.4711 2.6091ZM3 4.43398H14.1602V5.73398H3V4.43398ZM13.6233 5.4504L11.9342 2.97552L13.008 2.24268L14.6971 4.71756L13.6233 5.4504ZM11.6451 2.82282H5.51508V1.52282H11.6451V2.82282ZM5.22599 2.97552L3.53688 5.4504L2.46312 4.71756L4.15224 2.24268L5.22599 2.97552ZM5.51508 2.82282C5.3994 2.82282 5.2912 2.87997 5.22599 2.97552L4.15224 2.24268C4.45965 1.79226 4.96975 1.52282 5.51508 1.52282V2.82282ZM11.9342 2.97552C11.869 2.87997 11.7608 2.82282 11.6451 2.82282V1.52282C12.1904 1.52282 12.7005 1.79226 13.008 2.24268L11.9342 2.97552Z" fill="#6C7E95"/>
<path d="M8.57812 2.17188L8.57813 5.08303" stroke="#6C7E95" stroke-width="1.3" stroke-linecap="round" stroke-linejoin="round"/>
<path d="M11 15.8047L13.126 18L17 14" stroke="#6C7E95" stroke-width="1.3" stroke-linecap="round" stroke-linejoin="round"/>
</svg>
