<svg width="40" height="40" viewBox="0 0 40 40" fill="none" xmlns="http://www.w3.org/2000/svg">
<rect width="40" height="40" rx="20" fill="#DCEDFF"/>
<path d="M28.046 8.16605H11.417C10.8647 8.16605 10.417 8.61376 10.417 9.16605V30.197C10.417 31.0229 11.3615 31.4928 12.0202 30.9946L12.5202 30.6165C12.8469 30.3693 13.2913 30.3465 13.6417 30.5588L15.8433 31.8931C16.1619 32.0861 16.5613 32.0861 16.8799 31.8931L19.1436 30.5212C19.4622 30.3282 19.8616 30.3282 20.1802 30.5212L22.4439 31.8931C22.7624 32.0861 23.1619 32.0861 23.4804 31.8931L25.6973 30.5496C26.04 30.3419 26.4736 30.3589 26.7991 30.5927L27.4624 31.0694C28.124 31.5447 29.046 31.0719 29.046 30.2573V19.6866V12.4971V9.16605C29.046 8.61376 28.5982 8.16605 28.046 8.16605Z" fill="#5472EF"/>
<path d="M29.0459 24.8622C27.9339 23.5926 26.3009 22.791 24.4806 22.791C21.1301 22.791 18.4139 25.5071 18.4139 28.8576C18.4139 29.528 18.5227 30.1729 18.7234 30.7758L19.1436 30.5212C19.4621 30.3282 19.8616 30.3282 20.1801 30.5212L22.4438 31.893C22.7624 32.0861 23.1618 32.0861 23.4804 31.893L25.6972 30.5496C26.04 30.3419 26.4736 30.3589 26.799 30.5927L27.4624 31.0694C28.124 31.5447 29.0459 31.0719 29.0459 30.2572V24.8622Z" fill="#222E60"/>
<circle cx="26.0667" cy="28.8577" r="6.06667" fill="#22C1CB"/>
<path d="M23.9701 28.7765L25.485 30.2914L28.1631 27.4239" stroke="#222E60" stroke-width="1.3" stroke-linecap="round" stroke-linejoin="round"/>
<path d="M13.4166 13.5444H16.0517" stroke="white" stroke-linecap="round"/>
<path d="M13.4166 18.5471H16.0517" stroke="white" stroke-linecap="round"/>
<path d="M18.4139 18.5471H21.049" stroke="#98AAF5" stroke-linecap="round"/>
<path d="M13.4166 21.5471H16.0517" stroke="white" stroke-linecap="round"/>
<path d="M18.4139 21.5471H21.049" stroke="#98AAF5" stroke-linecap="round"/>
<path d="M21.049 13.9671V10.0082H22.6109C22.9099 10.0082 23.165 10.0617 23.3764 10.1686C23.589 10.2743 23.7507 10.4244 23.8616 10.619C23.9737 10.8123 24.0298 11.0398 24.0298 11.3014C24.0298 11.5643 23.973 11.7905 23.8596 11.9799C23.7462 12.1681 23.5819 12.3124 23.3667 12.4129C23.1528 12.5134 22.8937 12.5637 22.5896 12.5637H21.5438V11.891H22.4543C22.6141 11.891 22.7468 11.8691 22.8525 11.8253C22.9582 11.7815 23.0368 11.7157 23.0883 11.6281C23.1412 11.5405 23.1676 11.4316 23.1676 11.3014C23.1676 11.17 23.1412 11.0591 23.0883 10.9689C23.0368 10.8787 22.9575 10.8104 22.8506 10.764C22.7449 10.7163 22.6115 10.6925 22.4504 10.6925H21.886V13.9671H21.049ZM23.1869 12.1655L24.1709 13.9671H23.2469L22.2842 12.1655H23.1869Z" fill="#FFCB71"/>
<path d="M24.7147 15.0806V10.9979H25.5266V11.4966H25.5633C25.5994 11.4167 25.6516 11.3356 25.7199 11.2531C25.7895 11.1693 25.8797 11.0997 25.9905 11.0443C26.1026 10.9876 26.2418 10.9593 26.4081 10.9593C26.6246 10.9593 26.8243 11.016 27.0073 11.1294C27.1903 11.2415 27.3366 11.4109 27.4461 11.6378C27.5557 11.8633 27.6104 12.1462 27.6104 12.4864C27.6104 12.8176 27.5569 13.0972 27.45 13.3253C27.3443 13.5522 27.2 13.7242 27.017 13.8415C26.8353 13.9575 26.6316 14.0154 26.4061 14.0154C26.2463 14.0154 26.1104 13.989 25.9982 13.9362C25.8874 13.8834 25.7966 13.817 25.7257 13.7371C25.6548 13.6559 25.6007 13.5741 25.5633 13.4916H25.5382V15.0806H24.7147ZM25.5208 12.4825C25.5208 12.6591 25.5453 12.8131 25.5942 12.9445C25.6432 13.076 25.7141 13.1784 25.8069 13.2519C25.8997 13.324 26.0124 13.3601 26.1452 13.3601C26.2792 13.3601 26.3926 13.3234 26.4854 13.2499C26.5782 13.1752 26.6484 13.0721 26.6961 12.9407C26.7451 12.8079 26.7695 12.6552 26.7695 12.4825C26.7695 12.3111 26.7457 12.1603 26.698 12.0302C26.6503 11.9 26.5801 11.7982 26.4873 11.7247C26.3945 11.6513 26.2805 11.6146 26.1452 11.6146C26.0111 11.6146 25.8977 11.65 25.8049 11.7209C25.7134 11.7918 25.6432 11.8923 25.5942 12.0224C25.5453 12.1526 25.5208 12.306 25.5208 12.4825Z" fill="#FFCB71"/>
</svg>
