<svg width="24" height="24" viewBox="0 0 24 24" fill="none" xmlns="http://www.w3.org/2000/svg">
<path d="M14.0562 6.83163L17.1692 9.94467L8.82345 18.2904L8.64803 18.4658C8.18669 18.9272 7.58752 19.2255 6.94135 19.3157L6.18241 19.4216C6.14646 19.4266 6.11153 19.4373 6.07891 19.4532L5.10149 19.9306C4.80564 20.0751 4.45069 20.0158 4.21787 19.7829V19.7829V19.7829C3.98506 19.5501 3.92575 19.1952 4.07024 18.8993L4.54758 17.9219C4.56351 17.8893 4.57418 17.8544 4.5792 17.8184L4.68511 17.0595C4.77528 16.4133 5.07365 15.8141 5.535 15.3528L5.71041 15.1774L14.0562 6.83163Z" stroke="#6C7E95" stroke-width="1.3" stroke-miterlimit="10" stroke-linecap="round" stroke-linejoin="round"/>
<path d="M12.918 5.5598C12.5274 5.95032 12.527 6.58389 12.9176 6.97441L17.0254 11.0823C17.4159 11.4728 18.0495 11.4724 18.44 11.0819V11.0819C18.8306 10.6913 18.831 10.0578 18.4404 9.66725L14.3326 5.55939C13.942 5.16887 13.3085 5.16927 12.918 5.5598V5.5598Z" fill="#6C7E95"/>
<path d="M13.415 7.47171L16.5281 10.5847L19.7826 7.33021C20.6423 6.47057 20.6423 5.07681 19.7826 4.21717V4.21717C18.923 3.35753 17.5292 3.35753 16.6696 4.21717L13.415 7.47171Z" fill="#6C7E95"/>
</svg>
