<svg width="104" height="40" viewBox="0 0 104 40" fill="none" xmlns="http://www.w3.org/2000/svg">
<rect x="0.5" y="0.5" width="103" height="39" rx="7.5" fill="white"/>
<path d="M23.7528 18.5H22.608C22.5402 18.1707 22.4218 17.8814 22.2525 17.6321C22.0863 17.3828 21.8832 17.1735 21.6431 17.0043C21.4061 16.8319 21.143 16.7027 20.8537 16.6165C20.5644 16.5303 20.2628 16.4872 19.9489 16.4872C19.3764 16.4872 18.8578 16.6319 18.3931 16.9212C17.9315 17.2105 17.5637 17.6367 17.2898 18.1999C17.0189 18.7631 16.8835 19.4541 16.8835 20.2727C16.8835 21.0914 17.0189 21.7823 17.2898 22.3455C17.5637 22.9087 17.9315 23.335 18.3931 23.6243C18.8578 23.9136 19.3764 24.0582 19.9489 24.0582C20.2628 24.0582 20.5644 24.0152 20.8537 23.929C21.143 23.8428 21.4061 23.7151 21.6431 23.5458C21.8832 23.3735 22.0863 23.1626 22.2525 22.9134C22.4218 22.661 22.5402 22.3717 22.608 22.0455H23.7528C23.6667 22.5286 23.5097 22.9611 23.282 23.3427C23.0542 23.7243 22.7711 24.049 22.4325 24.3168C22.094 24.5814 21.7139 24.783 21.2923 24.9215C20.8737 25.06 20.4259 25.1293 19.9489 25.1293C19.1425 25.1293 18.4254 24.9323 17.7976 24.5384C17.1697 24.1444 16.6758 23.5843 16.3157 22.858C15.9556 22.1316 15.7756 21.2699 15.7756 20.2727C15.7756 19.2756 15.9556 18.4138 16.3157 17.6875C16.6758 16.9612 17.1697 16.401 17.7976 16.0071C18.4254 15.6132 19.1425 15.4162 19.9489 15.4162C20.4259 15.4162 20.8737 15.4854 21.2923 15.6239C21.7139 15.7624 22.094 15.9656 22.4325 16.2333C22.7711 16.498 23.0542 16.8211 23.282 17.2028C23.5097 17.5813 23.6667 18.0137 23.7528 18.5ZM28.5958 25.1477C27.9557 25.1477 27.394 24.9954 26.9108 24.6907C26.4307 24.386 26.0552 23.9598 25.7844 23.4119C25.5167 22.8641 25.3828 22.224 25.3828 21.4915C25.3828 20.7528 25.5167 20.1081 25.7844 19.5572C26.0552 19.0063 26.4307 18.5785 26.9108 18.2738C27.394 17.9691 27.9557 17.8168 28.5958 17.8168C29.236 17.8168 29.7961 17.9691 30.2762 18.2738C30.7594 18.5785 31.1349 19.0063 31.4027 19.5572C31.6735 20.1081 31.8089 20.7528 31.8089 21.4915C31.8089 22.224 31.6735 22.8641 31.4027 23.4119C31.1349 23.9598 30.7594 24.386 30.2762 24.6907C29.7961 24.9954 29.236 25.1477 28.5958 25.1477ZM28.5958 24.169C29.0821 24.169 29.4822 24.0444 29.7961 23.7951C30.1101 23.5458 30.3424 23.218 30.4932 22.8118C30.644 22.4055 30.7194 21.9654 30.7194 21.4915C30.7194 21.0175 30.644 20.5759 30.4932 20.1665C30.3424 19.7572 30.1101 19.4264 29.7961 19.174C29.4822 18.9216 29.0821 18.7955 28.5958 18.7955C28.1096 18.7955 27.7095 18.9216 27.3956 19.174C27.0816 19.4264 26.8493 19.7572 26.6985 20.1665C26.5477 20.5759 26.4723 21.0175 26.4723 21.4915C26.4723 21.9654 26.5477 22.4055 26.6985 22.8118C26.8493 23.218 27.0816 23.5458 27.3956 23.7951C27.7095 24.0444 28.1096 24.169 28.5958 24.169ZM34.8215 15.5455V25H33.732V15.5455H34.8215ZM39.9576 25.1477C39.3175 25.1477 38.7558 24.9954 38.2726 24.6907C37.7925 24.386 37.417 23.9598 37.1462 23.4119C36.8785 22.8641 36.7446 22.224 36.7446 21.4915C36.7446 20.7528 36.8785 20.1081 37.1462 19.5572C37.417 19.0063 37.7925 18.5785 38.2726 18.2738C38.7558 17.9691 39.3175 17.8168 39.9576 17.8168C40.5978 17.8168 41.1579 17.9691 41.638 18.2738C42.1212 18.5785 42.4967 19.0063 42.7645 19.5572C43.0353 20.1081 43.1707 20.7528 43.1707 21.4915C43.1707 22.224 43.0353 22.8641 42.7645 23.4119C42.4967 23.9598 42.1212 24.386 41.638 24.6907C41.1579 24.9954 40.5978 25.1477 39.9576 25.1477ZM39.9576 24.169C40.4439 24.169 40.844 24.0444 41.1579 23.7951C41.4719 23.5458 41.7042 23.218 41.855 22.8118C42.0058 22.4055 42.0812 21.9654 42.0812 21.4915C42.0812 21.0175 42.0058 20.5759 41.855 20.1665C41.7042 19.7572 41.4719 19.4264 41.1579 19.174C40.844 18.9216 40.4439 18.7955 39.9576 18.7955C39.4714 18.7955 39.0713 18.9216 38.7574 19.174C38.4434 19.4264 38.2111 19.7572 38.0603 20.1665C37.9095 20.5759 37.8341 21.0175 37.8341 21.4915C37.8341 21.9654 37.9095 22.4055 38.0603 22.8118C38.2111 23.218 38.4434 23.5458 38.7574 23.7951C39.0713 24.0444 39.4714 24.169 39.9576 24.169ZM45.0938 25V17.9091H46.1464V18.9801H46.2202C46.3495 18.6293 46.5834 18.3446 46.9219 18.1261C47.2605 17.9076 47.6421 17.7983 48.0668 17.7983C48.1468 17.7983 48.2469 17.7998 48.3669 17.8029C48.4869 17.806 48.5777 17.8106 48.6393 17.8168V18.9247C48.6023 18.9155 48.5177 18.9016 48.3853 18.8832C48.2561 18.8616 48.1191 18.8509 47.9745 18.8509C47.6298 18.8509 47.322 18.9232 47.0512 19.0678C46.7834 19.2094 46.5711 19.4064 46.4141 19.6587C46.2602 19.908 46.1833 20.1927 46.1833 20.5128V25H45.0938Z" fill="#6C7E95"/>
<path d="M83 18L79 22L75 18" stroke="#6C7E95" stroke-width="1.5" stroke-linecap="round" stroke-linejoin="round"/>
<rect x="0.5" y="0.5" width="103" height="39" rx="7.5" stroke="#E7EDF4"/>
</svg>
