<svg width="24" height="24" viewBox="0 0 24 24" fill="none" xmlns="http://www.w3.org/2000/svg">
<path d="M14.0566 6.8316L17.1697 9.94464L8.82394 18.2904L8.64852 18.4658C8.18718 18.9271 7.58801 19.2255 6.94184 19.3157L6.1829 19.4216C6.14695 19.4266 6.11202 19.4373 6.0794 19.4532L5.10198 19.9306C4.80613 20.075 4.45117 20.0157 4.21836 19.7829V19.7829V19.7829C3.98555 19.5501 3.92624 19.1951 4.07073 18.8993L4.54807 17.9219C4.564 17.8893 4.57467 17.8543 4.57969 17.8184L4.6856 17.0594C4.77577 16.4133 5.07414 15.8141 5.53549 15.3528L5.7109 15.1773L14.0566 6.8316Z" stroke="#203551" stroke-width="1.3" stroke-miterlimit="10" stroke-linecap="round" stroke-linejoin="round"/>
<path d="M12.9184 5.55977C12.5279 5.95029 12.5275 6.58386 12.918 6.97438L17.0259 11.0822C17.4164 11.4728 18.05 11.4724 18.4405 11.0818C18.831 10.6913 18.8314 10.0577 18.4409 9.66722L14.3331 5.55936C13.9425 5.16884 13.309 5.16924 12.9184 5.55977Z" fill="#203551"/>
<path d="M13.4141 7.47168L16.5271 10.5847L19.7816 7.33018C20.6413 6.47054 20.6413 5.07678 19.7816 4.21714C18.922 3.3575 17.5282 3.3575 16.6686 4.21714L13.4141 7.47168Z" fill="#203551"/>
</svg>
