<svg width="21" height="20" viewBox="0 0 21 20" fill="none" xmlns="http://www.w3.org/2000/svg">
<path d="M18.7299 5.22144L10.8334 8.38001L2.93701 5.22144" stroke="#6C7E95" stroke-width="1.3" stroke-miterlimit="10" stroke-linecap="round" stroke-linejoin="round"/>
<path d="M18.9334 14.8601L11.2048 17.9516C10.9664 18.047 10.7004 18.047 10.462 17.9516L3.36201 15.1116C2.98235 14.9597 2.7334 14.592 2.7334 14.1831V5.81718C2.7334 5.40828 2.98235 5.04057 3.36201 4.8887L10.462 2.0487C10.7004 1.95334 10.9664 1.95334 11.2048 2.0487L18.3048 4.8887C18.6844 5.04057 18.9334 5.40828 18.9334 5.81718V12.0252" stroke="#6C7E95" stroke-width="1.3" stroke-miterlimit="10" stroke-linecap="round" stroke-linejoin="round"/>
<path d="M10.8335 17.9785V8.38037" stroke="#6C7E95" stroke-width="1.3" stroke-miterlimit="10" stroke-linecap="round" stroke-linejoin="round"/>
<path d="M7.01465 3.4043L15.1146 6.6443V9.8843" stroke="#6C7E95" stroke-width="1.3" stroke-miterlimit="10" stroke-linecap="round" stroke-linejoin="round"/>
<path d="M14.1147 4L6.01475 7.24V10.48" stroke="#6C7E95" stroke-width="1.3" stroke-miterlimit="10" stroke-linecap="round" stroke-linejoin="round"/>
</svg>
