<svg width="21" height="20" viewBox="0 0 21 20" fill="none" xmlns="http://www.w3.org/2000/svg">
<path d="M18.0634 5.22144L10.1669 8.38001L2.27051 5.22144" stroke="#2E47BA" stroke-width="1.3" stroke-miterlimit="10" stroke-linecap="round" stroke-linejoin="round"/>
<path d="M18.2674 14.8601L10.5388 17.9516C10.3004 18.047 10.0344 18.047 9.79599 17.9516L2.69599 15.1116C2.31633 14.9597 2.06738 14.592 2.06738 14.1831V5.81718C2.06738 5.40828 2.31633 5.04057 2.69599 4.8887L9.79599 2.0487C10.0344 1.95334 10.3004 1.95334 10.5388 2.0487L17.6388 4.8887C18.0184 5.04057 18.2674 5.40828 18.2674 5.81718V12.0252" stroke="#2E47BA" stroke-width="1.3" stroke-miterlimit="10" stroke-linecap="round" stroke-linejoin="round"/>
<path d="M10.167 17.9785V8.38037" stroke="#2E47BA" stroke-width="1.3" stroke-miterlimit="10" stroke-linecap="round" stroke-linejoin="round"/>
<path d="M6.34863 3.4043L14.4486 6.6443V9.8843" stroke="#2E47BA" stroke-width="1.3" stroke-miterlimit="10" stroke-linecap="round" stroke-linejoin="round"/>
<path d="M13.4482 4L5.34824 7.24V10.48" stroke="#2E47BA" stroke-width="1.3" stroke-miterlimit="10" stroke-linecap="round" stroke-linejoin="round"/>
</svg>
