<svg width="590" height="40" viewBox="0 0 590 40" fill="none" xmlns="http://www.w3.org/2000/svg">
<rect width="590" height="40" rx="8" fill="#04A784"/>
<path d="M217.864 18.1293H216.313C216.253 17.7978 216.142 17.5062 215.98 17.2543C215.817 17.0024 215.618 16.7886 215.383 16.6129C215.148 16.4373 214.884 16.3047 214.593 16.2152C214.304 16.1257 213.998 16.081 213.673 16.081C213.086 16.081 212.561 16.2285 212.097 16.5234C211.636 16.8184 211.272 17.2509 211.003 17.821C210.738 18.3911 210.605 19.0871 210.605 19.9091C210.605 20.7377 210.738 21.437 211.003 22.0071C211.272 22.5772 211.638 23.008 212.102 23.2997C212.566 23.5914 213.088 23.7372 213.668 23.7372C213.989 23.7372 214.294 23.6941 214.583 23.608C214.874 23.5185 215.138 23.3875 215.373 23.2152C215.609 23.0429 215.807 22.8324 215.97 22.5838C216.136 22.3319 216.25 22.0436 216.313 21.7188L217.864 21.7237C217.781 22.2242 217.62 22.6849 217.382 23.1058C217.146 23.5234 216.843 23.8847 216.472 24.1896C216.104 24.4912 215.683 24.7249 215.209 24.8906C214.735 25.0563 214.218 25.1392 213.658 25.1392C212.776 25.1392 211.991 24.9304 211.301 24.5128C210.612 24.0919 210.069 23.4903 209.671 22.7081C209.276 21.9259 209.079 20.9929 209.079 19.9091C209.079 18.822 209.278 17.889 209.676 17.1101C210.074 16.3279 210.617 15.728 211.306 15.3104C211.996 14.8894 212.78 14.679 213.658 14.679C214.198 14.679 214.702 14.7569 215.169 14.9126C215.64 15.0651 216.063 15.2905 216.437 15.5888C216.812 15.8838 217.122 16.245 217.367 16.6726C217.612 17.0968 217.778 17.5824 217.864 18.1293ZM223.08 25.1541C222.364 25.1541 221.739 24.9901 221.205 24.6619C220.672 24.3338 220.257 23.8748 219.962 23.2848C219.667 22.6948 219.52 22.0054 219.52 21.2166C219.52 20.4245 219.667 19.7318 219.962 19.1385C220.257 18.5452 220.672 18.0845 221.205 17.7564C221.739 17.4283 222.364 17.2642 223.08 17.2642C223.795 17.2642 224.42 17.4283 224.954 17.7564C225.487 18.0845 225.902 18.5452 226.197 19.1385C226.492 19.7318 226.639 20.4245 226.639 21.2166C226.639 22.0054 226.492 22.6948 226.197 23.2848C225.902 23.8748 225.487 24.3338 224.954 24.6619C224.42 24.9901 223.795 25.1541 223.08 25.1541ZM223.085 23.9062C223.549 23.9062 223.933 23.7836 224.238 23.5384C224.543 23.2931 224.768 22.9666 224.914 22.5589C225.063 22.1513 225.138 21.7022 225.138 21.2116C225.138 20.7244 225.063 20.277 224.914 19.8693C224.768 19.4583 224.543 19.1286 224.238 18.88C223.933 18.6314 223.549 18.5071 223.085 18.5071C222.617 18.5071 222.229 18.6314 221.921 18.88C221.616 19.1286 221.389 19.4583 221.24 19.8693C221.094 20.277 221.021 20.7244 221.021 21.2116C221.021 21.7022 221.094 22.1513 221.24 22.5589C221.389 22.9666 221.616 23.2931 221.921 23.5384C222.229 23.7836 222.617 23.9062 223.085 23.9062ZM230.065 20.4659V25H228.578V17.3636H230.005V18.6065H230.1C230.275 18.2022 230.551 17.8774 230.925 17.6321C231.303 17.3868 231.779 17.2642 232.352 17.2642C232.872 17.2642 233.328 17.3736 233.719 17.5923C234.11 17.8078 234.413 18.1293 234.629 18.5568C234.844 18.9844 234.952 19.513 234.952 20.1428V25H233.466V20.3217C233.466 19.7682 233.321 19.3357 233.033 19.0241C232.745 18.7093 232.349 18.5518 231.845 18.5518C231.5 18.5518 231.194 18.6264 230.925 18.7756C230.66 18.9247 230.449 19.1435 230.294 19.4318C230.141 19.7169 230.065 20.0616 230.065 20.4659ZM240.79 17.3636V18.5568H236.619V17.3636H240.79ZM237.738 15.5341H239.224V22.7578C239.224 23.0462 239.267 23.2633 239.353 23.4091C239.44 23.5516 239.551 23.6494 239.687 23.7024C239.826 23.7521 239.977 23.777 240.139 23.777C240.258 23.777 240.363 23.7687 240.452 23.7521C240.542 23.7356 240.611 23.7223 240.661 23.7124L240.929 24.9403C240.843 24.9735 240.721 25.0066 240.562 25.0398C240.403 25.0762 240.204 25.0961 239.965 25.0994C239.574 25.1061 239.209 25.0365 238.871 24.8906C238.533 24.7448 238.26 24.5194 238.051 24.2145C237.842 23.9096 237.738 23.5268 237.738 23.0661V15.5341ZM244.937 25.169C244.453 25.169 244.016 25.0795 243.624 24.9006C243.233 24.7183 242.923 24.4548 242.695 24.1101C242.469 23.7654 242.357 23.3428 242.357 22.8423C242.357 22.4115 242.44 22.0568 242.605 21.7784C242.771 21.5 242.995 21.2796 243.276 21.1172C243.558 20.9548 243.873 20.8321 244.221 20.7493C244.569 20.6664 244.924 20.6035 245.285 20.5604C245.742 20.5073 246.114 20.4643 246.399 20.4311C246.684 20.3946 246.891 20.3366 247.02 20.2571C247.149 20.1776 247.214 20.0483 247.214 19.8693V19.8345C247.214 19.4003 247.091 19.0639 246.846 18.8253C246.604 18.5866 246.243 18.4673 245.762 18.4673C245.262 18.4673 244.867 18.5784 244.579 18.8004C244.294 19.0192 244.097 19.2628 243.987 19.5312L242.59 19.2131C242.756 18.7491 242.998 18.3745 243.316 18.0895C243.638 17.8011 244.007 17.5923 244.425 17.4631C244.842 17.3305 245.282 17.2642 245.742 17.2642C246.047 17.2642 246.37 17.3007 246.712 17.3736C247.056 17.4432 247.378 17.5724 247.676 17.7614C247.978 17.9503 248.225 18.2204 248.417 18.5717C248.609 18.9197 248.705 19.3722 248.705 19.929V25H247.254V23.956H247.194C247.098 24.1482 246.954 24.3371 246.762 24.5227C246.569 24.7083 246.322 24.8625 246.021 24.9851C245.719 25.1077 245.358 25.169 244.937 25.169ZM245.26 23.9759C245.671 23.9759 246.022 23.8946 246.314 23.7322C246.609 23.5698 246.833 23.3577 246.985 23.0959C247.141 22.8307 247.219 22.5473 247.219 22.2457V21.2614C247.166 21.3144 247.063 21.3641 246.911 21.4105C246.762 21.4536 246.591 21.4917 246.399 21.5249C246.206 21.5547 246.019 21.5829 245.837 21.6094C245.655 21.6326 245.502 21.6525 245.379 21.669C245.091 21.7055 244.828 21.7668 244.589 21.853C244.354 21.9392 244.165 22.0634 244.022 22.2259C243.883 22.3849 243.813 22.5971 243.813 22.8622C243.813 23.2301 243.949 23.5085 244.221 23.6974C244.493 23.883 244.839 23.9759 245.26 23.9759ZM254.182 25.1541C253.443 25.1541 252.806 24.9867 252.273 24.652C251.743 24.3139 251.335 23.8482 251.05 23.255C250.765 22.6617 250.622 21.9822 250.622 21.2166C250.622 20.4411 250.768 19.7566 251.06 19.1634C251.351 18.5668 251.762 18.1011 252.293 17.7663C252.823 17.4316 253.448 17.2642 254.167 17.2642C254.747 17.2642 255.264 17.3719 255.718 17.5874C256.172 17.7995 256.539 18.0978 256.817 18.4822C257.099 18.8667 257.266 19.3158 257.319 19.8295H255.872C255.793 19.4716 255.61 19.1634 255.325 18.9048C255.044 18.6463 254.666 18.517 254.192 18.517C253.778 18.517 253.415 18.6264 253.103 18.8452C252.795 19.0606 252.555 19.3688 252.382 19.7699C252.21 20.1676 252.124 20.6383 252.124 21.1818C252.124 21.7386 252.208 22.2192 252.377 22.6236C252.546 23.0279 252.785 23.3411 253.093 23.5632C253.405 23.7853 253.771 23.8963 254.192 23.8963C254.474 23.8963 254.729 23.8449 254.958 23.7422C255.19 23.6361 255.383 23.4853 255.539 23.2898C255.698 23.0942 255.809 22.8589 255.872 22.5838H257.319C257.266 23.0777 257.105 23.5185 256.837 23.9062C256.568 24.294 256.209 24.599 255.758 24.821C255.311 25.0431 254.785 25.1541 254.182 25.1541ZM262.753 17.3636V18.5568H258.582V17.3636H262.753ZM259.701 15.5341H261.187V22.7578C261.187 23.0462 261.23 23.2633 261.317 23.4091C261.403 23.5516 261.514 23.6494 261.65 23.7024C261.789 23.7521 261.94 23.777 262.102 23.777C262.221 23.777 262.326 23.7687 262.415 23.7521C262.505 23.7356 262.574 23.7223 262.624 23.7124L262.893 24.9403C262.806 24.9735 262.684 25.0066 262.525 25.0398C262.366 25.0762 262.167 25.0961 261.928 25.0994C261.537 25.1061 261.172 25.0365 260.834 24.8906C260.496 24.7448 260.223 24.5194 260.014 24.2145C259.805 23.9096 259.701 23.5268 259.701 23.0661V15.5341ZM274.335 17.4929C274.282 17.0223 274.064 16.6577 273.679 16.3991C273.295 16.1373 272.811 16.0064 272.227 16.0064C271.81 16.0064 271.449 16.0727 271.144 16.2053C270.839 16.3345 270.602 16.5135 270.433 16.7422C270.267 16.9676 270.184 17.2244 270.184 17.5128C270.184 17.7547 270.24 17.9635 270.353 18.1392C270.469 18.3149 270.62 18.4624 270.806 18.5817C270.994 18.6977 271.197 18.7955 271.412 18.875C271.627 18.9512 271.835 19.0142 272.034 19.0639L273.028 19.3224C273.353 19.402 273.686 19.5097 274.027 19.6456C274.368 19.7815 274.685 19.9605 274.977 20.1825C275.268 20.4046 275.504 20.6797 275.683 21.0078C275.865 21.3359 275.956 21.7287 275.956 22.1861C275.956 22.7628 275.807 23.2749 275.509 23.7223C275.214 24.1697 274.784 24.5227 274.221 24.7812C273.661 25.0398 272.983 25.169 272.188 25.169C271.425 25.169 270.766 25.0481 270.209 24.8061C269.652 24.5642 269.216 24.2211 268.901 23.777C268.587 23.3295 268.413 22.7992 268.379 22.1861H269.921C269.95 22.554 270.07 22.8606 270.279 23.1058C270.491 23.3478 270.761 23.5284 271.089 23.6477C271.42 23.7637 271.783 23.8217 272.178 23.8217C272.612 23.8217 272.998 23.7538 273.336 23.6179C273.677 23.4787 273.946 23.2865 274.141 23.0412C274.337 22.7926 274.435 22.5026 274.435 22.1712C274.435 21.8696 274.349 21.6226 274.176 21.4304C274.007 21.2382 273.777 21.0791 273.485 20.9531C273.197 20.8272 272.87 20.7161 272.506 20.62L271.303 20.2919C270.487 20.0698 269.841 19.7434 269.364 19.3125C268.89 18.8816 268.653 18.3116 268.653 17.6023C268.653 17.0156 268.812 16.5036 269.13 16.0661C269.448 15.6286 269.879 15.2888 270.423 15.0469C270.966 14.8016 271.579 14.679 272.262 14.679C272.952 14.679 273.56 14.8 274.087 15.0419C274.617 15.2839 275.035 15.617 275.34 16.0412C275.645 16.4621 275.804 16.946 275.817 17.4929H274.335ZM281.244 25.1541C280.491 25.1541 279.843 24.9934 279.3 24.6719C278.76 24.3471 278.342 23.8913 278.047 23.3047C277.755 22.7147 277.609 22.0237 277.609 21.2315C277.609 20.4493 277.755 19.7599 278.047 19.1634C278.342 18.5668 278.753 18.1011 279.28 17.7663C279.81 17.4316 280.43 17.2642 281.139 17.2642C281.57 17.2642 281.988 17.3355 282.392 17.478C282.797 17.6205 283.159 17.8442 283.481 18.1491C283.802 18.4541 284.056 18.8501 284.242 19.3374C284.427 19.8213 284.52 20.4096 284.52 21.1023V21.6293H278.45V20.5156H283.063C283.063 20.1245 282.984 19.7782 282.825 19.4766C282.666 19.1716 282.442 18.9313 282.154 18.7557C281.868 18.58 281.534 18.4922 281.149 18.4922C280.732 18.4922 280.367 18.5949 280.056 18.8004C279.747 19.0026 279.509 19.2678 279.34 19.5959C279.174 19.9207 279.091 20.2737 279.091 20.6548V21.5249C279.091 22.0353 279.181 22.4695 279.359 22.8274C279.542 23.1854 279.795 23.4588 280.12 23.6477C280.445 23.8333 280.824 23.9261 281.259 23.9261C281.54 23.9261 281.797 23.8864 282.029 23.8068C282.261 23.724 282.462 23.6013 282.631 23.4389C282.8 23.2765 282.929 23.076 283.019 22.8374L284.426 23.0909C284.313 23.5052 284.111 23.8681 283.819 24.1797C283.531 24.4879 283.168 24.7282 282.73 24.9006C282.296 25.0696 281.801 25.1541 281.244 25.1541ZM287.936 14.8182V25H286.449V14.8182H287.936ZM291.702 14.8182V25H290.216V14.8182H291.702ZM297.273 25.1541C296.521 25.1541 295.873 24.9934 295.329 24.6719C294.789 24.3471 294.371 23.8913 294.076 23.3047C293.785 22.7147 293.639 22.0237 293.639 21.2315C293.639 20.4493 293.785 19.7599 294.076 19.1634C294.371 18.5668 294.782 18.1011 295.309 17.7663C295.84 17.4316 296.459 17.2642 297.169 17.2642C297.6 17.2642 298.017 17.3355 298.422 17.478C298.826 17.6205 299.189 17.8442 299.51 18.1491C299.832 18.4541 300.085 18.8501 300.271 19.3374C300.457 19.8213 300.549 20.4096 300.549 21.1023V21.6293H294.479V20.5156H299.093C299.093 20.1245 299.013 19.7782 298.854 19.4766C298.695 19.1716 298.471 18.9313 298.183 18.7557C297.898 18.58 297.563 18.4922 297.179 18.4922C296.761 18.4922 296.397 18.5949 296.085 18.8004C295.777 19.0026 295.538 19.2678 295.369 19.5959C295.203 19.9207 295.12 20.2737 295.12 20.6548V21.5249C295.12 22.0353 295.21 22.4695 295.389 22.8274C295.571 23.1854 295.825 23.4588 296.15 23.6477C296.474 23.8333 296.854 23.9261 297.288 23.9261C297.57 23.9261 297.827 23.8864 298.059 23.8068C298.291 23.724 298.491 23.6013 298.66 23.4389C298.829 23.2765 298.959 23.076 299.048 22.8374L300.455 23.0909C300.342 23.5052 300.14 23.8681 299.848 24.1797C299.56 24.4879 299.197 24.7282 298.76 24.9006C298.325 25.0696 297.83 25.1541 297.273 25.1541ZM302.479 25V17.3636H303.916V18.5767H303.995C304.134 18.1657 304.38 17.8426 304.731 17.6072C305.086 17.3686 305.487 17.2493 305.934 17.2493C306.027 17.2493 306.136 17.2526 306.262 17.2592C306.391 17.2659 306.493 17.2741 306.565 17.2841V18.706C306.506 18.6894 306.4 18.6712 306.247 18.6513C306.095 18.6281 305.942 18.6165 305.79 18.6165C305.439 18.6165 305.125 18.6911 304.85 18.8402C304.578 18.986 304.363 19.1899 304.204 19.4517C304.045 19.7102 303.965 20.0052 303.965 20.3366V25H302.479ZM313.126 14.8182L315.96 23.1108H316.074L318.908 14.8182H320.569L316.905 25H315.13L311.466 14.8182H313.126ZM322.2 25V17.3636H323.686V25H322.2ZM322.95 16.1854C322.692 16.1854 322.47 16.0992 322.284 15.9268C322.102 15.7512 322.011 15.5424 322.011 15.3004C322.011 15.0552 322.102 14.8464 322.284 14.674C322.47 14.4983 322.692 14.4105 322.95 14.4105C323.209 14.4105 323.429 14.4983 323.612 14.674C323.797 14.8464 323.89 15.0552 323.89 15.3004C323.89 15.5424 323.797 15.7512 323.612 15.9268C323.429 16.0992 323.209 16.1854 322.95 16.1854ZM328.188 25.169C327.704 25.169 327.267 25.0795 326.876 24.9006C326.485 24.7183 326.175 24.4548 325.946 24.1101C325.721 23.7654 325.608 23.3428 325.608 22.8423C325.608 22.4115 325.691 22.0568 325.857 21.7784C326.022 21.5 326.246 21.2796 326.528 21.1172C326.809 20.9548 327.124 20.8321 327.472 20.7493C327.82 20.6664 328.175 20.6035 328.536 20.5604C328.994 20.5073 329.365 20.4643 329.65 20.4311C329.935 20.3946 330.142 20.3366 330.271 20.2571C330.401 20.1776 330.465 20.0483 330.465 19.8693V19.8345C330.465 19.4003 330.343 19.0639 330.097 18.8253C329.855 18.5866 329.494 18.4673 329.014 18.4673C328.513 18.4673 328.119 18.5784 327.83 18.8004C327.545 19.0192 327.348 19.2628 327.239 19.5312L325.842 19.2131C326.007 18.7491 326.249 18.3745 326.568 18.0895C326.889 17.8011 327.259 17.5923 327.676 17.4631C328.094 17.3305 328.533 17.2642 328.994 17.2642C329.299 17.2642 329.622 17.3007 329.963 17.3736C330.308 17.4432 330.629 17.5724 330.928 17.7614C331.229 17.9503 331.476 18.2204 331.668 18.5717C331.861 18.9197 331.957 19.3722 331.957 19.929V25H330.505V23.956H330.445C330.349 24.1482 330.205 24.3371 330.013 24.5227C329.821 24.7083 329.574 24.8625 329.272 24.9851C328.97 25.1077 328.609 25.169 328.188 25.169ZM328.511 23.9759C328.922 23.9759 329.274 23.8946 329.565 23.7322C329.86 23.5698 330.084 23.3577 330.237 23.0959C330.392 22.8307 330.47 22.5473 330.47 22.2457V21.2614C330.417 21.3144 330.314 21.3641 330.162 21.4105C330.013 21.4536 329.842 21.4917 329.65 21.5249C329.458 21.5547 329.27 21.5829 329.088 21.6094C328.906 21.6326 328.753 21.6525 328.631 21.669C328.342 21.7055 328.079 21.7668 327.84 21.853C327.605 21.9392 327.416 22.0634 327.274 22.2259C327.134 22.3849 327.065 22.5971 327.065 22.8622C327.065 23.2301 327.201 23.5085 327.472 23.6974C327.744 23.883 328.09 23.9759 328.511 23.9759ZM340.315 25L337.491 14.8182H339.107L341.09 22.7031H341.185L343.248 14.8182H344.849L346.912 22.7081H347.006L348.985 14.8182H350.606L347.777 25H346.231L344.088 17.3736H344.009L341.866 25H340.315ZM353.654 20.4659V25H352.167V14.8182H353.634V18.6065H353.728C353.907 18.1955 354.181 17.8691 354.549 17.6271C354.917 17.3852 355.397 17.2642 355.99 17.2642C356.514 17.2642 356.972 17.3719 357.363 17.5874C357.757 17.8028 358.062 18.1243 358.277 18.5518C358.496 18.9761 358.606 19.5064 358.606 20.1428V25H357.119V20.3217C357.119 19.7616 356.975 19.3274 356.686 19.0192C356.398 18.7076 355.997 18.5518 355.483 18.5518C355.132 18.5518 354.817 18.6264 354.539 18.7756C354.264 18.9247 354.047 19.1435 353.887 19.4318C353.732 19.7169 353.654 20.0616 353.654 20.4659ZM363.091 25.169C362.608 25.169 362.17 25.0795 361.779 24.9006C361.388 24.7183 361.078 24.4548 360.849 24.1101C360.624 23.7654 360.511 23.3428 360.511 22.8423C360.511 22.4115 360.594 22.0568 360.76 21.7784C360.926 21.5 361.149 21.2796 361.431 21.1172C361.713 20.9548 362.028 20.8321 362.376 20.7493C362.724 20.6664 363.078 20.6035 363.439 20.5604C363.897 20.5073 364.268 20.4643 364.553 20.4311C364.838 20.3946 365.045 20.3366 365.175 20.2571C365.304 20.1776 365.368 20.0483 365.368 19.8693V19.8345C365.368 19.4003 365.246 19.0639 365.001 18.8253C364.759 18.5866 364.397 18.4673 363.917 18.4673C363.416 18.4673 363.022 18.5784 362.734 18.8004C362.448 19.0192 362.251 19.2628 362.142 19.5312L360.745 19.2131C360.911 18.7491 361.153 18.3745 361.471 18.0895C361.792 17.8011 362.162 17.5923 362.579 17.4631C362.997 17.3305 363.436 17.2642 363.897 17.2642C364.202 17.2642 364.525 17.3007 364.866 17.3736C365.211 17.4432 365.533 17.5724 365.831 17.7614C366.132 17.9503 366.379 18.2204 366.572 18.5717C366.764 18.9197 366.86 19.3722 366.86 19.929V25H365.408V23.956H365.349C365.252 24.1482 365.108 24.3371 364.916 24.5227C364.724 24.7083 364.477 24.8625 364.175 24.9851C363.874 25.1077 363.512 25.169 363.091 25.169ZM363.415 23.9759C363.826 23.9759 364.177 23.8946 364.469 23.7322C364.764 23.5698 364.987 23.3577 365.14 23.0959C365.296 22.8307 365.373 22.5473 365.373 22.2457V21.2614C365.32 21.3144 365.218 21.3641 365.065 21.4105C364.916 21.4536 364.745 21.4917 364.553 21.5249C364.361 21.5547 364.174 21.5829 363.991 21.6094C363.809 21.6326 363.657 21.6525 363.534 21.669C363.246 21.7055 362.982 21.7668 362.743 21.853C362.508 21.9392 362.319 22.0634 362.177 22.2259C362.038 22.3849 361.968 22.5971 361.968 22.8622C361.968 23.2301 362.104 23.5085 362.376 23.6974C362.647 23.883 362.994 23.9759 363.415 23.9759ZM372.685 17.3636V18.5568H368.513V17.3636H372.685ZM369.632 15.5341H371.118V22.7578C371.118 23.0462 371.162 23.2633 371.248 23.4091C371.334 23.5516 371.445 23.6494 371.581 23.7024C371.72 23.7521 371.871 23.777 372.033 23.777C372.153 23.777 372.257 23.7687 372.346 23.7521C372.436 23.7356 372.506 23.7223 372.555 23.7124L372.824 24.9403C372.738 24.9735 372.615 25.0066 372.456 25.0398C372.297 25.0762 372.098 25.0961 371.859 25.0994C371.468 25.1061 371.104 25.0365 370.765 24.8906C370.427 24.7448 370.154 24.5194 369.945 24.2145C369.736 23.9096 369.632 23.5268 369.632 23.0661V15.5341ZM380.281 17.4929C380.228 17.0223 380.01 16.6577 379.625 16.3991C379.241 16.1373 378.757 16.0064 378.173 16.0064C377.756 16.0064 377.395 16.0727 377.09 16.2053C376.785 16.3345 376.548 16.5135 376.379 16.7422C376.213 16.9676 376.13 17.2244 376.13 17.5128C376.13 17.7547 376.187 17.9635 376.299 18.1392C376.415 18.3149 376.566 18.4624 376.752 18.5817C376.941 18.6977 377.143 18.7955 377.358 18.875C377.574 18.9512 377.781 19.0142 377.98 19.0639L378.974 19.3224C379.299 19.402 379.632 19.5097 379.973 19.6456C380.315 19.7815 380.631 19.9605 380.923 20.1825C381.214 20.4046 381.45 20.6797 381.629 21.0078C381.811 21.3359 381.902 21.7287 381.902 22.1861C381.902 22.7628 381.753 23.2749 381.455 23.7223C381.16 24.1697 380.731 24.5227 380.167 24.7812C379.607 25.0398 378.929 25.169 378.134 25.169C377.371 25.169 376.712 25.0481 376.155 24.8061C375.598 24.5642 375.162 24.2211 374.847 23.777C374.533 23.3295 374.359 22.7992 374.325 22.1861H375.867C375.897 22.554 376.016 22.8606 376.225 23.1058C376.437 23.3478 376.707 23.5284 377.035 23.6477C377.366 23.7637 377.729 23.8217 378.124 23.8217C378.558 23.8217 378.944 23.7538 379.282 23.6179C379.624 23.4787 379.892 23.2865 380.088 23.0412C380.283 22.7926 380.381 22.5026 380.381 22.1712C380.381 21.8696 380.295 21.6226 380.122 21.4304C379.953 21.2382 379.723 21.0791 379.431 20.9531C379.143 20.8272 378.816 20.7161 378.452 20.62L377.249 20.2919C376.433 20.0698 375.787 19.7434 375.31 19.3125C374.836 18.8816 374.599 18.3116 374.599 17.6023C374.599 17.0156 374.758 16.5036 375.076 16.0661C375.394 15.6286 375.825 15.2888 376.369 15.0469C376.912 14.8016 377.526 14.679 378.208 14.679C378.898 14.679 379.506 14.8 380.033 15.0419C380.563 15.2839 380.981 15.617 381.286 16.0412C381.591 16.4621 381.75 16.946 381.763 17.4929H380.281ZM386.121 25.169C385.637 25.169 385.2 25.0795 384.808 24.9006C384.417 24.7183 384.107 24.4548 383.879 24.1101C383.653 23.7654 383.541 23.3428 383.541 22.8423C383.541 22.4115 383.624 22.0568 383.789 21.7784C383.955 21.5 384.179 21.2796 384.46 21.1172C384.742 20.9548 385.057 20.8321 385.405 20.7493C385.753 20.6664 386.108 20.6035 386.469 20.5604C386.926 20.5073 387.298 20.4643 387.583 20.4311C387.868 20.3946 388.075 20.3366 388.204 20.2571C388.333 20.1776 388.398 20.0483 388.398 19.8693V19.8345C388.398 19.4003 388.275 19.0639 388.03 18.8253C387.788 18.5866 387.427 18.4673 386.946 18.4673C386.446 18.4673 386.051 18.5784 385.763 18.8004C385.478 19.0192 385.281 19.2628 385.171 19.5312L383.774 19.2131C383.94 18.7491 384.182 18.3745 384.5 18.0895C384.822 17.8011 385.191 17.5923 385.609 17.4631C386.026 17.3305 386.466 17.2642 386.926 17.2642C387.231 17.2642 387.554 17.3007 387.896 17.3736C388.24 17.4432 388.562 17.5724 388.86 17.7614C389.162 17.9503 389.409 18.2204 389.601 18.5717C389.793 18.9197 389.889 19.3722 389.889 19.929V25H388.438V23.956H388.378C388.282 24.1482 388.138 24.3371 387.946 24.5227C387.753 24.7083 387.506 24.8625 387.205 24.9851C386.903 25.1077 386.542 25.169 386.121 25.169ZM386.444 23.9759C386.855 23.9759 387.206 23.8946 387.498 23.7322C387.793 23.5698 388.017 23.3577 388.169 23.0959C388.325 22.8307 388.403 22.5473 388.403 22.2457V21.2614C388.35 21.3144 388.247 21.3641 388.095 21.4105C387.946 21.4536 387.775 21.4917 387.583 21.5249C387.39 21.5547 387.203 21.5829 387.021 21.6094C386.838 21.6326 386.686 21.6525 386.563 21.669C386.275 21.7055 386.012 21.7668 385.773 21.853C385.538 21.9392 385.349 22.0634 385.206 22.2259C385.067 22.3849 384.997 22.5971 384.997 22.8622C384.997 23.2301 385.133 23.5085 385.405 23.6974C385.677 23.883 386.023 23.9759 386.444 23.9759ZM392.149 27.8636V17.3636H393.601V18.6016H393.725C393.811 18.4425 393.936 18.2585 394.098 18.0497C394.261 17.8409 394.486 17.6586 394.774 17.5028C395.063 17.3438 395.444 17.2642 395.918 17.2642C396.534 17.2642 397.084 17.42 397.568 17.7315C398.052 18.0431 398.432 18.4922 398.707 19.0788C398.985 19.6655 399.124 20.3714 399.124 21.1967C399.124 22.022 398.987 22.7296 398.712 23.3196C398.437 23.9062 398.059 24.3587 397.578 24.6768C397.098 24.9917 396.549 25.1491 395.933 25.1491C395.469 25.1491 395.089 25.0713 394.794 24.9155C394.503 24.7597 394.274 24.5774 394.108 24.3686C393.942 24.1598 393.815 23.9742 393.725 23.8118H393.636V27.8636H392.149ZM393.606 21.1818C393.606 21.7187 393.684 22.1894 393.84 22.5938C393.995 22.9981 394.221 23.3146 394.516 23.5433C394.811 23.7687 395.172 23.8814 395.6 23.8814C396.044 23.8814 396.415 23.7637 396.713 23.5284C397.012 23.2898 397.237 22.9666 397.389 22.5589C397.545 22.1513 397.623 21.6922 397.623 21.1818C397.623 20.678 397.547 20.2256 397.394 19.8246C397.245 19.4235 397.02 19.107 396.718 18.875C396.42 18.643 396.047 18.527 395.6 18.527C395.169 18.527 394.804 18.638 394.506 18.8601C394.211 19.0821 393.987 19.392 393.835 19.7898C393.682 20.1875 393.606 20.6515 393.606 21.1818ZM401.07 27.8636V17.3636H402.522V18.6016H402.646C402.732 18.4425 402.856 18.2585 403.019 18.0497C403.181 17.8409 403.407 17.6586 403.695 17.5028C403.983 17.3438 404.364 17.2642 404.838 17.2642C405.455 17.2642 406.005 17.42 406.489 17.7315C406.973 18.0431 407.352 18.4922 407.627 19.0788C407.906 19.6655 408.045 20.3714 408.045 21.1967C408.045 22.022 407.908 22.7296 407.632 23.3196C407.357 23.9062 406.98 24.3587 406.499 24.6768C406.018 24.9917 405.47 25.1491 404.853 25.1491C404.389 25.1491 404.01 25.0713 403.715 24.9155C403.423 24.7597 403.194 24.5774 403.029 24.3686C402.863 24.1598 402.735 23.9742 402.646 23.8118H402.556V27.8636H401.07ZM402.527 21.1818C402.527 21.7187 402.605 22.1894 402.76 22.5938C402.916 22.9981 403.141 23.3146 403.436 23.5433C403.731 23.7687 404.093 23.8814 404.52 23.8814C404.964 23.8814 405.336 23.7637 405.634 23.5284C405.932 23.2898 406.158 22.9666 406.31 22.5589C406.466 22.1513 406.544 21.6922 406.544 21.1818C406.544 20.678 406.467 20.2256 406.315 19.8246C406.166 19.4235 405.94 19.107 405.639 18.875C405.341 18.643 404.968 18.527 404.52 18.527C404.089 18.527 403.725 18.638 403.426 18.8601C403.132 19.0821 402.908 19.392 402.755 19.7898C402.603 20.1875 402.527 20.6515 402.527 21.1818Z" fill="white"/>
<path d="M186.294 14.7976C186.454 14.8041 186.63 14.8116 186.798 15.1843C186.912 15.4392 187.105 15.9142 187.259 16.2928C187.372 16.5717 187.464 16.7983 187.488 16.8458C187.544 16.9577 187.581 17.0884 187.507 17.2379C187.495 17.2602 187.485 17.2813 187.475 17.3015C187.419 17.4159 187.378 17.5 187.283 17.6111C187.246 17.6546 187.207 17.7014 187.169 17.7482C187.091 17.8422 187.014 17.9362 186.947 18.0031C186.835 18.1147 186.718 18.236 186.849 18.4598C186.979 18.6839 187.429 19.4166 188.094 20.0098C188.809 20.6472 189.43 20.9167 189.745 21.0536C189.807 21.0805 189.857 21.1023 189.894 21.1207C190.118 21.2327 190.248 21.214 190.379 21.0644C190.51 20.9152 190.938 20.4111 191.088 20.1873C191.237 19.9632 191.386 20.0005 191.591 20.0751C191.796 20.1497 192.897 20.6913 193.121 20.8032C193.164 20.825 193.205 20.8447 193.243 20.863C193.399 20.9384 193.505 20.9893 193.55 21.0644C193.606 21.158 193.606 21.606 193.419 22.1286C193.233 22.6513 192.319 23.1553 191.908 23.1926C191.869 23.1962 191.83 23.2008 191.789 23.2056C191.41 23.2502 190.931 23.3065 189.222 22.6326C187.12 21.8034 185.733 19.7485 185.447 19.324C185.423 19.2892 185.407 19.2654 185.399 19.254L185.396 19.2507C185.276 19.0894 184.485 18.0326 184.485 16.9391C184.485 15.9083 184.992 15.368 185.225 15.1194C185.241 15.1024 185.255 15.0867 185.268 15.0724C185.473 14.8484 185.716 14.7924 185.865 14.7924C185.873 14.7924 185.882 14.7924 185.89 14.7924C186.031 14.7923 186.171 14.7923 186.294 14.7976Z" fill="white"/>
<path fill-rule="evenodd" clip-rule="evenodd" d="M181.283 23.3926C180.488 22.0371 180.072 20.501 180.072 18.9106C180.072 13.9769 184.102 9.96484 189.036 9.96484C191.44 9.96484 193.681 10.9046 195.38 12.5853C197.06 14.2841 198 16.5251 198 18.9287C198 23.8624 193.97 27.8745 189.036 27.8745C187.536 27.8745 186.054 27.513 184.753 26.7901L180 28.0371L181.283 23.3926ZM182.729 22.8865L182.91 23.1576L182.151 25.9046L184.97 25.1636L185.241 25.3263C186.38 26.013 187.699 26.3745 189.036 26.3745C193.139 26.3745 196.482 23.0311 196.482 18.9287C196.482 16.9407 195.705 15.0612 194.295 13.6516C192.904 12.26 191.024 11.4829 189.036 11.4829C184.934 11.4829 181.59 14.8082 181.59 18.9287C181.59 20.3203 181.988 21.6938 182.729 22.8865Z" fill="white"/>
</svg>
