<svg width="40" height="40" viewBox="0 0 40 40" fill="none" xmlns="http://www.w3.org/2000/svg">
<rect width="40" height="40" rx="20" fill="#DCEDFF"/>
<rect x="9.9375" y="12.2754" width="18.2343" height="17.5471" rx="1.3" fill="#CC7051"/>
<rect x="11.8359" y="10.1816" width="18.2343" height="17.6" rx="1.3" fill="white"/>
<rect x="13.3438" y="11.7002" width="15.2335" height="14.507" fill="#DCEDFF"/>
<rect opacity="0.7" x="15.2656" y="24.123" width="1.95648" height="11.3859" rx="0.978242" transform="rotate(-90 15.2656 24.123)" fill="#B6C5D6"/>
<circle cx="18.7124" cy="15.7534" r="1.35298" fill="#F9B66F"/>
<circle cx="23.2124" cy="18.6469" r="1.35298" fill="#F9B66F"/>
<path fill-rule="evenodd" clip-rule="evenodd" d="M22.5818 14.5104C22.9372 14.7268 23.05 15.1903 22.8336 15.5458L20.3425 19.6376C20.1261 19.9931 19.6625 20.1058 19.3071 19.8894C18.9516 19.673 18.8389 19.2094 19.0553 18.854L21.5464 14.7622C21.7628 14.4067 22.2264 14.294 22.5818 14.5104Z" fill="#F9B66F"/>
</svg>
