<svg width="20" height="20" viewBox="0 0 20 20" fill="none" xmlns="http://www.w3.org/2000/svg">
<path d="M18.3307 7.98547L18.3308 8.63547C18.6897 8.63545 18.9807 8.34444 18.9807 7.98547H18.3307ZM18.3307 12.2225H18.9807C18.9807 11.8635 18.6897 11.5725 18.3308 11.5725L18.3307 12.2225ZM1.66406 12.2225V11.5725C1.30508 11.5725 1.01406 11.8635 1.01406 12.2225H1.66406ZM1.66406 7.98547H1.01406C1.01406 8.34446 1.30508 8.63547 1.66406 8.63547L1.66406 7.98547ZM2.66406 3.51797C1.75279 3.51797 1.01406 4.2567 1.01406 5.16797H2.31406C2.31406 4.97467 2.47076 4.81797 2.66406 4.81797V3.51797ZM17.3307 3.51797H2.66406V4.81797H17.3307V3.51797ZM18.9807 5.16797C18.9807 4.2567 18.242 3.51797 17.3307 3.51797V4.81797C17.524 4.81797 17.6807 4.97467 17.6807 5.16797H18.9807ZM18.9807 7.98547V5.16797H17.6807V7.98547H18.9807ZM16.8624 10.104C16.8624 9.29298 17.5198 8.63554 18.3308 8.63547L18.3307 7.33547C16.8018 7.33559 15.5624 8.57504 15.5624 10.104H16.8624ZM18.3308 11.5725C17.5198 11.5724 16.8624 10.915 16.8624 10.104H15.5624C15.5624 11.6329 16.8018 12.8723 18.3307 12.8725L18.3308 11.5725ZM18.9807 15.0399V12.2225H17.6807V15.0399H18.9807ZM17.3307 16.6899C18.242 16.6899 18.9807 15.9512 18.9807 15.0399H17.6807C17.6807 15.2332 17.524 15.3899 17.3307 15.3899V16.6899ZM2.66406 16.6899H17.3307V15.3899H2.66406V16.6899ZM1.01406 15.0399C1.01406 15.9512 1.75279 16.6899 2.66406 16.6899V15.3899C2.47076 15.3899 2.31406 15.2332 2.31406 15.0399H1.01406ZM1.01406 12.2225V15.0399H2.31406V12.2225H1.01406ZM1.66415 11.5725C1.66415 11.5725 1.66415 11.5725 1.66415 11.5725C1.66415 11.5725 1.66415 11.5725 1.66415 11.5725C1.66415 11.5725 1.66415 11.5725 1.66415 11.5725C1.66415 11.5725 1.66415 11.5725 1.66415 11.5725C1.66415 11.5725 1.66415 11.5725 1.66415 11.5725C1.66415 11.5725 1.66415 11.5725 1.66415 11.5725C1.66415 11.5725 1.66415 11.5725 1.66415 11.5725C1.66415 11.5725 1.66415 11.5725 1.66415 11.5725C1.66415 11.5725 1.66415 11.5725 1.66415 11.5725C1.66415 11.5725 1.66415 11.5725 1.66415 11.5725C1.66415 11.5725 1.66415 11.5725 1.66415 11.5725C1.66415 11.5725 1.66415 11.5725 1.66415 11.5725C1.66415 11.5725 1.66415 11.5725 1.66415 11.5725C1.66415 11.5725 1.66415 11.5725 1.66415 11.5725C1.66415 11.5725 1.66415 11.5725 1.66415 11.5725C1.66415 11.5725 1.66415 11.5725 1.66415 11.5725C1.66415 11.5725 1.66415 11.5725 1.66415 11.5725C1.66415 11.5725 1.66415 11.5725 1.66415 11.5725C1.66415 11.5725 1.66415 11.5725 1.66415 11.5725C1.66415 11.5725 1.66415 11.5725 1.66415 11.5725C1.66415 11.5725 1.66415 11.5725 1.66415 11.5725C1.66415 11.5725 1.66415 11.5725 1.66415 11.5725C1.66415 11.5725 1.66415 11.5725 1.66415 11.5725C1.66415 11.5725 1.66415 11.5725 1.66414 11.5725C1.66414 11.5725 1.66414 11.5725 1.66414 11.5725C1.66414 11.5725 1.66414 11.5725 1.66414 11.5725C1.66414 11.5725 1.66414 11.5725 1.66414 11.5725C1.66414 11.5725 1.66414 11.5725 1.66414 11.5725C1.66414 11.5725 1.66414 11.5725 1.66414 11.5725C1.66414 11.5725 1.66414 11.5725 1.66414 11.5725C1.66414 11.5725 1.66414 11.5725 1.66414 11.5725C1.66414 11.5725 1.66414 11.5725 1.66414 11.5725C1.66414 11.5725 1.66414 11.5725 1.66414 11.5725C1.66414 11.5725 1.66414 11.5725 1.66414 11.5725C1.66414 11.5725 1.66414 11.5725 1.66414 11.5725C1.66414 11.5725 1.66414 11.5725 1.66414 11.5725C1.66414 11.5725 1.66414 11.5725 1.66414 11.5725C1.66414 11.5725 1.66414 11.5725 1.66414 11.5725C1.66414 11.5725 1.66414 11.5725 1.66414 11.5725C1.66414 11.5725 1.66414 11.5725 1.66414 11.5725C1.66414 11.5725 1.66414 11.5725 1.66414 11.5725C1.66414 11.5725 1.66414 11.5725 1.66414 11.5725C1.66414 11.5725 1.66414 11.5725 1.66414 11.5725C1.66414 11.5725 1.66414 11.5725 1.66414 11.5725C1.66414 11.5725 1.66414 11.5725 1.66414 11.5725C1.66414 11.5725 1.66414 11.5725 1.66414 11.5725C1.66414 11.5725 1.66414 11.5725 1.66414 11.5725C1.66414 11.5725 1.66414 11.5725 1.66414 11.5725C1.66414 11.5725 1.66414 11.5725 1.66414 11.5725C1.66414 11.5725 1.66414 11.5725 1.66414 11.5725C1.66414 11.5725 1.66414 11.5725 1.66414 11.5725C1.66414 11.5725 1.66414 11.5725 1.66414 11.5725C1.66414 11.5725 1.66414 11.5725 1.66414 11.5725C1.66414 11.5725 1.66414 11.5725 1.66414 11.5725C1.66414 11.5725 1.66414 11.5725 1.66414 11.5725C1.66414 11.5725 1.66414 11.5725 1.66414 11.5725C1.66414 11.5725 1.66414 11.5725 1.66414 11.5725C1.66414 11.5725 1.66414 11.5725 1.66414 11.5725C1.66414 11.5725 1.66414 11.5725 1.66414 11.5725C1.66414 11.5725 1.66414 11.5725 1.66414 11.5725C1.66414 11.5725 1.66414 11.5725 1.66414 11.5725C1.66414 11.5725 1.66414 11.5725 1.66414 11.5725C1.66414 11.5725 1.66414 11.5725 1.66414 11.5725C1.66414 11.5725 1.66414 11.5725 1.66414 11.5725C1.66414 11.5725 1.66414 11.5725 1.66414 11.5725C1.66414 11.5725 1.66414 11.5725 1.66414 11.5725C1.66414 11.5725 1.66414 11.5725 1.66414 11.5725C1.66414 11.5725 1.66414 11.5725 1.66414 11.5725C1.66414 11.5725 1.66414 11.5725 1.66414 11.5725C1.66414 11.5725 1.66414 11.5725 1.66414 11.5725C1.66414 11.5725 1.66414 11.5725 1.66414 11.5725C1.66414 11.5725 1.66414 11.5725 1.66414 11.5725C1.66414 11.5725 1.66414 11.5725 1.66414 11.5725C1.66414 11.5725 1.66414 11.5725 1.66414 11.5725C1.66414 11.5725 1.66414 11.5725 1.66414 11.5725C1.66414 11.5725 1.66414 11.5725 1.66414 11.5725C1.66414 11.5725 1.66414 11.5725 1.66414 11.5725C1.66414 11.5725 1.66414 11.5725 1.66414 11.5725C1.66414 11.5725 1.66414 11.5725 1.66414 11.5725C1.66414 11.5725 1.66414 11.5725 1.66414 11.5725C1.66414 11.5725 1.66414 11.5725 1.66414 11.5725C1.66414 11.5725 1.66414 11.5725 1.66414 11.5725C1.66414 11.5725 1.66414 11.5725 1.66414 11.5725C1.66413 11.5725 1.66413 11.5725 1.66413 11.5725C1.66413 11.5725 1.66413 11.5725 1.66413 11.5725C1.66413 11.5725 1.66413 11.5725 1.66413 11.5725C1.66413 11.5725 1.66413 11.5725 1.66413 11.5725C1.66413 11.5725 1.66413 11.5725 1.66413 11.5725C1.66413 11.5725 1.66413 11.5725 1.66413 11.5725C1.66413 11.5725 1.66413 11.5725 1.66413 11.5725C1.66413 11.5725 1.66413 11.5725 1.66413 11.5725C1.66413 11.5725 1.66413 11.5725 1.66413 11.5725C1.66413 11.5725 1.66413 11.5725 1.66413 11.5725C1.66413 11.5725 1.66413 11.5725 1.66413 11.5725C1.66413 11.5725 1.66413 11.5725 1.66413 11.5725C1.66413 11.5725 1.66413 11.5725 1.66413 11.5725C1.66413 11.5725 1.66413 11.5725 1.66413 11.5725C1.66413 11.5725 1.66413 11.5725 1.66413 11.5725C1.66413 11.5725 1.66413 11.5725 1.66413 11.5725C1.66413 11.5725 1.66413 11.5725 1.66413 11.5725C1.66413 11.5725 1.66413 11.5725 1.66413 11.5725C1.66413 11.5725 1.66413 11.5725 1.66413 11.5725C1.66413 11.5725 1.66413 11.5725 1.66413 11.5725C1.66413 11.5725 1.66413 11.5725 1.66413 11.5725C1.66413 11.5725 1.66413 11.5725 1.66413 11.5725C1.66413 11.5725 1.66413 11.5725 1.66413 11.5725C1.66413 11.5725 1.66413 11.5725 1.66413 11.5725C1.66413 11.5725 1.66413 11.5725 1.66413 11.5725C1.66413 11.5725 1.66413 11.5725 1.66413 11.5725C1.66413 11.5725 1.66413 11.5725 1.66413 11.5725C1.66413 11.5725 1.66413 11.5725 1.66413 11.5725C1.66413 11.5725 1.66413 11.5725 1.66413 11.5725C1.66413 11.5725 1.66413 11.5725 1.66413 11.5725C1.66413 11.5725 1.66413 11.5725 1.66413 11.5725C1.66413 11.5725 1.66413 11.5725 1.66413 11.5725C1.66413 11.5725 1.66413 11.5725 1.66413 11.5725C1.66413 11.5725 1.66413 11.5725 1.66413 11.5725C1.66413 11.5725 1.66413 11.5725 1.66413 11.5725C1.66413 11.5725 1.66413 11.5725 1.66413 11.5725C1.66413 11.5725 1.66413 11.5725 1.66413 11.5725C1.66413 11.5725 1.66413 11.5725 1.66413 11.5725C1.66413 11.5725 1.66413 11.5725 1.66413 11.5725C1.66413 11.5725 1.66413 11.5725 1.66413 11.5725C1.66413 11.5725 1.66413 11.5725 1.66413 11.5725C1.66413 11.5725 1.66413 11.5725 1.66413 11.5725C1.66413 11.5725 1.66413 11.5725 1.66413 11.5725C1.66413 11.5725 1.66413 11.5725 1.66413 11.5725C1.66413 11.5725 1.66413 11.5725 1.66413 11.5725C1.66413 11.5725 1.66413 11.5725 1.66413 11.5725C1.66413 11.5725 1.66413 11.5725 1.66413 11.5725C1.66413 11.5725 1.66413 11.5725 1.66413 11.5725C1.66413 11.5725 1.66413 11.5725 1.66413 11.5725C1.66413 11.5725 1.66413 11.5725 1.66413 11.5725C1.66413 11.5725 1.66413 11.5725 1.66413 11.5725C1.66413 11.5725 1.66413 11.5725 1.66413 11.5725C1.66413 11.5725 1.66413 11.5725 1.66413 11.5725C1.66413 11.5725 1.66413 11.5725 1.66413 11.5725C1.66413 11.5725 1.66413 11.5725 1.66413 11.5725C1.66413 11.5725 1.66413 11.5725 1.66413 11.5725C1.66413 11.5725 1.66413 11.5725 1.66413 11.5725C1.66413 11.5725 1.66413 11.5725 1.66413 11.5725C1.66413 11.5725 1.66413 11.5725 1.66413 11.5725C1.66412 11.5725 1.66412 11.5725 1.66412 11.5725C1.66412 11.5725 1.66412 11.5725 1.66412 11.5725C1.66412 11.5725 1.66412 11.5725 1.66412 11.5725C1.66412 11.5725 1.66412 11.5725 1.66412 11.5725C1.66412 11.5725 1.66412 11.5725 1.66412 11.5725C1.66412 11.5725 1.66412 11.5725 1.66412 11.5725C1.66412 11.5725 1.66412 11.5725 1.66412 11.5725C1.66412 11.5725 1.66412 11.5725 1.66412 11.5725C1.66412 11.5725 1.66412 11.5725 1.66412 11.5725C1.66412 11.5725 1.66412 11.5725 1.66412 11.5725C1.66412 11.5725 1.66412 11.5725 1.66412 11.5725C1.66412 11.5725 1.66412 11.5725 1.66412 11.5725C1.66412 11.5725 1.66412 11.5725 1.66412 11.5725C1.66412 11.5725 1.66412 11.5725 1.66412 11.5725C1.66412 11.5725 1.66412 11.5725 1.66412 11.5725C1.66412 11.5725 1.66412 11.5725 1.66412 11.5725C1.66412 11.5725 1.66412 11.5725 1.66412 11.5725C1.66412 11.5725 1.66412 11.5725 1.66412 11.5725C1.66412 11.5725 1.66412 11.5725 1.66412 11.5725C1.66412 11.5725 1.66412 11.5725 1.66412 11.5725C1.66412 11.5725 1.66412 11.5725 1.66412 11.5725C1.66412 11.5725 1.66412 11.5725 1.66412 11.5725C1.66412 11.5725 1.66412 11.5725 1.66412 11.5725C1.66412 11.5725 1.66412 11.5725 1.66412 11.5725C1.66412 11.5725 1.66412 11.5725 1.66412 11.5725C1.66412 11.5725 1.66412 11.5725 1.66412 11.5725C1.66412 11.5725 1.66412 11.5725 1.66412 11.5725C1.66412 11.5725 1.66412 11.5725 1.66412 11.5725C1.66412 11.5725 1.66412 11.5725 1.66412 11.5725C1.66412 11.5725 1.66412 11.5725 1.66412 11.5725C1.66412 11.5725 1.66412 11.5725 1.66412 11.5725C1.66412 11.5725 1.66412 11.5725 1.66412 11.5725C1.66412 11.5725 1.66412 11.5725 1.66412 11.5725C1.66412 11.5725 1.66412 11.5725 1.66412 11.5725C1.66412 11.5725 1.66412 11.5725 1.66412 11.5725C1.66412 11.5725 1.66412 11.5725 1.66412 11.5725C1.66412 11.5725 1.66412 11.5725 1.66412 11.5725C1.66412 11.5725 1.66412 11.5725 1.66412 11.5725C1.66412 11.5725 1.66412 11.5725 1.66412 11.5725C1.66412 11.5725 1.66412 11.5725 1.66412 11.5725C1.66412 11.5725 1.66412 11.5725 1.66412 11.5725C1.66412 11.5725 1.66412 11.5725 1.66412 11.5725C1.66412 11.5725 1.66412 11.5725 1.66412 11.5725C1.66412 11.5725 1.66412 11.5725 1.66412 11.5725C1.66412 11.5725 1.66412 11.5725 1.66412 11.5725C1.66412 11.5725 1.66412 11.5725 1.66412 11.5725C1.66412 11.5725 1.66412 11.5725 1.66412 11.5725C1.66412 11.5725 1.66412 11.5725 1.66412 11.5725C1.66412 11.5725 1.66412 11.5725 1.66412 11.5725C1.66412 11.5725 1.66412 11.5725 1.66412 11.5725C1.66412 11.5725 1.66412 11.5725 1.66412 11.5725C1.66412 11.5725 1.66412 11.5725 1.66412 11.5725C1.66412 11.5725 1.66412 11.5725 1.66412 11.5725C1.66412 11.5725 1.66412 11.5725 1.66412 11.5725C1.66412 11.5725 1.66412 11.5725 1.66412 11.5725C1.66412 11.5725 1.66412 11.5725 1.66412 11.5725C1.66412 11.5725 1.66412 11.5725 1.66412 11.5725C1.66412 11.5725 1.66412 11.5725 1.66412 11.5725C1.66412 11.5725 1.66412 11.5725 1.66412 11.5725C1.66412 11.5725 1.66411 11.5725 1.66411 11.5725C1.66411 11.5725 1.66411 11.5725 1.66411 11.5725C1.66411 11.5725 1.66411 11.5725 1.66411 11.5725C1.66411 11.5725 1.66411 11.5725 1.66411 11.5725C1.66411 11.5725 1.66411 11.5725 1.66411 11.5725C1.66411 11.5725 1.66411 11.5725 1.66411 11.5725C1.66411 11.5725 1.66411 11.5725 1.66411 11.5725C1.66411 11.5725 1.66411 11.5725 1.66411 11.5725C1.66411 11.5725 1.66411 11.5725 1.66411 11.5725C1.66411 11.5725 1.66411 11.5725 1.66411 11.5725C1.66411 11.5725 1.66411 11.5725 1.66411 11.5725C1.66411 11.5725 1.66411 11.5725 1.66411 11.5725C1.66411 11.5725 1.66411 11.5725 1.66411 11.5725C1.66411 11.5725 1.66411 11.5725 1.66411 11.5725C1.66411 11.5725 1.66411 11.5725 1.66411 11.5725C1.66411 11.5725 1.66411 11.5725 1.66411 11.5725C1.66411 11.5725 1.66411 11.5725 1.66411 11.5725C1.66411 11.5725 1.66411 11.5725 1.66411 11.5725C1.66411 11.5725 1.66411 11.5725 1.66411 11.5725C1.66411 11.5725 1.66411 11.5725 1.66411 11.5725C1.66411 11.5725 1.66411 11.5725 1.66411 11.5725C1.66411 11.5725 1.66411 11.5725 1.66411 11.5725C1.66411 11.5725 1.66411 11.5725 1.66411 11.5725C1.66411 11.5725 1.66411 11.5725 1.66411 11.5725C1.66411 11.5725 1.66411 11.5725 1.66411 11.5725C1.66411 11.5725 1.66411 11.5725 1.66411 11.5725C1.66411 11.5725 1.66411 11.5725 1.66411 11.5725C1.66411 11.5725 1.66411 11.5725 1.66411 11.5725C1.66411 11.5725 1.66411 11.5725 1.66411 11.5725C1.66411 11.5725 1.66411 11.5725 1.66411 11.5725C1.66411 11.5725 1.66411 11.5725 1.66411 11.5725C1.66411 11.5725 1.66411 11.5725 1.66411 11.5725C1.66411 11.5725 1.66411 11.5725 1.66411 11.5725C1.66411 11.5725 1.66411 11.5725 1.66411 11.5725C1.66411 11.5725 1.66411 11.5725 1.66411 11.5725C1.66411 11.5725 1.66411 11.5725 1.66411 11.5725C1.66411 11.5725 1.66411 11.5725 1.66411 11.5725C1.66411 11.5725 1.66411 11.5725 1.66411 11.5725C1.66411 11.5725 1.66411 11.5725 1.66411 11.5725C1.66411 11.5725 1.66411 11.5725 1.66411 11.5725C1.66411 11.5725 1.66411 11.5725 1.66411 11.5725C1.66411 11.5725 1.66411 11.5725 1.66411 11.5725C1.66411 11.5725 1.66411 11.5725 1.66411 11.5725C1.66411 11.5725 1.66411 11.5725 1.66411 11.5725C1.66411 11.5725 1.66411 11.5725 1.66411 11.5725C1.66411 11.5725 1.66411 11.5725 1.66411 11.5725C1.66411 11.5725 1.66411 11.5725 1.66411 11.5725C1.66411 11.5725 1.66411 11.5725 1.66411 11.5725C1.66411 11.5725 1.66411 11.5725 1.66411 11.5725C1.66411 11.5725 1.66411 11.5725 1.66411 11.5725C1.66411 11.5725 1.66411 11.5725 1.66411 11.5725C1.66411 11.5725 1.66411 11.5725 1.66411 11.5725C1.66411 11.5725 1.66411 11.5725 1.66411 11.5725C1.66411 11.5725 1.66411 11.5725 1.66411 11.5725C1.66411 11.5725 1.66411 11.5725 1.66411 11.5725C1.66411 11.5725 1.66411 11.5725 1.66411 11.5725C1.66411 11.5725 1.66411 11.5725 1.66411 11.5725C1.66411 11.5725 1.66411 11.5725 1.66411 11.5725C1.66411 11.5725 1.66411 11.5725 1.66411 11.5725C1.66411 11.5725 1.6641 11.5725 1.6641 11.5725C1.6641 11.5725 1.6641 11.5725 1.6641 11.5725C1.6641 11.5725 1.6641 11.5725 1.6641 11.5725C1.6641 11.5725 1.6641 11.5725 1.6641 11.5725C1.6641 11.5725 1.6641 11.5725 1.6641 11.5725C1.6641 11.5725 1.6641 11.5725 1.6641 11.5725C1.6641 11.5725 1.6641 11.5725 1.6641 11.5725C1.6641 11.5725 1.6641 11.5725 1.6641 11.5725C1.6641 11.5725 1.6641 11.5725 1.6641 11.5725C1.6641 11.5725 1.6641 11.5725 1.6641 11.5725C1.6641 11.5725 1.6641 11.5725 1.6641 11.5725C1.6641 11.5725 1.6641 11.5725 1.6641 11.5725C1.6641 11.5725 1.6641 11.5725 1.6641 11.5725C1.6641 11.5725 1.6641 11.5725 1.6641 11.5725C1.6641 11.5725 1.6641 11.5725 1.6641 11.5725C1.6641 11.5725 1.6641 11.5725 1.6641 11.5725C1.6641 11.5725 1.6641 11.5725 1.6641 11.5725C1.6641 11.5725 1.6641 11.5725 1.6641 11.5725C1.6641 11.5725 1.6641 11.5725 1.6641 11.5725C1.6641 11.5725 1.6641 11.5725 1.6641 11.5725C1.6641 11.5725 1.6641 11.5725 1.6641 11.5725C1.6641 11.5725 1.6641 11.5725 1.6641 11.5725C1.6641 11.5725 1.6641 11.5725 1.6641 11.5725C1.6641 11.5725 1.6641 11.5725 1.6641 11.5725C1.6641 11.5725 1.6641 11.5725 1.6641 11.5725C1.6641 11.5725 1.6641 11.5725 1.6641 11.5725C1.6641 11.5725 1.6641 11.5725 1.6641 11.5725C1.6641 11.5725 1.6641 11.5725 1.6641 11.5725C1.6641 11.5725 1.6641 11.5725 1.6641 11.5725C1.6641 11.5725 1.6641 11.5725 1.6641 11.5725C1.6641 11.5725 1.6641 11.5725 1.6641 11.5725C1.6641 11.5725 1.6641 11.5725 1.6641 11.5725C1.6641 11.5725 1.6641 11.5725 1.6641 11.5725C1.6641 11.5725 1.6641 11.5725 1.6641 11.5725C1.6641 11.5725 1.6641 11.5725 1.6641 11.5725C1.6641 11.5725 1.6641 11.5725 1.6641 11.5725C1.6641 11.5725 1.6641 11.5725 1.6641 11.5725C1.6641 11.5725 1.6641 11.5725 1.6641 11.5725C1.6641 11.5725 1.6641 11.5725 1.6641 11.5725C1.6641 11.5725 1.6641 11.5725 1.6641 11.5725C1.6641 11.5725 1.6641 11.5725 1.6641 11.5725C1.6641 11.5725 1.6641 11.5725 1.6641 11.5725C1.6641 11.5725 1.6641 11.5725 1.6641 11.5725C1.6641 11.5725 1.6641 11.5725 1.6641 11.5725C1.6641 11.5725 1.6641 11.5725 1.6641 11.5725C1.6641 11.5725 1.6641 11.5725 1.6641 11.5725C1.6641 11.5725 1.6641 11.5725 1.6641 11.5725C1.6641 11.5725 1.6641 11.5725 1.6641 11.5725C1.6641 11.5725 1.6641 11.5725 1.6641 11.5725C1.6641 11.5725 1.6641 11.5725 1.6641 11.5725C1.6641 11.5725 1.6641 11.5725 1.6641 11.5725C1.6641 11.5725 1.6641 11.5725 1.6641 11.5725C1.6641 11.5725 1.6641 11.5725 1.6641 11.5725C1.6641 11.5725 1.6641 11.5725 1.6641 11.5725C1.6641 11.5725 1.6641 11.5725 1.6641 11.5725C1.6641 11.5725 1.6641 11.5725 1.6641 11.5725C1.6641 11.5725 1.6641 11.5725 1.6641 11.5725C1.6641 11.5725 1.6641 11.5725 1.6641 11.5725C1.6641 11.5725 1.6641 11.5725 1.6641 11.5725C1.6641 11.5725 1.6641 11.5725 1.66409 11.5725C1.66409 11.5725 1.66409 11.5725 1.66409 11.5725C1.66409 11.5725 1.66409 11.5725 1.66409 11.5725C1.66409 11.5725 1.66409 11.5725 1.66409 11.5725C1.66409 11.5725 1.66409 11.5725 1.66409 11.5725C1.66409 11.5725 1.66409 11.5725 1.66409 11.5725C1.66409 11.5725 1.66409 11.5725 1.66409 11.5725C1.66409 11.5725 1.66409 11.5725 1.66409 11.5725C1.66409 11.5725 1.66409 11.5725 1.66409 11.5725C1.66409 11.5725 1.66409 11.5725 1.66409 11.5725C1.66409 11.5725 1.66409 11.5725 1.66409 11.5725C1.66409 11.5725 1.66409 11.5725 1.66409 11.5725C1.66409 11.5725 1.66409 11.5725 1.66409 11.5725C1.66409 11.5725 1.66409 11.5725 1.66409 11.5725C1.66409 11.5725 1.66409 11.5725 1.66409 11.5725C1.66409 11.5725 1.66409 11.5725 1.66409 11.5725C1.66409 11.5725 1.66409 11.5725 1.66409 11.5725C1.66409 11.5725 1.66409 11.5725 1.66409 11.5725C1.66409 11.5725 1.66409 11.5725 1.66409 11.5725C1.66409 11.5725 1.66409 11.5725 1.66409 11.5725C1.66409 11.5725 1.66409 11.5725 1.66409 11.5725C1.66409 11.5725 1.66409 11.5725 1.66409 11.5725C1.66409 11.5725 1.66409 11.5725 1.66409 11.5725C1.66409 11.5725 1.66409 11.5725 1.66409 11.5725C1.66409 11.5725 1.66409 11.5725 1.66409 11.5725C1.66409 11.5725 1.66409 11.5725 1.66409 11.5725C1.66409 11.5725 1.66409 11.5725 1.66409 11.5725C1.66409 11.5725 1.66409 11.5725 1.66409 11.5725C1.66409 11.5725 1.66409 11.5725 1.66409 11.5725C1.66409 11.5725 1.66409 11.5725 1.66409 11.5725C1.66409 11.5725 1.66409 11.5725 1.66409 11.5725C1.66409 11.5725 1.66409 11.5725 1.66409 11.5725C1.66409 11.5725 1.66409 11.5725 1.66409 11.5725C1.66409 11.5725 1.66409 11.5725 1.66409 11.5725C1.66409 11.5725 1.66409 11.5725 1.66409 11.5725C1.66409 11.5725 1.66409 11.5725 1.66409 11.5725C1.66409 11.5725 1.66409 11.5725 1.66409 11.5725C1.66409 11.5725 1.66409 11.5725 1.66409 11.5725C1.66409 11.5725 1.66409 11.5725 1.66409 11.5725C1.66409 11.5725 1.66409 11.5725 1.66409 11.5725C1.66409 11.5725 1.66409 11.5725 1.66409 11.5725C1.66409 11.5725 1.66409 11.5725 1.66409 11.5725C1.66409 11.5725 1.66409 11.5725 1.66409 11.5725C1.66409 11.5725 1.66409 11.5725 1.66409 11.5725C1.66409 11.5725 1.66409 11.5725 1.66409 11.5725C1.66409 11.5725 1.66409 11.5725 1.66409 11.5725C1.66409 11.5725 1.66409 11.5725 1.66409 11.5725C1.66409 11.5725 1.66409 11.5725 1.66409 11.5725C1.66409 11.5725 1.66409 11.5725 1.66409 11.5725C1.66409 11.5725 1.66409 11.5725 1.66409 11.5725C1.66409 11.5725 1.66409 11.5725 1.66409 11.5725C1.66409 11.5725 1.66409 11.5725 1.66409 11.5725C1.66409 11.5725 1.66409 11.5725 1.66409 11.5725C1.66409 11.5725 1.66409 11.5725 1.66409 11.5725C1.66409 11.5725 1.66409 11.5725 1.66409 11.5725C1.66409 11.5725 1.66409 11.5725 1.66409 11.5725C1.66409 11.5725 1.66409 11.5725 1.66409 11.5725C1.66409 11.5725 1.66409 11.5725 1.66409 11.5725C1.66409 11.5725 1.66409 11.5725 1.66409 11.5725C1.66409 11.5725 1.66409 11.5725 1.66408 11.5725C1.66408 11.5725 1.66408 11.5725 1.66408 11.5725C1.66408 11.5725 1.66408 11.5725 1.66408 11.5725C1.66408 11.5725 1.66408 11.5725 1.66408 11.5725C1.66408 11.5725 1.66408 11.5725 1.66408 11.5725C1.66408 11.5725 1.66408 11.5725 1.66408 11.5725C1.66408 11.5725 1.66408 11.5725 1.66408 11.5725C1.66408 11.5725 1.66408 11.5725 1.66408 11.5725C1.66408 11.5725 1.66408 11.5725 1.66408 11.5725C1.66408 11.5725 1.66408 11.5725 1.66408 11.5725C1.66408 11.5725 1.66408 11.5725 1.66408 11.5725C1.66408 11.5725 1.66408 11.5725 1.66408 11.5725C1.66408 11.5725 1.66408 11.5725 1.66408 11.5725C1.66408 11.5725 1.66408 11.5725 1.66408 11.5725C1.66408 11.5725 1.66408 11.5725 1.66408 11.5725C1.66408 11.5725 1.66408 11.5725 1.66408 11.5725C1.66408 11.5725 1.66408 11.5725 1.66408 11.5725C1.66408 11.5725 1.66408 11.5725 1.66408 11.5725C1.66408 11.5725 1.66408 11.5725 1.66408 11.5725C1.66408 11.5725 1.66408 11.5725 1.66408 11.5725C1.66408 11.5725 1.66408 11.5725 1.66408 11.5725C1.66408 11.5725 1.66408 11.5725 1.66408 11.5725C1.66408 11.5725 1.66408 11.5725 1.66408 11.5725C1.66408 11.5725 1.66408 11.5725 1.66408 11.5725C1.66408 11.5725 1.66408 11.5725 1.66408 11.5725C1.66408 11.5725 1.66408 11.5725 1.66408 11.5725C1.66408 11.5725 1.66408 11.5725 1.66408 11.5725C1.66408 11.5725 1.66408 11.5725 1.66408 11.5725C1.66408 11.5725 1.66408 11.5725 1.66408 11.5725C1.66408 11.5725 1.66408 11.5725 1.66408 11.5725C1.66408 11.5725 1.66408 11.5725 1.66408 11.5725C1.66408 11.5725 1.66408 11.5725 1.66408 11.5725C1.66408 11.5725 1.66408 11.5725 1.66408 11.5725C1.66408 11.5725 1.66408 11.5725 1.66408 11.5725C1.66408 11.5725 1.66408 11.5725 1.66408 11.5725C1.66408 11.5725 1.66408 11.5725 1.66408 11.5725C1.66408 11.5725 1.66408 11.5725 1.66408 11.5725C1.66408 11.5725 1.66408 11.5725 1.66408 11.5725C1.66408 11.5725 1.66408 11.5725 1.66408 11.5725C1.66408 11.5725 1.66408 11.5725 1.66408 11.5725C1.66408 11.5725 1.66408 11.5725 1.66408 11.5725C1.66408 11.5725 1.66408 11.5725 1.66408 11.5725C1.66408 11.5725 1.66408 11.5725 1.66408 11.5725C1.66408 11.5725 1.66408 11.5725 1.66408 11.5725C1.66408 11.5725 1.66408 11.5725 1.66408 11.5725C1.66408 11.5725 1.66408 11.5725 1.66408 11.5725C1.66408 11.5725 1.66408 11.5725 1.66408 11.5725C1.66408 11.5725 1.66408 11.5725 1.66408 11.5725C1.66408 11.5725 1.66408 11.5725 1.66408 11.5725C1.66408 11.5725 1.66408 11.5725 1.66408 11.5725C1.66408 11.5725 1.66408 11.5725 1.66408 11.5725C1.66408 11.5725 1.66408 11.5725 1.66408 11.5725C1.66408 11.5725 1.66408 11.5725 1.66408 11.5725C1.66408 11.5725 1.66408 11.5725 1.66408 11.5725C1.66408 11.5725 1.66408 11.5725 1.66408 11.5725C1.66408 11.5725 1.66408 11.5725 1.66408 11.5725C1.66408 11.5725 1.66408 11.5725 1.66408 11.5725C1.66408 11.5725 1.66408 11.5725 1.66408 11.5725C1.66408 11.5725 1.66408 11.5725 1.66408 11.5725C1.66408 11.5725 1.66408 11.5725 1.66408 11.5725C1.66407 11.5725 1.66407 11.5725 1.66407 11.5725C1.66407 11.5725 1.66407 11.5725 1.66407 11.5725C1.66407 11.5725 1.66407 11.5725 1.66407 11.5725C1.66407 11.5725 1.66407 11.5725 1.66407 11.5725C1.66407 11.5725 1.66407 11.5725 1.66407 11.5725C1.66407 11.5725 1.66407 11.5725 1.66407 11.5725C1.66407 11.5725 1.66407 11.5725 1.66407 11.5725C1.66407 11.5725 1.66407 11.5725 1.66407 11.5725C1.66407 11.5725 1.66407 11.5725 1.66407 11.5725C1.66407 11.5725 1.66407 11.5725 1.66407 11.5725C1.66407 11.5725 1.66407 11.5725 1.66407 11.5725C1.66407 11.5725 1.66407 11.5725 1.66407 11.5725C1.66407 11.5725 1.66407 11.5725 1.66407 11.5725C1.66407 11.5725 1.66407 11.5725 1.66407 11.5725C1.66407 11.5725 1.66407 11.5725 1.66407 11.5725C1.66407 11.5725 1.66407 11.5725 1.66407 11.5725C1.66407 11.5725 1.66407 11.5725 1.66407 11.5725C1.66407 11.5725 1.66407 11.5725 1.66407 11.5725C1.66407 11.5725 1.66407 11.5725 1.66407 11.5725C1.66407 11.5725 1.66407 11.5725 1.66407 11.5725C1.66407 11.5725 1.66407 11.5725 1.66407 11.5725C1.66407 11.5725 1.66407 11.5725 1.66407 11.5725C1.66407 11.5725 1.66407 11.5725 1.66407 11.5725C1.66407 11.5725 1.66407 11.5725 1.66407 11.5725C1.66407 11.5725 1.66407 11.5725 1.66407 11.5725C1.66407 11.5725 1.66407 11.5725 1.66407 11.5725C1.66407 11.5725 1.66407 11.5725 1.66407 11.5725C1.66407 11.5725 1.66407 11.5725 1.66407 11.5725C1.66407 11.5725 1.66407 11.5725 1.66407 11.5725C1.66407 11.5725 1.66407 11.5725 1.66407 11.5725C1.66407 11.5725 1.66407 11.5725 1.66407 11.5725C1.66407 11.5725 1.66407 11.5725 1.66407 11.5725C1.66407 11.5725 1.66407 11.5725 1.66407 11.5725C1.66407 11.5725 1.66407 11.5725 1.66407 11.5725C1.66407 11.5725 1.66407 11.5725 1.66407 11.5725C1.66407 11.5725 1.66407 11.5725 1.66407 11.5725C1.66407 11.5725 1.66407 11.5725 1.66407 11.5725C1.66407 11.5725 1.66407 11.5725 1.66407 11.5725C1.66407 11.5725 1.66407 11.5725 1.66407 11.5725C1.66407 11.5725 1.66407 11.5725 1.66407 11.5725C1.66407 11.5725 1.66407 11.5725 1.66407 11.5725C1.66407 11.5725 1.66407 11.5725 1.66407 11.5725C1.66407 11.5725 1.66407 11.5725 1.66407 11.5725C1.66407 11.5725 1.66407 11.5725 1.66407 11.5725C1.66407 11.5725 1.66407 11.5725 1.66407 11.5725C1.66407 11.5725 1.66407 11.5725 1.66407 11.5725C1.66407 11.5725 1.66407 11.5725 1.66407 11.5725C1.66407 11.5725 1.66407 11.5725 1.66407 11.5725C1.66407 11.5725 1.66407 11.5725 1.66407 11.5725C1.66407 11.5725 1.66407 11.5725 1.66407 11.5725C1.66407 11.5725 1.66407 11.5725 1.66407 11.5725C1.66407 11.5725 1.66407 11.5725 1.66407 11.5725C1.66407 11.5725 1.66407 11.5725 1.66407 11.5725C1.66407 11.5725 1.66407 11.5725 1.66407 11.5725C1.66407 11.5725 1.66407 11.5725 1.66407 11.5725C1.66407 11.5725 1.66407 11.5725 1.66407 11.5725C1.66407 11.5725 1.66407 11.5725 1.66407 11.5725C1.66407 11.5725 1.66407 11.5725 1.66407 11.5725C1.66407 11.5725 1.66407 11.5725 1.66407 11.5725C1.66406 11.5725 1.66406 11.5725 1.66406 11.5725C1.66406 11.5725 1.66406 11.5725 1.66406 11.5725C1.66406 11.5725 1.66406 11.5725 1.66406 11.5725C1.66406 11.5725 1.66406 11.5725 1.66406 11.5725C1.66406 11.5725 1.66406 11.5725 1.66406 11.5725C1.66406 11.5725 1.66406 11.5725 1.66406 11.5725C1.66406 11.5725 1.66406 11.5725 1.66406 11.5725C1.66406 11.5725 1.66406 11.5725 1.66406 11.5725C1.66406 11.5725 1.66406 11.5725 1.66406 11.5725C1.66406 11.5725 1.66406 11.5725 1.66406 11.5725C1.66406 11.5725 1.66406 11.5725 1.66406 11.5725C1.66406 11.5725 1.66406 11.5725 1.66406 11.5725C1.66406 11.5725 1.66406 11.5725 1.66406 11.5725C1.66406 11.5725 1.66406 11.5725 1.66406 11.5725C1.66406 11.5725 1.66406 11.5725 1.66406 11.5725V12.8725C1.66406 12.8725 1.66406 12.8725 1.66406 12.8725C1.66406 12.8725 1.66406 12.8725 1.66406 12.8725C1.66406 12.8725 1.66406 12.8725 1.66406 12.8725C1.66406 12.8725 1.66406 12.8725 1.66406 12.8725C1.66406 12.8725 1.66406 12.8725 1.66406 12.8725C1.66406 12.8725 1.66406 12.8725 1.66406 12.8725C1.66406 12.8725 1.66406 12.8725 1.66406 12.8725C1.66406 12.8725 1.66406 12.8725 1.66406 12.8725C1.66406 12.8725 1.66406 12.8725 1.66406 12.8725C1.66406 12.8725 1.66406 12.8725 1.66406 12.8725C1.66406 12.8725 1.66406 12.8725 1.66406 12.8725C1.66406 12.8725 1.66406 12.8725 1.66406 12.8725C1.66406 12.8725 1.66406 12.8725 1.66406 12.8725C1.66406 12.8725 1.66406 12.8725 1.66406 12.8725C1.66406 12.8725 1.66406 12.8725 1.66407 12.8725C1.66407 12.8725 1.66407 12.8725 1.66407 12.8725C1.66407 12.8725 1.66407 12.8725 1.66407 12.8725C1.66407 12.8725 1.66407 12.8725 1.66407 12.8725C1.66407 12.8725 1.66407 12.8725 1.66407 12.8725C1.66407 12.8725 1.66407 12.8725 1.66407 12.8725C1.66407 12.8725 1.66407 12.8725 1.66407 12.8725C1.66407 12.8725 1.66407 12.8725 1.66407 12.8725C1.66407 12.8725 1.66407 12.8725 1.66407 12.8725C1.66407 12.8725 1.66407 12.8725 1.66407 12.8725C1.66407 12.8725 1.66407 12.8725 1.66407 12.8725C1.66407 12.8725 1.66407 12.8725 1.66407 12.8725C1.66407 12.8725 1.66407 12.8725 1.66407 12.8725C1.66407 12.8725 1.66407 12.8725 1.66407 12.8725C1.66407 12.8725 1.66407 12.8725 1.66407 12.8725C1.66407 12.8725 1.66407 12.8725 1.66407 12.8725C1.66407 12.8725 1.66407 12.8725 1.66407 12.8725C1.66407 12.8725 1.66407 12.8725 1.66407 12.8725C1.66407 12.8725 1.66407 12.8725 1.66407 12.8725C1.66407 12.8725 1.66407 12.8725 1.66407 12.8725C1.66407 12.8725 1.66407 12.8725 1.66407 12.8725C1.66407 12.8725 1.66407 12.8725 1.66407 12.8725C1.66407 12.8725 1.66407 12.8725 1.66407 12.8725C1.66407 12.8725 1.66407 12.8725 1.66407 12.8725C1.66407 12.8725 1.66407 12.8725 1.66407 12.8725C1.66407 12.8725 1.66407 12.8725 1.66407 12.8725C1.66407 12.8725 1.66407 12.8725 1.66407 12.8725C1.66407 12.8725 1.66407 12.8725 1.66407 12.8725C1.66407 12.8725 1.66407 12.8725 1.66407 12.8725C1.66407 12.8725 1.66407 12.8725 1.66407 12.8725C1.66407 12.8725 1.66407 12.8725 1.66407 12.8725C1.66407 12.8725 1.66407 12.8725 1.66407 12.8725C1.66407 12.8725 1.66407 12.8725 1.66407 12.8725C1.66407 12.8725 1.66407 12.8725 1.66407 12.8725C1.66407 12.8725 1.66407 12.8725 1.66407 12.8725C1.66407 12.8725 1.66407 12.8725 1.66407 12.8725C1.66407 12.8725 1.66407 12.8725 1.66407 12.8725C1.66407 12.8725 1.66407 12.8725 1.66407 12.8725C1.66407 12.8725 1.66407 12.8725 1.66407 12.8725C1.66407 12.8725 1.66407 12.8725 1.66407 12.8725C1.66407 12.8725 1.66407 12.8725 1.66407 12.8725C1.66407 12.8725 1.66407 12.8725 1.66407 12.8725C1.66407 12.8725 1.66407 12.8725 1.66407 12.8725C1.66407 12.8725 1.66407 12.8725 1.66407 12.8725C1.66407 12.8725 1.66407 12.8725 1.66407 12.8725C1.66407 12.8725 1.66407 12.8725 1.66407 12.8725C1.66407 12.8725 1.66407 12.8725 1.66407 12.8725C1.66407 12.8725 1.66407 12.8725 1.66407 12.8725C1.66407 12.8725 1.66407 12.8725 1.66407 12.8725C1.66407 12.8725 1.66407 12.8725 1.66407 12.8725C1.66407 12.8725 1.66407 12.8725 1.66407 12.8725C1.66407 12.8725 1.66407 12.8725 1.66407 12.8725C1.66407 12.8725 1.66407 12.8725 1.66407 12.8725C1.66407 12.8725 1.66407 12.8725 1.66407 12.8725C1.66407 12.8725 1.66407 12.8725 1.66407 12.8725C1.66407 12.8725 1.66407 12.8725 1.66407 12.8725C1.66407 12.8725 1.66407 12.8725 1.66407 12.8725C1.66407 12.8725 1.66407 12.8725 1.66407 12.8725C1.66407 12.8725 1.66407 12.8725 1.66407 12.8725C1.66407 12.8725 1.66407 12.8725 1.66408 12.8725C1.66408 12.8725 1.66408 12.8725 1.66408 12.8725C1.66408 12.8725 1.66408 12.8725 1.66408 12.8725C1.66408 12.8725 1.66408 12.8725 1.66408 12.8725C1.66408 12.8725 1.66408 12.8725 1.66408 12.8725C1.66408 12.8725 1.66408 12.8725 1.66408 12.8725C1.66408 12.8725 1.66408 12.8725 1.66408 12.8725C1.66408 12.8725 1.66408 12.8725 1.66408 12.8725C1.66408 12.8725 1.66408 12.8725 1.66408 12.8725C1.66408 12.8725 1.66408 12.8725 1.66408 12.8725C1.66408 12.8725 1.66408 12.8725 1.66408 12.8725C1.66408 12.8725 1.66408 12.8725 1.66408 12.8725C1.66408 12.8725 1.66408 12.8725 1.66408 12.8725C1.66408 12.8725 1.66408 12.8725 1.66408 12.8725C1.66408 12.8725 1.66408 12.8725 1.66408 12.8725C1.66408 12.8725 1.66408 12.8725 1.66408 12.8725C1.66408 12.8725 1.66408 12.8725 1.66408 12.8725C1.66408 12.8725 1.66408 12.8725 1.66408 12.8725C1.66408 12.8725 1.66408 12.8725 1.66408 12.8725C1.66408 12.8725 1.66408 12.8725 1.66408 12.8725C1.66408 12.8725 1.66408 12.8725 1.66408 12.8725C1.66408 12.8725 1.66408 12.8725 1.66408 12.8725C1.66408 12.8725 1.66408 12.8725 1.66408 12.8725C1.66408 12.8725 1.66408 12.8725 1.66408 12.8725C1.66408 12.8725 1.66408 12.8725 1.66408 12.8725C1.66408 12.8725 1.66408 12.8725 1.66408 12.8725C1.66408 12.8725 1.66408 12.8725 1.66408 12.8725C1.66408 12.8725 1.66408 12.8725 1.66408 12.8725C1.66408 12.8725 1.66408 12.8725 1.66408 12.8725C1.66408 12.8725 1.66408 12.8725 1.66408 12.8725C1.66408 12.8725 1.66408 12.8725 1.66408 12.8725C1.66408 12.8725 1.66408 12.8725 1.66408 12.8725C1.66408 12.8725 1.66408 12.8725 1.66408 12.8725C1.66408 12.8725 1.66408 12.8725 1.66408 12.8725C1.66408 12.8725 1.66408 12.8725 1.66408 12.8725C1.66408 12.8725 1.66408 12.8725 1.66408 12.8725C1.66408 12.8725 1.66408 12.8725 1.66408 12.8725C1.66408 12.8725 1.66408 12.8725 1.66408 12.8725C1.66408 12.8725 1.66408 12.8725 1.66408 12.8725C1.66408 12.8725 1.66408 12.8725 1.66408 12.8725C1.66408 12.8725 1.66408 12.8725 1.66408 12.8725C1.66408 12.8725 1.66408 12.8725 1.66408 12.8725C1.66408 12.8725 1.66408 12.8725 1.66408 12.8725C1.66408 12.8725 1.66408 12.8725 1.66408 12.8725C1.66408 12.8725 1.66408 12.8725 1.66408 12.8725C1.66408 12.8725 1.66408 12.8725 1.66408 12.8725C1.66408 12.8725 1.66408 12.8725 1.66408 12.8725C1.66408 12.8725 1.66408 12.8725 1.66408 12.8725C1.66408 12.8725 1.66408 12.8725 1.66408 12.8725C1.66408 12.8725 1.66408 12.8725 1.66408 12.8725C1.66408 12.8725 1.66408 12.8725 1.66408 12.8725C1.66408 12.8725 1.66408 12.8725 1.66408 12.8725C1.66408 12.8725 1.66408 12.8725 1.66408 12.8725C1.66408 12.8725 1.66408 12.8725 1.66408 12.8725C1.66408 12.8725 1.66408 12.8725 1.66408 12.8725C1.66408 12.8725 1.66408 12.8725 1.66408 12.8725C1.66408 12.8725 1.66408 12.8725 1.66408 12.8725C1.66408 12.8725 1.66408 12.8725 1.66408 12.8725C1.66408 12.8725 1.66408 12.8725 1.66408 12.8725C1.66408 12.8725 1.66408 12.8725 1.66408 12.8725C1.66409 12.8725 1.66409 12.8725 1.66409 12.8725C1.66409 12.8725 1.66409 12.8725 1.66409 12.8725C1.66409 12.8725 1.66409 12.8725 1.66409 12.8725C1.66409 12.8725 1.66409 12.8725 1.66409 12.8725C1.66409 12.8725 1.66409 12.8725 1.66409 12.8725C1.66409 12.8725 1.66409 12.8725 1.66409 12.8725C1.66409 12.8725 1.66409 12.8725 1.66409 12.8725C1.66409 12.8725 1.66409 12.8725 1.66409 12.8725C1.66409 12.8725 1.66409 12.8725 1.66409 12.8725C1.66409 12.8725 1.66409 12.8725 1.66409 12.8725C1.66409 12.8725 1.66409 12.8725 1.66409 12.8725C1.66409 12.8725 1.66409 12.8725 1.66409 12.8725C1.66409 12.8725 1.66409 12.8725 1.66409 12.8725C1.66409 12.8725 1.66409 12.8725 1.66409 12.8725C1.66409 12.8725 1.66409 12.8725 1.66409 12.8725C1.66409 12.8725 1.66409 12.8725 1.66409 12.8725C1.66409 12.8725 1.66409 12.8725 1.66409 12.8725C1.66409 12.8725 1.66409 12.8725 1.66409 12.8725C1.66409 12.8725 1.66409 12.8725 1.66409 12.8725C1.66409 12.8725 1.66409 12.8725 1.66409 12.8725C1.66409 12.8725 1.66409 12.8725 1.66409 12.8725C1.66409 12.8725 1.66409 12.8725 1.66409 12.8725C1.66409 12.8725 1.66409 12.8725 1.66409 12.8725C1.66409 12.8725 1.66409 12.8725 1.66409 12.8725C1.66409 12.8725 1.66409 12.8725 1.66409 12.8725C1.66409 12.8725 1.66409 12.8725 1.66409 12.8725C1.66409 12.8725 1.66409 12.8725 1.66409 12.8725C1.66409 12.8725 1.66409 12.8725 1.66409 12.8725C1.66409 12.8725 1.66409 12.8725 1.66409 12.8725C1.66409 12.8725 1.66409 12.8725 1.66409 12.8725C1.66409 12.8725 1.66409 12.8725 1.66409 12.8725C1.66409 12.8725 1.66409 12.8725 1.66409 12.8725C1.66409 12.8725 1.66409 12.8725 1.66409 12.8725C1.66409 12.8725 1.66409 12.8725 1.66409 12.8725C1.66409 12.8725 1.66409 12.8725 1.66409 12.8725C1.66409 12.8725 1.66409 12.8725 1.66409 12.8725C1.66409 12.8725 1.66409 12.8725 1.66409 12.8725C1.66409 12.8725 1.66409 12.8725 1.66409 12.8725C1.66409 12.8725 1.66409 12.8725 1.66409 12.8725C1.66409 12.8725 1.66409 12.8725 1.66409 12.8725C1.66409 12.8725 1.66409 12.8725 1.66409 12.8725C1.66409 12.8725 1.66409 12.8725 1.66409 12.8725C1.66409 12.8725 1.66409 12.8725 1.66409 12.8725C1.66409 12.8725 1.66409 12.8725 1.66409 12.8725C1.66409 12.8725 1.66409 12.8725 1.66409 12.8725C1.66409 12.8725 1.66409 12.8725 1.66409 12.8725C1.66409 12.8725 1.66409 12.8725 1.66409 12.8725C1.66409 12.8725 1.66409 12.8725 1.66409 12.8725C1.66409 12.8725 1.66409 12.8725 1.66409 12.8725C1.66409 12.8725 1.66409 12.8725 1.66409 12.8725C1.66409 12.8725 1.66409 12.8725 1.66409 12.8725C1.66409 12.8725 1.66409 12.8725 1.66409 12.8725C1.66409 12.8725 1.66409 12.8725 1.66409 12.8725C1.66409 12.8725 1.66409 12.8725 1.66409 12.8725C1.66409 12.8725 1.66409 12.8725 1.66409 12.8725C1.66409 12.8725 1.66409 12.8725 1.66409 12.8725C1.66409 12.8725 1.66409 12.8725 1.66409 12.8725C1.66409 12.8725 1.66409 12.8725 1.66409 12.8725C1.66409 12.8725 1.66409 12.8725 1.66409 12.8725C1.6641 12.8725 1.6641 12.8725 1.6641 12.8725C1.6641 12.8725 1.6641 12.8725 1.6641 12.8725C1.6641 12.8725 1.6641 12.8725 1.6641 12.8725C1.6641 12.8725 1.6641 12.8725 1.6641 12.8725C1.6641 12.8725 1.6641 12.8725 1.6641 12.8725C1.6641 12.8725 1.6641 12.8725 1.6641 12.8725C1.6641 12.8725 1.6641 12.8725 1.6641 12.8725C1.6641 12.8725 1.6641 12.8725 1.6641 12.8725C1.6641 12.8725 1.6641 12.8725 1.6641 12.8725C1.6641 12.8725 1.6641 12.8725 1.6641 12.8725C1.6641 12.8725 1.6641 12.8725 1.6641 12.8725C1.6641 12.8725 1.6641 12.8725 1.6641 12.8725C1.6641 12.8725 1.6641 12.8725 1.6641 12.8725C1.6641 12.8725 1.6641 12.8725 1.6641 12.8725C1.6641 12.8725 1.6641 12.8725 1.6641 12.8725C1.6641 12.8725 1.6641 12.8725 1.6641 12.8725C1.6641 12.8725 1.6641 12.8725 1.6641 12.8725C1.6641 12.8725 1.6641 12.8725 1.6641 12.8725C1.6641 12.8725 1.6641 12.8725 1.6641 12.8725C1.6641 12.8725 1.6641 12.8725 1.6641 12.8725C1.6641 12.8725 1.6641 12.8725 1.6641 12.8725C1.6641 12.8725 1.6641 12.8725 1.6641 12.8725C1.6641 12.8725 1.6641 12.8725 1.6641 12.8725C1.6641 12.8725 1.6641 12.8725 1.6641 12.8725C1.6641 12.8725 1.6641 12.8725 1.6641 12.8725C1.6641 12.8725 1.6641 12.8725 1.6641 12.8725C1.6641 12.8725 1.6641 12.8725 1.6641 12.8725C1.6641 12.8725 1.6641 12.8725 1.6641 12.8725C1.6641 12.8725 1.6641 12.8725 1.6641 12.8725C1.6641 12.8725 1.6641 12.8725 1.6641 12.8725C1.6641 12.8725 1.6641 12.8725 1.6641 12.8725C1.6641 12.8725 1.6641 12.8725 1.6641 12.8725C1.6641 12.8725 1.6641 12.8725 1.6641 12.8725C1.6641 12.8725 1.6641 12.8725 1.6641 12.8725C1.6641 12.8725 1.6641 12.8725 1.6641 12.8725C1.6641 12.8725 1.6641 12.8725 1.6641 12.8725C1.6641 12.8725 1.6641 12.8725 1.6641 12.8725C1.6641 12.8725 1.6641 12.8725 1.6641 12.8725C1.6641 12.8725 1.6641 12.8725 1.6641 12.8725C1.6641 12.8725 1.6641 12.8725 1.6641 12.8725C1.6641 12.8725 1.6641 12.8725 1.6641 12.8725C1.6641 12.8725 1.6641 12.8725 1.6641 12.8725C1.6641 12.8725 1.6641 12.8725 1.6641 12.8725C1.6641 12.8725 1.6641 12.8725 1.6641 12.8725C1.6641 12.8725 1.6641 12.8725 1.6641 12.8725C1.6641 12.8725 1.6641 12.8725 1.6641 12.8725C1.6641 12.8725 1.6641 12.8725 1.6641 12.8725C1.6641 12.8725 1.6641 12.8725 1.6641 12.8725C1.6641 12.8725 1.6641 12.8725 1.6641 12.8725C1.6641 12.8725 1.6641 12.8725 1.6641 12.8725C1.6641 12.8725 1.6641 12.8725 1.6641 12.8725C1.6641 12.8725 1.6641 12.8725 1.6641 12.8725C1.6641 12.8725 1.6641 12.8725 1.6641 12.8725C1.6641 12.8725 1.6641 12.8725 1.6641 12.8725C1.6641 12.8725 1.6641 12.8725 1.6641 12.8725C1.6641 12.8725 1.6641 12.8725 1.6641 12.8725C1.6641 12.8725 1.6641 12.8725 1.6641 12.8725C1.6641 12.8725 1.6641 12.8725 1.6641 12.8725C1.6641 12.8725 1.6641 12.8725 1.6641 12.8725C1.6641 12.8725 1.66411 12.8725 1.66411 12.8725C1.66411 12.8725 1.66411 12.8725 1.66411 12.8725C1.66411 12.8725 1.66411 12.8725 1.66411 12.8725C1.66411 12.8725 1.66411 12.8725 1.66411 12.8725C1.66411 12.8725 1.66411 12.8725 1.66411 12.8725C1.66411 12.8725 1.66411 12.8725 1.66411 12.8725C1.66411 12.8725 1.66411 12.8725 1.66411 12.8725C1.66411 12.8725 1.66411 12.8725 1.66411 12.8725C1.66411 12.8725 1.66411 12.8725 1.66411 12.8725C1.66411 12.8725 1.66411 12.8725 1.66411 12.8725C1.66411 12.8725 1.66411 12.8725 1.66411 12.8725C1.66411 12.8725 1.66411 12.8725 1.66411 12.8725C1.66411 12.8725 1.66411 12.8725 1.66411 12.8725C1.66411 12.8725 1.66411 12.8725 1.66411 12.8725C1.66411 12.8725 1.66411 12.8725 1.66411 12.8725C1.66411 12.8725 1.66411 12.8725 1.66411 12.8725C1.66411 12.8725 1.66411 12.8725 1.66411 12.8725C1.66411 12.8725 1.66411 12.8725 1.66411 12.8725C1.66411 12.8725 1.66411 12.8725 1.66411 12.8725C1.66411 12.8725 1.66411 12.8725 1.66411 12.8725C1.66411 12.8725 1.66411 12.8725 1.66411 12.8725C1.66411 12.8725 1.66411 12.8725 1.66411 12.8725C1.66411 12.8725 1.66411 12.8725 1.66411 12.8725C1.66411 12.8725 1.66411 12.8725 1.66411 12.8725C1.66411 12.8725 1.66411 12.8725 1.66411 12.8725C1.66411 12.8725 1.66411 12.8725 1.66411 12.8725C1.66411 12.8725 1.66411 12.8725 1.66411 12.8725C1.66411 12.8725 1.66411 12.8725 1.66411 12.8725C1.66411 12.8725 1.66411 12.8725 1.66411 12.8725C1.66411 12.8725 1.66411 12.8725 1.66411 12.8725C1.66411 12.8725 1.66411 12.8725 1.66411 12.8725C1.66411 12.8725 1.66411 12.8725 1.66411 12.8725C1.66411 12.8725 1.66411 12.8725 1.66411 12.8725C1.66411 12.8725 1.66411 12.8725 1.66411 12.8725C1.66411 12.8725 1.66411 12.8725 1.66411 12.8725C1.66411 12.8725 1.66411 12.8725 1.66411 12.8725C1.66411 12.8725 1.66411 12.8725 1.66411 12.8725C1.66411 12.8725 1.66411 12.8725 1.66411 12.8725C1.66411 12.8725 1.66411 12.8725 1.66411 12.8725C1.66411 12.8725 1.66411 12.8725 1.66411 12.8725C1.66411 12.8725 1.66411 12.8725 1.66411 12.8725C1.66411 12.8725 1.66411 12.8725 1.66411 12.8725C1.66411 12.8725 1.66411 12.8725 1.66411 12.8725C1.66411 12.8725 1.66411 12.8725 1.66411 12.8725C1.66411 12.8725 1.66411 12.8725 1.66411 12.8725C1.66411 12.8725 1.66411 12.8725 1.66411 12.8725C1.66411 12.8725 1.66411 12.8725 1.66411 12.8725C1.66411 12.8725 1.66411 12.8725 1.66411 12.8725C1.66411 12.8725 1.66411 12.8725 1.66411 12.8725C1.66411 12.8725 1.66411 12.8725 1.66411 12.8725C1.66411 12.8725 1.66411 12.8725 1.66411 12.8725C1.66411 12.8725 1.66411 12.8725 1.66411 12.8725C1.66411 12.8725 1.66411 12.8725 1.66411 12.8725C1.66411 12.8725 1.66411 12.8725 1.66411 12.8725C1.66411 12.8725 1.66411 12.8725 1.66411 12.8725C1.66411 12.8725 1.66411 12.8725 1.66411 12.8725C1.66411 12.8725 1.66411 12.8725 1.66411 12.8725C1.66411 12.8725 1.66411 12.8725 1.66411 12.8725C1.66411 12.8725 1.66411 12.8725 1.66411 12.8725C1.66411 12.8725 1.66412 12.8725 1.66412 12.8725C1.66412 12.8725 1.66412 12.8725 1.66412 12.8725C1.66412 12.8725 1.66412 12.8725 1.66412 12.8725C1.66412 12.8725 1.66412 12.8725 1.66412 12.8725C1.66412 12.8725 1.66412 12.8725 1.66412 12.8725C1.66412 12.8725 1.66412 12.8725 1.66412 12.8725C1.66412 12.8725 1.66412 12.8725 1.66412 12.8725C1.66412 12.8725 1.66412 12.8725 1.66412 12.8725C1.66412 12.8725 1.66412 12.8725 1.66412 12.8725C1.66412 12.8725 1.66412 12.8725 1.66412 12.8725C1.66412 12.8725 1.66412 12.8725 1.66412 12.8725C1.66412 12.8725 1.66412 12.8725 1.66412 12.8725C1.66412 12.8725 1.66412 12.8725 1.66412 12.8725C1.66412 12.8725 1.66412 12.8725 1.66412 12.8725C1.66412 12.8725 1.66412 12.8725 1.66412 12.8725C1.66412 12.8725 1.66412 12.8725 1.66412 12.8725C1.66412 12.8725 1.66412 12.8725 1.66412 12.8725C1.66412 12.8725 1.66412 12.8725 1.66412 12.8725C1.66412 12.8725 1.66412 12.8725 1.66412 12.8725C1.66412 12.8725 1.66412 12.8725 1.66412 12.8725C1.66412 12.8725 1.66412 12.8725 1.66412 12.8725C1.66412 12.8725 1.66412 12.8725 1.66412 12.8725C1.66412 12.8725 1.66412 12.8725 1.66412 12.8725C1.66412 12.8725 1.66412 12.8725 1.66412 12.8725C1.66412 12.8725 1.66412 12.8725 1.66412 12.8725C1.66412 12.8725 1.66412 12.8725 1.66412 12.8725C1.66412 12.8725 1.66412 12.8725 1.66412 12.8725C1.66412 12.8725 1.66412 12.8725 1.66412 12.8725C1.66412 12.8725 1.66412 12.8725 1.66412 12.8725C1.66412 12.8725 1.66412 12.8725 1.66412 12.8725C1.66412 12.8725 1.66412 12.8725 1.66412 12.8725C1.66412 12.8725 1.66412 12.8725 1.66412 12.8725C1.66412 12.8725 1.66412 12.8725 1.66412 12.8725C1.66412 12.8725 1.66412 12.8725 1.66412 12.8725C1.66412 12.8725 1.66412 12.8725 1.66412 12.8725C1.66412 12.8725 1.66412 12.8725 1.66412 12.8725C1.66412 12.8725 1.66412 12.8725 1.66412 12.8725C1.66412 12.8725 1.66412 12.8725 1.66412 12.8725C1.66412 12.8725 1.66412 12.8725 1.66412 12.8725C1.66412 12.8725 1.66412 12.8725 1.66412 12.8725C1.66412 12.8725 1.66412 12.8725 1.66412 12.8725C1.66412 12.8725 1.66412 12.8725 1.66412 12.8725C1.66412 12.8725 1.66412 12.8725 1.66412 12.8725C1.66412 12.8725 1.66412 12.8725 1.66412 12.8725C1.66412 12.8725 1.66412 12.8725 1.66412 12.8725C1.66412 12.8725 1.66412 12.8725 1.66412 12.8725C1.66412 12.8725 1.66412 12.8725 1.66412 12.8725C1.66412 12.8725 1.66412 12.8725 1.66412 12.8725C1.66412 12.8725 1.66412 12.8725 1.66412 12.8725C1.66412 12.8725 1.66412 12.8725 1.66412 12.8725C1.66412 12.8725 1.66412 12.8725 1.66412 12.8725C1.66412 12.8725 1.66412 12.8725 1.66412 12.8725C1.66412 12.8725 1.66412 12.8725 1.66412 12.8725C1.66412 12.8725 1.66412 12.8725 1.66412 12.8725C1.66412 12.8725 1.66412 12.8725 1.66412 12.8725C1.66412 12.8725 1.66412 12.8725 1.66412 12.8725C1.66412 12.8725 1.66412 12.8725 1.66412 12.8725C1.66412 12.8725 1.66412 12.8725 1.66412 12.8725C1.66412 12.8725 1.66412 12.8725 1.66412 12.8725C1.66412 12.8725 1.66412 12.8725 1.66413 12.8725C1.66413 12.8725 1.66413 12.8725 1.66413 12.8725C1.66413 12.8725 1.66413 12.8725 1.66413 12.8725C1.66413 12.8725 1.66413 12.8725 1.66413 12.8725C1.66413 12.8725 1.66413 12.8725 1.66413 12.8725C1.66413 12.8725 1.66413 12.8725 1.66413 12.8725C1.66413 12.8725 1.66413 12.8725 1.66413 12.8725C1.66413 12.8725 1.66413 12.8725 1.66413 12.8725C1.66413 12.8725 1.66413 12.8725 1.66413 12.8725C1.66413 12.8725 1.66413 12.8725 1.66413 12.8725C1.66413 12.8725 1.66413 12.8725 1.66413 12.8725C1.66413 12.8725 1.66413 12.8725 1.66413 12.8725C1.66413 12.8725 1.66413 12.8725 1.66413 12.8725C1.66413 12.8725 1.66413 12.8725 1.66413 12.8725C1.66413 12.8725 1.66413 12.8725 1.66413 12.8725C1.66413 12.8725 1.66413 12.8725 1.66413 12.8725C1.66413 12.8725 1.66413 12.8725 1.66413 12.8725C1.66413 12.8725 1.66413 12.8725 1.66413 12.8725C1.66413 12.8725 1.66413 12.8725 1.66413 12.8725C1.66413 12.8725 1.66413 12.8725 1.66413 12.8725C1.66413 12.8725 1.66413 12.8725 1.66413 12.8725C1.66413 12.8725 1.66413 12.8725 1.66413 12.8725C1.66413 12.8725 1.66413 12.8725 1.66413 12.8725C1.66413 12.8725 1.66413 12.8725 1.66413 12.8725C1.66413 12.8725 1.66413 12.8725 1.66413 12.8725C1.66413 12.8725 1.66413 12.8725 1.66413 12.8725C1.66413 12.8725 1.66413 12.8725 1.66413 12.8725C1.66413 12.8725 1.66413 12.8725 1.66413 12.8725C1.66413 12.8725 1.66413 12.8725 1.66413 12.8725C1.66413 12.8725 1.66413 12.8725 1.66413 12.8725C1.66413 12.8725 1.66413 12.8725 1.66413 12.8725C1.66413 12.8725 1.66413 12.8725 1.66413 12.8725C1.66413 12.8725 1.66413 12.8725 1.66413 12.8725C1.66413 12.8725 1.66413 12.8725 1.66413 12.8725C1.66413 12.8725 1.66413 12.8725 1.66413 12.8725C1.66413 12.8725 1.66413 12.8725 1.66413 12.8725C1.66413 12.8725 1.66413 12.8725 1.66413 12.8725C1.66413 12.8725 1.66413 12.8725 1.66413 12.8725C1.66413 12.8725 1.66413 12.8725 1.66413 12.8725C1.66413 12.8725 1.66413 12.8725 1.66413 12.8725C1.66413 12.8725 1.66413 12.8725 1.66413 12.8725C1.66413 12.8725 1.66413 12.8725 1.66413 12.8725C1.66413 12.8725 1.66413 12.8725 1.66413 12.8725C1.66413 12.8725 1.66413 12.8725 1.66413 12.8725C1.66413 12.8725 1.66413 12.8725 1.66413 12.8725C1.66413 12.8725 1.66413 12.8725 1.66413 12.8725C1.66413 12.8725 1.66413 12.8725 1.66413 12.8725C1.66413 12.8725 1.66413 12.8725 1.66413 12.8725C1.66413 12.8725 1.66413 12.8725 1.66413 12.8725C1.66413 12.8725 1.66413 12.8725 1.66413 12.8725C1.66413 12.8725 1.66413 12.8725 1.66413 12.8725C1.66413 12.8725 1.66413 12.8725 1.66413 12.8725C1.66413 12.8725 1.66413 12.8725 1.66413 12.8725C1.66413 12.8725 1.66413 12.8725 1.66413 12.8725C1.66413 12.8725 1.66413 12.8725 1.66413 12.8725C1.66413 12.8725 1.66413 12.8725 1.66413 12.8725C1.66413 12.8725 1.66413 12.8725 1.66413 12.8725C1.66413 12.8725 1.66413 12.8725 1.66413 12.8725C1.66413 12.8725 1.66413 12.8725 1.66413 12.8725C1.66413 12.8725 1.66413 12.8725 1.66414 12.8725C1.66414 12.8725 1.66414 12.8725 1.66414 12.8725C1.66414 12.8725 1.66414 12.8725 1.66414 12.8725C1.66414 12.8725 1.66414 12.8725 1.66414 12.8725C1.66414 12.8725 1.66414 12.8725 1.66414 12.8725C1.66414 12.8725 1.66414 12.8725 1.66414 12.8725C1.66414 12.8725 1.66414 12.8725 1.66414 12.8725C1.66414 12.8725 1.66414 12.8725 1.66414 12.8725C1.66414 12.8725 1.66414 12.8725 1.66414 12.8725C1.66414 12.8725 1.66414 12.8725 1.66414 12.8725C1.66414 12.8725 1.66414 12.8725 1.66414 12.8725C1.66414 12.8725 1.66414 12.8725 1.66414 12.8725C1.66414 12.8725 1.66414 12.8725 1.66414 12.8725C1.66414 12.8725 1.66414 12.8725 1.66414 12.8725C1.66414 12.8725 1.66414 12.8725 1.66414 12.8725C1.66414 12.8725 1.66414 12.8725 1.66414 12.8725C1.66414 12.8725 1.66414 12.8725 1.66414 12.8725C1.66414 12.8725 1.66414 12.8725 1.66414 12.8725C1.66414 12.8725 1.66414 12.8725 1.66414 12.8725C1.66414 12.8725 1.66414 12.8725 1.66414 12.8725C1.66414 12.8725 1.66414 12.8725 1.66414 12.8725C1.66414 12.8725 1.66414 12.8725 1.66414 12.8725C1.66414 12.8725 1.66414 12.8725 1.66414 12.8725C1.66414 12.8725 1.66414 12.8725 1.66414 12.8725C1.66414 12.8725 1.66414 12.8725 1.66414 12.8725C1.66414 12.8725 1.66414 12.8725 1.66414 12.8725C1.66414 12.8725 1.66414 12.8725 1.66414 12.8725C1.66414 12.8725 1.66414 12.8725 1.66414 12.8725C1.66414 12.8725 1.66414 12.8725 1.66414 12.8725C1.66414 12.8725 1.66414 12.8725 1.66414 12.8725C1.66414 12.8725 1.66414 12.8725 1.66414 12.8725C1.66414 12.8725 1.66414 12.8725 1.66414 12.8725C1.66414 12.8725 1.66414 12.8725 1.66414 12.8725C1.66414 12.8725 1.66414 12.8725 1.66414 12.8725C1.66414 12.8725 1.66414 12.8725 1.66414 12.8725C1.66414 12.8725 1.66414 12.8725 1.66414 12.8725C1.66414 12.8725 1.66414 12.8725 1.66414 12.8725C1.66414 12.8725 1.66414 12.8725 1.66414 12.8725C1.66414 12.8725 1.66414 12.8725 1.66414 12.8725C1.66414 12.8725 1.66414 12.8725 1.66414 12.8725C1.66414 12.8725 1.66414 12.8725 1.66414 12.8725C1.66414 12.8725 1.66414 12.8725 1.66414 12.8725C1.66414 12.8725 1.66414 12.8725 1.66414 12.8725C1.66414 12.8725 1.66414 12.8725 1.66414 12.8725C1.66414 12.8725 1.66414 12.8725 1.66414 12.8725C1.66414 12.8725 1.66414 12.8725 1.66414 12.8725C1.66414 12.8725 1.66414 12.8725 1.66414 12.8725C1.66414 12.8725 1.66414 12.8725 1.66414 12.8725C1.66414 12.8725 1.66414 12.8725 1.66414 12.8725C1.66414 12.8725 1.66414 12.8725 1.66414 12.8725C1.66414 12.8725 1.66414 12.8725 1.66414 12.8725C1.66414 12.8725 1.66414 12.8725 1.66414 12.8725C1.66414 12.8725 1.66414 12.8725 1.66414 12.8725C1.66414 12.8725 1.66414 12.8725 1.66414 12.8725C1.66414 12.8725 1.66414 12.8725 1.66414 12.8725C1.66414 12.8725 1.66414 12.8725 1.66414 12.8725C1.66414 12.8725 1.66414 12.8725 1.66414 12.8725C1.66414 12.8725 1.66414 12.8725 1.66414 12.8725C1.66414 12.8725 1.66414 12.8725 1.66414 12.8725C1.66414 12.8725 1.66414 12.8725 1.66414 12.8725C1.66415 12.8725 1.66415 12.8725 1.66415 12.8725C1.66415 12.8725 1.66415 12.8725 1.66415 12.8725C1.66415 12.8725 1.66415 12.8725 1.66415 12.8725C1.66415 12.8725 1.66415 12.8725 1.66415 12.8725C1.66415 12.8725 1.66415 12.8725 1.66415 12.8725C1.66415 12.8725 1.66415 12.8725 1.66415 12.8725C1.66415 12.8725 1.66415 12.8725 1.66415 12.8725C1.66415 12.8725 1.66415 12.8725 1.66415 12.8725C1.66415 12.8725 1.66415 12.8725 1.66415 12.8725C1.66415 12.8725 1.66415 12.8725 1.66415 12.8725C1.66415 12.8725 1.66415 12.8725 1.66415 12.8725C1.66415 12.8725 1.66415 12.8725 1.66415 12.8725C1.66415 12.8725 1.66415 12.8725 1.66415 12.8725C1.66415 12.8725 1.66415 12.8725 1.66415 12.8725C1.66415 12.8725 1.66415 12.8725 1.66415 12.8725C1.66415 12.8725 1.66415 12.8725 1.66415 12.8725C1.66415 12.8725 1.66415 12.8725 1.66415 12.8725C1.66415 12.8725 1.66415 12.8725 1.66415 12.8725C1.66415 12.8725 1.66415 12.8725 1.66415 12.8725C1.66415 12.8725 1.66415 12.8725 1.66415 12.8725C1.66415 12.8725 1.66415 12.8725 1.66415 12.8725C1.66415 12.8725 1.66415 12.8725 1.66415 12.8725C1.66415 12.8725 1.66415 12.8725 1.66415 12.8725C1.66415 12.8725 1.66415 12.8725 1.66415 12.8725V11.5725ZM3.13264 10.104C3.13264 10.915 2.47518 11.5725 1.66415 11.5725V12.8725C3.19315 12.8725 4.43264 11.633 4.43264 10.104H3.13264ZM1.66415 8.63547C2.47518 8.63547 3.13264 9.29294 3.13264 10.104H4.43264C4.43264 8.57497 3.19315 7.33547 1.66415 7.33547V8.63547ZM1.66406 8.63547C1.66406 8.63547 1.66406 8.63547 1.66406 8.63547C1.66406 8.63547 1.66406 8.63547 1.66406 8.63547C1.66406 8.63547 1.66406 8.63547 1.66406 8.63547C1.66406 8.63547 1.66406 8.63547 1.66406 8.63547C1.66406 8.63547 1.66406 8.63547 1.66406 8.63547C1.66406 8.63547 1.66406 8.63547 1.66406 8.63547C1.66406 8.63547 1.66406 8.63547 1.66406 8.63547C1.66406 8.63547 1.66406 8.63547 1.66406 8.63547C1.66406 8.63547 1.66406 8.63547 1.66406 8.63547C1.66406 8.63547 1.66406 8.63547 1.66406 8.63547C1.66406 8.63547 1.66406 8.63547 1.66406 8.63547C1.66406 8.63547 1.66406 8.63547 1.66406 8.63547C1.66406 8.63547 1.66406 8.63547 1.66406 8.63547C1.66406 8.63547 1.66406 8.63547 1.66406 8.63547C1.66406 8.63547 1.66406 8.63547 1.66407 8.63547C1.66407 8.63547 1.66407 8.63547 1.66407 8.63547C1.66407 8.63547 1.66407 8.63547 1.66407 8.63547C1.66407 8.63547 1.66407 8.63547 1.66407 8.63547C1.66407 8.63547 1.66407 8.63547 1.66407 8.63547C1.66407 8.63547 1.66407 8.63547 1.66407 8.63547C1.66407 8.63547 1.66407 8.63547 1.66407 8.63547C1.66407 8.63547 1.66407 8.63547 1.66407 8.63547C1.66407 8.63547 1.66407 8.63547 1.66407 8.63547C1.66407 8.63547 1.66407 8.63547 1.66407 8.63547C1.66407 8.63547 1.66407 8.63547 1.66407 8.63547C1.66407 8.63547 1.66407 8.63547 1.66407 8.63547C1.66407 8.63547 1.66407 8.63547 1.66407 8.63547C1.66407 8.63547 1.66407 8.63547 1.66407 8.63547C1.66407 8.63547 1.66407 8.63547 1.66407 8.63547C1.66407 8.63547 1.66407 8.63547 1.66407 8.63547C1.66407 8.63547 1.66407 8.63547 1.66407 8.63547C1.66407 8.63547 1.66407 8.63547 1.66407 8.63547C1.66407 8.63547 1.66407 8.63547 1.66407 8.63547C1.66407 8.63547 1.66407 8.63547 1.66407 8.63547C1.66407 8.63547 1.66407 8.63547 1.66407 8.63547C1.66407 8.63547 1.66407 8.63547 1.66407 8.63547C1.66407 8.63547 1.66407 8.63547 1.66407 8.63547C1.66407 8.63547 1.66407 8.63547 1.66407 8.63547C1.66407 8.63547 1.66407 8.63547 1.66407 8.63547C1.66407 8.63547 1.66407 8.63547 1.66407 8.63547C1.66407 8.63547 1.66407 8.63547 1.66407 8.63547C1.66407 8.63547 1.66407 8.63547 1.66407 8.63547C1.66407 8.63547 1.66407 8.63547 1.66407 8.63547C1.66407 8.63547 1.66407 8.63547 1.66407 8.63547C1.66407 8.63547 1.66407 8.63547 1.66407 8.63547C1.66407 8.63547 1.66407 8.63547 1.66407 8.63547C1.66407 8.63547 1.66407 8.63547 1.66407 8.63547C1.66407 8.63547 1.66407 8.63547 1.66407 8.63547C1.66407 8.63547 1.66407 8.63547 1.66407 8.63547C1.66407 8.63547 1.66407 8.63547 1.66407 8.63547C1.66407 8.63547 1.66407 8.63547 1.66407 8.63547C1.66407 8.63547 1.66407 8.63547 1.66407 8.63547C1.66407 8.63547 1.66407 8.63547 1.66407 8.63547C1.66407 8.63547 1.66407 8.63547 1.66407 8.63547C1.66407 8.63547 1.66407 8.63547 1.66407 8.63547C1.66407 8.63547 1.66407 8.63547 1.66407 8.63547C1.66407 8.63547 1.66407 8.63547 1.66407 8.63547C1.66407 8.63547 1.66407 8.63547 1.66407 8.63547C1.66407 8.63547 1.66407 8.63547 1.66407 8.63547C1.66407 8.63547 1.66407 8.63547 1.66407 8.63547C1.66407 8.63547 1.66407 8.63547 1.66407 8.63547C1.66407 8.63547 1.66407 8.63547 1.66407 8.63547C1.66407 8.63547 1.66407 8.63547 1.66407 8.63547C1.66407 8.63547 1.66407 8.63547 1.66407 8.63547C1.66407 8.63547 1.66407 8.63547 1.66407 8.63547C1.66407 8.63547 1.66407 8.63547 1.66407 8.63547C1.66407 8.63547 1.66407 8.63547 1.66407 8.63547C1.66407 8.63547 1.66407 8.63547 1.66407 8.63547C1.66407 8.63547 1.66407 8.63547 1.66407 8.63547C1.66407 8.63547 1.66407 8.63547 1.66407 8.63547C1.66407 8.63547 1.66407 8.63547 1.66407 8.63547C1.66407 8.63547 1.66407 8.63547 1.66407 8.63547C1.66407 8.63547 1.66407 8.63547 1.66407 8.63547C1.66407 8.63547 1.66407 8.63547 1.66408 8.63547C1.66408 8.63547 1.66408 8.63547 1.66408 8.63547C1.66408 8.63547 1.66408 8.63547 1.66408 8.63547C1.66408 8.63547 1.66408 8.63547 1.66408 8.63547C1.66408 8.63547 1.66408 8.63547 1.66408 8.63547C1.66408 8.63547 1.66408 8.63547 1.66408 8.63547C1.66408 8.63547 1.66408 8.63547 1.66408 8.63547C1.66408 8.63547 1.66408 8.63547 1.66408 8.63547C1.66408 8.63547 1.66408 8.63547 1.66408 8.63547C1.66408 8.63547 1.66408 8.63547 1.66408 8.63547C1.66408 8.63547 1.66408 8.63547 1.66408 8.63547C1.66408 8.63547 1.66408 8.63547 1.66408 8.63547C1.66408 8.63547 1.66408 8.63547 1.66408 8.63547C1.66408 8.63547 1.66408 8.63547 1.66408 8.63547C1.66408 8.63547 1.66408 8.63547 1.66408 8.63547C1.66408 8.63547 1.66408 8.63547 1.66408 8.63547C1.66408 8.63547 1.66408 8.63547 1.66408 8.63547C1.66408 8.63547 1.66408 8.63547 1.66408 8.63547C1.66408 8.63547 1.66408 8.63547 1.66408 8.63547C1.66408 8.63547 1.66408 8.63547 1.66408 8.63547C1.66408 8.63547 1.66408 8.63547 1.66408 8.63547C1.66408 8.63547 1.66408 8.63547 1.66408 8.63547C1.66408 8.63547 1.66408 8.63547 1.66408 8.63547C1.66408 8.63547 1.66408 8.63547 1.66408 8.63547C1.66408 8.63547 1.66408 8.63547 1.66408 8.63547C1.66408 8.63547 1.66408 8.63547 1.66408 8.63547C1.66408 8.63547 1.66408 8.63547 1.66408 8.63547C1.66408 8.63547 1.66408 8.63547 1.66408 8.63547C1.66408 8.63547 1.66408 8.63547 1.66408 8.63547C1.66408 8.63547 1.66408 8.63547 1.66408 8.63547C1.66408 8.63547 1.66408 8.63547 1.66408 8.63547C1.66408 8.63547 1.66408 8.63547 1.66408 8.63547C1.66408 8.63547 1.66408 8.63547 1.66408 8.63547C1.66408 8.63547 1.66408 8.63547 1.66408 8.63547C1.66408 8.63547 1.66408 8.63547 1.66408 8.63547C1.66408 8.63547 1.66408 8.63547 1.66408 8.63547C1.66408 8.63547 1.66408 8.63547 1.66408 8.63547C1.66408 8.63547 1.66408 8.63547 1.66408 8.63547C1.66408 8.63547 1.66408 8.63547 1.66408 8.63547C1.66408 8.63547 1.66408 8.63547 1.66408 8.63547C1.66408 8.63547 1.66408 8.63547 1.66408 8.63547C1.66408 8.63547 1.66408 8.63547 1.66408 8.63547C1.66408 8.63547 1.66408 8.63547 1.66408 8.63547C1.66408 8.63547 1.66408 8.63547 1.66408 8.63547C1.66408 8.63547 1.66408 8.63547 1.66408 8.63547C1.66408 8.63547 1.66408 8.63547 1.66408 8.63547C1.66408 8.63547 1.66408 8.63547 1.66408 8.63547C1.66408 8.63547 1.66408 8.63547 1.66408 8.63547C1.66408 8.63547 1.66408 8.63547 1.66408 8.63547C1.66408 8.63547 1.66408 8.63547 1.66408 8.63547C1.66408 8.63547 1.66408 8.63547 1.66408 8.63547C1.66408 8.63547 1.66408 8.63547 1.66408 8.63547C1.66408 8.63547 1.66408 8.63547 1.66408 8.63547C1.66408 8.63547 1.66408 8.63547 1.66408 8.63547C1.66408 8.63547 1.66408 8.63547 1.66408 8.63547C1.66408 8.63547 1.66408 8.63547 1.66408 8.63547C1.66408 8.63547 1.66408 8.63547 1.66408 8.63547C1.66408 8.63547 1.66408 8.63547 1.66408 8.63547C1.66408 8.63547 1.66408 8.63547 1.66408 8.63547C1.66408 8.63547 1.66408 8.63547 1.66408 8.63547C1.66409 8.63547 1.66409 8.63547 1.66409 8.63547C1.66409 8.63547 1.66409 8.63547 1.66409 8.63547C1.66409 8.63547 1.66409 8.63547 1.66409 8.63547C1.66409 8.63547 1.66409 8.63547 1.66409 8.63547C1.66409 8.63547 1.66409 8.63547 1.66409 8.63547C1.66409 8.63547 1.66409 8.63547 1.66409 8.63547C1.66409 8.63547 1.66409 8.63547 1.66409 8.63547C1.66409 8.63547 1.66409 8.63547 1.66409 8.63547C1.66409 8.63547 1.66409 8.63547 1.66409 8.63547C1.66409 8.63547 1.66409 8.63547 1.66409 8.63547C1.66409 8.63547 1.66409 8.63547 1.66409 8.63547C1.66409 8.63547 1.66409 8.63547 1.66409 8.63547C1.66409 8.63547 1.66409 8.63547 1.66409 8.63547C1.66409 8.63547 1.66409 8.63547 1.66409 8.63547C1.66409 8.63547 1.66409 8.63547 1.66409 8.63547C1.66409 8.63547 1.66409 8.63547 1.66409 8.63547C1.66409 8.63547 1.66409 8.63547 1.66409 8.63547C1.66409 8.63547 1.66409 8.63547 1.66409 8.63547C1.66409 8.63547 1.66409 8.63547 1.66409 8.63547C1.66409 8.63547 1.66409 8.63547 1.66409 8.63547C1.66409 8.63547 1.66409 8.63547 1.66409 8.63547C1.66409 8.63547 1.66409 8.63547 1.66409 8.63547C1.66409 8.63547 1.66409 8.63547 1.66409 8.63547C1.66409 8.63547 1.66409 8.63547 1.66409 8.63547C1.66409 8.63547 1.66409 8.63547 1.66409 8.63547C1.66409 8.63547 1.66409 8.63547 1.66409 8.63547C1.66409 8.63547 1.66409 8.63547 1.66409 8.63547C1.66409 8.63547 1.66409 8.63547 1.66409 8.63547C1.66409 8.63547 1.66409 8.63547 1.66409 8.63547C1.66409 8.63547 1.66409 8.63547 1.66409 8.63547C1.66409 8.63547 1.66409 8.63547 1.66409 8.63547C1.66409 8.63547 1.66409 8.63547 1.66409 8.63547C1.66409 8.63547 1.66409 8.63547 1.66409 8.63547C1.66409 8.63547 1.66409 8.63547 1.66409 8.63547C1.66409 8.63547 1.66409 8.63547 1.66409 8.63547C1.66409 8.63547 1.66409 8.63547 1.66409 8.63547C1.66409 8.63547 1.66409 8.63547 1.66409 8.63547C1.66409 8.63547 1.66409 8.63547 1.66409 8.63547C1.66409 8.63547 1.66409 8.63547 1.66409 8.63547C1.66409 8.63547 1.66409 8.63547 1.66409 8.63547C1.66409 8.63547 1.66409 8.63547 1.66409 8.63547C1.66409 8.63547 1.66409 8.63547 1.66409 8.63547C1.66409 8.63547 1.66409 8.63547 1.66409 8.63547C1.66409 8.63547 1.66409 8.63547 1.66409 8.63547C1.66409 8.63547 1.66409 8.63547 1.66409 8.63547C1.66409 8.63547 1.66409 8.63547 1.66409 8.63547C1.66409 8.63547 1.66409 8.63547 1.66409 8.63547C1.66409 8.63547 1.66409 8.63547 1.66409 8.63547C1.66409 8.63547 1.66409 8.63547 1.66409 8.63547C1.66409 8.63547 1.66409 8.63547 1.66409 8.63547C1.66409 8.63547 1.66409 8.63547 1.66409 8.63547C1.66409 8.63547 1.66409 8.63547 1.66409 8.63547C1.66409 8.63547 1.66409 8.63547 1.66409 8.63547C1.66409 8.63547 1.66409 8.63547 1.66409 8.63547C1.66409 8.63547 1.66409 8.63547 1.66409 8.63547C1.66409 8.63547 1.66409 8.63547 1.66409 8.63547C1.66409 8.63547 1.66409 8.63547 1.66409 8.63547C1.66409 8.63547 1.66409 8.63547 1.66409 8.63547C1.66409 8.63547 1.66409 8.63547 1.66409 8.63547C1.6641 8.63547 1.6641 8.63547 1.6641 8.63547C1.6641 8.63547 1.6641 8.63547 1.6641 8.63547C1.6641 8.63547 1.6641 8.63547 1.6641 8.63547C1.6641 8.63547 1.6641 8.63547 1.6641 8.63547C1.6641 8.63547 1.6641 8.63547 1.6641 8.63547C1.6641 8.63547 1.6641 8.63547 1.6641 8.63547C1.6641 8.63547 1.6641 8.63547 1.6641 8.63547C1.6641 8.63547 1.6641 8.63547 1.6641 8.63547C1.6641 8.63547 1.6641 8.63547 1.6641 8.63547C1.6641 8.63547 1.6641 8.63547 1.6641 8.63547C1.6641 8.63547 1.6641 8.63547 1.6641 8.63547C1.6641 8.63547 1.6641 8.63547 1.6641 8.63547C1.6641 8.63547 1.6641 8.63547 1.6641 8.63547C1.6641 8.63547 1.6641 8.63547 1.6641 8.63547C1.6641 8.63547 1.6641 8.63547 1.6641 8.63547C1.6641 8.63547 1.6641 8.63547 1.6641 8.63547C1.6641 8.63547 1.6641 8.63547 1.6641 8.63547C1.6641 8.63547 1.6641 8.63547 1.6641 8.63547C1.6641 8.63547 1.6641 8.63547 1.6641 8.63547C1.6641 8.63547 1.6641 8.63547 1.6641 8.63547C1.6641 8.63547 1.6641 8.63547 1.6641 8.63547C1.6641 8.63547 1.6641 8.63547 1.6641 8.63547C1.6641 8.63547 1.6641 8.63547 1.6641 8.63547C1.6641 8.63547 1.6641 8.63547 1.6641 8.63547C1.6641 8.63547 1.6641 8.63547 1.6641 8.63547C1.6641 8.63547 1.6641 8.63547 1.6641 8.63547C1.6641 8.63547 1.6641 8.63547 1.6641 8.63547C1.6641 8.63547 1.6641 8.63547 1.6641 8.63547C1.6641 8.63547 1.6641 8.63547 1.6641 8.63547C1.6641 8.63547 1.6641 8.63547 1.6641 8.63547C1.6641 8.63547 1.6641 8.63547 1.6641 8.63547C1.6641 8.63547 1.6641 8.63547 1.6641 8.63547C1.6641 8.63547 1.6641 8.63547 1.6641 8.63547C1.6641 8.63547 1.6641 8.63547 1.6641 8.63547C1.6641 8.63547 1.6641 8.63547 1.6641 8.63547C1.6641 8.63547 1.6641 8.63547 1.6641 8.63547C1.6641 8.63547 1.6641 8.63547 1.6641 8.63547C1.6641 8.63547 1.6641 8.63547 1.6641 8.63547C1.6641 8.63547 1.6641 8.63547 1.6641 8.63547C1.6641 8.63547 1.6641 8.63547 1.6641 8.63547C1.6641 8.63547 1.6641 8.63547 1.6641 8.63547C1.6641 8.63547 1.6641 8.63547 1.6641 8.63547C1.6641 8.63547 1.6641 8.63547 1.6641 8.63547C1.6641 8.63547 1.6641 8.63547 1.6641 8.63547C1.6641 8.63547 1.6641 8.63547 1.6641 8.63547C1.6641 8.63547 1.6641 8.63547 1.6641 8.63547C1.6641 8.63547 1.6641 8.63547 1.6641 8.63547C1.6641 8.63547 1.6641 8.63547 1.6641 8.63547C1.6641 8.63547 1.6641 8.63547 1.6641 8.63547C1.6641 8.63547 1.6641 8.63547 1.6641 8.63547C1.6641 8.63547 1.6641 8.63547 1.6641 8.63547C1.6641 8.63547 1.6641 8.63547 1.6641 8.63547C1.6641 8.63547 1.6641 8.63547 1.6641 8.63547C1.6641 8.63547 1.6641 8.63547 1.6641 8.63547C1.6641 8.63547 1.6641 8.63547 1.6641 8.63547C1.6641 8.63547 1.6641 8.63547 1.6641 8.63547C1.6641 8.63547 1.6641 8.63547 1.6641 8.63547C1.6641 8.63547 1.6641 8.63547 1.6641 8.63547C1.6641 8.63547 1.6641 8.63547 1.6641 8.63547C1.6641 8.63547 1.66411 8.63547 1.66411 8.63547C1.66411 8.63547 1.66411 8.63547 1.66411 8.63547C1.66411 8.63547 1.66411 8.63547 1.66411 8.63547C1.66411 8.63547 1.66411 8.63547 1.66411 8.63547C1.66411 8.63547 1.66411 8.63547 1.66411 8.63547C1.66411 8.63547 1.66411 8.63547 1.66411 8.63547C1.66411 8.63547 1.66411 8.63547 1.66411 8.63547C1.66411 8.63547 1.66411 8.63547 1.66411 8.63547C1.66411 8.63547 1.66411 8.63547 1.66411 8.63547C1.66411 8.63547 1.66411 8.63547 1.66411 8.63547C1.66411 8.63547 1.66411 8.63547 1.66411 8.63547C1.66411 8.63547 1.66411 8.63547 1.66411 8.63547C1.66411 8.63547 1.66411 8.63547 1.66411 8.63547C1.66411 8.63547 1.66411 8.63547 1.66411 8.63547C1.66411 8.63547 1.66411 8.63547 1.66411 8.63547C1.66411 8.63547 1.66411 8.63547 1.66411 8.63547C1.66411 8.63547 1.66411 8.63547 1.66411 8.63547C1.66411 8.63547 1.66411 8.63547 1.66411 8.63547C1.66411 8.63547 1.66411 8.63547 1.66411 8.63547C1.66411 8.63547 1.66411 8.63547 1.66411 8.63547C1.66411 8.63547 1.66411 8.63547 1.66411 8.63547C1.66411 8.63547 1.66411 8.63547 1.66411 8.63547C1.66411 8.63547 1.66411 8.63547 1.66411 8.63547C1.66411 8.63547 1.66411 8.63547 1.66411 8.63547C1.66411 8.63547 1.66411 8.63547 1.66411 8.63547C1.66411 8.63547 1.66411 8.63547 1.66411 8.63547C1.66411 8.63547 1.66411 8.63547 1.66411 8.63547C1.66411 8.63547 1.66411 8.63547 1.66411 8.63547C1.66411 8.63547 1.66411 8.63547 1.66411 8.63547C1.66411 8.63547 1.66411 8.63547 1.66411 8.63547C1.66411 8.63547 1.66411 8.63547 1.66411 8.63547C1.66411 8.63547 1.66411 8.63547 1.66411 8.63547C1.66411 8.63547 1.66411 8.63547 1.66411 8.63547C1.66411 8.63547 1.66411 8.63547 1.66411 8.63547C1.66411 8.63547 1.66411 8.63547 1.66411 8.63547C1.66411 8.63547 1.66411 8.63547 1.66411 8.63547C1.66411 8.63547 1.66411 8.63547 1.66411 8.63547C1.66411 8.63547 1.66411 8.63547 1.66411 8.63547C1.66411 8.63547 1.66411 8.63547 1.66411 8.63547C1.66411 8.63547 1.66411 8.63547 1.66411 8.63547C1.66411 8.63547 1.66411 8.63547 1.66411 8.63547C1.66411 8.63547 1.66411 8.63547 1.66411 8.63547C1.66411 8.63547 1.66411 8.63547 1.66411 8.63547C1.66411 8.63547 1.66411 8.63547 1.66411 8.63547C1.66411 8.63547 1.66411 8.63547 1.66411 8.63547C1.66411 8.63547 1.66411 8.63547 1.66411 8.63547C1.66411 8.63547 1.66411 8.63547 1.66411 8.63547C1.66411 8.63547 1.66411 8.63547 1.66411 8.63547C1.66411 8.63547 1.66411 8.63547 1.66411 8.63547C1.66411 8.63547 1.66411 8.63547 1.66411 8.63547C1.66411 8.63547 1.66411 8.63547 1.66411 8.63547C1.66411 8.63547 1.66411 8.63547 1.66411 8.63547C1.66411 8.63547 1.66411 8.63547 1.66411 8.63547C1.66411 8.63547 1.66411 8.63547 1.66411 8.63547C1.66411 8.63547 1.66411 8.63547 1.66411 8.63547C1.66411 8.63547 1.66411 8.63547 1.66411 8.63547C1.66411 8.63547 1.66411 8.63547 1.66411 8.63547C1.66411 8.63547 1.66411 8.63547 1.66411 8.63547C1.66411 8.63547 1.66411 8.63547 1.66411 8.63547C1.66411 8.63547 1.66412 8.63547 1.66412 8.63547C1.66412 8.63547 1.66412 8.63547 1.66412 8.63547C1.66412 8.63547 1.66412 8.63547 1.66412 8.63547C1.66412 8.63547 1.66412 8.63547 1.66412 8.63547C1.66412 8.63547 1.66412 8.63547 1.66412 8.63547C1.66412 8.63547 1.66412 8.63547 1.66412 8.63547C1.66412 8.63547 1.66412 8.63547 1.66412 8.63547C1.66412 8.63547 1.66412 8.63547 1.66412 8.63547C1.66412 8.63547 1.66412 8.63547 1.66412 8.63547C1.66412 8.63547 1.66412 8.63547 1.66412 8.63547C1.66412 8.63547 1.66412 8.63547 1.66412 8.63547C1.66412 8.63547 1.66412 8.63547 1.66412 8.63547C1.66412 8.63547 1.66412 8.63547 1.66412 8.63547C1.66412 8.63547 1.66412 8.63547 1.66412 8.63547C1.66412 8.63547 1.66412 8.63547 1.66412 8.63547C1.66412 8.63547 1.66412 8.63547 1.66412 8.63547C1.66412 8.63547 1.66412 8.63547 1.66412 8.63547C1.66412 8.63547 1.66412 8.63547 1.66412 8.63547C1.66412 8.63547 1.66412 8.63547 1.66412 8.63547C1.66412 8.63547 1.66412 8.63547 1.66412 8.63547C1.66412 8.63547 1.66412 8.63547 1.66412 8.63547C1.66412 8.63547 1.66412 8.63547 1.66412 8.63547C1.66412 8.63547 1.66412 8.63547 1.66412 8.63547C1.66412 8.63547 1.66412 8.63547 1.66412 8.63547C1.66412 8.63547 1.66412 8.63547 1.66412 8.63547C1.66412 8.63547 1.66412 8.63547 1.66412 8.63547C1.66412 8.63547 1.66412 8.63547 1.66412 8.63547C1.66412 8.63547 1.66412 8.63547 1.66412 8.63547C1.66412 8.63547 1.66412 8.63547 1.66412 8.63547C1.66412 8.63547 1.66412 8.63547 1.66412 8.63547C1.66412 8.63547 1.66412 8.63547 1.66412 8.63547C1.66412 8.63547 1.66412 8.63547 1.66412 8.63547C1.66412 8.63547 1.66412 8.63547 1.66412 8.63547C1.66412 8.63547 1.66412 8.63547 1.66412 8.63547C1.66412 8.63547 1.66412 8.63547 1.66412 8.63547C1.66412 8.63547 1.66412 8.63547 1.66412 8.63547C1.66412 8.63547 1.66412 8.63547 1.66412 8.63547C1.66412 8.63547 1.66412 8.63547 1.66412 8.63547C1.66412 8.63547 1.66412 8.63547 1.66412 8.63547C1.66412 8.63547 1.66412 8.63547 1.66412 8.63547C1.66412 8.63547 1.66412 8.63547 1.66412 8.63547C1.66412 8.63547 1.66412 8.63547 1.66412 8.63547C1.66412 8.63547 1.66412 8.63547 1.66412 8.63547C1.66412 8.63547 1.66412 8.63547 1.66412 8.63547C1.66412 8.63547 1.66412 8.63547 1.66412 8.63547C1.66412 8.63547 1.66412 8.63547 1.66412 8.63547C1.66412 8.63547 1.66412 8.63547 1.66412 8.63547C1.66412 8.63547 1.66412 8.63547 1.66412 8.63547C1.66412 8.63547 1.66412 8.63547 1.66412 8.63547C1.66412 8.63547 1.66412 8.63547 1.66412 8.63547C1.66412 8.63547 1.66412 8.63547 1.66412 8.63547C1.66412 8.63547 1.66412 8.63547 1.66412 8.63547C1.66412 8.63547 1.66412 8.63547 1.66412 8.63547C1.66412 8.63547 1.66412 8.63547 1.66412 8.63547C1.66412 8.63547 1.66412 8.63547 1.66412 8.63547C1.66412 8.63547 1.66412 8.63547 1.66412 8.63547C1.66412 8.63547 1.66412 8.63547 1.66412 8.63547C1.66412 8.63547 1.66412 8.63547 1.66412 8.63547C1.66412 8.63547 1.66412 8.63547 1.66412 8.63547C1.66412 8.63547 1.66412 8.63547 1.66413 8.63547C1.66413 8.63547 1.66413 8.63547 1.66413 8.63547C1.66413 8.63547 1.66413 8.63547 1.66413 8.63547C1.66413 8.63547 1.66413 8.63547 1.66413 8.63547C1.66413 8.63547 1.66413 8.63547 1.66413 8.63547C1.66413 8.63547 1.66413 8.63547 1.66413 8.63547C1.66413 8.63547 1.66413 8.63547 1.66413 8.63547C1.66413 8.63547 1.66413 8.63547 1.66413 8.63547C1.66413 8.63547 1.66413 8.63547 1.66413 8.63547C1.66413 8.63547 1.66413 8.63547 1.66413 8.63547C1.66413 8.63547 1.66413 8.63547 1.66413 8.63547C1.66413 8.63547 1.66413 8.63547 1.66413 8.63547C1.66413 8.63547 1.66413 8.63547 1.66413 8.63547C1.66413 8.63547 1.66413 8.63547 1.66413 8.63547C1.66413 8.63547 1.66413 8.63547 1.66413 8.63547C1.66413 8.63547 1.66413 8.63547 1.66413 8.63547C1.66413 8.63547 1.66413 8.63547 1.66413 8.63547C1.66413 8.63547 1.66413 8.63547 1.66413 8.63547C1.66413 8.63547 1.66413 8.63547 1.66413 8.63547C1.66413 8.63547 1.66413 8.63547 1.66413 8.63547C1.66413 8.63547 1.66413 8.63547 1.66413 8.63547C1.66413 8.63547 1.66413 8.63547 1.66413 8.63547C1.66413 8.63547 1.66413 8.63547 1.66413 8.63547C1.66413 8.63547 1.66413 8.63547 1.66413 8.63547C1.66413 8.63547 1.66413 8.63547 1.66413 8.63547C1.66413 8.63547 1.66413 8.63547 1.66413 8.63547C1.66413 8.63547 1.66413 8.63547 1.66413 8.63547C1.66413 8.63547 1.66413 8.63547 1.66413 8.63547C1.66413 8.63547 1.66413 8.63547 1.66413 8.63547C1.66413 8.63547 1.66413 8.63547 1.66413 8.63547C1.66413 8.63547 1.66413 8.63547 1.66413 8.63547C1.66413 8.63547 1.66413 8.63547 1.66413 8.63547C1.66413 8.63547 1.66413 8.63547 1.66413 8.63547C1.66413 8.63547 1.66413 8.63547 1.66413 8.63547C1.66413 8.63547 1.66413 8.63547 1.66413 8.63547C1.66413 8.63547 1.66413 8.63547 1.66413 8.63547C1.66413 8.63547 1.66413 8.63547 1.66413 8.63547C1.66413 8.63547 1.66413 8.63547 1.66413 8.63547C1.66413 8.63547 1.66413 8.63547 1.66413 8.63547C1.66413 8.63547 1.66413 8.63547 1.66413 8.63547C1.66413 8.63547 1.66413 8.63547 1.66413 8.63547C1.66413 8.63547 1.66413 8.63547 1.66413 8.63547C1.66413 8.63547 1.66413 8.63547 1.66413 8.63547C1.66413 8.63547 1.66413 8.63547 1.66413 8.63547C1.66413 8.63547 1.66413 8.63547 1.66413 8.63547C1.66413 8.63547 1.66413 8.63547 1.66413 8.63547C1.66413 8.63547 1.66413 8.63547 1.66413 8.63547C1.66413 8.63547 1.66413 8.63547 1.66413 8.63547C1.66413 8.63547 1.66413 8.63547 1.66413 8.63547C1.66413 8.63547 1.66413 8.63547 1.66413 8.63547C1.66413 8.63547 1.66413 8.63547 1.66413 8.63547C1.66413 8.63547 1.66413 8.63547 1.66413 8.63547C1.66413 8.63547 1.66413 8.63547 1.66413 8.63547C1.66413 8.63547 1.66413 8.63547 1.66413 8.63547C1.66413 8.63547 1.66413 8.63547 1.66413 8.63547C1.66413 8.63547 1.66413 8.63547 1.66413 8.63547C1.66413 8.63547 1.66413 8.63547 1.66413 8.63547C1.66413 8.63547 1.66413 8.63547 1.66413 8.63547C1.66413 8.63547 1.66413 8.63547 1.66413 8.63547C1.66413 8.63547 1.66413 8.63547 1.66414 8.63547C1.66414 8.63547 1.66414 8.63547 1.66414 8.63547C1.66414 8.63547 1.66414 8.63547 1.66414 8.63547C1.66414 8.63547 1.66414 8.63547 1.66414 8.63547C1.66414 8.63547 1.66414 8.63547 1.66414 8.63547C1.66414 8.63547 1.66414 8.63547 1.66414 8.63547C1.66414 8.63547 1.66414 8.63547 1.66414 8.63547C1.66414 8.63547 1.66414 8.63547 1.66414 8.63547C1.66414 8.63547 1.66414 8.63547 1.66414 8.63547C1.66414 8.63547 1.66414 8.63547 1.66414 8.63547C1.66414 8.63547 1.66414 8.63547 1.66414 8.63547C1.66414 8.63547 1.66414 8.63547 1.66414 8.63547C1.66414 8.63547 1.66414 8.63547 1.66414 8.63547C1.66414 8.63547 1.66414 8.63547 1.66414 8.63547C1.66414 8.63547 1.66414 8.63547 1.66414 8.63547C1.66414 8.63547 1.66414 8.63547 1.66414 8.63547C1.66414 8.63547 1.66414 8.63547 1.66414 8.63547C1.66414 8.63547 1.66414 8.63547 1.66414 8.63547C1.66414 8.63547 1.66414 8.63547 1.66414 8.63547C1.66414 8.63547 1.66414 8.63547 1.66414 8.63547C1.66414 8.63547 1.66414 8.63547 1.66414 8.63547C1.66414 8.63547 1.66414 8.63547 1.66414 8.63547C1.66414 8.63547 1.66414 8.63547 1.66414 8.63547C1.66414 8.63547 1.66414 8.63547 1.66414 8.63547C1.66414 8.63547 1.66414 8.63547 1.66414 8.63547C1.66414 8.63547 1.66414 8.63547 1.66414 8.63547C1.66414 8.63547 1.66414 8.63547 1.66414 8.63547C1.66414 8.63547 1.66414 8.63547 1.66414 8.63547C1.66414 8.63547 1.66414 8.63547 1.66414 8.63547C1.66414 8.63547 1.66414 8.63547 1.66414 8.63547C1.66414 8.63547 1.66414 8.63547 1.66414 8.63547C1.66414 8.63547 1.66414 8.63547 1.66414 8.63547C1.66414 8.63547 1.66414 8.63547 1.66414 8.63547C1.66414 8.63547 1.66414 8.63547 1.66414 8.63547C1.66414 8.63547 1.66414 8.63547 1.66414 8.63547C1.66414 8.63547 1.66414 8.63547 1.66414 8.63547C1.66414 8.63547 1.66414 8.63547 1.66414 8.63547C1.66414 8.63547 1.66414 8.63547 1.66414 8.63547C1.66414 8.63547 1.66414 8.63547 1.66414 8.63547C1.66414 8.63547 1.66414 8.63547 1.66414 8.63547C1.66414 8.63547 1.66414 8.63547 1.66414 8.63547C1.66414 8.63547 1.66414 8.63547 1.66414 8.63547C1.66414 8.63547 1.66414 8.63547 1.66414 8.63547C1.66414 8.63547 1.66414 8.63547 1.66414 8.63547C1.66414 8.63547 1.66414 8.63547 1.66414 8.63547C1.66414 8.63547 1.66414 8.63547 1.66414 8.63547C1.66414 8.63547 1.66414 8.63547 1.66414 8.63547C1.66414 8.63547 1.66414 8.63547 1.66414 8.63547C1.66414 8.63547 1.66414 8.63547 1.66414 8.63547C1.66414 8.63547 1.66414 8.63547 1.66414 8.63547C1.66414 8.63547 1.66414 8.63547 1.66414 8.63547C1.66414 8.63547 1.66414 8.63547 1.66414 8.63547C1.66414 8.63547 1.66414 8.63547 1.66414 8.63547C1.66414 8.63547 1.66414 8.63547 1.66414 8.63547C1.66414 8.63547 1.66414 8.63547 1.66414 8.63547C1.66414 8.63547 1.66414 8.63547 1.66414 8.63547C1.66414 8.63547 1.66414 8.63547 1.66414 8.63547C1.66414 8.63547 1.66414 8.63547 1.66414 8.63547C1.66414 8.63547 1.66414 8.63547 1.66414 8.63547C1.66414 8.63547 1.66414 8.63547 1.66414 8.63547C1.66415 8.63547 1.66415 8.63547 1.66415 8.63547C1.66415 8.63547 1.66415 8.63547 1.66415 8.63547C1.66415 8.63547 1.66415 8.63547 1.66415 8.63547C1.66415 8.63547 1.66415 8.63547 1.66415 8.63547C1.66415 8.63547 1.66415 8.63547 1.66415 8.63547C1.66415 8.63547 1.66415 8.63547 1.66415 8.63547C1.66415 8.63547 1.66415 8.63547 1.66415 8.63547C1.66415 8.63547 1.66415 8.63547 1.66415 8.63547C1.66415 8.63547 1.66415 8.63547 1.66415 8.63547C1.66415 8.63547 1.66415 8.63547 1.66415 8.63547C1.66415 8.63547 1.66415 8.63547 1.66415 8.63547C1.66415 8.63547 1.66415 8.63547 1.66415 8.63547C1.66415 8.63547 1.66415 8.63547 1.66415 8.63547C1.66415 8.63547 1.66415 8.63547 1.66415 8.63547C1.66415 8.63547 1.66415 8.63547 1.66415 8.63547C1.66415 8.63547 1.66415 8.63547 1.66415 8.63547C1.66415 8.63547 1.66415 8.63547 1.66415 8.63547C1.66415 8.63547 1.66415 8.63547 1.66415 8.63547C1.66415 8.63547 1.66415 8.63547 1.66415 8.63547C1.66415 8.63547 1.66415 8.63547 1.66415 8.63547C1.66415 8.63547 1.66415 8.63547 1.66415 8.63547C1.66415 8.63547 1.66415 8.63547 1.66415 8.63547C1.66415 8.63547 1.66415 8.63547 1.66415 8.63547C1.66415 8.63547 1.66415 8.63547 1.66415 8.63547V7.33547C1.66415 7.33547 1.66415 7.33547 1.66415 7.33547C1.66415 7.33547 1.66415 7.33547 1.66415 7.33547C1.66415 7.33547 1.66415 7.33547 1.66415 7.33547C1.66415 7.33547 1.66415 7.33547 1.66415 7.33547C1.66415 7.33547 1.66415 7.33547 1.66415 7.33547C1.66415 7.33547 1.66415 7.33547 1.66415 7.33547C1.66415 7.33547 1.66415 7.33547 1.66415 7.33547C1.66415 7.33547 1.66415 7.33547 1.66415 7.33547C1.66415 7.33547 1.66415 7.33547 1.66415 7.33547C1.66415 7.33547 1.66415 7.33547 1.66415 7.33547C1.66415 7.33547 1.66415 7.33547 1.66415 7.33547C1.66415 7.33547 1.66415 7.33547 1.66415 7.33547C1.66415 7.33547 1.66415 7.33547 1.66415 7.33547C1.66415 7.33547 1.66415 7.33547 1.66415 7.33547C1.66415 7.33547 1.66415 7.33547 1.66415 7.33547C1.66415 7.33547 1.66415 7.33547 1.66415 7.33547C1.66415 7.33547 1.66415 7.33547 1.66415 7.33547C1.66415 7.33547 1.66415 7.33547 1.66415 7.33547C1.66415 7.33547 1.66415 7.33547 1.66415 7.33547C1.66415 7.33547 1.66415 7.33547 1.66415 7.33547C1.66415 7.33547 1.66415 7.33547 1.66415 7.33547C1.66415 7.33547 1.66415 7.33547 1.66415 7.33547C1.66415 7.33547 1.66415 7.33547 1.66415 7.33547C1.66415 7.33547 1.66415 7.33547 1.66414 7.33547C1.66414 7.33547 1.66414 7.33547 1.66414 7.33547C1.66414 7.33547 1.66414 7.33547 1.66414 7.33547C1.66414 7.33547 1.66414 7.33547 1.66414 7.33547C1.66414 7.33547 1.66414 7.33547 1.66414 7.33547C1.66414 7.33547 1.66414 7.33547 1.66414 7.33547C1.66414 7.33547 1.66414 7.33547 1.66414 7.33547C1.66414 7.33547 1.66414 7.33547 1.66414 7.33547C1.66414 7.33547 1.66414 7.33547 1.66414 7.33547C1.66414 7.33547 1.66414 7.33547 1.66414 7.33547C1.66414 7.33547 1.66414 7.33547 1.66414 7.33547C1.66414 7.33547 1.66414 7.33547 1.66414 7.33547C1.66414 7.33547 1.66414 7.33547 1.66414 7.33547C1.66414 7.33547 1.66414 7.33547 1.66414 7.33547C1.66414 7.33547 1.66414 7.33547 1.66414 7.33547C1.66414 7.33547 1.66414 7.33547 1.66414 7.33547C1.66414 7.33547 1.66414 7.33547 1.66414 7.33547C1.66414 7.33547 1.66414 7.33547 1.66414 7.33547C1.66414 7.33547 1.66414 7.33547 1.66414 7.33547C1.66414 7.33547 1.66414 7.33547 1.66414 7.33547C1.66414 7.33547 1.66414 7.33547 1.66414 7.33547C1.66414 7.33547 1.66414 7.33547 1.66414 7.33547C1.66414 7.33547 1.66414 7.33547 1.66414 7.33547C1.66414 7.33547 1.66414 7.33547 1.66414 7.33547C1.66414 7.33547 1.66414 7.33547 1.66414 7.33547C1.66414 7.33547 1.66414 7.33547 1.66414 7.33547C1.66414 7.33547 1.66414 7.33547 1.66414 7.33547C1.66414 7.33547 1.66414 7.33547 1.66414 7.33547C1.66414 7.33547 1.66414 7.33547 1.66414 7.33547C1.66414 7.33547 1.66414 7.33547 1.66414 7.33547C1.66414 7.33547 1.66414 7.33547 1.66414 7.33547C1.66414 7.33547 1.66414 7.33547 1.66414 7.33547C1.66414 7.33547 1.66414 7.33547 1.66414 7.33547C1.66414 7.33547 1.66414 7.33547 1.66414 7.33547C1.66414 7.33547 1.66414 7.33547 1.66414 7.33547C1.66414 7.33547 1.66414 7.33547 1.66414 7.33547C1.66414 7.33547 1.66414 7.33547 1.66414 7.33547C1.66414 7.33547 1.66414 7.33547 1.66414 7.33547C1.66414 7.33547 1.66414 7.33547 1.66414 7.33547C1.66414 7.33547 1.66414 7.33547 1.66414 7.33547C1.66414 7.33547 1.66414 7.33547 1.66414 7.33547C1.66414 7.33547 1.66414 7.33547 1.66414 7.33547C1.66414 7.33547 1.66414 7.33547 1.66414 7.33547C1.66414 7.33547 1.66414 7.33547 1.66414 7.33547C1.66414 7.33547 1.66414 7.33547 1.66414 7.33547C1.66414 7.33547 1.66414 7.33547 1.66414 7.33547C1.66414 7.33547 1.66414 7.33547 1.66414 7.33547C1.66414 7.33547 1.66414 7.33547 1.66414 7.33547C1.66414 7.33547 1.66414 7.33547 1.66414 7.33547C1.66414 7.33547 1.66414 7.33547 1.66414 7.33547C1.66414 7.33547 1.66414 7.33547 1.66414 7.33547C1.66414 7.33547 1.66414 7.33547 1.66414 7.33547C1.66414 7.33547 1.66414 7.33547 1.66414 7.33547C1.66414 7.33547 1.66414 7.33547 1.66414 7.33547C1.66414 7.33547 1.66414 7.33547 1.66414 7.33547C1.66414 7.33547 1.66414 7.33547 1.66414 7.33547C1.66414 7.33547 1.66414 7.33547 1.66414 7.33547C1.66414 7.33547 1.66414 7.33547 1.66414 7.33547C1.66414 7.33547 1.66414 7.33547 1.66414 7.33547C1.66414 7.33547 1.66414 7.33547 1.66414 7.33547C1.66413 7.33547 1.66413 7.33547 1.66413 7.33547C1.66413 7.33547 1.66413 7.33547 1.66413 7.33547C1.66413 7.33547 1.66413 7.33547 1.66413 7.33547C1.66413 7.33547 1.66413 7.33547 1.66413 7.33547C1.66413 7.33547 1.66413 7.33547 1.66413 7.33547C1.66413 7.33547 1.66413 7.33547 1.66413 7.33547C1.66413 7.33547 1.66413 7.33547 1.66413 7.33547C1.66413 7.33547 1.66413 7.33547 1.66413 7.33547C1.66413 7.33547 1.66413 7.33547 1.66413 7.33547C1.66413 7.33547 1.66413 7.33547 1.66413 7.33547C1.66413 7.33547 1.66413 7.33547 1.66413 7.33547C1.66413 7.33547 1.66413 7.33547 1.66413 7.33547C1.66413 7.33547 1.66413 7.33547 1.66413 7.33547C1.66413 7.33547 1.66413 7.33547 1.66413 7.33547C1.66413 7.33547 1.66413 7.33547 1.66413 7.33547C1.66413 7.33547 1.66413 7.33547 1.66413 7.33547C1.66413 7.33547 1.66413 7.33547 1.66413 7.33547C1.66413 7.33547 1.66413 7.33547 1.66413 7.33547C1.66413 7.33547 1.66413 7.33547 1.66413 7.33547C1.66413 7.33547 1.66413 7.33547 1.66413 7.33547C1.66413 7.33547 1.66413 7.33547 1.66413 7.33547C1.66413 7.33547 1.66413 7.33547 1.66413 7.33547C1.66413 7.33547 1.66413 7.33547 1.66413 7.33547C1.66413 7.33547 1.66413 7.33547 1.66413 7.33547C1.66413 7.33547 1.66413 7.33547 1.66413 7.33547C1.66413 7.33547 1.66413 7.33547 1.66413 7.33547C1.66413 7.33547 1.66413 7.33547 1.66413 7.33547C1.66413 7.33547 1.66413 7.33547 1.66413 7.33547C1.66413 7.33547 1.66413 7.33547 1.66413 7.33547C1.66413 7.33547 1.66413 7.33547 1.66413 7.33547C1.66413 7.33547 1.66413 7.33547 1.66413 7.33547C1.66413 7.33547 1.66413 7.33547 1.66413 7.33547C1.66413 7.33547 1.66413 7.33547 1.66413 7.33547C1.66413 7.33547 1.66413 7.33547 1.66413 7.33547C1.66413 7.33547 1.66413 7.33547 1.66413 7.33547C1.66413 7.33547 1.66413 7.33547 1.66413 7.33547C1.66413 7.33547 1.66413 7.33547 1.66413 7.33547C1.66413 7.33547 1.66413 7.33547 1.66413 7.33547C1.66413 7.33547 1.66413 7.33547 1.66413 7.33547C1.66413 7.33547 1.66413 7.33547 1.66413 7.33547C1.66413 7.33547 1.66413 7.33547 1.66413 7.33547C1.66413 7.33547 1.66413 7.33547 1.66413 7.33547C1.66413 7.33547 1.66413 7.33547 1.66413 7.33547C1.66413 7.33547 1.66413 7.33547 1.66413 7.33547C1.66413 7.33547 1.66413 7.33547 1.66413 7.33547C1.66413 7.33547 1.66413 7.33547 1.66413 7.33547C1.66413 7.33547 1.66413 7.33547 1.66413 7.33547C1.66413 7.33547 1.66413 7.33547 1.66413 7.33547C1.66413 7.33547 1.66413 7.33547 1.66413 7.33547C1.66413 7.33547 1.66413 7.33547 1.66413 7.33547C1.66413 7.33547 1.66413 7.33547 1.66413 7.33547C1.66413 7.33547 1.66413 7.33547 1.66413 7.33547C1.66413 7.33547 1.66413 7.33547 1.66413 7.33547C1.66413 7.33547 1.66413 7.33547 1.66413 7.33547C1.66413 7.33547 1.66413 7.33547 1.66413 7.33547C1.66413 7.33547 1.66413 7.33547 1.66413 7.33547C1.66413 7.33547 1.66413 7.33547 1.66413 7.33547C1.66413 7.33547 1.66413 7.33547 1.66413 7.33547C1.66413 7.33547 1.66413 7.33547 1.66413 7.33547C1.66412 7.33547 1.66412 7.33547 1.66412 7.33547C1.66412 7.33547 1.66412 7.33547 1.66412 7.33547C1.66412 7.33547 1.66412 7.33547 1.66412 7.33547C1.66412 7.33547 1.66412 7.33547 1.66412 7.33547C1.66412 7.33547 1.66412 7.33547 1.66412 7.33547C1.66412 7.33547 1.66412 7.33547 1.66412 7.33547C1.66412 7.33547 1.66412 7.33547 1.66412 7.33547C1.66412 7.33547 1.66412 7.33547 1.66412 7.33547C1.66412 7.33547 1.66412 7.33547 1.66412 7.33547C1.66412 7.33547 1.66412 7.33547 1.66412 7.33547C1.66412 7.33547 1.66412 7.33547 1.66412 7.33547C1.66412 7.33547 1.66412 7.33547 1.66412 7.33547C1.66412 7.33547 1.66412 7.33547 1.66412 7.33547C1.66412 7.33547 1.66412 7.33547 1.66412 7.33547C1.66412 7.33547 1.66412 7.33547 1.66412 7.33547C1.66412 7.33547 1.66412 7.33547 1.66412 7.33547C1.66412 7.33547 1.66412 7.33547 1.66412 7.33547C1.66412 7.33547 1.66412 7.33547 1.66412 7.33547C1.66412 7.33547 1.66412 7.33547 1.66412 7.33547C1.66412 7.33547 1.66412 7.33547 1.66412 7.33547C1.66412 7.33547 1.66412 7.33547 1.66412 7.33547C1.66412 7.33547 1.66412 7.33547 1.66412 7.33547C1.66412 7.33547 1.66412 7.33547 1.66412 7.33547C1.66412 7.33547 1.66412 7.33547 1.66412 7.33547C1.66412 7.33547 1.66412 7.33547 1.66412 7.33547C1.66412 7.33547 1.66412 7.33547 1.66412 7.33547C1.66412 7.33547 1.66412 7.33547 1.66412 7.33547C1.66412 7.33547 1.66412 7.33547 1.66412 7.33547C1.66412 7.33547 1.66412 7.33547 1.66412 7.33547C1.66412 7.33547 1.66412 7.33547 1.66412 7.33547C1.66412 7.33547 1.66412 7.33547 1.66412 7.33547C1.66412 7.33547 1.66412 7.33547 1.66412 7.33547C1.66412 7.33547 1.66412 7.33547 1.66412 7.33547C1.66412 7.33547 1.66412 7.33547 1.66412 7.33547C1.66412 7.33547 1.66412 7.33547 1.66412 7.33547C1.66412 7.33547 1.66412 7.33547 1.66412 7.33547C1.66412 7.33547 1.66412 7.33547 1.66412 7.33547C1.66412 7.33547 1.66412 7.33547 1.66412 7.33547C1.66412 7.33547 1.66412 7.33547 1.66412 7.33547C1.66412 7.33547 1.66412 7.33547 1.66412 7.33547C1.66412 7.33547 1.66412 7.33547 1.66412 7.33547C1.66412 7.33547 1.66412 7.33547 1.66412 7.33547C1.66412 7.33547 1.66412 7.33547 1.66412 7.33547C1.66412 7.33547 1.66412 7.33547 1.66412 7.33547C1.66412 7.33547 1.66412 7.33547 1.66412 7.33547C1.66412 7.33547 1.66412 7.33547 1.66412 7.33547C1.66412 7.33547 1.66412 7.33547 1.66412 7.33547C1.66412 7.33547 1.66412 7.33547 1.66412 7.33547C1.66412 7.33547 1.66412 7.33547 1.66412 7.33547C1.66412 7.33547 1.66412 7.33547 1.66412 7.33547C1.66412 7.33547 1.66412 7.33547 1.66412 7.33547C1.66412 7.33547 1.66412 7.33547 1.66412 7.33547C1.66412 7.33547 1.66412 7.33547 1.66412 7.33547C1.66412 7.33547 1.66412 7.33547 1.66412 7.33547C1.66412 7.33547 1.66412 7.33547 1.66412 7.33547C1.66412 7.33547 1.66412 7.33547 1.66412 7.33547C1.66412 7.33547 1.66412 7.33547 1.66412 7.33547C1.66412 7.33547 1.66412 7.33547 1.66412 7.33547C1.66412 7.33547 1.66412 7.33547 1.66412 7.33547C1.66412 7.33547 1.66411 7.33547 1.66411 7.33547C1.66411 7.33547 1.66411 7.33547 1.66411 7.33547C1.66411 7.33547 1.66411 7.33547 1.66411 7.33547C1.66411 7.33547 1.66411 7.33547 1.66411 7.33547C1.66411 7.33547 1.66411 7.33547 1.66411 7.33547C1.66411 7.33547 1.66411 7.33547 1.66411 7.33547C1.66411 7.33547 1.66411 7.33547 1.66411 7.33547C1.66411 7.33547 1.66411 7.33547 1.66411 7.33547C1.66411 7.33547 1.66411 7.33547 1.66411 7.33547C1.66411 7.33547 1.66411 7.33547 1.66411 7.33547C1.66411 7.33547 1.66411 7.33547 1.66411 7.33547C1.66411 7.33547 1.66411 7.33547 1.66411 7.33547C1.66411 7.33547 1.66411 7.33547 1.66411 7.33547C1.66411 7.33547 1.66411 7.33547 1.66411 7.33547C1.66411 7.33547 1.66411 7.33547 1.66411 7.33547C1.66411 7.33547 1.66411 7.33547 1.66411 7.33547C1.66411 7.33547 1.66411 7.33547 1.66411 7.33547C1.66411 7.33547 1.66411 7.33547 1.66411 7.33547C1.66411 7.33547 1.66411 7.33547 1.66411 7.33547C1.66411 7.33547 1.66411 7.33547 1.66411 7.33547C1.66411 7.33547 1.66411 7.33547 1.66411 7.33547C1.66411 7.33547 1.66411 7.33547 1.66411 7.33547C1.66411 7.33547 1.66411 7.33547 1.66411 7.33547C1.66411 7.33547 1.66411 7.33547 1.66411 7.33547C1.66411 7.33547 1.66411 7.33547 1.66411 7.33547C1.66411 7.33547 1.66411 7.33547 1.66411 7.33547C1.66411 7.33547 1.66411 7.33547 1.66411 7.33547C1.66411 7.33547 1.66411 7.33547 1.66411 7.33547C1.66411 7.33547 1.66411 7.33547 1.66411 7.33547C1.66411 7.33547 1.66411 7.33547 1.66411 7.33547C1.66411 7.33547 1.66411 7.33547 1.66411 7.33547C1.66411 7.33547 1.66411 7.33547 1.66411 7.33547C1.66411 7.33547 1.66411 7.33547 1.66411 7.33547C1.66411 7.33547 1.66411 7.33547 1.66411 7.33547C1.66411 7.33547 1.66411 7.33547 1.66411 7.33547C1.66411 7.33547 1.66411 7.33547 1.66411 7.33547C1.66411 7.33547 1.66411 7.33547 1.66411 7.33547C1.66411 7.33547 1.66411 7.33547 1.66411 7.33547C1.66411 7.33547 1.66411 7.33547 1.66411 7.33547C1.66411 7.33547 1.66411 7.33547 1.66411 7.33547C1.66411 7.33547 1.66411 7.33547 1.66411 7.33547C1.66411 7.33547 1.66411 7.33547 1.66411 7.33547C1.66411 7.33547 1.66411 7.33547 1.66411 7.33547C1.66411 7.33547 1.66411 7.33547 1.66411 7.33547C1.66411 7.33547 1.66411 7.33547 1.66411 7.33547C1.66411 7.33547 1.66411 7.33547 1.66411 7.33547C1.66411 7.33547 1.66411 7.33547 1.66411 7.33547C1.66411 7.33547 1.66411 7.33547 1.66411 7.33547C1.66411 7.33547 1.66411 7.33547 1.66411 7.33547C1.66411 7.33547 1.66411 7.33547 1.66411 7.33547C1.66411 7.33547 1.66411 7.33547 1.66411 7.33547C1.66411 7.33547 1.66411 7.33547 1.66411 7.33547C1.66411 7.33547 1.66411 7.33547 1.66411 7.33547C1.66411 7.33547 1.66411 7.33547 1.66411 7.33547C1.66411 7.33547 1.66411 7.33547 1.66411 7.33547C1.66411 7.33547 1.66411 7.33547 1.66411 7.33547C1.66411 7.33547 1.66411 7.33547 1.66411 7.33547C1.66411 7.33547 1.66411 7.33547 1.66411 7.33547C1.66411 7.33547 1.66411 7.33547 1.66411 7.33547C1.66411 7.33547 1.6641 7.33547 1.6641 7.33547C1.6641 7.33547 1.6641 7.33547 1.6641 7.33547C1.6641 7.33547 1.6641 7.33547 1.6641 7.33547C1.6641 7.33547 1.6641 7.33547 1.6641 7.33547C1.6641 7.33547 1.6641 7.33547 1.6641 7.33547C1.6641 7.33547 1.6641 7.33547 1.6641 7.33547C1.6641 7.33547 1.6641 7.33547 1.6641 7.33547C1.6641 7.33547 1.6641 7.33547 1.6641 7.33547C1.6641 7.33547 1.6641 7.33547 1.6641 7.33547C1.6641 7.33547 1.6641 7.33547 1.6641 7.33547C1.6641 7.33547 1.6641 7.33547 1.6641 7.33547C1.6641 7.33547 1.6641 7.33547 1.6641 7.33547C1.6641 7.33547 1.6641 7.33547 1.6641 7.33547C1.6641 7.33547 1.6641 7.33547 1.6641 7.33547C1.6641 7.33547 1.6641 7.33547 1.6641 7.33547C1.6641 7.33547 1.6641 7.33547 1.6641 7.33547C1.6641 7.33547 1.6641 7.33547 1.6641 7.33547C1.6641 7.33547 1.6641 7.33547 1.6641 7.33547C1.6641 7.33547 1.6641 7.33547 1.6641 7.33547C1.6641 7.33547 1.6641 7.33547 1.6641 7.33547C1.6641 7.33547 1.6641 7.33547 1.6641 7.33547C1.6641 7.33547 1.6641 7.33547 1.6641 7.33547C1.6641 7.33547 1.6641 7.33547 1.6641 7.33547C1.6641 7.33547 1.6641 7.33547 1.6641 7.33547C1.6641 7.33547 1.6641 7.33547 1.6641 7.33547C1.6641 7.33547 1.6641 7.33547 1.6641 7.33547C1.6641 7.33547 1.6641 7.33547 1.6641 7.33547C1.6641 7.33547 1.6641 7.33547 1.6641 7.33547C1.6641 7.33547 1.6641 7.33547 1.6641 7.33547C1.6641 7.33547 1.6641 7.33547 1.6641 7.33547C1.6641 7.33547 1.6641 7.33547 1.6641 7.33547C1.6641 7.33547 1.6641 7.33547 1.6641 7.33547C1.6641 7.33547 1.6641 7.33547 1.6641 7.33547C1.6641 7.33547 1.6641 7.33547 1.6641 7.33547C1.6641 7.33547 1.6641 7.33547 1.6641 7.33547C1.6641 7.33547 1.6641 7.33547 1.6641 7.33547C1.6641 7.33547 1.6641 7.33547 1.6641 7.33547C1.6641 7.33547 1.6641 7.33547 1.6641 7.33547C1.6641 7.33547 1.6641 7.33547 1.6641 7.33547C1.6641 7.33547 1.6641 7.33547 1.6641 7.33547C1.6641 7.33547 1.6641 7.33547 1.6641 7.33547C1.6641 7.33547 1.6641 7.33547 1.6641 7.33547C1.6641 7.33547 1.6641 7.33547 1.6641 7.33547C1.6641 7.33547 1.6641 7.33547 1.6641 7.33547C1.6641 7.33547 1.6641 7.33547 1.6641 7.33547C1.6641 7.33547 1.6641 7.33547 1.6641 7.33547C1.6641 7.33547 1.6641 7.33547 1.6641 7.33547C1.6641 7.33547 1.6641 7.33547 1.6641 7.33547C1.6641 7.33547 1.6641 7.33547 1.6641 7.33547C1.6641 7.33547 1.6641 7.33547 1.6641 7.33547C1.6641 7.33547 1.6641 7.33547 1.6641 7.33547C1.6641 7.33547 1.6641 7.33547 1.6641 7.33547C1.6641 7.33547 1.6641 7.33547 1.6641 7.33547C1.6641 7.33547 1.6641 7.33547 1.6641 7.33547C1.6641 7.33547 1.6641 7.33547 1.6641 7.33547C1.6641 7.33547 1.6641 7.33547 1.6641 7.33547C1.6641 7.33547 1.6641 7.33547 1.6641 7.33547C1.6641 7.33547 1.6641 7.33547 1.6641 7.33547C1.6641 7.33547 1.6641 7.33547 1.6641 7.33547C1.6641 7.33547 1.6641 7.33547 1.66409 7.33547C1.66409 7.33547 1.66409 7.33547 1.66409 7.33547C1.66409 7.33547 1.66409 7.33547 1.66409 7.33547C1.66409 7.33547 1.66409 7.33547 1.66409 7.33547C1.66409 7.33547 1.66409 7.33547 1.66409 7.33547C1.66409 7.33547 1.66409 7.33547 1.66409 7.33547C1.66409 7.33547 1.66409 7.33547 1.66409 7.33547C1.66409 7.33547 1.66409 7.33547 1.66409 7.33547C1.66409 7.33547 1.66409 7.33547 1.66409 7.33547C1.66409 7.33547 1.66409 7.33547 1.66409 7.33547C1.66409 7.33547 1.66409 7.33547 1.66409 7.33547C1.66409 7.33547 1.66409 7.33547 1.66409 7.33547C1.66409 7.33547 1.66409 7.33547 1.66409 7.33547C1.66409 7.33547 1.66409 7.33547 1.66409 7.33547C1.66409 7.33547 1.66409 7.33547 1.66409 7.33547C1.66409 7.33547 1.66409 7.33547 1.66409 7.33547C1.66409 7.33547 1.66409 7.33547 1.66409 7.33547C1.66409 7.33547 1.66409 7.33547 1.66409 7.33547C1.66409 7.33547 1.66409 7.33547 1.66409 7.33547C1.66409 7.33547 1.66409 7.33547 1.66409 7.33547C1.66409 7.33547 1.66409 7.33547 1.66409 7.33547C1.66409 7.33547 1.66409 7.33547 1.66409 7.33547C1.66409 7.33547 1.66409 7.33547 1.66409 7.33547C1.66409 7.33547 1.66409 7.33547 1.66409 7.33547C1.66409 7.33547 1.66409 7.33547 1.66409 7.33547C1.66409 7.33547 1.66409 7.33547 1.66409 7.33547C1.66409 7.33547 1.66409 7.33547 1.66409 7.33547C1.66409 7.33547 1.66409 7.33547 1.66409 7.33547C1.66409 7.33547 1.66409 7.33547 1.66409 7.33547C1.66409 7.33547 1.66409 7.33547 1.66409 7.33547C1.66409 7.33547 1.66409 7.33547 1.66409 7.33547C1.66409 7.33547 1.66409 7.33547 1.66409 7.33547C1.66409 7.33547 1.66409 7.33547 1.66409 7.33547C1.66409 7.33547 1.66409 7.33547 1.66409 7.33547C1.66409 7.33547 1.66409 7.33547 1.66409 7.33547C1.66409 7.33547 1.66409 7.33547 1.66409 7.33547C1.66409 7.33547 1.66409 7.33547 1.66409 7.33547C1.66409 7.33547 1.66409 7.33547 1.66409 7.33547C1.66409 7.33547 1.66409 7.33547 1.66409 7.33547C1.66409 7.33547 1.66409 7.33547 1.66409 7.33547C1.66409 7.33547 1.66409 7.33547 1.66409 7.33547C1.66409 7.33547 1.66409 7.33547 1.66409 7.33547C1.66409 7.33547 1.66409 7.33547 1.66409 7.33547C1.66409 7.33547 1.66409 7.33547 1.66409 7.33547C1.66409 7.33547 1.66409 7.33547 1.66409 7.33547C1.66409 7.33547 1.66409 7.33547 1.66409 7.33547C1.66409 7.33547 1.66409 7.33547 1.66409 7.33547C1.66409 7.33547 1.66409 7.33547 1.66409 7.33547C1.66409 7.33547 1.66409 7.33547 1.66409 7.33547C1.66409 7.33547 1.66409 7.33547 1.66409 7.33547C1.66409 7.33547 1.66409 7.33547 1.66409 7.33547C1.66409 7.33547 1.66409 7.33547 1.66409 7.33547C1.66409 7.33547 1.66409 7.33547 1.66409 7.33547C1.66409 7.33547 1.66409 7.33547 1.66409 7.33547C1.66409 7.33547 1.66409 7.33547 1.66409 7.33547C1.66409 7.33547 1.66409 7.33547 1.66409 7.33547C1.66409 7.33547 1.66409 7.33547 1.66409 7.33547C1.66409 7.33547 1.66409 7.33547 1.66409 7.33547C1.66409 7.33547 1.66409 7.33547 1.66409 7.33547C1.66409 7.33547 1.66409 7.33547 1.66408 7.33547C1.66408 7.33547 1.66408 7.33547 1.66408 7.33547C1.66408 7.33547 1.66408 7.33547 1.66408 7.33547C1.66408 7.33547 1.66408 7.33547 1.66408 7.33547C1.66408 7.33547 1.66408 7.33547 1.66408 7.33547C1.66408 7.33547 1.66408 7.33547 1.66408 7.33547C1.66408 7.33547 1.66408 7.33547 1.66408 7.33547C1.66408 7.33547 1.66408 7.33547 1.66408 7.33547C1.66408 7.33547 1.66408 7.33547 1.66408 7.33547C1.66408 7.33547 1.66408 7.33547 1.66408 7.33547C1.66408 7.33547 1.66408 7.33547 1.66408 7.33547C1.66408 7.33547 1.66408 7.33547 1.66408 7.33547C1.66408 7.33547 1.66408 7.33547 1.66408 7.33547C1.66408 7.33547 1.66408 7.33547 1.66408 7.33547C1.66408 7.33547 1.66408 7.33547 1.66408 7.33547C1.66408 7.33547 1.66408 7.33547 1.66408 7.33547C1.66408 7.33547 1.66408 7.33547 1.66408 7.33547C1.66408 7.33547 1.66408 7.33547 1.66408 7.33547C1.66408 7.33547 1.66408 7.33547 1.66408 7.33547C1.66408 7.33547 1.66408 7.33547 1.66408 7.33547C1.66408 7.33547 1.66408 7.33547 1.66408 7.33547C1.66408 7.33547 1.66408 7.33547 1.66408 7.33547C1.66408 7.33547 1.66408 7.33547 1.66408 7.33547C1.66408 7.33547 1.66408 7.33547 1.66408 7.33547C1.66408 7.33547 1.66408 7.33547 1.66408 7.33547C1.66408 7.33547 1.66408 7.33547 1.66408 7.33547C1.66408 7.33547 1.66408 7.33547 1.66408 7.33547C1.66408 7.33547 1.66408 7.33547 1.66408 7.33547C1.66408 7.33547 1.66408 7.33547 1.66408 7.33547C1.66408 7.33547 1.66408 7.33547 1.66408 7.33547C1.66408 7.33547 1.66408 7.33547 1.66408 7.33547C1.66408 7.33547 1.66408 7.33547 1.66408 7.33547C1.66408 7.33547 1.66408 7.33547 1.66408 7.33547C1.66408 7.33547 1.66408 7.33547 1.66408 7.33547C1.66408 7.33547 1.66408 7.33547 1.66408 7.33547C1.66408 7.33547 1.66408 7.33547 1.66408 7.33547C1.66408 7.33547 1.66408 7.33547 1.66408 7.33547C1.66408 7.33547 1.66408 7.33547 1.66408 7.33547C1.66408 7.33547 1.66408 7.33547 1.66408 7.33547C1.66408 7.33547 1.66408 7.33547 1.66408 7.33547C1.66408 7.33547 1.66408 7.33547 1.66408 7.33547C1.66408 7.33547 1.66408 7.33547 1.66408 7.33547C1.66408 7.33547 1.66408 7.33547 1.66408 7.33547C1.66408 7.33547 1.66408 7.33547 1.66408 7.33547C1.66408 7.33547 1.66408 7.33547 1.66408 7.33547C1.66408 7.33547 1.66408 7.33547 1.66408 7.33547C1.66408 7.33547 1.66408 7.33547 1.66408 7.33547C1.66408 7.33547 1.66408 7.33547 1.66408 7.33547C1.66408 7.33547 1.66408 7.33547 1.66408 7.33547C1.66408 7.33547 1.66408 7.33547 1.66408 7.33547C1.66408 7.33547 1.66408 7.33547 1.66408 7.33547C1.66408 7.33547 1.66408 7.33547 1.66408 7.33547C1.66408 7.33547 1.66408 7.33547 1.66408 7.33547C1.66408 7.33547 1.66408 7.33547 1.66408 7.33547C1.66408 7.33547 1.66408 7.33547 1.66408 7.33547C1.66408 7.33547 1.66408 7.33547 1.66408 7.33547C1.66408 7.33547 1.66408 7.33547 1.66408 7.33547C1.66408 7.33547 1.66408 7.33547 1.66408 7.33547C1.66408 7.33547 1.66408 7.33547 1.66408 7.33547C1.66408 7.33547 1.66408 7.33547 1.66408 7.33547C1.66407 7.33547 1.66407 7.33547 1.66407 7.33547C1.66407 7.33547 1.66407 7.33547 1.66407 7.33547C1.66407 7.33547 1.66407 7.33547 1.66407 7.33547C1.66407 7.33547 1.66407 7.33547 1.66407 7.33547C1.66407 7.33547 1.66407 7.33547 1.66407 7.33547C1.66407 7.33547 1.66407 7.33547 1.66407 7.33547C1.66407 7.33547 1.66407 7.33547 1.66407 7.33547C1.66407 7.33547 1.66407 7.33547 1.66407 7.33547C1.66407 7.33547 1.66407 7.33547 1.66407 7.33547C1.66407 7.33547 1.66407 7.33547 1.66407 7.33547C1.66407 7.33547 1.66407 7.33547 1.66407 7.33547C1.66407 7.33547 1.66407 7.33547 1.66407 7.33547C1.66407 7.33547 1.66407 7.33547 1.66407 7.33547C1.66407 7.33547 1.66407 7.33547 1.66407 7.33547C1.66407 7.33547 1.66407 7.33547 1.66407 7.33547C1.66407 7.33547 1.66407 7.33547 1.66407 7.33547C1.66407 7.33547 1.66407 7.33547 1.66407 7.33547C1.66407 7.33547 1.66407 7.33547 1.66407 7.33547C1.66407 7.33547 1.66407 7.33547 1.66407 7.33547C1.66407 7.33547 1.66407 7.33547 1.66407 7.33547C1.66407 7.33547 1.66407 7.33547 1.66407 7.33547C1.66407 7.33547 1.66407 7.33547 1.66407 7.33547C1.66407 7.33547 1.66407 7.33547 1.66407 7.33547C1.66407 7.33547 1.66407 7.33547 1.66407 7.33547C1.66407 7.33547 1.66407 7.33547 1.66407 7.33547C1.66407 7.33547 1.66407 7.33547 1.66407 7.33547C1.66407 7.33547 1.66407 7.33547 1.66407 7.33547C1.66407 7.33547 1.66407 7.33547 1.66407 7.33547C1.66407 7.33547 1.66407 7.33547 1.66407 7.33547C1.66407 7.33547 1.66407 7.33547 1.66407 7.33547C1.66407 7.33547 1.66407 7.33547 1.66407 7.33547C1.66407 7.33547 1.66407 7.33547 1.66407 7.33547C1.66407 7.33547 1.66407 7.33547 1.66407 7.33547C1.66407 7.33547 1.66407 7.33547 1.66407 7.33547C1.66407 7.33547 1.66407 7.33547 1.66407 7.33547C1.66407 7.33547 1.66407 7.33547 1.66407 7.33547C1.66407 7.33547 1.66407 7.33547 1.66407 7.33547C1.66407 7.33547 1.66407 7.33547 1.66407 7.33547C1.66407 7.33547 1.66407 7.33547 1.66407 7.33547C1.66407 7.33547 1.66407 7.33547 1.66407 7.33547C1.66407 7.33547 1.66407 7.33547 1.66407 7.33547C1.66407 7.33547 1.66407 7.33547 1.66407 7.33547C1.66407 7.33547 1.66407 7.33547 1.66407 7.33547C1.66407 7.33547 1.66407 7.33547 1.66407 7.33547C1.66407 7.33547 1.66407 7.33547 1.66407 7.33547C1.66407 7.33547 1.66407 7.33547 1.66407 7.33547C1.66407 7.33547 1.66407 7.33547 1.66407 7.33547C1.66407 7.33547 1.66407 7.33547 1.66407 7.33547C1.66407 7.33547 1.66407 7.33547 1.66407 7.33547C1.66407 7.33547 1.66407 7.33547 1.66407 7.33547C1.66407 7.33547 1.66407 7.33547 1.66407 7.33547C1.66407 7.33547 1.66407 7.33547 1.66407 7.33547C1.66407 7.33547 1.66407 7.33547 1.66407 7.33547C1.66407 7.33547 1.66407 7.33547 1.66407 7.33547C1.66407 7.33547 1.66407 7.33547 1.66407 7.33547C1.66407 7.33547 1.66407 7.33547 1.66407 7.33547C1.66407 7.33547 1.66407 7.33547 1.66407 7.33547C1.66407 7.33547 1.66407 7.33547 1.66407 7.33547C1.66407 7.33547 1.66407 7.33547 1.66407 7.33547C1.66406 7.33547 1.66406 7.33547 1.66406 7.33547C1.66406 7.33547 1.66406 7.33547 1.66406 7.33547C1.66406 7.33547 1.66406 7.33547 1.66406 7.33547C1.66406 7.33547 1.66406 7.33547 1.66406 7.33547C1.66406 7.33547 1.66406 7.33547 1.66406 7.33547C1.66406 7.33547 1.66406 7.33547 1.66406 7.33547C1.66406 7.33547 1.66406 7.33547 1.66406 7.33547C1.66406 7.33547 1.66406 7.33547 1.66406 7.33547C1.66406 7.33547 1.66406 7.33547 1.66406 7.33547C1.66406 7.33547 1.66406 7.33547 1.66406 7.33547C1.66406 7.33547 1.66406 7.33547 1.66406 7.33547C1.66406 7.33547 1.66406 7.33547 1.66406 7.33547C1.66406 7.33547 1.66406 7.33547 1.66406 7.33547C1.66406 7.33547 1.66406 7.33547 1.66406 7.33547C1.66406 7.33547 1.66406 7.33547 1.66406 7.33547V8.63547ZM1.01406 5.16797V7.98547H2.31406V5.16797H1.01406Z" fill="#93A6FF"/>
<path d="M7.57813 16.0393L7.57813 15.3299L7.57812 14.4727" stroke="#93A6FF" stroke-width="1.3" stroke-linecap="round"/>
<path d="M7.57813 12.1721L7.57813 11.4627L7.57812 10.6055" stroke="#93A6FF" stroke-width="1.3" stroke-linecap="round"/>
<path d="M7.57813 8.30101L7.57813 7.59165L7.57812 6.73437" stroke="#93A6FF" stroke-width="1.3" stroke-linecap="round"/>
</svg>
