<svg width="20" height="20" viewBox="0 0 20 20" fill="none" xmlns="http://www.w3.org/2000/svg">
<path d="M18.3334 7.98413L18.3335 8.63413C18.6924 8.6341 18.9834 8.3431 18.9834 7.98413H18.3334ZM18.3334 12.2211H18.9834C18.9834 11.8622 18.6924 11.5711 18.3335 11.5711L18.3334 12.2211ZM1.66675 12.2211V11.5711C1.30776 11.5711 1.01675 11.8621 1.01675 12.2211H1.66675ZM1.66675 7.98413H1.01675C1.01675 8.34312 1.30776 8.63413 1.66675 8.63413L1.66675 7.98413ZM2.66675 3.51663C1.75548 3.51663 1.01675 4.25535 1.01675 5.16662H2.31675C2.31675 4.97333 2.47345 4.81663 2.66675 4.81663V3.51663ZM17.3334 3.51663H2.66675V4.81663H17.3334V3.51663ZM18.9834 5.16663C18.9834 4.25536 18.2447 3.51663 17.3334 3.51663V4.81663C17.5267 4.81663 17.6834 4.97333 17.6834 5.16663H18.9834ZM18.9834 7.98413V5.16663H17.6834V7.98413H18.9834ZM16.8651 10.1026C16.8651 9.29164 17.5225 8.63419 18.3335 8.63413L18.3334 7.33413C16.8045 7.33425 15.5651 8.5737 15.5651 10.1026H16.8651ZM18.3335 11.5711C17.5225 11.5711 16.8651 10.9136 16.8651 10.1026H15.5651C15.5651 11.6316 16.8045 12.871 18.3334 12.8711L18.3335 11.5711ZM18.9834 15.0386V12.2211H17.6834V15.0386H18.9834ZM17.3334 16.6886C18.2447 16.6886 18.9834 15.9498 18.9834 15.0386H17.6834C17.6834 15.2319 17.5267 15.3886 17.3334 15.3886V16.6886ZM2.66675 16.6886H17.3334V15.3886H2.66675V16.6886ZM1.01675 15.0386C1.01675 15.9498 1.75548 16.6886 2.66675 16.6886V15.3886C2.47345 15.3886 2.31675 15.2319 2.31675 15.0386H1.01675ZM1.01675 12.2211V15.0386H2.31675V12.2211H1.01675ZM1.66683 11.5711C1.66683 11.5711 1.66683 11.5711 1.66683 11.5711C1.66683 11.5711 1.66683 11.5711 1.66683 11.5711C1.66683 11.5711 1.66683 11.5711 1.66683 11.5711C1.66683 11.5711 1.66683 11.5711 1.66683 11.5711C1.66683 11.5711 1.66683 11.5711 1.66683 11.5711C1.66683 11.5711 1.66683 11.5711 1.66683 11.5711C1.66683 11.5711 1.66683 11.5711 1.66683 11.5711C1.66683 11.5711 1.66683 11.5711 1.66683 11.5711C1.66683 11.5711 1.66683 11.5711 1.66683 11.5711C1.66683 11.5711 1.66683 11.5711 1.66683 11.5711C1.66683 11.5711 1.66683 11.5711 1.66683 11.5711C1.66683 11.5711 1.66683 11.5711 1.66683 11.5711C1.66683 11.5711 1.66683 11.5711 1.66683 11.5711C1.66683 11.5711 1.66683 11.5711 1.66683 11.5711C1.66683 11.5711 1.66683 11.5711 1.66683 11.5711C1.66683 11.5711 1.66683 11.5711 1.66683 11.5711C1.66683 11.5711 1.66683 11.5711 1.66683 11.5711C1.66683 11.5711 1.66683 11.5711 1.66683 11.5711C1.66683 11.5711 1.66683 11.5711 1.66683 11.5711C1.66683 11.5711 1.66683 11.5711 1.66683 11.5711C1.66683 11.5711 1.66683 11.5711 1.66683 11.5711C1.66683 11.5711 1.66683 11.5711 1.66683 11.5711C1.66683 11.5711 1.66683 11.5711 1.66683 11.5711C1.66683 11.5711 1.66683 11.5711 1.66683 11.5711C1.66683 11.5711 1.66683 11.5711 1.66683 11.5711C1.66683 11.5711 1.66683 11.5711 1.66683 11.5711C1.66683 11.5711 1.66683 11.5711 1.66683 11.5711C1.66683 11.5711 1.66683 11.5711 1.66683 11.5711C1.66683 11.5711 1.66683 11.5711 1.66683 11.5711C1.66683 11.5711 1.66683 11.5711 1.66683 11.5711C1.66683 11.5711 1.66683 11.5711 1.66683 11.5711C1.66683 11.5711 1.66683 11.5711 1.66683 11.5711C1.66683 11.5711 1.66683 11.5711 1.66683 11.5711C1.66683 11.5711 1.66683 11.5711 1.66683 11.5711C1.66683 11.5711 1.66683 11.5711 1.66683 11.5711C1.66683 11.5711 1.66683 11.5711 1.66683 11.5711C1.66683 11.5711 1.66683 11.5711 1.66683 11.5711C1.66683 11.5711 1.66683 11.5711 1.66683 11.5711C1.66683 11.5711 1.66683 11.5711 1.66683 11.5711C1.66683 11.5711 1.66683 11.5711 1.66683 11.5711C1.66683 11.5711 1.66683 11.5711 1.66683 11.5711C1.66683 11.5711 1.66683 11.5711 1.66683 11.5711C1.66683 11.5711 1.66683 11.5711 1.66683 11.5711C1.66683 11.5711 1.66683 11.5711 1.66683 11.5711C1.66683 11.5711 1.66683 11.5711 1.66683 11.5711C1.66683 11.5711 1.66683 11.5711 1.66683 11.5711C1.66683 11.5711 1.66683 11.5711 1.66683 11.5711C1.66683 11.5711 1.66683 11.5711 1.66683 11.5711C1.66683 11.5711 1.66683 11.5711 1.66683 11.5711C1.66683 11.5711 1.66683 11.5711 1.66683 11.5711C1.66683 11.5711 1.66683 11.5711 1.66683 11.5711C1.66683 11.5711 1.66683 11.5711 1.66683 11.5711C1.66683 11.5711 1.66683 11.5711 1.66683 11.5711C1.66683 11.5711 1.66683 11.5711 1.66683 11.5711C1.66683 11.5711 1.66683 11.5711 1.66683 11.5711C1.66683 11.5711 1.66683 11.5711 1.66683 11.5711C1.66683 11.5711 1.66683 11.5711 1.66682 11.5711C1.66682 11.5711 1.66682 11.5711 1.66682 11.5711C1.66682 11.5711 1.66682 11.5711 1.66682 11.5711C1.66682 11.5711 1.66682 11.5711 1.66682 11.5711C1.66682 11.5711 1.66682 11.5711 1.66682 11.5711C1.66682 11.5711 1.66682 11.5711 1.66682 11.5711C1.66682 11.5711 1.66682 11.5711 1.66682 11.5711C1.66682 11.5711 1.66682 11.5711 1.66682 11.5711C1.66682 11.5711 1.66682 11.5711 1.66682 11.5711C1.66682 11.5711 1.66682 11.5711 1.66682 11.5711C1.66682 11.5711 1.66682 11.5711 1.66682 11.5711C1.66682 11.5711 1.66682 11.5711 1.66682 11.5711C1.66682 11.5711 1.66682 11.5711 1.66682 11.5711C1.66682 11.5711 1.66682 11.5711 1.66682 11.5711C1.66682 11.5711 1.66682 11.5711 1.66682 11.5711C1.66682 11.5711 1.66682 11.5711 1.66682 11.5711C1.66682 11.5711 1.66682 11.5711 1.66682 11.5711C1.66682 11.5711 1.66682 11.5711 1.66682 11.5711C1.66682 11.5711 1.66682 11.5711 1.66682 11.5711C1.66682 11.5711 1.66682 11.5711 1.66682 11.5711C1.66682 11.5711 1.66682 11.5711 1.66682 11.5711C1.66682 11.5711 1.66682 11.5711 1.66682 11.5711C1.66682 11.5711 1.66682 11.5711 1.66682 11.5711C1.66682 11.5711 1.66682 11.5711 1.66682 11.5711C1.66682 11.5711 1.66682 11.5711 1.66682 11.5711C1.66682 11.5711 1.66682 11.5711 1.66682 11.5711C1.66682 11.5711 1.66682 11.5711 1.66682 11.5711C1.66682 11.5711 1.66682 11.5711 1.66682 11.5711C1.66682 11.5711 1.66682 11.5711 1.66682 11.5711C1.66682 11.5711 1.66682 11.5711 1.66682 11.5711C1.66682 11.5711 1.66682 11.5711 1.66682 11.5711C1.66682 11.5711 1.66682 11.5711 1.66682 11.5711C1.66682 11.5711 1.66682 11.5711 1.66682 11.5711C1.66682 11.5711 1.66682 11.5711 1.66682 11.5711C1.66682 11.5711 1.66682 11.5711 1.66682 11.5711C1.66682 11.5711 1.66682 11.5711 1.66682 11.5711C1.66682 11.5711 1.66682 11.5711 1.66682 11.5711C1.66682 11.5711 1.66682 11.5711 1.66682 11.5711C1.66682 11.5711 1.66682 11.5711 1.66682 11.5711C1.66682 11.5711 1.66682 11.5711 1.66682 11.5711C1.66682 11.5711 1.66682 11.5711 1.66682 11.5711C1.66682 11.5711 1.66682 11.5711 1.66682 11.5711C1.66682 11.5711 1.66682 11.5711 1.66682 11.5711C1.66682 11.5711 1.66682 11.5711 1.66682 11.5711C1.66682 11.5711 1.66682 11.5711 1.66682 11.5711C1.66682 11.5711 1.66682 11.5711 1.66682 11.5711C1.66682 11.5711 1.66682 11.5711 1.66682 11.5711C1.66682 11.5711 1.66682 11.5711 1.66682 11.5711C1.66682 11.5711 1.66682 11.5711 1.66682 11.5711C1.66682 11.5711 1.66682 11.5711 1.66682 11.5711C1.66682 11.5711 1.66682 11.5711 1.66682 11.5711C1.66682 11.5711 1.66682 11.5711 1.66682 11.5711C1.66682 11.5711 1.66682 11.5711 1.66682 11.5711C1.66682 11.5711 1.66682 11.5711 1.66682 11.5711C1.66682 11.5711 1.66682 11.5711 1.66682 11.5711C1.66682 11.5711 1.66682 11.5711 1.66682 11.5711C1.66682 11.5711 1.66682 11.5711 1.66682 11.5711C1.66682 11.5711 1.66682 11.5711 1.66682 11.5711C1.66682 11.5711 1.66682 11.5711 1.66682 11.5711C1.66682 11.5711 1.66682 11.5711 1.66681 11.5711C1.66681 11.5711 1.66681 11.5711 1.66681 11.5711C1.66681 11.5711 1.66681 11.5711 1.66681 11.5711C1.66681 11.5711 1.66681 11.5711 1.66681 11.5711C1.66681 11.5711 1.66681 11.5711 1.66681 11.5711C1.66681 11.5711 1.66681 11.5711 1.66681 11.5711C1.66681 11.5711 1.66681 11.5711 1.66681 11.5711C1.66681 11.5711 1.66681 11.5711 1.66681 11.5711C1.66681 11.5711 1.66681 11.5711 1.66681 11.5711C1.66681 11.5711 1.66681 11.5711 1.66681 11.5711C1.66681 11.5711 1.66681 11.5711 1.66681 11.5711C1.66681 11.5711 1.66681 11.5711 1.66681 11.5711C1.66681 11.5711 1.66681 11.5711 1.66681 11.5711C1.66681 11.5711 1.66681 11.5711 1.66681 11.5711C1.66681 11.5711 1.66681 11.5711 1.66681 11.5711C1.66681 11.5711 1.66681 11.5711 1.66681 11.5711C1.66681 11.5711 1.66681 11.5711 1.66681 11.5711C1.66681 11.5711 1.66681 11.5711 1.66681 11.5711C1.66681 11.5711 1.66681 11.5711 1.66681 11.5711C1.66681 11.5711 1.66681 11.5711 1.66681 11.5711C1.66681 11.5711 1.66681 11.5711 1.66681 11.5711C1.66681 11.5711 1.66681 11.5711 1.66681 11.5711C1.66681 11.5711 1.66681 11.5711 1.66681 11.5711C1.66681 11.5711 1.66681 11.5711 1.66681 11.5711C1.66681 11.5711 1.66681 11.5711 1.66681 11.5711C1.66681 11.5711 1.66681 11.5711 1.66681 11.5711C1.66681 11.5711 1.66681 11.5711 1.66681 11.5711C1.66681 11.5711 1.66681 11.5711 1.66681 11.5711C1.66681 11.5711 1.66681 11.5711 1.66681 11.5711C1.66681 11.5711 1.66681 11.5711 1.66681 11.5711C1.66681 11.5711 1.66681 11.5711 1.66681 11.5711C1.66681 11.5711 1.66681 11.5711 1.66681 11.5711C1.66681 11.5711 1.66681 11.5711 1.66681 11.5711C1.66681 11.5711 1.66681 11.5711 1.66681 11.5711C1.66681 11.5711 1.66681 11.5711 1.66681 11.5711C1.66681 11.5711 1.66681 11.5711 1.66681 11.5711C1.66681 11.5711 1.66681 11.5711 1.66681 11.5711C1.66681 11.5711 1.66681 11.5711 1.66681 11.5711C1.66681 11.5711 1.66681 11.5711 1.66681 11.5711C1.66681 11.5711 1.66681 11.5711 1.66681 11.5711C1.66681 11.5711 1.66681 11.5711 1.66681 11.5711C1.66681 11.5711 1.66681 11.5711 1.66681 11.5711C1.66681 11.5711 1.66681 11.5711 1.66681 11.5711C1.66681 11.5711 1.66681 11.5711 1.66681 11.5711C1.66681 11.5711 1.66681 11.5711 1.66681 11.5711C1.66681 11.5711 1.66681 11.5711 1.66681 11.5711C1.66681 11.5711 1.66681 11.5711 1.66681 11.5711C1.66681 11.5711 1.66681 11.5711 1.66681 11.5711C1.66681 11.5711 1.66681 11.5711 1.66681 11.5711C1.66681 11.5711 1.66681 11.5711 1.66681 11.5711C1.66681 11.5711 1.66681 11.5711 1.66681 11.5711C1.66681 11.5711 1.66681 11.5711 1.66681 11.5711C1.66681 11.5711 1.66681 11.5711 1.66681 11.5711C1.66681 11.5711 1.66681 11.5711 1.66681 11.5711C1.66681 11.5711 1.66681 11.5711 1.66681 11.5711C1.66681 11.5711 1.66681 11.5711 1.66681 11.5711C1.66681 11.5711 1.66681 11.5711 1.66681 11.5711C1.66681 11.5711 1.66681 11.5711 1.66681 11.5711C1.66681 11.5711 1.66681 11.5711 1.66681 11.5711C1.66681 11.5711 1.66681 11.5711 1.66681 11.5711C1.6668 11.5711 1.6668 11.5711 1.6668 11.5711C1.6668 11.5711 1.6668 11.5711 1.6668 11.5711C1.6668 11.5711 1.6668 11.5711 1.6668 11.5711C1.6668 11.5711 1.6668 11.5711 1.6668 11.5711C1.6668 11.5711 1.6668 11.5711 1.6668 11.5711C1.6668 11.5711 1.6668 11.5711 1.6668 11.5711C1.6668 11.5711 1.6668 11.5711 1.6668 11.5711C1.6668 11.5711 1.6668 11.5711 1.6668 11.5711C1.6668 11.5711 1.6668 11.5711 1.6668 11.5711C1.6668 11.5711 1.6668 11.5711 1.6668 11.5711C1.6668 11.5711 1.6668 11.5711 1.6668 11.5711C1.6668 11.5711 1.6668 11.5711 1.6668 11.5711C1.6668 11.5711 1.6668 11.5711 1.6668 11.5711C1.6668 11.5711 1.6668 11.5711 1.6668 11.5711C1.6668 11.5711 1.6668 11.5711 1.6668 11.5711C1.6668 11.5711 1.6668 11.5711 1.6668 11.5711C1.6668 11.5711 1.6668 11.5711 1.6668 11.5711C1.6668 11.5711 1.6668 11.5711 1.6668 11.5711C1.6668 11.5711 1.6668 11.5711 1.6668 11.5711C1.6668 11.5711 1.6668 11.5711 1.6668 11.5711C1.6668 11.5711 1.6668 11.5711 1.6668 11.5711C1.6668 11.5711 1.6668 11.5711 1.6668 11.5711C1.6668 11.5711 1.6668 11.5711 1.6668 11.5711C1.6668 11.5711 1.6668 11.5711 1.6668 11.5711C1.6668 11.5711 1.6668 11.5711 1.6668 11.5711C1.6668 11.5711 1.6668 11.5711 1.6668 11.5711C1.6668 11.5711 1.6668 11.5711 1.6668 11.5711C1.6668 11.5711 1.6668 11.5711 1.6668 11.5711C1.6668 11.5711 1.6668 11.5711 1.6668 11.5711C1.6668 11.5711 1.6668 11.5711 1.6668 11.5711C1.6668 11.5711 1.6668 11.5711 1.6668 11.5711C1.6668 11.5711 1.6668 11.5711 1.6668 11.5711C1.6668 11.5711 1.6668 11.5711 1.6668 11.5711C1.6668 11.5711 1.6668 11.5711 1.6668 11.5711C1.6668 11.5711 1.6668 11.5711 1.6668 11.5711C1.6668 11.5711 1.6668 11.5711 1.6668 11.5711C1.6668 11.5711 1.6668 11.5711 1.6668 11.5711C1.6668 11.5711 1.6668 11.5711 1.6668 11.5711C1.6668 11.5711 1.6668 11.5711 1.6668 11.5711C1.6668 11.5711 1.6668 11.5711 1.6668 11.5711C1.6668 11.5711 1.6668 11.5711 1.6668 11.5711C1.6668 11.5711 1.6668 11.5711 1.6668 11.5711C1.6668 11.5711 1.6668 11.5711 1.6668 11.5711C1.6668 11.5711 1.6668 11.5711 1.6668 11.5711C1.6668 11.5711 1.6668 11.5711 1.6668 11.5711C1.6668 11.5711 1.6668 11.5711 1.6668 11.5711C1.6668 11.5711 1.6668 11.5711 1.6668 11.5711C1.6668 11.5711 1.6668 11.5711 1.6668 11.5711C1.6668 11.5711 1.6668 11.5711 1.6668 11.5711C1.6668 11.5711 1.6668 11.5711 1.6668 11.5711C1.6668 11.5711 1.6668 11.5711 1.6668 11.5711C1.6668 11.5711 1.6668 11.5711 1.6668 11.5711C1.6668 11.5711 1.6668 11.5711 1.6668 11.5711C1.6668 11.5711 1.6668 11.5711 1.6668 11.5711C1.6668 11.5711 1.6668 11.5711 1.6668 11.5711C1.6668 11.5711 1.6668 11.5711 1.6668 11.5711C1.6668 11.5711 1.6668 11.5711 1.6668 11.5711C1.6668 11.5711 1.6668 11.5711 1.6668 11.5711C1.6668 11.5711 1.6668 11.5711 1.6668 11.5711C1.66679 11.5711 1.66679 11.5711 1.66679 11.5711C1.66679 11.5711 1.66679 11.5711 1.66679 11.5711C1.66679 11.5711 1.66679 11.5711 1.66679 11.5711C1.66679 11.5711 1.66679 11.5711 1.66679 11.5711C1.66679 11.5711 1.66679 11.5711 1.66679 11.5711C1.66679 11.5711 1.66679 11.5711 1.66679 11.5711C1.66679 11.5711 1.66679 11.5711 1.66679 11.5711C1.66679 11.5711 1.66679 11.5711 1.66679 11.5711C1.66679 11.5711 1.66679 11.5711 1.66679 11.5711C1.66679 11.5711 1.66679 11.5711 1.66679 11.5711C1.66679 11.5711 1.66679 11.5711 1.66679 11.5711C1.66679 11.5711 1.66679 11.5711 1.66679 11.5711C1.66679 11.5711 1.66679 11.5711 1.66679 11.5711C1.66679 11.5711 1.66679 11.5711 1.66679 11.5711C1.66679 11.5711 1.66679 11.5711 1.66679 11.5711C1.66679 11.5711 1.66679 11.5711 1.66679 11.5711C1.66679 11.5711 1.66679 11.5711 1.66679 11.5711C1.66679 11.5711 1.66679 11.5711 1.66679 11.5711C1.66679 11.5711 1.66679 11.5711 1.66679 11.5711C1.66679 11.5711 1.66679 11.5711 1.66679 11.5711C1.66679 11.5711 1.66679 11.5711 1.66679 11.5711C1.66679 11.5711 1.66679 11.5711 1.66679 11.5711C1.66679 11.5711 1.66679 11.5711 1.66679 11.5711C1.66679 11.5711 1.66679 11.5711 1.66679 11.5711C1.66679 11.5711 1.66679 11.5711 1.66679 11.5711C1.66679 11.5711 1.66679 11.5711 1.66679 11.5711C1.66679 11.5711 1.66679 11.5711 1.66679 11.5711C1.66679 11.5711 1.66679 11.5711 1.66679 11.5711C1.66679 11.5711 1.66679 11.5711 1.66679 11.5711C1.66679 11.5711 1.66679 11.5711 1.66679 11.5711C1.66679 11.5711 1.66679 11.5711 1.66679 11.5711C1.66679 11.5711 1.66679 11.5711 1.66679 11.5711C1.66679 11.5711 1.66679 11.5711 1.66679 11.5711C1.66679 11.5711 1.66679 11.5711 1.66679 11.5711C1.66679 11.5711 1.66679 11.5711 1.66679 11.5711C1.66679 11.5711 1.66679 11.5711 1.66679 11.5711C1.66679 11.5711 1.66679 11.5711 1.66679 11.5711C1.66679 11.5711 1.66679 11.5711 1.66679 11.5711C1.66679 11.5711 1.66679 11.5711 1.66679 11.5711C1.66679 11.5711 1.66679 11.5711 1.66679 11.5711C1.66679 11.5711 1.66679 11.5711 1.66679 11.5711C1.66679 11.5711 1.66679 11.5711 1.66679 11.5711C1.66679 11.5711 1.66679 11.5711 1.66679 11.5711C1.66679 11.5711 1.66679 11.5711 1.66679 11.5711C1.66679 11.5711 1.66679 11.5711 1.66679 11.5711C1.66679 11.5711 1.66679 11.5711 1.66679 11.5711C1.66679 11.5711 1.66679 11.5711 1.66679 11.5711C1.66679 11.5711 1.66679 11.5711 1.66679 11.5711C1.66679 11.5711 1.66679 11.5711 1.66679 11.5711C1.66679 11.5711 1.66679 11.5711 1.66679 11.5711C1.66679 11.5711 1.66679 11.5711 1.66679 11.5711C1.66679 11.5711 1.66679 11.5711 1.66679 11.5711C1.66679 11.5711 1.66679 11.5711 1.66679 11.5711C1.66679 11.5711 1.66679 11.5711 1.66679 11.5711C1.66679 11.5711 1.66679 11.5711 1.66679 11.5711C1.66679 11.5711 1.66679 11.5711 1.66679 11.5711C1.66679 11.5711 1.66679 11.5711 1.66679 11.5711C1.66679 11.5711 1.66679 11.5711 1.66679 11.5711C1.66679 11.5711 1.66679 11.5711 1.66679 11.5711C1.66679 11.5711 1.66678 11.5711 1.66678 11.5711C1.66678 11.5711 1.66678 11.5711 1.66678 11.5711C1.66678 11.5711 1.66678 11.5711 1.66678 11.5711C1.66678 11.5711 1.66678 11.5711 1.66678 11.5711C1.66678 11.5711 1.66678 11.5711 1.66678 11.5711C1.66678 11.5711 1.66678 11.5711 1.66678 11.5711C1.66678 11.5711 1.66678 11.5711 1.66678 11.5711C1.66678 11.5711 1.66678 11.5711 1.66678 11.5711C1.66678 11.5711 1.66678 11.5711 1.66678 11.5711C1.66678 11.5711 1.66678 11.5711 1.66678 11.5711C1.66678 11.5711 1.66678 11.5711 1.66678 11.5711C1.66678 11.5711 1.66678 11.5711 1.66678 11.5711C1.66678 11.5711 1.66678 11.5711 1.66678 11.5711C1.66678 11.5711 1.66678 11.5711 1.66678 11.5711C1.66678 11.5711 1.66678 11.5711 1.66678 11.5711C1.66678 11.5711 1.66678 11.5711 1.66678 11.5711C1.66678 11.5711 1.66678 11.5711 1.66678 11.5711C1.66678 11.5711 1.66678 11.5711 1.66678 11.5711C1.66678 11.5711 1.66678 11.5711 1.66678 11.5711C1.66678 11.5711 1.66678 11.5711 1.66678 11.5711C1.66678 11.5711 1.66678 11.5711 1.66678 11.5711C1.66678 11.5711 1.66678 11.5711 1.66678 11.5711C1.66678 11.5711 1.66678 11.5711 1.66678 11.5711C1.66678 11.5711 1.66678 11.5711 1.66678 11.5711C1.66678 11.5711 1.66678 11.5711 1.66678 11.5711C1.66678 11.5711 1.66678 11.5711 1.66678 11.5711C1.66678 11.5711 1.66678 11.5711 1.66678 11.5711C1.66678 11.5711 1.66678 11.5711 1.66678 11.5711C1.66678 11.5711 1.66678 11.5711 1.66678 11.5711C1.66678 11.5711 1.66678 11.5711 1.66678 11.5711C1.66678 11.5711 1.66678 11.5711 1.66678 11.5711C1.66678 11.5711 1.66678 11.5711 1.66678 11.5711C1.66678 11.5711 1.66678 11.5711 1.66678 11.5711C1.66678 11.5711 1.66678 11.5711 1.66678 11.5711C1.66678 11.5711 1.66678 11.5711 1.66678 11.5711C1.66678 11.5711 1.66678 11.5711 1.66678 11.5711C1.66678 11.5711 1.66678 11.5711 1.66678 11.5711C1.66678 11.5711 1.66678 11.5711 1.66678 11.5711C1.66678 11.5711 1.66678 11.5711 1.66678 11.5711C1.66678 11.5711 1.66678 11.5711 1.66678 11.5711C1.66678 11.5711 1.66678 11.5711 1.66678 11.5711C1.66678 11.5711 1.66678 11.5711 1.66678 11.5711C1.66678 11.5711 1.66678 11.5711 1.66678 11.5711C1.66678 11.5711 1.66678 11.5711 1.66678 11.5711C1.66678 11.5711 1.66678 11.5711 1.66678 11.5711C1.66678 11.5711 1.66678 11.5711 1.66678 11.5711C1.66678 11.5711 1.66678 11.5711 1.66678 11.5711C1.66678 11.5711 1.66678 11.5711 1.66678 11.5711C1.66678 11.5711 1.66678 11.5711 1.66678 11.5711C1.66678 11.5711 1.66678 11.5711 1.66678 11.5711C1.66678 11.5711 1.66678 11.5711 1.66678 11.5711C1.66678 11.5711 1.66678 11.5711 1.66678 11.5711C1.66678 11.5711 1.66678 11.5711 1.66678 11.5711C1.66678 11.5711 1.66678 11.5711 1.66678 11.5711C1.66678 11.5711 1.66678 11.5711 1.66678 11.5711C1.66678 11.5711 1.66678 11.5711 1.66678 11.5711C1.66678 11.5711 1.66678 11.5711 1.66678 11.5711C1.66678 11.5711 1.66678 11.5711 1.66678 11.5711C1.66678 11.5711 1.66678 11.5711 1.66678 11.5711C1.66678 11.5711 1.66677 11.5711 1.66677 11.5711C1.66677 11.5711 1.66677 11.5711 1.66677 11.5711C1.66677 11.5711 1.66677 11.5711 1.66677 11.5711C1.66677 11.5711 1.66677 11.5711 1.66677 11.5711C1.66677 11.5711 1.66677 11.5711 1.66677 11.5711C1.66677 11.5711 1.66677 11.5711 1.66677 11.5711C1.66677 11.5711 1.66677 11.5711 1.66677 11.5711C1.66677 11.5711 1.66677 11.5711 1.66677 11.5711C1.66677 11.5711 1.66677 11.5711 1.66677 11.5711C1.66677 11.5711 1.66677 11.5711 1.66677 11.5711C1.66677 11.5711 1.66677 11.5711 1.66677 11.5711C1.66677 11.5711 1.66677 11.5711 1.66677 11.5711C1.66677 11.5711 1.66677 11.5711 1.66677 11.5711C1.66677 11.5711 1.66677 11.5711 1.66677 11.5711C1.66677 11.5711 1.66677 11.5711 1.66677 11.5711C1.66677 11.5711 1.66677 11.5711 1.66677 11.5711C1.66677 11.5711 1.66677 11.5711 1.66677 11.5711C1.66677 11.5711 1.66677 11.5711 1.66677 11.5711C1.66677 11.5711 1.66677 11.5711 1.66677 11.5711C1.66677 11.5711 1.66677 11.5711 1.66677 11.5711C1.66677 11.5711 1.66677 11.5711 1.66677 11.5711C1.66677 11.5711 1.66677 11.5711 1.66677 11.5711C1.66677 11.5711 1.66677 11.5711 1.66677 11.5711C1.66677 11.5711 1.66677 11.5711 1.66677 11.5711C1.66677 11.5711 1.66677 11.5711 1.66677 11.5711C1.66677 11.5711 1.66677 11.5711 1.66677 11.5711C1.66677 11.5711 1.66677 11.5711 1.66677 11.5711C1.66677 11.5711 1.66677 11.5711 1.66677 11.5711C1.66677 11.5711 1.66677 11.5711 1.66677 11.5711C1.66677 11.5711 1.66677 11.5711 1.66677 11.5711C1.66677 11.5711 1.66677 11.5711 1.66677 11.5711C1.66677 11.5711 1.66677 11.5711 1.66677 11.5711C1.66677 11.5711 1.66677 11.5711 1.66677 11.5711C1.66677 11.5711 1.66677 11.5711 1.66677 11.5711C1.66677 11.5711 1.66677 11.5711 1.66677 11.5711C1.66677 11.5711 1.66677 11.5711 1.66677 11.5711C1.66677 11.5711 1.66677 11.5711 1.66677 11.5711C1.66677 11.5711 1.66677 11.5711 1.66677 11.5711C1.66677 11.5711 1.66677 11.5711 1.66677 11.5711C1.66677 11.5711 1.66677 11.5711 1.66677 11.5711C1.66677 11.5711 1.66677 11.5711 1.66677 11.5711C1.66677 11.5711 1.66677 11.5711 1.66677 11.5711C1.66677 11.5711 1.66677 11.5711 1.66677 11.5711C1.66677 11.5711 1.66677 11.5711 1.66677 11.5711C1.66677 11.5711 1.66677 11.5711 1.66677 11.5711C1.66677 11.5711 1.66677 11.5711 1.66677 11.5711C1.66677 11.5711 1.66677 11.5711 1.66677 11.5711C1.66677 11.5711 1.66677 11.5711 1.66677 11.5711C1.66677 11.5711 1.66677 11.5711 1.66677 11.5711C1.66677 11.5711 1.66677 11.5711 1.66677 11.5711C1.66677 11.5711 1.66677 11.5711 1.66677 11.5711C1.66677 11.5711 1.66677 11.5711 1.66677 11.5711C1.66677 11.5711 1.66677 11.5711 1.66677 11.5711C1.66677 11.5711 1.66677 11.5711 1.66677 11.5711C1.66677 11.5711 1.66677 11.5711 1.66677 11.5711C1.66677 11.5711 1.66677 11.5711 1.66677 11.5711C1.66677 11.5711 1.66677 11.5711 1.66677 11.5711C1.66677 11.5711 1.66677 11.5711 1.66677 11.5711C1.66677 11.5711 1.66677 11.5711 1.66677 11.5711C1.66677 11.5711 1.66677 11.5711 1.66676 11.5711C1.66676 11.5711 1.66676 11.5711 1.66676 11.5711C1.66676 11.5711 1.66676 11.5711 1.66676 11.5711C1.66676 11.5711 1.66676 11.5711 1.66676 11.5711C1.66676 11.5711 1.66676 11.5711 1.66676 11.5711C1.66676 11.5711 1.66676 11.5711 1.66676 11.5711C1.66676 11.5711 1.66676 11.5711 1.66676 11.5711C1.66676 11.5711 1.66676 11.5711 1.66676 11.5711C1.66676 11.5711 1.66676 11.5711 1.66676 11.5711C1.66676 11.5711 1.66676 11.5711 1.66676 11.5711C1.66676 11.5711 1.66676 11.5711 1.66676 11.5711C1.66676 11.5711 1.66676 11.5711 1.66676 11.5711C1.66676 11.5711 1.66676 11.5711 1.66676 11.5711C1.66676 11.5711 1.66676 11.5711 1.66676 11.5711C1.66676 11.5711 1.66676 11.5711 1.66676 11.5711C1.66676 11.5711 1.66676 11.5711 1.66676 11.5711C1.66676 11.5711 1.66676 11.5711 1.66676 11.5711C1.66676 11.5711 1.66676 11.5711 1.66676 11.5711C1.66676 11.5711 1.66676 11.5711 1.66676 11.5711C1.66676 11.5711 1.66676 11.5711 1.66676 11.5711C1.66676 11.5711 1.66676 11.5711 1.66676 11.5711C1.66676 11.5711 1.66676 11.5711 1.66676 11.5711C1.66676 11.5711 1.66676 11.5711 1.66676 11.5711C1.66676 11.5711 1.66676 11.5711 1.66676 11.5711C1.66676 11.5711 1.66676 11.5711 1.66676 11.5711C1.66676 11.5711 1.66676 11.5711 1.66676 11.5711C1.66676 11.5711 1.66676 11.5711 1.66676 11.5711C1.66676 11.5711 1.66676 11.5711 1.66676 11.5711C1.66676 11.5711 1.66676 11.5711 1.66676 11.5711C1.66676 11.5711 1.66676 11.5711 1.66676 11.5711C1.66676 11.5711 1.66676 11.5711 1.66676 11.5711C1.66676 11.5711 1.66676 11.5711 1.66676 11.5711C1.66676 11.5711 1.66676 11.5711 1.66676 11.5711C1.66676 11.5711 1.66676 11.5711 1.66676 11.5711C1.66676 11.5711 1.66676 11.5711 1.66676 11.5711C1.66676 11.5711 1.66676 11.5711 1.66676 11.5711C1.66676 11.5711 1.66676 11.5711 1.66676 11.5711C1.66676 11.5711 1.66676 11.5711 1.66676 11.5711C1.66676 11.5711 1.66676 11.5711 1.66676 11.5711C1.66676 11.5711 1.66676 11.5711 1.66676 11.5711C1.66676 11.5711 1.66676 11.5711 1.66676 11.5711C1.66676 11.5711 1.66676 11.5711 1.66676 11.5711C1.66676 11.5711 1.66676 11.5711 1.66676 11.5711C1.66676 11.5711 1.66676 11.5711 1.66676 11.5711C1.66676 11.5711 1.66676 11.5711 1.66676 11.5711C1.66676 11.5711 1.66676 11.5711 1.66676 11.5711C1.66676 11.5711 1.66676 11.5711 1.66676 11.5711C1.66676 11.5711 1.66676 11.5711 1.66676 11.5711C1.66676 11.5711 1.66676 11.5711 1.66676 11.5711C1.66676 11.5711 1.66676 11.5711 1.66676 11.5711C1.66676 11.5711 1.66676 11.5711 1.66676 11.5711C1.66676 11.5711 1.66676 11.5711 1.66676 11.5711C1.66676 11.5711 1.66676 11.5711 1.66676 11.5711C1.66676 11.5711 1.66676 11.5711 1.66676 11.5711C1.66676 11.5711 1.66676 11.5711 1.66676 11.5711C1.66676 11.5711 1.66676 11.5711 1.66676 11.5711C1.66676 11.5711 1.66676 11.5711 1.66676 11.5711C1.66676 11.5711 1.66676 11.5711 1.66676 11.5711C1.66676 11.5711 1.66676 11.5711 1.66676 11.5711C1.66676 11.5711 1.66676 11.5711 1.66675 11.5711C1.66675 11.5711 1.66675 11.5711 1.66675 11.5711C1.66675 11.5711 1.66675 11.5711 1.66675 11.5711C1.66675 11.5711 1.66675 11.5711 1.66675 11.5711C1.66675 11.5711 1.66675 11.5711 1.66675 11.5711C1.66675 11.5711 1.66675 11.5711 1.66675 11.5711C1.66675 11.5711 1.66675 11.5711 1.66675 11.5711C1.66675 11.5711 1.66675 11.5711 1.66675 11.5711C1.66675 11.5711 1.66675 11.5711 1.66675 11.5711C1.66675 11.5711 1.66675 11.5711 1.66675 11.5711C1.66675 11.5711 1.66675 11.5711 1.66675 11.5711C1.66675 11.5711 1.66675 11.5711 1.66675 11.5711C1.66675 11.5711 1.66675 11.5711 1.66675 11.5711C1.66675 11.5711 1.66675 11.5711 1.66675 11.5711C1.66675 11.5711 1.66675 11.5711 1.66675 11.5711C1.66675 11.5711 1.66675 11.5711 1.66675 11.5711C1.66675 11.5711 1.66675 11.5711 1.66675 11.5711C1.66675 11.5711 1.66675 11.5711 1.66675 11.5711C1.66675 11.5711 1.66675 11.5711 1.66675 11.5711C1.66675 11.5711 1.66675 11.5711 1.66675 11.5711C1.66675 11.5711 1.66675 11.5711 1.66675 11.5711C1.66675 11.5711 1.66675 11.5711 1.66675 11.5711C1.66675 11.5711 1.66675 11.5711 1.66675 11.5711C1.66675 11.5711 1.66675 11.5711 1.66675 11.5711C1.66675 11.5711 1.66675 11.5711 1.66675 11.5711C1.66675 11.5711 1.66675 11.5711 1.66675 11.5711C1.66675 11.5711 1.66675 11.5711 1.66675 11.5711C1.66675 11.5711 1.66675 11.5711 1.66675 11.5711C1.66675 11.5711 1.66675 11.5711 1.66675 11.5711C1.66675 11.5711 1.66675 11.5711 1.66675 11.5711C1.66675 11.5711 1.66675 11.5711 1.66675 11.5711C1.66675 11.5711 1.66675 11.5711 1.66675 11.5711C1.66675 11.5711 1.66675 11.5711 1.66675 11.5711C1.66675 11.5711 1.66675 11.5711 1.66675 11.5711C1.66675 11.5711 1.66675 11.5711 1.66675 11.5711C1.66675 11.5711 1.66675 11.5711 1.66675 11.5711C1.66675 11.5711 1.66675 11.5711 1.66675 11.5711C1.66675 11.5711 1.66675 11.5711 1.66675 11.5711C1.66675 11.5711 1.66675 11.5711 1.66675 11.5711C1.66675 11.5711 1.66675 11.5711 1.66675 11.5711C1.66675 11.5711 1.66675 11.5711 1.66675 11.5711C1.66675 11.5711 1.66675 11.5711 1.66675 11.5711V12.8711C1.66675 12.8711 1.66675 12.8711 1.66675 12.8711C1.66675 12.8711 1.66675 12.8711 1.66675 12.8711C1.66675 12.8711 1.66675 12.8711 1.66675 12.8711C1.66675 12.8711 1.66675 12.8711 1.66675 12.8711C1.66675 12.8711 1.66675 12.8711 1.66675 12.8711C1.66675 12.8711 1.66675 12.8711 1.66675 12.8711C1.66675 12.8711 1.66675 12.8711 1.66675 12.8711C1.66675 12.8711 1.66675 12.8711 1.66675 12.8711C1.66675 12.8711 1.66675 12.8711 1.66675 12.8711C1.66675 12.8711 1.66675 12.8711 1.66675 12.8711C1.66675 12.8711 1.66675 12.8711 1.66675 12.8711C1.66675 12.8711 1.66675 12.8711 1.66675 12.8711C1.66675 12.8711 1.66675 12.8711 1.66675 12.8711C1.66675 12.8711 1.66675 12.8711 1.66675 12.8711C1.66675 12.8711 1.66675 12.8711 1.66675 12.8711C1.66675 12.8711 1.66675 12.8711 1.66675 12.8711C1.66675 12.8711 1.66675 12.8711 1.66675 12.8711C1.66675 12.8711 1.66675 12.8711 1.66675 12.8711C1.66675 12.8711 1.66675 12.8711 1.66675 12.8711C1.66675 12.8711 1.66675 12.8711 1.66675 12.8711C1.66675 12.8711 1.66675 12.8711 1.66675 12.8711C1.66675 12.8711 1.66675 12.8711 1.66675 12.8711C1.66675 12.8711 1.66675 12.8711 1.66675 12.8711C1.66675 12.8711 1.66675 12.8711 1.66675 12.8711C1.66675 12.8711 1.66675 12.8711 1.66675 12.8711C1.66675 12.8711 1.66675 12.8711 1.66675 12.8711C1.66675 12.8711 1.66675 12.8711 1.66675 12.8711C1.66675 12.8711 1.66675 12.8711 1.66675 12.8711C1.66675 12.8711 1.66675 12.8711 1.66675 12.8711C1.66675 12.8711 1.66675 12.8711 1.66675 12.8711C1.66675 12.8711 1.66675 12.8711 1.66675 12.8711C1.66675 12.8711 1.66675 12.8711 1.66675 12.8711C1.66675 12.8711 1.66675 12.8711 1.66675 12.8711C1.66675 12.8711 1.66675 12.8711 1.66675 12.8711C1.66675 12.8711 1.66675 12.8711 1.66675 12.8711C1.66675 12.8711 1.66675 12.8711 1.66675 12.8711C1.66675 12.8711 1.66675 12.8711 1.66675 12.8711C1.66675 12.8711 1.66675 12.8711 1.66675 12.8711C1.66675 12.8711 1.66675 12.8711 1.66675 12.8711C1.66675 12.8711 1.66675 12.8711 1.66675 12.8711C1.66675 12.8711 1.66675 12.8711 1.66675 12.8711C1.66676 12.8711 1.66676 12.8711 1.66676 12.8711C1.66676 12.8711 1.66676 12.8711 1.66676 12.8711C1.66676 12.8711 1.66676 12.8711 1.66676 12.8711C1.66676 12.8711 1.66676 12.8711 1.66676 12.8711C1.66676 12.8711 1.66676 12.8711 1.66676 12.8711C1.66676 12.8711 1.66676 12.8711 1.66676 12.8711C1.66676 12.8711 1.66676 12.8711 1.66676 12.8711C1.66676 12.8711 1.66676 12.8711 1.66676 12.8711C1.66676 12.8711 1.66676 12.8711 1.66676 12.8711C1.66676 12.8711 1.66676 12.8711 1.66676 12.8711C1.66676 12.8711 1.66676 12.8711 1.66676 12.8711C1.66676 12.8711 1.66676 12.8711 1.66676 12.8711C1.66676 12.8711 1.66676 12.8711 1.66676 12.8711C1.66676 12.8711 1.66676 12.8711 1.66676 12.8711C1.66676 12.8711 1.66676 12.8711 1.66676 12.8711C1.66676 12.8711 1.66676 12.8711 1.66676 12.8711C1.66676 12.8711 1.66676 12.8711 1.66676 12.8711C1.66676 12.8711 1.66676 12.8711 1.66676 12.8711C1.66676 12.8711 1.66676 12.8711 1.66676 12.8711C1.66676 12.8711 1.66676 12.8711 1.66676 12.8711C1.66676 12.8711 1.66676 12.8711 1.66676 12.8711C1.66676 12.8711 1.66676 12.8711 1.66676 12.8711C1.66676 12.8711 1.66676 12.8711 1.66676 12.8711C1.66676 12.8711 1.66676 12.8711 1.66676 12.8711C1.66676 12.8711 1.66676 12.8711 1.66676 12.8711C1.66676 12.8711 1.66676 12.8711 1.66676 12.8711C1.66676 12.8711 1.66676 12.8711 1.66676 12.8711C1.66676 12.8711 1.66676 12.8711 1.66676 12.8711C1.66676 12.8711 1.66676 12.8711 1.66676 12.8711C1.66676 12.8711 1.66676 12.8711 1.66676 12.8711C1.66676 12.8711 1.66676 12.8711 1.66676 12.8711C1.66676 12.8711 1.66676 12.8711 1.66676 12.8711C1.66676 12.8711 1.66676 12.8711 1.66676 12.8711C1.66676 12.8711 1.66676 12.8711 1.66676 12.8711C1.66676 12.8711 1.66676 12.8711 1.66676 12.8711C1.66676 12.8711 1.66676 12.8711 1.66676 12.8711C1.66676 12.8711 1.66676 12.8711 1.66676 12.8711C1.66676 12.8711 1.66676 12.8711 1.66676 12.8711C1.66676 12.8711 1.66676 12.8711 1.66676 12.8711C1.66676 12.8711 1.66676 12.8711 1.66676 12.8711C1.66676 12.8711 1.66676 12.8711 1.66676 12.8711C1.66676 12.8711 1.66676 12.8711 1.66676 12.8711C1.66676 12.8711 1.66676 12.8711 1.66676 12.8711C1.66676 12.8711 1.66676 12.8711 1.66676 12.8711C1.66676 12.8711 1.66676 12.8711 1.66676 12.8711C1.66676 12.8711 1.66676 12.8711 1.66676 12.8711C1.66676 12.8711 1.66676 12.8711 1.66676 12.8711C1.66676 12.8711 1.66676 12.8711 1.66676 12.8711C1.66676 12.8711 1.66676 12.8711 1.66676 12.8711C1.66676 12.8711 1.66676 12.8711 1.66676 12.8711C1.66676 12.8711 1.66676 12.8711 1.66676 12.8711C1.66676 12.8711 1.66676 12.8711 1.66676 12.8711C1.66676 12.8711 1.66676 12.8711 1.66676 12.8711C1.66676 12.8711 1.66676 12.8711 1.66676 12.8711C1.66676 12.8711 1.66676 12.8711 1.66676 12.8711C1.66676 12.8711 1.66676 12.8711 1.66676 12.8711C1.66676 12.8711 1.66676 12.8711 1.66676 12.8711C1.66676 12.8711 1.66676 12.8711 1.66676 12.8711C1.66676 12.8711 1.66676 12.8711 1.66676 12.8711C1.66677 12.8711 1.66677 12.8711 1.66677 12.8711C1.66677 12.8711 1.66677 12.8711 1.66677 12.8711C1.66677 12.8711 1.66677 12.8711 1.66677 12.8711C1.66677 12.8711 1.66677 12.8711 1.66677 12.8711C1.66677 12.8711 1.66677 12.8711 1.66677 12.8711C1.66677 12.8711 1.66677 12.8711 1.66677 12.8711C1.66677 12.8711 1.66677 12.8711 1.66677 12.8711C1.66677 12.8711 1.66677 12.8711 1.66677 12.8711C1.66677 12.8711 1.66677 12.8711 1.66677 12.8711C1.66677 12.8711 1.66677 12.8711 1.66677 12.8711C1.66677 12.8711 1.66677 12.8711 1.66677 12.8711C1.66677 12.8711 1.66677 12.8711 1.66677 12.8711C1.66677 12.8711 1.66677 12.8711 1.66677 12.8711C1.66677 12.8711 1.66677 12.8711 1.66677 12.8711C1.66677 12.8711 1.66677 12.8711 1.66677 12.8711C1.66677 12.8711 1.66677 12.8711 1.66677 12.8711C1.66677 12.8711 1.66677 12.8711 1.66677 12.8711C1.66677 12.8711 1.66677 12.8711 1.66677 12.8711C1.66677 12.8711 1.66677 12.8711 1.66677 12.8711C1.66677 12.8711 1.66677 12.8711 1.66677 12.8711C1.66677 12.8711 1.66677 12.8711 1.66677 12.8711C1.66677 12.8711 1.66677 12.8711 1.66677 12.8711C1.66677 12.8711 1.66677 12.8711 1.66677 12.8711C1.66677 12.8711 1.66677 12.8711 1.66677 12.8711C1.66677 12.8711 1.66677 12.8711 1.66677 12.8711C1.66677 12.8711 1.66677 12.8711 1.66677 12.8711C1.66677 12.8711 1.66677 12.8711 1.66677 12.8711C1.66677 12.8711 1.66677 12.8711 1.66677 12.8711C1.66677 12.8711 1.66677 12.8711 1.66677 12.8711C1.66677 12.8711 1.66677 12.8711 1.66677 12.8711C1.66677 12.8711 1.66677 12.8711 1.66677 12.8711C1.66677 12.8711 1.66677 12.8711 1.66677 12.8711C1.66677 12.8711 1.66677 12.8711 1.66677 12.8711C1.66677 12.8711 1.66677 12.8711 1.66677 12.8711C1.66677 12.8711 1.66677 12.8711 1.66677 12.8711C1.66677 12.8711 1.66677 12.8711 1.66677 12.8711C1.66677 12.8711 1.66677 12.8711 1.66677 12.8711C1.66677 12.8711 1.66677 12.8711 1.66677 12.8711C1.66677 12.8711 1.66677 12.8711 1.66677 12.8711C1.66677 12.8711 1.66677 12.8711 1.66677 12.8711C1.66677 12.8711 1.66677 12.8711 1.66677 12.8711C1.66677 12.8711 1.66677 12.8711 1.66677 12.8711C1.66677 12.8711 1.66677 12.8711 1.66677 12.8711C1.66677 12.8711 1.66677 12.8711 1.66677 12.8711C1.66677 12.8711 1.66677 12.8711 1.66677 12.8711C1.66677 12.8711 1.66677 12.8711 1.66677 12.8711C1.66677 12.8711 1.66677 12.8711 1.66677 12.8711C1.66677 12.8711 1.66677 12.8711 1.66677 12.8711C1.66677 12.8711 1.66677 12.8711 1.66677 12.8711C1.66677 12.8711 1.66677 12.8711 1.66677 12.8711C1.66677 12.8711 1.66677 12.8711 1.66677 12.8711C1.66677 12.8711 1.66677 12.8711 1.66677 12.8711C1.66677 12.8711 1.66677 12.8711 1.66677 12.8711C1.66677 12.8711 1.66677 12.8711 1.66677 12.8711C1.66677 12.8711 1.66677 12.8711 1.66677 12.8711C1.66677 12.8711 1.66677 12.8711 1.66677 12.8711C1.66677 12.8711 1.66677 12.8711 1.66677 12.8711C1.66677 12.8711 1.66677 12.8711 1.66677 12.8711C1.66677 12.8711 1.66677 12.8711 1.66677 12.8711C1.66677 12.8711 1.66678 12.8711 1.66678 12.8711C1.66678 12.8711 1.66678 12.8711 1.66678 12.8711C1.66678 12.8711 1.66678 12.8711 1.66678 12.8711C1.66678 12.8711 1.66678 12.8711 1.66678 12.8711C1.66678 12.8711 1.66678 12.8711 1.66678 12.8711C1.66678 12.8711 1.66678 12.8711 1.66678 12.8711C1.66678 12.8711 1.66678 12.8711 1.66678 12.8711C1.66678 12.8711 1.66678 12.8711 1.66678 12.8711C1.66678 12.8711 1.66678 12.8711 1.66678 12.8711C1.66678 12.8711 1.66678 12.8711 1.66678 12.8711C1.66678 12.8711 1.66678 12.8711 1.66678 12.8711C1.66678 12.8711 1.66678 12.8711 1.66678 12.8711C1.66678 12.8711 1.66678 12.8711 1.66678 12.8711C1.66678 12.8711 1.66678 12.8711 1.66678 12.8711C1.66678 12.8711 1.66678 12.8711 1.66678 12.8711C1.66678 12.8711 1.66678 12.8711 1.66678 12.8711C1.66678 12.8711 1.66678 12.8711 1.66678 12.8711C1.66678 12.8711 1.66678 12.8711 1.66678 12.8711C1.66678 12.8711 1.66678 12.8711 1.66678 12.8711C1.66678 12.8711 1.66678 12.8711 1.66678 12.8711C1.66678 12.8711 1.66678 12.8711 1.66678 12.8711C1.66678 12.8711 1.66678 12.8711 1.66678 12.8711C1.66678 12.8711 1.66678 12.8711 1.66678 12.8711C1.66678 12.8711 1.66678 12.8711 1.66678 12.8711C1.66678 12.8711 1.66678 12.8711 1.66678 12.8711C1.66678 12.8711 1.66678 12.8711 1.66678 12.8711C1.66678 12.8711 1.66678 12.8711 1.66678 12.8711C1.66678 12.8711 1.66678 12.8711 1.66678 12.8711C1.66678 12.8711 1.66678 12.8711 1.66678 12.8711C1.66678 12.8711 1.66678 12.8711 1.66678 12.8711C1.66678 12.8711 1.66678 12.8711 1.66678 12.8711C1.66678 12.8711 1.66678 12.8711 1.66678 12.8711C1.66678 12.8711 1.66678 12.8711 1.66678 12.8711C1.66678 12.8711 1.66678 12.8711 1.66678 12.8711C1.66678 12.8711 1.66678 12.8711 1.66678 12.8711C1.66678 12.8711 1.66678 12.8711 1.66678 12.8711C1.66678 12.8711 1.66678 12.8711 1.66678 12.8711C1.66678 12.8711 1.66678 12.8711 1.66678 12.8711C1.66678 12.8711 1.66678 12.8711 1.66678 12.8711C1.66678 12.8711 1.66678 12.8711 1.66678 12.8711C1.66678 12.8711 1.66678 12.8711 1.66678 12.8711C1.66678 12.8711 1.66678 12.8711 1.66678 12.8711C1.66678 12.8711 1.66678 12.8711 1.66678 12.8711C1.66678 12.8711 1.66678 12.8711 1.66678 12.8711C1.66678 12.8711 1.66678 12.8711 1.66678 12.8711C1.66678 12.8711 1.66678 12.8711 1.66678 12.8711C1.66678 12.8711 1.66678 12.8711 1.66678 12.8711C1.66678 12.8711 1.66678 12.8711 1.66678 12.8711C1.66678 12.8711 1.66678 12.8711 1.66678 12.8711C1.66678 12.8711 1.66678 12.8711 1.66678 12.8711C1.66678 12.8711 1.66678 12.8711 1.66678 12.8711C1.66678 12.8711 1.66678 12.8711 1.66678 12.8711C1.66678 12.8711 1.66678 12.8711 1.66678 12.8711C1.66678 12.8711 1.66678 12.8711 1.66678 12.8711C1.66678 12.8711 1.66678 12.8711 1.66678 12.8711C1.66678 12.8711 1.66678 12.8711 1.66678 12.8711C1.66678 12.8711 1.66678 12.8711 1.66678 12.8711C1.66678 12.8711 1.66678 12.8711 1.66678 12.8711C1.66678 12.8711 1.66678 12.8711 1.66678 12.8711C1.66678 12.8711 1.66679 12.8711 1.66679 12.8711C1.66679 12.8711 1.66679 12.8711 1.66679 12.8711C1.66679 12.8711 1.66679 12.8711 1.66679 12.8711C1.66679 12.8711 1.66679 12.8711 1.66679 12.8711C1.66679 12.8711 1.66679 12.8711 1.66679 12.8711C1.66679 12.8711 1.66679 12.8711 1.66679 12.8711C1.66679 12.8711 1.66679 12.8711 1.66679 12.8711C1.66679 12.8711 1.66679 12.8711 1.66679 12.8711C1.66679 12.8711 1.66679 12.8711 1.66679 12.8711C1.66679 12.8711 1.66679 12.8711 1.66679 12.8711C1.66679 12.8711 1.66679 12.8711 1.66679 12.8711C1.66679 12.8711 1.66679 12.8711 1.66679 12.8711C1.66679 12.8711 1.66679 12.8711 1.66679 12.8711C1.66679 12.8711 1.66679 12.8711 1.66679 12.8711C1.66679 12.8711 1.66679 12.8711 1.66679 12.8711C1.66679 12.8711 1.66679 12.8711 1.66679 12.8711C1.66679 12.8711 1.66679 12.8711 1.66679 12.8711C1.66679 12.8711 1.66679 12.8711 1.66679 12.8711C1.66679 12.8711 1.66679 12.8711 1.66679 12.8711C1.66679 12.8711 1.66679 12.8711 1.66679 12.8711C1.66679 12.8711 1.66679 12.8711 1.66679 12.8711C1.66679 12.8711 1.66679 12.8711 1.66679 12.8711C1.66679 12.8711 1.66679 12.8711 1.66679 12.8711C1.66679 12.8711 1.66679 12.8711 1.66679 12.8711C1.66679 12.8711 1.66679 12.8711 1.66679 12.8711C1.66679 12.8711 1.66679 12.8711 1.66679 12.8711C1.66679 12.8711 1.66679 12.8711 1.66679 12.8711C1.66679 12.8711 1.66679 12.8711 1.66679 12.8711C1.66679 12.8711 1.66679 12.8711 1.66679 12.8711C1.66679 12.8711 1.66679 12.8711 1.66679 12.8711C1.66679 12.8711 1.66679 12.8711 1.66679 12.8711C1.66679 12.8711 1.66679 12.8711 1.66679 12.8711C1.66679 12.8711 1.66679 12.8711 1.66679 12.8711C1.66679 12.8711 1.66679 12.8711 1.66679 12.8711C1.66679 12.8711 1.66679 12.8711 1.66679 12.8711C1.66679 12.8711 1.66679 12.8711 1.66679 12.8711C1.66679 12.8711 1.66679 12.8711 1.66679 12.8711C1.66679 12.8711 1.66679 12.8711 1.66679 12.8711C1.66679 12.8711 1.66679 12.8711 1.66679 12.8711C1.66679 12.8711 1.66679 12.8711 1.66679 12.8711C1.66679 12.8711 1.66679 12.8711 1.66679 12.8711C1.66679 12.8711 1.66679 12.8711 1.66679 12.8711C1.66679 12.8711 1.66679 12.8711 1.66679 12.8711C1.66679 12.8711 1.66679 12.8711 1.66679 12.8711C1.66679 12.8711 1.66679 12.8711 1.66679 12.8711C1.66679 12.8711 1.66679 12.8711 1.66679 12.8711C1.66679 12.8711 1.66679 12.8711 1.66679 12.8711C1.66679 12.8711 1.66679 12.8711 1.66679 12.8711C1.66679 12.8711 1.66679 12.8711 1.66679 12.8711C1.66679 12.8711 1.66679 12.8711 1.66679 12.8711C1.66679 12.8711 1.66679 12.8711 1.66679 12.8711C1.66679 12.8711 1.66679 12.8711 1.66679 12.8711C1.66679 12.8711 1.66679 12.8711 1.66679 12.8711C1.66679 12.8711 1.66679 12.8711 1.66679 12.8711C1.66679 12.8711 1.66679 12.8711 1.66679 12.8711C1.66679 12.8711 1.66679 12.8711 1.66679 12.8711C1.66679 12.8711 1.66679 12.8711 1.66679 12.8711C1.66679 12.8711 1.66679 12.8711 1.66679 12.8711C1.66679 12.8711 1.66679 12.8711 1.66679 12.8711C1.66679 12.8711 1.66679 12.8711 1.6668 12.8711C1.6668 12.8711 1.6668 12.8711 1.6668 12.8711C1.6668 12.8711 1.6668 12.8711 1.6668 12.8711C1.6668 12.8711 1.6668 12.8711 1.6668 12.8711C1.6668 12.8711 1.6668 12.8711 1.6668 12.8711C1.6668 12.8711 1.6668 12.8711 1.6668 12.8711C1.6668 12.8711 1.6668 12.8711 1.6668 12.8711C1.6668 12.8711 1.6668 12.8711 1.6668 12.8711C1.6668 12.8711 1.6668 12.8711 1.6668 12.8711C1.6668 12.8711 1.6668 12.8711 1.6668 12.8711C1.6668 12.8711 1.6668 12.8711 1.6668 12.8711C1.6668 12.8711 1.6668 12.8711 1.6668 12.8711C1.6668 12.8711 1.6668 12.8711 1.6668 12.8711C1.6668 12.8711 1.6668 12.8711 1.6668 12.8711C1.6668 12.8711 1.6668 12.8711 1.6668 12.8711C1.6668 12.8711 1.6668 12.8711 1.6668 12.8711C1.6668 12.8711 1.6668 12.8711 1.6668 12.8711C1.6668 12.8711 1.6668 12.8711 1.6668 12.8711C1.6668 12.8711 1.6668 12.8711 1.6668 12.8711C1.6668 12.8711 1.6668 12.8711 1.6668 12.8711C1.6668 12.8711 1.6668 12.8711 1.6668 12.8711C1.6668 12.8711 1.6668 12.8711 1.6668 12.8711C1.6668 12.8711 1.6668 12.8711 1.6668 12.8711C1.6668 12.8711 1.6668 12.8711 1.6668 12.8711C1.6668 12.8711 1.6668 12.8711 1.6668 12.8711C1.6668 12.8711 1.6668 12.8711 1.6668 12.8711C1.6668 12.8711 1.6668 12.8711 1.6668 12.8711C1.6668 12.8711 1.6668 12.8711 1.6668 12.8711C1.6668 12.8711 1.6668 12.8711 1.6668 12.8711C1.6668 12.8711 1.6668 12.8711 1.6668 12.8711C1.6668 12.8711 1.6668 12.8711 1.6668 12.8711C1.6668 12.8711 1.6668 12.8711 1.6668 12.8711C1.6668 12.8711 1.6668 12.8711 1.6668 12.8711C1.6668 12.8711 1.6668 12.8711 1.6668 12.8711C1.6668 12.8711 1.6668 12.8711 1.6668 12.8711C1.6668 12.8711 1.6668 12.8711 1.6668 12.8711C1.6668 12.8711 1.6668 12.8711 1.6668 12.8711C1.6668 12.8711 1.6668 12.8711 1.6668 12.8711C1.6668 12.8711 1.6668 12.8711 1.6668 12.8711C1.6668 12.8711 1.6668 12.8711 1.6668 12.8711C1.6668 12.8711 1.6668 12.8711 1.6668 12.8711C1.6668 12.8711 1.6668 12.8711 1.6668 12.8711C1.6668 12.8711 1.6668 12.8711 1.6668 12.8711C1.6668 12.8711 1.6668 12.8711 1.6668 12.8711C1.6668 12.8711 1.6668 12.8711 1.6668 12.8711C1.6668 12.8711 1.6668 12.8711 1.6668 12.8711C1.6668 12.8711 1.6668 12.8711 1.6668 12.8711C1.6668 12.8711 1.6668 12.8711 1.6668 12.8711C1.6668 12.8711 1.6668 12.8711 1.6668 12.8711C1.6668 12.8711 1.6668 12.8711 1.6668 12.8711C1.6668 12.8711 1.6668 12.8711 1.6668 12.8711C1.6668 12.8711 1.6668 12.8711 1.6668 12.8711C1.6668 12.8711 1.6668 12.8711 1.6668 12.8711C1.6668 12.8711 1.6668 12.8711 1.6668 12.8711C1.6668 12.8711 1.6668 12.8711 1.6668 12.8711C1.6668 12.8711 1.6668 12.8711 1.6668 12.8711C1.6668 12.8711 1.6668 12.8711 1.6668 12.8711C1.6668 12.8711 1.6668 12.8711 1.6668 12.8711C1.6668 12.8711 1.6668 12.8711 1.6668 12.8711C1.6668 12.8711 1.6668 12.8711 1.66681 12.8711C1.66681 12.8711 1.66681 12.8711 1.66681 12.8711C1.66681 12.8711 1.66681 12.8711 1.66681 12.8711C1.66681 12.8711 1.66681 12.8711 1.66681 12.8711C1.66681 12.8711 1.66681 12.8711 1.66681 12.8711C1.66681 12.8711 1.66681 12.8711 1.66681 12.8711C1.66681 12.8711 1.66681 12.8711 1.66681 12.8711C1.66681 12.8711 1.66681 12.8711 1.66681 12.8711C1.66681 12.8711 1.66681 12.8711 1.66681 12.8711C1.66681 12.8711 1.66681 12.8711 1.66681 12.8711C1.66681 12.8711 1.66681 12.8711 1.66681 12.8711C1.66681 12.8711 1.66681 12.8711 1.66681 12.8711C1.66681 12.8711 1.66681 12.8711 1.66681 12.8711C1.66681 12.8711 1.66681 12.8711 1.66681 12.8711C1.66681 12.8711 1.66681 12.8711 1.66681 12.8711C1.66681 12.8711 1.66681 12.8711 1.66681 12.8711C1.66681 12.8711 1.66681 12.8711 1.66681 12.8711C1.66681 12.8711 1.66681 12.8711 1.66681 12.8711C1.66681 12.8711 1.66681 12.8711 1.66681 12.8711C1.66681 12.8711 1.66681 12.8711 1.66681 12.8711C1.66681 12.8711 1.66681 12.8711 1.66681 12.8711C1.66681 12.8711 1.66681 12.8711 1.66681 12.8711C1.66681 12.8711 1.66681 12.8711 1.66681 12.8711C1.66681 12.8711 1.66681 12.8711 1.66681 12.8711C1.66681 12.8711 1.66681 12.8711 1.66681 12.8711C1.66681 12.8711 1.66681 12.8711 1.66681 12.8711C1.66681 12.8711 1.66681 12.8711 1.66681 12.8711C1.66681 12.8711 1.66681 12.8711 1.66681 12.8711C1.66681 12.8711 1.66681 12.8711 1.66681 12.8711C1.66681 12.8711 1.66681 12.8711 1.66681 12.8711C1.66681 12.8711 1.66681 12.8711 1.66681 12.8711C1.66681 12.8711 1.66681 12.8711 1.66681 12.8711C1.66681 12.8711 1.66681 12.8711 1.66681 12.8711C1.66681 12.8711 1.66681 12.8711 1.66681 12.8711C1.66681 12.8711 1.66681 12.8711 1.66681 12.8711C1.66681 12.8711 1.66681 12.8711 1.66681 12.8711C1.66681 12.8711 1.66681 12.8711 1.66681 12.8711C1.66681 12.8711 1.66681 12.8711 1.66681 12.8711C1.66681 12.8711 1.66681 12.8711 1.66681 12.8711C1.66681 12.8711 1.66681 12.8711 1.66681 12.8711C1.66681 12.8711 1.66681 12.8711 1.66681 12.8711C1.66681 12.8711 1.66681 12.8711 1.66681 12.8711C1.66681 12.8711 1.66681 12.8711 1.66681 12.8711C1.66681 12.8711 1.66681 12.8711 1.66681 12.8711C1.66681 12.8711 1.66681 12.8711 1.66681 12.8711C1.66681 12.8711 1.66681 12.8711 1.66681 12.8711C1.66681 12.8711 1.66681 12.8711 1.66681 12.8711C1.66681 12.8711 1.66681 12.8711 1.66681 12.8711C1.66681 12.8711 1.66681 12.8711 1.66681 12.8711C1.66681 12.8711 1.66681 12.8711 1.66681 12.8711C1.66681 12.8711 1.66681 12.8711 1.66681 12.8711C1.66681 12.8711 1.66681 12.8711 1.66681 12.8711C1.66681 12.8711 1.66681 12.8711 1.66681 12.8711C1.66681 12.8711 1.66681 12.8711 1.66681 12.8711C1.66681 12.8711 1.66681 12.8711 1.66681 12.8711C1.66681 12.8711 1.66681 12.8711 1.66681 12.8711C1.66681 12.8711 1.66681 12.8711 1.66681 12.8711C1.66681 12.8711 1.66681 12.8711 1.66681 12.8711C1.66681 12.8711 1.66681 12.8711 1.66681 12.8711C1.66681 12.8711 1.66681 12.8711 1.66681 12.8711C1.66682 12.8711 1.66682 12.8711 1.66682 12.8711C1.66682 12.8711 1.66682 12.8711 1.66682 12.8711C1.66682 12.8711 1.66682 12.8711 1.66682 12.8711C1.66682 12.8711 1.66682 12.8711 1.66682 12.8711C1.66682 12.8711 1.66682 12.8711 1.66682 12.8711C1.66682 12.8711 1.66682 12.8711 1.66682 12.8711C1.66682 12.8711 1.66682 12.8711 1.66682 12.8711C1.66682 12.8711 1.66682 12.8711 1.66682 12.8711C1.66682 12.8711 1.66682 12.8711 1.66682 12.8711C1.66682 12.8711 1.66682 12.8711 1.66682 12.8711C1.66682 12.8711 1.66682 12.8711 1.66682 12.8711C1.66682 12.8711 1.66682 12.8711 1.66682 12.8711C1.66682 12.8711 1.66682 12.8711 1.66682 12.8711C1.66682 12.8711 1.66682 12.8711 1.66682 12.8711C1.66682 12.8711 1.66682 12.8711 1.66682 12.8711C1.66682 12.8711 1.66682 12.8711 1.66682 12.8711C1.66682 12.8711 1.66682 12.8711 1.66682 12.8711C1.66682 12.8711 1.66682 12.8711 1.66682 12.8711C1.66682 12.8711 1.66682 12.8711 1.66682 12.8711C1.66682 12.8711 1.66682 12.8711 1.66682 12.8711C1.66682 12.8711 1.66682 12.8711 1.66682 12.8711C1.66682 12.8711 1.66682 12.8711 1.66682 12.8711C1.66682 12.8711 1.66682 12.8711 1.66682 12.8711C1.66682 12.8711 1.66682 12.8711 1.66682 12.8711C1.66682 12.8711 1.66682 12.8711 1.66682 12.8711C1.66682 12.8711 1.66682 12.8711 1.66682 12.8711C1.66682 12.8711 1.66682 12.8711 1.66682 12.8711C1.66682 12.8711 1.66682 12.8711 1.66682 12.8711C1.66682 12.8711 1.66682 12.8711 1.66682 12.8711C1.66682 12.8711 1.66682 12.8711 1.66682 12.8711C1.66682 12.8711 1.66682 12.8711 1.66682 12.8711C1.66682 12.8711 1.66682 12.8711 1.66682 12.8711C1.66682 12.8711 1.66682 12.8711 1.66682 12.8711C1.66682 12.8711 1.66682 12.8711 1.66682 12.8711C1.66682 12.8711 1.66682 12.8711 1.66682 12.8711C1.66682 12.8711 1.66682 12.8711 1.66682 12.8711C1.66682 12.8711 1.66682 12.8711 1.66682 12.8711C1.66682 12.8711 1.66682 12.8711 1.66682 12.8711C1.66682 12.8711 1.66682 12.8711 1.66682 12.8711C1.66682 12.8711 1.66682 12.8711 1.66682 12.8711C1.66682 12.8711 1.66682 12.8711 1.66682 12.8711C1.66682 12.8711 1.66682 12.8711 1.66682 12.8711C1.66682 12.8711 1.66682 12.8711 1.66682 12.8711C1.66682 12.8711 1.66682 12.8711 1.66682 12.8711C1.66682 12.8711 1.66682 12.8711 1.66682 12.8711C1.66682 12.8711 1.66682 12.8711 1.66682 12.8711C1.66682 12.8711 1.66682 12.8711 1.66682 12.8711C1.66682 12.8711 1.66682 12.8711 1.66682 12.8711C1.66682 12.8711 1.66682 12.8711 1.66682 12.8711C1.66682 12.8711 1.66682 12.8711 1.66682 12.8711C1.66682 12.8711 1.66682 12.8711 1.66682 12.8711C1.66682 12.8711 1.66682 12.8711 1.66682 12.8711C1.66682 12.8711 1.66682 12.8711 1.66682 12.8711C1.66682 12.8711 1.66682 12.8711 1.66682 12.8711C1.66682 12.8711 1.66682 12.8711 1.66682 12.8711C1.66682 12.8711 1.66682 12.8711 1.66682 12.8711C1.66682 12.8711 1.66682 12.8711 1.66682 12.8711C1.66682 12.8711 1.66682 12.8711 1.66682 12.8711C1.66682 12.8711 1.66682 12.8711 1.66682 12.8711C1.66683 12.8711 1.66683 12.8711 1.66683 12.8711C1.66683 12.8711 1.66683 12.8711 1.66683 12.8711C1.66683 12.8711 1.66683 12.8711 1.66683 12.8711C1.66683 12.8711 1.66683 12.8711 1.66683 12.8711C1.66683 12.8711 1.66683 12.8711 1.66683 12.8711C1.66683 12.8711 1.66683 12.8711 1.66683 12.8711C1.66683 12.8711 1.66683 12.8711 1.66683 12.8711C1.66683 12.8711 1.66683 12.8711 1.66683 12.8711C1.66683 12.8711 1.66683 12.8711 1.66683 12.8711C1.66683 12.8711 1.66683 12.8711 1.66683 12.8711C1.66683 12.8711 1.66683 12.8711 1.66683 12.8711C1.66683 12.8711 1.66683 12.8711 1.66683 12.8711C1.66683 12.8711 1.66683 12.8711 1.66683 12.8711C1.66683 12.8711 1.66683 12.8711 1.66683 12.8711C1.66683 12.8711 1.66683 12.8711 1.66683 12.8711C1.66683 12.8711 1.66683 12.8711 1.66683 12.8711C1.66683 12.8711 1.66683 12.8711 1.66683 12.8711C1.66683 12.8711 1.66683 12.8711 1.66683 12.8711C1.66683 12.8711 1.66683 12.8711 1.66683 12.8711C1.66683 12.8711 1.66683 12.8711 1.66683 12.8711C1.66683 12.8711 1.66683 12.8711 1.66683 12.8711C1.66683 12.8711 1.66683 12.8711 1.66683 12.8711C1.66683 12.8711 1.66683 12.8711 1.66683 12.8711C1.66683 12.8711 1.66683 12.8711 1.66683 12.8711C1.66683 12.8711 1.66683 12.8711 1.66683 12.8711C1.66683 12.8711 1.66683 12.8711 1.66683 12.8711C1.66683 12.8711 1.66683 12.8711 1.66683 12.8711C1.66683 12.8711 1.66683 12.8711 1.66683 12.8711C1.66683 12.8711 1.66683 12.8711 1.66683 12.8711C1.66683 12.8711 1.66683 12.8711 1.66683 12.8711C1.66683 12.8711 1.66683 12.8711 1.66683 12.8711C1.66683 12.8711 1.66683 12.8711 1.66683 12.8711C1.66683 12.8711 1.66683 12.8711 1.66683 12.8711C1.66683 12.8711 1.66683 12.8711 1.66683 12.8711C1.66683 12.8711 1.66683 12.8711 1.66683 12.8711C1.66683 12.8711 1.66683 12.8711 1.66683 12.8711C1.66683 12.8711 1.66683 12.8711 1.66683 12.8711C1.66683 12.8711 1.66683 12.8711 1.66683 12.8711C1.66683 12.8711 1.66683 12.8711 1.66683 12.8711C1.66683 12.8711 1.66683 12.8711 1.66683 12.8711C1.66683 12.8711 1.66683 12.8711 1.66683 12.8711C1.66683 12.8711 1.66683 12.8711 1.66683 12.8711C1.66683 12.8711 1.66683 12.8711 1.66683 12.8711C1.66683 12.8711 1.66683 12.8711 1.66683 12.8711C1.66683 12.8711 1.66683 12.8711 1.66683 12.8711C1.66683 12.8711 1.66683 12.8711 1.66683 12.8711C1.66683 12.8711 1.66683 12.8711 1.66683 12.8711C1.66683 12.8711 1.66683 12.8711 1.66683 12.8711C1.66683 12.8711 1.66683 12.8711 1.66683 12.8711C1.66683 12.8711 1.66683 12.8711 1.66683 12.8711C1.66683 12.8711 1.66683 12.8711 1.66683 12.8711C1.66683 12.8711 1.66683 12.8711 1.66683 12.8711C1.66683 12.8711 1.66683 12.8711 1.66683 12.8711C1.66683 12.8711 1.66683 12.8711 1.66683 12.8711C1.66683 12.8711 1.66683 12.8711 1.66683 12.8711C1.66683 12.8711 1.66683 12.8711 1.66683 12.8711C1.66683 12.8711 1.66683 12.8711 1.66683 12.8711V11.5711ZM3.13533 10.1026C3.13533 10.9137 2.47786 11.5711 1.66683 11.5711V12.8711C3.19583 12.8711 4.43533 11.6316 4.43533 10.1026H3.13533ZM1.66683 8.63413C2.47786 8.63413 3.13533 9.2916 3.13533 10.1026H4.43533C4.43533 8.57363 3.19583 7.33413 1.66683 7.33413V8.63413ZM1.66675 8.63413C1.66675 8.63413 1.66675 8.63413 1.66675 8.63413C1.66675 8.63413 1.66675 8.63413 1.66675 8.63413C1.66675 8.63413 1.66675 8.63413 1.66675 8.63413C1.66675 8.63413 1.66675 8.63413 1.66675 8.63413C1.66675 8.63413 1.66675 8.63413 1.66675 8.63413C1.66675 8.63413 1.66675 8.63413 1.66675 8.63413C1.66675 8.63413 1.66675 8.63413 1.66675 8.63413C1.66675 8.63413 1.66675 8.63413 1.66675 8.63413C1.66675 8.63413 1.66675 8.63413 1.66675 8.63413C1.66675 8.63413 1.66675 8.63413 1.66675 8.63413C1.66675 8.63413 1.66675 8.63413 1.66675 8.63413C1.66675 8.63413 1.66675 8.63413 1.66675 8.63413C1.66675 8.63413 1.66675 8.63413 1.66675 8.63413C1.66675 8.63413 1.66675 8.63413 1.66675 8.63413C1.66675 8.63413 1.66675 8.63413 1.66675 8.63413C1.66675 8.63413 1.66675 8.63413 1.66675 8.63413C1.66675 8.63413 1.66675 8.63413 1.66675 8.63413C1.66675 8.63413 1.66675 8.63413 1.66675 8.63413C1.66675 8.63413 1.66675 8.63413 1.66675 8.63413C1.66675 8.63413 1.66675 8.63413 1.66675 8.63413C1.66675 8.63413 1.66675 8.63413 1.66675 8.63413C1.66675 8.63413 1.66675 8.63413 1.66675 8.63413C1.66675 8.63413 1.66675 8.63413 1.66675 8.63413C1.66675 8.63413 1.66675 8.63413 1.66675 8.63413C1.66675 8.63413 1.66675 8.63413 1.66675 8.63413C1.66675 8.63413 1.66675 8.63413 1.66675 8.63413C1.66675 8.63413 1.66675 8.63413 1.66675 8.63413C1.66675 8.63413 1.66675 8.63413 1.66675 8.63413C1.66675 8.63413 1.66675 8.63413 1.66675 8.63413C1.66675 8.63413 1.66675 8.63413 1.66675 8.63413C1.66675 8.63413 1.66675 8.63413 1.66675 8.63413C1.66675 8.63413 1.66675 8.63413 1.66675 8.63413C1.66675 8.63413 1.66675 8.63413 1.66675 8.63413C1.66675 8.63413 1.66675 8.63413 1.66675 8.63413C1.66675 8.63413 1.66675 8.63413 1.66675 8.63413C1.66675 8.63413 1.66675 8.63413 1.66675 8.63413C1.66675 8.63413 1.66675 8.63413 1.66675 8.63413C1.66675 8.63413 1.66675 8.63413 1.66675 8.63413C1.66675 8.63413 1.66675 8.63413 1.66675 8.63413C1.66675 8.63413 1.66675 8.63413 1.66675 8.63413C1.66675 8.63413 1.66675 8.63413 1.66675 8.63413C1.66676 8.63413 1.66676 8.63413 1.66676 8.63413C1.66676 8.63413 1.66676 8.63413 1.66676 8.63413C1.66676 8.63413 1.66676 8.63413 1.66676 8.63413C1.66676 8.63413 1.66676 8.63413 1.66676 8.63413C1.66676 8.63413 1.66676 8.63413 1.66676 8.63413C1.66676 8.63413 1.66676 8.63413 1.66676 8.63413C1.66676 8.63413 1.66676 8.63413 1.66676 8.63413C1.66676 8.63413 1.66676 8.63413 1.66676 8.63413C1.66676 8.63413 1.66676 8.63413 1.66676 8.63413C1.66676 8.63413 1.66676 8.63413 1.66676 8.63413C1.66676 8.63413 1.66676 8.63413 1.66676 8.63413C1.66676 8.63413 1.66676 8.63413 1.66676 8.63413C1.66676 8.63413 1.66676 8.63413 1.66676 8.63413C1.66676 8.63413 1.66676 8.63413 1.66676 8.63413C1.66676 8.63413 1.66676 8.63413 1.66676 8.63413C1.66676 8.63413 1.66676 8.63413 1.66676 8.63413C1.66676 8.63413 1.66676 8.63413 1.66676 8.63413C1.66676 8.63413 1.66676 8.63413 1.66676 8.63413C1.66676 8.63413 1.66676 8.63413 1.66676 8.63413C1.66676 8.63413 1.66676 8.63413 1.66676 8.63413C1.66676 8.63413 1.66676 8.63413 1.66676 8.63413C1.66676 8.63413 1.66676 8.63413 1.66676 8.63413C1.66676 8.63413 1.66676 8.63413 1.66676 8.63413C1.66676 8.63413 1.66676 8.63413 1.66676 8.63413C1.66676 8.63413 1.66676 8.63413 1.66676 8.63413C1.66676 8.63413 1.66676 8.63413 1.66676 8.63413C1.66676 8.63413 1.66676 8.63413 1.66676 8.63413C1.66676 8.63413 1.66676 8.63413 1.66676 8.63413C1.66676 8.63413 1.66676 8.63413 1.66676 8.63413C1.66676 8.63413 1.66676 8.63413 1.66676 8.63413C1.66676 8.63413 1.66676 8.63413 1.66676 8.63413C1.66676 8.63413 1.66676 8.63413 1.66676 8.63413C1.66676 8.63413 1.66676 8.63413 1.66676 8.63413C1.66676 8.63413 1.66676 8.63413 1.66676 8.63413C1.66676 8.63413 1.66676 8.63413 1.66676 8.63413C1.66676 8.63413 1.66676 8.63413 1.66676 8.63413C1.66676 8.63413 1.66676 8.63413 1.66676 8.63413C1.66676 8.63413 1.66676 8.63413 1.66676 8.63413C1.66676 8.63413 1.66676 8.63413 1.66676 8.63413C1.66676 8.63413 1.66676 8.63413 1.66676 8.63413C1.66676 8.63413 1.66676 8.63413 1.66676 8.63413C1.66676 8.63413 1.66676 8.63413 1.66676 8.63413C1.66676 8.63413 1.66676 8.63413 1.66676 8.63413C1.66676 8.63413 1.66676 8.63413 1.66676 8.63413C1.66676 8.63413 1.66676 8.63413 1.66676 8.63413C1.66676 8.63413 1.66676 8.63413 1.66676 8.63413C1.66676 8.63413 1.66676 8.63413 1.66676 8.63413C1.66676 8.63413 1.66676 8.63413 1.66676 8.63413C1.66676 8.63413 1.66676 8.63413 1.66676 8.63413C1.66676 8.63413 1.66676 8.63413 1.66676 8.63413C1.66676 8.63413 1.66676 8.63413 1.66676 8.63413C1.66676 8.63413 1.66676 8.63413 1.66676 8.63413C1.66676 8.63413 1.66676 8.63413 1.66676 8.63413C1.66676 8.63413 1.66676 8.63413 1.66676 8.63413C1.66676 8.63413 1.66676 8.63413 1.66676 8.63413C1.66676 8.63413 1.66676 8.63413 1.66676 8.63413C1.66676 8.63413 1.66676 8.63413 1.66676 8.63413C1.66676 8.63413 1.66676 8.63413 1.66676 8.63413C1.66676 8.63413 1.66676 8.63413 1.66676 8.63413C1.66677 8.63413 1.66677 8.63413 1.66677 8.63413C1.66677 8.63413 1.66677 8.63413 1.66677 8.63413C1.66677 8.63413 1.66677 8.63413 1.66677 8.63413C1.66677 8.63413 1.66677 8.63413 1.66677 8.63413C1.66677 8.63413 1.66677 8.63413 1.66677 8.63413C1.66677 8.63413 1.66677 8.63413 1.66677 8.63413C1.66677 8.63413 1.66677 8.63413 1.66677 8.63413C1.66677 8.63413 1.66677 8.63413 1.66677 8.63413C1.66677 8.63413 1.66677 8.63413 1.66677 8.63413C1.66677 8.63413 1.66677 8.63413 1.66677 8.63413C1.66677 8.63413 1.66677 8.63413 1.66677 8.63413C1.66677 8.63413 1.66677 8.63413 1.66677 8.63413C1.66677 8.63413 1.66677 8.63413 1.66677 8.63413C1.66677 8.63413 1.66677 8.63413 1.66677 8.63413C1.66677 8.63413 1.66677 8.63413 1.66677 8.63413C1.66677 8.63413 1.66677 8.63413 1.66677 8.63413C1.66677 8.63413 1.66677 8.63413 1.66677 8.63413C1.66677 8.63413 1.66677 8.63413 1.66677 8.63413C1.66677 8.63413 1.66677 8.63413 1.66677 8.63413C1.66677 8.63413 1.66677 8.63413 1.66677 8.63413C1.66677 8.63413 1.66677 8.63413 1.66677 8.63413C1.66677 8.63413 1.66677 8.63413 1.66677 8.63413C1.66677 8.63413 1.66677 8.63413 1.66677 8.63413C1.66677 8.63413 1.66677 8.63413 1.66677 8.63413C1.66677 8.63413 1.66677 8.63413 1.66677 8.63413C1.66677 8.63413 1.66677 8.63413 1.66677 8.63413C1.66677 8.63413 1.66677 8.63413 1.66677 8.63413C1.66677 8.63413 1.66677 8.63413 1.66677 8.63413C1.66677 8.63413 1.66677 8.63413 1.66677 8.63413C1.66677 8.63413 1.66677 8.63413 1.66677 8.63413C1.66677 8.63413 1.66677 8.63413 1.66677 8.63413C1.66677 8.63413 1.66677 8.63413 1.66677 8.63413C1.66677 8.63413 1.66677 8.63413 1.66677 8.63413C1.66677 8.63413 1.66677 8.63413 1.66677 8.63413C1.66677 8.63413 1.66677 8.63413 1.66677 8.63413C1.66677 8.63413 1.66677 8.63413 1.66677 8.63413C1.66677 8.63413 1.66677 8.63413 1.66677 8.63413C1.66677 8.63413 1.66677 8.63413 1.66677 8.63413C1.66677 8.63413 1.66677 8.63413 1.66677 8.63413C1.66677 8.63413 1.66677 8.63413 1.66677 8.63413C1.66677 8.63413 1.66677 8.63413 1.66677 8.63413C1.66677 8.63413 1.66677 8.63413 1.66677 8.63413C1.66677 8.63413 1.66677 8.63413 1.66677 8.63413C1.66677 8.63413 1.66677 8.63413 1.66677 8.63413C1.66677 8.63413 1.66677 8.63413 1.66677 8.63413C1.66677 8.63413 1.66677 8.63413 1.66677 8.63413C1.66677 8.63413 1.66677 8.63413 1.66677 8.63413C1.66677 8.63413 1.66677 8.63413 1.66677 8.63413C1.66677 8.63413 1.66677 8.63413 1.66677 8.63413C1.66677 8.63413 1.66677 8.63413 1.66677 8.63413C1.66677 8.63413 1.66677 8.63413 1.66677 8.63413C1.66677 8.63413 1.66677 8.63413 1.66677 8.63413C1.66677 8.63413 1.66677 8.63413 1.66677 8.63413C1.66677 8.63413 1.66677 8.63413 1.66677 8.63413C1.66677 8.63413 1.66677 8.63413 1.66677 8.63413C1.66677 8.63413 1.66677 8.63413 1.66677 8.63413C1.66677 8.63413 1.66677 8.63413 1.66677 8.63413C1.66677 8.63413 1.66677 8.63413 1.66677 8.63413C1.66677 8.63413 1.66677 8.63413 1.66677 8.63413C1.66677 8.63413 1.66678 8.63413 1.66678 8.63413C1.66678 8.63413 1.66678 8.63413 1.66678 8.63413C1.66678 8.63413 1.66678 8.63413 1.66678 8.63413C1.66678 8.63413 1.66678 8.63413 1.66678 8.63413C1.66678 8.63413 1.66678 8.63413 1.66678 8.63413C1.66678 8.63413 1.66678 8.63413 1.66678 8.63413C1.66678 8.63413 1.66678 8.63413 1.66678 8.63413C1.66678 8.63413 1.66678 8.63413 1.66678 8.63413C1.66678 8.63413 1.66678 8.63413 1.66678 8.63413C1.66678 8.63413 1.66678 8.63413 1.66678 8.63413C1.66678 8.63413 1.66678 8.63413 1.66678 8.63413C1.66678 8.63413 1.66678 8.63413 1.66678 8.63413C1.66678 8.63413 1.66678 8.63413 1.66678 8.63413C1.66678 8.63413 1.66678 8.63413 1.66678 8.63413C1.66678 8.63413 1.66678 8.63413 1.66678 8.63413C1.66678 8.63413 1.66678 8.63413 1.66678 8.63413C1.66678 8.63413 1.66678 8.63413 1.66678 8.63413C1.66678 8.63413 1.66678 8.63413 1.66678 8.63413C1.66678 8.63413 1.66678 8.63413 1.66678 8.63413C1.66678 8.63413 1.66678 8.63413 1.66678 8.63413C1.66678 8.63413 1.66678 8.63413 1.66678 8.63413C1.66678 8.63413 1.66678 8.63413 1.66678 8.63413C1.66678 8.63413 1.66678 8.63413 1.66678 8.63413C1.66678 8.63413 1.66678 8.63413 1.66678 8.63413C1.66678 8.63413 1.66678 8.63413 1.66678 8.63413C1.66678 8.63413 1.66678 8.63413 1.66678 8.63413C1.66678 8.63413 1.66678 8.63413 1.66678 8.63413C1.66678 8.63413 1.66678 8.63413 1.66678 8.63413C1.66678 8.63413 1.66678 8.63413 1.66678 8.63413C1.66678 8.63413 1.66678 8.63413 1.66678 8.63413C1.66678 8.63413 1.66678 8.63413 1.66678 8.63413C1.66678 8.63413 1.66678 8.63413 1.66678 8.63413C1.66678 8.63413 1.66678 8.63413 1.66678 8.63413C1.66678 8.63413 1.66678 8.63413 1.66678 8.63413C1.66678 8.63413 1.66678 8.63413 1.66678 8.63413C1.66678 8.63413 1.66678 8.63413 1.66678 8.63413C1.66678 8.63413 1.66678 8.63413 1.66678 8.63413C1.66678 8.63413 1.66678 8.63413 1.66678 8.63413C1.66678 8.63413 1.66678 8.63413 1.66678 8.63413C1.66678 8.63413 1.66678 8.63413 1.66678 8.63413C1.66678 8.63413 1.66678 8.63413 1.66678 8.63413C1.66678 8.63413 1.66678 8.63413 1.66678 8.63413C1.66678 8.63413 1.66678 8.63413 1.66678 8.63413C1.66678 8.63413 1.66678 8.63413 1.66678 8.63413C1.66678 8.63413 1.66678 8.63413 1.66678 8.63413C1.66678 8.63413 1.66678 8.63413 1.66678 8.63413C1.66678 8.63413 1.66678 8.63413 1.66678 8.63413C1.66678 8.63413 1.66678 8.63413 1.66678 8.63413C1.66678 8.63413 1.66678 8.63413 1.66678 8.63413C1.66678 8.63413 1.66678 8.63413 1.66678 8.63413C1.66678 8.63413 1.66678 8.63413 1.66678 8.63413C1.66678 8.63413 1.66678 8.63413 1.66678 8.63413C1.66678 8.63413 1.66678 8.63413 1.66678 8.63413C1.66678 8.63413 1.66678 8.63413 1.66678 8.63413C1.66678 8.63413 1.66678 8.63413 1.66678 8.63413C1.66678 8.63413 1.66678 8.63413 1.66678 8.63413C1.66678 8.63413 1.66678 8.63413 1.66678 8.63413C1.66678 8.63413 1.66678 8.63413 1.66678 8.63413C1.66678 8.63413 1.66678 8.63413 1.66678 8.63413C1.66678 8.63413 1.66679 8.63413 1.66679 8.63413C1.66679 8.63413 1.66679 8.63413 1.66679 8.63413C1.66679 8.63413 1.66679 8.63413 1.66679 8.63413C1.66679 8.63413 1.66679 8.63413 1.66679 8.63413C1.66679 8.63413 1.66679 8.63413 1.66679 8.63413C1.66679 8.63413 1.66679 8.63413 1.66679 8.63413C1.66679 8.63413 1.66679 8.63413 1.66679 8.63413C1.66679 8.63413 1.66679 8.63413 1.66679 8.63413C1.66679 8.63413 1.66679 8.63413 1.66679 8.63413C1.66679 8.63413 1.66679 8.63413 1.66679 8.63413C1.66679 8.63413 1.66679 8.63413 1.66679 8.63413C1.66679 8.63413 1.66679 8.63413 1.66679 8.63413C1.66679 8.63413 1.66679 8.63413 1.66679 8.63413C1.66679 8.63413 1.66679 8.63413 1.66679 8.63413C1.66679 8.63413 1.66679 8.63413 1.66679 8.63413C1.66679 8.63413 1.66679 8.63413 1.66679 8.63413C1.66679 8.63413 1.66679 8.63413 1.66679 8.63413C1.66679 8.63413 1.66679 8.63413 1.66679 8.63413C1.66679 8.63413 1.66679 8.63413 1.66679 8.63413C1.66679 8.63413 1.66679 8.63413 1.66679 8.63413C1.66679 8.63413 1.66679 8.63413 1.66679 8.63413C1.66679 8.63413 1.66679 8.63413 1.66679 8.63413C1.66679 8.63413 1.66679 8.63413 1.66679 8.63413C1.66679 8.63413 1.66679 8.63413 1.66679 8.63413C1.66679 8.63413 1.66679 8.63413 1.66679 8.63413C1.66679 8.63413 1.66679 8.63413 1.66679 8.63413C1.66679 8.63413 1.66679 8.63413 1.66679 8.63413C1.66679 8.63413 1.66679 8.63413 1.66679 8.63413C1.66679 8.63413 1.66679 8.63413 1.66679 8.63413C1.66679 8.63413 1.66679 8.63413 1.66679 8.63413C1.66679 8.63413 1.66679 8.63413 1.66679 8.63413C1.66679 8.63413 1.66679 8.63413 1.66679 8.63413C1.66679 8.63413 1.66679 8.63413 1.66679 8.63413C1.66679 8.63413 1.66679 8.63413 1.66679 8.63413C1.66679 8.63413 1.66679 8.63413 1.66679 8.63413C1.66679 8.63413 1.66679 8.63413 1.66679 8.63413C1.66679 8.63413 1.66679 8.63413 1.66679 8.63413C1.66679 8.63413 1.66679 8.63413 1.66679 8.63413C1.66679 8.63413 1.66679 8.63413 1.66679 8.63413C1.66679 8.63413 1.66679 8.63413 1.66679 8.63413C1.66679 8.63413 1.66679 8.63413 1.66679 8.63413C1.66679 8.63413 1.66679 8.63413 1.66679 8.63413C1.66679 8.63413 1.66679 8.63413 1.66679 8.63413C1.66679 8.63413 1.66679 8.63413 1.66679 8.63413C1.66679 8.63413 1.66679 8.63413 1.66679 8.63413C1.66679 8.63413 1.66679 8.63413 1.66679 8.63413C1.66679 8.63413 1.66679 8.63413 1.66679 8.63413C1.66679 8.63413 1.66679 8.63413 1.66679 8.63413C1.66679 8.63413 1.66679 8.63413 1.66679 8.63413C1.66679 8.63413 1.66679 8.63413 1.66679 8.63413C1.66679 8.63413 1.66679 8.63413 1.66679 8.63413C1.66679 8.63413 1.66679 8.63413 1.66679 8.63413C1.66679 8.63413 1.66679 8.63413 1.66679 8.63413C1.66679 8.63413 1.66679 8.63413 1.66679 8.63413C1.66679 8.63413 1.66679 8.63413 1.66679 8.63413C1.66679 8.63413 1.66679 8.63413 1.66679 8.63413C1.66679 8.63413 1.66679 8.63413 1.66679 8.63413C1.66679 8.63413 1.66679 8.63413 1.66679 8.63413C1.66679 8.63413 1.66679 8.63413 1.66679 8.63413C1.66679 8.63413 1.66679 8.63413 1.6668 8.63413C1.6668 8.63413 1.6668 8.63413 1.6668 8.63413C1.6668 8.63413 1.6668 8.63413 1.6668 8.63413C1.6668 8.63413 1.6668 8.63413 1.6668 8.63413C1.6668 8.63413 1.6668 8.63413 1.6668 8.63413C1.6668 8.63413 1.6668 8.63413 1.6668 8.63413C1.6668 8.63413 1.6668 8.63413 1.6668 8.63413C1.6668 8.63413 1.6668 8.63413 1.6668 8.63413C1.6668 8.63413 1.6668 8.63413 1.6668 8.63413C1.6668 8.63413 1.6668 8.63413 1.6668 8.63413C1.6668 8.63413 1.6668 8.63413 1.6668 8.63413C1.6668 8.63413 1.6668 8.63413 1.6668 8.63413C1.6668 8.63413 1.6668 8.63413 1.6668 8.63413C1.6668 8.63413 1.6668 8.63413 1.6668 8.63413C1.6668 8.63413 1.6668 8.63413 1.6668 8.63413C1.6668 8.63413 1.6668 8.63413 1.6668 8.63413C1.6668 8.63413 1.6668 8.63413 1.6668 8.63413C1.6668 8.63413 1.6668 8.63413 1.6668 8.63413C1.6668 8.63413 1.6668 8.63413 1.6668 8.63413C1.6668 8.63413 1.6668 8.63413 1.6668 8.63413C1.6668 8.63413 1.6668 8.63413 1.6668 8.63413C1.6668 8.63413 1.6668 8.63413 1.6668 8.63413C1.6668 8.63413 1.6668 8.63413 1.6668 8.63413C1.6668 8.63413 1.6668 8.63413 1.6668 8.63413C1.6668 8.63413 1.6668 8.63413 1.6668 8.63413C1.6668 8.63413 1.6668 8.63413 1.6668 8.63413C1.6668 8.63413 1.6668 8.63413 1.6668 8.63413C1.6668 8.63413 1.6668 8.63413 1.6668 8.63413C1.6668 8.63413 1.6668 8.63413 1.6668 8.63413C1.6668 8.63413 1.6668 8.63413 1.6668 8.63413C1.6668 8.63413 1.6668 8.63413 1.6668 8.63413C1.6668 8.63413 1.6668 8.63413 1.6668 8.63413C1.6668 8.63413 1.6668 8.63413 1.6668 8.63413C1.6668 8.63413 1.6668 8.63413 1.6668 8.63413C1.6668 8.63413 1.6668 8.63413 1.6668 8.63413C1.6668 8.63413 1.6668 8.63413 1.6668 8.63413C1.6668 8.63413 1.6668 8.63413 1.6668 8.63413C1.6668 8.63413 1.6668 8.63413 1.6668 8.63413C1.6668 8.63413 1.6668 8.63413 1.6668 8.63413C1.6668 8.63413 1.6668 8.63413 1.6668 8.63413C1.6668 8.63413 1.6668 8.63413 1.6668 8.63413C1.6668 8.63413 1.6668 8.63413 1.6668 8.63413C1.6668 8.63413 1.6668 8.63413 1.6668 8.63413C1.6668 8.63413 1.6668 8.63413 1.6668 8.63413C1.6668 8.63413 1.6668 8.63413 1.6668 8.63413C1.6668 8.63413 1.6668 8.63413 1.6668 8.63413C1.6668 8.63413 1.6668 8.63413 1.6668 8.63413C1.6668 8.63413 1.6668 8.63413 1.6668 8.63413C1.6668 8.63413 1.6668 8.63413 1.6668 8.63413C1.6668 8.63413 1.6668 8.63413 1.6668 8.63413C1.6668 8.63413 1.6668 8.63413 1.6668 8.63413C1.6668 8.63413 1.6668 8.63413 1.6668 8.63413C1.6668 8.63413 1.6668 8.63413 1.6668 8.63413C1.6668 8.63413 1.6668 8.63413 1.6668 8.63413C1.6668 8.63413 1.6668 8.63413 1.6668 8.63413C1.6668 8.63413 1.6668 8.63413 1.6668 8.63413C1.6668 8.63413 1.6668 8.63413 1.6668 8.63413C1.6668 8.63413 1.6668 8.63413 1.6668 8.63413C1.6668 8.63413 1.6668 8.63413 1.6668 8.63413C1.6668 8.63413 1.6668 8.63413 1.66681 8.63413C1.66681 8.63413 1.66681 8.63413 1.66681 8.63413C1.66681 8.63413 1.66681 8.63413 1.66681 8.63413C1.66681 8.63413 1.66681 8.63413 1.66681 8.63413C1.66681 8.63413 1.66681 8.63413 1.66681 8.63413C1.66681 8.63413 1.66681 8.63413 1.66681 8.63413C1.66681 8.63413 1.66681 8.63413 1.66681 8.63413C1.66681 8.63413 1.66681 8.63413 1.66681 8.63413C1.66681 8.63413 1.66681 8.63413 1.66681 8.63413C1.66681 8.63413 1.66681 8.63413 1.66681 8.63413C1.66681 8.63413 1.66681 8.63413 1.66681 8.63413C1.66681 8.63413 1.66681 8.63413 1.66681 8.63413C1.66681 8.63413 1.66681 8.63413 1.66681 8.63413C1.66681 8.63413 1.66681 8.63413 1.66681 8.63413C1.66681 8.63413 1.66681 8.63413 1.66681 8.63413C1.66681 8.63413 1.66681 8.63413 1.66681 8.63413C1.66681 8.63413 1.66681 8.63413 1.66681 8.63413C1.66681 8.63413 1.66681 8.63413 1.66681 8.63413C1.66681 8.63413 1.66681 8.63413 1.66681 8.63413C1.66681 8.63413 1.66681 8.63413 1.66681 8.63413C1.66681 8.63413 1.66681 8.63413 1.66681 8.63413C1.66681 8.63413 1.66681 8.63413 1.66681 8.63413C1.66681 8.63413 1.66681 8.63413 1.66681 8.63413C1.66681 8.63413 1.66681 8.63413 1.66681 8.63413C1.66681 8.63413 1.66681 8.63413 1.66681 8.63413C1.66681 8.63413 1.66681 8.63413 1.66681 8.63413C1.66681 8.63413 1.66681 8.63413 1.66681 8.63413C1.66681 8.63413 1.66681 8.63413 1.66681 8.63413C1.66681 8.63413 1.66681 8.63413 1.66681 8.63413C1.66681 8.63413 1.66681 8.63413 1.66681 8.63413C1.66681 8.63413 1.66681 8.63413 1.66681 8.63413C1.66681 8.63413 1.66681 8.63413 1.66681 8.63413C1.66681 8.63413 1.66681 8.63413 1.66681 8.63413C1.66681 8.63413 1.66681 8.63413 1.66681 8.63413C1.66681 8.63413 1.66681 8.63413 1.66681 8.63413C1.66681 8.63413 1.66681 8.63413 1.66681 8.63413C1.66681 8.63413 1.66681 8.63413 1.66681 8.63413C1.66681 8.63413 1.66681 8.63413 1.66681 8.63413C1.66681 8.63413 1.66681 8.63413 1.66681 8.63413C1.66681 8.63413 1.66681 8.63413 1.66681 8.63413C1.66681 8.63413 1.66681 8.63413 1.66681 8.63413C1.66681 8.63413 1.66681 8.63413 1.66681 8.63413C1.66681 8.63413 1.66681 8.63413 1.66681 8.63413C1.66681 8.63413 1.66681 8.63413 1.66681 8.63413C1.66681 8.63413 1.66681 8.63413 1.66681 8.63413C1.66681 8.63413 1.66681 8.63413 1.66681 8.63413C1.66681 8.63413 1.66681 8.63413 1.66681 8.63413C1.66681 8.63413 1.66681 8.63413 1.66681 8.63413C1.66681 8.63413 1.66681 8.63413 1.66681 8.63413C1.66681 8.63413 1.66681 8.63413 1.66681 8.63413C1.66681 8.63413 1.66681 8.63413 1.66681 8.63413C1.66681 8.63413 1.66681 8.63413 1.66681 8.63413C1.66681 8.63413 1.66681 8.63413 1.66681 8.63413C1.66681 8.63413 1.66681 8.63413 1.66681 8.63413C1.66681 8.63413 1.66681 8.63413 1.66681 8.63413C1.66681 8.63413 1.66681 8.63413 1.66681 8.63413C1.66681 8.63413 1.66681 8.63413 1.66681 8.63413C1.66681 8.63413 1.66681 8.63413 1.66681 8.63413C1.66681 8.63413 1.66681 8.63413 1.66681 8.63413C1.66681 8.63413 1.66681 8.63413 1.66681 8.63413C1.66682 8.63413 1.66682 8.63413 1.66682 8.63413C1.66682 8.63413 1.66682 8.63413 1.66682 8.63413C1.66682 8.63413 1.66682 8.63413 1.66682 8.63413C1.66682 8.63413 1.66682 8.63413 1.66682 8.63413C1.66682 8.63413 1.66682 8.63413 1.66682 8.63413C1.66682 8.63413 1.66682 8.63413 1.66682 8.63413C1.66682 8.63413 1.66682 8.63413 1.66682 8.63413C1.66682 8.63413 1.66682 8.63413 1.66682 8.63413C1.66682 8.63413 1.66682 8.63413 1.66682 8.63413C1.66682 8.63413 1.66682 8.63413 1.66682 8.63413C1.66682 8.63413 1.66682 8.63413 1.66682 8.63413C1.66682 8.63413 1.66682 8.63413 1.66682 8.63413C1.66682 8.63413 1.66682 8.63413 1.66682 8.63413C1.66682 8.63413 1.66682 8.63413 1.66682 8.63413C1.66682 8.63413 1.66682 8.63413 1.66682 8.63413C1.66682 8.63413 1.66682 8.63413 1.66682 8.63413C1.66682 8.63413 1.66682 8.63413 1.66682 8.63413C1.66682 8.63413 1.66682 8.63413 1.66682 8.63413C1.66682 8.63413 1.66682 8.63413 1.66682 8.63413C1.66682 8.63413 1.66682 8.63413 1.66682 8.63413C1.66682 8.63413 1.66682 8.63413 1.66682 8.63413C1.66682 8.63413 1.66682 8.63413 1.66682 8.63413C1.66682 8.63413 1.66682 8.63413 1.66682 8.63413C1.66682 8.63413 1.66682 8.63413 1.66682 8.63413C1.66682 8.63413 1.66682 8.63413 1.66682 8.63413C1.66682 8.63413 1.66682 8.63413 1.66682 8.63413C1.66682 8.63413 1.66682 8.63413 1.66682 8.63413C1.66682 8.63413 1.66682 8.63413 1.66682 8.63413C1.66682 8.63413 1.66682 8.63413 1.66682 8.63413C1.66682 8.63413 1.66682 8.63413 1.66682 8.63413C1.66682 8.63413 1.66682 8.63413 1.66682 8.63413C1.66682 8.63413 1.66682 8.63413 1.66682 8.63413C1.66682 8.63413 1.66682 8.63413 1.66682 8.63413C1.66682 8.63413 1.66682 8.63413 1.66682 8.63413C1.66682 8.63413 1.66682 8.63413 1.66682 8.63413C1.66682 8.63413 1.66682 8.63413 1.66682 8.63413C1.66682 8.63413 1.66682 8.63413 1.66682 8.63413C1.66682 8.63413 1.66682 8.63413 1.66682 8.63413C1.66682 8.63413 1.66682 8.63413 1.66682 8.63413C1.66682 8.63413 1.66682 8.63413 1.66682 8.63413C1.66682 8.63413 1.66682 8.63413 1.66682 8.63413C1.66682 8.63413 1.66682 8.63413 1.66682 8.63413C1.66682 8.63413 1.66682 8.63413 1.66682 8.63413C1.66682 8.63413 1.66682 8.63413 1.66682 8.63413C1.66682 8.63413 1.66682 8.63413 1.66682 8.63413C1.66682 8.63413 1.66682 8.63413 1.66682 8.63413C1.66682 8.63413 1.66682 8.63413 1.66682 8.63413C1.66682 8.63413 1.66682 8.63413 1.66682 8.63413C1.66682 8.63413 1.66682 8.63413 1.66682 8.63413C1.66682 8.63413 1.66682 8.63413 1.66682 8.63413C1.66682 8.63413 1.66682 8.63413 1.66682 8.63413C1.66682 8.63413 1.66682 8.63413 1.66682 8.63413C1.66682 8.63413 1.66682 8.63413 1.66682 8.63413C1.66682 8.63413 1.66682 8.63413 1.66682 8.63413C1.66682 8.63413 1.66682 8.63413 1.66682 8.63413C1.66682 8.63413 1.66682 8.63413 1.66682 8.63413C1.66682 8.63413 1.66682 8.63413 1.66682 8.63413C1.66682 8.63413 1.66682 8.63413 1.66682 8.63413C1.66682 8.63413 1.66682 8.63413 1.66682 8.63413C1.66683 8.63413 1.66683 8.63413 1.66683 8.63413C1.66683 8.63413 1.66683 8.63413 1.66683 8.63413C1.66683 8.63413 1.66683 8.63413 1.66683 8.63413C1.66683 8.63413 1.66683 8.63413 1.66683 8.63413C1.66683 8.63413 1.66683 8.63413 1.66683 8.63413C1.66683 8.63413 1.66683 8.63413 1.66683 8.63413C1.66683 8.63413 1.66683 8.63413 1.66683 8.63413C1.66683 8.63413 1.66683 8.63413 1.66683 8.63413C1.66683 8.63413 1.66683 8.63413 1.66683 8.63413C1.66683 8.63413 1.66683 8.63413 1.66683 8.63413C1.66683 8.63413 1.66683 8.63413 1.66683 8.63413C1.66683 8.63413 1.66683 8.63413 1.66683 8.63413C1.66683 8.63413 1.66683 8.63413 1.66683 8.63413C1.66683 8.63413 1.66683 8.63413 1.66683 8.63413C1.66683 8.63413 1.66683 8.63413 1.66683 8.63413C1.66683 8.63413 1.66683 8.63413 1.66683 8.63413C1.66683 8.63413 1.66683 8.63413 1.66683 8.63413C1.66683 8.63413 1.66683 8.63413 1.66683 8.63413C1.66683 8.63413 1.66683 8.63413 1.66683 8.63413C1.66683 8.63413 1.66683 8.63413 1.66683 8.63413C1.66683 8.63413 1.66683 8.63413 1.66683 8.63413C1.66683 8.63413 1.66683 8.63413 1.66683 8.63413C1.66683 8.63413 1.66683 8.63413 1.66683 8.63413C1.66683 8.63413 1.66683 8.63413 1.66683 8.63413C1.66683 8.63413 1.66683 8.63413 1.66683 8.63413C1.66683 8.63413 1.66683 8.63413 1.66683 8.63413C1.66683 8.63413 1.66683 8.63413 1.66683 8.63413C1.66683 8.63413 1.66683 8.63413 1.66683 8.63413C1.66683 8.63413 1.66683 8.63413 1.66683 8.63413C1.66683 8.63413 1.66683 8.63413 1.66683 8.63413C1.66683 8.63413 1.66683 8.63413 1.66683 8.63413C1.66683 8.63413 1.66683 8.63413 1.66683 8.63413C1.66683 8.63413 1.66683 8.63413 1.66683 8.63413C1.66683 8.63413 1.66683 8.63413 1.66683 8.63413C1.66683 8.63413 1.66683 8.63413 1.66683 8.63413C1.66683 8.63413 1.66683 8.63413 1.66683 8.63413C1.66683 8.63413 1.66683 8.63413 1.66683 8.63413C1.66683 8.63413 1.66683 8.63413 1.66683 8.63413C1.66683 8.63413 1.66683 8.63413 1.66683 8.63413C1.66683 8.63413 1.66683 8.63413 1.66683 8.63413C1.66683 8.63413 1.66683 8.63413 1.66683 8.63413C1.66683 8.63413 1.66683 8.63413 1.66683 8.63413C1.66683 8.63413 1.66683 8.63413 1.66683 8.63413C1.66683 8.63413 1.66683 8.63413 1.66683 8.63413C1.66683 8.63413 1.66683 8.63413 1.66683 8.63413C1.66683 8.63413 1.66683 8.63413 1.66683 8.63413C1.66683 8.63413 1.66683 8.63413 1.66683 8.63413C1.66683 8.63413 1.66683 8.63413 1.66683 8.63413C1.66683 8.63413 1.66683 8.63413 1.66683 8.63413C1.66683 8.63413 1.66683 8.63413 1.66683 8.63413C1.66683 8.63413 1.66683 8.63413 1.66683 8.63413C1.66683 8.63413 1.66683 8.63413 1.66683 8.63413C1.66683 8.63413 1.66683 8.63413 1.66683 8.63413C1.66683 8.63413 1.66683 8.63413 1.66683 8.63413C1.66683 8.63413 1.66683 8.63413 1.66683 8.63413C1.66683 8.63413 1.66683 8.63413 1.66683 8.63413C1.66683 8.63413 1.66683 8.63413 1.66683 8.63413V7.33413C1.66683 7.33413 1.66683 7.33413 1.66683 7.33413C1.66683 7.33413 1.66683 7.33413 1.66683 7.33413C1.66683 7.33413 1.66683 7.33413 1.66683 7.33413C1.66683 7.33413 1.66683 7.33413 1.66683 7.33413C1.66683 7.33413 1.66683 7.33413 1.66683 7.33413C1.66683 7.33413 1.66683 7.33413 1.66683 7.33413C1.66683 7.33413 1.66683 7.33413 1.66683 7.33413C1.66683 7.33413 1.66683 7.33413 1.66683 7.33413C1.66683 7.33413 1.66683 7.33413 1.66683 7.33413C1.66683 7.33413 1.66683 7.33413 1.66683 7.33413C1.66683 7.33413 1.66683 7.33413 1.66683 7.33413C1.66683 7.33413 1.66683 7.33413 1.66683 7.33413C1.66683 7.33413 1.66683 7.33413 1.66683 7.33413C1.66683 7.33413 1.66683 7.33413 1.66683 7.33413C1.66683 7.33413 1.66683 7.33413 1.66683 7.33413C1.66683 7.33413 1.66683 7.33413 1.66683 7.33413C1.66683 7.33413 1.66683 7.33413 1.66683 7.33413C1.66683 7.33413 1.66683 7.33413 1.66683 7.33413C1.66683 7.33413 1.66683 7.33413 1.66683 7.33413C1.66683 7.33413 1.66683 7.33413 1.66683 7.33413C1.66683 7.33413 1.66683 7.33413 1.66683 7.33413C1.66683 7.33413 1.66683 7.33413 1.66683 7.33413C1.66683 7.33413 1.66683 7.33413 1.66683 7.33413C1.66683 7.33413 1.66683 7.33413 1.66683 7.33413C1.66683 7.33413 1.66683 7.33413 1.66683 7.33413C1.66683 7.33413 1.66683 7.33413 1.66683 7.33413C1.66683 7.33413 1.66683 7.33413 1.66683 7.33413C1.66683 7.33413 1.66683 7.33413 1.66683 7.33413C1.66683 7.33413 1.66683 7.33413 1.66683 7.33413C1.66683 7.33413 1.66683 7.33413 1.66683 7.33413C1.66683 7.33413 1.66683 7.33413 1.66683 7.33413C1.66683 7.33413 1.66683 7.33413 1.66683 7.33413C1.66683 7.33413 1.66683 7.33413 1.66683 7.33413C1.66683 7.33413 1.66683 7.33413 1.66683 7.33413C1.66683 7.33413 1.66683 7.33413 1.66683 7.33413C1.66683 7.33413 1.66683 7.33413 1.66683 7.33413C1.66683 7.33413 1.66683 7.33413 1.66683 7.33413C1.66683 7.33413 1.66683 7.33413 1.66683 7.33413C1.66683 7.33413 1.66683 7.33413 1.66683 7.33413C1.66683 7.33413 1.66683 7.33413 1.66683 7.33413C1.66683 7.33413 1.66683 7.33413 1.66683 7.33413C1.66683 7.33413 1.66683 7.33413 1.66683 7.33413C1.66683 7.33413 1.66683 7.33413 1.66683 7.33413C1.66683 7.33413 1.66683 7.33413 1.66683 7.33413C1.66683 7.33413 1.66683 7.33413 1.66683 7.33413C1.66683 7.33413 1.66683 7.33413 1.66683 7.33413C1.66683 7.33413 1.66683 7.33413 1.66683 7.33413C1.66683 7.33413 1.66683 7.33413 1.66683 7.33413C1.66683 7.33413 1.66683 7.33413 1.66683 7.33413C1.66683 7.33413 1.66683 7.33413 1.66683 7.33413C1.66683 7.33413 1.66683 7.33413 1.66683 7.33413C1.66683 7.33413 1.66683 7.33413 1.66683 7.33413C1.66683 7.33413 1.66683 7.33413 1.66683 7.33413C1.66683 7.33413 1.66683 7.33413 1.66683 7.33413C1.66683 7.33413 1.66683 7.33413 1.66683 7.33413C1.66683 7.33413 1.66683 7.33413 1.66683 7.33413C1.66683 7.33413 1.66683 7.33413 1.66682 7.33413C1.66682 7.33413 1.66682 7.33413 1.66682 7.33413C1.66682 7.33413 1.66682 7.33413 1.66682 7.33413C1.66682 7.33413 1.66682 7.33413 1.66682 7.33413C1.66682 7.33413 1.66682 7.33413 1.66682 7.33413C1.66682 7.33413 1.66682 7.33413 1.66682 7.33413C1.66682 7.33413 1.66682 7.33413 1.66682 7.33413C1.66682 7.33413 1.66682 7.33413 1.66682 7.33413C1.66682 7.33413 1.66682 7.33413 1.66682 7.33413C1.66682 7.33413 1.66682 7.33413 1.66682 7.33413C1.66682 7.33413 1.66682 7.33413 1.66682 7.33413C1.66682 7.33413 1.66682 7.33413 1.66682 7.33413C1.66682 7.33413 1.66682 7.33413 1.66682 7.33413C1.66682 7.33413 1.66682 7.33413 1.66682 7.33413C1.66682 7.33413 1.66682 7.33413 1.66682 7.33413C1.66682 7.33413 1.66682 7.33413 1.66682 7.33413C1.66682 7.33413 1.66682 7.33413 1.66682 7.33413C1.66682 7.33413 1.66682 7.33413 1.66682 7.33413C1.66682 7.33413 1.66682 7.33413 1.66682 7.33413C1.66682 7.33413 1.66682 7.33413 1.66682 7.33413C1.66682 7.33413 1.66682 7.33413 1.66682 7.33413C1.66682 7.33413 1.66682 7.33413 1.66682 7.33413C1.66682 7.33413 1.66682 7.33413 1.66682 7.33413C1.66682 7.33413 1.66682 7.33413 1.66682 7.33413C1.66682 7.33413 1.66682 7.33413 1.66682 7.33413C1.66682 7.33413 1.66682 7.33413 1.66682 7.33413C1.66682 7.33413 1.66682 7.33413 1.66682 7.33413C1.66682 7.33413 1.66682 7.33413 1.66682 7.33413C1.66682 7.33413 1.66682 7.33413 1.66682 7.33413C1.66682 7.33413 1.66682 7.33413 1.66682 7.33413C1.66682 7.33413 1.66682 7.33413 1.66682 7.33413C1.66682 7.33413 1.66682 7.33413 1.66682 7.33413C1.66682 7.33413 1.66682 7.33413 1.66682 7.33413C1.66682 7.33413 1.66682 7.33413 1.66682 7.33413C1.66682 7.33413 1.66682 7.33413 1.66682 7.33413C1.66682 7.33413 1.66682 7.33413 1.66682 7.33413C1.66682 7.33413 1.66682 7.33413 1.66682 7.33413C1.66682 7.33413 1.66682 7.33413 1.66682 7.33413C1.66682 7.33413 1.66682 7.33413 1.66682 7.33413C1.66682 7.33413 1.66682 7.33413 1.66682 7.33413C1.66682 7.33413 1.66682 7.33413 1.66682 7.33413C1.66682 7.33413 1.66682 7.33413 1.66682 7.33413C1.66682 7.33413 1.66682 7.33413 1.66682 7.33413C1.66682 7.33413 1.66682 7.33413 1.66682 7.33413C1.66682 7.33413 1.66682 7.33413 1.66682 7.33413C1.66682 7.33413 1.66682 7.33413 1.66682 7.33413C1.66682 7.33413 1.66682 7.33413 1.66682 7.33413C1.66682 7.33413 1.66682 7.33413 1.66682 7.33413C1.66682 7.33413 1.66682 7.33413 1.66682 7.33413C1.66682 7.33413 1.66682 7.33413 1.66682 7.33413C1.66682 7.33413 1.66682 7.33413 1.66682 7.33413C1.66682 7.33413 1.66682 7.33413 1.66682 7.33413C1.66682 7.33413 1.66682 7.33413 1.66682 7.33413C1.66682 7.33413 1.66682 7.33413 1.66682 7.33413C1.66682 7.33413 1.66682 7.33413 1.66682 7.33413C1.66682 7.33413 1.66682 7.33413 1.66682 7.33413C1.66682 7.33413 1.66682 7.33413 1.66682 7.33413C1.66682 7.33413 1.66682 7.33413 1.66682 7.33413C1.66682 7.33413 1.66682 7.33413 1.66682 7.33413C1.66682 7.33413 1.66682 7.33413 1.66681 7.33413C1.66681 7.33413 1.66681 7.33413 1.66681 7.33413C1.66681 7.33413 1.66681 7.33413 1.66681 7.33413C1.66681 7.33413 1.66681 7.33413 1.66681 7.33413C1.66681 7.33413 1.66681 7.33413 1.66681 7.33413C1.66681 7.33413 1.66681 7.33413 1.66681 7.33413C1.66681 7.33413 1.66681 7.33413 1.66681 7.33413C1.66681 7.33413 1.66681 7.33413 1.66681 7.33413C1.66681 7.33413 1.66681 7.33413 1.66681 7.33413C1.66681 7.33413 1.66681 7.33413 1.66681 7.33413C1.66681 7.33413 1.66681 7.33413 1.66681 7.33413C1.66681 7.33413 1.66681 7.33413 1.66681 7.33413C1.66681 7.33413 1.66681 7.33413 1.66681 7.33413C1.66681 7.33413 1.66681 7.33413 1.66681 7.33413C1.66681 7.33413 1.66681 7.33413 1.66681 7.33413C1.66681 7.33413 1.66681 7.33413 1.66681 7.33413C1.66681 7.33413 1.66681 7.33413 1.66681 7.33413C1.66681 7.33413 1.66681 7.33413 1.66681 7.33413C1.66681 7.33413 1.66681 7.33413 1.66681 7.33413C1.66681 7.33413 1.66681 7.33413 1.66681 7.33413C1.66681 7.33413 1.66681 7.33413 1.66681 7.33413C1.66681 7.33413 1.66681 7.33413 1.66681 7.33413C1.66681 7.33413 1.66681 7.33413 1.66681 7.33413C1.66681 7.33413 1.66681 7.33413 1.66681 7.33413C1.66681 7.33413 1.66681 7.33413 1.66681 7.33413C1.66681 7.33413 1.66681 7.33413 1.66681 7.33413C1.66681 7.33413 1.66681 7.33413 1.66681 7.33413C1.66681 7.33413 1.66681 7.33413 1.66681 7.33413C1.66681 7.33413 1.66681 7.33413 1.66681 7.33413C1.66681 7.33413 1.66681 7.33413 1.66681 7.33413C1.66681 7.33413 1.66681 7.33413 1.66681 7.33413C1.66681 7.33413 1.66681 7.33413 1.66681 7.33413C1.66681 7.33413 1.66681 7.33413 1.66681 7.33413C1.66681 7.33413 1.66681 7.33413 1.66681 7.33413C1.66681 7.33413 1.66681 7.33413 1.66681 7.33413C1.66681 7.33413 1.66681 7.33413 1.66681 7.33413C1.66681 7.33413 1.66681 7.33413 1.66681 7.33413C1.66681 7.33413 1.66681 7.33413 1.66681 7.33413C1.66681 7.33413 1.66681 7.33413 1.66681 7.33413C1.66681 7.33413 1.66681 7.33413 1.66681 7.33413C1.66681 7.33413 1.66681 7.33413 1.66681 7.33413C1.66681 7.33413 1.66681 7.33413 1.66681 7.33413C1.66681 7.33413 1.66681 7.33413 1.66681 7.33413C1.66681 7.33413 1.66681 7.33413 1.66681 7.33413C1.66681 7.33413 1.66681 7.33413 1.66681 7.33413C1.66681 7.33413 1.66681 7.33413 1.66681 7.33413C1.66681 7.33413 1.66681 7.33413 1.66681 7.33413C1.66681 7.33413 1.66681 7.33413 1.66681 7.33413C1.66681 7.33413 1.66681 7.33413 1.66681 7.33413C1.66681 7.33413 1.66681 7.33413 1.66681 7.33413C1.66681 7.33413 1.66681 7.33413 1.66681 7.33413C1.66681 7.33413 1.66681 7.33413 1.66681 7.33413C1.66681 7.33413 1.66681 7.33413 1.66681 7.33413C1.66681 7.33413 1.66681 7.33413 1.66681 7.33413C1.66681 7.33413 1.66681 7.33413 1.66681 7.33413C1.66681 7.33413 1.66681 7.33413 1.66681 7.33413C1.66681 7.33413 1.66681 7.33413 1.66681 7.33413C1.66681 7.33413 1.66681 7.33413 1.66681 7.33413C1.66681 7.33413 1.66681 7.33413 1.66681 7.33413C1.66681 7.33413 1.66681 7.33413 1.66681 7.33413C1.6668 7.33413 1.6668 7.33413 1.6668 7.33413C1.6668 7.33413 1.6668 7.33413 1.6668 7.33413C1.6668 7.33413 1.6668 7.33413 1.6668 7.33413C1.6668 7.33413 1.6668 7.33413 1.6668 7.33413C1.6668 7.33413 1.6668 7.33413 1.6668 7.33413C1.6668 7.33413 1.6668 7.33413 1.6668 7.33413C1.6668 7.33413 1.6668 7.33413 1.6668 7.33413C1.6668 7.33413 1.6668 7.33413 1.6668 7.33413C1.6668 7.33413 1.6668 7.33413 1.6668 7.33413C1.6668 7.33413 1.6668 7.33413 1.6668 7.33413C1.6668 7.33413 1.6668 7.33413 1.6668 7.33413C1.6668 7.33413 1.6668 7.33413 1.6668 7.33413C1.6668 7.33413 1.6668 7.33413 1.6668 7.33413C1.6668 7.33413 1.6668 7.33413 1.6668 7.33413C1.6668 7.33413 1.6668 7.33413 1.6668 7.33413C1.6668 7.33413 1.6668 7.33413 1.6668 7.33413C1.6668 7.33413 1.6668 7.33413 1.6668 7.33413C1.6668 7.33413 1.6668 7.33413 1.6668 7.33413C1.6668 7.33413 1.6668 7.33413 1.6668 7.33413C1.6668 7.33413 1.6668 7.33413 1.6668 7.33413C1.6668 7.33413 1.6668 7.33413 1.6668 7.33413C1.6668 7.33413 1.6668 7.33413 1.6668 7.33413C1.6668 7.33413 1.6668 7.33413 1.6668 7.33413C1.6668 7.33413 1.6668 7.33413 1.6668 7.33413C1.6668 7.33413 1.6668 7.33413 1.6668 7.33413C1.6668 7.33413 1.6668 7.33413 1.6668 7.33413C1.6668 7.33413 1.6668 7.33413 1.6668 7.33413C1.6668 7.33413 1.6668 7.33413 1.6668 7.33413C1.6668 7.33413 1.6668 7.33413 1.6668 7.33413C1.6668 7.33413 1.6668 7.33413 1.6668 7.33413C1.6668 7.33413 1.6668 7.33413 1.6668 7.33413C1.6668 7.33413 1.6668 7.33413 1.6668 7.33413C1.6668 7.33413 1.6668 7.33413 1.6668 7.33413C1.6668 7.33413 1.6668 7.33413 1.6668 7.33413C1.6668 7.33413 1.6668 7.33413 1.6668 7.33413C1.6668 7.33413 1.6668 7.33413 1.6668 7.33413C1.6668 7.33413 1.6668 7.33413 1.6668 7.33413C1.6668 7.33413 1.6668 7.33413 1.6668 7.33413C1.6668 7.33413 1.6668 7.33413 1.6668 7.33413C1.6668 7.33413 1.6668 7.33413 1.6668 7.33413C1.6668 7.33413 1.6668 7.33413 1.6668 7.33413C1.6668 7.33413 1.6668 7.33413 1.6668 7.33413C1.6668 7.33413 1.6668 7.33413 1.6668 7.33413C1.6668 7.33413 1.6668 7.33413 1.6668 7.33413C1.6668 7.33413 1.6668 7.33413 1.6668 7.33413C1.6668 7.33413 1.6668 7.33413 1.6668 7.33413C1.6668 7.33413 1.6668 7.33413 1.6668 7.33413C1.6668 7.33413 1.6668 7.33413 1.6668 7.33413C1.6668 7.33413 1.6668 7.33413 1.6668 7.33413C1.6668 7.33413 1.6668 7.33413 1.6668 7.33413C1.6668 7.33413 1.6668 7.33413 1.6668 7.33413C1.6668 7.33413 1.6668 7.33413 1.6668 7.33413C1.6668 7.33413 1.6668 7.33413 1.6668 7.33413C1.6668 7.33413 1.6668 7.33413 1.6668 7.33413C1.6668 7.33413 1.6668 7.33413 1.6668 7.33413C1.6668 7.33413 1.6668 7.33413 1.6668 7.33413C1.6668 7.33413 1.6668 7.33413 1.6668 7.33413C1.6668 7.33413 1.6668 7.33413 1.6668 7.33413C1.6668 7.33413 1.6668 7.33413 1.6668 7.33413C1.66679 7.33413 1.66679 7.33413 1.66679 7.33413C1.66679 7.33413 1.66679 7.33413 1.66679 7.33413C1.66679 7.33413 1.66679 7.33413 1.66679 7.33413C1.66679 7.33413 1.66679 7.33413 1.66679 7.33413C1.66679 7.33413 1.66679 7.33413 1.66679 7.33413C1.66679 7.33413 1.66679 7.33413 1.66679 7.33413C1.66679 7.33413 1.66679 7.33413 1.66679 7.33413C1.66679 7.33413 1.66679 7.33413 1.66679 7.33413C1.66679 7.33413 1.66679 7.33413 1.66679 7.33413C1.66679 7.33413 1.66679 7.33413 1.66679 7.33413C1.66679 7.33413 1.66679 7.33413 1.66679 7.33413C1.66679 7.33413 1.66679 7.33413 1.66679 7.33413C1.66679 7.33413 1.66679 7.33413 1.66679 7.33413C1.66679 7.33413 1.66679 7.33413 1.66679 7.33413C1.66679 7.33413 1.66679 7.33413 1.66679 7.33413C1.66679 7.33413 1.66679 7.33413 1.66679 7.33413C1.66679 7.33413 1.66679 7.33413 1.66679 7.33413C1.66679 7.33413 1.66679 7.33413 1.66679 7.33413C1.66679 7.33413 1.66679 7.33413 1.66679 7.33413C1.66679 7.33413 1.66679 7.33413 1.66679 7.33413C1.66679 7.33413 1.66679 7.33413 1.66679 7.33413C1.66679 7.33413 1.66679 7.33413 1.66679 7.33413C1.66679 7.33413 1.66679 7.33413 1.66679 7.33413C1.66679 7.33413 1.66679 7.33413 1.66679 7.33413C1.66679 7.33413 1.66679 7.33413 1.66679 7.33413C1.66679 7.33413 1.66679 7.33413 1.66679 7.33413C1.66679 7.33413 1.66679 7.33413 1.66679 7.33413C1.66679 7.33413 1.66679 7.33413 1.66679 7.33413C1.66679 7.33413 1.66679 7.33413 1.66679 7.33413C1.66679 7.33413 1.66679 7.33413 1.66679 7.33413C1.66679 7.33413 1.66679 7.33413 1.66679 7.33413C1.66679 7.33413 1.66679 7.33413 1.66679 7.33413C1.66679 7.33413 1.66679 7.33413 1.66679 7.33413C1.66679 7.33413 1.66679 7.33413 1.66679 7.33413C1.66679 7.33413 1.66679 7.33413 1.66679 7.33413C1.66679 7.33413 1.66679 7.33413 1.66679 7.33413C1.66679 7.33413 1.66679 7.33413 1.66679 7.33413C1.66679 7.33413 1.66679 7.33413 1.66679 7.33413C1.66679 7.33413 1.66679 7.33413 1.66679 7.33413C1.66679 7.33413 1.66679 7.33413 1.66679 7.33413C1.66679 7.33413 1.66679 7.33413 1.66679 7.33413C1.66679 7.33413 1.66679 7.33413 1.66679 7.33413C1.66679 7.33413 1.66679 7.33413 1.66679 7.33413C1.66679 7.33413 1.66679 7.33413 1.66679 7.33413C1.66679 7.33413 1.66679 7.33413 1.66679 7.33413C1.66679 7.33413 1.66679 7.33413 1.66679 7.33413C1.66679 7.33413 1.66679 7.33413 1.66679 7.33413C1.66679 7.33413 1.66679 7.33413 1.66679 7.33413C1.66679 7.33413 1.66679 7.33413 1.66679 7.33413C1.66679 7.33413 1.66679 7.33413 1.66679 7.33413C1.66679 7.33413 1.66679 7.33413 1.66679 7.33413C1.66679 7.33413 1.66679 7.33413 1.66679 7.33413C1.66679 7.33413 1.66679 7.33413 1.66679 7.33413C1.66679 7.33413 1.66679 7.33413 1.66679 7.33413C1.66679 7.33413 1.66679 7.33413 1.66679 7.33413C1.66679 7.33413 1.66679 7.33413 1.66679 7.33413C1.66679 7.33413 1.66679 7.33413 1.66679 7.33413C1.66679 7.33413 1.66679 7.33413 1.66679 7.33413C1.66679 7.33413 1.66679 7.33413 1.66679 7.33413C1.66679 7.33413 1.66678 7.33413 1.66678 7.33413C1.66678 7.33413 1.66678 7.33413 1.66678 7.33413C1.66678 7.33413 1.66678 7.33413 1.66678 7.33413C1.66678 7.33413 1.66678 7.33413 1.66678 7.33413C1.66678 7.33413 1.66678 7.33413 1.66678 7.33413C1.66678 7.33413 1.66678 7.33413 1.66678 7.33413C1.66678 7.33413 1.66678 7.33413 1.66678 7.33413C1.66678 7.33413 1.66678 7.33413 1.66678 7.33413C1.66678 7.33413 1.66678 7.33413 1.66678 7.33413C1.66678 7.33413 1.66678 7.33413 1.66678 7.33413C1.66678 7.33413 1.66678 7.33413 1.66678 7.33413C1.66678 7.33413 1.66678 7.33413 1.66678 7.33413C1.66678 7.33413 1.66678 7.33413 1.66678 7.33413C1.66678 7.33413 1.66678 7.33413 1.66678 7.33413C1.66678 7.33413 1.66678 7.33413 1.66678 7.33413C1.66678 7.33413 1.66678 7.33413 1.66678 7.33413C1.66678 7.33413 1.66678 7.33413 1.66678 7.33413C1.66678 7.33413 1.66678 7.33413 1.66678 7.33413C1.66678 7.33413 1.66678 7.33413 1.66678 7.33413C1.66678 7.33413 1.66678 7.33413 1.66678 7.33413C1.66678 7.33413 1.66678 7.33413 1.66678 7.33413C1.66678 7.33413 1.66678 7.33413 1.66678 7.33413C1.66678 7.33413 1.66678 7.33413 1.66678 7.33413C1.66678 7.33413 1.66678 7.33413 1.66678 7.33413C1.66678 7.33413 1.66678 7.33413 1.66678 7.33413C1.66678 7.33413 1.66678 7.33413 1.66678 7.33413C1.66678 7.33413 1.66678 7.33413 1.66678 7.33413C1.66678 7.33413 1.66678 7.33413 1.66678 7.33413C1.66678 7.33413 1.66678 7.33413 1.66678 7.33413C1.66678 7.33413 1.66678 7.33413 1.66678 7.33413C1.66678 7.33413 1.66678 7.33413 1.66678 7.33413C1.66678 7.33413 1.66678 7.33413 1.66678 7.33413C1.66678 7.33413 1.66678 7.33413 1.66678 7.33413C1.66678 7.33413 1.66678 7.33413 1.66678 7.33413C1.66678 7.33413 1.66678 7.33413 1.66678 7.33413C1.66678 7.33413 1.66678 7.33413 1.66678 7.33413C1.66678 7.33413 1.66678 7.33413 1.66678 7.33413C1.66678 7.33413 1.66678 7.33413 1.66678 7.33413C1.66678 7.33413 1.66678 7.33413 1.66678 7.33413C1.66678 7.33413 1.66678 7.33413 1.66678 7.33413C1.66678 7.33413 1.66678 7.33413 1.66678 7.33413C1.66678 7.33413 1.66678 7.33413 1.66678 7.33413C1.66678 7.33413 1.66678 7.33413 1.66678 7.33413C1.66678 7.33413 1.66678 7.33413 1.66678 7.33413C1.66678 7.33413 1.66678 7.33413 1.66678 7.33413C1.66678 7.33413 1.66678 7.33413 1.66678 7.33413C1.66678 7.33413 1.66678 7.33413 1.66678 7.33413C1.66678 7.33413 1.66678 7.33413 1.66678 7.33413C1.66678 7.33413 1.66678 7.33413 1.66678 7.33413C1.66678 7.33413 1.66678 7.33413 1.66678 7.33413C1.66678 7.33413 1.66678 7.33413 1.66678 7.33413C1.66678 7.33413 1.66678 7.33413 1.66678 7.33413C1.66678 7.33413 1.66678 7.33413 1.66678 7.33413C1.66678 7.33413 1.66678 7.33413 1.66678 7.33413C1.66678 7.33413 1.66678 7.33413 1.66678 7.33413C1.66678 7.33413 1.66678 7.33413 1.66678 7.33413C1.66678 7.33413 1.66678 7.33413 1.66678 7.33413C1.66678 7.33413 1.66678 7.33413 1.66678 7.33413C1.66678 7.33413 1.66678 7.33413 1.66678 7.33413C1.66678 7.33413 1.66677 7.33413 1.66677 7.33413C1.66677 7.33413 1.66677 7.33413 1.66677 7.33413C1.66677 7.33413 1.66677 7.33413 1.66677 7.33413C1.66677 7.33413 1.66677 7.33413 1.66677 7.33413C1.66677 7.33413 1.66677 7.33413 1.66677 7.33413C1.66677 7.33413 1.66677 7.33413 1.66677 7.33413C1.66677 7.33413 1.66677 7.33413 1.66677 7.33413C1.66677 7.33413 1.66677 7.33413 1.66677 7.33413C1.66677 7.33413 1.66677 7.33413 1.66677 7.33413C1.66677 7.33413 1.66677 7.33413 1.66677 7.33413C1.66677 7.33413 1.66677 7.33413 1.66677 7.33413C1.66677 7.33413 1.66677 7.33413 1.66677 7.33413C1.66677 7.33413 1.66677 7.33413 1.66677 7.33413C1.66677 7.33413 1.66677 7.33413 1.66677 7.33413C1.66677 7.33413 1.66677 7.33413 1.66677 7.33413C1.66677 7.33413 1.66677 7.33413 1.66677 7.33413C1.66677 7.33413 1.66677 7.33413 1.66677 7.33413C1.66677 7.33413 1.66677 7.33413 1.66677 7.33413C1.66677 7.33413 1.66677 7.33413 1.66677 7.33413C1.66677 7.33413 1.66677 7.33413 1.66677 7.33413C1.66677 7.33413 1.66677 7.33413 1.66677 7.33413C1.66677 7.33413 1.66677 7.33413 1.66677 7.33413C1.66677 7.33413 1.66677 7.33413 1.66677 7.33413C1.66677 7.33413 1.66677 7.33413 1.66677 7.33413C1.66677 7.33413 1.66677 7.33413 1.66677 7.33413C1.66677 7.33413 1.66677 7.33413 1.66677 7.33413C1.66677 7.33413 1.66677 7.33413 1.66677 7.33413C1.66677 7.33413 1.66677 7.33413 1.66677 7.33413C1.66677 7.33413 1.66677 7.33413 1.66677 7.33413C1.66677 7.33413 1.66677 7.33413 1.66677 7.33413C1.66677 7.33413 1.66677 7.33413 1.66677 7.33413C1.66677 7.33413 1.66677 7.33413 1.66677 7.33413C1.66677 7.33413 1.66677 7.33413 1.66677 7.33413C1.66677 7.33413 1.66677 7.33413 1.66677 7.33413C1.66677 7.33413 1.66677 7.33413 1.66677 7.33413C1.66677 7.33413 1.66677 7.33413 1.66677 7.33413C1.66677 7.33413 1.66677 7.33413 1.66677 7.33413C1.66677 7.33413 1.66677 7.33413 1.66677 7.33413C1.66677 7.33413 1.66677 7.33413 1.66677 7.33413C1.66677 7.33413 1.66677 7.33413 1.66677 7.33413C1.66677 7.33413 1.66677 7.33413 1.66677 7.33413C1.66677 7.33413 1.66677 7.33413 1.66677 7.33413C1.66677 7.33413 1.66677 7.33413 1.66677 7.33413C1.66677 7.33413 1.66677 7.33413 1.66677 7.33413C1.66677 7.33413 1.66677 7.33413 1.66677 7.33413C1.66677 7.33413 1.66677 7.33413 1.66677 7.33413C1.66677 7.33413 1.66677 7.33413 1.66677 7.33413C1.66677 7.33413 1.66677 7.33413 1.66677 7.33413C1.66677 7.33413 1.66677 7.33413 1.66677 7.33413C1.66677 7.33413 1.66677 7.33413 1.66677 7.33413C1.66677 7.33413 1.66677 7.33413 1.66677 7.33413C1.66677 7.33413 1.66677 7.33413 1.66677 7.33413C1.66677 7.33413 1.66677 7.33413 1.66677 7.33413C1.66677 7.33413 1.66677 7.33413 1.66677 7.33413C1.66677 7.33413 1.66677 7.33413 1.66677 7.33413C1.66677 7.33413 1.66677 7.33413 1.66677 7.33413C1.66677 7.33413 1.66677 7.33413 1.66677 7.33413C1.66677 7.33413 1.66677 7.33413 1.66677 7.33413C1.66677 7.33413 1.66677 7.33413 1.66677 7.33413C1.66677 7.33413 1.66677 7.33413 1.66676 7.33413C1.66676 7.33413 1.66676 7.33413 1.66676 7.33413C1.66676 7.33413 1.66676 7.33413 1.66676 7.33413C1.66676 7.33413 1.66676 7.33413 1.66676 7.33413C1.66676 7.33413 1.66676 7.33413 1.66676 7.33413C1.66676 7.33413 1.66676 7.33413 1.66676 7.33413C1.66676 7.33413 1.66676 7.33413 1.66676 7.33413C1.66676 7.33413 1.66676 7.33413 1.66676 7.33413C1.66676 7.33413 1.66676 7.33413 1.66676 7.33413C1.66676 7.33413 1.66676 7.33413 1.66676 7.33413C1.66676 7.33413 1.66676 7.33413 1.66676 7.33413C1.66676 7.33413 1.66676 7.33413 1.66676 7.33413C1.66676 7.33413 1.66676 7.33413 1.66676 7.33413C1.66676 7.33413 1.66676 7.33413 1.66676 7.33413C1.66676 7.33413 1.66676 7.33413 1.66676 7.33413C1.66676 7.33413 1.66676 7.33413 1.66676 7.33413C1.66676 7.33413 1.66676 7.33413 1.66676 7.33413C1.66676 7.33413 1.66676 7.33413 1.66676 7.33413C1.66676 7.33413 1.66676 7.33413 1.66676 7.33413C1.66676 7.33413 1.66676 7.33413 1.66676 7.33413C1.66676 7.33413 1.66676 7.33413 1.66676 7.33413C1.66676 7.33413 1.66676 7.33413 1.66676 7.33413C1.66676 7.33413 1.66676 7.33413 1.66676 7.33413C1.66676 7.33413 1.66676 7.33413 1.66676 7.33413C1.66676 7.33413 1.66676 7.33413 1.66676 7.33413C1.66676 7.33413 1.66676 7.33413 1.66676 7.33413C1.66676 7.33413 1.66676 7.33413 1.66676 7.33413C1.66676 7.33413 1.66676 7.33413 1.66676 7.33413C1.66676 7.33413 1.66676 7.33413 1.66676 7.33413C1.66676 7.33413 1.66676 7.33413 1.66676 7.33413C1.66676 7.33413 1.66676 7.33413 1.66676 7.33413C1.66676 7.33413 1.66676 7.33413 1.66676 7.33413C1.66676 7.33413 1.66676 7.33413 1.66676 7.33413C1.66676 7.33413 1.66676 7.33413 1.66676 7.33413C1.66676 7.33413 1.66676 7.33413 1.66676 7.33413C1.66676 7.33413 1.66676 7.33413 1.66676 7.33413C1.66676 7.33413 1.66676 7.33413 1.66676 7.33413C1.66676 7.33413 1.66676 7.33413 1.66676 7.33413C1.66676 7.33413 1.66676 7.33413 1.66676 7.33413C1.66676 7.33413 1.66676 7.33413 1.66676 7.33413C1.66676 7.33413 1.66676 7.33413 1.66676 7.33413C1.66676 7.33413 1.66676 7.33413 1.66676 7.33413C1.66676 7.33413 1.66676 7.33413 1.66676 7.33413C1.66676 7.33413 1.66676 7.33413 1.66676 7.33413C1.66676 7.33413 1.66676 7.33413 1.66676 7.33413C1.66676 7.33413 1.66676 7.33413 1.66676 7.33413C1.66676 7.33413 1.66676 7.33413 1.66676 7.33413C1.66676 7.33413 1.66676 7.33413 1.66676 7.33413C1.66676 7.33413 1.66676 7.33413 1.66676 7.33413C1.66676 7.33413 1.66676 7.33413 1.66676 7.33413C1.66676 7.33413 1.66676 7.33413 1.66676 7.33413C1.66676 7.33413 1.66676 7.33413 1.66676 7.33413C1.66676 7.33413 1.66676 7.33413 1.66676 7.33413C1.66676 7.33413 1.66676 7.33413 1.66676 7.33413C1.66676 7.33413 1.66676 7.33413 1.66676 7.33413C1.66676 7.33413 1.66676 7.33413 1.66676 7.33413C1.66676 7.33413 1.66676 7.33413 1.66676 7.33413C1.66676 7.33413 1.66676 7.33413 1.66676 7.33413C1.66676 7.33413 1.66676 7.33413 1.66676 7.33413C1.66676 7.33413 1.66676 7.33413 1.66675 7.33413C1.66675 7.33413 1.66675 7.33413 1.66675 7.33413C1.66675 7.33413 1.66675 7.33413 1.66675 7.33413C1.66675 7.33413 1.66675 7.33413 1.66675 7.33413C1.66675 7.33413 1.66675 7.33413 1.66675 7.33413C1.66675 7.33413 1.66675 7.33413 1.66675 7.33413C1.66675 7.33413 1.66675 7.33413 1.66675 7.33413C1.66675 7.33413 1.66675 7.33413 1.66675 7.33413C1.66675 7.33413 1.66675 7.33413 1.66675 7.33413C1.66675 7.33413 1.66675 7.33413 1.66675 7.33413C1.66675 7.33413 1.66675 7.33413 1.66675 7.33413C1.66675 7.33413 1.66675 7.33413 1.66675 7.33413C1.66675 7.33413 1.66675 7.33413 1.66675 7.33413C1.66675 7.33413 1.66675 7.33413 1.66675 7.33413C1.66675 7.33413 1.66675 7.33413 1.66675 7.33413C1.66675 7.33413 1.66675 7.33413 1.66675 7.33413C1.66675 7.33413 1.66675 7.33413 1.66675 7.33413C1.66675 7.33413 1.66675 7.33413 1.66675 7.33413C1.66675 7.33413 1.66675 7.33413 1.66675 7.33413C1.66675 7.33413 1.66675 7.33413 1.66675 7.33413C1.66675 7.33413 1.66675 7.33413 1.66675 7.33413C1.66675 7.33413 1.66675 7.33413 1.66675 7.33413C1.66675 7.33413 1.66675 7.33413 1.66675 7.33413C1.66675 7.33413 1.66675 7.33413 1.66675 7.33413C1.66675 7.33413 1.66675 7.33413 1.66675 7.33413C1.66675 7.33413 1.66675 7.33413 1.66675 7.33413C1.66675 7.33413 1.66675 7.33413 1.66675 7.33413C1.66675 7.33413 1.66675 7.33413 1.66675 7.33413C1.66675 7.33413 1.66675 7.33413 1.66675 7.33413C1.66675 7.33413 1.66675 7.33413 1.66675 7.33413C1.66675 7.33413 1.66675 7.33413 1.66675 7.33413C1.66675 7.33413 1.66675 7.33413 1.66675 7.33413C1.66675 7.33413 1.66675 7.33413 1.66675 7.33413C1.66675 7.33413 1.66675 7.33413 1.66675 7.33413C1.66675 7.33413 1.66675 7.33413 1.66675 7.33413C1.66675 7.33413 1.66675 7.33413 1.66675 7.33413C1.66675 7.33413 1.66675 7.33413 1.66675 7.33413C1.66675 7.33413 1.66675 7.33413 1.66675 7.33413C1.66675 7.33413 1.66675 7.33413 1.66675 7.33413C1.66675 7.33413 1.66675 7.33413 1.66675 7.33413C1.66675 7.33413 1.66675 7.33413 1.66675 7.33413C1.66675 7.33413 1.66675 7.33413 1.66675 7.33413V8.63413ZM1.01675 5.16662V7.98413H2.31675V5.16662H1.01675Z" fill="#2E47BA"/>
<path d="M7.58301 16.0386L7.58301 15.3292L7.58301 14.4719" stroke="#2E47BA" stroke-width="1.3" stroke-linecap="round"/>
<path d="M7.58301 12.1691L7.58301 11.4597L7.58301 10.6024" stroke="#2E47BA" stroke-width="1.3" stroke-linecap="round"/>
<path d="M7.58301 8.29943L7.58301 7.59006L7.58301 6.73279" stroke="#2E47BA" stroke-width="1.3" stroke-linecap="round"/>
</svg>
