<svg width="21" height="20" viewBox="0 0 21 20" fill="none" xmlns="http://www.w3.org/2000/svg">
<path d="M18.337 7.98547L18.337 8.63547C18.696 8.63545 18.987 8.34444 18.987 7.98547H18.337ZM18.337 12.2225H18.987C18.987 11.8635 18.696 11.5725 18.337 11.5725L18.337 12.2225ZM1.67029 12.2225V11.5725C1.3113 11.5725 1.02029 11.8635 1.02029 12.2225H1.67029ZM1.67029 7.98547H1.02029C1.02029 8.34446 1.3113 8.63547 1.67029 8.63547L1.67029 7.98547ZM2.67029 3.51797C1.75902 3.51797 1.02029 4.2567 1.02029 5.16797H2.32029C2.32029 4.97467 2.47699 4.81797 2.67029 4.81797V3.51797ZM17.337 3.51797H2.67029V4.81797H17.337V3.51797ZM18.987 5.16797C18.987 4.2567 18.2482 3.51797 17.337 3.51797V4.81797C17.5303 4.81797 17.687 4.97467 17.687 5.16797H18.987ZM18.987 7.98547V5.16797H17.687V7.98547H18.987ZM16.8686 10.104C16.8686 9.29298 17.526 8.63554 18.337 8.63547L18.3369 7.33547C16.808 7.33559 15.5686 8.57504 15.5686 10.104H16.8686ZM18.337 11.5725C17.526 11.5724 16.8686 10.915 16.8686 10.104H15.5686C15.5686 11.6329 16.808 12.8723 18.3369 12.8725L18.337 11.5725ZM18.987 15.0399V12.2225H17.687V15.0399H18.987ZM17.337 16.6899C18.2482 16.6899 18.987 15.9512 18.987 15.0399H17.687C17.687 15.2332 17.5303 15.3899 17.337 15.3899V16.6899ZM2.67029 16.6899H17.337V15.3899H2.67029V16.6899ZM1.02029 15.0399C1.02029 15.9512 1.75902 16.6899 2.67029 16.6899V15.3899C2.47699 15.3899 2.32029 15.2332 2.32029 15.0399H1.02029ZM1.02029 12.2225V15.0399H2.32029V12.2225H1.02029ZM1.67037 11.5725C1.67037 11.5725 1.67037 11.5725 1.67037 11.5725C1.67037 11.5725 1.67037 11.5725 1.67037 11.5725C1.67037 11.5725 1.67037 11.5725 1.67037 11.5725C1.67037 11.5725 1.67037 11.5725 1.67037 11.5725C1.67037 11.5725 1.67037 11.5725 1.67037 11.5725C1.67037 11.5725 1.67037 11.5725 1.67037 11.5725C1.67037 11.5725 1.67037 11.5725 1.67037 11.5725C1.67037 11.5725 1.67037 11.5725 1.67037 11.5725C1.67037 11.5725 1.67037 11.5725 1.67037 11.5725C1.67037 11.5725 1.67037 11.5725 1.67037 11.5725C1.67037 11.5725 1.67037 11.5725 1.67037 11.5725C1.67037 11.5725 1.67037 11.5725 1.67037 11.5725C1.67037 11.5725 1.67037 11.5725 1.67037 11.5725C1.67037 11.5725 1.67037 11.5725 1.67037 11.5725C1.67037 11.5725 1.67037 11.5725 1.67037 11.5725C1.67037 11.5725 1.67037 11.5725 1.67037 11.5725C1.67037 11.5725 1.67037 11.5725 1.67037 11.5725C1.67037 11.5725 1.67037 11.5725 1.67037 11.5725C1.67037 11.5725 1.67037 11.5725 1.67037 11.5725C1.67037 11.5725 1.67037 11.5725 1.67037 11.5725C1.67037 11.5725 1.67037 11.5725 1.67037 11.5725C1.67037 11.5725 1.67037 11.5725 1.67037 11.5725C1.67037 11.5725 1.67037 11.5725 1.67037 11.5725C1.67037 11.5725 1.67037 11.5725 1.67037 11.5725C1.67037 11.5725 1.67037 11.5725 1.67037 11.5725C1.67037 11.5725 1.67037 11.5725 1.67037 11.5725C1.67037 11.5725 1.67037 11.5725 1.67037 11.5725C1.67037 11.5725 1.67037 11.5725 1.67037 11.5725C1.67037 11.5725 1.67037 11.5725 1.67037 11.5725C1.67037 11.5725 1.67037 11.5725 1.67037 11.5725C1.67037 11.5725 1.67037 11.5725 1.67037 11.5725C1.67037 11.5725 1.67037 11.5725 1.67037 11.5725C1.67037 11.5725 1.67037 11.5725 1.67037 11.5725C1.67037 11.5725 1.67037 11.5725 1.67037 11.5725C1.67037 11.5725 1.67037 11.5725 1.67037 11.5725C1.67037 11.5725 1.67037 11.5725 1.67037 11.5725C1.67037 11.5725 1.67037 11.5725 1.67037 11.5725C1.67037 11.5725 1.67037 11.5725 1.67037 11.5725C1.67037 11.5725 1.67037 11.5725 1.67037 11.5725C1.67037 11.5725 1.67037 11.5725 1.67037 11.5725C1.67037 11.5725 1.67037 11.5725 1.67037 11.5725C1.67037 11.5725 1.67037 11.5725 1.67037 11.5725C1.67037 11.5725 1.67037 11.5725 1.67037 11.5725C1.67037 11.5725 1.67037 11.5725 1.67037 11.5725C1.67037 11.5725 1.67037 11.5725 1.67037 11.5725C1.67037 11.5725 1.67037 11.5725 1.67037 11.5725C1.67037 11.5725 1.67037 11.5725 1.67037 11.5725C1.67037 11.5725 1.67037 11.5725 1.67037 11.5725C1.67037 11.5725 1.67037 11.5725 1.67037 11.5725C1.67037 11.5725 1.67037 11.5725 1.67037 11.5725C1.67037 11.5725 1.67037 11.5725 1.67037 11.5725C1.67037 11.5725 1.67037 11.5725 1.67037 11.5725C1.67037 11.5725 1.67037 11.5725 1.67037 11.5725C1.67037 11.5725 1.67037 11.5725 1.67037 11.5725C1.67037 11.5725 1.67037 11.5725 1.67037 11.5725C1.67037 11.5725 1.67037 11.5725 1.67037 11.5725C1.67037 11.5725 1.67037 11.5725 1.67036 11.5725C1.67036 11.5725 1.67036 11.5725 1.67036 11.5725C1.67036 11.5725 1.67036 11.5725 1.67036 11.5725C1.67036 11.5725 1.67036 11.5725 1.67036 11.5725C1.67036 11.5725 1.67036 11.5725 1.67036 11.5725C1.67036 11.5725 1.67036 11.5725 1.67036 11.5725C1.67036 11.5725 1.67036 11.5725 1.67036 11.5725C1.67036 11.5725 1.67036 11.5725 1.67036 11.5725C1.67036 11.5725 1.67036 11.5725 1.67036 11.5725C1.67036 11.5725 1.67036 11.5725 1.67036 11.5725C1.67036 11.5725 1.67036 11.5725 1.67036 11.5725C1.67036 11.5725 1.67036 11.5725 1.67036 11.5725C1.67036 11.5725 1.67036 11.5725 1.67036 11.5725C1.67036 11.5725 1.67036 11.5725 1.67036 11.5725C1.67036 11.5725 1.67036 11.5725 1.67036 11.5725C1.67036 11.5725 1.67036 11.5725 1.67036 11.5725C1.67036 11.5725 1.67036 11.5725 1.67036 11.5725C1.67036 11.5725 1.67036 11.5725 1.67036 11.5725C1.67036 11.5725 1.67036 11.5725 1.67036 11.5725C1.67036 11.5725 1.67036 11.5725 1.67036 11.5725C1.67036 11.5725 1.67036 11.5725 1.67036 11.5725C1.67036 11.5725 1.67036 11.5725 1.67036 11.5725C1.67036 11.5725 1.67036 11.5725 1.67036 11.5725C1.67036 11.5725 1.67036 11.5725 1.67036 11.5725C1.67036 11.5725 1.67036 11.5725 1.67036 11.5725C1.67036 11.5725 1.67036 11.5725 1.67036 11.5725C1.67036 11.5725 1.67036 11.5725 1.67036 11.5725C1.67036 11.5725 1.67036 11.5725 1.67036 11.5725C1.67036 11.5725 1.67036 11.5725 1.67036 11.5725C1.67036 11.5725 1.67036 11.5725 1.67036 11.5725C1.67036 11.5725 1.67036 11.5725 1.67036 11.5725C1.67036 11.5725 1.67036 11.5725 1.67036 11.5725C1.67036 11.5725 1.67036 11.5725 1.67036 11.5725C1.67036 11.5725 1.67036 11.5725 1.67036 11.5725C1.67036 11.5725 1.67036 11.5725 1.67036 11.5725C1.67036 11.5725 1.67036 11.5725 1.67036 11.5725C1.67036 11.5725 1.67036 11.5725 1.67036 11.5725C1.67036 11.5725 1.67036 11.5725 1.67036 11.5725C1.67036 11.5725 1.67036 11.5725 1.67036 11.5725C1.67036 11.5725 1.67036 11.5725 1.67036 11.5725C1.67036 11.5725 1.67036 11.5725 1.67036 11.5725C1.67036 11.5725 1.67036 11.5725 1.67036 11.5725C1.67036 11.5725 1.67036 11.5725 1.67036 11.5725C1.67036 11.5725 1.67036 11.5725 1.67036 11.5725C1.67036 11.5725 1.67036 11.5725 1.67036 11.5725C1.67036 11.5725 1.67036 11.5725 1.67036 11.5725C1.67036 11.5725 1.67036 11.5725 1.67036 11.5725C1.67036 11.5725 1.67036 11.5725 1.67036 11.5725C1.67036 11.5725 1.67036 11.5725 1.67036 11.5725C1.67036 11.5725 1.67036 11.5725 1.67036 11.5725C1.67036 11.5725 1.67036 11.5725 1.67036 11.5725C1.67036 11.5725 1.67036 11.5725 1.67036 11.5725C1.67036 11.5725 1.67036 11.5725 1.67036 11.5725C1.67036 11.5725 1.67036 11.5725 1.67036 11.5725C1.67036 11.5725 1.67036 11.5725 1.67036 11.5725C1.67036 11.5725 1.67036 11.5725 1.67036 11.5725C1.67036 11.5725 1.67036 11.5725 1.67036 11.5725C1.67036 11.5725 1.67036 11.5725 1.67036 11.5725C1.67036 11.5725 1.67036 11.5725 1.67036 11.5725C1.67036 11.5725 1.67036 11.5725 1.67036 11.5725C1.67035 11.5725 1.67035 11.5725 1.67035 11.5725C1.67035 11.5725 1.67035 11.5725 1.67035 11.5725C1.67035 11.5725 1.67035 11.5725 1.67035 11.5725C1.67035 11.5725 1.67035 11.5725 1.67035 11.5725C1.67035 11.5725 1.67035 11.5725 1.67035 11.5725C1.67035 11.5725 1.67035 11.5725 1.67035 11.5725C1.67035 11.5725 1.67035 11.5725 1.67035 11.5725C1.67035 11.5725 1.67035 11.5725 1.67035 11.5725C1.67035 11.5725 1.67035 11.5725 1.67035 11.5725C1.67035 11.5725 1.67035 11.5725 1.67035 11.5725C1.67035 11.5725 1.67035 11.5725 1.67035 11.5725C1.67035 11.5725 1.67035 11.5725 1.67035 11.5725C1.67035 11.5725 1.67035 11.5725 1.67035 11.5725C1.67035 11.5725 1.67035 11.5725 1.67035 11.5725C1.67035 11.5725 1.67035 11.5725 1.67035 11.5725C1.67035 11.5725 1.67035 11.5725 1.67035 11.5725C1.67035 11.5725 1.67035 11.5725 1.67035 11.5725C1.67035 11.5725 1.67035 11.5725 1.67035 11.5725C1.67035 11.5725 1.67035 11.5725 1.67035 11.5725C1.67035 11.5725 1.67035 11.5725 1.67035 11.5725C1.67035 11.5725 1.67035 11.5725 1.67035 11.5725C1.67035 11.5725 1.67035 11.5725 1.67035 11.5725C1.67035 11.5725 1.67035 11.5725 1.67035 11.5725C1.67035 11.5725 1.67035 11.5725 1.67035 11.5725C1.67035 11.5725 1.67035 11.5725 1.67035 11.5725C1.67035 11.5725 1.67035 11.5725 1.67035 11.5725C1.67035 11.5725 1.67035 11.5725 1.67035 11.5725C1.67035 11.5725 1.67035 11.5725 1.67035 11.5725C1.67035 11.5725 1.67035 11.5725 1.67035 11.5725C1.67035 11.5725 1.67035 11.5725 1.67035 11.5725C1.67035 11.5725 1.67035 11.5725 1.67035 11.5725C1.67035 11.5725 1.67035 11.5725 1.67035 11.5725C1.67035 11.5725 1.67035 11.5725 1.67035 11.5725C1.67035 11.5725 1.67035 11.5725 1.67035 11.5725C1.67035 11.5725 1.67035 11.5725 1.67035 11.5725C1.67035 11.5725 1.67035 11.5725 1.67035 11.5725C1.67035 11.5725 1.67035 11.5725 1.67035 11.5725C1.67035 11.5725 1.67035 11.5725 1.67035 11.5725C1.67035 11.5725 1.67035 11.5725 1.67035 11.5725C1.67035 11.5725 1.67035 11.5725 1.67035 11.5725C1.67035 11.5725 1.67035 11.5725 1.67035 11.5725C1.67035 11.5725 1.67035 11.5725 1.67035 11.5725C1.67035 11.5725 1.67035 11.5725 1.67035 11.5725C1.67035 11.5725 1.67035 11.5725 1.67035 11.5725C1.67035 11.5725 1.67035 11.5725 1.67035 11.5725C1.67035 11.5725 1.67035 11.5725 1.67035 11.5725C1.67035 11.5725 1.67035 11.5725 1.67035 11.5725C1.67035 11.5725 1.67035 11.5725 1.67035 11.5725C1.67035 11.5725 1.67035 11.5725 1.67035 11.5725C1.67035 11.5725 1.67035 11.5725 1.67035 11.5725C1.67035 11.5725 1.67035 11.5725 1.67035 11.5725C1.67035 11.5725 1.67035 11.5725 1.67035 11.5725C1.67035 11.5725 1.67035 11.5725 1.67035 11.5725C1.67035 11.5725 1.67035 11.5725 1.67035 11.5725C1.67035 11.5725 1.67035 11.5725 1.67035 11.5725C1.67035 11.5725 1.67035 11.5725 1.67035 11.5725C1.67035 11.5725 1.67035 11.5725 1.67035 11.5725C1.67035 11.5725 1.67035 11.5725 1.67035 11.5725C1.67035 11.5725 1.67035 11.5725 1.67035 11.5725C1.67034 11.5725 1.67034 11.5725 1.67034 11.5725C1.67034 11.5725 1.67034 11.5725 1.67034 11.5725C1.67034 11.5725 1.67034 11.5725 1.67034 11.5725C1.67034 11.5725 1.67034 11.5725 1.67034 11.5725C1.67034 11.5725 1.67034 11.5725 1.67034 11.5725C1.67034 11.5725 1.67034 11.5725 1.67034 11.5725C1.67034 11.5725 1.67034 11.5725 1.67034 11.5725C1.67034 11.5725 1.67034 11.5725 1.67034 11.5725C1.67034 11.5725 1.67034 11.5725 1.67034 11.5725C1.67034 11.5725 1.67034 11.5725 1.67034 11.5725C1.67034 11.5725 1.67034 11.5725 1.67034 11.5725C1.67034 11.5725 1.67034 11.5725 1.67034 11.5725C1.67034 11.5725 1.67034 11.5725 1.67034 11.5725C1.67034 11.5725 1.67034 11.5725 1.67034 11.5725C1.67034 11.5725 1.67034 11.5725 1.67034 11.5725C1.67034 11.5725 1.67034 11.5725 1.67034 11.5725C1.67034 11.5725 1.67034 11.5725 1.67034 11.5725C1.67034 11.5725 1.67034 11.5725 1.67034 11.5725C1.67034 11.5725 1.67034 11.5725 1.67034 11.5725C1.67034 11.5725 1.67034 11.5725 1.67034 11.5725C1.67034 11.5725 1.67034 11.5725 1.67034 11.5725C1.67034 11.5725 1.67034 11.5725 1.67034 11.5725C1.67034 11.5725 1.67034 11.5725 1.67034 11.5725C1.67034 11.5725 1.67034 11.5725 1.67034 11.5725C1.67034 11.5725 1.67034 11.5725 1.67034 11.5725C1.67034 11.5725 1.67034 11.5725 1.67034 11.5725C1.67034 11.5725 1.67034 11.5725 1.67034 11.5725C1.67034 11.5725 1.67034 11.5725 1.67034 11.5725C1.67034 11.5725 1.67034 11.5725 1.67034 11.5725C1.67034 11.5725 1.67034 11.5725 1.67034 11.5725C1.67034 11.5725 1.67034 11.5725 1.67034 11.5725C1.67034 11.5725 1.67034 11.5725 1.67034 11.5725C1.67034 11.5725 1.67034 11.5725 1.67034 11.5725C1.67034 11.5725 1.67034 11.5725 1.67034 11.5725C1.67034 11.5725 1.67034 11.5725 1.67034 11.5725C1.67034 11.5725 1.67034 11.5725 1.67034 11.5725C1.67034 11.5725 1.67034 11.5725 1.67034 11.5725C1.67034 11.5725 1.67034 11.5725 1.67034 11.5725C1.67034 11.5725 1.67034 11.5725 1.67034 11.5725C1.67034 11.5725 1.67034 11.5725 1.67034 11.5725C1.67034 11.5725 1.67034 11.5725 1.67034 11.5725C1.67034 11.5725 1.67034 11.5725 1.67034 11.5725C1.67034 11.5725 1.67034 11.5725 1.67034 11.5725C1.67034 11.5725 1.67034 11.5725 1.67034 11.5725C1.67034 11.5725 1.67034 11.5725 1.67034 11.5725C1.67034 11.5725 1.67034 11.5725 1.67034 11.5725C1.67034 11.5725 1.67034 11.5725 1.67034 11.5725C1.67034 11.5725 1.67034 11.5725 1.67034 11.5725C1.67034 11.5725 1.67034 11.5725 1.67034 11.5725C1.67034 11.5725 1.67034 11.5725 1.67034 11.5725C1.67034 11.5725 1.67034 11.5725 1.67034 11.5725C1.67034 11.5725 1.67034 11.5725 1.67034 11.5725C1.67034 11.5725 1.67034 11.5725 1.67034 11.5725C1.67034 11.5725 1.67034 11.5725 1.67034 11.5725C1.67034 11.5725 1.67034 11.5725 1.67034 11.5725C1.67034 11.5725 1.67034 11.5725 1.67034 11.5725C1.67034 11.5725 1.67034 11.5725 1.67034 11.5725C1.67034 11.5725 1.67034 11.5725 1.67034 11.5725C1.67034 11.5725 1.67034 11.5725 1.67034 11.5725C1.67034 11.5725 1.67033 11.5725 1.67033 11.5725C1.67033 11.5725 1.67033 11.5725 1.67033 11.5725C1.67033 11.5725 1.67033 11.5725 1.67033 11.5725C1.67033 11.5725 1.67033 11.5725 1.67033 11.5725C1.67033 11.5725 1.67033 11.5725 1.67033 11.5725C1.67033 11.5725 1.67033 11.5725 1.67033 11.5725C1.67033 11.5725 1.67033 11.5725 1.67033 11.5725C1.67033 11.5725 1.67033 11.5725 1.67033 11.5725C1.67033 11.5725 1.67033 11.5725 1.67033 11.5725C1.67033 11.5725 1.67033 11.5725 1.67033 11.5725C1.67033 11.5725 1.67033 11.5725 1.67033 11.5725C1.67033 11.5725 1.67033 11.5725 1.67033 11.5725C1.67033 11.5725 1.67033 11.5725 1.67033 11.5725C1.67033 11.5725 1.67033 11.5725 1.67033 11.5725C1.67033 11.5725 1.67033 11.5725 1.67033 11.5725C1.67033 11.5725 1.67033 11.5725 1.67033 11.5725C1.67033 11.5725 1.67033 11.5725 1.67033 11.5725C1.67033 11.5725 1.67033 11.5725 1.67033 11.5725C1.67033 11.5725 1.67033 11.5725 1.67033 11.5725C1.67033 11.5725 1.67033 11.5725 1.67033 11.5725C1.67033 11.5725 1.67033 11.5725 1.67033 11.5725C1.67033 11.5725 1.67033 11.5725 1.67033 11.5725C1.67033 11.5725 1.67033 11.5725 1.67033 11.5725C1.67033 11.5725 1.67033 11.5725 1.67033 11.5725C1.67033 11.5725 1.67033 11.5725 1.67033 11.5725C1.67033 11.5725 1.67033 11.5725 1.67033 11.5725C1.67033 11.5725 1.67033 11.5725 1.67033 11.5725C1.67033 11.5725 1.67033 11.5725 1.67033 11.5725C1.67033 11.5725 1.67033 11.5725 1.67033 11.5725C1.67033 11.5725 1.67033 11.5725 1.67033 11.5725C1.67033 11.5725 1.67033 11.5725 1.67033 11.5725C1.67033 11.5725 1.67033 11.5725 1.67033 11.5725C1.67033 11.5725 1.67033 11.5725 1.67033 11.5725C1.67033 11.5725 1.67033 11.5725 1.67033 11.5725C1.67033 11.5725 1.67033 11.5725 1.67033 11.5725C1.67033 11.5725 1.67033 11.5725 1.67033 11.5725C1.67033 11.5725 1.67033 11.5725 1.67033 11.5725C1.67033 11.5725 1.67033 11.5725 1.67033 11.5725C1.67033 11.5725 1.67033 11.5725 1.67033 11.5725C1.67033 11.5725 1.67033 11.5725 1.67033 11.5725C1.67033 11.5725 1.67033 11.5725 1.67033 11.5725C1.67033 11.5725 1.67033 11.5725 1.67033 11.5725C1.67033 11.5725 1.67033 11.5725 1.67033 11.5725C1.67033 11.5725 1.67033 11.5725 1.67033 11.5725C1.67033 11.5725 1.67033 11.5725 1.67033 11.5725C1.67033 11.5725 1.67033 11.5725 1.67033 11.5725C1.67033 11.5725 1.67033 11.5725 1.67033 11.5725C1.67033 11.5725 1.67033 11.5725 1.67033 11.5725C1.67033 11.5725 1.67033 11.5725 1.67033 11.5725C1.67033 11.5725 1.67033 11.5725 1.67033 11.5725C1.67033 11.5725 1.67033 11.5725 1.67033 11.5725C1.67033 11.5725 1.67033 11.5725 1.67033 11.5725C1.67033 11.5725 1.67033 11.5725 1.67033 11.5725C1.67033 11.5725 1.67033 11.5725 1.67033 11.5725C1.67033 11.5725 1.67033 11.5725 1.67033 11.5725C1.67033 11.5725 1.67033 11.5725 1.67033 11.5725C1.67033 11.5725 1.67033 11.5725 1.67033 11.5725C1.67033 11.5725 1.67033 11.5725 1.67033 11.5725C1.67033 11.5725 1.67033 11.5725 1.67033 11.5725C1.67033 11.5725 1.67032 11.5725 1.67032 11.5725C1.67032 11.5725 1.67032 11.5725 1.67032 11.5725C1.67032 11.5725 1.67032 11.5725 1.67032 11.5725C1.67032 11.5725 1.67032 11.5725 1.67032 11.5725C1.67032 11.5725 1.67032 11.5725 1.67032 11.5725C1.67032 11.5725 1.67032 11.5725 1.67032 11.5725C1.67032 11.5725 1.67032 11.5725 1.67032 11.5725C1.67032 11.5725 1.67032 11.5725 1.67032 11.5725C1.67032 11.5725 1.67032 11.5725 1.67032 11.5725C1.67032 11.5725 1.67032 11.5725 1.67032 11.5725C1.67032 11.5725 1.67032 11.5725 1.67032 11.5725C1.67032 11.5725 1.67032 11.5725 1.67032 11.5725C1.67032 11.5725 1.67032 11.5725 1.67032 11.5725C1.67032 11.5725 1.67032 11.5725 1.67032 11.5725C1.67032 11.5725 1.67032 11.5725 1.67032 11.5725C1.67032 11.5725 1.67032 11.5725 1.67032 11.5725C1.67032 11.5725 1.67032 11.5725 1.67032 11.5725C1.67032 11.5725 1.67032 11.5725 1.67032 11.5725C1.67032 11.5725 1.67032 11.5725 1.67032 11.5725C1.67032 11.5725 1.67032 11.5725 1.67032 11.5725C1.67032 11.5725 1.67032 11.5725 1.67032 11.5725C1.67032 11.5725 1.67032 11.5725 1.67032 11.5725C1.67032 11.5725 1.67032 11.5725 1.67032 11.5725C1.67032 11.5725 1.67032 11.5725 1.67032 11.5725C1.67032 11.5725 1.67032 11.5725 1.67032 11.5725C1.67032 11.5725 1.67032 11.5725 1.67032 11.5725C1.67032 11.5725 1.67032 11.5725 1.67032 11.5725C1.67032 11.5725 1.67032 11.5725 1.67032 11.5725C1.67032 11.5725 1.67032 11.5725 1.67032 11.5725C1.67032 11.5725 1.67032 11.5725 1.67032 11.5725C1.67032 11.5725 1.67032 11.5725 1.67032 11.5725C1.67032 11.5725 1.67032 11.5725 1.67032 11.5725C1.67032 11.5725 1.67032 11.5725 1.67032 11.5725C1.67032 11.5725 1.67032 11.5725 1.67032 11.5725C1.67032 11.5725 1.67032 11.5725 1.67032 11.5725C1.67032 11.5725 1.67032 11.5725 1.67032 11.5725C1.67032 11.5725 1.67032 11.5725 1.67032 11.5725C1.67032 11.5725 1.67032 11.5725 1.67032 11.5725C1.67032 11.5725 1.67032 11.5725 1.67032 11.5725C1.67032 11.5725 1.67032 11.5725 1.67032 11.5725C1.67032 11.5725 1.67032 11.5725 1.67032 11.5725C1.67032 11.5725 1.67032 11.5725 1.67032 11.5725C1.67032 11.5725 1.67032 11.5725 1.67032 11.5725C1.67032 11.5725 1.67032 11.5725 1.67032 11.5725C1.67032 11.5725 1.67032 11.5725 1.67032 11.5725C1.67032 11.5725 1.67032 11.5725 1.67032 11.5725C1.67032 11.5725 1.67032 11.5725 1.67032 11.5725C1.67032 11.5725 1.67032 11.5725 1.67032 11.5725C1.67032 11.5725 1.67032 11.5725 1.67032 11.5725C1.67032 11.5725 1.67032 11.5725 1.67032 11.5725C1.67032 11.5725 1.67032 11.5725 1.67032 11.5725C1.67032 11.5725 1.67032 11.5725 1.67032 11.5725C1.67032 11.5725 1.67032 11.5725 1.67032 11.5725C1.67032 11.5725 1.67032 11.5725 1.67032 11.5725C1.67032 11.5725 1.67032 11.5725 1.67032 11.5725C1.67032 11.5725 1.67032 11.5725 1.67032 11.5725C1.67032 11.5725 1.67032 11.5725 1.67032 11.5725C1.67032 11.5725 1.67032 11.5725 1.67032 11.5725C1.67032 11.5725 1.67032 11.5725 1.67032 11.5725C1.67032 11.5725 1.67032 11.5725 1.67031 11.5725C1.67031 11.5725 1.67031 11.5725 1.67031 11.5725C1.67031 11.5725 1.67031 11.5725 1.67031 11.5725C1.67031 11.5725 1.67031 11.5725 1.67031 11.5725C1.67031 11.5725 1.67031 11.5725 1.67031 11.5725C1.67031 11.5725 1.67031 11.5725 1.67031 11.5725C1.67031 11.5725 1.67031 11.5725 1.67031 11.5725C1.67031 11.5725 1.67031 11.5725 1.67031 11.5725C1.67031 11.5725 1.67031 11.5725 1.67031 11.5725C1.67031 11.5725 1.67031 11.5725 1.67031 11.5725C1.67031 11.5725 1.67031 11.5725 1.67031 11.5725C1.67031 11.5725 1.67031 11.5725 1.67031 11.5725C1.67031 11.5725 1.67031 11.5725 1.67031 11.5725C1.67031 11.5725 1.67031 11.5725 1.67031 11.5725C1.67031 11.5725 1.67031 11.5725 1.67031 11.5725C1.67031 11.5725 1.67031 11.5725 1.67031 11.5725C1.67031 11.5725 1.67031 11.5725 1.67031 11.5725C1.67031 11.5725 1.67031 11.5725 1.67031 11.5725C1.67031 11.5725 1.67031 11.5725 1.67031 11.5725C1.67031 11.5725 1.67031 11.5725 1.67031 11.5725C1.67031 11.5725 1.67031 11.5725 1.67031 11.5725C1.67031 11.5725 1.67031 11.5725 1.67031 11.5725C1.67031 11.5725 1.67031 11.5725 1.67031 11.5725C1.67031 11.5725 1.67031 11.5725 1.67031 11.5725C1.67031 11.5725 1.67031 11.5725 1.67031 11.5725C1.67031 11.5725 1.67031 11.5725 1.67031 11.5725C1.67031 11.5725 1.67031 11.5725 1.67031 11.5725C1.67031 11.5725 1.67031 11.5725 1.67031 11.5725C1.67031 11.5725 1.67031 11.5725 1.67031 11.5725C1.67031 11.5725 1.67031 11.5725 1.67031 11.5725C1.67031 11.5725 1.67031 11.5725 1.67031 11.5725C1.67031 11.5725 1.67031 11.5725 1.67031 11.5725C1.67031 11.5725 1.67031 11.5725 1.67031 11.5725C1.67031 11.5725 1.67031 11.5725 1.67031 11.5725C1.67031 11.5725 1.67031 11.5725 1.67031 11.5725C1.67031 11.5725 1.67031 11.5725 1.67031 11.5725C1.67031 11.5725 1.67031 11.5725 1.67031 11.5725C1.67031 11.5725 1.67031 11.5725 1.67031 11.5725C1.67031 11.5725 1.67031 11.5725 1.67031 11.5725C1.67031 11.5725 1.67031 11.5725 1.67031 11.5725C1.67031 11.5725 1.67031 11.5725 1.67031 11.5725C1.67031 11.5725 1.67031 11.5725 1.67031 11.5725C1.67031 11.5725 1.67031 11.5725 1.67031 11.5725C1.67031 11.5725 1.67031 11.5725 1.67031 11.5725C1.67031 11.5725 1.67031 11.5725 1.67031 11.5725C1.67031 11.5725 1.67031 11.5725 1.67031 11.5725C1.67031 11.5725 1.67031 11.5725 1.67031 11.5725C1.67031 11.5725 1.67031 11.5725 1.67031 11.5725C1.67031 11.5725 1.67031 11.5725 1.67031 11.5725C1.67031 11.5725 1.67031 11.5725 1.67031 11.5725C1.67031 11.5725 1.67031 11.5725 1.67031 11.5725C1.67031 11.5725 1.67031 11.5725 1.67031 11.5725C1.67031 11.5725 1.67031 11.5725 1.67031 11.5725C1.67031 11.5725 1.67031 11.5725 1.67031 11.5725C1.67031 11.5725 1.67031 11.5725 1.67031 11.5725C1.67031 11.5725 1.67031 11.5725 1.67031 11.5725C1.67031 11.5725 1.67031 11.5725 1.67031 11.5725C1.67031 11.5725 1.67031 11.5725 1.67031 11.5725C1.67031 11.5725 1.67031 11.5725 1.67031 11.5725C1.67031 11.5725 1.67031 11.5725 1.6703 11.5725C1.6703 11.5725 1.6703 11.5725 1.6703 11.5725C1.6703 11.5725 1.6703 11.5725 1.6703 11.5725C1.6703 11.5725 1.6703 11.5725 1.6703 11.5725C1.6703 11.5725 1.6703 11.5725 1.6703 11.5725C1.6703 11.5725 1.6703 11.5725 1.6703 11.5725C1.6703 11.5725 1.6703 11.5725 1.6703 11.5725C1.6703 11.5725 1.6703 11.5725 1.6703 11.5725C1.6703 11.5725 1.6703 11.5725 1.6703 11.5725C1.6703 11.5725 1.6703 11.5725 1.6703 11.5725C1.6703 11.5725 1.6703 11.5725 1.6703 11.5725C1.6703 11.5725 1.6703 11.5725 1.6703 11.5725C1.6703 11.5725 1.6703 11.5725 1.6703 11.5725C1.6703 11.5725 1.6703 11.5725 1.6703 11.5725C1.6703 11.5725 1.6703 11.5725 1.6703 11.5725C1.6703 11.5725 1.6703 11.5725 1.6703 11.5725C1.6703 11.5725 1.6703 11.5725 1.6703 11.5725C1.6703 11.5725 1.6703 11.5725 1.6703 11.5725C1.6703 11.5725 1.6703 11.5725 1.6703 11.5725C1.6703 11.5725 1.6703 11.5725 1.6703 11.5725C1.6703 11.5725 1.6703 11.5725 1.6703 11.5725C1.6703 11.5725 1.6703 11.5725 1.6703 11.5725C1.6703 11.5725 1.6703 11.5725 1.6703 11.5725C1.6703 11.5725 1.6703 11.5725 1.6703 11.5725C1.6703 11.5725 1.6703 11.5725 1.6703 11.5725C1.6703 11.5725 1.6703 11.5725 1.6703 11.5725C1.6703 11.5725 1.6703 11.5725 1.6703 11.5725C1.6703 11.5725 1.6703 11.5725 1.6703 11.5725C1.6703 11.5725 1.6703 11.5725 1.6703 11.5725C1.6703 11.5725 1.6703 11.5725 1.6703 11.5725C1.6703 11.5725 1.6703 11.5725 1.6703 11.5725C1.6703 11.5725 1.6703 11.5725 1.6703 11.5725C1.6703 11.5725 1.6703 11.5725 1.6703 11.5725C1.6703 11.5725 1.6703 11.5725 1.6703 11.5725C1.6703 11.5725 1.6703 11.5725 1.6703 11.5725C1.6703 11.5725 1.6703 11.5725 1.6703 11.5725C1.6703 11.5725 1.6703 11.5725 1.6703 11.5725C1.6703 11.5725 1.6703 11.5725 1.6703 11.5725C1.6703 11.5725 1.6703 11.5725 1.6703 11.5725C1.6703 11.5725 1.6703 11.5725 1.6703 11.5725C1.6703 11.5725 1.6703 11.5725 1.6703 11.5725C1.6703 11.5725 1.6703 11.5725 1.6703 11.5725C1.6703 11.5725 1.6703 11.5725 1.6703 11.5725C1.6703 11.5725 1.6703 11.5725 1.6703 11.5725C1.6703 11.5725 1.6703 11.5725 1.6703 11.5725C1.6703 11.5725 1.6703 11.5725 1.6703 11.5725C1.6703 11.5725 1.6703 11.5725 1.6703 11.5725C1.6703 11.5725 1.6703 11.5725 1.6703 11.5725C1.6703 11.5725 1.6703 11.5725 1.6703 11.5725C1.6703 11.5725 1.6703 11.5725 1.6703 11.5725C1.6703 11.5725 1.6703 11.5725 1.6703 11.5725C1.6703 11.5725 1.6703 11.5725 1.6703 11.5725C1.6703 11.5725 1.6703 11.5725 1.6703 11.5725C1.6703 11.5725 1.6703 11.5725 1.6703 11.5725C1.6703 11.5725 1.6703 11.5725 1.6703 11.5725C1.6703 11.5725 1.6703 11.5725 1.6703 11.5725C1.6703 11.5725 1.6703 11.5725 1.6703 11.5725C1.6703 11.5725 1.6703 11.5725 1.6703 11.5725C1.6703 11.5725 1.6703 11.5725 1.6703 11.5725C1.6703 11.5725 1.6703 11.5725 1.6703 11.5725C1.67029 11.5725 1.67029 11.5725 1.67029 11.5725C1.67029 11.5725 1.67029 11.5725 1.67029 11.5725C1.67029 11.5725 1.67029 11.5725 1.67029 11.5725C1.67029 11.5725 1.67029 11.5725 1.67029 11.5725C1.67029 11.5725 1.67029 11.5725 1.67029 11.5725C1.67029 11.5725 1.67029 11.5725 1.67029 11.5725C1.67029 11.5725 1.67029 11.5725 1.67029 11.5725C1.67029 11.5725 1.67029 11.5725 1.67029 11.5725C1.67029 11.5725 1.67029 11.5725 1.67029 11.5725C1.67029 11.5725 1.67029 11.5725 1.67029 11.5725C1.67029 11.5725 1.67029 11.5725 1.67029 11.5725C1.67029 11.5725 1.67029 11.5725 1.67029 11.5725C1.67029 11.5725 1.67029 11.5725 1.67029 11.5725C1.67029 11.5725 1.67029 11.5725 1.67029 11.5725C1.67029 11.5725 1.67029 11.5725 1.67029 11.5725C1.67029 11.5725 1.67029 11.5725 1.67029 11.5725C1.67029 11.5725 1.67029 11.5725 1.67029 11.5725C1.67029 11.5725 1.67029 11.5725 1.67029 11.5725C1.67029 11.5725 1.67029 11.5725 1.67029 11.5725C1.67029 11.5725 1.67029 11.5725 1.67029 11.5725C1.67029 11.5725 1.67029 11.5725 1.67029 11.5725C1.67029 11.5725 1.67029 11.5725 1.67029 11.5725C1.67029 11.5725 1.67029 11.5725 1.67029 11.5725C1.67029 11.5725 1.67029 11.5725 1.67029 11.5725C1.67029 11.5725 1.67029 11.5725 1.67029 11.5725C1.67029 11.5725 1.67029 11.5725 1.67029 11.5725C1.67029 11.5725 1.67029 11.5725 1.67029 11.5725C1.67029 11.5725 1.67029 11.5725 1.67029 11.5725C1.67029 11.5725 1.67029 11.5725 1.67029 11.5725C1.67029 11.5725 1.67029 11.5725 1.67029 11.5725C1.67029 11.5725 1.67029 11.5725 1.67029 11.5725C1.67029 11.5725 1.67029 11.5725 1.67029 11.5725C1.67029 11.5725 1.67029 11.5725 1.67029 11.5725C1.67029 11.5725 1.67029 11.5725 1.67029 11.5725C1.67029 11.5725 1.67029 11.5725 1.67029 11.5725C1.67029 11.5725 1.67029 11.5725 1.67029 11.5725C1.67029 11.5725 1.67029 11.5725 1.67029 11.5725C1.67029 11.5725 1.67029 11.5725 1.67029 11.5725C1.67029 11.5725 1.67029 11.5725 1.67029 11.5725C1.67029 11.5725 1.67029 11.5725 1.67029 11.5725C1.67029 11.5725 1.67029 11.5725 1.67029 11.5725V12.8725C1.67029 12.8725 1.67029 12.8725 1.67029 12.8725C1.67029 12.8725 1.67029 12.8725 1.67029 12.8725C1.67029 12.8725 1.67029 12.8725 1.67029 12.8725C1.67029 12.8725 1.67029 12.8725 1.67029 12.8725C1.67029 12.8725 1.67029 12.8725 1.67029 12.8725C1.67029 12.8725 1.67029 12.8725 1.67029 12.8725C1.67029 12.8725 1.67029 12.8725 1.67029 12.8725C1.67029 12.8725 1.67029 12.8725 1.67029 12.8725C1.67029 12.8725 1.67029 12.8725 1.67029 12.8725C1.67029 12.8725 1.67029 12.8725 1.67029 12.8725C1.67029 12.8725 1.67029 12.8725 1.67029 12.8725C1.67029 12.8725 1.67029 12.8725 1.67029 12.8725C1.67029 12.8725 1.67029 12.8725 1.67029 12.8725C1.67029 12.8725 1.67029 12.8725 1.67029 12.8725C1.67029 12.8725 1.67029 12.8725 1.67029 12.8725C1.67029 12.8725 1.67029 12.8725 1.67029 12.8725C1.67029 12.8725 1.67029 12.8725 1.67029 12.8725C1.67029 12.8725 1.67029 12.8725 1.67029 12.8725C1.67029 12.8725 1.67029 12.8725 1.67029 12.8725C1.67029 12.8725 1.67029 12.8725 1.67029 12.8725C1.67029 12.8725 1.67029 12.8725 1.67029 12.8725C1.67029 12.8725 1.67029 12.8725 1.67029 12.8725C1.67029 12.8725 1.67029 12.8725 1.67029 12.8725C1.67029 12.8725 1.67029 12.8725 1.67029 12.8725C1.67029 12.8725 1.67029 12.8725 1.67029 12.8725C1.67029 12.8725 1.67029 12.8725 1.67029 12.8725C1.67029 12.8725 1.67029 12.8725 1.67029 12.8725C1.67029 12.8725 1.67029 12.8725 1.67029 12.8725C1.67029 12.8725 1.67029 12.8725 1.67029 12.8725C1.67029 12.8725 1.67029 12.8725 1.67029 12.8725C1.67029 12.8725 1.67029 12.8725 1.67029 12.8725C1.67029 12.8725 1.67029 12.8725 1.67029 12.8725C1.67029 12.8725 1.67029 12.8725 1.67029 12.8725C1.67029 12.8725 1.67029 12.8725 1.67029 12.8725C1.67029 12.8725 1.67029 12.8725 1.67029 12.8725C1.67029 12.8725 1.67029 12.8725 1.67029 12.8725C1.67029 12.8725 1.67029 12.8725 1.67029 12.8725C1.67029 12.8725 1.67029 12.8725 1.67029 12.8725C1.67029 12.8725 1.67029 12.8725 1.67029 12.8725C1.67029 12.8725 1.67029 12.8725 1.67029 12.8725C1.67029 12.8725 1.67029 12.8725 1.6703 12.8725C1.6703 12.8725 1.6703 12.8725 1.6703 12.8725C1.6703 12.8725 1.6703 12.8725 1.6703 12.8725C1.6703 12.8725 1.6703 12.8725 1.6703 12.8725C1.6703 12.8725 1.6703 12.8725 1.6703 12.8725C1.6703 12.8725 1.6703 12.8725 1.6703 12.8725C1.6703 12.8725 1.6703 12.8725 1.6703 12.8725C1.6703 12.8725 1.6703 12.8725 1.6703 12.8725C1.6703 12.8725 1.6703 12.8725 1.6703 12.8725C1.6703 12.8725 1.6703 12.8725 1.6703 12.8725C1.6703 12.8725 1.6703 12.8725 1.6703 12.8725C1.6703 12.8725 1.6703 12.8725 1.6703 12.8725C1.6703 12.8725 1.6703 12.8725 1.6703 12.8725C1.6703 12.8725 1.6703 12.8725 1.6703 12.8725C1.6703 12.8725 1.6703 12.8725 1.6703 12.8725C1.6703 12.8725 1.6703 12.8725 1.6703 12.8725C1.6703 12.8725 1.6703 12.8725 1.6703 12.8725C1.6703 12.8725 1.6703 12.8725 1.6703 12.8725C1.6703 12.8725 1.6703 12.8725 1.6703 12.8725C1.6703 12.8725 1.6703 12.8725 1.6703 12.8725C1.6703 12.8725 1.6703 12.8725 1.6703 12.8725C1.6703 12.8725 1.6703 12.8725 1.6703 12.8725C1.6703 12.8725 1.6703 12.8725 1.6703 12.8725C1.6703 12.8725 1.6703 12.8725 1.6703 12.8725C1.6703 12.8725 1.6703 12.8725 1.6703 12.8725C1.6703 12.8725 1.6703 12.8725 1.6703 12.8725C1.6703 12.8725 1.6703 12.8725 1.6703 12.8725C1.6703 12.8725 1.6703 12.8725 1.6703 12.8725C1.6703 12.8725 1.6703 12.8725 1.6703 12.8725C1.6703 12.8725 1.6703 12.8725 1.6703 12.8725C1.6703 12.8725 1.6703 12.8725 1.6703 12.8725C1.6703 12.8725 1.6703 12.8725 1.6703 12.8725C1.6703 12.8725 1.6703 12.8725 1.6703 12.8725C1.6703 12.8725 1.6703 12.8725 1.6703 12.8725C1.6703 12.8725 1.6703 12.8725 1.6703 12.8725C1.6703 12.8725 1.6703 12.8725 1.6703 12.8725C1.6703 12.8725 1.6703 12.8725 1.6703 12.8725C1.6703 12.8725 1.6703 12.8725 1.6703 12.8725C1.6703 12.8725 1.6703 12.8725 1.6703 12.8725C1.6703 12.8725 1.6703 12.8725 1.6703 12.8725C1.6703 12.8725 1.6703 12.8725 1.6703 12.8725C1.6703 12.8725 1.6703 12.8725 1.6703 12.8725C1.6703 12.8725 1.6703 12.8725 1.6703 12.8725C1.6703 12.8725 1.6703 12.8725 1.6703 12.8725C1.6703 12.8725 1.6703 12.8725 1.6703 12.8725C1.6703 12.8725 1.6703 12.8725 1.6703 12.8725C1.6703 12.8725 1.6703 12.8725 1.6703 12.8725C1.6703 12.8725 1.6703 12.8725 1.6703 12.8725C1.6703 12.8725 1.6703 12.8725 1.6703 12.8725C1.6703 12.8725 1.6703 12.8725 1.6703 12.8725C1.6703 12.8725 1.6703 12.8725 1.6703 12.8725C1.6703 12.8725 1.6703 12.8725 1.6703 12.8725C1.6703 12.8725 1.6703 12.8725 1.6703 12.8725C1.6703 12.8725 1.6703 12.8725 1.6703 12.8725C1.6703 12.8725 1.6703 12.8725 1.6703 12.8725C1.6703 12.8725 1.6703 12.8725 1.6703 12.8725C1.6703 12.8725 1.6703 12.8725 1.6703 12.8725C1.6703 12.8725 1.6703 12.8725 1.6703 12.8725C1.6703 12.8725 1.6703 12.8725 1.6703 12.8725C1.6703 12.8725 1.6703 12.8725 1.6703 12.8725C1.67031 12.8725 1.67031 12.8725 1.67031 12.8725C1.67031 12.8725 1.67031 12.8725 1.67031 12.8725C1.67031 12.8725 1.67031 12.8725 1.67031 12.8725C1.67031 12.8725 1.67031 12.8725 1.67031 12.8725C1.67031 12.8725 1.67031 12.8725 1.67031 12.8725C1.67031 12.8725 1.67031 12.8725 1.67031 12.8725C1.67031 12.8725 1.67031 12.8725 1.67031 12.8725C1.67031 12.8725 1.67031 12.8725 1.67031 12.8725C1.67031 12.8725 1.67031 12.8725 1.67031 12.8725C1.67031 12.8725 1.67031 12.8725 1.67031 12.8725C1.67031 12.8725 1.67031 12.8725 1.67031 12.8725C1.67031 12.8725 1.67031 12.8725 1.67031 12.8725C1.67031 12.8725 1.67031 12.8725 1.67031 12.8725C1.67031 12.8725 1.67031 12.8725 1.67031 12.8725C1.67031 12.8725 1.67031 12.8725 1.67031 12.8725C1.67031 12.8725 1.67031 12.8725 1.67031 12.8725C1.67031 12.8725 1.67031 12.8725 1.67031 12.8725C1.67031 12.8725 1.67031 12.8725 1.67031 12.8725C1.67031 12.8725 1.67031 12.8725 1.67031 12.8725C1.67031 12.8725 1.67031 12.8725 1.67031 12.8725C1.67031 12.8725 1.67031 12.8725 1.67031 12.8725C1.67031 12.8725 1.67031 12.8725 1.67031 12.8725C1.67031 12.8725 1.67031 12.8725 1.67031 12.8725C1.67031 12.8725 1.67031 12.8725 1.67031 12.8725C1.67031 12.8725 1.67031 12.8725 1.67031 12.8725C1.67031 12.8725 1.67031 12.8725 1.67031 12.8725C1.67031 12.8725 1.67031 12.8725 1.67031 12.8725C1.67031 12.8725 1.67031 12.8725 1.67031 12.8725C1.67031 12.8725 1.67031 12.8725 1.67031 12.8725C1.67031 12.8725 1.67031 12.8725 1.67031 12.8725C1.67031 12.8725 1.67031 12.8725 1.67031 12.8725C1.67031 12.8725 1.67031 12.8725 1.67031 12.8725C1.67031 12.8725 1.67031 12.8725 1.67031 12.8725C1.67031 12.8725 1.67031 12.8725 1.67031 12.8725C1.67031 12.8725 1.67031 12.8725 1.67031 12.8725C1.67031 12.8725 1.67031 12.8725 1.67031 12.8725C1.67031 12.8725 1.67031 12.8725 1.67031 12.8725C1.67031 12.8725 1.67031 12.8725 1.67031 12.8725C1.67031 12.8725 1.67031 12.8725 1.67031 12.8725C1.67031 12.8725 1.67031 12.8725 1.67031 12.8725C1.67031 12.8725 1.67031 12.8725 1.67031 12.8725C1.67031 12.8725 1.67031 12.8725 1.67031 12.8725C1.67031 12.8725 1.67031 12.8725 1.67031 12.8725C1.67031 12.8725 1.67031 12.8725 1.67031 12.8725C1.67031 12.8725 1.67031 12.8725 1.67031 12.8725C1.67031 12.8725 1.67031 12.8725 1.67031 12.8725C1.67031 12.8725 1.67031 12.8725 1.67031 12.8725C1.67031 12.8725 1.67031 12.8725 1.67031 12.8725C1.67031 12.8725 1.67031 12.8725 1.67031 12.8725C1.67031 12.8725 1.67031 12.8725 1.67031 12.8725C1.67031 12.8725 1.67031 12.8725 1.67031 12.8725C1.67031 12.8725 1.67031 12.8725 1.67031 12.8725C1.67031 12.8725 1.67031 12.8725 1.67031 12.8725C1.67031 12.8725 1.67031 12.8725 1.67031 12.8725C1.67031 12.8725 1.67031 12.8725 1.67031 12.8725C1.67031 12.8725 1.67031 12.8725 1.67031 12.8725C1.67031 12.8725 1.67031 12.8725 1.67031 12.8725C1.67031 12.8725 1.67031 12.8725 1.67031 12.8725C1.67031 12.8725 1.67031 12.8725 1.67031 12.8725C1.67032 12.8725 1.67032 12.8725 1.67032 12.8725C1.67032 12.8725 1.67032 12.8725 1.67032 12.8725C1.67032 12.8725 1.67032 12.8725 1.67032 12.8725C1.67032 12.8725 1.67032 12.8725 1.67032 12.8725C1.67032 12.8725 1.67032 12.8725 1.67032 12.8725C1.67032 12.8725 1.67032 12.8725 1.67032 12.8725C1.67032 12.8725 1.67032 12.8725 1.67032 12.8725C1.67032 12.8725 1.67032 12.8725 1.67032 12.8725C1.67032 12.8725 1.67032 12.8725 1.67032 12.8725C1.67032 12.8725 1.67032 12.8725 1.67032 12.8725C1.67032 12.8725 1.67032 12.8725 1.67032 12.8725C1.67032 12.8725 1.67032 12.8725 1.67032 12.8725C1.67032 12.8725 1.67032 12.8725 1.67032 12.8725C1.67032 12.8725 1.67032 12.8725 1.67032 12.8725C1.67032 12.8725 1.67032 12.8725 1.67032 12.8725C1.67032 12.8725 1.67032 12.8725 1.67032 12.8725C1.67032 12.8725 1.67032 12.8725 1.67032 12.8725C1.67032 12.8725 1.67032 12.8725 1.67032 12.8725C1.67032 12.8725 1.67032 12.8725 1.67032 12.8725C1.67032 12.8725 1.67032 12.8725 1.67032 12.8725C1.67032 12.8725 1.67032 12.8725 1.67032 12.8725C1.67032 12.8725 1.67032 12.8725 1.67032 12.8725C1.67032 12.8725 1.67032 12.8725 1.67032 12.8725C1.67032 12.8725 1.67032 12.8725 1.67032 12.8725C1.67032 12.8725 1.67032 12.8725 1.67032 12.8725C1.67032 12.8725 1.67032 12.8725 1.67032 12.8725C1.67032 12.8725 1.67032 12.8725 1.67032 12.8725C1.67032 12.8725 1.67032 12.8725 1.67032 12.8725C1.67032 12.8725 1.67032 12.8725 1.67032 12.8725C1.67032 12.8725 1.67032 12.8725 1.67032 12.8725C1.67032 12.8725 1.67032 12.8725 1.67032 12.8725C1.67032 12.8725 1.67032 12.8725 1.67032 12.8725C1.67032 12.8725 1.67032 12.8725 1.67032 12.8725C1.67032 12.8725 1.67032 12.8725 1.67032 12.8725C1.67032 12.8725 1.67032 12.8725 1.67032 12.8725C1.67032 12.8725 1.67032 12.8725 1.67032 12.8725C1.67032 12.8725 1.67032 12.8725 1.67032 12.8725C1.67032 12.8725 1.67032 12.8725 1.67032 12.8725C1.67032 12.8725 1.67032 12.8725 1.67032 12.8725C1.67032 12.8725 1.67032 12.8725 1.67032 12.8725C1.67032 12.8725 1.67032 12.8725 1.67032 12.8725C1.67032 12.8725 1.67032 12.8725 1.67032 12.8725C1.67032 12.8725 1.67032 12.8725 1.67032 12.8725C1.67032 12.8725 1.67032 12.8725 1.67032 12.8725C1.67032 12.8725 1.67032 12.8725 1.67032 12.8725C1.67032 12.8725 1.67032 12.8725 1.67032 12.8725C1.67032 12.8725 1.67032 12.8725 1.67032 12.8725C1.67032 12.8725 1.67032 12.8725 1.67032 12.8725C1.67032 12.8725 1.67032 12.8725 1.67032 12.8725C1.67032 12.8725 1.67032 12.8725 1.67032 12.8725C1.67032 12.8725 1.67032 12.8725 1.67032 12.8725C1.67032 12.8725 1.67032 12.8725 1.67032 12.8725C1.67032 12.8725 1.67032 12.8725 1.67032 12.8725C1.67032 12.8725 1.67032 12.8725 1.67032 12.8725C1.67032 12.8725 1.67032 12.8725 1.67032 12.8725C1.67032 12.8725 1.67032 12.8725 1.67032 12.8725C1.67032 12.8725 1.67032 12.8725 1.67032 12.8725C1.67032 12.8725 1.67032 12.8725 1.67032 12.8725C1.67032 12.8725 1.67032 12.8725 1.67032 12.8725C1.67032 12.8725 1.67033 12.8725 1.67033 12.8725C1.67033 12.8725 1.67033 12.8725 1.67033 12.8725C1.67033 12.8725 1.67033 12.8725 1.67033 12.8725C1.67033 12.8725 1.67033 12.8725 1.67033 12.8725C1.67033 12.8725 1.67033 12.8725 1.67033 12.8725C1.67033 12.8725 1.67033 12.8725 1.67033 12.8725C1.67033 12.8725 1.67033 12.8725 1.67033 12.8725C1.67033 12.8725 1.67033 12.8725 1.67033 12.8725C1.67033 12.8725 1.67033 12.8725 1.67033 12.8725C1.67033 12.8725 1.67033 12.8725 1.67033 12.8725C1.67033 12.8725 1.67033 12.8725 1.67033 12.8725C1.67033 12.8725 1.67033 12.8725 1.67033 12.8725C1.67033 12.8725 1.67033 12.8725 1.67033 12.8725C1.67033 12.8725 1.67033 12.8725 1.67033 12.8725C1.67033 12.8725 1.67033 12.8725 1.67033 12.8725C1.67033 12.8725 1.67033 12.8725 1.67033 12.8725C1.67033 12.8725 1.67033 12.8725 1.67033 12.8725C1.67033 12.8725 1.67033 12.8725 1.67033 12.8725C1.67033 12.8725 1.67033 12.8725 1.67033 12.8725C1.67033 12.8725 1.67033 12.8725 1.67033 12.8725C1.67033 12.8725 1.67033 12.8725 1.67033 12.8725C1.67033 12.8725 1.67033 12.8725 1.67033 12.8725C1.67033 12.8725 1.67033 12.8725 1.67033 12.8725C1.67033 12.8725 1.67033 12.8725 1.67033 12.8725C1.67033 12.8725 1.67033 12.8725 1.67033 12.8725C1.67033 12.8725 1.67033 12.8725 1.67033 12.8725C1.67033 12.8725 1.67033 12.8725 1.67033 12.8725C1.67033 12.8725 1.67033 12.8725 1.67033 12.8725C1.67033 12.8725 1.67033 12.8725 1.67033 12.8725C1.67033 12.8725 1.67033 12.8725 1.67033 12.8725C1.67033 12.8725 1.67033 12.8725 1.67033 12.8725C1.67033 12.8725 1.67033 12.8725 1.67033 12.8725C1.67033 12.8725 1.67033 12.8725 1.67033 12.8725C1.67033 12.8725 1.67033 12.8725 1.67033 12.8725C1.67033 12.8725 1.67033 12.8725 1.67033 12.8725C1.67033 12.8725 1.67033 12.8725 1.67033 12.8725C1.67033 12.8725 1.67033 12.8725 1.67033 12.8725C1.67033 12.8725 1.67033 12.8725 1.67033 12.8725C1.67033 12.8725 1.67033 12.8725 1.67033 12.8725C1.67033 12.8725 1.67033 12.8725 1.67033 12.8725C1.67033 12.8725 1.67033 12.8725 1.67033 12.8725C1.67033 12.8725 1.67033 12.8725 1.67033 12.8725C1.67033 12.8725 1.67033 12.8725 1.67033 12.8725C1.67033 12.8725 1.67033 12.8725 1.67033 12.8725C1.67033 12.8725 1.67033 12.8725 1.67033 12.8725C1.67033 12.8725 1.67033 12.8725 1.67033 12.8725C1.67033 12.8725 1.67033 12.8725 1.67033 12.8725C1.67033 12.8725 1.67033 12.8725 1.67033 12.8725C1.67033 12.8725 1.67033 12.8725 1.67033 12.8725C1.67033 12.8725 1.67033 12.8725 1.67033 12.8725C1.67033 12.8725 1.67033 12.8725 1.67033 12.8725C1.67033 12.8725 1.67033 12.8725 1.67033 12.8725C1.67033 12.8725 1.67033 12.8725 1.67033 12.8725C1.67033 12.8725 1.67033 12.8725 1.67033 12.8725C1.67033 12.8725 1.67033 12.8725 1.67033 12.8725C1.67033 12.8725 1.67033 12.8725 1.67033 12.8725C1.67033 12.8725 1.67033 12.8725 1.67033 12.8725C1.67033 12.8725 1.67033 12.8725 1.67033 12.8725C1.67033 12.8725 1.67033 12.8725 1.67033 12.8725C1.67033 12.8725 1.67034 12.8725 1.67034 12.8725C1.67034 12.8725 1.67034 12.8725 1.67034 12.8725C1.67034 12.8725 1.67034 12.8725 1.67034 12.8725C1.67034 12.8725 1.67034 12.8725 1.67034 12.8725C1.67034 12.8725 1.67034 12.8725 1.67034 12.8725C1.67034 12.8725 1.67034 12.8725 1.67034 12.8725C1.67034 12.8725 1.67034 12.8725 1.67034 12.8725C1.67034 12.8725 1.67034 12.8725 1.67034 12.8725C1.67034 12.8725 1.67034 12.8725 1.67034 12.8725C1.67034 12.8725 1.67034 12.8725 1.67034 12.8725C1.67034 12.8725 1.67034 12.8725 1.67034 12.8725C1.67034 12.8725 1.67034 12.8725 1.67034 12.8725C1.67034 12.8725 1.67034 12.8725 1.67034 12.8725C1.67034 12.8725 1.67034 12.8725 1.67034 12.8725C1.67034 12.8725 1.67034 12.8725 1.67034 12.8725C1.67034 12.8725 1.67034 12.8725 1.67034 12.8725C1.67034 12.8725 1.67034 12.8725 1.67034 12.8725C1.67034 12.8725 1.67034 12.8725 1.67034 12.8725C1.67034 12.8725 1.67034 12.8725 1.67034 12.8725C1.67034 12.8725 1.67034 12.8725 1.67034 12.8725C1.67034 12.8725 1.67034 12.8725 1.67034 12.8725C1.67034 12.8725 1.67034 12.8725 1.67034 12.8725C1.67034 12.8725 1.67034 12.8725 1.67034 12.8725C1.67034 12.8725 1.67034 12.8725 1.67034 12.8725C1.67034 12.8725 1.67034 12.8725 1.67034 12.8725C1.67034 12.8725 1.67034 12.8725 1.67034 12.8725C1.67034 12.8725 1.67034 12.8725 1.67034 12.8725C1.67034 12.8725 1.67034 12.8725 1.67034 12.8725C1.67034 12.8725 1.67034 12.8725 1.67034 12.8725C1.67034 12.8725 1.67034 12.8725 1.67034 12.8725C1.67034 12.8725 1.67034 12.8725 1.67034 12.8725C1.67034 12.8725 1.67034 12.8725 1.67034 12.8725C1.67034 12.8725 1.67034 12.8725 1.67034 12.8725C1.67034 12.8725 1.67034 12.8725 1.67034 12.8725C1.67034 12.8725 1.67034 12.8725 1.67034 12.8725C1.67034 12.8725 1.67034 12.8725 1.67034 12.8725C1.67034 12.8725 1.67034 12.8725 1.67034 12.8725C1.67034 12.8725 1.67034 12.8725 1.67034 12.8725C1.67034 12.8725 1.67034 12.8725 1.67034 12.8725C1.67034 12.8725 1.67034 12.8725 1.67034 12.8725C1.67034 12.8725 1.67034 12.8725 1.67034 12.8725C1.67034 12.8725 1.67034 12.8725 1.67034 12.8725C1.67034 12.8725 1.67034 12.8725 1.67034 12.8725C1.67034 12.8725 1.67034 12.8725 1.67034 12.8725C1.67034 12.8725 1.67034 12.8725 1.67034 12.8725C1.67034 12.8725 1.67034 12.8725 1.67034 12.8725C1.67034 12.8725 1.67034 12.8725 1.67034 12.8725C1.67034 12.8725 1.67034 12.8725 1.67034 12.8725C1.67034 12.8725 1.67034 12.8725 1.67034 12.8725C1.67034 12.8725 1.67034 12.8725 1.67034 12.8725C1.67034 12.8725 1.67034 12.8725 1.67034 12.8725C1.67034 12.8725 1.67034 12.8725 1.67034 12.8725C1.67034 12.8725 1.67034 12.8725 1.67034 12.8725C1.67034 12.8725 1.67034 12.8725 1.67034 12.8725C1.67034 12.8725 1.67034 12.8725 1.67034 12.8725C1.67034 12.8725 1.67034 12.8725 1.67034 12.8725C1.67034 12.8725 1.67034 12.8725 1.67034 12.8725C1.67034 12.8725 1.67034 12.8725 1.67034 12.8725C1.67034 12.8725 1.67034 12.8725 1.67034 12.8725C1.67034 12.8725 1.67034 12.8725 1.67035 12.8725C1.67035 12.8725 1.67035 12.8725 1.67035 12.8725C1.67035 12.8725 1.67035 12.8725 1.67035 12.8725C1.67035 12.8725 1.67035 12.8725 1.67035 12.8725C1.67035 12.8725 1.67035 12.8725 1.67035 12.8725C1.67035 12.8725 1.67035 12.8725 1.67035 12.8725C1.67035 12.8725 1.67035 12.8725 1.67035 12.8725C1.67035 12.8725 1.67035 12.8725 1.67035 12.8725C1.67035 12.8725 1.67035 12.8725 1.67035 12.8725C1.67035 12.8725 1.67035 12.8725 1.67035 12.8725C1.67035 12.8725 1.67035 12.8725 1.67035 12.8725C1.67035 12.8725 1.67035 12.8725 1.67035 12.8725C1.67035 12.8725 1.67035 12.8725 1.67035 12.8725C1.67035 12.8725 1.67035 12.8725 1.67035 12.8725C1.67035 12.8725 1.67035 12.8725 1.67035 12.8725C1.67035 12.8725 1.67035 12.8725 1.67035 12.8725C1.67035 12.8725 1.67035 12.8725 1.67035 12.8725C1.67035 12.8725 1.67035 12.8725 1.67035 12.8725C1.67035 12.8725 1.67035 12.8725 1.67035 12.8725C1.67035 12.8725 1.67035 12.8725 1.67035 12.8725C1.67035 12.8725 1.67035 12.8725 1.67035 12.8725C1.67035 12.8725 1.67035 12.8725 1.67035 12.8725C1.67035 12.8725 1.67035 12.8725 1.67035 12.8725C1.67035 12.8725 1.67035 12.8725 1.67035 12.8725C1.67035 12.8725 1.67035 12.8725 1.67035 12.8725C1.67035 12.8725 1.67035 12.8725 1.67035 12.8725C1.67035 12.8725 1.67035 12.8725 1.67035 12.8725C1.67035 12.8725 1.67035 12.8725 1.67035 12.8725C1.67035 12.8725 1.67035 12.8725 1.67035 12.8725C1.67035 12.8725 1.67035 12.8725 1.67035 12.8725C1.67035 12.8725 1.67035 12.8725 1.67035 12.8725C1.67035 12.8725 1.67035 12.8725 1.67035 12.8725C1.67035 12.8725 1.67035 12.8725 1.67035 12.8725C1.67035 12.8725 1.67035 12.8725 1.67035 12.8725C1.67035 12.8725 1.67035 12.8725 1.67035 12.8725C1.67035 12.8725 1.67035 12.8725 1.67035 12.8725C1.67035 12.8725 1.67035 12.8725 1.67035 12.8725C1.67035 12.8725 1.67035 12.8725 1.67035 12.8725C1.67035 12.8725 1.67035 12.8725 1.67035 12.8725C1.67035 12.8725 1.67035 12.8725 1.67035 12.8725C1.67035 12.8725 1.67035 12.8725 1.67035 12.8725C1.67035 12.8725 1.67035 12.8725 1.67035 12.8725C1.67035 12.8725 1.67035 12.8725 1.67035 12.8725C1.67035 12.8725 1.67035 12.8725 1.67035 12.8725C1.67035 12.8725 1.67035 12.8725 1.67035 12.8725C1.67035 12.8725 1.67035 12.8725 1.67035 12.8725C1.67035 12.8725 1.67035 12.8725 1.67035 12.8725C1.67035 12.8725 1.67035 12.8725 1.67035 12.8725C1.67035 12.8725 1.67035 12.8725 1.67035 12.8725C1.67035 12.8725 1.67035 12.8725 1.67035 12.8725C1.67035 12.8725 1.67035 12.8725 1.67035 12.8725C1.67035 12.8725 1.67035 12.8725 1.67035 12.8725C1.67035 12.8725 1.67035 12.8725 1.67035 12.8725C1.67035 12.8725 1.67035 12.8725 1.67035 12.8725C1.67035 12.8725 1.67035 12.8725 1.67035 12.8725C1.67035 12.8725 1.67035 12.8725 1.67035 12.8725C1.67035 12.8725 1.67035 12.8725 1.67035 12.8725C1.67035 12.8725 1.67035 12.8725 1.67035 12.8725C1.67035 12.8725 1.67035 12.8725 1.67035 12.8725C1.67035 12.8725 1.67035 12.8725 1.67036 12.8725C1.67036 12.8725 1.67036 12.8725 1.67036 12.8725C1.67036 12.8725 1.67036 12.8725 1.67036 12.8725C1.67036 12.8725 1.67036 12.8725 1.67036 12.8725C1.67036 12.8725 1.67036 12.8725 1.67036 12.8725C1.67036 12.8725 1.67036 12.8725 1.67036 12.8725C1.67036 12.8725 1.67036 12.8725 1.67036 12.8725C1.67036 12.8725 1.67036 12.8725 1.67036 12.8725C1.67036 12.8725 1.67036 12.8725 1.67036 12.8725C1.67036 12.8725 1.67036 12.8725 1.67036 12.8725C1.67036 12.8725 1.67036 12.8725 1.67036 12.8725C1.67036 12.8725 1.67036 12.8725 1.67036 12.8725C1.67036 12.8725 1.67036 12.8725 1.67036 12.8725C1.67036 12.8725 1.67036 12.8725 1.67036 12.8725C1.67036 12.8725 1.67036 12.8725 1.67036 12.8725C1.67036 12.8725 1.67036 12.8725 1.67036 12.8725C1.67036 12.8725 1.67036 12.8725 1.67036 12.8725C1.67036 12.8725 1.67036 12.8725 1.67036 12.8725C1.67036 12.8725 1.67036 12.8725 1.67036 12.8725C1.67036 12.8725 1.67036 12.8725 1.67036 12.8725C1.67036 12.8725 1.67036 12.8725 1.67036 12.8725C1.67036 12.8725 1.67036 12.8725 1.67036 12.8725C1.67036 12.8725 1.67036 12.8725 1.67036 12.8725C1.67036 12.8725 1.67036 12.8725 1.67036 12.8725C1.67036 12.8725 1.67036 12.8725 1.67036 12.8725C1.67036 12.8725 1.67036 12.8725 1.67036 12.8725C1.67036 12.8725 1.67036 12.8725 1.67036 12.8725C1.67036 12.8725 1.67036 12.8725 1.67036 12.8725C1.67036 12.8725 1.67036 12.8725 1.67036 12.8725C1.67036 12.8725 1.67036 12.8725 1.67036 12.8725C1.67036 12.8725 1.67036 12.8725 1.67036 12.8725C1.67036 12.8725 1.67036 12.8725 1.67036 12.8725C1.67036 12.8725 1.67036 12.8725 1.67036 12.8725C1.67036 12.8725 1.67036 12.8725 1.67036 12.8725C1.67036 12.8725 1.67036 12.8725 1.67036 12.8725C1.67036 12.8725 1.67036 12.8725 1.67036 12.8725C1.67036 12.8725 1.67036 12.8725 1.67036 12.8725C1.67036 12.8725 1.67036 12.8725 1.67036 12.8725C1.67036 12.8725 1.67036 12.8725 1.67036 12.8725C1.67036 12.8725 1.67036 12.8725 1.67036 12.8725C1.67036 12.8725 1.67036 12.8725 1.67036 12.8725C1.67036 12.8725 1.67036 12.8725 1.67036 12.8725C1.67036 12.8725 1.67036 12.8725 1.67036 12.8725C1.67036 12.8725 1.67036 12.8725 1.67036 12.8725C1.67036 12.8725 1.67036 12.8725 1.67036 12.8725C1.67036 12.8725 1.67036 12.8725 1.67036 12.8725C1.67036 12.8725 1.67036 12.8725 1.67036 12.8725C1.67036 12.8725 1.67036 12.8725 1.67036 12.8725C1.67036 12.8725 1.67036 12.8725 1.67036 12.8725C1.67036 12.8725 1.67036 12.8725 1.67036 12.8725C1.67036 12.8725 1.67036 12.8725 1.67036 12.8725C1.67036 12.8725 1.67036 12.8725 1.67036 12.8725C1.67036 12.8725 1.67036 12.8725 1.67036 12.8725C1.67036 12.8725 1.67036 12.8725 1.67036 12.8725C1.67036 12.8725 1.67036 12.8725 1.67036 12.8725C1.67036 12.8725 1.67036 12.8725 1.67036 12.8725C1.67036 12.8725 1.67036 12.8725 1.67036 12.8725C1.67036 12.8725 1.67036 12.8725 1.67036 12.8725C1.67036 12.8725 1.67036 12.8725 1.67036 12.8725C1.67036 12.8725 1.67036 12.8725 1.67036 12.8725C1.67037 12.8725 1.67037 12.8725 1.67037 12.8725C1.67037 12.8725 1.67037 12.8725 1.67037 12.8725C1.67037 12.8725 1.67037 12.8725 1.67037 12.8725C1.67037 12.8725 1.67037 12.8725 1.67037 12.8725C1.67037 12.8725 1.67037 12.8725 1.67037 12.8725C1.67037 12.8725 1.67037 12.8725 1.67037 12.8725C1.67037 12.8725 1.67037 12.8725 1.67037 12.8725C1.67037 12.8725 1.67037 12.8725 1.67037 12.8725C1.67037 12.8725 1.67037 12.8725 1.67037 12.8725C1.67037 12.8725 1.67037 12.8725 1.67037 12.8725C1.67037 12.8725 1.67037 12.8725 1.67037 12.8725C1.67037 12.8725 1.67037 12.8725 1.67037 12.8725C1.67037 12.8725 1.67037 12.8725 1.67037 12.8725C1.67037 12.8725 1.67037 12.8725 1.67037 12.8725C1.67037 12.8725 1.67037 12.8725 1.67037 12.8725C1.67037 12.8725 1.67037 12.8725 1.67037 12.8725C1.67037 12.8725 1.67037 12.8725 1.67037 12.8725C1.67037 12.8725 1.67037 12.8725 1.67037 12.8725C1.67037 12.8725 1.67037 12.8725 1.67037 12.8725C1.67037 12.8725 1.67037 12.8725 1.67037 12.8725C1.67037 12.8725 1.67037 12.8725 1.67037 12.8725C1.67037 12.8725 1.67037 12.8725 1.67037 12.8725C1.67037 12.8725 1.67037 12.8725 1.67037 12.8725C1.67037 12.8725 1.67037 12.8725 1.67037 12.8725C1.67037 12.8725 1.67037 12.8725 1.67037 12.8725C1.67037 12.8725 1.67037 12.8725 1.67037 12.8725C1.67037 12.8725 1.67037 12.8725 1.67037 12.8725C1.67037 12.8725 1.67037 12.8725 1.67037 12.8725C1.67037 12.8725 1.67037 12.8725 1.67037 12.8725C1.67037 12.8725 1.67037 12.8725 1.67037 12.8725C1.67037 12.8725 1.67037 12.8725 1.67037 12.8725C1.67037 12.8725 1.67037 12.8725 1.67037 12.8725C1.67037 12.8725 1.67037 12.8725 1.67037 12.8725C1.67037 12.8725 1.67037 12.8725 1.67037 12.8725C1.67037 12.8725 1.67037 12.8725 1.67037 12.8725C1.67037 12.8725 1.67037 12.8725 1.67037 12.8725C1.67037 12.8725 1.67037 12.8725 1.67037 12.8725C1.67037 12.8725 1.67037 12.8725 1.67037 12.8725C1.67037 12.8725 1.67037 12.8725 1.67037 12.8725C1.67037 12.8725 1.67037 12.8725 1.67037 12.8725C1.67037 12.8725 1.67037 12.8725 1.67037 12.8725C1.67037 12.8725 1.67037 12.8725 1.67037 12.8725C1.67037 12.8725 1.67037 12.8725 1.67037 12.8725C1.67037 12.8725 1.67037 12.8725 1.67037 12.8725C1.67037 12.8725 1.67037 12.8725 1.67037 12.8725C1.67037 12.8725 1.67037 12.8725 1.67037 12.8725C1.67037 12.8725 1.67037 12.8725 1.67037 12.8725C1.67037 12.8725 1.67037 12.8725 1.67037 12.8725C1.67037 12.8725 1.67037 12.8725 1.67037 12.8725C1.67037 12.8725 1.67037 12.8725 1.67037 12.8725C1.67037 12.8725 1.67037 12.8725 1.67037 12.8725C1.67037 12.8725 1.67037 12.8725 1.67037 12.8725C1.67037 12.8725 1.67037 12.8725 1.67037 12.8725C1.67037 12.8725 1.67037 12.8725 1.67037 12.8725C1.67037 12.8725 1.67037 12.8725 1.67037 12.8725C1.67037 12.8725 1.67037 12.8725 1.67037 12.8725C1.67037 12.8725 1.67037 12.8725 1.67037 12.8725V11.5725ZM3.13887 10.104C3.13887 10.915 2.4814 11.5725 1.67037 11.5725V12.8725C3.19937 12.8725 4.43887 11.633 4.43887 10.104H3.13887ZM1.67037 8.63547C2.4814 8.63547 3.13887 9.29294 3.13887 10.104H4.43887C4.43887 8.57497 3.19937 7.33547 1.67037 7.33547V8.63547ZM1.67029 8.63547C1.67029 8.63547 1.67029 8.63547 1.67029 8.63547C1.67029 8.63547 1.67029 8.63547 1.67029 8.63547C1.67029 8.63547 1.67029 8.63547 1.67029 8.63547C1.67029 8.63547 1.67029 8.63547 1.67029 8.63547C1.67029 8.63547 1.67029 8.63547 1.67029 8.63547C1.67029 8.63547 1.67029 8.63547 1.67029 8.63547C1.67029 8.63547 1.67029 8.63547 1.67029 8.63547C1.67029 8.63547 1.67029 8.63547 1.67029 8.63547C1.67029 8.63547 1.67029 8.63547 1.67029 8.63547C1.67029 8.63547 1.67029 8.63547 1.67029 8.63547C1.67029 8.63547 1.67029 8.63547 1.67029 8.63547C1.67029 8.63547 1.67029 8.63547 1.67029 8.63547C1.67029 8.63547 1.67029 8.63547 1.67029 8.63547C1.67029 8.63547 1.67029 8.63547 1.67029 8.63547C1.67029 8.63547 1.67029 8.63547 1.67029 8.63547C1.67029 8.63547 1.67029 8.63547 1.67029 8.63547C1.67029 8.63547 1.67029 8.63547 1.67029 8.63547C1.67029 8.63547 1.67029 8.63547 1.67029 8.63547C1.67029 8.63547 1.67029 8.63547 1.67029 8.63547C1.67029 8.63547 1.67029 8.63547 1.67029 8.63547C1.67029 8.63547 1.67029 8.63547 1.67029 8.63547C1.67029 8.63547 1.67029 8.63547 1.67029 8.63547C1.67029 8.63547 1.67029 8.63547 1.67029 8.63547C1.67029 8.63547 1.67029 8.63547 1.67029 8.63547C1.67029 8.63547 1.67029 8.63547 1.67029 8.63547C1.67029 8.63547 1.67029 8.63547 1.67029 8.63547C1.67029 8.63547 1.67029 8.63547 1.67029 8.63547C1.67029 8.63547 1.67029 8.63547 1.67029 8.63547C1.67029 8.63547 1.67029 8.63547 1.67029 8.63547C1.67029 8.63547 1.67029 8.63547 1.67029 8.63547C1.67029 8.63547 1.67029 8.63547 1.67029 8.63547C1.67029 8.63547 1.67029 8.63547 1.67029 8.63547C1.67029 8.63547 1.67029 8.63547 1.67029 8.63547C1.67029 8.63547 1.67029 8.63547 1.67029 8.63547C1.67029 8.63547 1.67029 8.63547 1.67029 8.63547C1.67029 8.63547 1.67029 8.63547 1.67029 8.63547C1.67029 8.63547 1.67029 8.63547 1.67029 8.63547C1.67029 8.63547 1.67029 8.63547 1.67029 8.63547C1.67029 8.63547 1.67029 8.63547 1.67029 8.63547C1.67029 8.63547 1.67029 8.63547 1.67029 8.63547C1.67029 8.63547 1.67029 8.63547 1.6703 8.63547C1.6703 8.63547 1.6703 8.63547 1.6703 8.63547C1.6703 8.63547 1.6703 8.63547 1.6703 8.63547C1.6703 8.63547 1.6703 8.63547 1.6703 8.63547C1.6703 8.63547 1.6703 8.63547 1.6703 8.63547C1.6703 8.63547 1.6703 8.63547 1.6703 8.63547C1.6703 8.63547 1.6703 8.63547 1.6703 8.63547C1.6703 8.63547 1.6703 8.63547 1.6703 8.63547C1.6703 8.63547 1.6703 8.63547 1.6703 8.63547C1.6703 8.63547 1.6703 8.63547 1.6703 8.63547C1.6703 8.63547 1.6703 8.63547 1.6703 8.63547C1.6703 8.63547 1.6703 8.63547 1.6703 8.63547C1.6703 8.63547 1.6703 8.63547 1.6703 8.63547C1.6703 8.63547 1.6703 8.63547 1.6703 8.63547C1.6703 8.63547 1.6703 8.63547 1.6703 8.63547C1.6703 8.63547 1.6703 8.63547 1.6703 8.63547C1.6703 8.63547 1.6703 8.63547 1.6703 8.63547C1.6703 8.63547 1.6703 8.63547 1.6703 8.63547C1.6703 8.63547 1.6703 8.63547 1.6703 8.63547C1.6703 8.63547 1.6703 8.63547 1.6703 8.63547C1.6703 8.63547 1.6703 8.63547 1.6703 8.63547C1.6703 8.63547 1.6703 8.63547 1.6703 8.63547C1.6703 8.63547 1.6703 8.63547 1.6703 8.63547C1.6703 8.63547 1.6703 8.63547 1.6703 8.63547C1.6703 8.63547 1.6703 8.63547 1.6703 8.63547C1.6703 8.63547 1.6703 8.63547 1.6703 8.63547C1.6703 8.63547 1.6703 8.63547 1.6703 8.63547C1.6703 8.63547 1.6703 8.63547 1.6703 8.63547C1.6703 8.63547 1.6703 8.63547 1.6703 8.63547C1.6703 8.63547 1.6703 8.63547 1.6703 8.63547C1.6703 8.63547 1.6703 8.63547 1.6703 8.63547C1.6703 8.63547 1.6703 8.63547 1.6703 8.63547C1.6703 8.63547 1.6703 8.63547 1.6703 8.63547C1.6703 8.63547 1.6703 8.63547 1.6703 8.63547C1.6703 8.63547 1.6703 8.63547 1.6703 8.63547C1.6703 8.63547 1.6703 8.63547 1.6703 8.63547C1.6703 8.63547 1.6703 8.63547 1.6703 8.63547C1.6703 8.63547 1.6703 8.63547 1.6703 8.63547C1.6703 8.63547 1.6703 8.63547 1.6703 8.63547C1.6703 8.63547 1.6703 8.63547 1.6703 8.63547C1.6703 8.63547 1.6703 8.63547 1.6703 8.63547C1.6703 8.63547 1.6703 8.63547 1.6703 8.63547C1.6703 8.63547 1.6703 8.63547 1.6703 8.63547C1.6703 8.63547 1.6703 8.63547 1.6703 8.63547C1.6703 8.63547 1.6703 8.63547 1.6703 8.63547C1.6703 8.63547 1.6703 8.63547 1.6703 8.63547C1.6703 8.63547 1.6703 8.63547 1.6703 8.63547C1.6703 8.63547 1.6703 8.63547 1.6703 8.63547C1.6703 8.63547 1.6703 8.63547 1.6703 8.63547C1.6703 8.63547 1.6703 8.63547 1.6703 8.63547C1.6703 8.63547 1.6703 8.63547 1.6703 8.63547C1.6703 8.63547 1.6703 8.63547 1.6703 8.63547C1.6703 8.63547 1.6703 8.63547 1.6703 8.63547C1.6703 8.63547 1.6703 8.63547 1.6703 8.63547C1.6703 8.63547 1.6703 8.63547 1.6703 8.63547C1.6703 8.63547 1.6703 8.63547 1.6703 8.63547C1.6703 8.63547 1.6703 8.63547 1.6703 8.63547C1.6703 8.63547 1.6703 8.63547 1.6703 8.63547C1.6703 8.63547 1.6703 8.63547 1.6703 8.63547C1.6703 8.63547 1.6703 8.63547 1.6703 8.63547C1.67031 8.63547 1.67031 8.63547 1.67031 8.63547C1.67031 8.63547 1.67031 8.63547 1.67031 8.63547C1.67031 8.63547 1.67031 8.63547 1.67031 8.63547C1.67031 8.63547 1.67031 8.63547 1.67031 8.63547C1.67031 8.63547 1.67031 8.63547 1.67031 8.63547C1.67031 8.63547 1.67031 8.63547 1.67031 8.63547C1.67031 8.63547 1.67031 8.63547 1.67031 8.63547C1.67031 8.63547 1.67031 8.63547 1.67031 8.63547C1.67031 8.63547 1.67031 8.63547 1.67031 8.63547C1.67031 8.63547 1.67031 8.63547 1.67031 8.63547C1.67031 8.63547 1.67031 8.63547 1.67031 8.63547C1.67031 8.63547 1.67031 8.63547 1.67031 8.63547C1.67031 8.63547 1.67031 8.63547 1.67031 8.63547C1.67031 8.63547 1.67031 8.63547 1.67031 8.63547C1.67031 8.63547 1.67031 8.63547 1.67031 8.63547C1.67031 8.63547 1.67031 8.63547 1.67031 8.63547C1.67031 8.63547 1.67031 8.63547 1.67031 8.63547C1.67031 8.63547 1.67031 8.63547 1.67031 8.63547C1.67031 8.63547 1.67031 8.63547 1.67031 8.63547C1.67031 8.63547 1.67031 8.63547 1.67031 8.63547C1.67031 8.63547 1.67031 8.63547 1.67031 8.63547C1.67031 8.63547 1.67031 8.63547 1.67031 8.63547C1.67031 8.63547 1.67031 8.63547 1.67031 8.63547C1.67031 8.63547 1.67031 8.63547 1.67031 8.63547C1.67031 8.63547 1.67031 8.63547 1.67031 8.63547C1.67031 8.63547 1.67031 8.63547 1.67031 8.63547C1.67031 8.63547 1.67031 8.63547 1.67031 8.63547C1.67031 8.63547 1.67031 8.63547 1.67031 8.63547C1.67031 8.63547 1.67031 8.63547 1.67031 8.63547C1.67031 8.63547 1.67031 8.63547 1.67031 8.63547C1.67031 8.63547 1.67031 8.63547 1.67031 8.63547C1.67031 8.63547 1.67031 8.63547 1.67031 8.63547C1.67031 8.63547 1.67031 8.63547 1.67031 8.63547C1.67031 8.63547 1.67031 8.63547 1.67031 8.63547C1.67031 8.63547 1.67031 8.63547 1.67031 8.63547C1.67031 8.63547 1.67031 8.63547 1.67031 8.63547C1.67031 8.63547 1.67031 8.63547 1.67031 8.63547C1.67031 8.63547 1.67031 8.63547 1.67031 8.63547C1.67031 8.63547 1.67031 8.63547 1.67031 8.63547C1.67031 8.63547 1.67031 8.63547 1.67031 8.63547C1.67031 8.63547 1.67031 8.63547 1.67031 8.63547C1.67031 8.63547 1.67031 8.63547 1.67031 8.63547C1.67031 8.63547 1.67031 8.63547 1.67031 8.63547C1.67031 8.63547 1.67031 8.63547 1.67031 8.63547C1.67031 8.63547 1.67031 8.63547 1.67031 8.63547C1.67031 8.63547 1.67031 8.63547 1.67031 8.63547C1.67031 8.63547 1.67031 8.63547 1.67031 8.63547C1.67031 8.63547 1.67031 8.63547 1.67031 8.63547C1.67031 8.63547 1.67031 8.63547 1.67031 8.63547C1.67031 8.63547 1.67031 8.63547 1.67031 8.63547C1.67031 8.63547 1.67031 8.63547 1.67031 8.63547C1.67031 8.63547 1.67031 8.63547 1.67031 8.63547C1.67031 8.63547 1.67031 8.63547 1.67031 8.63547C1.67031 8.63547 1.67031 8.63547 1.67031 8.63547C1.67031 8.63547 1.67031 8.63547 1.67031 8.63547C1.67031 8.63547 1.67031 8.63547 1.67031 8.63547C1.67031 8.63547 1.67031 8.63547 1.67031 8.63547C1.67031 8.63547 1.67031 8.63547 1.67031 8.63547C1.67031 8.63547 1.67031 8.63547 1.67031 8.63547C1.67032 8.63547 1.67032 8.63547 1.67032 8.63547C1.67032 8.63547 1.67032 8.63547 1.67032 8.63547C1.67032 8.63547 1.67032 8.63547 1.67032 8.63547C1.67032 8.63547 1.67032 8.63547 1.67032 8.63547C1.67032 8.63547 1.67032 8.63547 1.67032 8.63547C1.67032 8.63547 1.67032 8.63547 1.67032 8.63547C1.67032 8.63547 1.67032 8.63547 1.67032 8.63547C1.67032 8.63547 1.67032 8.63547 1.67032 8.63547C1.67032 8.63547 1.67032 8.63547 1.67032 8.63547C1.67032 8.63547 1.67032 8.63547 1.67032 8.63547C1.67032 8.63547 1.67032 8.63547 1.67032 8.63547C1.67032 8.63547 1.67032 8.63547 1.67032 8.63547C1.67032 8.63547 1.67032 8.63547 1.67032 8.63547C1.67032 8.63547 1.67032 8.63547 1.67032 8.63547C1.67032 8.63547 1.67032 8.63547 1.67032 8.63547C1.67032 8.63547 1.67032 8.63547 1.67032 8.63547C1.67032 8.63547 1.67032 8.63547 1.67032 8.63547C1.67032 8.63547 1.67032 8.63547 1.67032 8.63547C1.67032 8.63547 1.67032 8.63547 1.67032 8.63547C1.67032 8.63547 1.67032 8.63547 1.67032 8.63547C1.67032 8.63547 1.67032 8.63547 1.67032 8.63547C1.67032 8.63547 1.67032 8.63547 1.67032 8.63547C1.67032 8.63547 1.67032 8.63547 1.67032 8.63547C1.67032 8.63547 1.67032 8.63547 1.67032 8.63547C1.67032 8.63547 1.67032 8.63547 1.67032 8.63547C1.67032 8.63547 1.67032 8.63547 1.67032 8.63547C1.67032 8.63547 1.67032 8.63547 1.67032 8.63547C1.67032 8.63547 1.67032 8.63547 1.67032 8.63547C1.67032 8.63547 1.67032 8.63547 1.67032 8.63547C1.67032 8.63547 1.67032 8.63547 1.67032 8.63547C1.67032 8.63547 1.67032 8.63547 1.67032 8.63547C1.67032 8.63547 1.67032 8.63547 1.67032 8.63547C1.67032 8.63547 1.67032 8.63547 1.67032 8.63547C1.67032 8.63547 1.67032 8.63547 1.67032 8.63547C1.67032 8.63547 1.67032 8.63547 1.67032 8.63547C1.67032 8.63547 1.67032 8.63547 1.67032 8.63547C1.67032 8.63547 1.67032 8.63547 1.67032 8.63547C1.67032 8.63547 1.67032 8.63547 1.67032 8.63547C1.67032 8.63547 1.67032 8.63547 1.67032 8.63547C1.67032 8.63547 1.67032 8.63547 1.67032 8.63547C1.67032 8.63547 1.67032 8.63547 1.67032 8.63547C1.67032 8.63547 1.67032 8.63547 1.67032 8.63547C1.67032 8.63547 1.67032 8.63547 1.67032 8.63547C1.67032 8.63547 1.67032 8.63547 1.67032 8.63547C1.67032 8.63547 1.67032 8.63547 1.67032 8.63547C1.67032 8.63547 1.67032 8.63547 1.67032 8.63547C1.67032 8.63547 1.67032 8.63547 1.67032 8.63547C1.67032 8.63547 1.67032 8.63547 1.67032 8.63547C1.67032 8.63547 1.67032 8.63547 1.67032 8.63547C1.67032 8.63547 1.67032 8.63547 1.67032 8.63547C1.67032 8.63547 1.67032 8.63547 1.67032 8.63547C1.67032 8.63547 1.67032 8.63547 1.67032 8.63547C1.67032 8.63547 1.67032 8.63547 1.67032 8.63547C1.67032 8.63547 1.67032 8.63547 1.67032 8.63547C1.67032 8.63547 1.67032 8.63547 1.67032 8.63547C1.67032 8.63547 1.67032 8.63547 1.67032 8.63547C1.67032 8.63547 1.67032 8.63547 1.67032 8.63547C1.67032 8.63547 1.67032 8.63547 1.67032 8.63547C1.67032 8.63547 1.67032 8.63547 1.67032 8.63547C1.67032 8.63547 1.67033 8.63547 1.67033 8.63547C1.67033 8.63547 1.67033 8.63547 1.67033 8.63547C1.67033 8.63547 1.67033 8.63547 1.67033 8.63547C1.67033 8.63547 1.67033 8.63547 1.67033 8.63547C1.67033 8.63547 1.67033 8.63547 1.67033 8.63547C1.67033 8.63547 1.67033 8.63547 1.67033 8.63547C1.67033 8.63547 1.67033 8.63547 1.67033 8.63547C1.67033 8.63547 1.67033 8.63547 1.67033 8.63547C1.67033 8.63547 1.67033 8.63547 1.67033 8.63547C1.67033 8.63547 1.67033 8.63547 1.67033 8.63547C1.67033 8.63547 1.67033 8.63547 1.67033 8.63547C1.67033 8.63547 1.67033 8.63547 1.67033 8.63547C1.67033 8.63547 1.67033 8.63547 1.67033 8.63547C1.67033 8.63547 1.67033 8.63547 1.67033 8.63547C1.67033 8.63547 1.67033 8.63547 1.67033 8.63547C1.67033 8.63547 1.67033 8.63547 1.67033 8.63547C1.67033 8.63547 1.67033 8.63547 1.67033 8.63547C1.67033 8.63547 1.67033 8.63547 1.67033 8.63547C1.67033 8.63547 1.67033 8.63547 1.67033 8.63547C1.67033 8.63547 1.67033 8.63547 1.67033 8.63547C1.67033 8.63547 1.67033 8.63547 1.67033 8.63547C1.67033 8.63547 1.67033 8.63547 1.67033 8.63547C1.67033 8.63547 1.67033 8.63547 1.67033 8.63547C1.67033 8.63547 1.67033 8.63547 1.67033 8.63547C1.67033 8.63547 1.67033 8.63547 1.67033 8.63547C1.67033 8.63547 1.67033 8.63547 1.67033 8.63547C1.67033 8.63547 1.67033 8.63547 1.67033 8.63547C1.67033 8.63547 1.67033 8.63547 1.67033 8.63547C1.67033 8.63547 1.67033 8.63547 1.67033 8.63547C1.67033 8.63547 1.67033 8.63547 1.67033 8.63547C1.67033 8.63547 1.67033 8.63547 1.67033 8.63547C1.67033 8.63547 1.67033 8.63547 1.67033 8.63547C1.67033 8.63547 1.67033 8.63547 1.67033 8.63547C1.67033 8.63547 1.67033 8.63547 1.67033 8.63547C1.67033 8.63547 1.67033 8.63547 1.67033 8.63547C1.67033 8.63547 1.67033 8.63547 1.67033 8.63547C1.67033 8.63547 1.67033 8.63547 1.67033 8.63547C1.67033 8.63547 1.67033 8.63547 1.67033 8.63547C1.67033 8.63547 1.67033 8.63547 1.67033 8.63547C1.67033 8.63547 1.67033 8.63547 1.67033 8.63547C1.67033 8.63547 1.67033 8.63547 1.67033 8.63547C1.67033 8.63547 1.67033 8.63547 1.67033 8.63547C1.67033 8.63547 1.67033 8.63547 1.67033 8.63547C1.67033 8.63547 1.67033 8.63547 1.67033 8.63547C1.67033 8.63547 1.67033 8.63547 1.67033 8.63547C1.67033 8.63547 1.67033 8.63547 1.67033 8.63547C1.67033 8.63547 1.67033 8.63547 1.67033 8.63547C1.67033 8.63547 1.67033 8.63547 1.67033 8.63547C1.67033 8.63547 1.67033 8.63547 1.67033 8.63547C1.67033 8.63547 1.67033 8.63547 1.67033 8.63547C1.67033 8.63547 1.67033 8.63547 1.67033 8.63547C1.67033 8.63547 1.67033 8.63547 1.67033 8.63547C1.67033 8.63547 1.67033 8.63547 1.67033 8.63547C1.67033 8.63547 1.67033 8.63547 1.67033 8.63547C1.67033 8.63547 1.67033 8.63547 1.67033 8.63547C1.67033 8.63547 1.67033 8.63547 1.67033 8.63547C1.67033 8.63547 1.67033 8.63547 1.67033 8.63547C1.67033 8.63547 1.67033 8.63547 1.67033 8.63547C1.67033 8.63547 1.67033 8.63547 1.67033 8.63547C1.67033 8.63547 1.67034 8.63547 1.67034 8.63547C1.67034 8.63547 1.67034 8.63547 1.67034 8.63547C1.67034 8.63547 1.67034 8.63547 1.67034 8.63547C1.67034 8.63547 1.67034 8.63547 1.67034 8.63547C1.67034 8.63547 1.67034 8.63547 1.67034 8.63547C1.67034 8.63547 1.67034 8.63547 1.67034 8.63547C1.67034 8.63547 1.67034 8.63547 1.67034 8.63547C1.67034 8.63547 1.67034 8.63547 1.67034 8.63547C1.67034 8.63547 1.67034 8.63547 1.67034 8.63547C1.67034 8.63547 1.67034 8.63547 1.67034 8.63547C1.67034 8.63547 1.67034 8.63547 1.67034 8.63547C1.67034 8.63547 1.67034 8.63547 1.67034 8.63547C1.67034 8.63547 1.67034 8.63547 1.67034 8.63547C1.67034 8.63547 1.67034 8.63547 1.67034 8.63547C1.67034 8.63547 1.67034 8.63547 1.67034 8.63547C1.67034 8.63547 1.67034 8.63547 1.67034 8.63547C1.67034 8.63547 1.67034 8.63547 1.67034 8.63547C1.67034 8.63547 1.67034 8.63547 1.67034 8.63547C1.67034 8.63547 1.67034 8.63547 1.67034 8.63547C1.67034 8.63547 1.67034 8.63547 1.67034 8.63547C1.67034 8.63547 1.67034 8.63547 1.67034 8.63547C1.67034 8.63547 1.67034 8.63547 1.67034 8.63547C1.67034 8.63547 1.67034 8.63547 1.67034 8.63547C1.67034 8.63547 1.67034 8.63547 1.67034 8.63547C1.67034 8.63547 1.67034 8.63547 1.67034 8.63547C1.67034 8.63547 1.67034 8.63547 1.67034 8.63547C1.67034 8.63547 1.67034 8.63547 1.67034 8.63547C1.67034 8.63547 1.67034 8.63547 1.67034 8.63547C1.67034 8.63547 1.67034 8.63547 1.67034 8.63547C1.67034 8.63547 1.67034 8.63547 1.67034 8.63547C1.67034 8.63547 1.67034 8.63547 1.67034 8.63547C1.67034 8.63547 1.67034 8.63547 1.67034 8.63547C1.67034 8.63547 1.67034 8.63547 1.67034 8.63547C1.67034 8.63547 1.67034 8.63547 1.67034 8.63547C1.67034 8.63547 1.67034 8.63547 1.67034 8.63547C1.67034 8.63547 1.67034 8.63547 1.67034 8.63547C1.67034 8.63547 1.67034 8.63547 1.67034 8.63547C1.67034 8.63547 1.67034 8.63547 1.67034 8.63547C1.67034 8.63547 1.67034 8.63547 1.67034 8.63547C1.67034 8.63547 1.67034 8.63547 1.67034 8.63547C1.67034 8.63547 1.67034 8.63547 1.67034 8.63547C1.67034 8.63547 1.67034 8.63547 1.67034 8.63547C1.67034 8.63547 1.67034 8.63547 1.67034 8.63547C1.67034 8.63547 1.67034 8.63547 1.67034 8.63547C1.67034 8.63547 1.67034 8.63547 1.67034 8.63547C1.67034 8.63547 1.67034 8.63547 1.67034 8.63547C1.67034 8.63547 1.67034 8.63547 1.67034 8.63547C1.67034 8.63547 1.67034 8.63547 1.67034 8.63547C1.67034 8.63547 1.67034 8.63547 1.67034 8.63547C1.67034 8.63547 1.67034 8.63547 1.67034 8.63547C1.67034 8.63547 1.67034 8.63547 1.67034 8.63547C1.67034 8.63547 1.67034 8.63547 1.67034 8.63547C1.67034 8.63547 1.67034 8.63547 1.67034 8.63547C1.67034 8.63547 1.67034 8.63547 1.67034 8.63547C1.67034 8.63547 1.67034 8.63547 1.67034 8.63547C1.67034 8.63547 1.67034 8.63547 1.67034 8.63547C1.67034 8.63547 1.67034 8.63547 1.67034 8.63547C1.67034 8.63547 1.67034 8.63547 1.67034 8.63547C1.67034 8.63547 1.67034 8.63547 1.67034 8.63547C1.67034 8.63547 1.67034 8.63547 1.67035 8.63547C1.67035 8.63547 1.67035 8.63547 1.67035 8.63547C1.67035 8.63547 1.67035 8.63547 1.67035 8.63547C1.67035 8.63547 1.67035 8.63547 1.67035 8.63547C1.67035 8.63547 1.67035 8.63547 1.67035 8.63547C1.67035 8.63547 1.67035 8.63547 1.67035 8.63547C1.67035 8.63547 1.67035 8.63547 1.67035 8.63547C1.67035 8.63547 1.67035 8.63547 1.67035 8.63547C1.67035 8.63547 1.67035 8.63547 1.67035 8.63547C1.67035 8.63547 1.67035 8.63547 1.67035 8.63547C1.67035 8.63547 1.67035 8.63547 1.67035 8.63547C1.67035 8.63547 1.67035 8.63547 1.67035 8.63547C1.67035 8.63547 1.67035 8.63547 1.67035 8.63547C1.67035 8.63547 1.67035 8.63547 1.67035 8.63547C1.67035 8.63547 1.67035 8.63547 1.67035 8.63547C1.67035 8.63547 1.67035 8.63547 1.67035 8.63547C1.67035 8.63547 1.67035 8.63547 1.67035 8.63547C1.67035 8.63547 1.67035 8.63547 1.67035 8.63547C1.67035 8.63547 1.67035 8.63547 1.67035 8.63547C1.67035 8.63547 1.67035 8.63547 1.67035 8.63547C1.67035 8.63547 1.67035 8.63547 1.67035 8.63547C1.67035 8.63547 1.67035 8.63547 1.67035 8.63547C1.67035 8.63547 1.67035 8.63547 1.67035 8.63547C1.67035 8.63547 1.67035 8.63547 1.67035 8.63547C1.67035 8.63547 1.67035 8.63547 1.67035 8.63547C1.67035 8.63547 1.67035 8.63547 1.67035 8.63547C1.67035 8.63547 1.67035 8.63547 1.67035 8.63547C1.67035 8.63547 1.67035 8.63547 1.67035 8.63547C1.67035 8.63547 1.67035 8.63547 1.67035 8.63547C1.67035 8.63547 1.67035 8.63547 1.67035 8.63547C1.67035 8.63547 1.67035 8.63547 1.67035 8.63547C1.67035 8.63547 1.67035 8.63547 1.67035 8.63547C1.67035 8.63547 1.67035 8.63547 1.67035 8.63547C1.67035 8.63547 1.67035 8.63547 1.67035 8.63547C1.67035 8.63547 1.67035 8.63547 1.67035 8.63547C1.67035 8.63547 1.67035 8.63547 1.67035 8.63547C1.67035 8.63547 1.67035 8.63547 1.67035 8.63547C1.67035 8.63547 1.67035 8.63547 1.67035 8.63547C1.67035 8.63547 1.67035 8.63547 1.67035 8.63547C1.67035 8.63547 1.67035 8.63547 1.67035 8.63547C1.67035 8.63547 1.67035 8.63547 1.67035 8.63547C1.67035 8.63547 1.67035 8.63547 1.67035 8.63547C1.67035 8.63547 1.67035 8.63547 1.67035 8.63547C1.67035 8.63547 1.67035 8.63547 1.67035 8.63547C1.67035 8.63547 1.67035 8.63547 1.67035 8.63547C1.67035 8.63547 1.67035 8.63547 1.67035 8.63547C1.67035 8.63547 1.67035 8.63547 1.67035 8.63547C1.67035 8.63547 1.67035 8.63547 1.67035 8.63547C1.67035 8.63547 1.67035 8.63547 1.67035 8.63547C1.67035 8.63547 1.67035 8.63547 1.67035 8.63547C1.67035 8.63547 1.67035 8.63547 1.67035 8.63547C1.67035 8.63547 1.67035 8.63547 1.67035 8.63547C1.67035 8.63547 1.67035 8.63547 1.67035 8.63547C1.67035 8.63547 1.67035 8.63547 1.67035 8.63547C1.67035 8.63547 1.67035 8.63547 1.67035 8.63547C1.67035 8.63547 1.67035 8.63547 1.67035 8.63547C1.67035 8.63547 1.67035 8.63547 1.67035 8.63547C1.67035 8.63547 1.67035 8.63547 1.67035 8.63547C1.67035 8.63547 1.67035 8.63547 1.67035 8.63547C1.67035 8.63547 1.67035 8.63547 1.67036 8.63547C1.67036 8.63547 1.67036 8.63547 1.67036 8.63547C1.67036 8.63547 1.67036 8.63547 1.67036 8.63547C1.67036 8.63547 1.67036 8.63547 1.67036 8.63547C1.67036 8.63547 1.67036 8.63547 1.67036 8.63547C1.67036 8.63547 1.67036 8.63547 1.67036 8.63547C1.67036 8.63547 1.67036 8.63547 1.67036 8.63547C1.67036 8.63547 1.67036 8.63547 1.67036 8.63547C1.67036 8.63547 1.67036 8.63547 1.67036 8.63547C1.67036 8.63547 1.67036 8.63547 1.67036 8.63547C1.67036 8.63547 1.67036 8.63547 1.67036 8.63547C1.67036 8.63547 1.67036 8.63547 1.67036 8.63547C1.67036 8.63547 1.67036 8.63547 1.67036 8.63547C1.67036 8.63547 1.67036 8.63547 1.67036 8.63547C1.67036 8.63547 1.67036 8.63547 1.67036 8.63547C1.67036 8.63547 1.67036 8.63547 1.67036 8.63547C1.67036 8.63547 1.67036 8.63547 1.67036 8.63547C1.67036 8.63547 1.67036 8.63547 1.67036 8.63547C1.67036 8.63547 1.67036 8.63547 1.67036 8.63547C1.67036 8.63547 1.67036 8.63547 1.67036 8.63547C1.67036 8.63547 1.67036 8.63547 1.67036 8.63547C1.67036 8.63547 1.67036 8.63547 1.67036 8.63547C1.67036 8.63547 1.67036 8.63547 1.67036 8.63547C1.67036 8.63547 1.67036 8.63547 1.67036 8.63547C1.67036 8.63547 1.67036 8.63547 1.67036 8.63547C1.67036 8.63547 1.67036 8.63547 1.67036 8.63547C1.67036 8.63547 1.67036 8.63547 1.67036 8.63547C1.67036 8.63547 1.67036 8.63547 1.67036 8.63547C1.67036 8.63547 1.67036 8.63547 1.67036 8.63547C1.67036 8.63547 1.67036 8.63547 1.67036 8.63547C1.67036 8.63547 1.67036 8.63547 1.67036 8.63547C1.67036 8.63547 1.67036 8.63547 1.67036 8.63547C1.67036 8.63547 1.67036 8.63547 1.67036 8.63547C1.67036 8.63547 1.67036 8.63547 1.67036 8.63547C1.67036 8.63547 1.67036 8.63547 1.67036 8.63547C1.67036 8.63547 1.67036 8.63547 1.67036 8.63547C1.67036 8.63547 1.67036 8.63547 1.67036 8.63547C1.67036 8.63547 1.67036 8.63547 1.67036 8.63547C1.67036 8.63547 1.67036 8.63547 1.67036 8.63547C1.67036 8.63547 1.67036 8.63547 1.67036 8.63547C1.67036 8.63547 1.67036 8.63547 1.67036 8.63547C1.67036 8.63547 1.67036 8.63547 1.67036 8.63547C1.67036 8.63547 1.67036 8.63547 1.67036 8.63547C1.67036 8.63547 1.67036 8.63547 1.67036 8.63547C1.67036 8.63547 1.67036 8.63547 1.67036 8.63547C1.67036 8.63547 1.67036 8.63547 1.67036 8.63547C1.67036 8.63547 1.67036 8.63547 1.67036 8.63547C1.67036 8.63547 1.67036 8.63547 1.67036 8.63547C1.67036 8.63547 1.67036 8.63547 1.67036 8.63547C1.67036 8.63547 1.67036 8.63547 1.67036 8.63547C1.67036 8.63547 1.67036 8.63547 1.67036 8.63547C1.67036 8.63547 1.67036 8.63547 1.67036 8.63547C1.67036 8.63547 1.67036 8.63547 1.67036 8.63547C1.67036 8.63547 1.67036 8.63547 1.67036 8.63547C1.67036 8.63547 1.67036 8.63547 1.67036 8.63547C1.67036 8.63547 1.67036 8.63547 1.67036 8.63547C1.67036 8.63547 1.67036 8.63547 1.67036 8.63547C1.67036 8.63547 1.67036 8.63547 1.67036 8.63547C1.67036 8.63547 1.67036 8.63547 1.67036 8.63547C1.67036 8.63547 1.67036 8.63547 1.67036 8.63547C1.67037 8.63547 1.67037 8.63547 1.67037 8.63547C1.67037 8.63547 1.67037 8.63547 1.67037 8.63547C1.67037 8.63547 1.67037 8.63547 1.67037 8.63547C1.67037 8.63547 1.67037 8.63547 1.67037 8.63547C1.67037 8.63547 1.67037 8.63547 1.67037 8.63547C1.67037 8.63547 1.67037 8.63547 1.67037 8.63547C1.67037 8.63547 1.67037 8.63547 1.67037 8.63547C1.67037 8.63547 1.67037 8.63547 1.67037 8.63547C1.67037 8.63547 1.67037 8.63547 1.67037 8.63547C1.67037 8.63547 1.67037 8.63547 1.67037 8.63547C1.67037 8.63547 1.67037 8.63547 1.67037 8.63547C1.67037 8.63547 1.67037 8.63547 1.67037 8.63547C1.67037 8.63547 1.67037 8.63547 1.67037 8.63547C1.67037 8.63547 1.67037 8.63547 1.67037 8.63547C1.67037 8.63547 1.67037 8.63547 1.67037 8.63547C1.67037 8.63547 1.67037 8.63547 1.67037 8.63547C1.67037 8.63547 1.67037 8.63547 1.67037 8.63547C1.67037 8.63547 1.67037 8.63547 1.67037 8.63547C1.67037 8.63547 1.67037 8.63547 1.67037 8.63547C1.67037 8.63547 1.67037 8.63547 1.67037 8.63547C1.67037 8.63547 1.67037 8.63547 1.67037 8.63547C1.67037 8.63547 1.67037 8.63547 1.67037 8.63547C1.67037 8.63547 1.67037 8.63547 1.67037 8.63547C1.67037 8.63547 1.67037 8.63547 1.67037 8.63547C1.67037 8.63547 1.67037 8.63547 1.67037 8.63547C1.67037 8.63547 1.67037 8.63547 1.67037 8.63547C1.67037 8.63547 1.67037 8.63547 1.67037 8.63547C1.67037 8.63547 1.67037 8.63547 1.67037 8.63547C1.67037 8.63547 1.67037 8.63547 1.67037 8.63547C1.67037 8.63547 1.67037 8.63547 1.67037 8.63547C1.67037 8.63547 1.67037 8.63547 1.67037 8.63547C1.67037 8.63547 1.67037 8.63547 1.67037 8.63547C1.67037 8.63547 1.67037 8.63547 1.67037 8.63547C1.67037 8.63547 1.67037 8.63547 1.67037 8.63547C1.67037 8.63547 1.67037 8.63547 1.67037 8.63547C1.67037 8.63547 1.67037 8.63547 1.67037 8.63547C1.67037 8.63547 1.67037 8.63547 1.67037 8.63547C1.67037 8.63547 1.67037 8.63547 1.67037 8.63547C1.67037 8.63547 1.67037 8.63547 1.67037 8.63547C1.67037 8.63547 1.67037 8.63547 1.67037 8.63547C1.67037 8.63547 1.67037 8.63547 1.67037 8.63547C1.67037 8.63547 1.67037 8.63547 1.67037 8.63547C1.67037 8.63547 1.67037 8.63547 1.67037 8.63547C1.67037 8.63547 1.67037 8.63547 1.67037 8.63547C1.67037 8.63547 1.67037 8.63547 1.67037 8.63547C1.67037 8.63547 1.67037 8.63547 1.67037 8.63547C1.67037 8.63547 1.67037 8.63547 1.67037 8.63547C1.67037 8.63547 1.67037 8.63547 1.67037 8.63547C1.67037 8.63547 1.67037 8.63547 1.67037 8.63547C1.67037 8.63547 1.67037 8.63547 1.67037 8.63547C1.67037 8.63547 1.67037 8.63547 1.67037 8.63547C1.67037 8.63547 1.67037 8.63547 1.67037 8.63547C1.67037 8.63547 1.67037 8.63547 1.67037 8.63547C1.67037 8.63547 1.67037 8.63547 1.67037 8.63547C1.67037 8.63547 1.67037 8.63547 1.67037 8.63547C1.67037 8.63547 1.67037 8.63547 1.67037 8.63547C1.67037 8.63547 1.67037 8.63547 1.67037 8.63547V7.33547C1.67037 7.33547 1.67037 7.33547 1.67037 7.33547C1.67037 7.33547 1.67037 7.33547 1.67037 7.33547C1.67037 7.33547 1.67037 7.33547 1.67037 7.33547C1.67037 7.33547 1.67037 7.33547 1.67037 7.33547C1.67037 7.33547 1.67037 7.33547 1.67037 7.33547C1.67037 7.33547 1.67037 7.33547 1.67037 7.33547C1.67037 7.33547 1.67037 7.33547 1.67037 7.33547C1.67037 7.33547 1.67037 7.33547 1.67037 7.33547C1.67037 7.33547 1.67037 7.33547 1.67037 7.33547C1.67037 7.33547 1.67037 7.33547 1.67037 7.33547C1.67037 7.33547 1.67037 7.33547 1.67037 7.33547C1.67037 7.33547 1.67037 7.33547 1.67037 7.33547C1.67037 7.33547 1.67037 7.33547 1.67037 7.33547C1.67037 7.33547 1.67037 7.33547 1.67037 7.33547C1.67037 7.33547 1.67037 7.33547 1.67037 7.33547C1.67037 7.33547 1.67037 7.33547 1.67037 7.33547C1.67037 7.33547 1.67037 7.33547 1.67037 7.33547C1.67037 7.33547 1.67037 7.33547 1.67037 7.33547C1.67037 7.33547 1.67037 7.33547 1.67037 7.33547C1.67037 7.33547 1.67037 7.33547 1.67037 7.33547C1.67037 7.33547 1.67037 7.33547 1.67037 7.33547C1.67037 7.33547 1.67037 7.33547 1.67037 7.33547C1.67037 7.33547 1.67037 7.33547 1.67037 7.33547C1.67037 7.33547 1.67037 7.33547 1.67037 7.33547C1.67037 7.33547 1.67037 7.33547 1.67037 7.33547C1.67037 7.33547 1.67037 7.33547 1.67037 7.33547C1.67037 7.33547 1.67037 7.33547 1.67037 7.33547C1.67037 7.33547 1.67037 7.33547 1.67037 7.33547C1.67037 7.33547 1.67037 7.33547 1.67037 7.33547C1.67037 7.33547 1.67037 7.33547 1.67037 7.33547C1.67037 7.33547 1.67037 7.33547 1.67037 7.33547C1.67037 7.33547 1.67037 7.33547 1.67037 7.33547C1.67037 7.33547 1.67037 7.33547 1.67037 7.33547C1.67037 7.33547 1.67037 7.33547 1.67037 7.33547C1.67037 7.33547 1.67037 7.33547 1.67037 7.33547C1.67037 7.33547 1.67037 7.33547 1.67037 7.33547C1.67037 7.33547 1.67037 7.33547 1.67037 7.33547C1.67037 7.33547 1.67037 7.33547 1.67037 7.33547C1.67037 7.33547 1.67037 7.33547 1.67037 7.33547C1.67037 7.33547 1.67037 7.33547 1.67037 7.33547C1.67037 7.33547 1.67037 7.33547 1.67037 7.33547C1.67037 7.33547 1.67037 7.33547 1.67037 7.33547C1.67037 7.33547 1.67037 7.33547 1.67037 7.33547C1.67037 7.33547 1.67037 7.33547 1.67037 7.33547C1.67037 7.33547 1.67037 7.33547 1.67037 7.33547C1.67037 7.33547 1.67037 7.33547 1.67037 7.33547C1.67037 7.33547 1.67037 7.33547 1.67037 7.33547C1.67037 7.33547 1.67037 7.33547 1.67037 7.33547C1.67037 7.33547 1.67037 7.33547 1.67037 7.33547C1.67037 7.33547 1.67037 7.33547 1.67037 7.33547C1.67037 7.33547 1.67037 7.33547 1.67037 7.33547C1.67037 7.33547 1.67037 7.33547 1.67037 7.33547C1.67037 7.33547 1.67037 7.33547 1.67037 7.33547C1.67037 7.33547 1.67037 7.33547 1.67037 7.33547C1.67037 7.33547 1.67037 7.33547 1.67037 7.33547C1.67037 7.33547 1.67037 7.33547 1.67037 7.33547C1.67037 7.33547 1.67037 7.33547 1.67036 7.33547C1.67036 7.33547 1.67036 7.33547 1.67036 7.33547C1.67036 7.33547 1.67036 7.33547 1.67036 7.33547C1.67036 7.33547 1.67036 7.33547 1.67036 7.33547C1.67036 7.33547 1.67036 7.33547 1.67036 7.33547C1.67036 7.33547 1.67036 7.33547 1.67036 7.33547C1.67036 7.33547 1.67036 7.33547 1.67036 7.33547C1.67036 7.33547 1.67036 7.33547 1.67036 7.33547C1.67036 7.33547 1.67036 7.33547 1.67036 7.33547C1.67036 7.33547 1.67036 7.33547 1.67036 7.33547C1.67036 7.33547 1.67036 7.33547 1.67036 7.33547C1.67036 7.33547 1.67036 7.33547 1.67036 7.33547C1.67036 7.33547 1.67036 7.33547 1.67036 7.33547C1.67036 7.33547 1.67036 7.33547 1.67036 7.33547C1.67036 7.33547 1.67036 7.33547 1.67036 7.33547C1.67036 7.33547 1.67036 7.33547 1.67036 7.33547C1.67036 7.33547 1.67036 7.33547 1.67036 7.33547C1.67036 7.33547 1.67036 7.33547 1.67036 7.33547C1.67036 7.33547 1.67036 7.33547 1.67036 7.33547C1.67036 7.33547 1.67036 7.33547 1.67036 7.33547C1.67036 7.33547 1.67036 7.33547 1.67036 7.33547C1.67036 7.33547 1.67036 7.33547 1.67036 7.33547C1.67036 7.33547 1.67036 7.33547 1.67036 7.33547C1.67036 7.33547 1.67036 7.33547 1.67036 7.33547C1.67036 7.33547 1.67036 7.33547 1.67036 7.33547C1.67036 7.33547 1.67036 7.33547 1.67036 7.33547C1.67036 7.33547 1.67036 7.33547 1.67036 7.33547C1.67036 7.33547 1.67036 7.33547 1.67036 7.33547C1.67036 7.33547 1.67036 7.33547 1.67036 7.33547C1.67036 7.33547 1.67036 7.33547 1.67036 7.33547C1.67036 7.33547 1.67036 7.33547 1.67036 7.33547C1.67036 7.33547 1.67036 7.33547 1.67036 7.33547C1.67036 7.33547 1.67036 7.33547 1.67036 7.33547C1.67036 7.33547 1.67036 7.33547 1.67036 7.33547C1.67036 7.33547 1.67036 7.33547 1.67036 7.33547C1.67036 7.33547 1.67036 7.33547 1.67036 7.33547C1.67036 7.33547 1.67036 7.33547 1.67036 7.33547C1.67036 7.33547 1.67036 7.33547 1.67036 7.33547C1.67036 7.33547 1.67036 7.33547 1.67036 7.33547C1.67036 7.33547 1.67036 7.33547 1.67036 7.33547C1.67036 7.33547 1.67036 7.33547 1.67036 7.33547C1.67036 7.33547 1.67036 7.33547 1.67036 7.33547C1.67036 7.33547 1.67036 7.33547 1.67036 7.33547C1.67036 7.33547 1.67036 7.33547 1.67036 7.33547C1.67036 7.33547 1.67036 7.33547 1.67036 7.33547C1.67036 7.33547 1.67036 7.33547 1.67036 7.33547C1.67036 7.33547 1.67036 7.33547 1.67036 7.33547C1.67036 7.33547 1.67036 7.33547 1.67036 7.33547C1.67036 7.33547 1.67036 7.33547 1.67036 7.33547C1.67036 7.33547 1.67036 7.33547 1.67036 7.33547C1.67036 7.33547 1.67036 7.33547 1.67036 7.33547C1.67036 7.33547 1.67036 7.33547 1.67036 7.33547C1.67036 7.33547 1.67036 7.33547 1.67036 7.33547C1.67036 7.33547 1.67036 7.33547 1.67036 7.33547C1.67036 7.33547 1.67036 7.33547 1.67036 7.33547C1.67036 7.33547 1.67036 7.33547 1.67036 7.33547C1.67036 7.33547 1.67036 7.33547 1.67036 7.33547C1.67036 7.33547 1.67036 7.33547 1.67036 7.33547C1.67036 7.33547 1.67036 7.33547 1.67036 7.33547C1.67036 7.33547 1.67036 7.33547 1.67036 7.33547C1.67035 7.33547 1.67035 7.33547 1.67035 7.33547C1.67035 7.33547 1.67035 7.33547 1.67035 7.33547C1.67035 7.33547 1.67035 7.33547 1.67035 7.33547C1.67035 7.33547 1.67035 7.33547 1.67035 7.33547C1.67035 7.33547 1.67035 7.33547 1.67035 7.33547C1.67035 7.33547 1.67035 7.33547 1.67035 7.33547C1.67035 7.33547 1.67035 7.33547 1.67035 7.33547C1.67035 7.33547 1.67035 7.33547 1.67035 7.33547C1.67035 7.33547 1.67035 7.33547 1.67035 7.33547C1.67035 7.33547 1.67035 7.33547 1.67035 7.33547C1.67035 7.33547 1.67035 7.33547 1.67035 7.33547C1.67035 7.33547 1.67035 7.33547 1.67035 7.33547C1.67035 7.33547 1.67035 7.33547 1.67035 7.33547C1.67035 7.33547 1.67035 7.33547 1.67035 7.33547C1.67035 7.33547 1.67035 7.33547 1.67035 7.33547C1.67035 7.33547 1.67035 7.33547 1.67035 7.33547C1.67035 7.33547 1.67035 7.33547 1.67035 7.33547C1.67035 7.33547 1.67035 7.33547 1.67035 7.33547C1.67035 7.33547 1.67035 7.33547 1.67035 7.33547C1.67035 7.33547 1.67035 7.33547 1.67035 7.33547C1.67035 7.33547 1.67035 7.33547 1.67035 7.33547C1.67035 7.33547 1.67035 7.33547 1.67035 7.33547C1.67035 7.33547 1.67035 7.33547 1.67035 7.33547C1.67035 7.33547 1.67035 7.33547 1.67035 7.33547C1.67035 7.33547 1.67035 7.33547 1.67035 7.33547C1.67035 7.33547 1.67035 7.33547 1.67035 7.33547C1.67035 7.33547 1.67035 7.33547 1.67035 7.33547C1.67035 7.33547 1.67035 7.33547 1.67035 7.33547C1.67035 7.33547 1.67035 7.33547 1.67035 7.33547C1.67035 7.33547 1.67035 7.33547 1.67035 7.33547C1.67035 7.33547 1.67035 7.33547 1.67035 7.33547C1.67035 7.33547 1.67035 7.33547 1.67035 7.33547C1.67035 7.33547 1.67035 7.33547 1.67035 7.33547C1.67035 7.33547 1.67035 7.33547 1.67035 7.33547C1.67035 7.33547 1.67035 7.33547 1.67035 7.33547C1.67035 7.33547 1.67035 7.33547 1.67035 7.33547C1.67035 7.33547 1.67035 7.33547 1.67035 7.33547C1.67035 7.33547 1.67035 7.33547 1.67035 7.33547C1.67035 7.33547 1.67035 7.33547 1.67035 7.33547C1.67035 7.33547 1.67035 7.33547 1.67035 7.33547C1.67035 7.33547 1.67035 7.33547 1.67035 7.33547C1.67035 7.33547 1.67035 7.33547 1.67035 7.33547C1.67035 7.33547 1.67035 7.33547 1.67035 7.33547C1.67035 7.33547 1.67035 7.33547 1.67035 7.33547C1.67035 7.33547 1.67035 7.33547 1.67035 7.33547C1.67035 7.33547 1.67035 7.33547 1.67035 7.33547C1.67035 7.33547 1.67035 7.33547 1.67035 7.33547C1.67035 7.33547 1.67035 7.33547 1.67035 7.33547C1.67035 7.33547 1.67035 7.33547 1.67035 7.33547C1.67035 7.33547 1.67035 7.33547 1.67035 7.33547C1.67035 7.33547 1.67035 7.33547 1.67035 7.33547C1.67035 7.33547 1.67035 7.33547 1.67035 7.33547C1.67035 7.33547 1.67035 7.33547 1.67035 7.33547C1.67035 7.33547 1.67035 7.33547 1.67035 7.33547C1.67035 7.33547 1.67035 7.33547 1.67035 7.33547C1.67035 7.33547 1.67035 7.33547 1.67035 7.33547C1.67035 7.33547 1.67035 7.33547 1.67035 7.33547C1.67035 7.33547 1.67035 7.33547 1.67035 7.33547C1.67035 7.33547 1.67035 7.33547 1.67035 7.33547C1.67034 7.33547 1.67034 7.33547 1.67034 7.33547C1.67034 7.33547 1.67034 7.33547 1.67034 7.33547C1.67034 7.33547 1.67034 7.33547 1.67034 7.33547C1.67034 7.33547 1.67034 7.33547 1.67034 7.33547C1.67034 7.33547 1.67034 7.33547 1.67034 7.33547C1.67034 7.33547 1.67034 7.33547 1.67034 7.33547C1.67034 7.33547 1.67034 7.33547 1.67034 7.33547C1.67034 7.33547 1.67034 7.33547 1.67034 7.33547C1.67034 7.33547 1.67034 7.33547 1.67034 7.33547C1.67034 7.33547 1.67034 7.33547 1.67034 7.33547C1.67034 7.33547 1.67034 7.33547 1.67034 7.33547C1.67034 7.33547 1.67034 7.33547 1.67034 7.33547C1.67034 7.33547 1.67034 7.33547 1.67034 7.33547C1.67034 7.33547 1.67034 7.33547 1.67034 7.33547C1.67034 7.33547 1.67034 7.33547 1.67034 7.33547C1.67034 7.33547 1.67034 7.33547 1.67034 7.33547C1.67034 7.33547 1.67034 7.33547 1.67034 7.33547C1.67034 7.33547 1.67034 7.33547 1.67034 7.33547C1.67034 7.33547 1.67034 7.33547 1.67034 7.33547C1.67034 7.33547 1.67034 7.33547 1.67034 7.33547C1.67034 7.33547 1.67034 7.33547 1.67034 7.33547C1.67034 7.33547 1.67034 7.33547 1.67034 7.33547C1.67034 7.33547 1.67034 7.33547 1.67034 7.33547C1.67034 7.33547 1.67034 7.33547 1.67034 7.33547C1.67034 7.33547 1.67034 7.33547 1.67034 7.33547C1.67034 7.33547 1.67034 7.33547 1.67034 7.33547C1.67034 7.33547 1.67034 7.33547 1.67034 7.33547C1.67034 7.33547 1.67034 7.33547 1.67034 7.33547C1.67034 7.33547 1.67034 7.33547 1.67034 7.33547C1.67034 7.33547 1.67034 7.33547 1.67034 7.33547C1.67034 7.33547 1.67034 7.33547 1.67034 7.33547C1.67034 7.33547 1.67034 7.33547 1.67034 7.33547C1.67034 7.33547 1.67034 7.33547 1.67034 7.33547C1.67034 7.33547 1.67034 7.33547 1.67034 7.33547C1.67034 7.33547 1.67034 7.33547 1.67034 7.33547C1.67034 7.33547 1.67034 7.33547 1.67034 7.33547C1.67034 7.33547 1.67034 7.33547 1.67034 7.33547C1.67034 7.33547 1.67034 7.33547 1.67034 7.33547C1.67034 7.33547 1.67034 7.33547 1.67034 7.33547C1.67034 7.33547 1.67034 7.33547 1.67034 7.33547C1.67034 7.33547 1.67034 7.33547 1.67034 7.33547C1.67034 7.33547 1.67034 7.33547 1.67034 7.33547C1.67034 7.33547 1.67034 7.33547 1.67034 7.33547C1.67034 7.33547 1.67034 7.33547 1.67034 7.33547C1.67034 7.33547 1.67034 7.33547 1.67034 7.33547C1.67034 7.33547 1.67034 7.33547 1.67034 7.33547C1.67034 7.33547 1.67034 7.33547 1.67034 7.33547C1.67034 7.33547 1.67034 7.33547 1.67034 7.33547C1.67034 7.33547 1.67034 7.33547 1.67034 7.33547C1.67034 7.33547 1.67034 7.33547 1.67034 7.33547C1.67034 7.33547 1.67034 7.33547 1.67034 7.33547C1.67034 7.33547 1.67034 7.33547 1.67034 7.33547C1.67034 7.33547 1.67034 7.33547 1.67034 7.33547C1.67034 7.33547 1.67034 7.33547 1.67034 7.33547C1.67034 7.33547 1.67034 7.33547 1.67034 7.33547C1.67034 7.33547 1.67034 7.33547 1.67034 7.33547C1.67034 7.33547 1.67034 7.33547 1.67034 7.33547C1.67034 7.33547 1.67034 7.33547 1.67034 7.33547C1.67034 7.33547 1.67034 7.33547 1.67034 7.33547C1.67034 7.33547 1.67033 7.33547 1.67033 7.33547C1.67033 7.33547 1.67033 7.33547 1.67033 7.33547C1.67033 7.33547 1.67033 7.33547 1.67033 7.33547C1.67033 7.33547 1.67033 7.33547 1.67033 7.33547C1.67033 7.33547 1.67033 7.33547 1.67033 7.33547C1.67033 7.33547 1.67033 7.33547 1.67033 7.33547C1.67033 7.33547 1.67033 7.33547 1.67033 7.33547C1.67033 7.33547 1.67033 7.33547 1.67033 7.33547C1.67033 7.33547 1.67033 7.33547 1.67033 7.33547C1.67033 7.33547 1.67033 7.33547 1.67033 7.33547C1.67033 7.33547 1.67033 7.33547 1.67033 7.33547C1.67033 7.33547 1.67033 7.33547 1.67033 7.33547C1.67033 7.33547 1.67033 7.33547 1.67033 7.33547C1.67033 7.33547 1.67033 7.33547 1.67033 7.33547C1.67033 7.33547 1.67033 7.33547 1.67033 7.33547C1.67033 7.33547 1.67033 7.33547 1.67033 7.33547C1.67033 7.33547 1.67033 7.33547 1.67033 7.33547C1.67033 7.33547 1.67033 7.33547 1.67033 7.33547C1.67033 7.33547 1.67033 7.33547 1.67033 7.33547C1.67033 7.33547 1.67033 7.33547 1.67033 7.33547C1.67033 7.33547 1.67033 7.33547 1.67033 7.33547C1.67033 7.33547 1.67033 7.33547 1.67033 7.33547C1.67033 7.33547 1.67033 7.33547 1.67033 7.33547C1.67033 7.33547 1.67033 7.33547 1.67033 7.33547C1.67033 7.33547 1.67033 7.33547 1.67033 7.33547C1.67033 7.33547 1.67033 7.33547 1.67033 7.33547C1.67033 7.33547 1.67033 7.33547 1.67033 7.33547C1.67033 7.33547 1.67033 7.33547 1.67033 7.33547C1.67033 7.33547 1.67033 7.33547 1.67033 7.33547C1.67033 7.33547 1.67033 7.33547 1.67033 7.33547C1.67033 7.33547 1.67033 7.33547 1.67033 7.33547C1.67033 7.33547 1.67033 7.33547 1.67033 7.33547C1.67033 7.33547 1.67033 7.33547 1.67033 7.33547C1.67033 7.33547 1.67033 7.33547 1.67033 7.33547C1.67033 7.33547 1.67033 7.33547 1.67033 7.33547C1.67033 7.33547 1.67033 7.33547 1.67033 7.33547C1.67033 7.33547 1.67033 7.33547 1.67033 7.33547C1.67033 7.33547 1.67033 7.33547 1.67033 7.33547C1.67033 7.33547 1.67033 7.33547 1.67033 7.33547C1.67033 7.33547 1.67033 7.33547 1.67033 7.33547C1.67033 7.33547 1.67033 7.33547 1.67033 7.33547C1.67033 7.33547 1.67033 7.33547 1.67033 7.33547C1.67033 7.33547 1.67033 7.33547 1.67033 7.33547C1.67033 7.33547 1.67033 7.33547 1.67033 7.33547C1.67033 7.33547 1.67033 7.33547 1.67033 7.33547C1.67033 7.33547 1.67033 7.33547 1.67033 7.33547C1.67033 7.33547 1.67033 7.33547 1.67033 7.33547C1.67033 7.33547 1.67033 7.33547 1.67033 7.33547C1.67033 7.33547 1.67033 7.33547 1.67033 7.33547C1.67033 7.33547 1.67033 7.33547 1.67033 7.33547C1.67033 7.33547 1.67033 7.33547 1.67033 7.33547C1.67033 7.33547 1.67033 7.33547 1.67033 7.33547C1.67033 7.33547 1.67033 7.33547 1.67033 7.33547C1.67033 7.33547 1.67033 7.33547 1.67033 7.33547C1.67033 7.33547 1.67033 7.33547 1.67033 7.33547C1.67033 7.33547 1.67033 7.33547 1.67033 7.33547C1.67033 7.33547 1.67033 7.33547 1.67033 7.33547C1.67033 7.33547 1.67033 7.33547 1.67033 7.33547C1.67033 7.33547 1.67033 7.33547 1.67033 7.33547C1.67033 7.33547 1.67032 7.33547 1.67032 7.33547C1.67032 7.33547 1.67032 7.33547 1.67032 7.33547C1.67032 7.33547 1.67032 7.33547 1.67032 7.33547C1.67032 7.33547 1.67032 7.33547 1.67032 7.33547C1.67032 7.33547 1.67032 7.33547 1.67032 7.33547C1.67032 7.33547 1.67032 7.33547 1.67032 7.33547C1.67032 7.33547 1.67032 7.33547 1.67032 7.33547C1.67032 7.33547 1.67032 7.33547 1.67032 7.33547C1.67032 7.33547 1.67032 7.33547 1.67032 7.33547C1.67032 7.33547 1.67032 7.33547 1.67032 7.33547C1.67032 7.33547 1.67032 7.33547 1.67032 7.33547C1.67032 7.33547 1.67032 7.33547 1.67032 7.33547C1.67032 7.33547 1.67032 7.33547 1.67032 7.33547C1.67032 7.33547 1.67032 7.33547 1.67032 7.33547C1.67032 7.33547 1.67032 7.33547 1.67032 7.33547C1.67032 7.33547 1.67032 7.33547 1.67032 7.33547C1.67032 7.33547 1.67032 7.33547 1.67032 7.33547C1.67032 7.33547 1.67032 7.33547 1.67032 7.33547C1.67032 7.33547 1.67032 7.33547 1.67032 7.33547C1.67032 7.33547 1.67032 7.33547 1.67032 7.33547C1.67032 7.33547 1.67032 7.33547 1.67032 7.33547C1.67032 7.33547 1.67032 7.33547 1.67032 7.33547C1.67032 7.33547 1.67032 7.33547 1.67032 7.33547C1.67032 7.33547 1.67032 7.33547 1.67032 7.33547C1.67032 7.33547 1.67032 7.33547 1.67032 7.33547C1.67032 7.33547 1.67032 7.33547 1.67032 7.33547C1.67032 7.33547 1.67032 7.33547 1.67032 7.33547C1.67032 7.33547 1.67032 7.33547 1.67032 7.33547C1.67032 7.33547 1.67032 7.33547 1.67032 7.33547C1.67032 7.33547 1.67032 7.33547 1.67032 7.33547C1.67032 7.33547 1.67032 7.33547 1.67032 7.33547C1.67032 7.33547 1.67032 7.33547 1.67032 7.33547C1.67032 7.33547 1.67032 7.33547 1.67032 7.33547C1.67032 7.33547 1.67032 7.33547 1.67032 7.33547C1.67032 7.33547 1.67032 7.33547 1.67032 7.33547C1.67032 7.33547 1.67032 7.33547 1.67032 7.33547C1.67032 7.33547 1.67032 7.33547 1.67032 7.33547C1.67032 7.33547 1.67032 7.33547 1.67032 7.33547C1.67032 7.33547 1.67032 7.33547 1.67032 7.33547C1.67032 7.33547 1.67032 7.33547 1.67032 7.33547C1.67032 7.33547 1.67032 7.33547 1.67032 7.33547C1.67032 7.33547 1.67032 7.33547 1.67032 7.33547C1.67032 7.33547 1.67032 7.33547 1.67032 7.33547C1.67032 7.33547 1.67032 7.33547 1.67032 7.33547C1.67032 7.33547 1.67032 7.33547 1.67032 7.33547C1.67032 7.33547 1.67032 7.33547 1.67032 7.33547C1.67032 7.33547 1.67032 7.33547 1.67032 7.33547C1.67032 7.33547 1.67032 7.33547 1.67032 7.33547C1.67032 7.33547 1.67032 7.33547 1.67032 7.33547C1.67032 7.33547 1.67032 7.33547 1.67032 7.33547C1.67032 7.33547 1.67032 7.33547 1.67032 7.33547C1.67032 7.33547 1.67032 7.33547 1.67032 7.33547C1.67032 7.33547 1.67032 7.33547 1.67032 7.33547C1.67032 7.33547 1.67032 7.33547 1.67032 7.33547C1.67032 7.33547 1.67032 7.33547 1.67032 7.33547C1.67032 7.33547 1.67032 7.33547 1.67032 7.33547C1.67032 7.33547 1.67032 7.33547 1.67032 7.33547C1.67032 7.33547 1.67032 7.33547 1.67032 7.33547C1.67032 7.33547 1.67032 7.33547 1.67032 7.33547C1.67032 7.33547 1.67032 7.33547 1.67031 7.33547C1.67031 7.33547 1.67031 7.33547 1.67031 7.33547C1.67031 7.33547 1.67031 7.33547 1.67031 7.33547C1.67031 7.33547 1.67031 7.33547 1.67031 7.33547C1.67031 7.33547 1.67031 7.33547 1.67031 7.33547C1.67031 7.33547 1.67031 7.33547 1.67031 7.33547C1.67031 7.33547 1.67031 7.33547 1.67031 7.33547C1.67031 7.33547 1.67031 7.33547 1.67031 7.33547C1.67031 7.33547 1.67031 7.33547 1.67031 7.33547C1.67031 7.33547 1.67031 7.33547 1.67031 7.33547C1.67031 7.33547 1.67031 7.33547 1.67031 7.33547C1.67031 7.33547 1.67031 7.33547 1.67031 7.33547C1.67031 7.33547 1.67031 7.33547 1.67031 7.33547C1.67031 7.33547 1.67031 7.33547 1.67031 7.33547C1.67031 7.33547 1.67031 7.33547 1.67031 7.33547C1.67031 7.33547 1.67031 7.33547 1.67031 7.33547C1.67031 7.33547 1.67031 7.33547 1.67031 7.33547C1.67031 7.33547 1.67031 7.33547 1.67031 7.33547C1.67031 7.33547 1.67031 7.33547 1.67031 7.33547C1.67031 7.33547 1.67031 7.33547 1.67031 7.33547C1.67031 7.33547 1.67031 7.33547 1.67031 7.33547C1.67031 7.33547 1.67031 7.33547 1.67031 7.33547C1.67031 7.33547 1.67031 7.33547 1.67031 7.33547C1.67031 7.33547 1.67031 7.33547 1.67031 7.33547C1.67031 7.33547 1.67031 7.33547 1.67031 7.33547C1.67031 7.33547 1.67031 7.33547 1.67031 7.33547C1.67031 7.33547 1.67031 7.33547 1.67031 7.33547C1.67031 7.33547 1.67031 7.33547 1.67031 7.33547C1.67031 7.33547 1.67031 7.33547 1.67031 7.33547C1.67031 7.33547 1.67031 7.33547 1.67031 7.33547C1.67031 7.33547 1.67031 7.33547 1.67031 7.33547C1.67031 7.33547 1.67031 7.33547 1.67031 7.33547C1.67031 7.33547 1.67031 7.33547 1.67031 7.33547C1.67031 7.33547 1.67031 7.33547 1.67031 7.33547C1.67031 7.33547 1.67031 7.33547 1.67031 7.33547C1.67031 7.33547 1.67031 7.33547 1.67031 7.33547C1.67031 7.33547 1.67031 7.33547 1.67031 7.33547C1.67031 7.33547 1.67031 7.33547 1.67031 7.33547C1.67031 7.33547 1.67031 7.33547 1.67031 7.33547C1.67031 7.33547 1.67031 7.33547 1.67031 7.33547C1.67031 7.33547 1.67031 7.33547 1.67031 7.33547C1.67031 7.33547 1.67031 7.33547 1.67031 7.33547C1.67031 7.33547 1.67031 7.33547 1.67031 7.33547C1.67031 7.33547 1.67031 7.33547 1.67031 7.33547C1.67031 7.33547 1.67031 7.33547 1.67031 7.33547C1.67031 7.33547 1.67031 7.33547 1.67031 7.33547C1.67031 7.33547 1.67031 7.33547 1.67031 7.33547C1.67031 7.33547 1.67031 7.33547 1.67031 7.33547C1.67031 7.33547 1.67031 7.33547 1.67031 7.33547C1.67031 7.33547 1.67031 7.33547 1.67031 7.33547C1.67031 7.33547 1.67031 7.33547 1.67031 7.33547C1.67031 7.33547 1.67031 7.33547 1.67031 7.33547C1.67031 7.33547 1.67031 7.33547 1.67031 7.33547C1.67031 7.33547 1.67031 7.33547 1.67031 7.33547C1.67031 7.33547 1.67031 7.33547 1.67031 7.33547C1.67031 7.33547 1.67031 7.33547 1.67031 7.33547C1.67031 7.33547 1.67031 7.33547 1.67031 7.33547C1.67031 7.33547 1.67031 7.33547 1.67031 7.33547C1.67031 7.33547 1.67031 7.33547 1.67031 7.33547C1.67031 7.33547 1.67031 7.33547 1.6703 7.33547C1.6703 7.33547 1.6703 7.33547 1.6703 7.33547C1.6703 7.33547 1.6703 7.33547 1.6703 7.33547C1.6703 7.33547 1.6703 7.33547 1.6703 7.33547C1.6703 7.33547 1.6703 7.33547 1.6703 7.33547C1.6703 7.33547 1.6703 7.33547 1.6703 7.33547C1.6703 7.33547 1.6703 7.33547 1.6703 7.33547C1.6703 7.33547 1.6703 7.33547 1.6703 7.33547C1.6703 7.33547 1.6703 7.33547 1.6703 7.33547C1.6703 7.33547 1.6703 7.33547 1.6703 7.33547C1.6703 7.33547 1.6703 7.33547 1.6703 7.33547C1.6703 7.33547 1.6703 7.33547 1.6703 7.33547C1.6703 7.33547 1.6703 7.33547 1.6703 7.33547C1.6703 7.33547 1.6703 7.33547 1.6703 7.33547C1.6703 7.33547 1.6703 7.33547 1.6703 7.33547C1.6703 7.33547 1.6703 7.33547 1.6703 7.33547C1.6703 7.33547 1.6703 7.33547 1.6703 7.33547C1.6703 7.33547 1.6703 7.33547 1.6703 7.33547C1.6703 7.33547 1.6703 7.33547 1.6703 7.33547C1.6703 7.33547 1.6703 7.33547 1.6703 7.33547C1.6703 7.33547 1.6703 7.33547 1.6703 7.33547C1.6703 7.33547 1.6703 7.33547 1.6703 7.33547C1.6703 7.33547 1.6703 7.33547 1.6703 7.33547C1.6703 7.33547 1.6703 7.33547 1.6703 7.33547C1.6703 7.33547 1.6703 7.33547 1.6703 7.33547C1.6703 7.33547 1.6703 7.33547 1.6703 7.33547C1.6703 7.33547 1.6703 7.33547 1.6703 7.33547C1.6703 7.33547 1.6703 7.33547 1.6703 7.33547C1.6703 7.33547 1.6703 7.33547 1.6703 7.33547C1.6703 7.33547 1.6703 7.33547 1.6703 7.33547C1.6703 7.33547 1.6703 7.33547 1.6703 7.33547C1.6703 7.33547 1.6703 7.33547 1.6703 7.33547C1.6703 7.33547 1.6703 7.33547 1.6703 7.33547C1.6703 7.33547 1.6703 7.33547 1.6703 7.33547C1.6703 7.33547 1.6703 7.33547 1.6703 7.33547C1.6703 7.33547 1.6703 7.33547 1.6703 7.33547C1.6703 7.33547 1.6703 7.33547 1.6703 7.33547C1.6703 7.33547 1.6703 7.33547 1.6703 7.33547C1.6703 7.33547 1.6703 7.33547 1.6703 7.33547C1.6703 7.33547 1.6703 7.33547 1.6703 7.33547C1.6703 7.33547 1.6703 7.33547 1.6703 7.33547C1.6703 7.33547 1.6703 7.33547 1.6703 7.33547C1.6703 7.33547 1.6703 7.33547 1.6703 7.33547C1.6703 7.33547 1.6703 7.33547 1.6703 7.33547C1.6703 7.33547 1.6703 7.33547 1.6703 7.33547C1.6703 7.33547 1.6703 7.33547 1.6703 7.33547C1.6703 7.33547 1.6703 7.33547 1.6703 7.33547C1.6703 7.33547 1.6703 7.33547 1.6703 7.33547C1.6703 7.33547 1.6703 7.33547 1.6703 7.33547C1.6703 7.33547 1.6703 7.33547 1.6703 7.33547C1.6703 7.33547 1.6703 7.33547 1.6703 7.33547C1.6703 7.33547 1.6703 7.33547 1.6703 7.33547C1.6703 7.33547 1.6703 7.33547 1.6703 7.33547C1.6703 7.33547 1.6703 7.33547 1.6703 7.33547C1.6703 7.33547 1.6703 7.33547 1.6703 7.33547C1.6703 7.33547 1.6703 7.33547 1.6703 7.33547C1.6703 7.33547 1.6703 7.33547 1.6703 7.33547C1.6703 7.33547 1.6703 7.33547 1.6703 7.33547C1.6703 7.33547 1.6703 7.33547 1.6703 7.33547C1.6703 7.33547 1.6703 7.33547 1.6703 7.33547C1.67029 7.33547 1.67029 7.33547 1.67029 7.33547C1.67029 7.33547 1.67029 7.33547 1.67029 7.33547C1.67029 7.33547 1.67029 7.33547 1.67029 7.33547C1.67029 7.33547 1.67029 7.33547 1.67029 7.33547C1.67029 7.33547 1.67029 7.33547 1.67029 7.33547C1.67029 7.33547 1.67029 7.33547 1.67029 7.33547C1.67029 7.33547 1.67029 7.33547 1.67029 7.33547C1.67029 7.33547 1.67029 7.33547 1.67029 7.33547C1.67029 7.33547 1.67029 7.33547 1.67029 7.33547C1.67029 7.33547 1.67029 7.33547 1.67029 7.33547C1.67029 7.33547 1.67029 7.33547 1.67029 7.33547C1.67029 7.33547 1.67029 7.33547 1.67029 7.33547C1.67029 7.33547 1.67029 7.33547 1.67029 7.33547C1.67029 7.33547 1.67029 7.33547 1.67029 7.33547C1.67029 7.33547 1.67029 7.33547 1.67029 7.33547C1.67029 7.33547 1.67029 7.33547 1.67029 7.33547C1.67029 7.33547 1.67029 7.33547 1.67029 7.33547C1.67029 7.33547 1.67029 7.33547 1.67029 7.33547C1.67029 7.33547 1.67029 7.33547 1.67029 7.33547C1.67029 7.33547 1.67029 7.33547 1.67029 7.33547C1.67029 7.33547 1.67029 7.33547 1.67029 7.33547C1.67029 7.33547 1.67029 7.33547 1.67029 7.33547C1.67029 7.33547 1.67029 7.33547 1.67029 7.33547C1.67029 7.33547 1.67029 7.33547 1.67029 7.33547C1.67029 7.33547 1.67029 7.33547 1.67029 7.33547C1.67029 7.33547 1.67029 7.33547 1.67029 7.33547C1.67029 7.33547 1.67029 7.33547 1.67029 7.33547C1.67029 7.33547 1.67029 7.33547 1.67029 7.33547C1.67029 7.33547 1.67029 7.33547 1.67029 7.33547C1.67029 7.33547 1.67029 7.33547 1.67029 7.33547C1.67029 7.33547 1.67029 7.33547 1.67029 7.33547C1.67029 7.33547 1.67029 7.33547 1.67029 7.33547C1.67029 7.33547 1.67029 7.33547 1.67029 7.33547C1.67029 7.33547 1.67029 7.33547 1.67029 7.33547C1.67029 7.33547 1.67029 7.33547 1.67029 7.33547C1.67029 7.33547 1.67029 7.33547 1.67029 7.33547C1.67029 7.33547 1.67029 7.33547 1.67029 7.33547C1.67029 7.33547 1.67029 7.33547 1.67029 7.33547C1.67029 7.33547 1.67029 7.33547 1.67029 7.33547C1.67029 7.33547 1.67029 7.33547 1.67029 7.33547C1.67029 7.33547 1.67029 7.33547 1.67029 7.33547V8.63547ZM1.02029 5.16797V7.98547H2.32029V5.16797H1.02029Z" fill="#2E47BA"/>
<path d="M7.58655 16.0403L7.58655 15.3309L7.58655 14.4736" stroke="#2E47BA" stroke-width="1.3" stroke-linecap="round"/>
<path d="M7.58655 12.1702L7.58655 11.4608L7.58655 10.6035" stroke="#2E47BA" stroke-width="1.3" stroke-linecap="round"/>
<path d="M7.58655 8.30101L7.58655 7.59165L7.58655 6.73437" stroke="#2E47BA" stroke-width="1.3" stroke-linecap="round"/>
</svg>
