<svg width="20" height="20" viewBox="0 0 20 20" fill="none" xmlns="http://www.w3.org/2000/svg">
<path d="M7.94734 7.72184C9.62096 7.72184 10.9777 6.3651 10.9777 4.69148C10.9777 3.01787 9.62096 1.66113 7.94734 1.66113C6.27373 1.66113 4.91699 3.01787 4.91699 4.69148C4.91699 6.3651 6.27373 7.72184 7.94734 7.72184Z" stroke="#203551" stroke-width="1.3" stroke-linecap="round" stroke-linejoin="round"/>
<path d="M2.31699 14.9781C2.31699 14.6191 2.02598 14.3281 1.66699 14.3281C1.30801 14.3281 1.01699 14.6191 1.01699 14.9781H2.31699ZM9.42831 10.805C9.78729 10.805 10.0783 10.514 10.0783 10.155C10.0783 9.79598 9.78729 9.50497 9.42831 9.50497V10.805ZM9.42831 17.6557C9.78729 17.6557 10.0783 17.3647 10.0783 17.0057C10.0783 16.6467 9.78729 16.3557 9.42831 16.3557V17.6557ZM2.21679 11.6735C1.99543 11.9561 2.04507 12.3647 2.32768 12.586C2.61029 12.8074 3.01884 12.7577 3.24021 12.4751L2.21679 11.6735ZM2.31699 15.0057V14.9781H1.01699V15.0057H2.31699ZM6.66699 10.805H9.42831V9.50497H6.66699V10.805ZM9.42831 16.3557H3.66699V17.6557H9.42831V16.3557ZM3.24021 12.4751C4.03755 11.4572 5.27593 10.805 6.66699 10.805V9.50497C4.85943 9.50497 3.24994 10.3545 2.21679 11.6735L3.24021 12.4751ZM1.01699 15.0057C1.01699 16.4693 2.20344 17.6557 3.66699 17.6557V16.3557C2.92141 16.3557 2.31699 15.7513 2.31699 15.0057H1.01699Z" fill="#203551"/>
<path d="M17.0084 9.5112H10.829C10.0977 9.5112 9.50488 10.104 9.50488 10.8354V17.0147C9.50488 17.746 10.0977 18.3389 10.829 18.3389H17.0084C17.7397 18.3389 18.3326 17.746 18.3326 17.0147V10.8354C18.3326 10.104 17.7397 9.5112 17.0084 9.5112Z" stroke="#203551" stroke-width="1.3" stroke-linecap="round" stroke-linejoin="round"/>
<path d="M14 9.5V12.5" stroke="#203551" stroke-width="1.3" stroke-linecap="round" stroke-linejoin="round"/>
</svg>
