<svg width="20" height="20" viewBox="0 0 20 20" fill="none" xmlns="http://www.w3.org/2000/svg">
<path d="M2.89014 6.40576V5.75576C2.53115 5.75576 2.24014 6.04678 2.24014 6.40576H2.89014ZM17.76 9.5169C17.76 9.15792 17.469 8.8669 17.11 8.8669C16.751 8.8669 16.46 9.15792 16.46 9.5169H17.76ZM2.89014 7.05576H17.11V5.75576H2.89014V7.05576ZM16.11 17.228H3.89014V18.528H16.11V17.228ZM3.54014 16.878V6.40576H2.24014V16.878H3.54014ZM16.46 9.5169V16.878H17.76V9.5169H16.46ZM3.89014 17.228C3.69684 17.228 3.54014 17.0713 3.54014 16.878H2.24014C2.24014 17.7893 2.97887 18.528 3.89014 18.528V17.228ZM16.11 18.528C17.0213 18.528 17.76 17.7893 17.76 16.878H16.46C16.46 17.0713 16.3033 17.228 16.11 17.228V18.528Z" fill="#203551"/>
<path d="M2.89014 6.40576H17.11L14.8688 2.61874C14.6888 2.31459 14.3616 2.12804 14.0082 2.12804H5.99192C5.6385 2.12804 5.31133 2.31459 5.13133 2.61874L2.89014 6.40576Z" stroke="#203551" stroke-width="1.3" stroke-linejoin="round"/>
<path d="M9.99976 2.125L9.99976 6.4027" stroke="#203551" stroke-width="1.3" stroke-linecap="round" stroke-linejoin="round"/>
<path d="M7.48436 11.9296L9.30391 13.7491L12.5218 10.5312" stroke="#203551" stroke-width="1.3" stroke-linecap="round" stroke-linejoin="round"/>
</svg>
