<svg width="21" height="20" viewBox="0 0 21 20" fill="none" xmlns="http://www.w3.org/2000/svg">
<path d="M16.7344 5V3C16.7344 2.44772 16.2867 2 15.7344 2H5.73438C5.18209 2 4.73438 2.44772 4.73438 3V17C4.73438 17.5523 5.18209 18 5.73437 18H13.3058H15.7344C16.2867 18 16.7344 17.5523 16.7344 17V14V7" stroke="#93A6FF" stroke-width="1.3" stroke-miterlimit="10" stroke-linecap="round" stroke-linejoin="round"/>
<circle cx="10.8795" cy="6.28571" r="1.28571" stroke="#93A6FF" stroke-width="1.3"/>
<path d="M11.7344 9.28906H10.0201C9.31001 9.28906 8.73438 9.8647 8.73438 10.5748C8.73438 10.8115 8.92625 11.0033 9.16295 11.0033H12.5915C12.8282 11.0033 13.0201 10.8115 13.0201 10.5748C13.0201 9.8647 12.4445 9.28906 11.7344 9.28906Z" stroke="#93A6FF" stroke-width="1.3" stroke-linecap="round"/>
<path d="M7.73438 14H13.7344" stroke="#93A6FF" stroke-width="1.3" stroke-miterlimit="10" stroke-linecap="round" stroke-linejoin="round"/>
</svg>
