<svg width="21" height="20" viewBox="0 0 21 20" fill="none" xmlns="http://www.w3.org/2000/svg">
<path d="M16.7402 5V3C16.7402 2.44772 16.2925 2 15.7402 2H5.74023C5.18795 2 4.74023 2.44772 4.74023 3V17C4.74023 17.5523 5.18795 18 5.74023 18H13.3117H15.7402C16.2925 18 16.7402 17.5523 16.7402 17V14V7" stroke="#2E47BA" stroke-width="1.3" stroke-miterlimit="10" stroke-linecap="round" stroke-linejoin="round"/>
<circle cx="10.8834" cy="6.28571" r="1.28571" stroke="#2E47BA" stroke-width="1.3"/>
<path d="M11.7402 9.28571H10.0259C9.31587 9.28571 8.74023 9.86134 8.74023 10.5714C8.74023 10.8081 8.93211 11 9.16881 11H12.5974C12.8341 11 13.0259 10.8081 13.0259 10.5714C13.0259 9.86134 12.4503 9.28571 11.7402 9.28571Z" stroke="#2E47BA" stroke-width="1.3" stroke-linecap="round"/>
<path d="M7.74023 14H13.7402" stroke="#2E47BA" stroke-width="1.3" stroke-miterlimit="10" stroke-linecap="round" stroke-linejoin="round"/>
</svg>
