<svg width="21" height="20" viewBox="0 0 21 20" fill="none" xmlns="http://www.w3.org/2000/svg">
<path d="M16.2471 5V3C16.2471 2.44772 15.7994 2 15.2471 2H5.24707C4.69479 2 4.24707 2.44772 4.24707 3V17C4.24707 17.5523 4.69478 18 5.24707 18H12.8185H15.2471C15.7994 18 16.2471 17.5523 16.2471 17V14V7" stroke="#6C7E95" stroke-width="1.3" stroke-miterlimit="10" stroke-linecap="round" stroke-linejoin="round"/>
<circle cx="10.3897" cy="6.28571" r="1.28571" stroke="#6C7E95" stroke-width="1.3"/>
<path d="M11.2471 9.28571H9.53278C8.8227 9.28571 8.24707 9.86134 8.24707 10.5714C8.24707 10.8081 8.43895 11 8.67564 11H12.1042C12.3409 11 12.5328 10.8081 12.5328 10.5714C12.5328 9.86134 11.9572 9.28571 11.2471 9.28571Z" stroke="#6C7E95" stroke-width="1.3" stroke-linecap="round"/>
<path d="M7.24707 14H13.2471" stroke="#6C7E95" stroke-width="1.3" stroke-miterlimit="10" stroke-linecap="round" stroke-linejoin="round"/>
</svg>
