<svg width="20" height="20" viewBox="0 0 20 20" fill="none" xmlns="http://www.w3.org/2000/svg">
<path d="M7 13.8672V11.8672" stroke="#2E47BA" stroke-width="1.3" stroke-linecap="round" stroke-linejoin="round"/>
<path d="M10 13.8672V10.8672" stroke="#2E47BA" stroke-width="1.3" stroke-linecap="round" stroke-linejoin="round"/>
<path d="M13 13.8672V7.86719" stroke="#2E47BA" stroke-width="1.3" stroke-linecap="round" stroke-linejoin="round"/>
<path d="M7.46544 8.86719H7.87664L7.87883 8.42773C8.80402 8.36719 9.33333 7.89453 9.33333 7.26172C9.33333 6.54102 8.61374 6.26172 8.04506 6.13672L7.88539 6.09961L7.88976 4.8457C8.29878 4.89453 8.57874 5.09766 8.6203 5.41797H9.27209C9.25459 4.82227 8.70341 4.37695 7.89195 4.31836L7.89414 3.86719H7.48294L7.48075 4.32227C6.69554 4.39258 6.1203 4.83008 6.1203 5.46094C6.1203 6.01758 6.56649 6.34375 7.28609 6.51758L7.47419 6.5625L7.46982 7.89258C7.04331 7.8457 6.71304 7.63867 6.67804 7.26172H6C6.04156 7.93555 6.58618 8.36914 7.46763 8.42773L7.46544 8.86719ZM7.88102 7.89258L7.88539 6.66406C8.3294 6.77344 8.66404 6.91797 8.66404 7.25586C8.66404 7.59766 8.34471 7.83789 7.88102 7.89258ZM7.47638 6.00195C7.15048 5.91602 6.79178 5.76172 6.79396 5.42578C6.79396 5.13281 7.05424 4.9043 7.47857 4.84766L7.47638 6.00195Z" fill="#2E47BA"/>
<path d="M3 2.86719V16.8672H17" stroke="#2E47BA" stroke-width="1.3" stroke-linecap="round" stroke-linejoin="round"/>
</svg>
