<svg width="21" height="20" viewBox="0 0 21 20" fill="none" xmlns="http://www.w3.org/2000/svg">
<path d="M17.2582 10.4704C17.2582 14.3524 14.1112 17.4994 10.2292 17.4994C6.34718 17.4994 3.2002 14.3524 3.2002 10.4704C3.2002 6.58839 6.34718 3.44141 10.2292 3.44141" stroke="#93A6FF" stroke-width="1.3" stroke-linecap="round" stroke-linejoin="round"/>
<path d="M17.1853 6.83713L17.2504 3.25755M17.2504 3.25755L13.6708 3.32263M17.2504 3.25755L14.9074 5.60055L13.7359 6.77205" stroke="#93A6FF" stroke-width="1.3" stroke-linecap="round" stroke-linejoin="round"/>
<path d="M9.94835 14.2521H10.5271L10.5302 13.5594C11.8324 13.464 12.5774 12.719 12.5774 11.7215C12.5774 10.5856 11.5646 10.1454 10.7642 9.94833L10.5394 9.88983L10.5456 7.91343C11.1213 7.99039 11.5153 8.31056 11.5738 8.81543H12.4912C12.4666 7.87649 11.6908 7.17459 10.5487 7.08223L10.5517 6.37109H9.97297L9.9699 7.08839C8.86471 7.19921 8.05506 7.8888 8.05506 8.88316C8.05506 9.76054 8.68308 10.2746 9.69591 10.5486L9.96066 10.6194L9.9545 12.7159C9.35419 12.642 8.88934 12.3157 8.84008 11.7215H7.88574C7.94423 12.7836 8.71078 13.4671 9.95142 13.5594L9.94835 14.2521ZM10.5333 12.7159L10.5394 10.7795C11.1644 10.9519 11.6354 11.1797 11.6354 11.7123C11.6354 12.2511 11.1859 12.6297 10.5333 12.7159ZM9.96374 9.73591C9.50504 9.60045 9.00016 9.35725 9.00324 8.82775C9.00324 8.36597 9.36959 8.00578 9.96682 7.91651L9.96374 9.73591Z" fill="#93A6FF"/>
</svg>
