<svg width="42" height="30" viewBox="0 0 42 30" fill="none" xmlns="http://www.w3.org/2000/svg">
<rect width="42" height="30" rx="6" fill="#108EE9"/>
<path fill-rule="evenodd" clip-rule="evenodd" d="M9.0659 10.2H8.9259C7.7625 10.2245 6.6166 10.69 5.7717 11.4908C4.7812 12.4078 4.2128 13.7441 4.2002 15.0909V15.2162C4.224 16.535 4.7763 17.8405 5.7381 18.7477C6.59 19.5709 7.7576 20.0504 8.9427 20.07H9.0799C10.6815 20.0518 12.2229 19.1551 13.0559 17.7922C13.7685 16.6624 13.9876 15.2414 13.6712 13.9457C13.4059 12.8278 12.7367 11.8093 11.8099 11.1289C11.0224 10.5409 10.048 10.2182 9.0659 10.2ZM6.891 14.2103C7.3432 14.3426 7.8255 14.2621 8.2658 14.12C8.50843 14.04 8.74728 13.9485 8.98614 13.8571C9.3723 13.7093 9.75848 13.5614 10.1607 13.462C10.699 13.336 11.3038 13.4375 11.735 13.7945C11.8203 13.8764 11.8201 13.9948 11.8199 14.1071V14.1071V14.1071V14.1071V14.1071C11.8199 14.1348 11.8198 14.1622 11.8211 14.1886C11.8163 14.5499 11.818 14.9114 11.8197 15.2728V15.2729C11.8222 15.8055 11.8247 16.3381 11.8064 16.8703C11.7414 16.8426 11.6768 16.8133 11.6121 16.7839L11.6121 16.7839C11.3456 16.6629 11.0777 16.5413 10.7781 16.5357C10.1532 16.5013 9.57563 16.7087 8.99692 16.9165L8.99691 16.9165C8.52601 17.0855 8.05439 17.2549 7.556 17.2945C7.1038 17.326 6.6313 17.2189 6.2645 16.9466C6.18935 16.8425 6.1931 16.7124 6.19677 16.5849C6.19826 16.5331 6.19974 16.4817 6.1959 16.4328C6.20286 16.1093 6.19978 15.7853 6.19669 15.4612C6.19172 14.9387 6.18674 14.4161 6.2239 13.896C6.30641 13.9327 6.3858 13.9765 6.46517 14.0202C6.60194 14.0955 6.73862 14.1708 6.891 14.2103ZM16.3808 12.6582H16.3808H16.3808H16.3807H16.3807C16.1332 12.6597 15.8856 12.6613 15.6382 12.6584C15.6378 13.4893 15.6378 14.3203 15.6378 15.1515C15.6378 15.9827 15.6378 16.8139 15.6375 17.6452C15.9133 17.6455 16.1889 17.6455 16.4645 17.6455C16.7402 17.6455 17.0158 17.6455 17.2916 17.6459C17.6927 17.6466 18.098 17.5696 18.4564 17.3841C19.4098 16.9165 19.9621 15.7923 19.7794 14.75C19.6282 13.665 18.6804 12.7431 17.5793 12.6696C17.18 12.6531 16.7804 12.6557 16.3808 12.6582ZM16.6801 16.1644C16.6821 15.3532 16.6842 14.542 16.677 13.7308C16.7839 13.734 16.8915 13.7322 16.9992 13.7303C17.2346 13.7262 17.4705 13.7221 17.7011 13.7721C18.2758 13.9037 18.7189 14.4392 18.7595 15.0244C18.8204 15.6068 18.4823 16.2081 17.9447 16.4461C17.6533 16.5838 17.333 16.5771 17.0161 16.5704C16.9028 16.5681 16.79 16.5657 16.6791 16.57L16.6801 16.1644ZM21.6316 14.6751C21.6652 13.5936 22.6389 12.622 23.7337 12.6591C24.8068 12.6479 25.749 13.5985 25.7917 14.659C25.8028 15.2682 25.8011 15.8777 25.7994 16.4872C25.7983 16.8728 25.7972 17.2583 25.7994 17.6438L25.7987 17.6438C25.451 17.6445 25.1041 17.6452 24.7571 17.6438C24.7553 17.4652 24.7555 17.2867 24.7557 17.1083V17.1083V17.1083V17.1082C24.7559 16.9299 24.756 16.7516 24.7543 16.5735C24.345 16.5755 23.9359 16.5751 23.5269 16.5748H23.5269H23.5269H23.5268C23.2406 16.5745 22.9544 16.5743 22.6683 16.5749C22.6673 16.7078 22.6678 16.8408 22.6683 16.9738V16.9738V16.9738V16.9743C22.6691 17.1992 22.67 17.424 22.6634 17.6487C22.4324 17.6431 22.2017 17.6437 21.9711 17.6443H21.9711H21.971H21.971C21.8558 17.6446 21.7405 17.6449 21.6253 17.6445C21.6266 17.2845 21.6256 16.9245 21.6247 16.5645V16.5642C21.623 15.9343 21.6214 15.3044 21.6316 14.6751ZM22.935 14.0885C22.6509 14.3954 22.6592 14.8096 22.6671 15.2065C22.6691 15.3074 22.6711 15.4072 22.6683 15.5039C22.9463 15.5041 23.2245 15.504 23.5026 15.5038H23.503C23.9202 15.5035 24.3374 15.5033 24.7543 15.5046C24.7517 15.4084 24.7539 15.3091 24.7562 15.2088V15.2088V15.2087V15.2086C24.7649 14.8206 24.774 14.4166 24.5065 14.1102C24.1334 13.6202 23.3214 13.609 22.935 14.0885ZM27.6229 14.6863C27.6537 13.7343 28.3978 12.8509 29.3421 12.6906C30.0449 12.5555 30.7981 12.832 31.2559 13.3794C31.6101 13.7693 31.7907 14.2971 31.7907 14.8207C31.7921 15.4483 31.7916 16.0756 31.7912 16.703V16.7031C31.7909 17.0168 31.7907 17.3306 31.7907 17.6445C31.6726 17.6452 31.5545 17.6447 31.4363 17.6443H31.4363C31.2084 17.6435 30.9803 17.6427 30.7526 17.6501C30.7451 17.1167 30.7463 16.5831 30.7475 16.0496C30.7484 15.6392 30.7493 15.2288 30.7463 14.8186C30.7519 14.4378 30.5482 14.0584 30.215 13.8694C29.8692 13.6622 29.4009 13.693 29.0838 13.9422C28.8094 14.1473 28.6561 14.4889 28.661 14.8291C28.6594 15.3654 28.6596 15.9016 28.6599 16.4378C28.66 16.84 28.6602 17.2421 28.6596 17.6445C28.5326 17.6439 28.4056 17.6442 28.2785 17.6444H28.2785C28.0562 17.6448 27.834 17.6452 27.6117 17.6417C27.6191 17.1668 27.6178 16.6918 27.6164 16.2167C27.6149 15.7065 27.6135 15.1963 27.6229 14.6863ZM33.9481 13.6251C34.3506 12.9979 35.094 12.5933 35.8451 12.6647C36.6942 12.7172 37.4474 13.364 37.6826 14.1725C37.7694 14.4454 37.7735 14.7306 37.7777 15.0155C37.78 15.1784 37.7824 15.3413 37.8002 15.5018V17.6389C37.5335 17.6462 37.2668 17.6453 37.0001 17.6444C36.9112 17.6441 36.8223 17.6438 36.7334 17.6438C36.7329 17.5288 36.7331 17.4137 36.7333 17.2987C36.7338 17.0557 36.7342 16.8127 36.7285 16.57C36.3063 16.5763 35.8838 16.5755 35.4611 16.5746C35.1895 16.574 34.9177 16.5735 34.646 16.5749C34.6456 16.753 34.6456 16.9312 34.6456 17.1094C34.6456 17.2876 34.6456 17.466 34.6453 17.6445H33.6023C33.6019 17.1849 33.6019 16.7255 33.6019 16.2662C33.6019 15.807 33.6019 15.3478 33.6016 14.8886C33.5967 14.4462 33.7024 13.9968 33.9481 13.6251ZM34.9071 14.0955C34.6286 14.4013 34.6369 14.8122 34.6448 15.206C34.6468 15.3071 34.6489 15.4071 34.646 15.5039C35.1099 15.5043 35.5738 15.5042 36.0375 15.504L36.7327 15.5039C36.7296 15.4051 36.7318 15.3032 36.734 15.2002C36.7422 14.8139 36.7508 14.4126 36.4828 14.1081C36.1062 13.6174 35.2907 13.6111 34.9071 14.0955Z" fill="white"/>
</svg>
