<svg width="49" height="48" viewBox="0 0 49 48" fill="none" xmlns="http://www.w3.org/2000/svg">
<rect x="0.00195312" width="48" height="48" rx="24" fill="white"/>
<path d="M9.79821 21.7126L13.0961 12.8572C13.26 12.417 13.7083 12.1502 14.1734 12.2161L23.4387 13.5283C24.9608 13.7439 26.2864 14.6583 27.1215 15.949C31.8011 23.1822 37.3824 27.5227 40.829 29.482C41.5506 29.8922 41.605 30.9898 40.8861 31.4048L27.1359 39.3435C26.2541 39.8526 25.2035 40.0274 24.2418 39.6932C17.234 37.2578 12.2222 29.9966 9.91384 25.2909C9.36505 24.1722 9.36334 22.8803 9.79821 21.7126Z" fill="#EB934E"/>
<ellipse cx="22.2132" cy="25.4936" rx="6.2298" ry="6.5853" transform="rotate(89.0764 22.2132 25.4936)" fill="#F9B66F"/>
<path d="M19.4205 25.0526C19.8781 24.7647 20.008 24.1526 19.7105 23.6853C19.4131 23.2181 18.801 23.0727 18.3433 23.3606C17.8856 23.6485 17.7558 24.2606 18.0532 24.7278C18.3507 25.1951 18.9628 25.3405 19.4205 25.0526Z" fill="#814743"/>
<path d="M26.0836 27.6264C26.5413 27.3386 26.6711 26.7264 26.3736 26.2591C26.0761 25.7918 25.464 25.6464 25.0063 25.9342C24.5487 26.222 24.4189 26.8341 24.7164 27.3014C25.0139 27.7687 25.626 27.9142 26.0836 27.6264Z" fill="#814743"/>
<path d="M21.6015 29.7503L22.7515 21.2858" stroke="#814743" stroke-miterlimit="10" stroke-linecap="round" stroke-linejoin="round"/>
<path d="M27.1035 34.6993L33.5071 30.8447" stroke="white" stroke-linecap="round"/>
<path d="M14.9409 14.922C14.8318 13.8555 13.933 11.3958 11.1291 11.9131C7.6725 12.5509 7.86255 17.5752 11.1291 17.8202" stroke="#814743" stroke-width="1.5" stroke-linecap="round"/>
</svg>
