<svg width="60" height="60" viewBox="0 0 60 60" fill="none" xmlns="http://www.w3.org/2000/svg">
<rect width="60" height="60" rx="30" fill="#DCEDFF"/>
<path d="M40.2527 50.0483H35.8017C32.2632 50.0483 29.908 46.3912 31.372 43.1697H32.9819L32.5379 44.2667C31.7399 46.2389 33.1914 48.3921 35.3189 48.3921H37.3084C38.5117 48.3921 39.6279 49.0199 40.2527 50.0483Z" fill="#814743"/>
<path d="M29.7705 49.9849L32.1682 43.1345H23.9905C22.6993 46.4665 25.1104 50.099 28.6829 50.0207C29.0791 50.012 29.4467 50.0003 29.7705 49.9849Z" fill="#814743"/>
<path d="M33.5373 50.0474H27.2145C23.6549 50.0474 21.1935 46.4886 22.4494 43.158H24.0593L23.6056 44.3674C22.8698 46.3287 24.3197 48.4211 26.4145 48.4211H30.6186C31.8075 48.4211 32.9117 49.0364 33.5373 50.0474Z" fill="#EB934E"/>
<rect x="10.5" y="12.95" width="35.8209" height="30.2239" rx="8.25" fill="#EB934E"/>
<path d="M12.1787 21.1999C12.1787 16.6436 15.8724 12.95 20.4287 12.95H39.7496C44.306 12.95 47.9996 16.6436 47.9996 21.2V38.1365H12.1787V21.1999Z" fill="#A4604D"/>
<path d="M13.7246 20.5064C13.7246 17.1926 16.4109 14.5063 19.7246 14.5063H40.1873C43.501 14.5063 46.1873 17.1926 46.1873 20.5063V38.0138H13.7246V20.5064Z" fill="white"/>
<path d="M13.7246 28.0063H46.1873V38.0138H13.7246V28.0063Z" fill="#DCEDFF"/>
<circle opacity="0.2" cx="29.9561" cy="29.2603" r="6.75" fill="#203551"/>
<circle cx="29.9561" cy="27.0103" r="6.75" fill="#59B277"/>
<path d="M26.9561 26.8149L29.0865 28.9454L32.9561 25.0759" stroke="white" stroke-width="1.95" stroke-linecap="round" stroke-linejoin="round"/>
<path d="M16.8574 17.6294H20.2061" stroke="#97A7BE" stroke-width="1.95" stroke-linecap="round" stroke-linejoin="round"/>
<path d="M39.3574 17.6294H42.7061" stroke="#97A7BE" stroke-width="1.95" stroke-linecap="round" stroke-linejoin="round"/>
<path d="M16.8574 19.8794H21.7061" stroke="#97A7BE" stroke-width="1.95" stroke-linecap="round" stroke-linejoin="round"/>
<path d="M12.1787 38.1357H47.9996C47.9996 40.9178 45.7443 43.1731 42.9623 43.1731H17.216C14.434 43.1731 12.1787 40.9178 12.1787 38.1357Z" fill="#A4604D"/>
<circle opacity="0.8" cx="30.0901" cy="40.6548" r="1.1194" fill="white"/>
</svg>
