<svg width="24" height="24" viewBox="0 0 24 24" fill="none" xmlns="http://www.w3.org/2000/svg">
<path d="M2.51953 7.20312V6.55313C2.16055 6.55313 1.86953 6.84414 1.86953 7.20312H2.51953ZM22.1293 11.3513C22.1293 10.9923 21.8383 10.7013 21.4793 10.7013C21.1203 10.7013 20.8293 10.9923 20.8293 11.3513H22.1293ZM2.51953 7.85312H21.4793V6.55313H2.51953V7.85312ZM20.4793 21.8495H3.51953V23.1495H20.4793V21.8495ZM3.16953 21.4995V7.20312H1.86953V21.4995H3.16953ZM20.8293 11.3513V21.4995H22.1293V11.3513H20.8293ZM3.51953 21.8495C3.32623 21.8495 3.16953 21.6928 3.16953 21.4995H1.86953C1.86953 22.4108 2.60826 23.1495 3.51953 23.1495V21.8495ZM20.4793 23.1495C21.3906 23.1495 22.1293 22.4108 22.1293 21.4995H20.8293C20.8293 21.6928 20.6726 21.8495 20.4793 21.8495V23.1495Z" fill="#93A6FF"/>
<path d="M2.51953 7.20312H21.4793L18.3943 1.9902C18.2143 1.68605 17.8871 1.4995 17.5337 1.4995H6.46518C6.11176 1.4995 5.78459 1.68605 5.60459 1.9902L2.51953 7.20312Z" stroke="#93A6FF" stroke-width="1.3" stroke-linejoin="round"/>
<path d="M12 1.5L12 7.2036" stroke="#93A6FF" stroke-width="1.3" stroke-linecap="round" stroke-linejoin="round"/>
<path d="M12.2148 12V18.4215" stroke="#93A6FF" stroke-width="1.3" stroke-linecap="round"/>
<path d="M15.4219 15.1963L9.00039 15.2243" stroke="#93A6FF" stroke-width="1.3" stroke-linecap="round"/>
</svg>
