<svg width="60" height="60" viewBox="0 0 60 60" fill="none" xmlns="http://www.w3.org/2000/svg">
<mask id="mask0_1_19883" style="mask-type:alpha" maskUnits="userSpaceOnUse" x="0" y="0" width="60" height="60">
<rect width="60" height="60" rx="30" fill="#DCEDFF"/>
</mask>
<g mask="url(#mask0_1_19883)">
<rect width="60" height="60" rx="30" fill="#DCEDFF"/>
<mask id="mask1_1_19883" style="mask-type:alpha" maskUnits="userSpaceOnUse" x="13" y="33" width="34" height="14">
<path d="M45.9329 43.4941L41.6163 35.2051C41.1678 34.3439 40.2775 33.8037 39.3066 33.8037H20.6933C19.7223 33.8037 18.832 34.3439 18.3836 35.2051L14.067 43.4941C13.3898 44.7944 14.3333 46.3494 15.7993 46.3494H44.2006C45.6666 46.3494 46.61 44.7944 45.9329 43.4941Z" fill="#F9B66F"/>
</mask>
<g mask="url(#mask1_1_19883)">
<path d="M45.9329 43.4941L41.6163 35.2051C41.1678 34.3439 40.2775 33.8037 39.3066 33.8037H20.6933C19.7223 33.8037 18.832 34.3439 18.3836 35.2051L14.067 43.4941C13.3898 44.7944 14.3333 46.3494 15.7993 46.3494H44.2006C45.6666 46.3494 46.61 44.7944 45.9329 43.4941Z" fill="#814743"/>
<path d="M45.6421 42.8387L40.9701 33.8672C40.5216 33.006 39.6313 32.4658 38.6604 32.4658H21.3404C20.3694 32.4658 19.4791 33.006 19.0306 33.8672L14.3587 42.8387C14.0201 43.4888 14.4918 44.2663 15.2248 44.2663H44.7759C45.5089 44.2663 45.9806 43.4888 45.6421 42.8387Z" fill="#EB934E"/>
</g>
<ellipse cx="29.9998" cy="38.7604" rx="7.3221" ry="2.60415" fill="#CC7051"/>
<circle cx="29.9987" cy="20.3017" r="4.57391" fill="white"/>
<path d="M38.0548 11.9617C35.8582 10.1312 33.1124 8.84985 30.0005 8.84985C27.2547 8.84985 24.692 9.76512 22.6784 11.4126C19.9326 13.6092 18.2852 16.9042 18.2852 20.5652C18.2852 27.3003 24.1504 34.3103 27.5808 37.8343C28.9274 39.2176 31.0737 39.2176 32.4202 37.8343C35.8507 34.3103 41.7159 27.3003 41.7159 20.5652C41.7159 17.0872 40.2515 14.1584 38.0548 11.9617ZM30.0005 24.5924C27.8039 24.5924 25.9734 22.7618 25.9734 20.5652C25.9734 18.3686 27.8039 16.5381 30.0005 16.5381C32.1971 16.5381 34.0277 18.3686 34.0277 20.5652C34.0277 22.7618 32.1971 24.5924 30.0005 24.5924Z" fill="#F6B755"/>
</g>
</svg>
