<svg width="60" height="60" viewBox="0 0 60 60" fill="none" xmlns="http://www.w3.org/2000/svg">
<rect width="60" height="60" rx="30" fill="#DCEDFF"/>
<mask id="mask0_1_19852" style="mask-type:alpha" maskUnits="userSpaceOnUse" x="10" y="11" width="33" height="35">
<path d="M26.3753 11.0859L42.7194 17.7686V38.9438L26.3753 45.6265L10.0312 38.9438V17.7686L26.3753 11.0859Z" fill="#C4C4C4"/>
</mask>
<g mask="url(#mask0_1_19852)">
<path d="M26.3753 11.0859L42.7194 17.7686V38.9438L26.3753 45.6265L10.0312 38.9438V17.7686L26.3753 11.0859Z" fill="#EB934E"/>
<path d="M12.1515 32.2148L17.8242 34.5382V38.6602L12.1515 36.3357V32.2148Z" fill="white"/>
<path d="M42.723 17.7656H26.3789V45.6235L42.723 38.9408V17.7656Z" fill="#CC7051"/>
<path d="M31.4565 34.5934L33.4746 31.5383C33.8629 30.9504 34.6082 30.712 35.2657 30.9655L38.2263 32.1068C40.3778 32.9363 41.9753 34.7354 42.9081 36.8442C44.303 39.9974 46.0176 42.4014 47.4699 44.0208C48.3012 44.9477 47.9708 46.6229 46.78 46.9865L40.0811 49.0319C38.6204 49.4778 36.9976 49.4028 35.8196 48.431C33.0893 46.1787 31.4152 42.6529 30.5345 39.8379C29.9764 38.0541 30.4263 36.153 31.4565 34.5934Z" fill="#BD6041"/>
<path d="M36.2997 20.1328H32.9297V27.2338L36.2997 25.8558V20.1328Z" fill="#814743"/>
<path d="M42.7194 17.7686L26.3753 11.0859L10.0312 17.7686L26.3753 24.5997L42.7194 17.7686Z" fill="#F9B66F"/>
<path d="M36.29 20.4533L32.9043 21.8684L16.6641 15.0541L20.0065 13.6875L36.29 20.4533Z" fill="#BF684F"/>
</g>
<path d="M32.9029 35.2173L34.1807 31.7861C34.4266 31.1257 35.099 30.7256 35.7967 30.8244L38.9383 31.2693C41.2214 31.5927 43.1832 32.9856 44.5672 34.83C46.6366 37.5879 48.8489 39.5436 50.6287 40.7942C51.6474 41.5099 51.703 43.2166 50.6247 43.8391L44.5589 47.3412C43.2363 48.1048 41.6383 48.3974 40.2716 47.716C37.104 46.1368 34.6786 43.0788 33.1863 40.5347C32.2406 38.9225 32.2506 36.9689 32.9029 35.2173Z" fill="#5AB277"/>
<path d="M39.3516 36.0469C40.2668 37.0957 42.6571 39.6544 44.8967 41.4988" stroke="white" stroke-width="1.95" stroke-linecap="round" stroke-linejoin="round"/>
<path d="M37.8281 38.9883C38.396 39.639 39.8791 41.2266 41.2687 42.371" stroke="white" stroke-width="1.95" stroke-linecap="round" stroke-linejoin="round"/>
<path d="M34.8498 32.5321C34.892 32.9442 35.2602 33.244 35.6723 33.2019C36.0844 33.1597 36.3842 32.7915 36.342 32.3794L34.8498 32.5321ZM33.1654 30.5372L33.3015 31.2748L33.1654 30.5372ZM32.4625 34.9088L33.1806 35.1253L33.6135 33.6891L32.8955 33.4727L32.4625 34.9088ZM36.342 32.3794C36.296 31.9299 36.0939 31.2095 35.5932 30.6283C35.0513 29.9991 34.1965 29.5843 33.0293 29.7997L33.3015 31.2748C33.9221 31.1603 34.2478 31.3647 34.4568 31.6073C34.7071 31.8978 34.8263 32.3016 34.8498 32.5321L36.342 32.3794ZM33.0293 29.7997C31.5485 30.0729 30.8264 31.1944 30.7763 32.311C30.7296 33.3536 31.2823 34.553 32.4625 34.9088L32.8955 33.4727C32.5554 33.3702 32.2494 32.9461 32.2748 32.3782C32.297 31.8843 32.5782 31.4082 33.3015 31.2748L33.0293 29.7997Z" fill="#814743"/>
</svg>
