<svg width="60" height="60" viewBox="0 0 60 60" fill="none" xmlns="http://www.w3.org/2000/svg">
<rect width="60" height="60" rx="30" fill="#DCEDFF"/>
<rect x="19.499" y="10.5" width="27.3758" height="32.2681" rx="3.9" fill="#CC7051"/>
<rect x="18.124" y="12" width="27.3758" height="32.2681" rx="3" fill="white"/>
<path d="M28.499 24.1454C28.499 22.4057 29.9093 20.9954 31.649 20.9954C33.3887 20.9954 34.799 22.4057 34.799 24.1454V25.0283C34.799 25.4738 34.4379 25.8349 33.9924 25.8349H29.3056C28.8601 25.8349 28.499 25.4738 28.499 25.0283V24.1454Z" fill="#814743"/>
<circle cx="31.6488" cy="18.6" r="2.1" fill="#814743"/>
<path d="M40.91 31.2385H23.2892C22.7703 31.2385 22.3496 31.6592 22.3496 32.1781C22.3496 32.697 22.7703 33.1177 23.2892 33.1177H40.91C41.4289 33.1177 41.8496 32.697 41.8496 32.1781C41.8496 31.6592 41.4289 31.2385 40.91 31.2385Z" fill="#BF684F"/>
<path d="M40.91 37.6177H23.2892C22.7703 37.6177 22.3496 38.0383 22.3496 38.5573C22.3496 39.0762 22.7703 39.4969 23.2892 39.4969H40.91C41.4289 39.4969 41.8496 39.0762 41.8496 38.5573C41.8496 38.0383 41.4289 37.6177 40.91 37.6177Z" fill="#F9B66F"/>
<path d="M22.1373 49.3535C26.5602 49.3535 30.1457 45.6926 30.1457 41.1767C30.1457 36.6608 26.5602 33 22.1373 33C17.7144 33 14.1289 36.6608 14.1289 41.1767C14.1289 45.6926 17.7144 49.3535 22.1373 49.3535Z" fill="#458B5C"/>
<rect x="19.9961" y="33" width="2.31467" height="16.3317" fill="#458B5C"/>
<mask id="mask0_1_19890" style="mask-type:alpha" maskUnits="userSpaceOnUse" x="12" y="33" width="17" height="17">
<path d="M20.0084 49.3535C24.4313 49.3535 28.0168 45.6926 28.0168 41.1767C28.0168 36.6608 24.4313 33 20.0084 33C15.5855 33 12 36.6608 12 41.1767C12 45.6926 15.5855 49.3535 20.0084 49.3535Z" fill="#59B377"/>
</mask>
<g mask="url(#mask0_1_19890)">
<path d="M20.0084 49.3535C24.4313 49.3535 28.0168 45.6926 28.0168 41.1767C28.0168 36.6608 24.4313 33 20.0084 33C15.5855 33 12 36.6608 12 41.1767C12 45.6926 15.5855 49.3535 20.0084 49.3535Z" fill="#59B377"/>
<path d="M16.5 40.9249L19.2289 43.5L24 39" stroke="white" stroke-width="2.25" stroke-miterlimit="10" stroke-linecap="round" stroke-linejoin="round"/>
</g>
</svg>
