<svg width="20" height="20" viewBox="0 0 20 20" fill="none" xmlns="http://www.w3.org/2000/svg">
<path d="M10.3714 18.0439H5.55469C3.89783 18.0439 2.55469 16.7007 2.55469 15.0439V2.62891C2.55469 2.07662 3.0024 1.62891 3.55469 1.62891H13.836C14.3883 1.62891 14.836 2.07662 14.836 2.62891V10.5752" stroke="#2E47BA" stroke-width="1.3" stroke-miterlimit="10" stroke-linecap="round" stroke-linejoin="round"/>
<path d="M5.97607 17.9658L5.82312 17.3341C5.55058 17.4 5.35108 17.6334 5.32823 17.9129C5.30539 18.1923 5.46436 18.455 5.72257 18.5643L5.97607 17.9658ZM8.0904 13.3096V12.6596C7.73141 12.6596 7.4404 12.9506 7.4404 13.3096H8.0904ZM6.36578 17.3946C6.31619 17.3946 6.27059 17.3847 6.22958 17.3673L5.72257 18.5643C5.92108 18.6484 6.13887 18.6946 6.36578 18.6946V17.3946ZM13.1427 17.3946H6.36578V18.6946H13.1427V17.3946ZM16.7973 13.74C16.7973 15.7584 15.1611 17.3946 13.1427 17.3946V18.6946C15.8791 18.6946 18.0973 16.4764 18.0973 13.74H16.7973ZM17.0168 13.9596C16.8956 13.9596 16.7973 13.8613 16.7973 13.74H18.0973C18.0973 13.1433 17.6136 12.6596 17.0168 12.6596V13.9596ZM8.0904 13.9596H17.0168V12.6596H8.0904V13.9596ZM7.4404 13.3096V15.2754H8.7404V13.3096H7.4404ZM7.4404 15.2754C7.4404 16.272 6.75149 17.1093 5.82312 17.3341L6.12903 18.5976C7.62717 18.2348 8.7404 16.8859 8.7404 15.2754H7.4404Z" fill="#2E47BA"/>
<path d="M7.07617 4.73145H8.67684" stroke="#2E47BA" stroke-width="1.3" stroke-miterlimit="10" stroke-linecap="round" stroke-linejoin="round"/>
<path d="M7.07617 7.5791H10.5132" stroke="#2E47BA" stroke-width="1.3" stroke-miterlimit="10" stroke-linecap="round" stroke-linejoin="round"/>
<path d="M7.07617 10.4268L12.0975 10.4268" stroke="#2E47BA" stroke-width="1.3" stroke-miterlimit="10" stroke-linecap="round" stroke-linejoin="round"/>
<circle cx="5.09141" cy="4.73301" r="0.65" fill="#2E47BA"/>
<circle cx="5.09141" cy="7.58066" r="0.65" fill="#2E47BA"/>
<circle cx="5.09141" cy="10.4283" r="0.65" fill="#2E47BA"/>
</svg>
