<svg width="20" height="20" viewBox="0 0 20 20" fill="none" xmlns="http://www.w3.org/2000/svg">
<path d="M10.3714 18.0439H5.55469C3.89783 18.0439 2.55469 16.7007 2.55469 15.0439V2.62891C2.55469 2.07662 3.0024 1.62891 3.55469 1.62891H13.836C14.3883 1.62891 14.836 2.07662 14.836 2.62891V10.5752" stroke="#93A6FF" stroke-width="1.3" stroke-miterlimit="10" stroke-linecap="round" stroke-linejoin="round"/>
<path d="M5.97656 17.9648L5.82361 17.3331C5.55107 17.3991 5.35156 17.6324 5.32872 17.9119C5.30588 18.1914 5.46485 18.454 5.72306 18.5634L5.97656 17.9648ZM8.09089 13.3086V12.6586C7.7319 12.6586 7.44089 12.9496 7.44089 13.3086H8.09089ZM6.36626 17.3936C6.31668 17.3936 6.27108 17.3837 6.23007 17.3663L5.72306 18.5634C5.92156 18.6474 6.13936 18.6936 6.36626 18.6936V17.3936ZM13.1432 17.3936H6.36626V18.6936H13.1432V17.3936ZM16.7978 13.739C16.7978 15.7574 15.1616 17.3936 13.1432 17.3936V18.6936C15.8795 18.6936 18.0978 16.4754 18.0978 13.739H16.7978ZM17.0173 13.9586C16.8961 13.9586 16.7978 13.8603 16.7978 13.739H18.0978C18.0978 13.1423 17.614 12.6586 17.0173 12.6586V13.9586ZM8.09089 13.9586H17.0173V12.6586H8.09089V13.9586ZM7.44089 13.3086V15.2745H8.74089V13.3086H7.44089ZM7.44089 15.2745C7.44089 16.271 6.75198 17.1083 5.82361 17.3331L6.12952 18.5966C7.62766 18.2339 8.74089 16.885 8.74089 15.2745H7.44089Z" fill="#93A6FF"/>
<path d="M7.07812 4.73047H8.67879" stroke="#93A6FF" stroke-width="1.3" stroke-miterlimit="10" stroke-linecap="round" stroke-linejoin="round"/>
<path d="M7.07812 7.57812H10.5152" stroke="#93A6FF" stroke-width="1.3" stroke-miterlimit="10" stroke-linecap="round" stroke-linejoin="round"/>
<path d="M7.07812 10.4258L12.0995 10.4258" stroke="#93A6FF" stroke-width="1.3" stroke-miterlimit="10" stroke-linecap="round" stroke-linejoin="round"/>
<circle cx="5.0875" cy="4.73203" r="0.65" fill="#93A6FF"/>
<circle cx="5.0875" cy="7.57969" r="0.65" fill="#93A6FF"/>
<circle cx="5.0875" cy="10.4273" r="0.65" fill="#93A6FF"/>
</svg>
