<svg width="24" height="24" viewBox="0 0 24 24" fill="none" xmlns="http://www.w3.org/2000/svg">
<rect width="24" height="24" rx="12" fill="#0D1826"/>
<path d="M6.79152 17.6801H18.4723C18.8036 17.6801 19.0723 17.4115 19.0723 17.0801V9.22518L17.5336 7.81337L16.8542 6.32227H8.98014L8.82477 8.41616L6.19152 11.7157V17.0801C6.19152 17.4115 6.46015 17.6801 6.79152 17.6801Z" fill="#F27676"/>
<path d="M17.8359 14.473C17.8359 14.1417 17.5673 13.873 17.2359 13.873H14.9461C14.6147 13.873 14.3461 14.1417 14.3461 14.473V17.6802H17.8359V14.473Z" fill="#FFF5E3"/>
<path d="M13.2174 11.5323L16.0898 6.32227H7.88159C7.663 6.32227 7.4617 6.44115 7.35616 6.63258L4.97423 10.9529C4.75376 11.3528 5.04303 11.8426 5.49967 11.8426H12.692C12.9106 11.8426 13.1119 11.7237 13.2174 11.5323Z" fill="#D74C4C"/>
<path d="M19.1334 11.8426L16.0898 6.32227H17.0981C17.3167 6.32227 17.518 6.44115 17.6235 6.63258L20.0055 10.9529C20.2259 11.3528 19.9367 11.8426 19.48 11.8426H19.1334Z" fill="#D74C4C"/>
<rect x="6.52148" y="12.4014" width="5.27837" height="5.27837" rx="0.6" fill="#435BBF"/>
<rect x="3.50586" y="12.4014" width="5.27837" height="5.27837" rx="0.6" fill="#5472EF"/>
<path d="M5.49805 12.4014H6.79388V13.1969C6.79388 13.5283 6.52525 13.7969 6.19388 13.7969H6.09805C5.76668 13.7969 5.49805 13.5283 5.49805 13.1969V12.4014Z" fill="#EEF1FD"/>
</svg>
