<svg width="21" height="20" viewBox="0 0 21 20" fill="none" xmlns="http://www.w3.org/2000/svg">
<path d="M5.16699 9V3C5.16699 2.44772 5.61471 2 6.16699 2H14.167C14.7193 2 15.167 2.44772 15.167 3V7" stroke="#6C7E95" stroke-width="1.3" stroke-miterlimit="10" stroke-linecap="round" stroke-linejoin="round"/>
<path d="M12.167 6V2" stroke="#6C7E95" stroke-width="1.3" stroke-miterlimit="10" stroke-linecap="round" stroke-linejoin="round"/>
<path d="M8.16699 6V2" stroke="#6C7E95" stroke-width="1.3" stroke-miterlimit="10" stroke-linecap="round" stroke-linejoin="round"/>
<path d="M4.16699 10C4.16699 9.44772 4.61471 9 5.16699 9H15.167C15.7193 9 16.167 9.44772 16.167 10V10C16.167 11.6569 14.8238 13 13.167 13H12.167V16C12.167 17.1046 11.2716 18 10.167 18V18C9.06242 18 8.16699 17.1046 8.16699 16V13H7.16699C5.51014 13 4.16699 11.6569 4.16699 10V10Z" stroke="#6C7E95" stroke-width="1.3" stroke-miterlimit="10" stroke-linecap="round" stroke-linejoin="round"/>
<circle cx="10.167" cy="15.5" r="0.5" fill="#6C7E95"/>
</svg>
