<svg width="21" height="21" viewBox="0 0 21 21" fill="none" xmlns="http://www.w3.org/2000/svg">
<path d="M5.5 9.5V3.5C5.5 2.94772 5.94772 2.5 6.5 2.5H14.5C15.0523 2.5 15.5 2.94772 15.5 3.5V7.5" stroke="#2E47BA" stroke-width="1.3" stroke-miterlimit="10" stroke-linecap="round" stroke-linejoin="round"/>
<path d="M12.5 6.5V2.5" stroke="#2E47BA" stroke-width="1.3" stroke-miterlimit="10" stroke-linecap="round" stroke-linejoin="round"/>
<path d="M8.5 6.5V2.5" stroke="#2E47BA" stroke-width="1.3" stroke-miterlimit="10" stroke-linecap="round" stroke-linejoin="round"/>
<path d="M4.5 10.5C4.5 9.94772 4.94772 9.5 5.5 9.5H15.5C16.0523 9.5 16.5 9.94772 16.5 10.5V10.5C16.5 12.1569 15.1569 13.5 13.5 13.5H12.5V16.5C12.5 17.6046 11.6046 18.5 10.5 18.5V18.5C9.39543 18.5 8.5 17.6046 8.5 16.5V13.5H7.5C5.84315 13.5 4.5 12.1569 4.5 10.5V10.5Z" stroke="#2E47BA" stroke-width="1.3" stroke-miterlimit="10" stroke-linecap="round" stroke-linejoin="round"/>
<circle cx="10.5" cy="16" r="0.5" fill="#2E47BA"/>
</svg>
