<svg width="544" height="205" viewBox="0 0 544 205" fill="none" xmlns="http://www.w3.org/2000/svg">
<mask id="mask0_4385_223177" style="mask-type:alpha" maskUnits="userSpaceOnUse" x="0" y="0" width="544" height="205">
<path d="M0 0H544V193C544 199.627 538.627 205 532 205H12C5.37259 205 0 199.627 0 193V0Z" fill="#475DC2"/>
</mask>
<g mask="url(#mask0_4385_223177)">
<g filter="url(#filter0_d_4385_223177)">
<path d="M0 0H544V249C544 255.627 538.627 261 532 261H12C5.37259 261 0 255.627 0 249V0Z" fill="#FFD19F"/>
</g>
<path d="M179.323 219.601L653.212 88.9014V313.116H-96.6211L179.323 219.601Z" fill="white" fill-opacity="0.05"/>
<path d="M-88.3779 311.757L179.722 220.901L651.853 90.6857V311.757H-88.3779Z" stroke="white" stroke-opacity="0.1" stroke-width="2.71763"/>
<path d="M202.188 170.501L653.213 7.30176V309.44H-196.598L202.188 170.501Z" fill="white" fill-opacity="0.05"/>
<path d="M202.635 171.784L202.643 171.781L202.65 171.778L651.854 9.23847V308.081H-188.568L202.635 171.784Z" stroke="white" stroke-opacity="0.1" stroke-width="2.71763"/>
<path d="M202.239 119.947L653.212 -43.4219V309.441H-325.246L202.239 119.947Z" fill="white" fill-opacity="0.05"/>
<path d="M202.698 121.226L202.701 121.225L651.853 -41.4844V308.082H-317.445L202.698 121.226Z" stroke="white" stroke-opacity="0.1" stroke-width="2.71763"/>
<path d="M202.239 74.3496L653.212 -89V309.44H-325.246L202.239 74.3496Z" fill="white" fill-opacity="0.05"/>
<path d="M-318.859 308.082L202.747 75.6105L651.853 -87.0626V308.082H-318.859Z" stroke="white" stroke-opacity="0.1" stroke-width="2.71763"/>
<path d="M190.361 265.332L653.212 158.738V320.467H-96.6211L190.361 265.332Z" fill="white" fill-opacity="0.05"/>
<path d="M190.617 266.667L190.642 266.662L190.666 266.656L651.853 160.446V319.108H-82.3462L190.617 266.667Z" stroke="white" stroke-opacity="0.1" stroke-width="2.71763"/>
<path d="M267.559 94.0533C267.559 94.0533 258.093 118.372 255.161 124.072C252.145 129.723 256.093 133.272 262.754 128.48C262.754 128.48 264.458 132.14 269.606 129.109C274.754 126.077 280.919 114.738 280.919 114.738L291.06 118.05L285.27 90.9544L267.559 94.0533Z" fill="#E27964"/>
<mask id="mask1_4385_223177" style="mask-type:alpha" maskUnits="userSpaceOnUse" x="254" y="90" width="38" height="41">
<path d="M267.558 94.0543C267.558 94.0543 258.092 118.373 255.16 124.073C252.144 129.724 256.092 133.273 262.753 128.481C262.753 128.481 264.457 132.141 269.605 129.11C274.753 126.078 280.918 114.739 280.918 114.739L291.059 118.051L285.269 90.9554L267.558 94.0543Z" fill="#E27964"/>
</mask>
<g mask="url(#mask1_4385_223177)">
<path d="M262.887 128.486C265.174 125.467 270.242 118.358 272.219 114.076C274.195 109.795 275.055 107.169 275.238 106.391C278.211 107.626 280.822 108.724 283.582 109.269" stroke="#C65E49" stroke-width="0.635181" stroke-linecap="round"/>
</g>
<ellipse cx="307.632" cy="162.455" rx="4.20403" ry="24.766" transform="rotate(34.2661 307.632 162.455)" fill="#A83030"/>
<path d="M287.77 116.388C287.77 116.388 286.545 110.039 286.897 103.475C286.897 103.475 280.314 99.6457 277.151 98.7269L265.162 100.913L265.412 90.0413C265.412 90.0413 276.024 86.4515 280.066 87.203C284.108 87.9545 294.211 91.3975 300.002 93.8781C305.793 96.3586 307.513 96.6738 308.321 99.6531C308.321 99.6531 311.071 99.8313 311.879 102.811C312.705 105.856 315.059 122.916 318.071 133.756C320.998 144.548 287.77 116.388 287.77 116.388Z" fill="#FE967D"/>
<mask id="mask2_4385_223177" style="mask-type:alpha" maskUnits="userSpaceOnUse" x="265" y="87" width="54" height="50">
<path d="M287.769 116.387C287.769 116.387 286.544 110.038 286.896 103.474C286.896 103.474 280.313 99.6447 277.15 98.726L265.162 100.912L265.411 90.0403C265.411 90.0403 276.023 86.4506 280.065 87.202C284.107 87.9535 294.21 91.3965 300.001 93.8771C305.792 96.3577 307.512 96.6728 308.32 99.6521C308.32 99.6521 311.07 99.8303 311.878 102.81C312.704 105.855 315.058 122.915 318.07 133.755C320.997 144.547 287.769 116.387 287.769 116.387Z" fill="#FE967D"/>
</mask>
<g mask="url(#mask2_4385_223177)">
<path d="M308.459 99.2703L308.978 105.822" stroke="#E27964" stroke-width="0.745422" stroke-linecap="round"/>
<path d="M275.199 100.051C276.132 99.8608 278.288 98.8333 279.455 96.2487" stroke="#E27964" stroke-width="0.745422" stroke-linecap="round"/>
</g>
<mask id="mask3_4385_223177" style="mask-type:alpha" maskUnits="userSpaceOnUse" x="200" y="70" width="76" height="50">
<path d="M270.492 78.3137C272.2 78.1956 273.713 79.4731 273.803 81.1831L275.704 117.325C275.704 117.325 245.657 125.304 214.198 109.431C211.598 108.119 209.689 105.769 208.749 103.013L200.442 78.6792C199.69 76.4756 201.12 74.1295 203.423 73.7883L223.699 70.7848C226.195 70.4149 228.743 70.8513 231.075 71.8164C237.594 74.5143 252.501 79.5578 270.492 78.3137Z" fill="#39DBE3"/>
</mask>
<g mask="url(#mask3_4385_223177)">
<path d="M270.492 78.3137C272.2 78.1956 273.713 79.4731 273.803 81.1831L275.704 117.325C275.704 117.325 245.657 125.304 214.198 109.431C211.598 108.119 209.689 105.769 208.749 103.013L200.442 78.6792C199.69 76.4756 201.12 74.1295 203.423 73.7883L223.699 70.7848C226.195 70.4149 228.743 70.8513 231.075 71.8164C237.594 74.5143 252.501 79.5578 270.492 78.3137Z" fill="#4A60C3"/>
<path d="M224.736 71.6933L199.411 76.0649C198.943 76.1457 198.555 75.7039 198.696 75.2508L199.691 72.0454C199.764 71.8088 199.969 71.6364 200.214 71.604L224.846 68.3508C224.912 68.3421 224.979 68.3438 225.044 68.3558L274.328 77.4303C274.577 77.4762 274.775 77.6662 274.832 77.9134L275.886 82.5246C275.954 82.8226 275.805 83.1264 275.52 83.2377C262.875 88.1784 236.872 77.7498 225.129 71.7512C225.006 71.6886 224.872 71.6699 224.736 71.6933Z" fill="#5D73D7"/>
<circle cx="206.933" cy="79.2958" r="2.47963" fill="#FFD19F"/>
<path d="M256.379 120.917L253.709 109.095C253.557 108.42 254.326 107.92 254.881 108.333L270.771 120.155C271.347 120.583 271.044 121.498 270.327 121.498H257.106C256.757 121.498 256.455 121.257 256.379 120.917Z" fill="#2E43A4"/>
</g>
<path d="M203.151 81.9795C201.206 83.5811 199.244 86.2013 197.787 89.4783C196.331 92.7554 195.701 95.9678 195.815 98.4847C195.933 101.076 196.799 102.566 197.904 103.057C198.811 103.46 200.101 103.303 201.684 102.286C203.245 101.284 205.178 99.2043 206.628 96.9101L207.54 99.5003C206.127 101.503 204.524 103.12 202.893 104.167C201.01 105.377 198.888 105.941 196.996 105.1C194.699 104.08 193.711 101.443 193.581 98.5862C193.448 95.6545 194.177 92.0956 195.744 88.5701C197.31 85.0446 199.464 82.1189 201.729 80.2533C203.937 78.4351 206.556 77.4019 208.852 78.4224C209.417 78.6732 209.671 79.334 209.42 79.8983C209.169 80.4626 208.508 80.7168 207.944 80.466C206.839 79.9748 205.153 80.3303 203.151 81.9795Z" fill="#203551"/>
<ellipse cx="241.122" cy="96.3224" rx="12.3565" ry="14.7481" transform="rotate(-30.0303 241.122 96.3224)" fill="#2E43A4"/>
<path opacity="0.5" d="M267.393 89.5701L268.08 105.252" stroke="white" stroke-width="1.49084" stroke-linecap="round"/>
<path d="M263.506 93.5945L263.713 101.067" stroke="white" stroke-width="1.49084" stroke-linecap="round"/>
<path d="M245.347 89.7533C243.985 92.7604 240.507 99.7672 237.491 103.738" stroke="white" stroke-width="1.49084" stroke-linecap="round"/>
<circle cx="248.232" cy="95.8457" r="1.73414" transform="rotate(-24.5795 248.232 95.8457)" stroke="white" stroke-width="1.49085"/>
<circle cx="234.954" cy="97.3574" r="1.73414" transform="rotate(-24.5795 234.954 97.3574)" stroke="white" stroke-width="1.49085"/>
<path d="M287.768 116.387C287.768 116.387 280.376 114.554 277.057 112.54C274.075 110.719 269.854 104.33 259.027 102.149C256.772 101.695 254.484 102.956 253.578 105.12C252.769 107.117 253.398 109.434 255.105 110.748C258.723 113.605 264.914 118.607 268.849 122.372C274.636 127.982 278.173 138.601 287.843 146.213C297.514 153.825 298.897 156.488 304.836 173.926L332.992 163.612C332.992 163.612 321.884 146.51 318.086 133.822L287.768 116.387Z" fill="#FE967D"/>
<mask id="mask4_4385_223177" style="mask-type:alpha" maskUnits="userSpaceOnUse" x="253" y="102" width="80" height="72">
<path d="M287.77 116.387C287.77 116.387 280.378 114.554 277.059 112.54C274.077 110.719 269.856 104.33 259.029 102.149C256.774 101.695 254.486 102.956 253.58 105.12C252.771 107.117 253.4 109.434 255.107 110.748C258.725 113.605 264.916 118.607 268.851 122.372C274.638 127.982 278.175 138.601 287.845 146.213C297.516 153.825 298.899 156.488 304.838 173.926L332.993 163.612C332.993 163.612 321.886 146.51 318.088 133.822L287.77 116.387Z" fill="#FE967D"/>
</mask>
<g mask="url(#mask4_4385_223177)">
<path d="M301.343 168.202C313.397 163.513 318.995 148.744 320.946 141.796C321.146 141.08 322.032 141.067 322.094 141.807C322.93 151.666 311.514 168.419 304.519 176.993C304.146 177.45 303.422 177.301 303.247 176.738L300.88 169.14C300.76 168.756 300.969 168.348 301.343 168.202Z" fill="#E27964"/>
<path d="M254.95 102.302C256.014 102.485 259.092 103.544 262.886 106.314C261.95 107.037 259.795 109.674 259.354 111.634C257.917 111.079 254.458 109.41 252.127 107.165" stroke="#E27964" stroke-width="0.745422" stroke-linecap="round"/>
</g>
<mask id="mask5_4385_223177" style="mask-type:alpha" maskUnits="userSpaceOnUse" x="293" y="142" width="81" height="77">
<path d="M373.565 213.769C355.312 193.645 331.497 157.697 321.87 142.238C322.284 147.466 309.956 167.167 303.106 175.34C297.626 181.879 294.561 183.124 293.713 182.929C298.041 189.279 308.472 209.323 313.146 218.552L373.565 213.769Z" fill="#2E47BA"/>
</mask>
<g mask="url(#mask5_4385_223177)">
<path d="M373.565 213.769C355.312 193.645 331.497 157.697 321.87 142.238C322.284 147.466 309.956 167.167 303.106 175.34C297.626 181.879 294.561 183.124 293.713 182.929C298.041 189.279 308.472 209.323 313.146 218.552L373.565 213.769Z" fill="#E14D4D"/>
<path d="M336.371 128.319L302.273 223.978" stroke="#FAA3A3" stroke-width="0.952771" stroke-linecap="round"/>
<path d="M394.168 190.258L298.509 156.159" stroke="#FAA3A3" stroke-width="0.952771" stroke-linecap="round"/>
<path d="M351.349 140.355L317.25 236.015" stroke="#FAA3A3" stroke-width="0.952771" stroke-linecap="round"/>
<path d="M382.131 205.234L286.472 171.136" stroke="#FAA3A3" stroke-width="0.952771" stroke-linecap="round"/>
<path d="M366.327 152.392L332.229 248.052" stroke="#FAA3A3" stroke-width="0.952771" stroke-linecap="round"/>
<path d="M370.091 220.212L274.432 186.114" stroke="#FAA3A3" stroke-width="0.952771" stroke-linecap="round"/>
</g>
<path d="M355.448 57.5152C342.006 57.4102 330.883 67.8851 330.059 81.1608C330.054 81.8009 330.691 82.2059 331.173 81.9697C334.626 80.3164 345.138 76.4778 354.116 84.6292C354.752 85.1943 355.632 85.2012 356.196 84.6455C365.299 76.7153 375.751 80.6375 379.178 82.3446C379.736 82.589 380.379 82.1939 380.304 81.5532C379.848 68.2675 368.889 57.6201 355.448 57.5152Z" fill="#F36565"/>
<path d="M347.588 80.577C347.619 76.5766 348.195 64.3391 355.449 57.5146C355.449 57.5146 338.464 60.3425 337.271 79.9364C340.236 79.3994 343.837 79.3475 347.588 80.577Z" fill="white"/>
<path d="M362.946 80.697C362.977 76.6966 362.592 64.4516 355.445 57.5146C355.445 57.5146 372.384 60.6074 373.271 80.2176C370.315 79.6344 366.715 79.5263 362.946 80.697Z" fill="white"/>
<path d="M355.033 110.639L363.131 118.704C363.131 118.704 361.671 130.552 356.705 140.321C356.489 140.747 356.087 141.044 355.612 141.099C353.644 141.326 347.838 141.638 338.909 139.09C337.842 138.785 337.417 137.486 338.029 136.56C340.009 133.566 343.852 127.1 346.813 118.096L355.033 110.639Z" fill="#4A60C3"/>
<path opacity="0.5" d="M352.531 136.626L344.91 135.53" stroke="white" stroke-width="0.731268" stroke-linecap="round"/>
<path d="M350.946 134.389L347.326 133.808" stroke="white" stroke-width="0.731268" stroke-linecap="round"/>
<ellipse cx="352.632" cy="125.852" rx="5.78367" ry="6.90308" transform="rotate(39.5896 352.632 125.852)" fill="#2E43A4"/>
<path d="M355.176 123.39C354.18 124.504 351.729 127.059 349.888 128.365" stroke="white" stroke-width="0.838291" stroke-linecap="round"/>
<circle cx="355.598" cy="126.411" r="0.785366" transform="rotate(-7.15736 355.598 126.411)" stroke="white" stroke-width="0.838291"/>
<circle cx="349.661" cy="125.265" r="0.785366" transform="rotate(-7.15736 349.661 125.265)" stroke="white" stroke-width="0.838291"/>
<path d="M330.939 81.0059L355.013 113.119L379.585 81.3857" stroke="#203551" stroke-width="1.60022" stroke-miterlimit="10" stroke-linecap="round" stroke-linejoin="round"/>
<path d="M355.014 113.12L355.243 83.7568" stroke="#203551" stroke-width="1.60022" stroke-miterlimit="10" stroke-linecap="round" stroke-linejoin="round"/>
<path d="M120.734 186.139H193.666V166.868H120.734V186.139Z" fill="#EB934E"/>
<path d="M151.245 167.024H128.091V186.296H151.245V167.024Z" fill="#F9B66F"/>
<path d="M142.33 167.024H137.009V171.483H142.33V167.024Z" fill="#DE833C"/>
<path d="M120.734 166.904H193.666V147.633H120.734V166.904Z" fill="#EB934E"/>
<path d="M120.734 147.711H193.666V128.44H120.734V147.711Z" fill="#EB934E"/>
<path d="M151.245 147.754H128.091V167.025H151.245V147.754Z" fill="#F9B66F"/>
<path d="M151.245 128.562H128.091V147.833H151.245V128.562Z" fill="#F9B66F"/>
<path d="M142.33 147.754H137.009V152.212H142.33V147.754Z" fill="#DE833C"/>
<path d="M142.33 128.562H137.009V133.02H142.33V128.562Z" fill="#DE833C"/>
<path d="M128.092 167.024H104.938V186.296H128.092V167.024Z" fill="#F9B66F"/>
<path d="M119.177 167.024H113.855V171.483H119.177V167.024Z" fill="#DE833C"/>
<path d="M128.092 147.754H104.938V167.025H128.092V147.754Z" fill="#F9B66F"/>
<path d="M128.092 128.562H104.938V147.833H128.092V128.562Z" fill="#F9B66F"/>
<path d="M119.177 147.754H113.855V152.212H119.177V147.754Z" fill="#DE833C"/>
<path d="M119.177 128.562H113.855V133.02H119.177V128.562Z" fill="#DE833C"/>
<path d="M193.666 167.024L104.506 167.024" stroke="#DE833C" stroke-width="0.529339" stroke-miterlimit="10"/>
<path d="M193.666 147.711L104.506 147.711" stroke="#DE833C" stroke-width="0.529339" stroke-miterlimit="10"/>
<path d="M133.833 128.562H151.495V108.952H133.833V128.562Z" fill="#EB934E"/>
<path d="M137.896 109.038H114.478V128.529H137.896V109.038Z" fill="#F9B66F"/>
<path d="M128.877 109.038H123.495V113.547H128.877V109.038Z" fill="#DE833C"/>
<path d="M193.666 128.548L104.506 128.548" stroke="#DE833C" stroke-width="0.529339" stroke-miterlimit="10"/>
<path d="M128.091 186.153L128.091 128.562" stroke="#DE833C" stroke-width="0.549227" stroke-miterlimit="10"/>
<path d="M172.983 186.153L172.983 128.562" stroke="#DE833C" stroke-width="0.549227" stroke-miterlimit="10"/>
<path d="M171.86 214.914H244.792V195.643H171.86V214.914Z" fill="#F9B66F"/>
<path d="M202.371 195.801H179.217V215.072H202.371V195.801Z" fill="#FFD19F"/>
<path d="M193.455 195.801H188.134V200.259H193.455V195.801Z" fill="#EB934E"/>
<path d="M171.86 195.68H244.792V176.409H171.86V195.68Z" fill="#F9B66F"/>
<path d="M171.86 176.487H244.792V157.216H171.86V176.487Z" fill="#EB934E"/>
<path d="M202.371 176.529H179.217V195.8H202.371V176.529Z" fill="#FFD19F"/>
<path d="M202.371 157.337H179.217V176.608H202.371V157.337Z" fill="#F9B66F"/>
<path d="M193.455 176.529H188.134V180.988H193.455V176.529Z" fill="#EB934E"/>
<path d="M193.455 157.337H188.134V161.795H193.455V157.337Z" fill="#DE833C"/>
<path d="M179.218 195.801H156.063V215.072H179.218V195.801Z" fill="#FFD19F"/>
<path d="M170.303 195.801H164.981V200.259H170.303V195.801Z" fill="#EB934E"/>
<path d="M179.218 176.529H156.063V195.8H179.218V176.529Z" fill="#FFD19F"/>
<path d="M179.218 157.337H156.063V176.608H179.218V157.337Z" fill="#F9B66F"/>
<path d="M170.303 176.529H164.981V180.988H170.303V176.529Z" fill="#EB934E"/>
<path d="M170.303 157.337H164.981V161.795H170.303V157.337Z" fill="#DE833C"/>
<path d="M244.792 195.801L155.632 195.801" stroke="#EB934E" stroke-width="0.529339" stroke-miterlimit="10"/>
<path d="M244.792 176.487L155.632 176.487" stroke="#EB934E" stroke-width="0.529339" stroke-miterlimit="10"/>
<path d="M179.217 214.928L179.217 157.337" stroke="#DE833C" stroke-width="0.549227" stroke-miterlimit="10"/>
<path d="M224.112 214.928L224.112 157.337" stroke="#DE833C" stroke-width="0.549227" stroke-miterlimit="10"/>
</g>
<defs>
<filter id="filter0_d_4385_223177" x="-50" y="-20" width="644" height="361" filterUnits="userSpaceOnUse" color-interpolation-filters="sRGB">
<feFlood flood-opacity="0" result="BackgroundImageFix"/>
<feColorMatrix in="SourceAlpha" type="matrix" values="0 0 0 0 0 0 0 0 0 0 0 0 0 0 0 0 0 0 127 0" result="hardAlpha"/>
<feOffset dy="30"/>
<feGaussianBlur stdDeviation="25"/>
<feColorMatrix type="matrix" values="0 0 0 0 0.804722 0 0 0 0 0.83213 0 0 0 0 0.886945 0 0 0 0.05 0"/>
<feBlend mode="normal" in2="BackgroundImageFix" result="effect1_dropShadow_4385_223177"/>
<feBlend mode="normal" in="SourceGraphic" in2="effect1_dropShadow_4385_223177" result="shape"/>
</filter>
</defs>
</svg>
