<svg width="544" height="261" viewBox="0 0 544 261" fill="none" xmlns="http://www.w3.org/2000/svg">
<mask id="mask0_50_1499" style="mask-type:alpha" maskUnits="userSpaceOnUse" x="0" y="0" width="544" height="261">
<path d="M0 0H544V249C544 255.627 538.627 261 532 261H12C5.37259 261 0 255.627 0 249V0Z" fill="#475DC2"/>
</mask>
<g mask="url(#mask0_50_1499)">
<g filter="url(#filter0_d_50_1499)">
<path d="M0 0H544V249C544 255.627 538.627 261 532 261H12C5.37259 261 0 255.627 0 249V0Z" fill="#FFD19F"/>
</g>
<path d="M179.323 219.601L653.212 88.9014V313.116H-96.6211L179.323 219.601Z" fill="white" fill-opacity="0.05"/>
<path d="M-88.3779 311.757L179.722 220.901L651.853 90.6857V311.757H-88.3779Z" stroke="white" stroke-opacity="0.1" stroke-width="2.71763"/>
<path d="M202.187 170.501L653.212 7.302V309.44H-196.599L202.187 170.501Z" fill="white" fill-opacity="0.05"/>
<path d="M202.634 171.784L202.642 171.781L202.649 171.779L651.853 9.23872V308.082H-188.568L202.634 171.784Z" stroke="white" stroke-opacity="0.1" stroke-width="2.71763"/>
<path d="M202.239 119.947L653.212 -43.4219V309.441H-325.246L202.239 119.947Z" fill="white" fill-opacity="0.05"/>
<path d="M202.698 121.226L202.701 121.225L651.853 -41.4844V308.082H-317.444L202.698 121.226Z" stroke="white" stroke-opacity="0.1" stroke-width="2.71763"/>
<path d="M202.239 74.3496L653.212 -89V309.44H-325.246L202.239 74.3496Z" fill="white" fill-opacity="0.05"/>
<path d="M-318.859 308.082L202.747 75.6105L651.853 -87.0626V308.082H-318.859Z" stroke="white" stroke-opacity="0.1" stroke-width="2.71763"/>
<path d="M190.361 265.333L653.212 158.739V320.467H-96.6211L190.361 265.333Z" fill="white" fill-opacity="0.05"/>
<path d="M190.617 266.667L190.642 266.662L190.666 266.657L651.853 160.446V319.109H-82.3462L190.617 266.667Z" stroke="white" stroke-opacity="0.1" stroke-width="2.71763"/>
<path d="M190.361 316.792L653.212 210.198V371.927H-96.6211L190.361 316.792Z" fill="white" fill-opacity="0.05"/>
<path d="M190.617 318.127L190.642 318.122L190.666 318.116L651.853 211.906V370.568H-82.3462L190.617 318.127Z" stroke="white" stroke-opacity="0.1" stroke-width="2.71763"/>
<path d="M274.915 104.797C274.915 104.797 262.67 136.254 258.877 143.627C254.976 150.937 260.083 155.528 268.699 149.329C268.699 149.329 270.903 154.064 277.563 150.143C284.222 146.221 292.196 131.554 292.196 131.554L305.314 135.838L297.825 100.789L274.915 104.797Z" fill="#E27964"/>
<mask id="mask1_50_1499" style="mask-type:alpha" maskUnits="userSpaceOnUse" x="257" y="100" width="49" height="53">
<path d="M274.915 104.797C274.915 104.797 262.67 136.254 258.877 143.627C254.976 150.937 260.083 155.528 268.699 149.329C268.699 149.329 270.903 154.064 277.563 150.143C284.222 146.221 292.196 131.554 292.196 131.554L305.314 135.838L297.825 100.789L274.915 104.797Z" fill="#E27964"/>
</mask>
<g mask="url(#mask1_50_1499)">
<path d="M268.872 149.336C271.831 145.43 278.387 136.235 280.943 130.696C283.499 125.158 284.612 121.761 284.849 120.755C288.695 122.353 292.072 123.773 295.641 124.478" stroke="#C65E49" stroke-width="0.821626" stroke-linecap="round"/>
</g>
<ellipse cx="326.749" cy="193.277" rx="5.43805" ry="32.0356" transform="rotate(34.2661 326.749 193.277)" fill="#A83030"/>
<path d="M301.056 133.687C301.056 133.687 299.472 125.474 299.927 116.984C299.927 116.984 291.412 112.03 287.32 110.842L271.813 113.67L272.135 99.6066C272.135 99.6066 285.862 94.9632 291.091 95.9352C296.319 96.9073 309.388 101.361 316.879 104.57C324.369 107.778 326.594 108.186 327.64 112.04C327.64 112.04 331.196 112.27 332.242 116.124C333.311 120.064 336.355 142.132 340.251 156.153C344.038 170.113 301.056 133.687 301.056 133.687Z" fill="#FE967D"/>
<mask id="mask2_50_1499" style="mask-type:alpha" maskUnits="userSpaceOnUse" x="271" y="95" width="70" height="65">
<path d="M301.056 133.687C301.056 133.687 299.472 125.474 299.927 116.984C299.927 116.984 291.412 112.03 287.32 110.842L271.813 113.67L272.135 99.6066C272.135 99.6066 285.862 94.9632 291.091 95.9352C296.319 96.9073 309.388 101.361 316.879 104.57C324.369 107.778 326.594 108.186 327.64 112.04C327.64 112.04 331.196 112.27 332.242 116.124C333.311 120.064 336.355 142.132 340.251 156.153C344.038 170.113 301.056 133.687 301.056 133.687Z" fill="#FE967D"/>
</mask>
<g mask="url(#mask2_50_1499)">
<path d="M327.817 111.545L328.488 120.02" stroke="#E27964" stroke-width="0.964227" stroke-linecap="round"/>
<path d="M284.797 112.557C286.003 112.311 288.793 110.982 290.301 107.638" stroke="#E27964" stroke-width="0.964227" stroke-linecap="round"/>
</g>
<mask id="mask3_50_1499" style="mask-type:alpha" maskUnits="userSpaceOnUse" x="187" y="74" width="99" height="64">
<path d="M278.708 84.4362C280.917 84.2834 282.874 85.9358 282.991 88.1478L285.45 134.898C285.45 134.898 246.583 145.22 205.89 124.687C202.527 122.99 200.058 119.951 198.841 116.386L188.097 84.909C187.124 82.0586 188.973 79.0238 191.953 78.5825L218.18 74.6972C221.409 74.2189 224.705 74.7833 227.721 76.0317C236.154 79.5216 255.437 86.0454 278.708 84.4362Z" fill="#39DBE3"/>
</mask>
<g mask="url(#mask3_50_1499)">
<path d="M278.708 84.4362C280.917 84.2834 282.874 85.9358 282.991 88.1478L285.45 134.898C285.45 134.898 246.583 145.22 205.89 124.687C202.527 122.99 200.058 119.951 198.841 116.386L188.097 84.909C187.124 82.0586 188.973 79.0238 191.953 78.5825L218.18 74.6972C221.409 74.2189 224.705 74.7833 227.721 76.0317C236.154 79.5216 255.437 86.0454 278.708 84.4362Z" fill="#4A60C3"/>
<path d="M219.522 75.8734L186.763 81.5282C186.158 81.6326 185.656 81.0612 185.838 80.475L187.125 76.3289C187.22 76.0227 187.484 75.7998 187.802 75.7578L219.663 71.5497C219.749 71.5385 219.835 71.5406 219.92 71.5562L283.67 83.2944C283.993 83.3538 284.249 83.5995 284.322 83.9193L285.686 89.8839C285.774 90.2695 285.581 90.6624 285.213 90.8064C268.855 97.1973 235.219 83.7076 220.03 75.9483C219.871 75.8672 219.697 75.8431 219.522 75.8734Z" fill="#5D73D7"/>
<circle cx="196.492" cy="85.707" r="3.20748" fill="#FFD19F"/>
<path d="M260.453 139.546L256.999 124.253C256.802 123.38 257.798 122.733 258.516 123.267L279.07 138.56C279.815 139.114 279.423 140.298 278.495 140.298H261.393C260.942 140.298 260.552 139.985 260.453 139.546Z" fill="#2E43A4"/>
</g>
<path d="M191.599 89.1788C189.083 91.2506 186.544 94.6399 184.66 98.8788C182.776 103.118 181.962 107.273 182.11 110.529C182.262 113.881 183.382 115.808 184.811 116.443C185.985 116.964 187.653 116.762 189.702 115.446C191.72 114.149 194.221 111.46 196.096 108.492L197.276 111.843C195.448 114.433 193.375 116.524 191.265 117.88C188.829 119.445 186.084 120.174 183.636 119.086C180.666 117.766 179.388 114.356 179.22 110.66C179.048 106.868 179.99 102.264 182.017 97.704C184.044 93.1436 186.829 89.3592 189.76 86.9459C192.615 84.5941 196.003 83.2576 198.974 84.5777C199.703 84.9021 200.032 85.7568 199.708 86.4868C199.383 87.2167 198.529 87.5455 197.799 87.221C196.369 86.5857 194.189 87.0456 191.599 89.1788Z" fill="#203551"/>
<ellipse cx="240.716" cy="107.732" rx="15.9835" ry="19.0771" transform="rotate(-30.0303 240.716 107.732)" fill="#2E43A4"/>
<path opacity="0.5" d="M274.7 98.998L275.59 119.283" stroke="white" stroke-width="1.92845" stroke-linecap="round"/>
<path d="M269.674 104.203L269.941 113.868" stroke="white" stroke-width="1.92845" stroke-linecap="round"/>
<path d="M246.182 99.2341C244.421 103.124 239.922 112.187 236.02 117.324" stroke="white" stroke-width="1.92845" stroke-linecap="round"/>
<circle cx="249.912" cy="107.114" r="2.24317" transform="rotate(-24.5795 249.912 107.114)" stroke="white" stroke-width="1.92846"/>
<circle cx="232.74" cy="109.071" r="2.24317" transform="rotate(-24.5795 232.74 109.071)" stroke="white" stroke-width="1.92846"/>
<path d="M301.054 133.687C301.054 133.687 291.493 131.316 287.2 128.71C283.343 126.355 277.883 118.09 263.878 115.27C260.96 114.682 258 116.312 256.829 119.113C255.783 121.695 256.596 124.692 258.804 126.392C263.484 130.087 271.492 136.558 276.583 141.429C284.068 148.684 288.643 162.421 301.152 172.268C313.661 182.114 315.451 185.558 323.133 208.115L359.553 194.773C359.553 194.773 345.184 172.651 340.272 156.239L301.054 133.687Z" fill="#FE967D"/>
<mask id="mask4_50_1499" style="mask-type:alpha" maskUnits="userSpaceOnUse" x="256" y="115" width="104" height="94">
<path d="M301.057 133.687C301.057 133.687 291.495 131.316 287.203 128.71C283.346 126.355 277.886 118.09 263.881 115.27C260.963 114.682 258.003 116.312 256.832 119.113C255.786 121.695 256.599 124.692 258.807 126.392C263.487 130.087 271.495 136.558 276.586 141.429C284.071 148.684 288.646 162.421 301.155 172.268C313.664 182.114 315.453 185.558 323.136 208.115L359.556 194.773C359.556 194.773 345.187 172.651 340.275 156.239L301.057 133.687Z" fill="#FE967D"/>
</mask>
<g mask="url(#mask4_50_1499)">
<path d="M318.615 200.712C334.208 194.646 341.449 175.541 343.972 166.554C344.232 165.628 345.377 165.611 345.458 166.569C346.538 179.321 331.772 200.992 322.723 212.083C322.241 212.674 321.305 212.481 321.078 211.753L318.016 201.924C317.862 201.428 318.131 200.9 318.615 200.712Z" fill="#E27964"/>
<path d="M258.601 115.467C259.978 115.704 263.959 117.074 268.867 120.657C267.656 121.592 264.869 125.004 264.299 127.539C262.439 126.821 257.966 124.661 254.95 121.758" stroke="#E27964" stroke-width="0.964227" stroke-linecap="round"/>
</g>
<mask id="mask5_50_1499" style="mask-type:alpha" maskUnits="userSpaceOnUse" x="308" y="167" width="105" height="99">
<path d="M412.034 259.651C388.424 233.62 357.618 187.121 345.166 167.124C345.701 173.887 329.754 199.37 320.893 209.943C313.805 218.401 309.84 220.011 308.744 219.759C314.342 227.973 327.835 253.901 333.881 265.839L412.034 259.651Z" fill="#2E47BA"/>
</mask>
<g mask="url(#mask5_50_1499)">
<path d="M412.034 259.651C388.424 233.62 357.618 187.12 345.166 167.124C345.701 173.887 329.754 199.37 320.893 209.942C313.805 218.4 309.84 220.01 308.744 219.758C314.342 227.972 327.835 253.901 333.881 265.838L412.034 259.651Z" fill="#E14D4D"/>
<path d="M363.921 149.119L319.814 272.857" stroke="#FAA3A3" stroke-width="1.23244" stroke-linecap="round"/>
<path d="M438.681 229.239L314.943 185.131" stroke="#FAA3A3" stroke-width="1.23244" stroke-linecap="round"/>
<path d="M383.294 164.689L339.187 288.428" stroke="#FAA3A3" stroke-width="1.23244" stroke-linecap="round"/>
<path d="M423.111 248.612L299.373 204.505" stroke="#FAA3A3" stroke-width="1.23244" stroke-linecap="round"/>
<path d="M402.671 180.26L358.564 303.998" stroke="#FAA3A3" stroke-width="1.23244" stroke-linecap="round"/>
<path d="M407.54 267.985L283.801 223.878" stroke="#FAA3A3" stroke-width="1.23244" stroke-linecap="round"/>
</g>
<path d="M388.598 57.531C371.212 57.3952 356.823 70.9448 355.757 88.1174C355.751 88.9453 356.575 89.4692 357.198 89.1636C361.665 87.025 375.262 82.0597 386.876 92.6039C387.698 93.3348 388.836 93.3437 389.566 92.6249C401.342 82.3669 414.861 87.4404 419.294 89.6485C420.016 89.9647 420.848 89.4537 420.751 88.6249C420.161 71.4394 405.985 57.6667 388.598 57.531Z" fill="#F36565"/>
<path d="M378.43 87.3625C378.47 82.1878 379.215 66.3582 388.598 57.5305C388.598 57.5305 366.628 61.1884 365.085 86.5337C368.919 85.8392 373.578 85.7721 378.43 87.3625Z" fill="white"/>
<path d="M398.299 87.5174C398.34 82.3428 397.843 66.5034 388.598 57.5303C388.598 57.5303 410.508 61.5309 411.656 86.8972C407.832 86.1429 403.176 86.003 398.299 87.5174Z" fill="white"/>
<path d="M388.06 126.25L398.536 136.682C398.536 136.682 396.647 152.008 390.224 164.644C389.944 165.195 389.423 165.58 388.81 165.651C386.263 165.945 378.754 166.348 367.204 163.051C365.823 162.657 365.273 160.977 366.066 159.78C368.627 155.907 373.597 147.542 377.428 135.896L388.06 126.25Z" fill="#4A60C3"/>
<path opacity="0.5" d="M384.827 159.865L374.969 158.448" stroke="white" stroke-width="0.945918" stroke-linecap="round"/>
<path d="M382.776 156.971L378.093 156.22" stroke="white" stroke-width="0.945918" stroke-linecap="round"/>
<ellipse cx="384.957" cy="145.927" rx="7.48136" ry="8.92935" transform="rotate(39.5896 384.957 145.927)" fill="#2E43A4"/>
<path d="M388.249 142.742C386.961 144.183 383.79 147.488 381.409 149.178" stroke="white" stroke-width="1.08436" stroke-linecap="round"/>
<circle cx="388.794" cy="146.651" r="1.0159" transform="rotate(-7.15736 388.794 146.651)" stroke="white" stroke-width="1.08436"/>
<circle cx="381.113" cy="145.169" r="1.0159" transform="rotate(-7.15736 381.113 145.169)" stroke="white" stroke-width="1.08436"/>
<path d="M356.896 87.9185L388.035 129.458L419.819 88.4098" stroke="#203551" stroke-width="2.06993" stroke-miterlimit="10" stroke-linecap="round" stroke-linejoin="round"/>
<path d="M388.035 129.458L388.332 91.4761" stroke="#203551" stroke-width="2.06993" stroke-miterlimit="10" stroke-linecap="round" stroke-linejoin="round"/>
<path d="M84.9915 223.911H179.331V198.983H84.9915V223.911Z" fill="#EB934E"/>
<path d="M124.458 199.186H94.5078V224.113H124.458V199.186Z" fill="#F9B66F"/>
<path d="M112.926 199.186H106.043V204.952H112.926V199.186Z" fill="#DE833C"/>
<path d="M84.9915 199.03H179.331V174.102H84.9915V199.03Z" fill="#EB934E"/>
<path d="M84.9915 174.203H179.331V149.275H84.9915V174.203Z" fill="#EB934E"/>
<path d="M124.458 174.258H94.5078V199.186H124.458V174.258Z" fill="#F9B66F"/>
<path d="M124.458 149.432H94.5078V174.359H124.458V149.432Z" fill="#F9B66F"/>
<path d="M112.926 174.258H106.043V180.025H112.926V174.258Z" fill="#DE833C"/>
<path d="M112.926 149.432H106.043V155.199H112.926V149.432Z" fill="#DE833C"/>
<path d="M94.5082 199.186H64.5576V224.113H94.5082V199.186Z" fill="#F9B66F"/>
<path d="M82.9748 199.186H76.0918V204.952H82.9748V199.186Z" fill="#DE833C"/>
<path d="M94.5082 174.258H64.5576V199.186H94.5082V174.258Z" fill="#F9B66F"/>
<path d="M94.5082 149.432H64.5576V174.359H94.5082V149.432Z" fill="#F9B66F"/>
<path d="M82.9748 174.258H76.0918V180.025H82.9748V174.258Z" fill="#DE833C"/>
<path d="M82.9748 149.432H76.0918V155.199H82.9748V149.432Z" fill="#DE833C"/>
<path d="M179.331 199.186L64 199.186" stroke="#DE833C" stroke-width="0.684717" stroke-miterlimit="10"/>
<path d="M179.331 174.203L64 174.203" stroke="#DE833C" stroke-width="0.684717" stroke-miterlimit="10"/>
<path d="M101.935 149.432H124.782V124.067H101.935V149.432Z" fill="#EB934E"/>
<path d="M107.19 124.179H76.8984V149.391H107.19V124.179Z" fill="#F9B66F"/>
<path d="M95.525 124.178H88.5635V130.01H95.525V124.178Z" fill="#DE833C"/>
<path d="M179.331 149.415L64 149.416" stroke="#DE833C" stroke-width="0.684717" stroke-miterlimit="10"/>
<path d="M94.5078 223.927L94.5078 149.432" stroke="#DE833C" stroke-width="0.710443" stroke-miterlimit="10"/>
<path d="M152.58 223.927L152.58 149.432" stroke="#DE833C" stroke-width="0.710443" stroke-miterlimit="10"/>
<path d="M151.124 274.069H245.464V249.142H151.124V274.069Z" fill="#F9B66F"/>
<path d="M190.593 249.345H160.643V274.273H190.593V249.345Z" fill="#FFD19F"/>
<path d="M179.059 249.345H172.176V255.112H179.059V249.345Z" fill="#EB934E"/>
<path d="M151.124 249.188H245.464V224.261H151.124V249.188Z" fill="#F9B66F"/>
<path d="M151.124 224.362H245.464V199.434H151.124V224.362Z" fill="#EB934E"/>
<path d="M190.593 224.417H160.643V249.344H190.593V224.417Z" fill="#FFD19F"/>
<path d="M190.593 199.59H160.643V224.518H190.593V199.59Z" fill="#F9B66F"/>
<path d="M179.059 224.417H172.176V230.183H179.059V224.417Z" fill="#EB934E"/>
<path d="M179.059 199.59H172.176V205.357H179.059V199.59Z" fill="#DE833C"/>
<path d="M160.641 249.345H130.69V274.273H160.641V249.345Z" fill="#FFD19F"/>
<path d="M149.108 249.345H142.225V255.112H149.108V249.345Z" fill="#EB934E"/>
<path d="M160.641 224.417H130.69V249.344H160.641V224.417Z" fill="#FFD19F"/>
<path d="M160.641 199.59H130.69V224.518H160.641V199.59Z" fill="#F9B66F"/>
<path d="M149.108 224.417H142.225V230.183H149.108V224.417Z" fill="#EB934E"/>
<path d="M149.108 199.59H142.225V205.357H149.108V199.59Z" fill="#DE833C"/>
<path d="M245.464 249.345L130.133 249.345" stroke="#EB934E" stroke-width="0.684717" stroke-miterlimit="10"/>
<path d="M245.464 224.362L130.133 224.362" stroke="#EB934E" stroke-width="0.684717" stroke-miterlimit="10"/>
<path d="M160.643 274.086L160.643 199.59" stroke="#DE833C" stroke-width="0.710443" stroke-miterlimit="10"/>
<path d="M218.715 274.086L218.715 199.59" stroke="#DE833C" stroke-width="0.710443" stroke-miterlimit="10"/>
</g>
<defs>
<filter id="filter0_d_50_1499" x="-50" y="-20" width="644" height="361" filterUnits="userSpaceOnUse" color-interpolation-filters="sRGB">
<feFlood flood-opacity="0" result="BackgroundImageFix"/>
<feColorMatrix in="SourceAlpha" type="matrix" values="0 0 0 0 0 0 0 0 0 0 0 0 0 0 0 0 0 0 127 0" result="hardAlpha"/>
<feOffset dy="30"/>
<feGaussianBlur stdDeviation="25"/>
<feColorMatrix type="matrix" values="0 0 0 0 0.804722 0 0 0 0 0.83213 0 0 0 0 0.886945 0 0 0 0.05 0"/>
<feBlend mode="normal" in2="BackgroundImageFix" result="effect1_dropShadow_50_1499"/>
<feBlend mode="normal" in="SourceGraphic" in2="effect1_dropShadow_50_1499" result="shape"/>
</filter>
</defs>
</svg>
