<svg width="375" height="279" viewBox="0 0 375 279" fill="none" xmlns="http://www.w3.org/2000/svg">
<mask id="mask0_4385_223700" style="mask-type:alpha" maskUnits="userSpaceOnUse" x="0" y="0" width="375" height="279">
<path d="M0 0H375V279H0V0Z" fill="#475DC2"/>
</mask>
<g mask="url(#mask0_4385_223700)">
<g filter="url(#filter0_d_4385_223700)">
<path d="M0 0H375V279H0V0Z" fill="#FFD19F"/>
</g>
<path d="M179.323 219.601L653.212 88.9014V313.116H-96.6211L179.323 219.601Z" fill="white" fill-opacity="0.05"/>
<path d="M-88.3779 311.757L179.722 220.901L651.853 90.6857V311.757H-88.3779Z" stroke="white" stroke-opacity="0.1" stroke-width="2.71763"/>
<path d="M202.188 170.501L653.213 7.30176V309.44H-196.598L202.188 170.501Z" fill="white" fill-opacity="0.05"/>
<path d="M202.635 171.784L202.643 171.781L202.65 171.778L651.854 9.23847V308.081H-188.568L202.635 171.784Z" stroke="white" stroke-opacity="0.1" stroke-width="2.71763"/>
<path d="M202.239 119.947L653.212 -43.4219V309.441H-325.246L202.239 119.947Z" fill="white" fill-opacity="0.05"/>
<path d="M202.698 121.226L202.701 121.225L651.853 -41.4844V308.082H-317.444L202.698 121.226Z" stroke="white" stroke-opacity="0.1" stroke-width="2.71763"/>
<path d="M202.239 74.3496L653.212 -89V309.44H-325.246L202.239 74.3496Z" fill="white" fill-opacity="0.05"/>
<path d="M-318.859 308.082L202.747 75.6105L651.853 -87.0626V308.082H-318.859Z" stroke="white" stroke-opacity="0.1" stroke-width="2.71763"/>
<path d="M190.361 265.332L653.212 158.738V320.467H-96.6211L190.361 265.332Z" fill="white" fill-opacity="0.05"/>
<path d="M190.617 266.667L190.642 266.662L190.666 266.656L651.853 160.446V319.108H-82.3462L190.617 266.667Z" stroke="white" stroke-opacity="0.1" stroke-width="2.71763"/>
<path d="M190.361 316.792L653.212 210.198V371.927H-96.6211L190.361 316.792Z" fill="white" fill-opacity="0.05"/>
<path d="M190.617 318.127L190.642 318.122L190.666 318.116L651.853 211.906V370.568H-82.3462L190.617 318.127Z" stroke="white" stroke-opacity="0.1" stroke-width="2.71763"/>
<path d="M218.595 133.126C218.595 133.126 207.16 162.503 203.618 169.388C199.975 176.215 204.744 180.502 212.791 174.713C212.791 174.713 214.849 179.135 221.068 175.473C227.287 171.811 234.733 158.113 234.733 158.113L246.984 162.114L239.99 129.383L218.595 133.126Z" fill="#E27964"/>
<mask id="mask1_4385_223700" style="mask-type:alpha" maskUnits="userSpaceOnUse" x="202" y="129" width="45" height="49">
<path d="M218.595 133.126C218.595 133.126 207.16 162.503 203.618 169.388C199.975 176.215 204.744 180.502 212.791 174.713C212.791 174.713 214.849 179.135 221.068 175.473C227.287 171.811 234.733 158.113 234.733 158.113L246.984 162.114L239.99 129.383L218.595 133.126Z" fill="#E27964"/>
</mask>
<g mask="url(#mask1_4385_223700)">
<path d="M212.953 174.719C215.716 171.072 221.839 162.485 224.226 157.313C226.613 152.141 227.652 148.969 227.873 148.029C231.465 149.521 234.619 150.847 237.952 151.505" stroke="#C65E49" stroke-width="0.76729" stroke-linecap="round"/>
</g>
<ellipse cx="267.001" cy="215.756" rx="5.07842" ry="29.917" transform="rotate(34.2661 267.001 215.756)" fill="#A83030"/>
<path d="M243.008 160.106C243.008 160.106 241.529 152.436 241.953 144.507C241.953 144.507 234.001 139.881 230.18 138.771L215.698 141.412L215.999 128.279C215.999 128.279 228.819 123.943 233.702 124.851C238.584 125.759 250.789 129.918 257.784 132.914C264.779 135.911 266.857 136.291 267.834 139.89C267.834 139.89 271.155 140.106 272.131 143.705C273.129 147.383 275.973 167.992 279.611 181.087C283.147 194.123 243.008 160.106 243.008 160.106Z" fill="#FE967D"/>
<mask id="mask2_4385_223700" style="mask-type:alpha" maskUnits="userSpaceOnUse" x="215" y="124" width="65" height="61">
<path d="M243.008 160.106C243.008 160.106 241.529 152.436 241.953 144.507C241.953 144.507 234.001 139.881 230.18 138.771L215.698 141.412L215.999 128.279C215.999 128.279 228.819 123.943 233.702 124.851C238.584 125.759 250.789 129.918 257.784 132.914C264.779 135.911 266.857 136.291 267.834 139.89C267.834 139.89 271.155 140.106 272.131 143.705C273.129 147.383 275.973 167.992 279.611 181.087C283.147 194.123 243.008 160.106 243.008 160.106Z" fill="#FE967D"/>
</mask>
<g mask="url(#mask2_4385_223700)">
<path d="M268 139.429L268.627 147.343" stroke="#E27964" stroke-width="0.900461" stroke-linecap="round"/>
<path d="M227.825 140.373C228.952 140.143 231.557 138.902 232.966 135.78" stroke="#E27964" stroke-width="0.900461" stroke-linecap="round"/>
</g>
<mask id="mask3_4385_223700" style="mask-type:alpha" maskUnits="userSpaceOnUse" x="137" y="104" width="92" height="60">
<path d="M222.139 114.112C224.203 113.97 226.031 115.513 226.139 117.579L228.436 161.237C228.436 161.237 192.139 170.877 154.137 151.701C150.997 150.117 148.691 147.278 147.554 143.949L137.521 114.554C136.612 111.892 138.339 109.058 141.122 108.646L165.614 105.018C168.63 104.571 171.708 105.098 174.525 106.264C182.399 109.523 200.407 115.615 222.139 114.112Z" fill="#39DBE3"/>
</mask>
<g mask="url(#mask3_4385_223700)">
<path d="M222.139 114.112C224.203 113.97 226.031 115.513 226.139 117.579L228.436 161.237C228.436 161.237 192.139 170.877 154.137 151.701C150.997 150.117 148.691 147.278 147.554 143.949L137.521 114.554C136.612 111.892 138.339 109.058 141.122 108.646L165.614 105.018C168.63 104.571 171.708 105.098 174.525 106.264C182.399 109.523 200.407 115.615 222.139 114.112Z" fill="#4A60C3"/>
<path d="M166.866 106.115L136.274 111.396C135.709 111.493 135.241 110.96 135.41 110.412L136.612 106.54C136.701 106.255 136.948 106.046 137.244 106.007L166.999 102.077C167.079 102.067 167.159 102.069 167.238 102.083L226.773 113.045C227.074 113.101 227.313 113.33 227.382 113.629L228.655 119.199C228.737 119.559 228.557 119.926 228.213 120.061C212.937 126.029 181.526 113.431 167.341 106.185C167.193 106.109 167.03 106.087 166.866 106.115Z" fill="#5D73D7"/>
<circle cx="145.359" cy="115.299" r="2.99536" fill="#FFD19F"/>
<path d="M205.089 165.577L201.864 151.296C201.68 150.48 202.609 149.876 203.28 150.375L222.475 164.656C223.171 165.174 222.805 166.279 221.937 166.279H205.967C205.546 166.279 205.181 165.987 205.089 165.577Z" fill="#2E43A4"/>
</g>
<path d="M140.786 118.542C138.437 120.476 136.067 123.641 134.307 127.6C132.548 131.559 131.787 135.439 131.925 138.48C132.068 141.61 133.113 143.409 134.448 144.003C135.544 144.49 137.102 144.3 139.015 143.071C140.9 141.861 143.235 139.349 144.987 136.577L146.089 139.706C144.381 142.126 142.445 144.079 140.475 145.344C138.2 146.806 135.637 147.487 133.351 146.471C130.577 145.238 129.384 142.054 129.227 138.602C129.066 135.061 129.946 130.762 131.839 126.503C133.731 122.244 136.333 118.71 139.069 116.456C141.736 114.26 144.9 113.012 147.674 114.245C148.355 114.548 148.662 115.346 148.359 116.027C148.057 116.709 147.258 117.016 146.577 116.713C145.242 116.12 143.206 116.549 140.786 118.542Z" fill="#203551"/>
<ellipse cx="186.659" cy="135.867" rx="14.9265" ry="17.8155" transform="rotate(-30.0303 186.659 135.867)" fill="#2E43A4"/>
<path opacity="0.5" d="M218.395 127.711L219.225 146.655" stroke="white" stroke-width="1.80092" stroke-linecap="round"/>
<path d="M213.699 132.571L213.949 141.597" stroke="white" stroke-width="1.80092" stroke-linecap="round"/>
<path d="M191.764 127.931C190.119 131.564 185.919 140.028 182.274 144.825" stroke="white" stroke-width="1.80092" stroke-linecap="round"/>
<circle cx="195.245" cy="135.29" r="2.09482" transform="rotate(-24.5795 195.245 135.29)" stroke="white" stroke-width="1.80092"/>
<circle cx="179.21" cy="137.118" r="2.09482" transform="rotate(-24.5795 179.21 137.118)" stroke="white" stroke-width="1.80092"/>
<path d="M243.006 160.105C243.006 160.105 234.076 157.891 230.067 155.458C226.465 153.258 221.366 145.54 208.288 142.906C205.563 142.358 202.799 143.88 201.705 146.495C200.728 148.907 201.487 151.706 203.549 153.293C207.92 156.744 215.398 162.787 220.153 167.335C227.143 174.111 231.415 186.94 243.097 196.135C254.779 205.33 256.45 208.547 263.624 229.612L297.635 217.152C297.635 217.152 284.217 196.493 279.63 181.166L243.006 160.105Z" fill="#FE967D"/>
<mask id="mask4_4385_223700" style="mask-type:alpha" maskUnits="userSpaceOnUse" x="201" y="142" width="97" height="88">
<path d="M243.009 160.105C243.009 160.105 234.08 157.891 230.071 155.458C226.469 153.258 221.37 145.54 208.291 142.906C205.567 142.358 202.803 143.88 201.709 146.495C200.732 148.907 201.491 151.706 203.553 153.293C207.924 156.744 215.402 162.787 220.156 167.335C227.146 174.111 231.419 186.94 243.101 196.135C254.783 205.33 256.454 208.547 263.628 229.612L297.639 217.152C297.639 217.152 284.221 196.493 279.634 181.166L243.009 160.105Z" fill="#FE967D"/>
</mask>
<g mask="url(#mask4_4385_223700)">
<path d="M259.408 222.698C273.969 217.033 280.732 199.192 283.087 190.799C283.33 189.934 284.399 189.918 284.475 190.813C285.484 202.721 271.695 222.959 263.244 233.317C262.794 233.869 261.919 233.689 261.708 233.009L258.848 223.83C258.704 223.367 258.956 222.873 259.408 222.698Z" fill="#E27964"/>
<path d="M203.363 143.092C204.649 143.313 208.366 144.591 212.949 147.937C211.819 148.811 209.216 151.997 208.683 154.364C206.947 153.695 202.769 151.677 199.953 148.966" stroke="#E27964" stroke-width="0.900461" stroke-linecap="round"/>
</g>
<mask id="mask5_4385_223700" style="mask-type:alpha" maskUnits="userSpaceOnUse" x="250" y="191" width="97" height="93">
<path d="M346.646 277.739C324.597 253.43 295.828 210.005 284.2 191.331C284.7 197.647 269.807 221.445 261.532 231.318C254.912 239.216 251.21 240.72 250.187 240.485C255.414 248.156 268.014 272.369 273.661 283.517L346.646 277.739Z" fill="#2E47BA"/>
</mask>
<g mask="url(#mask5_4385_223700)">
<path d="M346.646 277.739C324.597 253.43 295.828 210.005 284.2 191.331C284.7 197.647 269.807 221.445 261.532 231.318C254.912 239.216 251.21 240.72 250.187 240.485C255.414 248.156 268.014 272.369 273.661 283.517L346.646 277.739Z" fill="#E14D4D"/>
<path d="M301.713 174.516L260.522 290.071" stroke="#FAA3A3" stroke-width="1.15094" stroke-linecap="round"/>
<path d="M371.531 249.338L255.976 208.147" stroke="#FAA3A3" stroke-width="1.15094" stroke-linecap="round"/>
<path d="M319.806 189.057L278.616 304.612" stroke="#FAA3A3" stroke-width="1.15094" stroke-linecap="round"/>
<path d="M356.992 267.43L241.436 226.239" stroke="#FAA3A3" stroke-width="1.15094" stroke-linecap="round"/>
<path d="M337.904 203.598L296.714 319.153" stroke="#FAA3A3" stroke-width="1.15094" stroke-linecap="round"/>
<path d="M342.449 285.522L226.894 244.332" stroke="#FAA3A3" stroke-width="1.15094" stroke-linecap="round"/>
</g>
<path d="M324.757 88.9841C308.52 88.8573 295.083 101.511 294.088 117.548C294.082 118.321 294.851 118.81 295.433 118.525C299.605 116.528 312.303 111.891 323.148 121.738C323.916 122.42 324.979 122.428 325.661 121.757C336.658 112.178 349.282 116.916 353.423 118.978C354.097 119.273 354.874 118.796 354.783 118.022C354.232 101.973 340.994 89.1109 324.757 88.9841Z" fill="#F36565"/>
<path d="M315.261 116.843C315.299 112.01 315.994 97.2274 324.758 88.9835C324.758 88.9835 304.24 92.3995 302.799 116.069C306.38 115.42 310.73 115.357 315.261 116.843Z" fill="white"/>
<path d="M333.814 116.987C333.852 112.154 333.387 97.3624 324.754 88.9827C324.754 88.9827 345.216 92.7187 346.287 116.408C342.716 115.703 338.368 115.572 333.814 116.987Z" fill="white"/>
<path d="M324.254 153.158L334.037 162.9C334.037 162.9 332.273 177.213 326.274 189.013C326.013 189.528 325.527 189.887 324.954 189.953C322.576 190.228 315.563 190.604 304.777 187.526C303.487 187.158 302.974 185.589 303.714 184.47C306.105 180.854 310.747 173.042 314.325 162.166L324.254 153.158Z" fill="#4A60C3"/>
<path opacity="0.5" d="M321.234 184.55L312.028 183.227" stroke="white" stroke-width="0.883363" stroke-linecap="round"/>
<path d="M319.32 181.847L314.947 181.146" stroke="white" stroke-width="0.883363" stroke-linecap="round"/>
<ellipse cx="321.359" cy="171.534" rx="6.9866" ry="8.33884" transform="rotate(39.5896 321.359 171.534)" fill="#2E43A4"/>
<path d="M324.431 168.56C323.228 169.906 320.267 172.992 318.043 174.569" stroke="white" stroke-width="1.01265" stroke-linecap="round"/>
<circle cx="324.938" cy="172.21" r="0.948712" transform="rotate(-7.15736 324.938 172.21)" stroke="white" stroke-width="1.01265"/>
<circle cx="317.767" cy="170.826" r="0.948712" transform="rotate(-7.15736 317.767 170.826)" stroke="white" stroke-width="1.01265"/>
<path d="M295.148 117.362L324.229 156.154L353.911 117.82" stroke="#203551" stroke-width="1.93304" stroke-miterlimit="10" stroke-linecap="round" stroke-linejoin="round"/>
<path d="M324.231 156.154L324.508 120.684" stroke="#203551" stroke-width="1.93304" stroke-miterlimit="10" stroke-linecap="round" stroke-linejoin="round"/>
<path d="M41.2274 244.359H129.328V221.08H41.2274V244.359Z" fill="#EB934E"/>
<path d="M78.0871 221.27H50.1172V244.549H78.0871V221.27Z" fill="#F9B66F"/>
<path d="M67.3146 221.27H60.8867V226.655H67.3146V221.27Z" fill="#DE833C"/>
<path d="M41.2274 221.123H129.328V197.844H41.2274V221.123Z" fill="#EB934E"/>
<path d="M41.2274 197.939H129.328V174.66H41.2274V197.939Z" fill="#EB934E"/>
<path d="M78.0871 197.99H50.1172V221.27H78.0871V197.99Z" fill="#F9B66F"/>
<path d="M78.0871 174.806H50.1172V198.085H78.0871V174.806Z" fill="#F9B66F"/>
<path d="M67.3146 197.99H60.8867V203.376H67.3146V197.99Z" fill="#DE833C"/>
<path d="M67.3146 174.806H60.8867V180.191H67.3146V174.806Z" fill="#DE833C"/>
<path d="M50.1144 221.27H22.1445V244.549H50.1144V221.27Z" fill="#F9B66F"/>
<path d="M39.3458 221.27H32.918V226.655H39.3458V221.27Z" fill="#DE833C"/>
<path d="M50.1144 197.99H22.1445V221.27H50.1144V197.99Z" fill="#F9B66F"/>
<path d="M50.1144 174.806H22.1445V198.085H50.1144V174.806Z" fill="#F9B66F"/>
<path d="M39.3458 197.99H32.918V203.376H39.3458V197.99Z" fill="#DE833C"/>
<path d="M39.3458 174.806H32.918V180.191H39.3458V174.806Z" fill="#DE833C"/>
<path d="M129.329 221.27L21.625 221.27" stroke="#DE833C" stroke-width="0.639435" stroke-miterlimit="10"/>
<path d="M129.329 197.939L21.625 197.939" stroke="#DE833C" stroke-width="0.639435" stroke-miterlimit="10"/>
<path d="M57.0548 174.806H78.3906V151.118H57.0548V174.806Z" fill="#EB934E"/>
<path d="M61.9605 151.223H33.6719V174.767H61.9605V151.223Z" fill="#F9B66F"/>
<path d="M51.0636 151.222H44.5625V156.669H51.0636V151.222Z" fill="#DE833C"/>
<path d="M129.329 174.79L21.625 174.79" stroke="#DE833C" stroke-width="0.639435" stroke-miterlimit="10"/>
<path d="M50.1172 244.375L50.1172 174.806" stroke="#DE833C" stroke-width="0.66346" stroke-miterlimit="10"/>
<path d="M104.348 244.375L104.348 174.806" stroke="#DE833C" stroke-width="0.66346" stroke-miterlimit="10"/>
<path d="M102.989 291.201H191.09V267.922H102.989V291.201Z" fill="#F9B66F"/>
<path d="M139.849 268.111H111.879V291.391H139.849V268.111Z" fill="#FFD19F"/>
<path d="M129.076 268.111H122.648V273.497H129.076V268.111Z" fill="#EB934E"/>
<path d="M102.989 267.966H191.09V244.687H102.989V267.966Z" fill="#F9B66F"/>
<path d="M102.989 244.781H191.09V221.502H102.989V244.781Z" fill="#EB934E"/>
<path d="M139.849 244.832H111.879V268.111H139.849V244.832Z" fill="#FFD19F"/>
<path d="M139.849 221.648H111.879V244.928H139.849V221.648Z" fill="#F9B66F"/>
<path d="M129.076 244.832H122.648V250.218H129.076V244.832Z" fill="#EB934E"/>
<path d="M129.076 221.647H122.648V227.033H129.076V221.647Z" fill="#DE833C"/>
<path d="M111.876 268.111H83.9062V291.391H111.876V268.111Z" fill="#FFD19F"/>
<path d="M101.108 268.111H94.6797V273.497H101.108V268.111Z" fill="#EB934E"/>
<path d="M111.876 244.832H83.9062V268.111H111.876V244.832Z" fill="#FFD19F"/>
<path d="M111.876 221.648H83.9062V244.928H111.876V221.648Z" fill="#F9B66F"/>
<path d="M101.108 244.832H94.6797V250.218H101.108V244.832Z" fill="#EB934E"/>
<path d="M101.108 221.648H94.6797V227.034H101.108V221.648Z" fill="#DE833C"/>
<path d="M191.091 268.111L83.3867 268.111" stroke="#EB934E" stroke-width="0.639435" stroke-miterlimit="10"/>
<path d="M191.091 244.781L83.3867 244.781" stroke="#EB934E" stroke-width="0.639435" stroke-miterlimit="10"/>
<path d="M111.879 291.217L111.879 221.647" stroke="#DE833C" stroke-width="0.66346" stroke-miterlimit="10"/>
<path d="M166.109 291.217L166.109 221.647" stroke="#DE833C" stroke-width="0.66346" stroke-miterlimit="10"/>
</g>
<defs>
<filter id="filter0_d_4385_223700" x="-50" y="-20" width="475" height="379" filterUnits="userSpaceOnUse" color-interpolation-filters="sRGB">
<feFlood flood-opacity="0" result="BackgroundImageFix"/>
<feColorMatrix in="SourceAlpha" type="matrix" values="0 0 0 0 0 0 0 0 0 0 0 0 0 0 0 0 0 0 127 0" result="hardAlpha"/>
<feOffset dy="30"/>
<feGaussianBlur stdDeviation="25"/>
<feColorMatrix type="matrix" values="0 0 0 0 0.804722 0 0 0 0 0.83213 0 0 0 0 0.886945 0 0 0 0.05 0"/>
<feBlend mode="normal" in2="BackgroundImageFix" result="effect1_dropShadow_4385_223700"/>
<feBlend mode="normal" in="SourceGraphic" in2="effect1_dropShadow_4385_223700" result="shape"/>
</filter>
</defs>
</svg>
