<svg width="544" height="261" viewBox="0 0 544 261" fill="none" xmlns="http://www.w3.org/2000/svg">
<mask id="mask0_3142_153331" style="mask-type:alpha" maskUnits="userSpaceOnUse" x="0" y="0" width="544" height="261">
<path d="M0 0H544V249C544 255.627 538.627 261 532 261H12C5.37259 261 0 255.627 0 249V0Z" fill="#475DC2"/>
</mask>
<g mask="url(#mask0_3142_153331)">
<g filter="url(#filter0_d_3142_153331)">
<path d="M0 0H544V249C544 255.627 538.627 261 532 261H12C5.37259 261 0 255.627 0 249V0Z" fill="#272B41"/>
</g>
<g opacity="0.4">
<path d="M179.323 219.601L653.212 88.9014V313.116H-96.6211L179.323 219.601Z" fill="white" fill-opacity="0.05"/>
<path d="M-88.3779 311.757L179.722 220.901L651.853 90.6857V311.757H-88.3779Z" stroke="white" stroke-opacity="0.1" stroke-width="2.71763"/>
</g>
<g opacity="0.4">
<path d="M202.188 170.501L653.213 7.302V309.44H-196.598L202.188 170.501Z" fill="white" fill-opacity="0.05"/>
<path d="M202.635 171.784L202.643 171.781L202.65 171.779L651.854 9.23872V308.082H-188.568L202.635 171.784Z" stroke="white" stroke-opacity="0.1" stroke-width="2.71763"/>
</g>
<g opacity="0.4">
<path d="M202.239 119.947L653.212 -43.4219V309.441H-325.246L202.239 119.947Z" fill="white" fill-opacity="0.05"/>
<path d="M202.698 121.226L202.701 121.225L651.853 -41.4844V308.082H-317.444L202.698 121.226Z" stroke="white" stroke-opacity="0.1" stroke-width="2.71763"/>
</g>
<g opacity="0.4">
<path d="M202.239 74.3496L653.212 -89V309.44H-325.246L202.239 74.3496Z" fill="white" fill-opacity="0.05"/>
<path d="M-318.859 308.082L202.747 75.6105L651.853 -87.0626V308.082H-318.859Z" stroke="white" stroke-opacity="0.1" stroke-width="2.71763"/>
</g>
<g opacity="0.4">
<path d="M190.361 265.333L653.212 158.739V320.467H-96.6211L190.361 265.333Z" fill="white" fill-opacity="0.05"/>
<path d="M190.617 266.667L190.642 266.662L190.666 266.657L651.853 160.446V319.109H-82.3462L190.617 266.667Z" stroke="white" stroke-opacity="0.1" stroke-width="2.71763"/>
</g>
<g opacity="0.4">
<path d="M190.361 316.792L653.212 210.198V371.927H-96.6211L190.361 316.792Z" fill="white" fill-opacity="0.05"/>
<path d="M190.617 318.127L190.642 318.122L190.666 318.116L651.853 211.906V370.568H-82.3462L190.617 318.127Z" stroke="white" stroke-opacity="0.1" stroke-width="2.71763"/>
</g>
<path d="M274.914 104.797C274.914 104.797 262.669 136.253 258.876 143.626C254.975 150.937 260.082 155.528 268.698 149.329C268.698 149.329 270.902 154.063 277.562 150.142C284.221 146.221 292.195 131.553 292.195 131.553L305.313 135.837L297.824 100.788L274.914 104.797Z" fill="#E27964"/>
<mask id="mask1_3142_153331" style="mask-type:alpha" maskUnits="userSpaceOnUse" x="257" y="100" width="49" height="53">
<path d="M274.914 104.797C274.914 104.797 262.669 136.253 258.876 143.626C254.975 150.937 260.082 155.528 268.698 149.329C268.698 149.329 270.902 154.063 277.562 150.142C284.221 146.221 292.195 131.553 292.195 131.553L305.313 135.837L297.824 100.788L274.914 104.797Z" fill="#E27964"/>
</mask>
<g mask="url(#mask1_3142_153331)">
<path d="M268.871 149.335C271.83 145.43 278.386 136.234 280.942 130.696C283.499 125.157 284.611 121.761 284.848 120.755C288.694 122.353 292.072 123.772 295.641 124.477" stroke="#C65E49" stroke-width="0.821626" stroke-linecap="round"/>
</g>
<ellipse cx="326.75" cy="193.277" rx="5.43805" ry="32.0356" transform="rotate(34.2661 326.75 193.277)" fill="#A83030"/>
<path d="M301.058 133.686C301.058 133.686 299.473 125.473 299.928 116.983C299.928 116.983 291.413 112.03 287.321 110.841L271.814 113.669L272.136 99.6061C272.136 99.6061 285.863 94.9627 291.092 95.9348C296.32 96.9068 309.389 101.36 316.88 104.569C324.37 107.778 326.596 108.186 327.641 112.039C327.641 112.039 331.197 112.27 332.243 116.124C333.312 120.063 336.356 142.131 340.252 156.153C344.039 170.112 301.058 133.686 301.058 133.686Z" fill="#FE967D"/>
<mask id="mask2_3142_153331" style="mask-type:alpha" maskUnits="userSpaceOnUse" x="271" y="95" width="70" height="65">
<path d="M301.058 133.686C301.058 133.686 299.473 125.473 299.928 116.983C299.928 116.983 291.413 112.03 287.321 110.841L271.814 113.669L272.136 99.6061C272.136 99.6061 285.863 94.9627 291.092 95.9348C296.32 96.9068 309.389 101.36 316.88 104.569C324.37 107.778 326.596 108.186 327.641 112.039C327.641 112.039 331.197 112.27 332.243 116.124C333.312 120.063 336.356 142.131 340.252 156.153C344.039 170.112 301.058 133.686 301.058 133.686Z" fill="#FE967D"/>
</mask>
<g mask="url(#mask2_3142_153331)">
<path d="M327.82 111.545L328.491 120.02" stroke="#E27964" stroke-width="0.964227" stroke-linecap="round"/>
<path d="M284.798 112.557C286.004 112.31 288.794 110.981 290.302 107.638" stroke="#E27964" stroke-width="0.964227" stroke-linecap="round"/>
</g>
<mask id="mask3_3142_153331" style="mask-type:alpha" maskUnits="userSpaceOnUse" x="187" y="74" width="99" height="64">
<path d="M278.709 84.4362C280.918 84.2834 282.875 85.9358 282.992 88.1478L285.451 134.898C285.451 134.898 246.584 145.22 205.891 124.687C202.528 122.99 200.059 119.951 198.842 116.386L188.098 84.909C187.125 82.0586 188.974 79.0238 191.954 78.5825L218.181 74.6972C221.41 74.2189 224.706 74.7833 227.722 76.0317C236.155 79.5216 255.438 86.0454 278.709 84.4362Z" fill="#39DBE3"/>
</mask>
<g mask="url(#mask3_3142_153331)">
<path d="M278.709 84.4362C280.918 84.2834 282.875 85.9358 282.992 88.1478L285.451 134.898C285.451 134.898 246.584 145.22 205.891 124.687C202.528 122.99 200.059 119.951 198.842 116.386L188.098 84.909C187.125 82.0586 188.974 79.0238 191.954 78.5825L218.181 74.6972C221.41 74.2189 224.706 74.7833 227.722 76.0317C236.155 79.5216 255.438 86.0454 278.709 84.4362Z" fill="#4A60C3"/>
<path d="M219.523 75.8734L186.764 81.5282C186.159 81.6326 185.657 81.0612 185.839 80.475L187.126 76.3289C187.221 76.0227 187.485 75.7998 187.803 75.7578L219.664 71.5497C219.75 71.5385 219.836 71.5406 219.921 71.5562L283.671 83.2944C283.994 83.3538 284.25 83.5995 284.323 83.9193L285.687 89.8839C285.775 90.2695 285.582 90.6624 285.214 90.8064C268.856 97.1973 235.22 83.7076 220.031 75.9483C219.872 75.8672 219.698 75.8431 219.523 75.8734Z" fill="#5D73D7"/>
<circle cx="196.493" cy="85.707" r="3.20748" fill="#FFD19F"/>
<path d="M260.453 139.546L257 124.253C256.802 123.38 257.798 122.733 258.516 123.267L279.07 138.56C279.815 139.114 279.423 140.298 278.495 140.298H261.393C260.943 140.298 260.552 139.985 260.453 139.546Z" fill="#2E43A4"/>
</g>
<path d="M191.601 89.1788C189.085 91.2506 186.546 94.6399 184.662 98.8788C182.778 103.118 181.964 107.273 182.112 110.529C182.264 113.881 183.384 115.808 184.813 116.443C185.987 116.964 187.655 116.762 189.704 115.446C191.722 114.149 194.223 111.46 196.098 108.492L197.278 111.843C195.45 114.433 193.377 116.524 191.267 117.88C188.831 119.445 186.086 120.174 183.638 119.086C180.668 117.766 179.39 114.356 179.222 110.66C179.05 106.868 179.992 102.264 182.019 97.704C184.046 93.1436 186.831 89.3592 189.762 86.9459C192.617 84.5941 196.005 83.2576 198.976 84.5777C199.705 84.9021 200.034 85.7568 199.71 86.4868C199.385 87.2167 198.531 87.5455 197.801 87.221C196.371 86.5857 194.191 87.0456 191.601 89.1788Z" fill="#203551"/>
<ellipse cx="240.717" cy="107.731" rx="15.9835" ry="19.0771" transform="rotate(-30.0303 240.717 107.731)" fill="#2E43A4"/>
<path opacity="0.5" d="M274.699 98.998L275.589 119.283" stroke="white" stroke-width="1.92845" stroke-linecap="round"/>
<path d="M269.672 104.203L269.939 113.868" stroke="white" stroke-width="1.92845" stroke-linecap="round"/>
<path d="M246.182 99.2336C244.421 103.123 239.922 112.187 236.02 117.323" stroke="white" stroke-width="1.92845" stroke-linecap="round"/>
<circle cx="249.914" cy="107.114" r="2.24317" transform="rotate(-24.5795 249.914 107.114)" stroke="white" stroke-width="1.92846"/>
<circle cx="232.739" cy="109.071" r="2.24317" transform="rotate(-24.5795 232.739 109.071)" stroke="white" stroke-width="1.92846"/>
<path d="M301.054 133.687C301.054 133.687 291.493 131.316 287.2 128.71C283.343 126.355 277.883 118.09 263.878 115.27C260.96 114.682 258 116.312 256.829 119.113C255.783 121.695 256.596 124.692 258.804 126.392C263.484 130.087 271.492 136.558 276.583 141.429C284.068 148.684 288.643 162.421 301.152 172.268C313.661 182.114 315.451 185.558 323.133 208.115L359.553 194.773C359.553 194.773 345.184 172.651 340.272 156.239L301.054 133.687Z" fill="#FE967D"/>
<mask id="mask4_3142_153331" style="mask-type:alpha" maskUnits="userSpaceOnUse" x="256" y="115" width="104" height="94">
<path d="M301.058 133.686C301.058 133.686 291.496 131.315 287.204 128.71C283.347 126.354 277.887 118.09 263.882 115.269C260.964 114.682 258.004 116.312 256.833 119.112C255.787 121.695 256.6 124.692 258.808 126.392C263.488 130.087 271.496 136.557 276.587 141.428C284.072 148.684 288.647 162.421 301.156 172.267C313.665 182.113 315.454 185.558 323.137 208.115L359.557 194.773C359.557 194.773 345.188 172.651 340.276 156.238L301.058 133.686Z" fill="#FE967D"/>
</mask>
<g mask="url(#mask4_3142_153331)">
<path d="M318.615 200.711C334.208 194.645 341.449 175.541 343.972 166.553C344.232 165.627 345.377 165.611 345.458 166.569C346.538 179.32 331.772 200.991 322.723 212.083C322.241 212.674 321.305 212.48 321.078 211.752L318.016 201.924C317.862 201.428 318.131 200.899 318.615 200.711Z" fill="#E27964"/>
<path d="M258.604 115.467C259.981 115.704 263.962 117.074 268.869 120.657C267.659 121.592 264.872 125.004 264.302 127.539C262.442 126.821 257.968 124.661 254.953 121.758" stroke="#E27964" stroke-width="0.964227" stroke-linecap="round"/>
</g>
<mask id="mask5_3142_153331" style="mask-type:alpha" maskUnits="userSpaceOnUse" x="308" y="167" width="105" height="99">
<path d="M412.036 259.651C388.426 233.62 357.62 187.121 345.168 167.124C345.703 173.887 329.756 199.37 320.895 209.943C313.807 218.401 309.842 220.011 308.746 219.759C314.344 227.973 327.837 253.901 333.883 265.839L412.036 259.651Z" fill="#2E47BA"/>
</mask>
<g mask="url(#mask5_3142_153331)">
<path d="M412.036 259.651C388.426 233.62 357.62 187.12 345.168 167.124C345.703 173.887 329.756 199.37 320.895 209.942C313.807 218.4 309.842 220.01 308.746 219.758C314.344 227.972 327.837 253.901 333.883 265.838L412.036 259.651Z" fill="#E14D4D"/>
<path d="M363.923 149.119L319.816 272.857" stroke="#FAA3A3" stroke-width="1.23244" stroke-linecap="round"/>
<path d="M438.686 229.239L314.948 185.131" stroke="#FAA3A3" stroke-width="1.23244" stroke-linecap="round"/>
<path d="M383.298 164.689L339.191 288.428" stroke="#FAA3A3" stroke-width="1.23244" stroke-linecap="round"/>
<path d="M423.116 248.612L299.377 204.505" stroke="#FAA3A3" stroke-width="1.23244" stroke-linecap="round"/>
<path d="M402.673 180.26L358.566 303.998" stroke="#FAA3A3" stroke-width="1.23244" stroke-linecap="round"/>
<path d="M407.541 267.985L283.803 223.878" stroke="#FAA3A3" stroke-width="1.23244" stroke-linecap="round"/>
</g>
<path d="M388.6 57.531C371.214 57.3952 356.825 70.9448 355.759 88.1174C355.753 88.9453 356.577 89.4692 357.2 89.1636C361.667 87.025 375.264 82.0597 386.878 92.6039C387.7 93.3348 388.838 93.3437 389.568 92.6249C401.344 82.3669 414.863 87.4404 419.296 89.6485C420.018 89.9647 420.85 89.4537 420.753 88.6249C420.163 71.4394 405.987 57.6667 388.6 57.531Z" fill="#F36565"/>
<path d="M378.433 87.3625C378.474 82.1878 379.218 66.3582 388.602 57.5305C388.602 57.5305 366.632 61.1884 365.088 86.5337C368.923 85.8392 373.581 85.7721 378.433 87.3625Z" fill="white"/>
<path d="M398.299 87.5174C398.34 82.3428 397.843 66.5034 388.598 57.5303C388.598 57.5303 410.508 61.5309 411.656 86.8972C407.832 86.1429 403.176 86.003 398.299 87.5174Z" fill="white"/>
<path d="M388.063 126.25L398.539 136.682C398.539 136.682 396.65 152.008 390.227 164.644C389.947 165.195 389.426 165.58 388.813 165.651C386.266 165.945 378.757 166.348 367.207 163.051C365.826 162.657 365.276 160.977 366.069 159.78C368.63 155.907 373.6 147.542 377.431 135.896L388.063 126.25Z" fill="#4A60C3"/>
<path opacity="0.5" d="M384.828 159.865L374.97 158.448" stroke="white" stroke-width="0.945918" stroke-linecap="round"/>
<path d="M382.777 156.971L378.094 156.22" stroke="white" stroke-width="0.945918" stroke-linecap="round"/>
<ellipse cx="384.958" cy="145.927" rx="7.48136" ry="8.92935" transform="rotate(39.5896 384.958 145.927)" fill="#2E43A4"/>
<path d="M388.249 142.742C386.961 144.183 383.79 147.488 381.409 149.178" stroke="white" stroke-width="1.08436" stroke-linecap="round"/>
<circle cx="388.795" cy="146.651" r="1.0159" transform="rotate(-7.15736 388.795 146.651)" stroke="white" stroke-width="1.08436"/>
<circle cx="381.115" cy="145.169" r="1.0159" transform="rotate(-7.15736 381.115 145.169)" stroke="white" stroke-width="1.08436"/>
<path d="M356.898 87.9185L388.038 129.458L419.822 88.4098" stroke="#203551" stroke-width="2.06993" stroke-miterlimit="10" stroke-linecap="round" stroke-linejoin="round"/>
<path d="M388.039 129.458L388.336 91.4761" stroke="#203551" stroke-width="2.06993" stroke-miterlimit="10" stroke-linecap="round" stroke-linejoin="round"/>
<path d="M84.9924 223.911H179.332V198.983H84.9924V223.911Z" fill="#EB934E"/>
<path d="M124.458 199.186H94.5078V224.113H124.458V199.186Z" fill="#F9B66F"/>
<path d="M112.926 199.186H106.043V204.952H112.926V199.186Z" fill="#DE833C"/>
<path d="M84.9924 199.03H179.332V174.102H84.9924V199.03Z" fill="#EB934E"/>
<path d="M84.9924 174.203H179.332V149.275H84.9924V174.203Z" fill="#EB934E"/>
<path d="M124.458 174.258H94.5078V199.186H124.458V174.258Z" fill="#F9B66F"/>
<path d="M124.458 149.432H94.5078V174.359H124.458V149.432Z" fill="#F9B66F"/>
<path d="M112.926 174.258H106.043V180.025H112.926V174.258Z" fill="#DE833C"/>
<path d="M112.926 149.432H106.043V155.199H112.926V149.432Z" fill="#DE833C"/>
<path d="M94.5092 199.186H64.5586V224.113H94.5092V199.186Z" fill="#F9B66F"/>
<path d="M82.9768 199.186H76.0938V204.952H82.9768V199.186Z" fill="#DE833C"/>
<path d="M94.5092 174.258H64.5586V199.186H94.5092V174.258Z" fill="#F9B66F"/>
<path d="M94.5092 149.432H64.5586V174.359H94.5092V149.432Z" fill="#F9B66F"/>
<path d="M82.9768 174.258H76.0938V180.025H82.9768V174.258Z" fill="#DE833C"/>
<path d="M82.9768 149.432H76.0938V155.199H82.9768V149.432Z" fill="#DE833C"/>
<path d="M179.331 199.186L64 199.186" stroke="#DE833C" stroke-width="0.684717" stroke-miterlimit="10"/>
<path d="M179.331 174.203L64 174.203" stroke="#DE833C" stroke-width="0.684717" stroke-miterlimit="10"/>
<path d="M101.934 149.432H124.781V124.067H101.934V149.432Z" fill="#EB934E"/>
<path d="M107.19 124.179H76.8984V149.391H107.19V124.179Z" fill="#F9B66F"/>
<path d="M95.524 124.178H88.5625V130.01H95.524V124.178Z" fill="#DE833C"/>
<path d="M179.331 149.415L64 149.416" stroke="#DE833C" stroke-width="0.684717" stroke-miterlimit="10"/>
<path d="M94.5078 223.927L94.5078 149.432" stroke="#DE833C" stroke-width="0.710443" stroke-miterlimit="10"/>
<path d="M152.578 223.927L152.578 149.432" stroke="#DE833C" stroke-width="0.710443" stroke-miterlimit="10"/>
<path d="M151.125 274.069H245.465V249.142H151.125V274.069Z" fill="#F9B66F"/>
<path d="M190.591 249.345H160.641V274.273H190.591V249.345Z" fill="#FFD19F"/>
<path d="M179.059 249.345H172.176V255.112H179.059V249.345Z" fill="#EB934E"/>
<path d="M151.125 249.188H245.465V224.261H151.125V249.188Z" fill="#F9B66F"/>
<path d="M151.125 224.362H245.465V199.434H151.125V224.362Z" fill="#EB934E"/>
<path d="M190.591 224.417H160.641V249.344H190.591V224.417Z" fill="#FFD19F"/>
<path d="M190.591 199.59H160.641V224.518H190.591V199.59Z" fill="#F9B66F"/>
<path d="M179.059 224.417H172.176V230.183H179.059V224.417Z" fill="#EB934E"/>
<path d="M179.059 199.59H172.176V205.357H179.059V199.59Z" fill="#DE833C"/>
<path d="M160.642 249.345H130.691V274.273H160.642V249.345Z" fill="#FFD19F"/>
<path d="M149.11 249.345H142.227V255.112H149.11V249.345Z" fill="#EB934E"/>
<path d="M160.642 224.417H130.691V249.344H160.642V224.417Z" fill="#FFD19F"/>
<path d="M160.642 199.59H130.691V224.518H160.642V199.59Z" fill="#F9B66F"/>
<path d="M149.11 224.417H142.227V230.183H149.11V224.417Z" fill="#EB934E"/>
<path d="M149.11 199.59H142.227V205.357H149.11V199.59Z" fill="#DE833C"/>
<path d="M245.464 249.345L130.133 249.345" stroke="#EB934E" stroke-width="0.684717" stroke-miterlimit="10"/>
<path d="M245.464 224.362L130.133 224.362" stroke="#EB934E" stroke-width="0.684717" stroke-miterlimit="10"/>
<path d="M160.641 274.086L160.641 199.59" stroke="#DE833C" stroke-width="0.710443" stroke-miterlimit="10"/>
<path d="M218.715 274.086L218.715 199.59" stroke="#DE833C" stroke-width="0.710443" stroke-miterlimit="10"/>
</g>
<defs>
<filter id="filter0_d_3142_153331" x="-50" y="-20" width="644" height="361" filterUnits="userSpaceOnUse" color-interpolation-filters="sRGB">
<feFlood flood-opacity="0" result="BackgroundImageFix"/>
<feColorMatrix in="SourceAlpha" type="matrix" values="0 0 0 0 0 0 0 0 0 0 0 0 0 0 0 0 0 0 127 0" result="hardAlpha"/>
<feOffset dy="30"/>
<feGaussianBlur stdDeviation="25"/>
<feColorMatrix type="matrix" values="0 0 0 0 0.804722 0 0 0 0 0.83213 0 0 0 0 0.886945 0 0 0 0.05 0"/>
<feBlend mode="normal" in2="BackgroundImageFix" result="effect1_dropShadow_3142_153331"/>
<feBlend mode="normal" in="SourceGraphic" in2="effect1_dropShadow_3142_153331" result="shape"/>
</filter>
</defs>
</svg>
