<svg width="375" height="279" viewBox="0 0 375 279" fill="none" xmlns="http://www.w3.org/2000/svg">
<mask id="mask0_4909_296404" style="mask-type:alpha" maskUnits="userSpaceOnUse" x="0" y="0" width="375" height="279">
<path d="M0 0H375V279H0V0Z" fill="#475DC2"/>
</mask>
<g mask="url(#mask0_4909_296404)">
<g filter="url(#filter0_d_4909_296404)">
<path d="M0 0H375V279H0V0Z" fill="#272B41"/>
</g>
<g opacity="0.4">
<path d="M179.323 219.601L653.212 88.9014V313.116H-96.6211L179.323 219.601Z" fill="white" fill-opacity="0.05"/>
<path d="M-88.3779 311.757L179.722 220.901L651.853 90.6857V311.757H-88.3779Z" stroke="white" stroke-opacity="0.1" stroke-width="2.71763"/>
</g>
<g opacity="0.4">
<path d="M202.188 170.501L653.213 7.302V309.44H-196.598L202.188 170.501Z" fill="white" fill-opacity="0.05"/>
<path d="M202.635 171.784L202.643 171.781L202.65 171.779L651.854 9.23872V308.082H-188.568L202.635 171.784Z" stroke="white" stroke-opacity="0.1" stroke-width="2.71763"/>
</g>
<g opacity="0.4">
<path d="M202.239 119.947L653.212 -43.4219V309.441H-325.246L202.239 119.947Z" fill="white" fill-opacity="0.05"/>
<path d="M202.698 121.226L202.701 121.225L651.853 -41.4844V308.082H-317.444L202.698 121.226Z" stroke="white" stroke-opacity="0.1" stroke-width="2.71763"/>
</g>
<g opacity="0.4">
<path d="M202.239 74.3496L653.212 -89V309.44H-325.246L202.239 74.3496Z" fill="white" fill-opacity="0.05"/>
<path d="M-318.859 308.082L202.747 75.6105L651.853 -87.0626V308.082H-318.859Z" stroke="white" stroke-opacity="0.1" stroke-width="2.71763"/>
</g>
<g opacity="0.4">
<path d="M190.361 265.333L653.212 158.739V320.467H-96.6211L190.361 265.333Z" fill="white" fill-opacity="0.05"/>
<path d="M190.617 266.667L190.642 266.662L190.666 266.657L651.853 160.446V319.109H-82.3462L190.617 266.667Z" stroke="white" stroke-opacity="0.1" stroke-width="2.71763"/>
</g>
<g opacity="0.4">
<path d="M190.361 316.792L653.212 210.198V371.927H-96.6211L190.361 316.792Z" fill="white" fill-opacity="0.05"/>
<path d="M190.617 318.126L190.642 318.122L190.666 318.116L651.853 211.905V370.568H-82.3462L190.617 318.126Z" stroke="white" stroke-opacity="0.1" stroke-width="2.71763"/>
</g>
<path d="M218.595 133.123C218.595 133.123 207.16 162.5 203.618 169.385C199.975 176.212 204.744 180.499 212.791 174.71C212.791 174.71 214.849 179.132 221.068 175.47C227.287 171.808 234.733 158.11 234.733 158.11L246.984 162.111L239.99 129.38L218.595 133.123Z" fill="#E27964"/>
<mask id="mask1_4909_296404" style="mask-type:alpha" maskUnits="userSpaceOnUse" x="202" y="129" width="45" height="49">
<path d="M218.595 133.123C218.595 133.123 207.16 162.5 203.618 169.385C199.975 176.212 204.744 180.499 212.791 174.71C212.791 174.71 214.849 179.132 221.068 175.47C227.287 171.808 234.733 158.11 234.733 158.11L246.984 162.111L239.99 129.38L218.595 133.123Z" fill="#E27964"/>
</mask>
<g mask="url(#mask1_4909_296404)">
<path d="M212.953 174.716C215.716 171.069 221.839 162.482 224.226 157.31C226.613 152.137 227.652 148.966 227.873 148.026C231.465 149.518 234.619 150.844 237.952 151.502" stroke="#C65E49" stroke-width="0.76729" stroke-linecap="round"/>
</g>
<ellipse cx="267.001" cy="215.752" rx="5.07842" ry="29.917" transform="rotate(34.2661 267.001 215.752)" fill="#A83030"/>
<path d="M243.008 160.102C243.008 160.102 241.529 152.432 241.953 144.504C241.953 144.504 234.001 139.878 230.18 138.768L215.698 141.409L215.999 128.276C215.999 128.276 228.819 123.939 233.702 124.847C238.584 125.755 250.789 129.914 257.784 132.91C264.779 135.907 266.857 136.288 267.834 139.887C267.834 139.887 271.155 140.102 272.131 143.701C273.129 147.38 275.973 167.988 279.611 181.083C283.147 194.119 243.008 160.102 243.008 160.102Z" fill="#FE967D"/>
<mask id="mask2_4909_296404" style="mask-type:alpha" maskUnits="userSpaceOnUse" x="215" y="124" width="65" height="61">
<path d="M243.008 160.102C243.008 160.102 241.529 152.432 241.953 144.504C241.953 144.504 234.001 139.878 230.18 138.768L215.698 141.409L215.999 128.276C215.999 128.276 228.819 123.939 233.702 124.847C238.584 125.755 250.789 129.914 257.784 132.91C264.779 135.907 266.857 136.288 267.834 139.887C267.834 139.887 271.155 140.102 272.131 143.701C273.129 147.38 275.973 167.988 279.611 181.083C283.147 194.119 243.008 160.102 243.008 160.102Z" fill="#FE967D"/>
</mask>
<g mask="url(#mask2_4909_296404)">
<path d="M268 139.425L268.627 147.34" stroke="#E27964" stroke-width="0.900461" stroke-linecap="round"/>
<path d="M227.825 140.37C228.952 140.14 231.557 138.898 232.966 135.776" stroke="#E27964" stroke-width="0.900461" stroke-linecap="round"/>
</g>
<mask id="mask3_4909_296404" style="mask-type:alpha" maskUnits="userSpaceOnUse" x="137" y="104" width="92" height="60">
<path d="M222.139 114.109C224.203 113.966 226.031 115.51 226.139 117.575L228.436 161.234C228.436 161.234 192.139 170.873 154.137 151.698C150.997 150.113 148.691 147.275 147.554 143.946L137.521 114.551C136.612 111.889 138.339 109.055 141.122 108.642L165.614 105.014C168.63 104.567 171.708 105.095 174.525 106.26C182.399 109.519 200.407 115.612 222.139 114.109Z" fill="#39DBE3"/>
</mask>
<g mask="url(#mask3_4909_296404)">
<path d="M222.139 114.109C224.203 113.966 226.031 115.51 226.139 117.575L228.436 161.234C228.436 161.234 192.139 170.873 154.137 151.698C150.997 150.113 148.691 147.275 147.554 143.946L137.521 114.551C136.612 111.889 138.339 109.055 141.122 108.642L165.614 105.014C168.63 104.567 171.708 105.095 174.525 106.26C182.399 109.519 200.407 115.612 222.139 114.109Z" fill="#4A60C3"/>
<path d="M166.866 106.112L136.274 111.393C135.709 111.491 135.241 110.957 135.41 110.41L136.612 106.538C136.701 106.252 136.948 106.043 137.244 106.004L166.999 102.074C167.079 102.064 167.159 102.066 167.238 102.081L226.773 113.042C227.074 113.098 227.313 113.327 227.382 113.626L228.655 119.196C228.737 119.556 228.557 119.923 228.213 120.058C212.937 126.026 181.526 113.428 167.341 106.182C167.193 106.106 167.03 106.084 166.866 106.112Z" fill="#5D73D7"/>
<circle cx="145.359" cy="115.295" r="2.99536" fill="#FFD19F"/>
<path d="M205.089 165.574L201.864 151.292C201.68 150.477 202.609 149.873 203.28 150.372L222.475 164.653C223.171 165.17 222.805 166.276 221.937 166.276H205.967C205.546 166.276 205.181 165.984 205.089 165.574Z" fill="#2E43A4"/>
</g>
<path d="M140.786 118.538C138.437 120.473 136.067 123.638 134.307 127.597C132.548 131.555 131.787 135.436 131.925 138.476C132.068 141.607 133.113 143.406 134.448 143.999C135.544 144.486 137.102 144.297 139.015 143.068C140.9 141.857 143.235 139.345 144.987 136.574L146.089 139.703C144.381 142.122 142.445 144.075 140.475 145.341C138.2 146.802 135.637 147.484 133.351 146.468C130.577 145.235 129.384 142.05 129.227 138.599C129.066 135.057 129.946 130.758 131.839 126.499C133.731 122.241 136.333 118.707 139.069 116.453C141.736 114.257 144.9 113.008 147.674 114.241C148.355 114.544 148.662 115.342 148.359 116.024C148.057 116.706 147.258 117.013 146.577 116.71C145.242 116.116 143.206 116.546 140.786 118.538Z" fill="#203551"/>
<ellipse cx="186.659" cy="135.864" rx="14.9265" ry="17.8155" transform="rotate(-30.0303 186.659 135.864)" fill="#2E43A4"/>
<path opacity="0.5" d="M218.395 127.708L219.225 146.651" stroke="white" stroke-width="1.80092" stroke-linecap="round"/>
<path d="M213.699 132.568L213.949 141.594" stroke="white" stroke-width="1.80092" stroke-linecap="round"/>
<path d="M191.764 127.928C190.119 131.56 185.919 140.025 182.274 144.821" stroke="white" stroke-width="1.80092" stroke-linecap="round"/>
<circle cx="195.245" cy="135.287" r="2.09482" transform="rotate(-24.5795 195.245 135.287)" stroke="white" stroke-width="1.80092"/>
<circle cx="179.21" cy="137.114" r="2.09482" transform="rotate(-24.5795 179.21 137.114)" stroke="white" stroke-width="1.80092"/>
<path d="M243.006 160.102C243.006 160.102 234.076 157.888 230.067 155.455C226.465 153.255 221.366 145.537 208.288 142.903C205.563 142.354 202.799 143.877 201.705 146.492C200.728 148.904 201.487 151.703 203.549 153.29C207.92 156.741 215.398 162.783 220.153 167.332C227.143 174.108 231.415 186.937 243.097 196.132C254.779 205.327 256.45 208.544 263.624 229.609L297.635 217.149C297.635 217.149 284.217 196.49 279.63 181.163L243.006 160.102Z" fill="#FE967D"/>
<mask id="mask4_4909_296404" style="mask-type:alpha" maskUnits="userSpaceOnUse" x="201" y="142" width="97" height="88">
<path d="M243.009 160.102C243.009 160.102 234.08 157.888 230.071 155.455C226.469 153.255 221.37 145.537 208.291 142.903C205.567 142.354 202.803 143.877 201.709 146.492C200.732 148.903 201.491 151.703 203.553 153.29C207.924 156.741 215.402 162.783 220.156 167.332C227.146 174.108 231.419 186.936 243.101 196.131C254.783 205.327 256.454 208.543 263.628 229.608L297.639 217.149C297.639 217.149 284.221 196.49 279.634 181.163L243.009 160.102Z" fill="#FE967D"/>
</mask>
<g mask="url(#mask4_4909_296404)">
<path d="M259.408 222.694C273.969 217.03 280.732 199.188 283.087 190.795C283.33 189.931 284.399 189.915 284.475 190.81C285.484 202.718 271.695 222.956 263.244 233.314C262.794 233.866 261.919 233.685 261.708 233.005L258.848 223.827C258.704 223.364 258.956 222.87 259.408 222.694Z" fill="#E27964"/>
<path d="M203.363 143.088C204.649 143.309 208.366 144.588 212.949 147.934C211.819 148.808 209.216 151.994 208.683 154.361C206.947 153.691 202.769 151.674 199.953 148.963" stroke="#E27964" stroke-width="0.900461" stroke-linecap="round"/>
</g>
<mask id="mask5_4909_296404" style="mask-type:alpha" maskUnits="userSpaceOnUse" x="250" y="191" width="97" height="93">
<path d="M346.646 277.737C324.597 253.427 295.828 210.002 284.2 191.329C284.7 197.644 269.807 221.442 261.532 231.315C254.912 239.214 251.21 240.718 250.187 240.482C255.414 248.153 268.014 272.367 273.661 283.515L346.646 277.737Z" fill="#2E47BA"/>
</mask>
<g mask="url(#mask5_4909_296404)">
<path d="M346.646 277.736C324.597 253.427 295.828 210.002 284.2 191.329C284.7 197.644 269.807 221.442 261.532 231.315C254.912 239.214 251.21 240.717 250.187 240.482C255.414 248.153 268.014 272.367 273.661 283.515L346.646 277.736Z" fill="#E14D4D"/>
<path d="M301.713 174.514L260.522 290.069" stroke="#FAA3A3" stroke-width="1.15094" stroke-linecap="round"/>
<path d="M371.531 249.335L255.976 208.145" stroke="#FAA3A3" stroke-width="1.15094" stroke-linecap="round"/>
<path d="M319.806 189.055L278.616 304.61" stroke="#FAA3A3" stroke-width="1.15094" stroke-linecap="round"/>
<path d="M356.992 267.427L241.436 226.237" stroke="#FAA3A3" stroke-width="1.15094" stroke-linecap="round"/>
<path d="M337.904 203.595L296.714 319.15" stroke="#FAA3A3" stroke-width="1.15094" stroke-linecap="round"/>
<path d="M342.449 285.519L226.894 244.329" stroke="#FAA3A3" stroke-width="1.15094" stroke-linecap="round"/>
</g>
<path d="M324.757 88.9829C308.52 88.8561 295.083 101.51 294.088 117.547C294.082 118.32 294.851 118.809 295.433 118.524C299.605 116.526 312.303 111.889 323.148 121.736C323.916 122.419 324.979 122.427 325.661 121.756C336.658 112.176 349.282 116.914 353.423 118.976C354.097 119.272 354.874 118.794 354.783 118.021C354.232 101.971 340.994 89.1097 324.757 88.9829Z" fill="#F36565"/>
<path d="M315.261 116.841C315.299 112.009 315.994 97.2262 324.758 88.9823C324.758 88.9823 304.24 92.3983 302.799 116.068C306.38 115.419 310.73 115.356 315.261 116.841Z" fill="white"/>
<path d="M333.814 116.986C333.852 112.154 333.387 97.3622 324.754 88.9824C324.754 88.9824 345.216 92.7184 346.287 116.407C342.716 115.703 338.368 115.572 333.814 116.986Z" fill="white"/>
<path d="M324.254 153.157L334.037 162.899C334.037 162.899 332.273 177.212 326.274 189.012C326.013 189.527 325.527 189.886 324.954 189.952C322.576 190.227 315.563 190.603 304.777 187.525C303.487 187.157 302.974 185.588 303.714 184.469C306.105 180.853 310.747 173.041 314.325 162.165L324.254 153.157Z" fill="#4A60C3"/>
<path opacity="0.5" d="M321.234 184.549L312.028 183.226" stroke="white" stroke-width="0.883363" stroke-linecap="round"/>
<path d="M319.32 181.846L314.947 181.145" stroke="white" stroke-width="0.883363" stroke-linecap="round"/>
<ellipse cx="321.359" cy="171.534" rx="6.9866" ry="8.33884" transform="rotate(39.5896 321.359 171.534)" fill="#2E43A4"/>
<path d="M324.431 168.559C323.228 169.905 320.267 172.991 318.043 174.569" stroke="white" stroke-width="1.01265" stroke-linecap="round"/>
<circle cx="324.938" cy="172.209" r="0.948712" transform="rotate(-7.15736 324.938 172.209)" stroke="white" stroke-width="1.01265"/>
<circle cx="317.767" cy="170.825" r="0.948712" transform="rotate(-7.15736 317.767 170.825)" stroke="white" stroke-width="1.01265"/>
<path d="M295.148 117.361L324.229 156.154L353.911 117.82" stroke="#203551" stroke-width="1.93304" stroke-miterlimit="10" stroke-linecap="round" stroke-linejoin="round"/>
<path d="M324.231 156.153L324.508 120.683" stroke="#203551" stroke-width="1.93304" stroke-miterlimit="10" stroke-linecap="round" stroke-linejoin="round"/>
<path d="M41.2274 244.359H129.328V221.08H41.2274V244.359Z" fill="#EB934E"/>
<path d="M78.0871 221.27H50.1172V244.549H78.0871V221.27Z" fill="#F9B66F"/>
<path d="M67.3146 221.27H60.8867V226.655H67.3146V221.27Z" fill="#DE833C"/>
<path d="M41.2274 221.124H129.328V197.844H41.2274V221.124Z" fill="#EB934E"/>
<path d="M41.2274 197.939H129.328V174.66H41.2274V197.939Z" fill="#EB934E"/>
<path d="M78.0871 197.99H50.1172V221.27H78.0871V197.99Z" fill="#F9B66F"/>
<path d="M78.0871 174.806H50.1172V198.085H78.0871V174.806Z" fill="#F9B66F"/>
<path d="M67.3146 197.99H60.8867V203.376H67.3146V197.99Z" fill="#DE833C"/>
<path d="M67.3146 174.806H60.8867V180.191H67.3146V174.806Z" fill="#DE833C"/>
<path d="M50.1144 221.27H22.1445V244.549H50.1144V221.27Z" fill="#F9B66F"/>
<path d="M39.3458 221.27H32.918V226.655H39.3458V221.27Z" fill="#DE833C"/>
<path d="M50.1144 197.99H22.1445V221.27H50.1144V197.99Z" fill="#F9B66F"/>
<path d="M50.1144 174.806H22.1445V198.085H50.1144V174.806Z" fill="#F9B66F"/>
<path d="M39.3458 197.99H32.918V203.376H39.3458V197.99Z" fill="#DE833C"/>
<path d="M39.3458 174.806H32.918V180.192H39.3458V174.806Z" fill="#DE833C"/>
<path d="M129.329 221.27L21.625 221.27" stroke="#DE833C" stroke-width="0.639435" stroke-miterlimit="10"/>
<path d="M129.329 197.939L21.625 197.939" stroke="#DE833C" stroke-width="0.639435" stroke-miterlimit="10"/>
<path d="M57.0548 174.806H78.3906V151.119H57.0548V174.806Z" fill="#EB934E"/>
<path d="M61.9605 151.223H33.6719V174.767H61.9605V151.223Z" fill="#F9B66F"/>
<path d="M51.0636 151.222H44.5625V156.669H51.0636V151.222Z" fill="#DE833C"/>
<path d="M129.329 174.79L21.625 174.791" stroke="#DE833C" stroke-width="0.639435" stroke-miterlimit="10"/>
<path d="M50.1172 244.375L50.1172 174.806" stroke="#DE833C" stroke-width="0.66346" stroke-miterlimit="10"/>
<path d="M104.348 244.375L104.348 174.806" stroke="#DE833C" stroke-width="0.66346" stroke-miterlimit="10"/>
<path d="M102.989 291.201H191.09V267.922H102.989V291.201Z" fill="#F9B66F"/>
<path d="M139.849 268.111H111.879V291.391H139.849V268.111Z" fill="#FFD19F"/>
<path d="M129.076 268.111H122.648V273.497H129.076V268.111Z" fill="#EB934E"/>
<path d="M102.989 267.965H191.09V244.686H102.989V267.965Z" fill="#F9B66F"/>
<path d="M102.989 244.781H191.09V221.501H102.989V244.781Z" fill="#EB934E"/>
<path d="M139.849 244.832H111.879V268.111H139.849V244.832Z" fill="#FFD19F"/>
<path d="M139.849 221.647H111.879V244.927H139.849V221.647Z" fill="#F9B66F"/>
<path d="M129.076 244.832H122.648V250.217H129.076V244.832Z" fill="#EB934E"/>
<path d="M129.076 221.647H122.648V227.033H129.076V221.647Z" fill="#DE833C"/>
<path d="M111.876 268.111H83.9062V291.391H111.876V268.111Z" fill="#FFD19F"/>
<path d="M101.108 268.111H94.6797V273.497H101.108V268.111Z" fill="#EB934E"/>
<path d="M111.876 244.832H83.9062V268.111H111.876V244.832Z" fill="#FFD19F"/>
<path d="M111.876 221.647H83.9062V244.927H111.876V221.647Z" fill="#F9B66F"/>
<path d="M101.108 244.832H94.6797V250.217H101.108V244.832Z" fill="#EB934E"/>
<path d="M101.108 221.647H94.6797V227.033H101.108V221.647Z" fill="#DE833C"/>
<path d="M191.091 268.111L83.3867 268.111" stroke="#EB934E" stroke-width="0.639435" stroke-miterlimit="10"/>
<path d="M191.091 244.781L83.3867 244.781" stroke="#EB934E" stroke-width="0.639435" stroke-miterlimit="10"/>
<path d="M111.879 291.216L111.879 221.647" stroke="#DE833C" stroke-width="0.66346" stroke-miterlimit="10"/>
<path d="M166.109 291.216L166.109 221.647" stroke="#DE833C" stroke-width="0.66346" stroke-miterlimit="10"/>
</g>
<defs>
<filter id="filter0_d_4909_296404" x="-50" y="-20" width="475" height="379" filterUnits="userSpaceOnUse" color-interpolation-filters="sRGB">
<feFlood flood-opacity="0" result="BackgroundImageFix"/>
<feColorMatrix in="SourceAlpha" type="matrix" values="0 0 0 0 0 0 0 0 0 0 0 0 0 0 0 0 0 0 127 0" result="hardAlpha"/>
<feOffset dy="30"/>
<feGaussianBlur stdDeviation="25"/>
<feColorMatrix type="matrix" values="0 0 0 0 0.804722 0 0 0 0 0.83213 0 0 0 0 0.886945 0 0 0 0.05 0"/>
<feBlend mode="normal" in2="BackgroundImageFix" result="effect1_dropShadow_4909_296404"/>
<feBlend mode="normal" in="SourceGraphic" in2="effect1_dropShadow_4909_296404" result="shape"/>
</filter>
</defs>
</svg>
