<svg width="40" height="32" viewBox="0 0 40 32" fill="none" xmlns="http://www.w3.org/2000/svg">
<rect width="40" height="32" rx="16" fill="#F3BD00"/>
<path d="M27.058 16.4709C27.058 20.3529 23.911 23.4999 20.029 23.4999C16.147 23.4999 13 20.3529 13 16.4709C13 12.5889 16.147 9.44189 20.029 9.44189" stroke="white" stroke-width="1.3" stroke-linecap="round" stroke-linejoin="round"/>
<path d="M27.0497 9.25723L24.7067 11.6002L23.5352 12.7717" stroke="white" stroke-width="1.3" stroke-linecap="round" stroke-linejoin="round"/>
<path d="M23.5343 9.25748L25.8773 11.6005L27.0488 12.772" stroke="white" stroke-width="1.3" stroke-linecap="round" stroke-linejoin="round"/>
<path d="M21.5426 13.8429C21.5426 13.8429 20.7422 13.1329 19.3352 13.6234C18.0314 14.0882 18.0959 15.8567 20.071 16.3343" stroke="white" stroke-width="1.3" stroke-miterlimit="10" stroke-linecap="round" stroke-linejoin="round"/>
<path d="M18.457 18.7781C18.457 18.7781 19.2574 19.488 20.6644 18.9975C21.9682 18.5457 21.9037 16.7643 19.9286 16.2996" stroke="white" stroke-width="1.3" stroke-miterlimit="10" stroke-linecap="round" stroke-linejoin="round"/>
<path d="M20.1465 13.4602V12.3113" stroke="white" stroke-width="1.3" stroke-miterlimit="10" stroke-linecap="round" stroke-linejoin="round"/>
<path d="M20.1465 20.3112V19.1624" stroke="white" stroke-width="1.3" stroke-miterlimit="10" stroke-linecap="round" stroke-linejoin="round"/>
</svg>
