<svg width="20" height="20" viewBox="0 0 20 20" fill="none" xmlns="http://www.w3.org/2000/svg">
<path d="M5 17.4651L14.6398 17.4651C15.7443 17.4651 16.6398 16.5697 16.6398 15.4651L16.6398 7.62456C16.6398 7.08596 16.4226 6.57013 16.0372 6.1938L12.3264 2.56924C11.9527 2.2043 11.4512 2 10.9289 2H5C3.89543 2 3 2.89543 3 4V15.4651C3 16.5697 3.89543 17.4651 5 17.4651Z" stroke="#2E47BA" stroke-width="1.3" stroke-linecap="round"/>
<path d="M12.069 12.7137L9.81934 14.9633L7.56972 12.7137" stroke="#2E47BA" stroke-width="1.3" stroke-linecap="round" stroke-linejoin="round"/>
<path d="M9.81934 9.48462L9.81934 14.7347" stroke="#2E47BA" stroke-width="1.3" stroke-linecap="round" stroke-linejoin="round"/>
<path d="M10.6168 2.23706V6.268C10.6168 6.82029 11.0645 7.268 11.6168 7.268H13.4279" stroke="#2E47BA" stroke-width="1.3" stroke-linecap="round"/>
</svg>
