<svg width="40" height="41" viewBox="0 0 40 41" fill="none" xmlns="http://www.w3.org/2000/svg">
<rect y="0.5" width="40" height="40" rx="20" fill="#DCEDFF"/>
<mask id="mask0_1024_123281" style="mask-type:alpha" maskUnits="userSpaceOnUse" x="10" y="8" width="20" height="25">
<path d="M12.4475 32.3839H28.0741C29.0308 32.3839 29.8281 31.5866 29.8281 30.6298V14.1538C27.9147 12.2404 26.2088 10.5385 24.2954 8.625H12.4475C11.4907 8.625 10.6935 9.42228 10.6935 10.379V30.7893C10.6935 31.5866 11.4907 32.3839 12.4475 32.3839Z" fill="white"/>
</mask>
<g mask="url(#mask0_1024_123281)">
<path d="M12.4475 32.3839H28.0741C29.0308 32.3839 29.8281 31.5866 29.8281 30.6298V14.1538C27.9147 12.2404 26.2088 10.5385 24.2954 8.625H12.4475C11.4907 8.625 10.6935 9.42228 10.6935 10.379V30.7893C10.6935 31.5866 11.4907 32.3839 12.4475 32.3839Z" fill="white"/>
<path d="M14.5137 12.1035V17.2261" stroke="#BF684F" stroke-linecap="round" stroke-linejoin="round"/>
<path d="M17.7129 12.1035V17.2261" stroke="#BF684F" stroke-linecap="round" stroke-linejoin="round"/>
<path d="M20.9141 12.1035V17.2261" stroke="#BF684F" stroke-linecap="round" stroke-linejoin="round"/>
<path d="M24.1133 15.748L24.1133 17.2258" stroke="#BF684F" stroke-linecap="round" stroke-linejoin="round"/>
<path d="M13.3086 13.7461L22.1187 13.7461" stroke="#BF684F" stroke-linecap="round" stroke-linejoin="round"/>
<path d="M13.3086 17.3086L26.9188 17.3086" stroke="#BF684F" stroke-linecap="round" stroke-linejoin="round"/>
<rect x="9.36328" y="21.7812" width="18.3041" height="8" rx="1.5" fill="#CC7051"/>
</g>
<path d="M24.3055 8.62305V12.3655C24.3055 13.4347 25.0184 14.1476 26.0876 14.1476H29.8301L24.3055 8.62305Z" fill="#F9B66F"/>
<rect x="8.56641" y="20.1797" width="18.3041" height="8" rx="1.5" fill="#F6B755"/>
<path d="M11.1954 22.9723V23.8123H12.3234V24.3451H11.1954V25.2331H12.4674V25.7803H10.5234V22.4251H12.4674V22.9723H11.1954Z" fill="#BF684F"/>
<path d="M15.2765 25.7803L14.5517 24.6523L13.8941 25.7803H13.1357L14.1917 24.0907L13.1213 22.4299H13.8941L14.6189 23.5531L15.2717 22.4299H16.0301L14.9789 24.1147L16.0493 25.7803H15.2765Z" fill="#BF684F"/>
<path d="M16.5895 24.1003C16.5895 23.7707 16.6631 23.4763 16.8103 23.2171C16.9607 22.9547 17.1639 22.7515 17.4199 22.6075C17.6791 22.4603 17.9687 22.3867 18.2887 22.3867C18.6631 22.3867 18.9912 22.4827 19.2728 22.6747C19.5544 22.8667 19.7512 23.1323 19.8632 23.4715H19.0904C19.0136 23.3115 18.9047 23.1915 18.7639 23.1115C18.6263 23.0315 18.4664 22.9915 18.284 22.9915C18.0888 22.9915 17.9144 23.0379 17.7607 23.1307C17.6104 23.2203 17.4919 23.3483 17.4055 23.5147C17.3223 23.6811 17.2807 23.8763 17.2807 24.1003C17.2807 24.3211 17.3223 24.5163 17.4055 24.6859C17.4919 24.8523 17.6104 24.9819 17.7607 25.0747C17.9144 25.1643 18.0888 25.2091 18.284 25.2091C18.4664 25.2091 18.6263 25.1691 18.7639 25.0891C18.9047 25.0059 19.0136 24.8843 19.0904 24.7243H19.8632C19.7512 25.0667 19.5544 25.3339 19.2728 25.5259C18.9944 25.7147 18.6663 25.8091 18.2887 25.8091C17.9687 25.8091 17.6791 25.7371 17.4199 25.5931C17.1639 25.4459 16.9607 25.2427 16.8103 24.9835C16.6631 24.7243 16.5895 24.4299 16.5895 24.1003Z" fill="#BF684F"/>
<path d="M21.3011 22.9723V23.8123H22.4291V24.3451H21.3011V25.2331H22.5731V25.7803H20.6291V22.4251H22.5731V22.9723H21.3011Z" fill="#BF684F"/>
<path d="M24.0478 25.2475H25.1518V25.7803H23.3758V22.4299H24.0478V25.2475Z" fill="#BF684F"/>
</svg>
