<svg width="21" height="20" viewBox="0 0 21 20" fill="none" xmlns="http://www.w3.org/2000/svg">
<path d="M5.5 17.4651L15.1398 17.4651C16.2443 17.4651 17.1398 16.5697 17.1398 15.4651L17.1398 7.62456C17.1398 7.08596 16.9226 6.57013 16.5372 6.1938L12.8264 2.56924C12.4527 2.2043 11.9512 2 11.4289 2H5.5C4.39543 2 3.5 2.89543 3.5 4V15.4651C3.5 16.5697 4.39543 17.4651 5.5 17.4651Z" stroke="white" stroke-width="1.3" stroke-linecap="round"/>
<path d="M12.569 12.7137L10.3193 14.9633L8.06972 12.7137" stroke="white" stroke-width="1.3" stroke-linecap="round" stroke-linejoin="round"/>
<path d="M10.3193 9.48462L10.3193 14.7347" stroke="white" stroke-width="1.3" stroke-linecap="round" stroke-linejoin="round"/>
<path d="M11.1172 2.23706V6.268C11.1172 6.82029 11.5649 7.268 12.1172 7.268H13.9283" stroke="white" stroke-width="1.3" stroke-linecap="round"/>
</svg>
