<svg width="40" height="41" viewBox="0 0 40 41" fill="none" xmlns="http://www.w3.org/2000/svg">
<rect y="0.5" width="40" height="40" rx="20" fill="#DCEDFF"/>
<mask id="mask0_1024_123276" style="mask-type:alpha" maskUnits="userSpaceOnUse" x="10" y="8" width="20" height="25">
<path d="M12.4475 32.3839H28.0741C29.0308 32.3839 29.8281 31.5866 29.8281 30.6298V14.1538C27.9147 12.2404 26.2088 10.5385 24.2954 8.625H12.4475C11.4907 8.625 10.6935 9.42228 10.6935 10.379V30.7893C10.6935 31.5866 11.4907 32.3839 12.4475 32.3839Z" fill="white"/>
</mask>
<g mask="url(#mask0_1024_123276)">
<path d="M12.4475 32.3839H28.0741C29.0308 32.3839 29.8281 31.5866 29.8281 30.6298V14.1538C27.9147 12.2404 26.2088 10.5385 24.2954 8.625H12.4475C11.4907 8.625 10.6935 9.42228 10.6935 10.379V30.7893C10.6935 31.5866 11.4907 32.3839 12.4475 32.3839Z" fill="white"/>
<path d="M19.0106 11.8242H14.5209C14.175 11.8242 13.8945 12.1047 13.8945 12.4506C13.8945 12.7966 14.175 13.077 14.5209 13.077H19.0106C19.3565 13.077 19.637 12.7966 19.637 12.4506C19.637 12.1047 19.3565 11.8242 19.0106 11.8242Z" fill="#BF684F"/>
<path d="M21.4106 15.0254H14.5209C14.175 15.0254 13.8945 15.3058 13.8945 15.6518C13.8945 15.9977 14.175 16.2782 14.5209 16.2782H21.4106C21.7565 16.2782 22.037 15.9977 22.037 15.6518C22.037 15.3058 21.7565 15.0254 21.4106 15.0254Z" fill="#F9B66F"/>
<rect x="9.36328" y="20.2812" width="18.3041" height="9.41832" rx="1.5" fill="#CC7051"/>
</g>
<path d="M24.3055 8.62305V12.3655C24.3055 13.4347 25.0184 14.1476 26.0876 14.1476H29.8301L24.3055 8.62305Z" fill="#F9B66F"/>
<rect x="8.56641" y="18.6797" width="18.3041" height="9.41832" rx="1.5" fill="#F6B755"/>
<path d="M11.0078 23.5334C11.0078 23.0939 11.1059 22.7014 11.3022 22.3558C11.5027 22.0059 11.7737 21.735 12.115 21.543C12.4606 21.3467 12.8467 21.2486 13.2734 21.2486C13.7726 21.2486 14.2099 21.3766 14.5854 21.6326C14.9609 21.8886 15.2233 22.2427 15.3726 22.695H14.3422C14.2398 22.4817 14.0947 22.3217 13.907 22.215C13.7235 22.1083 13.5102 22.055 13.267 22.055C13.0067 22.055 12.7742 22.1169 12.5694 22.2406C12.3689 22.3601 12.211 22.5307 12.0958 22.7526C11.9849 22.9745 11.9294 23.2347 11.9294 23.5334C11.9294 23.8278 11.9849 24.0881 12.0958 24.3142C12.211 24.5361 12.3689 24.7089 12.5694 24.8326C12.7742 24.9521 13.0067 25.0118 13.267 25.0118C13.5102 25.0118 13.7235 24.9585 13.907 24.8518C14.0947 24.7409 14.2398 24.5787 14.3422 24.3654H15.3726C15.2233 24.8219 14.9609 25.1782 14.5854 25.4342C14.2142 25.6859 13.7769 25.8118 13.2734 25.8118C12.8467 25.8118 12.4606 25.7158 12.115 25.5238C11.7737 25.3275 11.5027 25.0566 11.3022 24.711C11.1059 24.3654 11.0078 23.9729 11.0078 23.5334Z" fill="#BF684F"/>
<path d="M17.9363 25.8182C17.6248 25.8182 17.3432 25.7649 17.0915 25.6582C16.844 25.5515 16.6478 25.3979 16.5027 25.1974C16.3576 24.9969 16.283 24.7601 16.2787 24.487H17.2387C17.2515 24.6705 17.3155 24.8155 17.4307 24.9222C17.5502 25.0289 17.7123 25.0822 17.9171 25.0822C18.1262 25.0822 18.2904 25.0331 18.4099 24.935C18.5294 24.8326 18.5891 24.7003 18.5891 24.5382C18.5891 24.4059 18.5486 24.2971 18.4675 24.2118C18.3864 24.1265 18.284 24.0603 18.1603 24.0134C18.0408 23.9622 17.8744 23.9067 17.6611 23.847C17.371 23.7617 17.1342 23.6785 16.9507 23.5974C16.7715 23.5121 16.6158 23.3862 16.4835 23.2198C16.3555 23.0491 16.2915 22.823 16.2915 22.5414C16.2915 22.2769 16.3576 22.0465 16.4899 21.8502C16.6222 21.6539 16.8078 21.5046 17.0467 21.4022C17.2856 21.2955 17.5587 21.2422 17.8659 21.2422C18.3267 21.2422 18.7 21.3553 18.9859 21.5814C19.276 21.8033 19.436 22.1147 19.4659 22.5158H18.4803C18.4718 22.3622 18.4056 22.2363 18.2819 22.1382C18.1624 22.0358 18.0024 21.9846 17.8019 21.9846C17.627 21.9846 17.4862 22.0294 17.3795 22.119C17.2771 22.2086 17.2259 22.3387 17.2259 22.5094C17.2259 22.6289 17.2643 22.7291 17.3411 22.8102C17.4222 22.887 17.5203 22.951 17.6355 23.0022C17.755 23.0491 17.9214 23.1046 18.1347 23.1686C18.4248 23.2539 18.6616 23.3393 18.8451 23.4246C19.0286 23.5099 19.1864 23.6379 19.3187 23.8086C19.451 23.9793 19.5171 24.2033 19.5171 24.4806C19.5171 24.7195 19.4552 24.9414 19.3315 25.1462C19.2078 25.351 19.0264 25.5153 18.7875 25.639C18.5486 25.7585 18.2648 25.8182 17.9363 25.8182Z" fill="#BF684F"/>
<path d="M24.5627 21.3062L22.9243 25.7734H21.8363L20.1979 21.3062H21.1579L22.3867 24.8582L23.6091 21.3062H24.5627Z" fill="#BF684F"/>
</svg>
