<svg width="182" height="40" viewBox="0 0 182 40" fill="none" xmlns="http://www.w3.org/2000/svg">
<rect x="0.5" y="0.5" width="181" height="39" rx="7.5" fill="white"/>
<path d="M16.1449 25V15.5455H21.8509V16.5611H17.2898V19.7557H21.5554V20.7713H17.2898V23.9844H21.9247V25H16.1449ZM26.7042 25.1477C26.1133 25.1477 25.5917 24.9985 25.1393 24.6999C24.6868 24.3983 24.3329 23.9736 24.0775 23.4258C23.822 22.8749 23.6943 22.224 23.6943 21.473C23.6943 20.7282 23.822 20.0819 24.0775 19.5341C24.3329 18.9863 24.6884 18.5631 25.1439 18.2646C25.5994 17.966 26.1256 17.8168 26.7227 17.8168C27.1844 17.8168 27.5491 17.8937 27.8168 18.0476C28.0877 18.1984 28.2939 18.3707 28.4354 18.5646C28.5801 18.7554 28.6924 18.9124 28.7724 19.0355H28.8648V15.5455H29.9542V25H28.9017V23.9105H28.7724C28.6924 24.0398 28.5785 24.2029 28.4308 24.3999C28.2831 24.5937 28.0723 24.7676 27.7984 24.9215C27.5244 25.0723 27.1597 25.1477 26.7042 25.1477ZM26.852 24.169C27.289 24.169 27.6583 24.0552 27.9599 23.8274C28.2615 23.5966 28.4908 23.2781 28.6478 22.8718C28.8047 22.4625 28.8832 21.9901 28.8832 21.4545C28.8832 20.9252 28.8063 20.462 28.6524 20.065C28.4985 19.6649 28.2708 19.354 27.9692 19.1325C27.6676 18.9078 27.2952 18.7955 26.852 18.7955C26.3903 18.7955 26.0056 18.9139 25.6979 19.1509C25.3932 19.3848 25.1639 19.7034 25.01 20.1065C24.8592 20.5066 24.7838 20.956 24.7838 21.4545C24.7838 21.9593 24.8607 22.4179 25.0146 22.8303C25.1716 23.2396 25.4024 23.5658 25.7071 23.8089C26.0149 24.049 26.3965 24.169 26.852 24.169ZM32.3609 25V17.9091H33.4504V25H32.3609ZM32.9149 16.7273C32.7025 16.7273 32.5194 16.6549 32.3655 16.5103C32.2147 16.3656 32.1393 16.1918 32.1393 15.9886C32.1393 15.7855 32.2147 15.6116 32.3655 15.467C32.5194 15.3223 32.7025 15.25 32.9149 15.25C33.1272 15.25 33.3088 15.3223 33.4596 15.467C33.6135 15.6116 33.6905 15.7855 33.6905 15.9886C33.6905 16.1918 33.6135 16.3656 33.4596 16.5103C33.3088 16.6549 33.1272 16.7273 32.9149 16.7273ZM38.7897 17.9091V18.8324H35.115V17.9091H38.7897ZM36.186 16.2102H37.2755V22.9688C37.2755 23.2765 37.3201 23.5073 37.4094 23.6612C37.5017 23.812 37.6186 23.9136 37.7602 23.9659C37.9049 24.0152 38.0572 24.0398 38.2172 24.0398C38.3373 24.0398 38.4357 24.0336 38.5127 24.0213C38.5896 24.0059 38.6512 23.9936 38.6973 23.9844L38.9189 24.9631C38.8451 24.9908 38.742 25.0185 38.6096 25.0462C38.4773 25.0769 38.3096 25.0923 38.1064 25.0923C37.7987 25.0923 37.4971 25.0262 37.2016 24.8938C36.9092 24.7615 36.6661 24.5599 36.4722 24.2891C36.2814 24.0182 36.186 23.6766 36.186 23.2642V16.2102ZM44.7525 25V15.5455H48.0579C48.7165 15.5455 49.2597 15.6593 49.6875 15.8871C50.1153 16.1117 50.4338 16.4149 50.6431 16.7965C50.8524 17.1751 50.957 17.5952 50.957 18.0568C50.957 18.4631 50.8847 18.7985 50.7401 19.0632C50.5985 19.3279 50.4108 19.5372 50.1769 19.6911C49.946 19.8449 49.6952 19.9588 49.4244 20.0327V20.125C49.7137 20.1435 50.0045 20.245 50.2969 20.4297C50.5893 20.6143 50.8339 20.879 51.0309 21.2237C51.2279 21.5684 51.3264 21.9901 51.3264 22.4886C51.3264 22.9626 51.2186 23.3888 51.0032 23.7674C50.7878 24.146 50.4477 24.446 49.983 24.6676C49.5182 24.8892 48.9135 25 48.1687 25H44.7525ZM45.8974 23.9844H48.1687C48.9166 23.9844 49.4475 23.8397 49.7614 23.5504C50.0784 23.258 50.2369 22.9041 50.2369 22.4886C50.2369 22.1686 50.1553 21.8731 49.9922 21.6023C49.8291 21.3284 49.5967 21.1098 49.2951 20.9467C48.9935 20.7805 48.6365 20.6974 48.2241 20.6974H45.8974V23.9844ZM45.8974 19.7003H48.021C48.3657 19.7003 48.6765 19.6326 48.9535 19.4972C49.2336 19.3617 49.4552 19.1709 49.6183 18.9247C49.7845 18.6785 49.8676 18.3892 49.8676 18.0568C49.8676 17.6413 49.7229 17.2889 49.4336 16.9996C49.1443 16.7073 48.6857 16.5611 48.0579 16.5611H45.8974V19.7003ZM55.4065 25.1662C54.9572 25.1662 54.5494 25.0816 54.1831 24.9123C53.8169 24.7399 53.5261 24.4922 53.3106 24.169C53.0952 23.8428 52.9875 23.4489 52.9875 22.9872C52.9875 22.581 53.0675 22.2517 53.2275 21.9993C53.3876 21.7438 53.6015 21.5438 53.8692 21.3991C54.137 21.2545 54.4324 21.1468 54.7556 21.076C55.0818 21.0021 55.4096 20.9437 55.7389 20.9006C56.1698 20.8452 56.5191 20.8036 56.7868 20.7759C57.0577 20.7451 57.2546 20.6944 57.3777 20.6236C57.5039 20.5528 57.567 20.4297 57.567 20.2543V20.2173C57.567 19.7618 57.4424 19.4079 57.1931 19.1555C56.9469 18.9032 56.5729 18.777 56.0713 18.777C55.5512 18.777 55.1434 18.8909 54.8479 19.1186C54.5525 19.3464 54.3447 19.5895 54.2247 19.848L53.1906 19.4787C53.3753 19.0478 53.6215 18.7124 53.9292 18.4723C54.2401 18.2292 54.5786 18.0599 54.9449 17.9645C55.3142 17.866 55.6773 17.8168 56.0343 17.8168C56.2621 17.8168 56.5237 17.8445 56.8191 17.8999C57.1177 17.9522 57.4054 18.0614 57.6824 18.2276C57.9625 18.3938 58.1949 18.6446 58.3795 18.9801C58.5642 19.3156 58.6565 19.7649 58.6565 20.3281V25H57.567V24.0398H57.5116C57.4378 24.1937 57.3146 24.3583 57.1423 24.5337C56.97 24.7092 56.7407 24.8584 56.4544 24.9815C56.1682 25.1046 55.8189 25.1662 55.4065 25.1662ZM55.5727 24.1875C56.0036 24.1875 56.3667 24.1029 56.6622 23.9336C56.9607 23.7643 57.1854 23.5458 57.3362 23.2781C57.4901 23.0103 57.567 22.7287 57.567 22.4332V21.4361C57.5209 21.4915 57.4193 21.5423 57.2623 21.5884C57.1084 21.6315 56.9299 21.67 56.7268 21.7038C56.5268 21.7346 56.3313 21.7623 56.1405 21.7869C55.9528 21.8085 55.8004 21.8269 55.6835 21.8423C55.4003 21.8793 55.1357 21.9393 54.8895 22.0224C54.6463 22.1024 54.4494 22.224 54.2985 22.3871C54.1508 22.5471 54.077 22.7656 54.077 23.0426C54.077 23.4212 54.217 23.7074 54.4971 23.9013C54.7802 24.0921 55.1387 24.1875 55.5727 24.1875ZM61.9945 20.7344V25H60.905V17.9091H61.9576V19.017H62.0499C62.2161 18.657 62.4685 18.3677 62.807 18.1491C63.1456 17.9276 63.5826 17.8168 64.1181 17.8168C64.5982 17.8168 65.0183 17.9152 65.3784 18.1122C65.7385 18.3061 66.0186 18.6016 66.2186 18.9986C66.4187 19.3925 66.5187 19.8911 66.5187 20.4943V25H65.4292V20.5682C65.4292 20.0111 65.2845 19.5772 64.9952 19.2663C64.7059 18.9524 64.3089 18.7955 63.8042 18.7955C63.4564 18.7955 63.1456 18.8709 62.8717 19.0217C62.6008 19.1725 62.3869 19.3925 62.23 19.6818C62.073 19.9711 61.9945 20.322 61.9945 20.7344ZM69.7852 22.4148L69.7667 21.0668H69.9883L73.0906 17.9091H74.4386L71.1332 21.2514H71.0409L69.7852 22.4148ZM68.7695 25V15.5455H69.859V25H68.7695ZM73.2752 25L70.5053 21.4915L71.2809 20.7344L74.6602 25H73.2752ZM79.6478 16.5611V15.5455H86.7387V16.5611H83.7657V25H82.6208V16.5611H79.6478ZM87.8816 25V17.9091H88.9341V18.9801H89.008C89.1373 18.6293 89.3712 18.3446 89.7097 18.1261C90.0482 17.9076 90.4299 17.7983 90.8546 17.7983C90.9346 17.7983 91.0346 17.7998 91.1547 17.8029C91.2747 17.806 91.3655 17.8106 91.427 17.8168V18.9247C91.3901 18.9155 91.3055 18.9016 91.1731 18.8832C91.0439 18.8616 90.9069 18.8509 90.7623 18.8509C90.4176 18.8509 90.1098 18.9232 89.839 19.0678C89.5712 19.2094 89.3588 19.4064 89.2019 19.6587C89.048 19.908 88.9711 20.1927 88.9711 20.5128V25H87.8816ZM95.0651 25.1662C94.6158 25.1662 94.208 25.0816 93.8418 24.9123C93.4755 24.7399 93.1847 24.4922 92.9693 24.169C92.7538 23.8428 92.6461 23.4489 92.6461 22.9872C92.6461 22.581 92.7261 22.2517 92.8862 21.9993C93.0462 21.7438 93.2601 21.5438 93.5279 21.3991C93.7956 21.2545 94.0911 21.1468 94.4142 21.076C94.7404 21.0021 95.0682 20.9437 95.3975 20.9006C95.8284 20.8452 96.1777 20.8036 96.4455 20.7759C96.7163 20.7451 96.9133 20.6944 97.0364 20.6236C97.1626 20.5528 97.2256 20.4297 97.2256 20.2543V20.2173C97.2256 19.7618 97.101 19.4079 96.8517 19.1555C96.6055 18.9032 96.2316 18.777 95.7299 18.777C95.2098 18.777 94.802 18.8909 94.5065 19.1186C94.2111 19.3464 94.0033 19.5895 93.8833 19.848L92.8492 19.4787C93.0339 19.0478 93.2801 18.7124 93.5879 18.4723C93.8987 18.2292 94.2372 18.0599 94.6035 17.9645C94.9728 17.866 95.336 17.8168 95.693 17.8168C95.9207 17.8168 96.1823 17.8445 96.4778 17.8999C96.7763 17.9522 97.0641 18.0614 97.3411 18.2276C97.6211 18.3938 97.8535 18.6446 98.0381 18.9801C98.2228 19.3156 98.3151 19.7649 98.3151 20.3281V25H97.2256V24.0398H97.1703C97.0964 24.1937 96.9733 24.3583 96.8009 24.5337C96.6286 24.7092 96.3993 24.8584 96.1131 24.9815C95.8269 25.1046 95.4775 25.1662 95.0651 25.1662ZM95.2313 24.1875C95.6622 24.1875 96.0254 24.1029 96.3208 23.9336C96.6194 23.7643 96.844 23.5458 96.9948 23.2781C97.1487 23.0103 97.2256 22.7287 97.2256 22.4332V21.4361C97.1795 21.4915 97.0779 21.5423 96.921 21.5884C96.7671 21.6315 96.5886 21.67 96.3855 21.7038C96.1854 21.7346 95.99 21.7623 95.7992 21.7869C95.6114 21.8085 95.4591 21.8269 95.3421 21.8423C95.059 21.8793 94.7943 21.9393 94.5481 22.0224C94.305 22.1024 94.108 22.224 93.9572 22.3871C93.8095 22.5471 93.7356 22.7656 93.7356 23.0426C93.7356 23.4212 93.8756 23.7074 94.1557 23.9013C94.4388 24.0921 94.7974 24.1875 95.2313 24.1875ZM101.653 20.7344V25H100.564V17.9091H101.616V19.017H101.709C101.875 18.657 102.127 18.3677 102.466 18.1491C102.804 17.9276 103.241 17.8168 103.777 17.8168C104.257 17.8168 104.677 17.9152 105.037 18.1122C105.397 18.3061 105.677 18.6016 105.877 18.9986C106.077 19.3925 106.177 19.8911 106.177 20.4943V25H105.088V20.5682C105.088 20.0111 104.943 19.5772 104.654 19.2663C104.365 18.9524 103.968 18.7955 103.463 18.7955C103.115 18.7955 102.804 18.8709 102.53 19.0217C102.259 19.1725 102.046 19.3925 101.889 19.6818C101.732 19.9711 101.653 20.322 101.653 20.7344ZM113.451 19.4972L112.472 19.7741C112.411 19.611 112.32 19.4525 112.2 19.2987C112.083 19.1417 111.923 19.0124 111.72 18.9109C111.517 18.8093 111.257 18.7585 110.94 18.7585C110.506 18.7585 110.144 18.8585 109.855 19.0586C109.568 19.2556 109.425 19.5064 109.425 19.8111C109.425 20.0819 109.524 20.2958 109.721 20.4528C109.918 20.6097 110.226 20.7405 110.644 20.8452L111.697 21.1037C112.331 21.2576 112.803 21.493 113.114 21.81C113.425 22.1239 113.58 22.5286 113.58 23.0241C113.58 23.4304 113.463 23.7936 113.229 24.1136C112.998 24.4337 112.675 24.6861 112.26 24.8707C111.844 25.0554 111.361 25.1477 110.81 25.1477C110.087 25.1477 109.488 24.9908 109.014 24.6768C108.541 24.3629 108.24 23.9044 108.114 23.3011L109.148 23.0426C109.247 23.4242 109.433 23.7105 109.707 23.9013C109.984 24.0921 110.346 24.1875 110.792 24.1875C111.3 24.1875 111.703 24.0798 112.001 23.8643C112.303 23.6458 112.454 23.3842 112.454 23.0795C112.454 22.8333 112.368 22.6271 112.195 22.4609C112.023 22.2917 111.758 22.1655 111.401 22.0824L110.219 21.8054C109.57 21.6515 109.093 21.413 108.788 21.0898C108.487 20.7636 108.336 20.3558 108.336 19.8665C108.336 19.4664 108.448 19.1125 108.673 18.8047C108.901 18.4969 109.21 18.2553 109.601 18.0799C109.995 17.9045 110.441 17.8168 110.94 17.8168C111.641 17.8168 112.192 17.9706 112.592 18.2784C112.995 18.5862 113.282 18.9924 113.451 19.4972ZM118.638 17.9091V18.8324H114.815V17.9091H118.638ZM115.96 25V16.9304C115.96 16.5241 116.056 16.1856 116.247 15.9148C116.437 15.6439 116.685 15.4408 116.99 15.3054C117.294 15.17 117.616 15.1023 117.955 15.1023C118.222 15.1023 118.441 15.1238 118.61 15.1669C118.779 15.21 118.906 15.25 118.989 15.2869L118.675 16.2287C118.619 16.2102 118.542 16.1871 118.444 16.1594C118.349 16.1317 118.222 16.1179 118.065 16.1179C117.705 16.1179 117.445 16.2087 117.285 16.3903C117.128 16.5719 117.05 16.8381 117.05 17.1889V25H115.96ZM123.106 25.1477C122.423 25.1477 121.833 24.9969 121.338 24.6953C120.845 24.3906 120.465 23.9659 120.197 23.4212C119.933 22.8733 119.8 22.2363 119.8 21.5099C119.8 20.7836 119.933 20.1435 120.197 19.5895C120.465 19.0324 120.838 18.5985 121.315 18.2876C121.795 17.9737 122.355 17.8168 122.995 17.8168C123.364 17.8168 123.729 17.8783 124.089 18.0014C124.449 18.1245 124.777 18.3246 125.072 18.6016C125.368 18.8755 125.603 19.2386 125.779 19.6911C125.954 20.1435 126.042 20.7005 126.042 21.3622V21.8239H120.576V20.8821H124.934C124.934 20.482 124.854 20.125 124.694 19.8111C124.537 19.4972 124.312 19.2494 124.02 19.0678C123.731 18.8862 123.389 18.7955 122.995 18.7955C122.561 18.7955 122.186 18.9032 121.869 19.1186C121.555 19.331 121.313 19.608 121.144 19.9496C120.974 20.2912 120.89 20.6574 120.89 21.0483V21.6761C120.89 22.2116 120.982 22.6656 121.167 23.038C121.355 23.4073 121.615 23.6889 121.947 23.8828C122.279 24.0736 122.666 24.169 123.106 24.169C123.392 24.169 123.651 24.129 123.881 24.049C124.115 23.9659 124.317 23.8428 124.486 23.6797C124.655 23.5135 124.786 23.3073 124.878 23.0611L125.931 23.3565C125.82 23.7135 125.634 24.0275 125.372 24.2983C125.111 24.5661 124.788 24.7753 124.403 24.9261C124.018 25.0739 123.586 25.1477 123.106 25.1477ZM127.959 25V17.9091H129.012V18.9801H129.086C129.215 18.6293 129.449 18.3446 129.787 18.1261C130.126 17.9076 130.507 17.7983 130.932 17.7983C131.012 17.7983 131.112 17.7998 131.232 17.8029C131.352 17.806 131.443 17.8106 131.505 17.8168V18.9247C131.468 18.9155 131.383 18.9016 131.251 18.8832C131.121 18.8616 130.984 18.8509 130.84 18.8509C130.495 18.8509 130.187 18.9232 129.917 19.0678C129.649 19.2094 129.436 19.4064 129.279 19.6587C129.126 19.908 129.049 20.1927 129.049 20.5128V25H127.959Z" fill="#6C7E95"/>
<path d="M161 22L157 18L153 22" stroke="#6C7E95" stroke-width="1.5" stroke-linecap="round" stroke-linejoin="round"/>
<rect x="0.5" y="0.5" width="181" height="39" rx="7.5" stroke="#E7EDF4"/>
</svg>
