<svg width="33" height="32" viewBox="0 0 33 32" fill="none" xmlns="http://www.w3.org/2000/svg">
<ellipse cx="16.1602" cy="16" rx="16.1602" ry="16" fill="#FEF3D8"/>
<path d="M19.3387 12.6351C19.3387 14.6427 17.7112 16.2702 15.7036 16.2702C13.696 16.2702 12.0685 14.6427 12.0685 12.6351C12.0685 10.6275 13.696 9 15.7036 9C16.7076 9 17.6165 9.40705 18.2744 10.0651" stroke="#FC9256" stroke-width="1.3" stroke-linecap="round"/>
<path d="M17.1394 12.6367C17.1394 13.4303 16.496 14.0737 15.7024 14.0737C14.9087 14.0737 14.2654 13.4303 14.2654 12.6367" stroke="#FC9256" stroke-width="1.3" stroke-linecap="round"/>
<path d="M17.5098 18.0889H14C11.7909 18.0889 10 19.8797 10 22.0889V22.3507" stroke="#FC9256" stroke-width="1.3" stroke-linecap="round"/>
<path d="M21.3983 17.0998C21.7241 16.7739 22.2524 16.7739 22.5783 17.0998V17.0998C22.9042 17.4256 22.9042 17.954 22.5783 18.2798L18.5508 22.3074L17.2681 22.41L17.3707 21.1273L21.3983 17.0998Z" stroke="#FC9256" stroke-width="1.3" stroke-linecap="round"/>
<path d="M14.1753 20.6816H12.5065" stroke="#FC9256" stroke-width="1.3" stroke-linecap="round"/>
<path d="M18.3441 20.2646L19.1785 21.0991" stroke="#FC9256" stroke-width="1.3" stroke-linecap="round"/>
</svg>
