<svg width="20" height="20" viewBox="0 0 20 20" fill="none" xmlns="http://www.w3.org/2000/svg">
<path d="M10.4626 12.0735C10.1873 12.3489 9.83754 12.5378 9.45632 12.6173L7.73443 12.976C7.31124 13.0642 6.93651 12.6894 7.02467 12.2662L7.3834 10.5443C7.46282 10.1631 7.6518 9.81339 7.92714 9.53804L14.7581 2.70711C15.1486 2.31658 15.7818 2.31658 16.1723 2.70711L17.2936 3.82838C17.6841 4.2189 17.6841 4.85207 17.2936 5.24259L10.4626 12.0735Z" stroke="#93a6ff" stroke-width="1.3" stroke-miterlimit="10" stroke-linecap="round" stroke-linejoin="round"/>
<path d="M16.6067 10.4416V16.0003C16.6067 17.1048 15.7113 18.0003 14.6067 18.0003H4C2.89543 18.0003 2 17.1048 2 16.0003V5.39355C2 4.28898 2.89543 3.39355 4 3.39355H9.55872" stroke="#93a6ff" stroke-width="1.3" stroke-miterlimit="10" stroke-linecap="round" stroke-linejoin="round"/>
</svg>
