<svg width="20" height="20" viewBox="0 0 20 20" fill="none" xmlns="http://www.w3.org/2000/svg">
<path d="M10.4621 12.0735C10.1868 12.3489 9.83705 12.5378 9.45584 12.6173L7.73394 12.976C7.31076 13.0642 6.93602 12.6894 7.02418 12.2662L7.38291 10.5443C7.46233 10.1631 7.65131 9.81339 7.92666 9.53804L14.7576 2.70711C15.1481 2.31658 15.7813 2.31658 16.1718 2.70711L17.2931 3.82838C17.6836 4.2189 17.6836 4.85207 17.2931 5.24259L10.4621 12.0735Z" stroke="#2E47BA" stroke-width="1.3" stroke-miterlimit="10" stroke-linecap="round" stroke-linejoin="round"/>
<path d="M16.6067 10.4414V16.0001C16.6067 17.1047 15.7113 18.0001 14.6067 18.0001H4C2.89543 18.0001 2 17.1047 2 16.0001V5.39337C2 4.2888 2.89543 3.39337 4 3.39337H9.55872" stroke="#2E47BA" stroke-width="1.3" stroke-miterlimit="10" stroke-linecap="round" stroke-linejoin="round"/>
</svg>
