<svg width="20" height="20" viewBox="0 0 20 20" fill="none" xmlns="http://www.w3.org/2000/svg">
<path d="M10.4617 12.0736C10.1863 12.3489 9.83658 12.5379 9.45536 12.6173L7.73345 12.9761C7.31027 13.0642 6.93553 12.6895 7.02369 12.2663L7.38242 10.5444C7.46184 10.1632 7.65082 9.81343 7.92617 9.53808L14.7571 2.70711C15.1477 2.31658 15.7808 2.31658 16.1714 2.70711L17.2926 3.82839C17.6832 4.21891 17.6832 4.85208 17.2926 5.2426L10.4617 12.0736Z" stroke="white" stroke-width="1.3" stroke-miterlimit="10" stroke-linecap="round" stroke-linejoin="round"/>
<path d="M16.6068 10.4406V15.9994C16.6068 17.1039 15.7114 17.9994 14.6068 17.9994H4C2.89543 17.9994 2 17.1039 2 15.9994V5.39258C2 4.28801 2.89543 3.39258 4 3.39258H9.55876" stroke="white" stroke-width="1.3" stroke-miterlimit="10" stroke-linecap="round" stroke-linejoin="round"/>
</svg>
