<svg width="21" height="20" viewBox="0 0 21 20" fill="none" xmlns="http://www.w3.org/2000/svg">
<path d="M10.6556 12.0819C10.3805 12.3518 10.0332 12.5365 9.65552 12.6137L7.86679 12.9793C7.44326 13.0659 7.06993 12.6897 7.15973 12.2668L7.52434 10.5499C7.60604 10.1652 7.79935 9.8131 8.0801 9.53767L15.0632 2.68702C15.4521 2.30548 16.0749 2.30548 16.4638 2.68702L17.6204 3.82162C18.0199 4.21363 18.0199 4.85729 17.6204 5.24931L10.6556 12.0819Z" stroke="#6C7E95" stroke-width="1.3" stroke-miterlimit="10" stroke-linecap="round" stroke-linejoin="round"/>
<path d="M16.9276 10.4415V16.0002C16.9276 17.1047 16.0322 18.0002 14.9276 18.0002H4.03858C2.93401 18.0002 2.03857 17.1047 2.03857 16.0002V5.39356C2.03857 4.28899 2.934 3.39355 4.03857 3.39355H9.74338" stroke="#6C7E95" stroke-width="1.3" stroke-miterlimit="10" stroke-linecap="round" stroke-linejoin="round"/>
</svg>
