<svg width="104" height="40" viewBox="0 0 104 40" fill="none" xmlns="http://www.w3.org/2000/svg">
<rect x="0.5" y="0.5" width="103" height="39" rx="7.5" fill="white"/>
<path d="M16.1449 25V15.5455H21.8509V16.5611H17.2898V19.7557H21.5554V20.7713H17.2898V23.9844H21.9247V25H16.1449ZM26.7042 25.1477C26.1133 25.1477 25.5917 24.9985 25.1393 24.6999C24.6868 24.3983 24.3329 23.9736 24.0775 23.4258C23.822 22.8749 23.6943 22.224 23.6943 21.473C23.6943 20.7282 23.822 20.0819 24.0775 19.5341C24.3329 18.9863 24.6884 18.5631 25.1439 18.2646C25.5994 17.966 26.1256 17.8168 26.7227 17.8168C27.1844 17.8168 27.5491 17.8937 27.8168 18.0476C28.0877 18.1984 28.2939 18.3707 28.4354 18.5646C28.5801 18.7554 28.6924 18.9124 28.7724 19.0355H28.8648V15.5455H29.9542V25H28.9017V23.9105H28.7724C28.6924 24.0398 28.5785 24.2029 28.4308 24.3999C28.2831 24.5937 28.0723 24.7676 27.7984 24.9215C27.5244 25.0723 27.1597 25.1477 26.7042 25.1477ZM26.852 24.169C27.289 24.169 27.6583 24.0552 27.9599 23.8274C28.2615 23.5966 28.4908 23.2781 28.6478 22.8718C28.8047 22.4625 28.8832 21.9901 28.8832 21.4545C28.8832 20.9252 28.8063 20.462 28.6524 20.065C28.4985 19.6649 28.2708 19.354 27.9692 19.1325C27.6676 18.9078 27.2952 18.7955 26.852 18.7955C26.3903 18.7955 26.0056 18.9139 25.6979 19.1509C25.3932 19.3848 25.1639 19.7034 25.01 20.1065C24.8592 20.5066 24.7838 20.956 24.7838 21.4545C24.7838 21.9593 24.8607 22.4179 25.0146 22.8303C25.1716 23.2396 25.4024 23.5658 25.7071 23.8089C26.0149 24.049 26.3965 24.169 26.852 24.169ZM32.3609 25V17.9091H33.4504V25H32.3609ZM32.9149 16.7273C32.7025 16.7273 32.5194 16.6549 32.3655 16.5103C32.2147 16.3656 32.1393 16.1918 32.1393 15.9886C32.1393 15.7855 32.2147 15.6116 32.3655 15.467C32.5194 15.3223 32.7025 15.25 32.9149 15.25C33.1272 15.25 33.3088 15.3223 33.4596 15.467C33.6135 15.6116 33.6905 15.7855 33.6905 15.9886C33.6905 16.1918 33.6135 16.3656 33.4596 16.5103C33.3088 16.6549 33.1272 16.7273 32.9149 16.7273ZM38.7897 17.9091V18.8324H35.115V17.9091H38.7897ZM36.186 16.2102H37.2755V22.9688C37.2755 23.2765 37.3201 23.5073 37.4094 23.6612C37.5017 23.812 37.6186 23.9136 37.7602 23.9659C37.9049 24.0152 38.0572 24.0398 38.2172 24.0398C38.3373 24.0398 38.4357 24.0336 38.5127 24.0213C38.5896 24.0059 38.6512 23.9936 38.6973 23.9844L38.9189 24.9631C38.8451 24.9908 38.742 25.0185 38.6096 25.0462C38.4773 25.0769 38.3096 25.0923 38.1064 25.0923C37.7987 25.0923 37.4971 25.0262 37.2016 24.8938C36.9092 24.7615 36.6661 24.5599 36.4722 24.2891C36.2814 24.0182 36.186 23.6766 36.186 23.2642V16.2102Z" fill="#6C7E95"/>
<path d="M83 22L79 18L75 22" stroke="#6C7E95" stroke-width="1.5" stroke-linecap="round" stroke-linejoin="round"/>
<rect x="0.5" y="0.5" width="103" height="39" rx="7.5" stroke="#E7EDF4"/>
</svg>
