<svg width="20" height="20" viewBox="0 0 20 20" fill="none" xmlns="http://www.w3.org/2000/svg">
<path d="M10.4621 12.0734C10.1867 12.3487 9.83701 12.5377 9.45579 12.6171L7.73394 12.9758C7.31076 13.064 6.93602 12.6893 7.02418 12.2661L7.3829 10.5442C7.46232 10.163 7.6513 9.81327 7.92665 9.53793L14.7575 2.70711C15.148 2.31658 15.7812 2.31658 16.1717 2.70711L17.2929 3.82834C17.6834 4.21887 17.6834 4.85203 17.2929 5.24255L10.4621 12.0734Z" stroke="white" stroke-width="1.3" stroke-miterlimit="10" stroke-linecap="round" stroke-linejoin="round"/>
<path d="M16.6065 10.4415V16.0001C16.6065 17.1046 15.7111 18.0001 14.6065 18.0001H4C2.89543 18.0001 2 17.1046 2 16.0001V5.39356C2 4.28899 2.89543 3.39355 4 3.39355H9.55861" stroke="white" stroke-width="1.3" stroke-miterlimit="10" stroke-linecap="round" stroke-linejoin="round"/>
</svg>
