<svg width="20" height="20" viewBox="0 0 20 20" fill="none" xmlns="http://www.w3.org/2000/svg">
<path d="M10.4619 12.0734C10.1865 12.3488 9.83678 12.5378 9.45557 12.6172L7.7337 12.9759C7.31051 13.0641 6.93577 12.6893 7.02394 12.2661L7.38266 10.5443C7.46208 10.1631 7.65106 9.81332 7.92641 9.53797L14.7573 2.70711C15.1478 2.31658 15.781 2.31658 16.1715 2.70711L17.2927 3.82836C17.6833 4.21888 17.6833 4.85205 17.2927 5.24257L10.4619 12.0734Z" stroke="#DEDEDE" stroke-width="1.3" stroke-miterlimit="10" stroke-linecap="round" stroke-linejoin="round"/>
<path d="M16.6065 10.4412V15.9999C16.6065 17.1045 15.711 17.9999 14.6065 17.9999H3.99988C2.89531 17.9999 1.99988 17.1045 1.99988 15.9999V5.39331C1.99988 4.28874 2.89531 3.39331 3.99988 3.39331H9.55854" stroke="#DEDEDE" stroke-width="1.3" stroke-miterlimit="10" stroke-linecap="round" stroke-linejoin="round"/>
</svg>
