<svg width="20" height="21" viewBox="0 0 20 21" fill="none" xmlns="http://www.w3.org/2000/svg">
<path d="M10.4621 12.2609C10.1868 12.5363 9.83703 12.7253 9.45581 12.8047L7.73394 13.1634C7.31076 13.2516 6.93602 12.8768 7.02418 12.4536L7.3829 10.7318C7.46232 10.3506 7.6513 10.0008 7.92665 9.72547L14.7575 2.89461C15.148 2.50408 15.7812 2.50408 16.1717 2.89461L17.293 4.01586C17.6835 4.40638 17.6835 5.03955 17.293 5.43007L10.4621 12.2609Z" stroke="#6C7E95" stroke-width="1.3" stroke-miterlimit="10" stroke-linecap="round" stroke-linejoin="round"/>
<path d="M16.6066 10.628V16.1867C16.6066 17.2912 15.7112 18.1867 14.6066 18.1867H4C2.89543 18.1867 2 17.2912 2 16.1867V5.58008C2 4.47551 2.89543 3.58008 4 3.58008H9.55866" stroke="#6C7E95" stroke-width="1.3" stroke-miterlimit="10" stroke-linecap="round" stroke-linejoin="round"/>
</svg>
