<svg width="40" height="40" viewBox="0 0 40 40" fill="none" xmlns="http://www.w3.org/2000/svg">
<rect width="40" height="40" rx="20" fill="#DCEDFF"/>
<rect x="6.44189" y="13.0804" width="25.7374" height="16.8744" rx="1" fill="#5472EF"/>
<rect x="6.44189" y="13.0804" width="25.7374" height="16.8744" rx="1" fill="#5472EF"/>
<circle cx="27.6539" cy="25.8938" r="2.09081" fill="#FFCB71"/>
<circle cx="24.6593" cy="25.8938" r="2.09081" fill="#C2DEFF"/>
<rect x="6.44189" y="16.1119" width="25.7374" height="3.88871" fill="#435BBF"/>
<path d="M24.3833 13.0804H31.1793C31.7316 13.0804 32.1793 13.5281 32.1793 14.0804V21.8314C31.3604 22.2435 30.4354 22.4754 29.4562 22.4754C26.1057 22.4754 23.3895 19.7593 23.3895 16.4088C23.3895 15.1797 23.755 14.036 24.3833 13.0804Z" fill="#222E60"/>
<circle cx="28.6352" cy="15.4509" r="6.06667" fill="#EF5454"/>
<path d="M30.5634 13.5226L26.7069 17.3791" stroke="white" stroke-width="1.3" stroke-linecap="round" stroke-linejoin="round"/>
<path d="M26.7069 13.5226L30.5634 17.3791" stroke="white" stroke-width="1.3" stroke-linecap="round" stroke-linejoin="round"/>
</svg>
