<svg width="40" height="32" viewBox="0 0 40 32" fill="none" xmlns="http://www.w3.org/2000/svg">
<rect width="40" height="32" rx="16" fill="#E62424"/>
<path d="M13 11.084V10.434C12.641 10.434 12.35 10.725 12.35 11.084H13ZM24.1602 11.084H24.8102C24.8102 10.725 24.5192 10.434 24.1602 10.434V11.084ZM18.5094 19.5413C18.8684 19.5413 19.1594 19.2503 19.1594 18.8913C19.1594 18.5324 18.8684 18.2413 18.5094 18.2413V19.5413ZM23.5102 14.8885C23.5102 15.2475 23.8012 15.5385 24.1602 15.5385C24.5192 15.5385 24.8102 15.2475 24.8102 14.8885H23.5102ZM13 11.734H24.1602V10.434H13V11.734ZM18.5094 18.2413H14V19.5413H18.5094V18.2413ZM13.65 17.8913V11.084H12.35V17.8913H13.65ZM23.5102 11.084V14.8885H24.8102V11.084H23.5102ZM14 18.2413C13.8067 18.2413 13.65 18.0846 13.65 17.8913H12.35C12.35 18.8026 13.0887 19.5413 14 19.5413V18.2413Z" fill="white"/>
<path d="M13 11.084V11.734C12.759 11.734 12.5378 11.6007 12.4253 11.3876C12.3127 11.1745 12.3273 10.9166 12.4631 10.7176L13 11.084ZM24.1602 11.084L24.6971 10.7176C24.8329 10.9166 24.8475 11.1745 24.7349 11.3876C24.6224 11.6007 24.4012 11.734 24.1602 11.734V11.084ZM22.4711 8.6091L23.008 8.24268L22.4711 8.6091ZM13 10.434H24.1602V11.734H13V10.434ZM23.6233 11.4504L21.9342 8.97552L23.008 8.24268L24.6971 10.7176L23.6233 11.4504ZM21.6451 8.82282H15.5151V7.52282H21.6451V8.82282ZM15.226 8.97552L13.5369 11.4504L12.4631 10.7176L14.1522 8.24268L15.226 8.97552ZM15.5151 8.82282C15.3994 8.82282 15.2912 8.87997 15.226 8.97552L14.1522 8.24268C14.4597 7.79226 14.9698 7.52282 15.5151 7.52282V8.82282ZM21.9342 8.97552C21.869 8.87997 21.7608 8.82282 21.6451 8.82282V7.52282C22.1904 7.52282 22.7005 7.79226 23.008 8.24268L21.9342 8.97552Z" fill="white"/>
<path d="M18.5781 8.17188L18.5781 11.083" stroke="white" stroke-width="1.3" stroke-linecap="round" stroke-linejoin="round"/>
<path d="M23.126 24L26.9999 20" stroke="white" stroke-width="1.3" stroke-linecap="round" stroke-linejoin="round"/>
<path d="M27 24L23.126 20" stroke="white" stroke-width="1.3" stroke-linecap="round" stroke-linejoin="round"/>
</svg>
