<svg width="21" height="20" viewBox="0 0 21 20" fill="none" xmlns="http://www.w3.org/2000/svg">
<path d="M16.7002 5V3C16.7002 2.44772 16.2525 2 15.7002 2H5.7002C5.14791 2 4.7002 2.44772 4.7002 3V17C4.7002 17.5523 5.14791 18 5.70019 18H13.2716H15.7002C16.2525 18 16.7002 17.5523 16.7002 17V14V7" stroke="#6C7E95" stroke-width="1.3" stroke-miterlimit="10" stroke-linecap="round" stroke-linejoin="round"/>
<path d="M7.0145 9.57046L7.79973 10.3557L9.37019 8.78523" stroke="#6C7E95" stroke-width="1.3" stroke-miterlimit="10" stroke-linecap="round" stroke-linejoin="round"/>
<path d="M7.0145 6.57046L7.79973 7.3557L9.37019 5.78523" stroke="#6C7E95" stroke-width="1.3" stroke-miterlimit="10" stroke-linecap="round" stroke-linejoin="round"/>
<path d="M7.0145 12.5705L7.79973 13.3557L9.37019 11.7852" stroke="#6C7E95" stroke-width="1.3" stroke-miterlimit="10" stroke-linecap="round" stroke-linejoin="round"/>
<path d="M11.7002 10H13.7002" stroke="#6C7E95" stroke-width="1.3" stroke-miterlimit="10" stroke-linecap="round" stroke-linejoin="round"/>
<path d="M11.7002 7H13.7002" stroke="#6C7E95" stroke-width="1.3" stroke-miterlimit="10" stroke-linecap="round" stroke-linejoin="round"/>
<path d="M11.7002 13H13.7002" stroke="#6C7E95" stroke-width="1.3" stroke-miterlimit="10" stroke-linecap="round" stroke-linejoin="round"/>
</svg>
