<svg width="80" height="80" viewBox="0 0 80 80" fill="none" xmlns="http://www.w3.org/2000/svg">
<g filter="url(#filter0_d_2251_107343)">
<rect x="20" y="10" width="40" height="40" rx="20" fill="#2E47BA"/>
<path d="M37.0837 35.8332H36.667C33.3337 35.8332 31.667 34.9998 31.667 30.8332V26.6665C31.667 23.3332 33.3337 21.6665 36.667 21.6665H43.3337C46.667 21.6665 48.3337 23.3332 48.3337 26.6665V30.8332C48.3337 34.1665 46.667 35.8332 43.3337 35.8332H42.917C42.6587 35.8332 42.4087 35.9582 42.2503 36.1665L41.0003 37.8332C40.4503 38.5665 39.5503 38.5665 39.0003 37.8332L37.7503 36.1665C37.617 35.9832 37.3087 35.8332 37.0837 35.8332Z" fill="#2E47BA" stroke="white" stroke-width="1.3" stroke-miterlimit="10" stroke-linecap="round" stroke-linejoin="round"/>
<path d="M35.833 26.6665H44.1663" stroke="white" stroke-width="1.3" stroke-linecap="round" stroke-linejoin="round"/>
<path d="M35.833 30.8335H40.833" stroke="white" stroke-width="1.3" stroke-linecap="round" stroke-linejoin="round"/>
</g>
<defs>
<filter id="filter0_d_2251_107343" x="0" y="0" width="80" height="80" filterUnits="userSpaceOnUse" color-interpolation-filters="sRGB">
<feFlood flood-opacity="0" result="BackgroundImageFix"/>
<feColorMatrix in="SourceAlpha" type="matrix" values="0 0 0 0 0 0 0 0 0 0 0 0 0 0 0 0 0 0 127 0" result="hardAlpha"/>
<feOffset dy="10"/>
<feGaussianBlur stdDeviation="10"/>
<feComposite in2="hardAlpha" operator="out"/>
<feColorMatrix type="matrix" values="0 0 0 0 0 0 0 0 0 0.0744047 0 0 0 0 0.416667 0 0 0 0.25 0"/>
<feBlend mode="normal" in2="BackgroundImageFix" result="effect1_dropShadow_2251_107343"/>
<feBlend mode="normal" in="SourceGraphic" in2="effect1_dropShadow_2251_107343" result="shape"/>
</filter>
</defs>
</svg>
