<?xml version="1.0" encoding="UTF-8"?><svg id="Layer_1" xmlns="http://www.w3.org/2000/svg" viewBox="0 0 13.9 15.7"><defs><style>.cls-1{stroke-linecap:round;}.cls-1,.cls-2{fill:none;stroke:#2e47ba;stroke-linejoin:round;stroke-width:1.3px;}.cls-3{fill:#2e47ba;}</style></defs><path class="cls-1" d="m13.25,3.35v-1.7c0-.55-.45-1-1-1H1.65c-.55,0-1,.45-1,1v12.4c0,.55.45,1,1,1h10.6c.55,0,1-.45,1-1V5.15"/><path class="cls-3" d="m9.65,4.97v-.65c.36,0,.65.29.65.65h-.65Zm-6.05,1.53c0-.36.29-.65.65-.65s.65.29.65.65h-1.3Zm6.05-.88h-5.4v-1.3h5.4v1.3Zm-4.4,3.06h3.4v1.3h-3.4v-1.3Zm3.75-.35v-3.36h1.3v3.36h-1.3Zm-4.1-1.83v1.83h-1.3v-1.83h1.3Zm3.75,2.18c.19,0,.35-.16.35-.35h1.3c0,.91-.74,1.65-1.65,1.65v-1.3Zm-3.4,1.3c-.91,0-1.65-.74-1.65-1.65h1.3c0,.19.16.35.35.35v1.3Z"/><path class="cls-2" d="m4.25,4.97h5.4l-.67-1.13c-.18-.3-.51-.49-.86-.49h-2.34c-.35,0-.68.19-.86.49l-.67,1.13Z"/><path class="cls-1" d="m5.15,12.35h3.6"/></svg>