<svg width="40" height="40" viewBox="0 0 40 40" fill="none" xmlns="http://www.w3.org/2000/svg">
<circle cx="20" cy="20" r="20" fill="#DCEDFF"/>
<g clip-path="url(#clip0_3851_193237)">
<path d="M18.6471 10.3365C19.379 9.55334 20.621 9.55334 21.353 10.3365L22.6145 11.6863C22.9796 12.0769 23.4957 12.2907 24.03 12.2726L25.8765 12.2102C26.9479 12.174 27.8261 13.0522 27.7898 14.1236L27.7274 15.9701C27.7094 16.5044 27.9231 17.0205 28.3138 17.3855L29.6636 18.6471C30.4467 19.379 30.4467 20.621 29.6636 21.353L28.3138 22.6145C27.9231 22.9796 27.7094 23.4957 27.7274 24.03L27.7898 25.8765C27.8261 26.9479 26.9479 27.8261 25.8765 27.7898L24.03 27.7274C23.4957 27.7094 22.9796 27.9231 22.6145 28.3138L21.353 29.6636C20.621 30.4467 19.379 30.4467 18.6471 29.6636L17.3855 28.3138C17.0205 27.9231 16.5044 27.7094 15.9701 27.7274L14.1236 27.7898C13.0522 27.8261 12.174 26.9479 12.2102 25.8765L12.2726 24.03C12.2907 23.4957 12.0769 22.9796 11.6863 22.6145L10.3365 21.353C9.55334 20.621 9.55334 19.379 10.3365 18.6471L11.6863 17.3855C12.0769 17.0205 12.2907 16.5044 12.2726 15.9701L12.2102 14.1236C12.174 13.0522 13.0522 12.174 14.1236 12.2102L15.9701 12.2726C16.5044 12.2907 17.0205 12.0769 17.3855 11.6863L18.6471 10.3365Z" fill="#2E47BA" stroke="white" stroke-width="1.44444" stroke-linecap="round" stroke-linejoin="round"/>
<path fill-rule="evenodd" clip-rule="evenodd" d="M20 30.2508V9.74902C20.4935 9.74902 20.987 9.94481 21.3529 10.3364L22.6145 11.6862C22.9796 12.0768 23.4956 12.2906 24.03 12.2725L25.8765 12.2101C26.9478 12.1739 27.826 13.0521 27.7898 14.1234L27.7274 15.97C27.7094 16.5043 27.9231 17.0204 28.3137 17.3854L29.6635 18.647C30.4467 19.3789 30.4467 20.6209 29.6635 21.3529L28.3137 22.6144C27.9231 22.9795 27.7094 23.4956 27.7274 24.0299L27.7898 25.8764C27.826 26.9477 26.9478 27.8259 25.8765 27.7897L24.03 27.7273C23.4956 27.7093 22.9796 27.923 22.6145 28.3137L21.3529 29.6635C20.987 30.055 20.4935 30.2508 20 30.2508Z" fill="#22358B"/>
<path d="M18.6471 10.3365C19.379 9.55334 20.621 9.55334 21.353 10.3365L22.6145 11.6863C22.9796 12.0769 23.4957 12.2907 24.03 12.2726L25.8765 12.2102C26.9479 12.174 27.8261 13.0522 27.7898 14.1236L27.7274 15.9701C27.7094 16.5044 27.9231 17.0205 28.3138 17.3855L29.6636 18.6471C30.4467 19.379 30.4467 20.621 29.6636 21.353L28.3138 22.6145C27.9231 22.9796 27.7094 23.4957 27.7274 24.03L27.7898 25.8765C27.8261 26.9479 26.9479 27.8261 25.8765 27.7898L24.03 27.7274C23.4957 27.7094 22.9796 27.9231 22.6145 28.3138L21.353 29.6636C20.621 30.4467 19.379 30.4467 18.6471 29.6636L17.3855 28.3138C17.0205 27.9231 16.5044 27.7094 15.9701 27.7274L14.1236 27.7898C13.0522 27.8261 12.174 26.9479 12.2102 25.8765L12.2726 24.03C12.2907 23.4957 12.0769 22.9796 11.6863 22.6145L10.3365 21.353C9.55334 20.621 9.55334 19.379 10.3365 18.6471L11.6863 17.3855C12.0769 17.0205 12.2907 16.5044 12.2726 15.9701L12.2102 14.1236C12.174 13.0522 13.0522 12.174 14.1236 12.2102L15.9701 12.2726C16.5044 12.2907 17.0205 12.0769 17.3855 11.6863L18.6471 10.3365Z" stroke="white" stroke-width="1.44444" stroke-linecap="round" stroke-linejoin="round"/>
<path d="M21.6198 17.3422C21.6198 17.3422 20.7571 16.5807 19.2378 17.11C17.8345 17.5976 17.8995 19.5144 20.0272 20.0215" stroke="white" stroke-width="1.44444" stroke-linecap="round" stroke-linejoin="round"/>
<path d="M18.29 22.6624C18.29 22.6624 19.1536 23.4239 20.672 22.8946C22.0753 22.4061 22.0075 20.4902 19.8836 19.9832" stroke="white" stroke-width="1.44444" stroke-linecap="round" stroke-linejoin="round"/>
<path d="M20.1094 16.923V15.6814" stroke="white" stroke-width="1.44444" stroke-linecap="round" stroke-linejoin="round"/>
<path d="M20.1096 24.3276V23.0859" stroke="white" stroke-width="1.44444" stroke-linecap="round" stroke-linejoin="round"/>
</g>
<defs>
<clipPath id="clip0_3851_193237">
<rect width="22.2222" height="22.2222" fill="white" transform="translate(8.88889 8.88892)"/>
</clipPath>
</defs>
</svg>
