<svg width="40" height="40" viewBox="0 0 40 40" fill="none" xmlns="http://www.w3.org/2000/svg">
<circle cx="20" cy="20" r="20" fill="#E0E3EA"/>
<g clip-path="url(#clip0_7591_101626)">
<path d="M18.6468 10.3365C19.3788 9.55334 20.6208 9.55334 21.3527 10.3365L22.6143 11.6863C22.9793 12.0769 23.4954 12.2907 24.0298 12.2726L25.8763 12.2102C26.9476 12.174 27.8258 13.0522 27.7896 14.1236L27.7272 15.9701C27.7091 16.5044 27.9229 17.0205 28.3135 17.3855L29.6633 18.6471C30.4465 19.379 30.4465 20.621 29.6633 21.353L28.3135 22.6145C27.9229 22.9796 27.7091 23.4957 27.7272 24.03L27.7896 25.8765C27.8258 26.9479 26.9476 27.8261 25.8763 27.7898L24.0298 27.7274C23.4954 27.7094 22.9793 27.9231 22.6143 28.3138L21.3527 29.6636C20.6208 30.4467 19.3788 30.4467 18.6468 29.6636L17.3853 28.3138C17.0202 27.9231 16.5042 27.7094 15.9698 27.7274L14.1233 27.7898C13.052 27.8261 12.1738 26.9479 12.21 25.8765L12.2724 24.03C12.2904 23.4957 12.0767 22.9796 11.6861 22.6145L10.3363 21.353C9.55309 20.621 9.55309 19.379 10.3363 18.6471L11.6861 17.3855C12.0767 17.0205 12.2904 16.5044 12.2724 15.9701L12.21 14.1236C12.1738 13.0522 13.052 12.174 14.1233 12.2102L15.9698 12.2726C16.5042 12.2907 17.0202 12.0769 17.3853 11.6863L18.6468 10.3365Z" fill="#62738A" stroke="white" stroke-width="1.44444" stroke-linecap="round" stroke-linejoin="round"/>
<path fill-rule="evenodd" clip-rule="evenodd" d="M20 30.2509V9.7491C20.4935 9.7491 20.987 9.94489 21.3529 10.3365L22.6145 11.6863C22.9796 12.0769 23.4956 12.2906 24.03 12.2726L25.8765 12.2102C26.9478 12.174 27.826 13.0522 27.7898 14.1235L27.7274 15.97C27.7094 16.5044 27.9231 17.0204 28.3137 17.3855L29.6635 18.6471C30.4467 19.379 30.4467 20.621 29.6635 21.3529L28.3137 22.6145C27.9231 22.9796 27.7094 23.4956 27.7274 24.03L27.7898 25.8765C27.826 26.9478 26.9478 27.826 25.8765 27.7898L24.03 27.7274C23.4956 27.7094 22.9796 27.9231 22.6145 28.3137L21.3529 29.6635C20.987 30.0551 20.4935 30.2509 20 30.2509Z" fill="#495667"/>
<path d="M18.6468 10.3365C19.3788 9.55334 20.6208 9.55334 21.3527 10.3365L22.6143 11.6863C22.9793 12.0769 23.4954 12.2907 24.0298 12.2726L25.8763 12.2102C26.9476 12.174 27.8258 13.0522 27.7896 14.1236L27.7272 15.9701C27.7091 16.5044 27.9229 17.0205 28.3135 17.3855L29.6633 18.6471C30.4465 19.379 30.4465 20.621 29.6633 21.353L28.3135 22.6145C27.9229 22.9796 27.7091 23.4957 27.7272 24.03L27.7896 25.8765C27.8258 26.9479 26.9476 27.8261 25.8763 27.7898L24.0298 27.7274C23.4954 27.7094 22.9793 27.9231 22.6143 28.3138L21.3527 29.6636C20.6208 30.4467 19.3788 30.4467 18.6468 29.6636L17.3853 28.3138C17.0202 27.9231 16.5042 27.7094 15.9698 27.7274L14.1233 27.7898C13.052 27.8261 12.1738 26.9479 12.21 25.8765L12.2724 24.03C12.2904 23.4957 12.0767 22.9796 11.6861 22.6145L10.3363 21.353C9.55309 20.621 9.55309 19.379 10.3363 18.6471L11.6861 17.3855C12.0767 17.0205 12.2904 16.5044 12.2724 15.9701L12.21 14.1236C12.1738 13.0522 13.052 12.174 14.1233 12.2102L15.9698 12.2726C16.5042 12.2907 17.0202 12.0769 17.3853 11.6863L18.6468 10.3365Z" stroke="white" stroke-width="1.44444" stroke-linecap="round" stroke-linejoin="round"/>
<path d="M21.6195 17.3425C21.6195 17.3425 20.7568 16.5809 19.2375 17.1103C17.8342 17.5978 17.8992 19.5146 20.0268 20.0217" stroke="white" stroke-width="1.44444" stroke-linecap="round" stroke-linejoin="round"/>
<path d="M18.2896 22.6629C18.2896 22.6629 19.1532 23.4244 20.6716 22.8951C22.0749 22.4066 22.0071 20.4907 19.8832 19.9836" stroke="white" stroke-width="1.44444" stroke-linecap="round" stroke-linejoin="round"/>
<path d="M20.1089 16.9235V15.6819" stroke="white" stroke-width="1.44444" stroke-linecap="round" stroke-linejoin="round"/>
<path d="M20.1094 24.3278V23.0862" stroke="white" stroke-width="1.44444" stroke-linecap="round" stroke-linejoin="round"/>
</g>
<defs>
<clipPath id="clip0_7591_101626">
<rect width="22.2222" height="22.2222" fill="white" transform="translate(8.88867 8.88892)"/>
</clipPath>
</defs>
</svg>
