<svg width="45" height="32" viewBox="0 0 45 32" fill="none" xmlns="http://www.w3.org/2000/svg">
<rect x="1" y="1" width="43" height="30" rx="6" stroke="#BFCEE0"/>
<path fill-rule="evenodd" clip-rule="evenodd" d="M9.08673 12.4883C9.47556 12.4234 9.8745 12.4309 10.2652 12.4709C10.6274 12.5476 10.9928 12.6331 11.3252 12.8048C11.9977 13.1335 12.5702 13.6663 12.9517 14.3224C13.268 14.9285 13.4856 15.6085 13.453 16.3031C13.4622 17.729 12.5803 19.0876 11.3311 19.6938C10.5213 20.0883 9.57931 20.1424 8.71396 19.9261C8.12864 19.7417 7.56398 19.4436 7.1375 18.9856C6.73122 18.5995 6.42456 18.1076 6.22992 17.578C5.97605 16.9267 5.95309 16.2025 6.06098 15.5164C6.25838 14.4973 6.87308 13.5629 7.74302 13.0211C8.14792 12.7479 8.61342 12.5856 9.08673 12.4883ZM8.56706 14.3181C8.27417 14.3487 7.9542 14.454 7.79214 14.7249C7.61311 14.9844 7.59443 15.3089 7.57669 15.6172L7.57225 15.6927C7.5686 15.7705 7.56182 15.8482 7.55504 15.9258V15.9258C7.54136 16.0826 7.52768 16.2393 7.53965 16.3972C7.54857 16.5038 7.55487 16.6107 7.56117 16.7177C7.57691 16.9849 7.59265 17.2522 7.64937 17.5145C7.71961 17.8451 8.0102 18.1014 8.33064 18.1616C8.92783 18.2719 9.5362 18.2622 10.1409 18.2526H10.1409L10.3069 18.2501C10.5544 18.2359 10.8018 18.2101 11.0465 18.1701C11.4129 18.1212 11.7365 17.8155 11.7966 17.4393C11.9018 16.978 11.9206 16.5021 11.8894 16.0313C11.8306 15.7294 11.6222 15.4571 11.3389 15.3466C11.2113 15.2834 11.0698 15.2838 10.9309 15.2842C10.9065 15.2843 10.8821 15.2843 10.8578 15.2841C10.5847 15.2844 10.3116 15.2842 10.0385 15.2841C9.56062 15.2838 9.0828 15.2835 8.60516 15.2859C8.55025 15.287 8.49901 15.2677 8.44822 15.2487L8.44821 15.2487C8.42936 15.2416 8.41058 15.2345 8.39169 15.2286C8.39032 15.1232 8.39399 14.9657 8.53217 14.9629C8.89197 14.9545 9.25211 14.957 9.61223 14.9594H9.61224H9.61224C10.0865 14.9627 10.5608 14.9659 11.0341 14.9445C10.9827 14.7 10.8372 14.4446 10.5865 14.3769C10.3602 14.3148 10.1261 14.2833 9.89332 14.2612C9.82694 14.2604 9.76046 14.2591 9.69393 14.2578L9.6939 14.2578C9.31686 14.2504 8.93814 14.243 8.56706 14.3181ZM11.1305 16.3723C11.0098 16.3389 10.8652 16.3878 10.8229 16.5152C10.7964 16.6619 10.8389 16.8033 10.8811 16.9437C10.8988 17.0027 10.9165 17.0615 10.929 17.1205C10.9428 17.1287 10.9634 17.1409 10.9841 17.1531C11.0047 17.1654 11.0254 17.1776 11.0392 17.1858C11.0865 17.1576 11.1347 17.1322 11.1847 17.1101C11.1901 16.986 11.2193 16.8666 11.2485 16.7473C11.2614 16.6944 11.2744 16.6414 11.2852 16.5881C11.2627 16.5002 11.2063 16.4198 11.1305 16.3723Z" fill="#01ACD7"/>
<path fill-rule="evenodd" clip-rule="evenodd" d="M18.169 13.6603C17.8151 13.5183 17.4221 13.5343 17.0512 13.5813C16.2487 13.7083 15.5445 14.3356 15.3067 15.1308C15.1988 15.4459 15.2011 15.7859 15.2296 16.1146C15.3255 16.9555 15.943 17.6938 16.7266 17.951C17.2821 18.1232 17.9229 18.1288 18.4357 17.8208C18.5027 17.7828 18.5635 17.7359 18.6244 17.6891L18.6244 17.689L18.6244 17.689L18.6244 17.689L18.6244 17.689L18.6244 17.689C18.6812 17.6453 18.738 17.6015 18.7998 17.565L18.8007 17.6086C18.8083 17.9553 18.8169 18.3473 18.5601 18.609C18.388 18.8243 18.1277 18.9377 17.8646 18.9791C17.2958 19.0858 16.6945 18.8869 16.2717 18.4881C16.1777 18.5862 16.0792 18.6799 15.9807 18.7735L15.9807 18.7735L15.9807 18.7735C15.8214 18.9251 15.6621 19.0766 15.522 19.2466C15.9645 19.6755 16.5251 19.985 17.1329 20.0673C17.7269 20.1439 18.3659 20.1068 18.8953 19.794C19.3442 19.5387 19.6977 19.1027 19.8364 18.5944C19.9224 18.3411 19.9212 18.0704 19.9201 17.8057L19.9199 17.7611C19.9195 16.3592 19.9195 14.9578 19.9199 13.5559C19.7048 13.5532 19.4897 13.5533 19.2746 13.5534C19.1192 13.5535 18.9639 13.5536 18.8085 13.5526L18.809 13.6681C18.8097 13.7933 18.8104 13.9184 18.8076 14.0436C18.6161 13.8832 18.4045 13.7417 18.169 13.6603ZM16.7592 14.8821C16.9433 14.7146 17.1875 14.6507 17.4258 14.6145C17.9 14.5406 18.4334 14.7631 18.6763 15.1981C18.7742 15.3743 18.7701 15.5735 18.7661 15.7709V15.7709C18.7647 15.84 18.7633 15.9088 18.7663 15.9764C18.8062 16.3912 18.4908 16.757 18.1295 16.8981C17.6929 17.0665 17.1545 17.0778 16.7734 16.7669C16.2023 16.3281 16.1909 15.3269 16.7592 14.8821ZM27.9225 13.5535C27.4478 13.5503 26.9529 13.6956 26.6109 14.0464C26.6079 14.0015 26.605 13.9567 26.6022 13.912C26.5973 13.8348 26.5924 13.7578 26.5866 13.681C26.2129 13.6763 25.8392 13.6749 25.4655 13.681C25.466 14.8416 25.466 16.0022 25.4659 17.1629C25.4658 18.0333 25.4658 18.9038 25.466 19.7743C25.7286 19.7916 25.9918 19.7901 26.2549 19.7886H26.2549H26.2549H26.255H26.255H26.255C26.3774 19.7879 26.4997 19.7872 26.6219 19.7884C26.6305 19.2507 26.6286 18.7127 26.6267 18.1747V18.1746V18.1746V18.1746V18.1745C26.626 17.9908 26.6254 17.807 26.6251 17.6233C27.4496 18.2943 28.7621 18.2205 29.5035 17.4507C30.3106 16.6216 30.3569 15.144 29.5797 14.2787C29.1707 13.7971 28.5427 13.531 27.9225 13.5535ZM26.6793 15.2992C26.8 14.9272 27.1691 14.7052 27.5277 14.6323C27.8972 14.5557 28.3104 14.6512 28.5959 14.9089C29.0798 15.3594 29.0835 16.2252 28.6272 16.6968C28.1695 17.1506 27.3597 17.1422 26.9047 16.6884C26.711 16.513 26.6095 16.2383 26.6265 15.9759C26.6303 15.9067 26.6285 15.8365 26.6267 15.7662C26.6226 15.6072 26.6185 15.4479 26.6793 15.2992ZM22.1134 13.6114C22.7657 13.4769 23.4796 13.5578 24.0474 13.9298C24.4794 14.1969 24.8081 14.63 24.955 15.1242C25.1566 15.7737 25.0661 16.5167 24.6888 17.082C24.3137 17.6515 23.6733 18.0004 23.0122 18.0658C22.605 18.094 22.1841 18.0799 21.7989 17.928C21.1608 17.7084 20.6255 17.169 20.4373 16.5026C20.2353 15.8781 20.3289 15.1633 20.6751 14.6102C20.9955 14.0929 21.5326 13.7398 22.1134 13.6114ZM22.3865 14.6385C22.224 14.686 22.072 14.7687 21.9389 14.8745C21.478 15.2465 21.3655 15.982 21.6938 16.48C22.0688 17.1135 23.0366 17.2386 23.5443 16.7081C23.7927 16.4744 23.9106 16.1255 23.8776 15.7836C23.9056 15.0255 23.0848 14.4146 22.3865 14.6385ZM33.043 13.5818C32.375 13.4919 31.6515 13.5874 31.0974 14.0055C30.7775 14.266 30.5038 14.6244 30.4497 15.0504C30.6092 15.0784 30.7674 15.1137 30.9256 15.1491L30.9256 15.1491C31.1317 15.1951 31.3378 15.2412 31.5469 15.271C31.6373 14.899 31.9522 14.6032 32.3218 14.5421C32.561 14.4997 32.8098 14.5124 33.0425 14.5848C33.2459 14.6526 33.4006 14.8806 33.3115 15.0979C33.1456 15.2529 32.92 15.2997 32.705 15.3443C32.6773 15.3501 32.6497 15.3558 32.6225 15.3617L32.5106 15.378C31.9648 15.457 31.3975 15.5391 30.9331 15.8621C30.3588 16.2736 30.3565 17.2419 30.8876 17.6915C31.326 18.0775 31.9435 18.1218 32.4935 18.047C32.874 17.9741 33.2574 17.8053 33.5002 17.4841C33.5016 17.5633 33.5016 17.6425 33.5016 17.7218C33.5016 17.8011 33.5016 17.8805 33.503 17.96C33.5867 17.9599 33.6705 17.9596 33.7543 17.9593H33.7545C34.0202 17.9584 34.2862 17.9576 34.5524 17.9619C34.5535 17.4314 34.5533 16.9012 34.5532 16.371V16.3685V16.3685V16.3684C34.5531 15.9701 34.5529 15.5719 34.5533 15.1736C34.5575 14.8506 34.4422 14.5359 34.2687 14.2698C33.9868 13.8644 33.5085 13.6598 33.043 13.5818ZM31.5978 16.8003C31.5372 16.6531 31.6543 16.5078 31.7713 16.4354C32.0074 16.3021 32.2732 16.2523 32.5384 16.2027C32.8581 16.1429 33.1769 16.0832 33.4424 15.8776C33.4399 15.9422 33.4419 16.0097 33.4439 16.0782V16.0783V16.0784C33.4508 16.3098 33.458 16.5519 33.2923 16.7246C32.9718 17.0519 32.4838 17.1121 32.0528 17.0839C31.8737 17.073 31.6382 17.0096 31.5978 16.8003ZM35.0145 13.6777C34.8911 13.6779 34.7677 13.6782 34.6442 13.6782C34.9699 14.3752 35.3028 15.0688 35.6357 15.7624C35.948 16.4132 36.2604 17.064 36.5668 17.7178C36.4162 18.0571 36.2524 18.3901 36.0887 18.7231C35.9156 19.0751 35.7425 19.4272 35.5849 19.7865C35.7175 19.7859 35.8502 19.787 35.9829 19.788C36.278 19.7903 36.5732 19.7927 36.868 19.7771C37.8352 17.7465 38.8016 15.7158 39.767 13.6843C39.3332 13.673 38.8998 13.6749 38.4665 13.6824C38.0506 14.6178 37.6296 15.5513 37.2063 16.4829C37.0815 16.2068 36.9553 15.9313 36.8292 15.6558C36.6232 15.2059 36.4172 14.756 36.217 14.3036C36.1849 14.23 36.1496 14.1578 36.1143 14.0856C36.0495 13.9532 35.9848 13.8208 35.9402 13.6796C35.6316 13.6766 35.3231 13.6771 35.0145 13.6777Z" fill="#010101"/>
</svg>
