<svg width="41" height="41" viewBox="0 0 41 41" fill="none" xmlns="http://www.w3.org/2000/svg">
<circle cx="20.5" cy="20.8672" r="20" fill="#DCEDFF"/>
<path d="M13 16.0811C13 14.9765 13.8954 14.0811 15 14.0811H26C27.1046 14.0811 28 14.9765 28 16.0811V27.0811C28 28.1856 27.1046 29.0811 26 29.0811H15C13.8954 29.0811 13 28.1856 13 27.0811V16.0811Z" fill="#2E47BA"/>
<mask id="mask0_5972_52554" style="mask-type:alpha" maskUnits="userSpaceOnUse" x="13" y="14" width="15" height="16">
<path d="M13 16.0811C13 14.9765 13.8954 14.0811 15 14.0811H26C27.1046 14.0811 28 14.9765 28 16.0811V27.0811C28 28.1856 27.1046 29.0811 26 29.0811H15C13.8954 29.0811 13 28.1856 13 27.0811V16.0811Z" fill="#2E47BA"/>
</mask>
<g mask="url(#mask0_5972_52554)">
<path d="M13 26.5947H28V27.081C28 28.1856 27.1046 29.081 26 29.081H15C13.8954 29.081 13 28.1856 13 27.081V26.5947Z" fill="#22358B"/>
<path d="M18 14.0811H23V19.3672L20.5 17.7651L18 19.3672V14.0811Z" fill="white"/>
<path d="M15.3196 25.4078L15.3196 22.1934H17.4479L17.4479 22.7537H15.9992L15.9992 23.5196H17.3066L17.3066 24.08H15.9992L15.9992 25.4078H15.3196Z" fill="white"/>
<path d="M17.905 25.4078L17.905 22.1934H19.1732C19.416 22.1934 19.6232 22.2368 19.7948 22.3236C19.9674 22.4094 20.0988 22.5313 20.1887 22.6893C20.2798 22.8463 20.3253 23.031 20.3253 23.2434C20.3253 23.4569 20.2793 23.6405 20.1872 23.7943C20.0951 23.9471 19.9617 24.0643 19.7869 24.1459C19.6132 24.2275 19.4029 24.2683 19.156 24.2683H18.3068L18.3068 23.7221H19.0461C19.1759 23.7221 19.2836 23.7043 19.3694 23.6687C19.4552 23.6332 19.5191 23.5798 19.5609 23.5086C19.6038 23.4375 19.6253 23.3491 19.6253 23.2434C19.6253 23.1367 19.6038 23.0467 19.5609 22.9734C19.5191 22.9002 19.4547 22.8447 19.3679 22.8071C19.2821 22.7683 19.1738 22.749 19.043 22.749H18.5847L18.5847 25.4078H17.905ZM19.641 23.945L20.4399 25.4078H19.6896L18.908 23.945H19.641Z" fill="white"/>
<path d="M20.8056 25.4078L20.8056 22.1934H22.9716L22.9716 22.7537H21.4852L21.4852 23.5196H22.8601L22.8601 24.08H21.4852L21.4852 24.8475H22.9778L22.9778 25.4078H20.8056Z" fill="white"/>
<path d="M23.5119 25.4078L23.5119 22.1934H25.6779L25.6779 22.7537H24.1915L24.1915 23.5196H25.5664L25.5664 24.08H24.1915L24.1915 24.8475H25.6842L25.6842 25.4078H23.5119Z" fill="white"/>
</g>
</svg>
