<svg width="41" height="41" viewBox="0 0 41 41" fill="none" xmlns="http://www.w3.org/2000/svg">
<circle cx="20.5" cy="20.5" r="20" fill="#E0E3EA"/>
<path d="M13 15.7139C13 14.6093 13.8954 13.7139 15 13.7139H26C27.1046 13.7139 28 14.6093 28 15.7139V26.7139C28 27.8184 27.1046 28.7139 26 28.7139H15C13.8954 28.7139 13 27.8184 13 26.7139V15.7139Z" fill="#62738A"/>
<mask id="mask0_7790_74461" style="mask-type:alpha" maskUnits="userSpaceOnUse" x="13" y="13" width="15" height="16">
<path d="M13 15.7139C13 14.6093 13.8954 13.7139 15 13.7139H26C27.1046 13.7139 28 14.6093 28 15.7139V26.7139C28 27.8184 27.1046 28.7139 26 28.7139H15C13.8954 28.7139 13 27.8184 13 26.7139V15.7139Z" fill="#2E47BA"/>
</mask>
<g mask="url(#mask0_7790_74461)">
<path d="M13 26.2276H28V26.7139C28 27.8184 27.1046 28.7139 26 28.7139H15C13.8954 28.7139 13 27.8184 13 26.7139V26.2276Z" fill="#495667"/>
<path d="M18 13.7139H23V19L20.5 17.398L18 19V13.7139Z" fill="white"/>
<path d="M15.3196 25.0404L15.3196 21.8259H17.4479L17.4479 22.3863H15.9992L15.9992 23.1522H17.3066L17.3066 23.7125H15.9992L15.9992 25.0404H15.3196Z" fill="white"/>
<path d="M17.905 25.0404L17.905 21.8259H19.1732C19.416 21.8259 19.6232 21.8694 19.7948 21.9562C19.9674 22.042 20.0988 22.1639 20.1887 22.3219C20.2798 22.4789 20.3253 22.6635 20.3253 22.876C20.3253 23.0894 20.2793 23.2731 20.1872 23.4269C20.0951 23.5796 19.9617 23.6968 19.7869 23.7785C19.6132 23.8601 19.4029 23.9009 19.156 23.9009H18.3068L18.3068 23.3547H19.0461C19.1759 23.3547 19.2836 23.3369 19.3694 23.3013C19.4552 23.2657 19.5191 23.2124 19.5609 23.1412C19.6038 23.0701 19.6253 22.9816 19.6253 22.876C19.6253 22.7692 19.6038 22.6792 19.5609 22.606C19.5191 22.5328 19.4547 22.4773 19.3679 22.4396C19.2821 22.4009 19.1738 22.3816 19.043 22.3816H18.5847L18.5847 25.0404H17.905ZM19.641 23.5776L20.4399 25.0404H19.6896L18.908 23.5776H19.641Z" fill="white"/>
<path d="M20.8056 25.0404L20.8056 21.8259H22.9716L22.9716 22.3863H21.4852L21.4852 23.1522H22.8601L22.8601 23.7125H21.4852L21.4852 24.4801H22.9778L22.9778 25.0404H20.8056Z" fill="white"/>
<path d="M23.5119 25.0404L23.5119 21.8259H25.6779L25.6779 22.3863H24.1915L24.1915 23.1522H25.5664L25.5664 23.7125H24.1915L24.1915 24.4801H25.6842L25.6842 25.0404H23.5119Z" fill="white"/>
</g>
</svg>
