<svg width="41" height="41" viewBox="0 0 41 41" fill="none" xmlns="http://www.w3.org/2000/svg">
<circle cx="20.5" cy="20.8672" r="20" fill="#DCEDFF"/>
<path d="M26.2637 26.7598L28.9818 25.673L26.8287 23.52L26.2905 22.9817L25.5192 22.2397L21.6451 25.9447L21.7864 26.0861L22.9166 27.2166L25.177 29.4778L26.2637 26.7598Z" fill="#22358B"/>
<path d="M14.5432 26.7387L11.8038 25.6733L14.0132 23.464L14.5655 22.9116L16.4927 22.4001L19.1988 25.8879L18.9226 26.164L17.8179 27.2687L15.6086 29.4781L14.5432 26.7387Z" fill="#22358B"/>
<path d="M19.7772 12.4094C20.1713 11.9958 20.8312 11.9958 21.2253 12.4094L22.1869 13.4188C22.4025 13.6451 22.7115 13.7576 23.0222 13.7228L24.4076 13.5677C24.9754 13.5041 25.4809 13.9283 25.5169 14.4985L25.6047 15.8898C25.6244 16.2018 25.7889 16.4866 26.0492 16.6596L27.2102 17.4314C27.686 17.7476 27.8006 18.3975 27.4617 18.8574L26.6346 19.9797C26.4492 20.2313 26.3921 20.5552 26.4802 20.8551L26.8736 22.1926C27.0348 22.7406 26.7048 23.3122 26.1496 23.4466L24.7946 23.7747C24.4908 23.8483 24.2389 24.0597 24.1137 24.3461L23.5553 25.6235C23.3265 26.1469 22.7063 26.3726 22.1945 26.1187L20.9457 25.4991C20.6657 25.3602 20.3368 25.3602 20.0568 25.4991L18.808 26.1187C18.2962 26.3726 17.6761 26.1469 17.4472 25.6235L16.8888 24.3461C16.7636 24.0597 16.5117 23.8483 16.2079 23.7747L14.853 23.4466C14.2977 23.3122 13.9677 22.7406 14.1289 22.1926L14.5223 20.8551C14.6105 20.5552 14.5533 20.2313 14.3679 19.9797L13.5408 18.8574C13.2019 18.3975 13.3165 17.7476 13.7923 17.4314L14.9533 16.6596C15.2136 16.4866 15.3781 16.2018 15.3978 15.8898L15.4856 14.4985C15.5216 13.9283 16.0271 13.5041 16.5949 13.5677L17.9803 13.7228C18.291 13.7576 18.6 13.6451 18.8156 13.4188L19.7772 12.4094Z" fill="#2E47BA" stroke="white" stroke-width="1.3"/>
<path d="M18.3507 18.5468C18.903 18.5468 19.3483 18.0991 19.3453 17.5469C19.3423 16.9946 18.8921 16.5469 18.3398 16.5469C17.7876 16.5469 17.3423 16.9946 17.3453 17.5469C17.3483 18.0991 17.7984 18.5468 18.3507 18.5468Z" fill="white"/>
<path d="M22.6555 22.1523C23.2078 22.1523 23.653 21.7046 23.65 21.1523C23.647 20.6001 23.1968 20.1523 22.6445 20.1523C22.0922 20.1523 21.647 20.6001 21.65 21.1523C21.653 21.7046 22.1032 22.1523 22.6555 22.1523Z" fill="white"/>
<path d="M18.6163 21.7105L22.6225 16.9238" stroke="white" stroke-width="1.3" stroke-miterlimit="10" stroke-linecap="round" stroke-linejoin="round"/>
</svg>
