<svg width="41" height="41" viewBox="0 0 41 41" fill="none" xmlns="http://www.w3.org/2000/svg">
<circle cx="20.5" cy="20.5" r="20" fill="#E0E3EA"/>
<path d="M26.2637 26.3928L28.9818 25.3061L26.8287 23.153L26.2905 22.6148L25.5192 21.8728L21.6451 25.5778L21.7864 25.7191L22.9166 26.8497L25.177 29.1108L26.2637 26.3928Z" fill="#495667"/>
<path d="M14.5432 26.3718L11.8038 25.3064L14.0132 23.097L14.5655 22.5447L16.4927 22.0332L19.1988 25.5209L18.9226 25.7971L17.8179 26.9018L15.6086 29.1112L14.5432 26.3718Z" fill="#495667"/>
<path d="M19.7773 12.0421C20.1714 11.6285 20.8313 11.6285 21.2254 12.0421L22.187 13.0515C22.4026 13.2778 22.7117 13.3903 23.0223 13.3555L24.4078 13.2004C24.9755 13.1368 25.481 13.561 25.517 14.1312L25.6049 15.5225C25.6246 15.8345 25.789 16.1193 26.0493 16.2923L27.2103 17.064C27.6861 17.3803 27.8007 18.0302 27.4618 18.4901L26.6347 19.6124C26.4493 19.864 26.3922 20.1879 26.4804 20.4878L26.8737 21.8252C27.0349 22.3733 26.7049 22.9448 26.1497 23.0793L24.7947 23.4074C24.4909 23.481 24.239 23.6923 24.1138 23.9788L23.5554 25.2562C23.3266 25.7796 22.7064 26.0053 22.1947 25.7514L20.9458 25.1318C20.6658 24.9929 20.3369 24.9929 20.0569 25.1318L18.8081 25.7514C18.2963 26.0053 17.6762 25.7796 17.4474 25.2562L16.889 23.9788C16.7638 23.6923 16.5118 23.481 16.208 23.4074L14.8531 23.0793C14.2978 22.9448 13.9679 22.3733 14.129 21.8252L14.5224 20.4878C14.6106 20.1879 14.5535 19.864 14.368 19.6124L13.541 18.4901C13.202 18.0302 13.3166 17.3803 13.7924 17.064L14.9534 16.2923C15.2138 16.1193 15.3782 15.8345 15.3979 15.5225L15.4857 14.1312C15.5217 13.561 16.0272 13.1368 16.595 13.2004L17.9804 13.3555C18.2911 13.3903 18.6001 13.2778 18.8157 13.0515L19.7773 12.0421Z" fill="#62738A" stroke="white" stroke-width="1.3"/>
<path d="M18.3507 18.1798C18.903 18.1798 19.3483 17.7321 19.3453 17.1799C19.3423 16.6276 18.8921 16.1799 18.3398 16.1799C17.7876 16.1799 17.3423 16.6276 17.3453 17.1799C17.3483 17.7321 17.7984 18.1798 18.3507 18.1798Z" fill="white"/>
<path d="M22.6555 21.7853C23.2078 21.7853 23.653 21.3376 23.65 20.7853C23.647 20.233 23.1968 19.7853 22.6445 19.7853C22.0922 19.7853 21.647 20.233 21.65 20.7853C21.653 21.3376 22.1032 21.7853 22.6555 21.7853Z" fill="white"/>
<path d="M18.6163 21.343L22.6225 16.5563" stroke="white" stroke-width="1.3" stroke-miterlimit="10" stroke-linecap="round" stroke-linejoin="round"/>
</svg>
