<svg width="40" height="40" viewBox="0 0 40 40" fill="none" xmlns="http://www.w3.org/2000/svg">
<circle cx="20" cy="20" r="20" fill="#F6F8FC"/>
<path d="M26.0061 22.1155L26.5444 22.6538L28.6974 24.8068L25.9794 25.8935L24.8926 28.6116L22.6322 26.3504L21.502 25.2199L21.3607 25.0785" stroke="#6C7E95" stroke-width="1.3" stroke-linejoin="round"/>
<path d="M14.0655 22.0443L13.5132 22.5966L11.3038 24.806L14.0432 25.8714L15.1086 28.6108L17.318 26.4014L18.4226 25.2967L18.6988 25.0205" stroke="#6C7E95" stroke-width="1.3" stroke-linejoin="round"/>
<path d="M19.2773 11.5422C19.6714 11.1286 20.3313 11.1286 20.7253 11.5422L21.687 12.5516C21.9026 12.7779 22.2116 12.8904 22.5222 12.8556L23.9077 12.7005C24.4755 12.6369 24.981 13.0611 25.017 13.6313L25.1048 15.0226C25.1245 15.3346 25.2889 15.6194 25.5492 15.7924L26.7103 16.5642C27.1861 16.8804 27.3007 17.5303 26.9617 17.9902L26.1347 19.1125C25.9492 19.3641 25.8921 19.688 25.9803 19.9879L26.3736 21.3254C26.5348 21.8735 26.2049 22.445 25.6496 22.5794L24.2947 22.9075C23.9909 22.9811 23.7389 23.1925 23.6137 23.4789L23.0553 24.7563C22.8265 25.2798 22.2064 25.5055 21.6946 25.2515L20.4458 24.6319C20.1658 24.493 19.8369 24.493 19.5569 24.6319L18.308 25.2515C17.7962 25.5055 17.1761 25.2798 16.9473 24.7563L16.3889 23.4789C16.2637 23.1925 16.0118 22.9811 15.708 22.9075L14.353 22.5794C13.7978 22.445 13.4678 21.8735 13.629 21.3254L14.0223 19.9879C14.1105 19.688 14.0534 19.3641 13.868 19.1125L13.0409 17.9902C12.702 17.5303 12.8166 16.8804 13.2924 16.5642L14.4534 15.7924C14.7137 15.6194 14.8781 15.3346 14.8978 15.0226L14.9857 13.6313C15.0216 13.0611 15.5272 12.6369 16.0949 12.7005L17.4804 12.8556C17.791 12.8904 18.1001 12.7779 18.3157 12.5516L19.2773 11.5422Z" stroke="#6C7E95" stroke-width="1.3"/>
<path d="M17.8507 17.6797C18.403 17.6797 18.8483 17.2319 18.8453 16.6797C18.8423 16.1274 18.3921 15.6797 17.8398 15.6797C17.2876 15.6797 16.8423 16.1274 16.8453 16.6797C16.8483 17.2319 17.2984 17.6797 17.8507 17.6797Z" fill="#6C7E95"/>
<path d="M22.1555 21.2851C22.7078 21.2851 23.153 20.8374 23.15 20.2851C23.147 19.7329 22.6968 19.2852 22.1445 19.2852C21.5922 19.2852 21.147 19.7329 21.15 20.2851C21.153 20.8374 21.6032 21.2851 22.1555 21.2851Z" fill="#6C7E95"/>
<path d="M18.1163 20.8433L22.1225 16.0566" stroke="#6C7E95" stroke-width="1.3" stroke-miterlimit="10" stroke-linecap="round" stroke-linejoin="round"/>
</svg>
