<svg width="20" height="20" viewBox="0 0 20 20" fill="none" xmlns="http://www.w3.org/2000/svg">
<path d="M18.0771 11.9734V9.12224C18.0771 8.38584 17.7524 7.6869 17.1897 7.21189L11.5699 2.4679C10.6339 1.67776 9.26322 1.68218 8.33232 2.47834L2.79696 7.21254C2.24161 7.68751 1.92188 8.38169 1.92188 9.11245V16.5976C1.92188 17.426 2.59345 18.0976 3.42188 18.0976H16.5771C17.4055 18.0976 18.0771 17.426 18.0771 16.5976V15.5634" stroke="white" stroke-width="1.3" stroke-miterlimit="10" stroke-linecap="round" stroke-linejoin="round"/>
<path d="M7.72949 14.0319C7.72949 12.7781 8.74588 11.7617 9.99966 11.7617C11.2534 11.7617 12.2698 12.7781 12.2698 14.0319V18.0971H7.72949V14.0319Z" stroke="white" stroke-width="1.3" stroke-miterlimit="10" stroke-linecap="round" stroke-linejoin="round"/>
<path d="M8.41602 7.53906H11.5837" stroke="white" stroke-width="1.3" stroke-miterlimit="10" stroke-linecap="round" stroke-linejoin="round"/>
</svg>
