<svg width="20" height="20" viewBox="0 0 20 20" fill="none" xmlns="http://www.w3.org/2000/svg">
<path d="M2.89014 6.40234V5.75234C2.53115 5.75234 2.24014 6.04336 2.24014 6.40234H2.89014ZM17.76 9.51348C17.76 9.1545 17.469 8.86348 17.11 8.86348C16.751 8.86348 16.46 9.1545 16.46 9.51348H17.76ZM2.89014 7.05234H17.11V5.75234H2.89014V7.05234ZM16.11 17.2246H3.89014V18.5246H16.11V17.2246ZM3.54014 16.8746V6.40234H2.24014V16.8746H3.54014ZM16.46 9.51348V16.8746H17.76V9.51348H16.46ZM3.89014 17.2246C3.69684 17.2246 3.54014 17.0679 3.54014 16.8746H2.24014C2.24014 17.7859 2.97887 18.5246 3.89014 18.5246V17.2246ZM16.11 18.5246C17.0213 18.5246 17.76 17.7859 17.76 16.8746H16.46C16.46 17.0679 16.3033 17.2246 16.11 17.2246V18.5246Z" fill="white"/>
<path d="M2.89014 6.40234H17.11L14.8688 2.61532C14.6888 2.31117 14.3616 2.12462 14.0082 2.12462H5.99192C5.6385 2.12462 5.31133 2.31117 5.13133 2.61532L2.89014 6.40234Z" stroke="white" stroke-width="1.3" stroke-linejoin="round"/>
<path d="M9.99976 2.125L9.99976 6.4027" stroke="white" stroke-width="1.3" stroke-linecap="round" stroke-linejoin="round"/>
<path d="M7.48119 11.9276L9.30074 13.7472L12.5186 10.5293" stroke="white" stroke-width="1.3" stroke-linecap="round" stroke-linejoin="round"/>
</svg>
