<svg width="24" height="24" viewBox="0 0 24 24" fill="none" xmlns="http://www.w3.org/2000/svg">
<path d="M12.4701 14.5731C12.1948 14.8484 11.845 15.0374 11.4638 15.1168L9.10137 15.609C8.67819 15.6972 8.30345 15.3224 8.39161 14.8993L8.88379 12.5368C8.96321 12.1556 9.15219 11.8058 9.42754 11.5305L17.8505 3.1075C18.2411 2.71697 18.8742 2.71697 19.2647 3.1075L20.8931 4.73588C21.2837 5.12641 21.2837 5.75957 20.8931 6.15009L12.4701 14.5731Z" stroke="#203551" stroke-width="1.3" stroke-miterlimit="10" stroke-linecap="round" stroke-linejoin="round"/>
<path d="M19.9282 12.5299V19.6004C19.9282 20.705 19.0327 21.6004 17.9282 21.6004H4.40003C3.29546 21.6004 2.40002 20.705 2.40002 19.6004V6.07227C2.40002 4.9677 3.29545 4.07227 4.40002 4.07227H11.4705" stroke="#203551" stroke-width="1.3" stroke-miterlimit="10" stroke-linecap="round" stroke-linejoin="round"/>
</svg>
