<svg width="24" height="24" viewBox="0 0 24 24" fill="none" xmlns="http://www.w3.org/2000/svg">
<path d="M12.4702 14.5728C12.1948 14.8482 11.8451 15.0372 11.4639 15.1166L9.1015 15.6088C8.67831 15.6969 8.30357 15.3222 8.39174 14.899L8.8839 12.5366C8.96332 12.1554 9.1523 11.8057 9.42765 11.5303L17.8505 3.1075C18.241 2.71697 18.8741 2.71697 19.2647 3.1075L20.893 4.73582C21.2835 5.12635 21.2835 5.75951 20.893 6.15004L12.4702 14.5728Z" stroke="white" stroke-width="1.3" stroke-miterlimit="10" stroke-linecap="round" stroke-linejoin="round"/>
<path d="M19.9278 12.5297V19.6001C19.9278 20.7047 19.0324 21.6001 17.9278 21.6001H4.40002C3.29545 21.6001 2.40002 20.7046 2.40002 19.6001V6.07226C2.40002 4.96769 3.29545 4.07227 4.40002 4.07227H11.4704" stroke="white" stroke-width="1.3" stroke-miterlimit="10" stroke-linecap="round" stroke-linejoin="round"/>
</svg>
