<svg width="25" height="24" viewBox="0 0 25 24" fill="none" xmlns="http://www.w3.org/2000/svg">
<path d="M18.1273 10.7843C18.3819 10.1174 18.5214 9.39357 18.5214 8.63718C18.5214 5.31216 15.826 2.6167 12.5009 2.6167C9.17593 2.6167 6.48047 5.31216 6.48047 8.63718C6.48047 9.39357 6.61996 10.1174 6.87461 10.7843" stroke="#2E47BA" stroke-width="1.3"/>
<path d="M14.4007 10.6407C14.931 10.1377 15.2617 9.4263 15.2617 8.63769C15.2617 7.11325 14.0259 5.87744 12.5015 5.87744C10.977 5.87744 9.74121 7.11325 9.74121 8.63769C9.74121 9.4263 10.0719 10.1377 10.6022 10.6407" stroke="#2E47BA" stroke-width="1.3"/>
<path d="M9.10739 19.2676L4.89453 15.2013C5.83254 12.92 8.2928 11.6622 10.6913 12.2378L10.7869 12.2608C11.1782 12.3547 11.5792 12.4021 11.9816 12.4021H15.8999C16.6565 12.4021 17.196 13.1358 16.9706 13.858C16.7269 14.6386 16.004 15.1702 15.1862 15.1702H12.9455C12.8542 15.1702 12.7801 15.2443 12.7801 15.3356C12.7801 15.4269 12.8542 15.501 12.9455 15.501H16.0446C16.6595 15.501 17.2571 15.2972 17.7439 14.9216L20.7622 12.5926C21.2037 12.252 21.8278 12.285 22.2309 12.6703C22.6796 13.0993 22.6975 13.8102 22.2708 14.2611L18.0708 18.6994C17.7276 19.0621 17.2502 19.2676 16.7508 19.2676H9.10739Z" stroke="#2E47BA" stroke-width="1.3"/>
<rect width="7.37614" height="3.25827" rx="1" transform="matrix(0.722871 0.690983 -0.722871 0.690983 4.35547 14.6577)" stroke="#2E47BA" stroke-width="1.3"/>
<path d="M2.90039 2.3999L22.1004 21.5999" stroke="#2E47BA" stroke-width="1.3"/>
</svg>
