<svg width="24" height="24" viewBox="0 0 24 24" fill="none" xmlns="http://www.w3.org/2000/svg">
<path d="M19.4671 17.3332H17.3337H6.66706H4.53372C3.96793 17.3332 3.42531 17.1085 3.02523 16.7084C2.62515 16.3083 2.40039 15.7657 2.40039 15.1999V10.9332C2.40039 10.3674 2.62515 9.82482 3.02523 9.42474C3.42531 9.02466 3.96793 8.7999 4.53372 8.7999H19.4671C20.0329 8.7999 20.5755 9.02466 20.9756 9.42474C21.3756 9.82482 21.6004 10.3674 21.6004 10.9332V15.1999M8.80039 21.5999H15.2004C15.7662 21.5999 16.3088 21.3751 16.7089 20.9751C17.109 20.575 17.3337 20.0324 17.3337 19.4666V15.1999C17.3337 14.6341 17.109 14.0915 16.7089 13.6914C16.3088 13.2913 15.7662 13.0666 15.2004 13.0666H8.80039C8.2346 13.0666 7.69197 13.2913 7.2919 13.6914C6.89182 14.0915 6.66706 14.6341 6.66706 15.1999V19.4666C6.66706 20.0324 6.89182 20.575 7.2919 20.9751C7.69197 21.3751 8.2346 21.5999 8.80039 21.5999ZM17.3337 8.7999V4.53324C17.3337 3.96744 17.109 3.42482 16.7089 3.02474C16.3088 2.62466 15.7662 2.3999 15.2004 2.3999H8.80039C8.2346 2.3999 7.69197 2.62466 7.2919 3.02474C6.89182 3.42482 6.66706 3.96744 6.66706 4.53324V8.7999H17.3337Z" stroke="white" stroke-width="1.3" stroke-linecap="round" stroke-linejoin="round"/>
</svg>
