<svg width="24" height="24" viewBox="0 0 24 24" fill="none" xmlns="http://www.w3.org/2000/svg">
<rect x="2.39999" y="3.6" width="19.2" height="16.8" rx="2" stroke="white" stroke-width="1.3" stroke-miterlimit="10" stroke-linecap="round" stroke-linejoin="round"/>
<path d="M10.4343 17.3573C10.2241 17.3573 10.0526 17.313 9.91979 17.2245C9.79254 17.136 9.68466 16.9949 9.59614 16.8013L7.58784 12.3697C7.49932 12.1761 7.47166 12.0018 7.50485 11.8469C7.53805 11.692 7.6155 11.5731 7.73722 11.4901C7.85893 11.4015 8.01108 11.3573 8.19365 11.3573C8.42048 11.3573 8.58922 11.4071 8.69987 11.5067C8.81606 11.6062 8.91564 11.7529 8.99863 11.9465L10.6916 15.8635H10.2268L11.9198 11.9382C12.0028 11.7446 12.1024 11.6007 12.2185 11.5067C12.3347 11.4071 12.4979 11.3573 12.7082 11.3573C12.8797 11.3573 13.0235 11.4015 13.1397 11.4901C13.2559 11.5731 13.3278 11.692 13.3555 11.8469C13.3887 12.0018 13.361 12.1761 13.2725 12.3697L11.2559 16.8013C11.1729 16.9949 11.0678 17.136 10.9405 17.2245C10.8133 17.313 10.6445 17.3573 10.4343 17.3573Z" fill="white"/>
<path d="M13.9263 17.3573C13.7548 17.3573 13.6109 17.3186 13.4947 17.2411C13.3786 17.1581 13.3066 17.0475 13.279 16.9092C13.2513 16.7653 13.2762 16.6049 13.3537 16.4278L15.42 11.9797C15.5196 11.7639 15.6413 11.6062 15.7852 11.5067C15.9346 11.4071 16.1033 11.3573 16.2914 11.3573C16.4795 11.3573 16.6427 11.4071 16.781 11.5067C16.9249 11.6062 17.0494 11.7639 17.1545 11.9797L19.2209 16.4278C19.3094 16.6049 19.3398 16.7653 19.3122 16.9092C19.29 17.053 19.2209 17.1636 19.1047 17.2411C18.994 17.3186 18.8557 17.3573 18.6898 17.3573C18.4685 17.3573 18.297 17.3075 18.1752 17.2079C18.0591 17.1083 17.9539 16.9479 17.8599 16.7266L17.4117 15.6726L17.9927 16.0959H14.5736L15.1628 15.6726L14.7147 16.7266C14.6151 16.9479 14.5127 17.1083 14.4076 17.2079C14.3025 17.3075 14.142 17.3573 13.9263 17.3573ZM16.2748 13.0253L15.3122 15.3241L15.0798 14.9257H17.4947L17.2624 15.3241L16.2914 13.0253H16.2748Z" fill="white"/>
<path d="M2.39999 8.4H14.4M21.6 8.4H16.8" stroke="white" stroke-width="1.3" stroke-miterlimit="10" stroke-linecap="round" stroke-linejoin="round"/>
<path d="M6 16.8H6.6" stroke="white" stroke-width="1.3" stroke-miterlimit="10" stroke-linecap="round" stroke-linejoin="round"/>
</svg>
