<svg width="41" height="40" viewBox="0 0 41 40" fill="none" xmlns="http://www.w3.org/2000/svg">
<rect x="0.158203" width="40" height="40" rx="20" fill="#DCEDFF"/>
<path d="M8.62226 11.5985V15.6948C8.62226 16.7993 9.51769 17.6948 10.6223 17.6948H29.6983C30.8029 17.6948 31.6983 16.7993 31.6983 15.6948V11.5984C31.6983 10.4939 30.8029 9.59845 29.6983 9.59845H10.6223C9.5177 9.59845 8.62226 10.4939 8.62226 11.5985Z" fill="#CC7051"/>
<path d="M11.3223 12.2985V14.9972H29.0002V12.2985H11.3223Z" fill="#93452B"/>
<path d="M27.6504 13.6484H12.6723V30.5001C12.6723 31.3285 13.3438 32.0001 14.1723 32.0001H26.1504C26.9789 32.0001 27.6504 31.3285 27.6504 30.5001V13.6484Z" fill="#F9B66F"/>
<path d="M27.6504 28.4922H12.6723V30.5006C12.6723 31.329 13.3438 32.0006 14.1723 32.0006H26.1504C26.9789 32.0006 27.6504 31.329 27.6504 30.5006V28.4922Z" fill="#EB934E"/>
<path d="M20.3471 20.8398C19.8323 20.7462 19.4579 20.4654 19.4111 20.1378C19.3643 19.857 19.5047 19.623 19.7855 19.4826C20.5343 19.155 20.9555 19.6698 21.0491 19.8102L21.5639 19.4358L22.0787 19.0614C21.8447 18.7338 21.4235 18.3127 20.7683 18.1723V17.4235H19.5047V18.2191C19.4111 18.2659 19.3175 18.2659 19.2239 18.3127C18.4284 18.687 18.0072 19.4358 18.1008 20.2314C18.1944 20.9334 18.756 21.729 19.9727 22.0098C20.4875 22.1034 20.8619 22.3842 20.9087 22.7118C20.9555 22.9926 20.8151 23.2266 20.5343 23.367C19.7855 23.6946 19.3643 23.1798 19.2707 23.0394L18.756 23.4138L18.2412 23.7882C18.4752 24.1158 18.8964 24.4902 19.5515 24.6774V25.5198H20.8151V24.6306C20.9087 24.5838 21.0023 24.5838 21.0959 24.537C21.8915 24.1626 22.3127 23.4138 22.2191 22.6182C22.1255 21.9162 21.5639 21.0738 20.3471 20.8398Z" fill="white"/>
</svg>
