<svg width="32" height="32" viewBox="0 0 32 32" fill="none" xmlns="http://www.w3.org/2000/svg">
<circle cx="16" cy="16" r="16" fill="#FFAB36" fill-opacity="0.3"/>
<path d="M9.60156 12.7653V12.1153C9.24258 12.1153 8.95156 12.4063 8.95156 12.7653H9.60156ZM23.0494 15.5653C23.0494 15.2063 22.7584 14.9153 22.3994 14.9153C22.0404 14.9153 21.7494 15.2063 21.7494 15.5653H23.0494ZM9.60156 13.4153H22.3994V12.1153H9.60156V13.4153ZM21.3994 22.4403H10.6016V23.7403H21.3994V22.4403ZM10.2516 22.0903V12.7653H8.95156V22.0903H10.2516ZM21.7494 15.5653V22.0903H23.0494V15.5653H21.7494ZM10.6016 22.4403C10.4083 22.4403 10.2516 22.2836 10.2516 22.0903H8.95156C8.95156 23.0016 9.69029 23.7403 10.6016 23.7403V22.4403ZM21.3994 23.7403C22.3107 23.7403 23.0494 23.0016 23.0494 22.0903H21.7494C21.7494 22.2836 21.5927 22.4403 21.3994 22.4403V23.7403Z" fill="#FC9827"/>
<path d="M9.60156 12.7653H22.3994L20.4114 9.40601C20.2314 9.10186 19.9042 8.91531 19.5508 8.91531H12.4502C12.0968 8.91531 11.7696 9.10186 11.5896 9.40601L9.60156 12.7653Z" stroke="#FC9827" stroke-width="1.3" stroke-linejoin="round"/>
<path d="M16 8.91248L16 12.7624" stroke="#FC9827" stroke-width="1.3" stroke-linecap="round" stroke-linejoin="round"/>
<path d="M13.7363 17.7367L15.3739 19.3742L18.27 16.4781" stroke="#FC9827" stroke-width="1.3" stroke-linecap="round" stroke-linejoin="round"/>
</svg>
