<svg width="32" height="32" viewBox="0 0 32 32" fill="none" xmlns="http://www.w3.org/2000/svg">
<circle cx="16" cy="16" r="16" fill="#FFAB36" fill-opacity="0.3"/>
<path d="M12 19.3415H12.4467V18.484H12.9019L13.386 19.3415H13.8845L13.3511 18.4131C13.6413 18.3022 13.7942 18.0667 13.7942 17.7489C13.7942 17.3018 13.4907 17 12.9248 17H12V19.3415ZM12.4467 18.1319V17.3544H12.8562C13.1897 17.3544 13.339 17.4996 13.339 17.7489C13.339 17.9981 13.1897 18.1319 12.8586 18.1319H12.4467Z" fill="#FC9827"/>
<path d="M14.254 20H14.6899V19.0648H14.7079C14.7766 19.1928 14.9199 19.3723 15.2378 19.3723C15.6737 19.3723 16 19.0442 16 18.4657C16 17.8803 15.664 17.5625 15.2366 17.5625C14.9102 17.5625 14.7742 17.7489 14.7079 17.8758H14.6827V17.5854H14.254V20ZM14.6814 18.4634C14.6814 18.1227 14.8356 17.9021 15.1161 17.9021C15.4063 17.9021 15.5557 18.1364 15.5557 18.4634C15.5557 18.7927 15.4039 19.0328 15.1161 19.0328C14.838 19.0328 14.6814 18.8041 14.6814 18.4634Z" fill="#FC9827"/>
<path d="M19 9H15.7692H9V22H20V17" stroke="#FC9827" stroke-width="1.3" stroke-linecap="round" stroke-linejoin="round"/>
<path d="M19 11V13H21" stroke="#FC9827" stroke-width="1.3" stroke-linecap="round" stroke-linejoin="round"/>
<circle cx="19" cy="13" r="4" stroke="#FC9827" stroke-width="1.3" stroke-linecap="round" stroke-linejoin="round"/>
</svg>
