<svg width="24" height="24" viewBox="0 0 24 24" fill="none" xmlns="http://www.w3.org/2000/svg">
<path d="M11.764 19.6381H18.5661C20.7752 19.6381 22.5661 17.8473 22.5661 15.6381V6.18359C22.5661 3.97446 20.7752 2.18359 18.566 2.18359H6.92969C4.72055 2.18359 2.92969 3.97446 2.92969 6.1836V13.4764" stroke="#203551" stroke-width="1.3" stroke-miterlimit="10" stroke-linecap="round" stroke-linejoin="round"/>
<path d="M12.7148 8.87891C12.7148 7.77434 13.6103 6.87891 14.7148 6.87891H20.5679C21.6724 6.87891 22.5679 7.77434 22.5679 8.87891V12.9397C22.5679 14.0443 21.6724 14.9397 20.5679 14.9397H14.7148C13.6103 14.9397 12.7148 14.0443 12.7148 12.9397V8.87891Z" stroke="#203551" stroke-width="1.3" stroke-miterlimit="10" stroke-linecap="round" stroke-linejoin="round"/>
<circle cx="15.9073" cy="10.9112" r="1.09091" fill="#203551"/>
<circle cx="6.24984" cy="17.6659" r="5.30843" stroke="#203551" stroke-width="1.3" stroke-miterlimit="10" stroke-linecap="round" stroke-linejoin="round"/>
<path d="M6.24609 15.6992V19.6367" stroke="#203551" stroke-width="1.3" stroke-miterlimit="10" stroke-linecap="round" stroke-linejoin="round"/>
<path d="M4.27734 17.668L8.21484 17.668" stroke="#203551" stroke-width="1.3" stroke-miterlimit="10" stroke-linecap="round" stroke-linejoin="round"/>
</svg>
