<svg width="41" height="40" viewBox="0 0 41 40" fill="none" xmlns="http://www.w3.org/2000/svg">
<rect x="0.158203" width="40" height="40" rx="20" fill="#DCEDFF"/>
<circle cx="19.0275" cy="19.999" r="12.0833" fill="#93452B"/>
<rect x="19.0285" y="7.91565" width="2.09572" height="24.1637" fill="#93452B"/>
<circle cx="21.2869" cy="19.999" r="12.0833" fill="#F9B66F"/>
<circle cx="21.2865" cy="20.0017" r="8.87985" fill="#FFE1C1"/>
<circle cx="20.205" cy="20.0014" r="7.79832" fill="white"/>
<path d="M21.2879 20.0002V15.6594" stroke="#F6B755" stroke-width="1.6" stroke-linecap="round"/>
<path d="M18.2185 23.0725L21.2879 20.0031" stroke="#F6B755" stroke-width="1.6" stroke-linecap="round"/>
<circle cx="29.1106" cy="12.1891" r="5.09533" fill="#CC7051"/>
<path d="M29.2404 11.7505C28.8844 11.6858 28.6254 11.4916 28.593 11.265C28.5607 11.0707 28.6578 10.9089 28.852 10.8118C29.3699 10.5852 29.6612 10.9413 29.726 11.0384L30.082 10.7794L30.4381 10.5205C30.2763 10.2939 29.9849 10.0025 29.5318 9.90543V9.38751H28.6578V9.9378C28.593 9.97017 28.5283 9.97017 28.4635 10.0025C27.9133 10.2615 27.6219 10.7794 27.6867 11.3297C27.7514 11.8153 28.1398 12.3655 28.9815 12.5598C29.3375 12.6245 29.5965 12.8187 29.6289 13.0453C29.6612 13.2395 29.5641 13.4014 29.3699 13.4985C28.852 13.7251 28.5607 13.369 28.4959 13.2719L28.1398 13.5309L27.7838 13.7898C27.9456 14.0164 28.237 14.2754 28.6901 14.4049V14.9875H29.5641V14.3725C29.6289 14.3401 29.6936 14.3401 29.7583 14.3077C30.3086 14.0488 30.6 13.5309 30.5352 12.9806C30.4705 12.495 30.082 11.9124 29.2404 11.7505Z" fill="white"/>
</svg>
