<svg width="24" height="24" viewBox="0 0 24 24" fill="none" xmlns="http://www.w3.org/2000/svg">
<path d="M18.9606 8.1595C18.9606 12.2906 15.2465 16.5957 13.2445 18.6163C12.5488 19.3184 11.4518 19.3184 10.7561 18.6163C8.75412 16.5957 5.04004 12.2906 5.04004 8.1595C5.04004 5.98441 6.01883 4.02683 7.65014 2.72178C8.84644 1.74299 10.369 1.19922 12.0003 1.19922C13.8491 1.19922 15.4805 1.9605 16.7855 3.04804C18.0906 4.35309 18.9606 6.09316 18.9606 8.1595Z" stroke="white" stroke-width="1.3" stroke-miterlimit="10" stroke-linecap="round" stroke-linejoin="round"/>
<path d="M12.0005 10.5528C13.3219 10.5528 14.3931 9.48157 14.3931 8.16017C14.3931 6.83878 13.3219 5.76758 12.0005 5.76758C10.6791 5.76758 9.60791 6.83878 9.60791 8.16017C9.60791 9.48157 10.6791 10.5528 12.0005 10.5528Z" stroke="white" stroke-width="1.3" stroke-miterlimit="10" stroke-linecap="round" stroke-linejoin="round"/>
<path d="M5.03993 16.75L2.83584 21.051C2.42663 21.8495 3.00651 22.7983 3.90377 22.7983H20.0966C20.9939 22.7983 21.5738 21.8495 21.1646 21.051L18.9605 16.75" stroke="white" stroke-width="1.3" stroke-miterlimit="10" stroke-linecap="round" stroke-linejoin="round"/>
</svg>
