<svg width="20" height="20" viewBox="0 0 20 20" fill="none" xmlns="http://www.w3.org/2000/svg">
<path d="M9.46466 19.8929L11.1318 16.2242H11.9904L10.8633 19.0095H15.3315L15.8682 19.8929H9.46466Z" fill="#814743"/>
<path d="M10.2771 19.859L11.5558 16.2055H7.19439L5.77862 19.859C5.77862 19.859 8.83846 19.9275 10.2771 19.859Z" fill="#814743"/>
<path d="M4.98711 19.8924L6.37265 16.218H7.23125L6.17824 19.025H11.7495L12.2862 19.8924H4.98711Z" fill="#EB934E"/>
<rect y="0.107056" width="19.1045" height="16.1194" rx="3.2" fill="#EB934E"/>
<path d="M0.895508 3.30706C0.895508 1.53975 2.3282 0.107056 4.09551 0.107056H16.8C18.5673 0.107056 20 1.53975 20 3.30706V13.5399H0.895508V3.30706Z" fill="#A4604D"/>
<path d="M1.6 3.60044C1.6 2.27496 2.67452 1.20044 4 1.20044H16.8C18.1255 1.20044 19.2 2.27496 19.2 3.60044V13.2004H1.6V3.60044Z" fill="white"/>
<path d="M1.6 10.0004H19.2V14.0004H1.6V10.0004Z" fill="#DCEDFF"/>
<path d="M5.60001 3.60005C5.60001 3.15822 5.95818 2.80005 6.40001 2.80005H14.4C14.8418 2.80005 15.2 3.15822 15.2 3.60005V7.60005C15.2 8.04188 14.8418 8.40005 14.4 8.40005H6.40001C5.95818 8.40005 5.60001 8.04188 5.60001 7.60005V3.60005Z" fill="#F36565"/>
<path d="M9.19281 4.01644L11.7288 5.49576C11.7863 5.52933 11.8058 5.60323 11.7722 5.66079C11.7617 5.67877 11.7468 5.69373 11.7288 5.70423L9.19281 7.18355C9.13525 7.21712 9.06136 7.19767 9.02778 7.14011C9.01701 7.12165 9.01134 7.10068 9.01134 7.07932V4.12067C9.01134 4.05403 9.06536 4 9.13201 4C9.15338 4 9.17436 4.00567 9.19281 4.01644Z" fill="white"/>
<path d="M5.60001 11.6004H15.2" stroke="#97A7BE" stroke-width="0.800001" stroke-linecap="round" stroke-linejoin="round"/>
<path d="M0.895508 13.5395H20V13.8261C20 15.1515 18.9255 16.2261 17.6 16.2261H3.29551C1.97003 16.2261 0.895508 15.1515 0.895508 13.8261V13.5395Z" fill="#A4604D"/>
<circle opacity="0.8" cx="10.4478" cy="14.883" r="0.597015" fill="white"/>
</svg>
