<svg width="24" height="24" viewBox="0 0 24 24" fill="none" xmlns="http://www.w3.org/2000/svg">
<path d="M6 20.0116L17.0038 20.0116C18.1083 20.0116 19.0038 19.1162 19.0038 18.0116L19.0038 9.10279C19.0038 8.56419 18.7865 8.04836 18.4012 7.67203L14.2007 3.56924C13.8271 3.2043 13.3255 3 12.8032 3H6C4.89543 3 4 3.89543 4 5V18.0116C4 19.1162 4.89543 20.0116 6 20.0116Z" stroke="#FFFFFF" stroke-width="1.3" stroke-linecap="round"/>
<path d="M13.9746 14.7851L11.5 17.2597L9.02542 14.7851" stroke="#FFFFFF" stroke-width="1.3" stroke-linecap="round" stroke-linejoin="round"/>
<path d="M11.5 11.2324L11.5 17.0075" stroke="#FFFFFF" stroke-width="1.3" stroke-linecap="round" stroke-linejoin="round"/>
<path d="M12.3789 3.26172V7.79575C12.3789 8.34804 12.8266 8.79575 13.3789 8.79575H15.4711" stroke="#FFFFFF" stroke-width="1.3" stroke-linecap="round"/>
</svg>
