<svg width="116" height="115" viewBox="0 0 116 115" fill="none" xmlns="http://www.w3.org/2000/svg">
<g clip-path="url(#clip0_6133_179056)">
<rect x="0.650024" width="115" height="115" rx="57.5" fill="#DCEDFF"/>
<path d="M1.26102 112.778C9.33619 82.3127 40.3083 80.1108 51.6737 81.8359C96.8371 88.6908 116.792 158.247 100.206 193.733L-11.005 197.413C-8.06214 162.81 -0.886085 120.879 1.26102 112.778Z" fill="#435BBF"/>
<path d="M66.3313 12.4848C72.9294 13.8997 76.4631 21.5589 77.4051 25.2117C83.0887 23.6805 89.2686 30.0261 84.8523 35.6572C86.5915 36.3588 90.2697 39.5648 91.0699 46.7759C93.2808 66.7 56.6008 90.2871 36.8785 75.9886C31.7418 72.2645 32.354 66.829 34.0393 64.913C24.4603 62.807 25.8831 52.6521 29.2105 50.4196C21.2454 40.4858 29.0757 31.4691 32.866 30.154C35.3181 21.2938 46.5356 17.902 51.8379 17.3136C53.9198 15.1145 59.7332 11.0699 66.3313 12.4848Z" fill="#6D3654"/>
<path d="M59.4694 97.5359C53.3154 99.3606 52.3807 104.966 50.0827 110.979C37.3729 110.979 24.9165 91.9257 34.2693 81.5337C39.6944 75.5058 48.5552 76.7131 55.5356 78.8073C60.9885 80.4431 69.8871 88.7363 71.8943 94.6207C74.2604 101.557 69.6255 109.532 67.8533 110.146C66.8795 107.336 65.2436 99.497 59.4694 97.5359Z" fill="white"/>
<path d="M40.565 86.3627L46.5838 67.6286L61.6445 67.6742L65.3183 93.7526C61.2334 103.242 42.498 93.5769 40.565 86.3627Z" fill="#FFD3B0"/>
<path d="M44.3806 74.4859L46.5836 67.6287L52.0717 67.6453L62.1197 71.0484L64.1464 85.4351C60.2474 84.4105 49.3703 81.0593 44.3806 74.4859Z" fill="#EEAA8D"/>
<path d="M76.6074 80.973C83.913 79.0889 83.2692 49.1019 76.4372 35.9043C72.8447 27.7151 47.2159 38.6102 50.573 44.6787C52.2063 47.6311 50.992 48.3895 49.519 49.6265C48.046 50.8634 46.8012 54.2221 47.5668 56.2842C48.3324 58.3462 48.6854 61.5276 46.2703 59.1118C43.8552 56.696 37.3769 41.8489 34.6655 51.2747C32.4964 58.8153 38.1595 61.801 41.2622 62.3513C48.0347 79.8495 69.3019 82.8572 76.6074 80.973Z" fill="#FFD3B0"/>
<path d="M58.8533 65.5272C59.7993 64.4767 71.0526 67.9946 72.1699 68.5005C74.995 69.56 72.0012 74.7624 65.5835 72.9352C59.1657 71.108 57.9072 66.5776 58.8533 65.5272Z" fill="#080B18"/>
<path d="M58.6022 66.8643C61.0069 66.6398 64.6142 66.8426 66.9108 68.7933C68.4905 70.135 69.2678 71.7644 69.6064 73.1853C68.4884 73.4079 67.1361 73.3773 65.5834 72.9352C60.7642 71.5632 58.8542 68.6668 58.6022 66.8643Z" fill="#F27676"/>
<path d="M69.8387 54.3496C72.6822 56.9915 76.9365 61.9003 76.7402 62.9173C76.5796 63.7492 71.7016 63.4764 69.2033 62.5531" stroke="#EEAA8D" stroke-width="1.1" stroke-linecap="round"/>
<ellipse cx="60.3517" cy="52.4738" rx="4.48513" ry="2.42439" transform="rotate(1.39176 60.3517 52.4738)" fill="white"/>
<circle cx="60.6176" cy="52.6219" r="1.61626" transform="rotate(-6.33192 60.6176 52.6219)" fill="#141414"/>
<ellipse cx="77.0529" cy="52.6219" rx="3.84024" ry="2.42439" transform="rotate(1.27799 77.0529 52.6219)" fill="white"/>
<circle cx="76.7941" cy="52.7787" r="1.61626" transform="rotate(-6.33192 76.7941 52.7787)" fill="#141414"/>
<path d="M42.0432 51.6752C40.9751 49.897 40.1579 48.2837 39.6479 46.9605C35.8789 37.1803 37.5894 23.5716 51.0811 19.3907C58.7218 17.023 72.1034 16.3634 78.8551 31.1802C79.7042 33.0435 80.6134 35.2788 81.4792 37.7408C77.4201 39.8091 67.0112 42.2176 56.014 37.4131C55.7188 41.2032 54.5172 49.9246 44.988 49.9085C44.5649 50.9188 43.2192 50.2174 42.0432 51.6752Z" fill="#6D3654"/>
<path d="M50.2854 20.2746C51.8822 16.7261 57.329 10.2147 66.3421 12.5567" stroke="#4F1836" stroke-width="1.331" stroke-linecap="round"/>
<path d="M41.5319 20.6137L41.5524 20.6583C31.9492 25.0905 33.0243 36.7081 36.4394 48.7389L30.0608 50.2839C25.6678 33.9581 27.9935 24.6843 41.5319 20.6137Z" fill="#EF5454"/>
<path d="M41.5989 67.1395C45.8239 66.0074 48.1018 60.8083 46.6867 55.527C45.2716 50.2457 40.6993 46.8821 36.4743 48.0142L32.6492 49.0391L32.992 50.3184C31.1484 52.5846 30.438 56.0872 31.3865 59.6267C32.3349 63.1662 34.7014 65.8444 37.431 66.8851L37.7738 68.1644L41.5989 67.1395Z" fill="#FF7272"/>
<circle cx="66.5048" cy="70.341" r="1.73594" fill="#EF5454"/>
<path d="M43.9719 64.9269L48.1353 70.6631C49.3733 72.3688 51.477 73.217 53.5519 72.8471L65.2033 70.7697" stroke="#EF5454" stroke-width="1.65" stroke-linecap="round" stroke-linejoin="round"/>
<ellipse cx="35.2115" cy="58.6019" rx="7.92" ry="9.9" transform="rotate(-15 35.2115 58.6019)" fill="#EF5454"/>
<ellipse cx="35.2115" cy="58.6017" rx="3.96" ry="5.94" transform="rotate(-15 35.2115 58.6017)" fill="#FF7272"/>
</g>
<defs>
<clipPath id="clip0_6133_179056">
<rect x="0.650024" width="115" height="115" rx="57.5" fill="white"/>
</clipPath>
</defs>
</svg>
