<svg width="20" height="20" viewBox="0 0 20 20" fill="none" xmlns="http://www.w3.org/2000/svg">
<circle cx="10.0002" cy="10" r="8.33333" stroke="#252C38" stroke-width="1.66667"/>
<path d="M10.9805 11.9566H9.22998C9.23487 11.5534 9.27149 11.2078 9.33985 10.9199C9.41309 10.6319 9.53271 10.3727 9.69873 10.1423C9.86475 9.90744 10.0894 9.66818 10.3726 9.42449C10.5972 9.23397 10.7974 9.05453 10.9731 8.88616C11.1538 8.71337 11.2954 8.53392 11.398 8.34783C11.5005 8.15731 11.5518 7.94242 11.5518 7.70317C11.5518 7.43289 11.5029 7.20693 11.4053 7.02527C11.3125 6.84361 11.1733 6.70625 10.9878 6.61321C10.8071 6.51574 10.5801 6.467 10.3066 6.467C10.082 6.467 9.86963 6.5091 9.66943 6.59327C9.46924 6.67746 9.3081 6.80816 9.18603 6.98539C9.06396 7.15819 8.99805 7.38416 8.98828 7.66329H7.04736C7.06201 7.08286 7.21338 6.59992 7.50146 6.21446C7.78955 5.82455 8.17773 5.53434 8.66601 5.34382C9.1543 5.14887 9.70117 5.05139 10.3066 5.05139C10.9756 5.05139 11.5469 5.15329 12.0205 5.35711C12.499 5.55649 12.8628 5.84892 13.1118 6.23439C13.3657 6.61986 13.4927 7.08508 13.4927 7.63006C13.4927 8.01996 13.4097 8.36999 13.2436 8.68014C13.0776 8.98585 12.8579 9.27164 12.5845 9.53747C12.311 9.80332 12.0156 10.0714 11.6982 10.3416C11.4199 10.5676 11.2319 10.8091 11.1343 11.0661C11.0366 11.323 10.9853 11.6199 10.9805 11.9566ZM9.04687 14.0236C9.04687 13.7577 9.14454 13.5362 9.33985 13.359C9.54004 13.1817 9.8086 13.0931 10.1455 13.0931C10.4824 13.0931 10.7485 13.1817 10.9438 13.359C11.144 13.5362 11.2441 13.7577 11.2441 14.0236C11.2441 14.2805 11.144 14.4976 10.9438 14.6749C10.7485 14.8521 10.4824 14.9407 10.1455 14.9407C9.8086 14.9407 9.54004 14.8521 9.33985 14.6749C9.14454 14.4976 9.04687 14.2805 9.04687 14.0236Z" fill="#252C38"/>
</svg>
