<svg width="24" height="24" viewBox="0 0 24 24" fill="none" xmlns="http://www.w3.org/2000/svg">
<path d="M12.4684 14.5709C12.193 14.8462 11.8433 15.0352 11.462 15.1146L9.09967 15.6068C8.67648 15.695 8.30174 15.3202 8.3899 14.897L8.88207 12.5347C8.96149 12.1534 9.15047 11.8037 9.42581 11.5284L17.8486 3.10554C18.2391 2.71502 18.8723 2.71502 19.2628 3.10554L20.8912 4.73387C21.2817 5.12439 21.2817 5.75756 20.8912 6.14808L12.4684 14.5709Z" stroke="white" stroke-width="1.3" stroke-miterlimit="10" stroke-linecap="round" stroke-linejoin="round"/>
<path d="M19.9263 12.5278V19.5981C19.9263 20.7027 19.0308 21.5981 17.9263 21.5981H4.39844C3.29387 21.5981 2.39844 20.7027 2.39844 19.5981V6.07031C2.39844 4.96574 3.29387 4.07031 4.39844 4.07031H11.4688" stroke="white" stroke-width="1.3" stroke-miterlimit="10" stroke-linecap="round" stroke-linejoin="round"/>
</svg>
