<svg width="20" height="20" viewBox="0 0 20 20" fill="none" xmlns="http://www.w3.org/2000/svg">
<path d="M7.08333 8.33464C8.23393 8.33464 9.16667 7.4019 9.16667 6.2513C9.16667 5.10071 8.23393 4.16797 7.08333 4.16797C5.93274 4.16797 5 5.10071 5 6.2513C5 7.4019 5.93274 8.33464 7.08333 8.33464Z" stroke="white" stroke-width="1.3" stroke-linecap="round" stroke-linejoin="round"/>
<path d="M9.26758 6.25H17.5528" stroke="white" stroke-width="1.3" stroke-linecap="round" stroke-linejoin="round"/>
<path d="M2.43945 6.25H4.79062" stroke="white" stroke-width="1.3" stroke-linecap="round" stroke-linejoin="round"/>
<path d="M12.9167 15.8346C11.7661 15.8346 10.8333 14.9019 10.8333 13.7513C10.8333 12.6007 11.7661 11.668 12.9167 11.668C14.0673 11.668 15 12.6007 15 13.7513C15 14.9019 14.0673 15.8346 12.9167 15.8346Z" stroke="white" stroke-width="1.3" stroke-linecap="round" stroke-linejoin="round"/>
<path d="M10.6152 13.75H2.43865" stroke="white" stroke-width="1.3" stroke-linecap="round" stroke-linejoin="round"/>
<path d="M17.5527 13.75H15.0424" stroke="white" stroke-width="1.3" stroke-linecap="round" stroke-linejoin="round"/>
</svg>
