<svg width="21" height="20" viewBox="0 0 21 20" fill="none" xmlns="http://www.w3.org/2000/svg">
<path d="M10.0394 12.0734C10.3147 12.3488 10.6644 12.5378 11.0457 12.6172L12.7675 12.9759C13.1907 13.0641 13.5654 12.6893 13.4773 12.2661L13.1186 10.5443C13.0391 10.1631 12.8502 9.81332 12.5748 9.53797L5.74395 2.70711C5.35342 2.31658 4.72026 2.31658 4.32973 2.70711L3.20848 3.82836C2.81796 4.21888 2.81796 4.85205 3.20848 5.24257L10.0394 12.0734Z" stroke="#2E47BA" stroke-width="1.3" stroke-miterlimit="10" stroke-linecap="round" stroke-linejoin="round"/>
<path d="M3.8934 10.4425V16.0011C3.8934 17.1057 4.78883 18.0011 5.8934 18.0011H16.5C17.6046 18.0011 18.5 17.1057 18.5 16.0011L18.5 5.39453C18.5 4.28996 17.6046 3.39453 16.5 3.39453L10.9413 3.39453" stroke="#2E47BA" stroke-width="1.3" stroke-miterlimit="10" stroke-linecap="round" stroke-linejoin="round"/>
</svg>
