<svg width="24" height="24" viewBox="0 0 24 24" fill="none" xmlns="http://www.w3.org/2000/svg">
<path d="M12.4684 14.5711C12.1931 14.8465 11.8433 15.0355 11.4621 15.1149L9.09967 15.6071C8.67648 15.6952 8.30174 15.3205 8.3899 14.8973L8.88208 12.5348C8.9615 12.1536 9.15048 11.8039 9.42583 11.5285L17.8488 3.10555C18.2393 2.71502 18.8725 2.71502 19.263 3.10554L20.8914 4.73393C21.2819 5.12445 21.2819 5.75762 20.8914 6.14814L12.4684 14.5711Z" stroke="#203551" stroke-width="1.3" stroke-miterlimit="10" stroke-linecap="round" stroke-linejoin="round"/>
<path d="M19.9266 12.528V19.5985C19.9266 20.703 19.0312 21.5985 17.9266 21.5985H4.39844C3.29387 21.5985 2.39844 20.703 2.39844 19.5985V6.07031C2.39844 4.96574 3.29387 4.07031 4.39844 4.07031H11.469" stroke="#203551" stroke-width="1.3" stroke-miterlimit="10" stroke-linecap="round" stroke-linejoin="round"/>
</svg>
