<svg width="40" height="40" viewBox="0 0 40 40" fill="none" xmlns="http://www.w3.org/2000/svg">
<circle cx="20" cy="20" r="20" fill="#DCEDFF"/>
<path d="M17.2758 17.0037H18.7754L20.2751 9.50537C22.3685 9.50537 23.9609 11.3851 23.6168 13.4501L23.2745 15.5041H27.1112C29.5622 15.5041 31.4365 17.6888 31.0638 20.1113L30.2544 25.3722C29.9775 27.1724 28.4285 28.5012 26.6072 28.5012H24.4668C22.6884 28.5012 20.9265 28.1619 19.2753 27.5015H17.2758V17.0037Z" fill="#FE967D"/>
<path fill-rule="evenodd" clip-rule="evenodd" d="M19.5752 13.0054L20.1253 10.2551C21.325 10.7283 22.0384 11.8091 21.6842 12.9159L21.6556 13.0054H19.5752Z" fill="#FEBDAD"/>
<mask id="mask0_3851_193241" style="mask-type:alpha" maskUnits="userSpaceOnUse" x="7" y="14" width="13" height="17">
<rect x="7.7782" y="14.0056" width="11.9974" height="15.9965" fill="#C4C4C4"/>
</mask>
<g mask="url(#mask0_3851_193241)">
<path d="M17.408 27.837L18.2485 16.7276C18.2922 16.1498 17.8372 15.656 17.2578 15.6524L8.85491 15.6004L8.89785 28.9095L16.4308 28.7612C16.946 28.7511 17.3691 28.3509 17.408 27.837Z" fill="#2E47BA"/>
<path opacity="0.25" fill-rule="evenodd" clip-rule="evenodd" d="M17.5841 25.5146L17.4082 27.8385C17.3694 28.3524 16.9462 28.7525 16.431 28.7626L8.89807 28.9109L8.88696 25.468L17.5841 25.5146Z" fill="black"/>
<path d="M13.4219 20.0983C13.9506 20.5241 14.7243 20.4406 15.1501 19.9119C15.5759 19.3832 15.4924 18.6095 14.9637 18.1837C14.435 17.758 13.6613 17.8414 13.2355 18.3701C12.8097 18.8988 12.8932 19.6726 13.4219 20.0983Z" fill="white"/>
</g>
</svg>
