<svg width="40" height="40" viewBox="0 0 40 40" fill="none" xmlns="http://www.w3.org/2000/svg">
<circle cx="20" cy="20" r="20" fill="#E0E3EA"/>
<path d="M17.2759 17.0037H18.7756L20.2752 9.50537V9.50537C22.3687 9.50537 23.9611 11.3851 23.6169 13.4501L23.2746 15.5041H27.1113C29.5623 15.5041 31.4366 17.6888 31.0639 20.1113L30.2545 25.3722C29.9776 27.1724 28.4287 28.5012 26.6073 28.5012H24.4669C22.6886 28.5012 20.9266 28.1619 19.2754 27.5015V27.5015H17.2759V17.0037Z" fill="#9EA9B8"/>
<path fill-rule="evenodd" clip-rule="evenodd" d="M19.5752 13.0054L20.1253 10.2551C21.325 10.7283 22.0384 11.8091 21.6842 12.9159L21.6556 13.0054H19.5752Z" fill="#62738A"/>
<mask id="mask0_7591_101644" style="mask-type:alpha" maskUnits="userSpaceOnUse" x="7" y="14" width="13" height="17">
<rect x="7.77832" y="14.0056" width="11.9974" height="15.9965" fill="#C4C4C4"/>
</mask>
<g mask="url(#mask0_7591_101644)">
<path d="M17.4081 27.837L18.2486 16.7276C18.2923 16.1498 17.8373 15.656 17.2579 15.6524L8.85504 15.6004L8.89797 28.9095L16.4309 28.7612C16.9461 28.7511 17.3693 28.3509 17.4081 27.837Z" fill="#62738A"/>
<path opacity="0.25" fill-rule="evenodd" clip-rule="evenodd" d="M17.5843 25.5146L17.4085 27.8385C17.3696 28.3524 16.9465 28.7525 16.4312 28.7626L8.89831 28.9109L8.88721 25.468L17.5843 25.5146Z" fill="black"/>
<path d="M13.4218 20.0983C13.9505 20.5241 14.7243 20.4406 15.15 19.9119C15.5758 19.3832 15.4923 18.6095 14.9636 18.1837C14.4349 17.758 13.6612 17.8414 13.2354 18.3701C12.8097 18.8988 12.8931 19.6726 13.4218 20.0983Z" fill="white"/>
</g>
</svg>
