<svg width="41" height="41" viewBox="0 0 41 41" fill="none" xmlns="http://www.w3.org/2000/svg">
<circle cx="20.5" cy="20.5" r="20" fill="#E0E3EA"/>
<path d="M26.2334 26.3934L28.9514 25.3066L26.7983 23.1536L26.2601 22.6153L25.388 21.7105L21.1675 25.1584L21.6147 25.5783L21.756 25.7197L22.8862 26.8502L25.1466 29.1114L26.2334 26.3934Z" fill="#495667"/>
<path d="M14.297 26.3718L11.5577 25.3064L13.7671 23.097L14.3194 22.5446L15.5564 21.2892L19.5454 24.9542L18.9527 25.5209L18.6765 25.7971L17.5718 26.9017L15.3624 29.1111L14.297 26.3718Z" fill="#495667"/>
<circle cx="20.3711" cy="18.738" r="7" fill="#62738A" stroke="white" stroke-width="1.3" stroke-linejoin="round"/>
<circle cx="20.3694" cy="18.7379" r="4.22877" stroke="white" stroke-width="1.3" stroke-linejoin="round"/>
<path d="M20.3715 16.5472L21.005 17.8658L22.4549 18.0608L21.3965 19.0708L21.6591 20.51L20.3715 19.8156L19.0839 20.51L19.3465 19.0708L18.2881 18.0608L19.738 17.8658L20.3715 16.5472Z" fill="white"/>
</svg>
