<svg width="41" height="41" viewBox="0 0 41 41" fill="none" xmlns="http://www.w3.org/2000/svg">
<circle cx="20.5" cy="20.8672" r="20" fill="#F6F8FC"/>
<path d="M26.2601 22.9827L26.7983 23.521L28.9514 25.674L26.2333 26.7607L25.1466 29.4788L22.8862 27.2176L21.756 26.087L21.6147 25.9457" stroke="#6C7E95" stroke-width="1.3" stroke-linejoin="round"/>
<path d="M14.3195 22.9115L13.7671 23.4638L11.5578 25.6732L14.2971 26.7386L15.3625 29.4779L17.5719 27.2686L18.6766 26.1639L18.9528 25.8877" stroke="#6C7E95" stroke-width="1.3" stroke-linejoin="round"/>
<circle cx="20.3711" cy="19.1055" r="7" stroke="#6C7E95" stroke-width="1.3" stroke-linejoin="round"/>
<circle cx="20.3695" cy="19.1047" r="4.22877" stroke="#6C7E95" stroke-width="1.3" stroke-linejoin="round"/>
<path d="M20.3715 16.9141L21.005 18.2327L22.4549 18.4277L21.3965 19.4377L21.6591 20.8769L20.3715 20.1824L19.0839 20.8769L19.3465 19.4377L18.2881 18.4277L19.738 18.2327L20.3715 16.9141Z" fill="#6C7E95"/>
</svg>
