<svg width="41" height="41" viewBox="0 0 41 41" fill="none" xmlns="http://www.w3.org/2000/svg">
<circle cx="20.5" cy="20.8672" r="20" fill="#DCEDFF"/>
<path d="M26.2332 26.7604L28.9513 25.6736L26.7982 23.5206L26.26 22.9823L25.3878 22.0775L21.1674 25.5254L21.6146 25.9453L21.7559 26.0867L22.8861 27.2172L25.1465 29.4784L26.2332 26.7604Z" fill="#22358B"/>
<path d="M14.297 26.7388L11.5577 25.6734L13.7671 23.4641L14.3194 22.9117L15.5564 21.6562L19.5454 25.3213L18.9527 25.8879L18.6765 26.1641L17.5718 27.2688L15.3624 29.4782L14.297 26.7388Z" fill="#22358B"/>
<circle cx="20.3711" cy="19.1055" r="7" fill="#2E47BA" stroke="white" stroke-width="1.3" stroke-linejoin="round"/>
<circle cx="20.3695" cy="19.1047" r="4.22877" stroke="white" stroke-width="1.3" stroke-linejoin="round"/>
<path d="M20.3715 16.9141L21.005 18.2327L22.4549 18.4277L21.3965 19.4377L21.6591 20.8769L20.3715 20.1824L19.0839 20.8769L19.3465 19.4377L18.2881 18.4277L19.738 18.2327L20.3715 16.9141Z" fill="white"/>
</svg>
