<svg width="25" height="24" viewBox="0 0 25 24" fill="none" xmlns="http://www.w3.org/2000/svg">
<path fill-rule="evenodd" clip-rule="evenodd" d="M9.92448 20.0004C12.8885 20.0004 15.3045 19.7737 15.3045 19.4971C15.3045 19.2206 12.8885 18.9883 9.92448 18.9883C6.96042 18.9883 4.54443 19.215 4.54443 19.4916C4.54443 19.7681 6.96042 20.0004 9.92448 20.0004Z" fill="#CAC9C9"/>
<path fill-rule="evenodd" clip-rule="evenodd" d="M9.62839 4.04425L19.818 8.31955C20.1089 8.44122 20.2487 8.7786 20.1256 9.07173L15.797 19.1488C15.674 19.4364 15.3328 19.5747 15.0364 19.453L4.85234 15.1722C4.56152 15.0505 4.42171 14.7131 4.54475 14.42L8.8678 4.34845C8.99643 4.06084 9.33758 3.92258 9.62839 4.04425Z" fill="#921D26"/>
<path fill-rule="evenodd" clip-rule="evenodd" d="M19.5613 8.8623C19.5836 8.91761 19.5836 8.97845 19.5613 9.03376L15.378 18.779C15.3277 18.8896 15.1991 18.9449 15.0816 18.8951L5.22753 14.7581C5.1716 14.736 5.12686 14.6917 5.10449 14.6364L19.5613 8.8623Z" fill="#70161E"/>
<path fill-rule="evenodd" clip-rule="evenodd" d="M9.63987 4.93468L19.1696 8.93343C19.2255 8.95556 19.2535 9.02192 19.2311 9.08276L15.1821 18.5017C15.1597 18.557 15.0926 18.5846 15.0311 18.5625L5.50137 14.5638C5.44544 14.5416 5.41748 14.4753 5.43985 14.4144L9.48887 4.98998C9.51124 4.93468 9.57835 4.90702 9.63987 4.93468Z" fill="#D5232B"/>
<path fill-rule="evenodd" clip-rule="evenodd" d="M19.2266 8.99414C19.2378 9.02179 19.2378 9.04945 19.2266 9.08263L15.1832 18.5016C15.1608 18.5569 15.0937 18.5845 15.0322 18.5624L5.50244 14.5636C5.47447 14.5526 5.4521 14.5305 5.44092 14.5028L19.2266 8.99414Z" fill="#A11F24"/>
<path fill-rule="evenodd" clip-rule="evenodd" d="M17.4756 9.27734L11.5643 12.2252L10.9771 9.60919L17.4756 9.27734Z" fill="white"/>
<path fill-rule="evenodd" clip-rule="evenodd" d="M7.33936 14.3307L13.2507 11.3828L13.8379 13.9933L7.33936 14.3307Z" fill="#E6E6E6"/>
<path fill-rule="evenodd" clip-rule="evenodd" d="M11.562 12.2235L13.251 11.3828L13.374 11.9359L11.562 12.2235Z" fill="#B3B3B3"/>
</svg>
