<svg width="42" height="30" viewBox="0 0 42 30" fill="none" xmlns="http://www.w3.org/2000/svg">
<rect width="42" height="30" rx="4" fill="#003D79"/>
<path fill-rule="evenodd" clip-rule="evenodd" d="M3.03789 15.8885C3.03789 15.3505 3.02842 14.899 3 14.4965H3.98602L4.03225 15.1881H4.05992C4.2834 14.8226 4.69209 14.3904 5.45444 14.3904C6.04948 14.3904 6.51426 14.7369 6.70914 15.2552H6.72827C6.88658 14.996 7.07188 14.8041 7.28552 14.6692C7.53676 14.487 7.82504 14.3904 8.19688 14.3904C8.94966 14.3904 9.71144 14.9184 9.71144 16.4166V19.1721H8.59611V16.5897C8.59611 15.812 8.33624 15.3505 7.78809 15.3505C7.39702 15.3505 7.10855 15.6391 6.98852 15.9753C6.96028 16.0902 6.93243 16.2344 6.93243 16.3678V19.1721H5.81672V16.4644C5.81672 15.812 5.56614 15.3505 5.03618 15.3505C4.60854 15.3505 4.32073 15.6968 4.21822 16.0225C4.17142 16.1385 4.15266 16.2725 4.15266 16.4067V19.1721H3.03789V15.8885Z" fill="white"/>
<path fill-rule="evenodd" clip-rule="evenodd" d="M14.0575 18.049C14.0575 18.4713 14.076 18.8835 14.1225 19.1723H13.0904L13.0163 18.654H12.9881C12.7094 19.0192 12.2353 19.278 11.6497 19.278C10.7385 19.278 10.2275 18.5968 10.2275 17.8859C10.2275 16.7045 11.2404 16.1097 12.9137 16.1192V16.0421C12.9137 15.7348 12.7927 15.2262 11.9934 15.2262C11.547 15.2262 11.0821 15.3704 10.7755 15.5716L10.5521 14.8042C10.8874 14.5925 11.4735 14.3906 12.1887 14.3906C13.6394 14.3906 14.0575 15.3418 14.0575 16.3591V18.049ZM12.9416 16.8874C12.133 16.868 11.3616 17.0504 11.3616 17.7611C11.3616 18.2215 11.6497 18.4331 12.0124 18.4331C12.4673 18.4331 12.8025 18.1258 12.9044 17.7898C12.9321 17.7034 12.9416 17.607 12.9416 17.5305V16.8874Z" fill="white"/>
<path fill-rule="evenodd" clip-rule="evenodd" d="M14.8479 15.8885C14.8479 15.3505 14.8376 14.899 14.8105 14.4965H15.8136L15.8697 15.1973H15.8972C16.0926 14.8329 16.5853 14.3904 17.338 14.3904C18.1284 14.3904 18.9464 14.9184 18.9464 16.3974V19.1721H17.8032V16.5321C17.8032 15.8596 17.5615 15.3505 16.9386 15.3505C16.4831 15.3505 16.1672 15.6867 16.046 16.0421C16.0094 16.148 15.9998 16.2923 15.9998 16.4258V19.1721H14.8479V15.8885Z" fill="white"/>
<path fill-rule="evenodd" clip-rule="evenodd" d="M23.9034 12.6177V17.8564C23.9034 18.3363 23.9217 18.8558 23.9403 19.1722H22.9178L22.872 18.433H22.853C22.5833 18.9518 22.034 19.2779 21.3748 19.2779C20.297 19.2779 19.4415 18.3275 19.4415 16.8873C19.432 15.3221 20.3801 14.3905 21.4676 14.3905C22.0902 14.3905 22.5368 14.6597 22.741 15.0056H22.7598V12.6177H23.9034ZM22.7598 16.4449C22.7598 16.3499 22.7503 16.2341 22.7324 16.1384C22.6299 15.6775 22.2672 15.3028 21.7466 15.3028C21.0123 15.3028 20.6032 15.9753 20.6032 16.849C20.6032 17.7033 21.0123 18.3275 21.7373 18.3275C22.2019 18.3275 22.6112 18.0012 22.7226 17.4924C22.7503 17.3864 22.7598 17.2713 22.7598 17.146V16.4449Z" fill="white"/>
<path fill-rule="evenodd" clip-rule="evenodd" d="M24.7109 19.1719H25.8647V14.4966H24.7109V19.1719Z" fill="white"/>
<path fill-rule="evenodd" clip-rule="evenodd" d="M26.6732 16.0037C26.6732 15.3702 26.6635 14.9183 26.6357 14.4963H27.6306L27.667 15.3889H27.7055C27.9282 14.7264 28.4582 14.4963 28.9414 14.4963C29.0527 14.4963 29.1177 14.4766 29.2109 14.4963V15.5336C29.1177 15.5144 29.0156 15.4952 28.8762 15.4952C28.3278 15.4952 27.9557 15.8597 27.8536 16.3874C27.8355 16.4931 27.8167 16.6185 27.8167 16.7535V19.1722H26.6732V16.0037Z" fill="white"/>
<path fill-rule="evenodd" clip-rule="evenodd" d="M29.7402 19.1719H30.8923V14.4966H29.7402V19.1719Z" fill="white"/>
<path fill-rule="evenodd" clip-rule="evenodd" d="M29.4677 8.84369C28.7757 9.25762 27.1434 10.2246 26.534 10.5847C26.1626 10.7802 25.3025 10.8655 24.8161 10.1879C24.8073 10.1757 24.169 9.35185 24.143 9.32083C24.1247 9.29891 23.712 8.66667 22.7925 8.6469C22.6566 8.64358 21.9812 8.63986 21.3221 9.02678C20.446 9.54375 18.4086 10.7469 18.4086 10.7469C18.4081 10.7469 18.4081 10.748 18.407 10.748C17.5695 11.2429 16.917 11.6283 16.917 11.6283L17.688 12.6063C18.0486 13.0689 18.8619 13.4267 19.5673 13.0085C19.5673 13.0085 22.1734 11.4497 22.1829 11.4452C23.31 10.8067 24.1797 10.8067 24.7569 11.0443C25.2751 11.2704 25.7258 11.8339 25.7258 11.8339C25.7258 11.8339 26.3149 12.5879 26.4188 12.7198C26.754 13.146 27.3088 12.9786 27.3088 12.9786C27.3088 12.9786 27.5144 12.9545 27.8242 12.7645C27.8242 12.7645 30.3486 11.2526 30.3502 11.2521C31.1518 10.7664 31.8869 10.6756 32.2627 10.7114C33.4395 10.8218 33.8051 11.671 34.3153 12.2634C34.6158 12.6119 34.887 12.8098 35.3016 12.7998C35.5741 12.7938 35.8819 12.6232 35.9273 12.5923L38.9501 10.7904C38.9501 10.7904 38.64 10.3079 38.0048 9.55715C37.4362 8.88733 36.8324 9.19039 36.3509 9.43669C36.1487 9.54003 35.4158 10.0436 34.6897 10.3949C34.1724 10.6451 33.4292 10.5699 33.022 10.0501C32.9976 10.0184 32.3387 9.1945 32.2695 9.09312C32.0036 8.74906 31.4847 8.44092 30.8197 8.44092C30.4154 8.44092 29.9566 8.55482 29.4677 8.84369Z" fill="url(#paint0_linear_5452_89230)"/>
<defs>
<linearGradient id="paint0_linear_5452_89230" x1="16.917" y1="13.1937" x2="38.9501" y2="13.1937" gradientUnits="userSpaceOnUse">
<stop stop-color="#FFCA06"/>
<stop offset="0.330844" stop-color="#FBAA18"/>
<stop offset="0.694742" stop-color="#FFC907"/>
<stop offset="1" stop-color="#FAA619"/>
</linearGradient>
</defs>
</svg>
