<svg width="209" height="40" viewBox="0 0 209 40" fill="none" xmlns="http://www.w3.org/2000/svg">
<path d="M21.2329 5.82309C22.8387 4.94531 24.6709 4.44531 26.6215 4.44531C32.9909 4.44531 38.1532 9.76754 38.1532 16.3342C38.1532 17.5009 37.2372 18.4453 36.1056 18.4453C34.9739 18.4453 34.0579 17.5009 34.0579 16.3342C34.0579 12.1009 30.7276 8.66754 26.6215 8.66754C26.0072 8.66754 25.4037 8.74531 24.8325 8.88976C26.4276 10.9231 27.3759 13.512 27.3759 16.3342C27.3759 19.8342 24.6277 22.6675 21.2329 22.6675C17.838 22.6675 15.0898 19.8342 15.0898 16.3342C15.0898 14.3342 15.564 12.4564 16.4154 10.8009C17.8596 10.9564 19.142 11.7009 20.0151 12.8009C19.4869 13.8564 19.1852 15.0564 19.1852 16.3231C19.1852 17.4898 20.1013 18.4342 21.2329 18.4342C22.3645 18.4342 23.2806 17.4898 23.2806 16.3231C23.2806 14.2786 22.5046 12.4231 21.2329 11.0453C20.2736 10.012 19.0343 9.24531 17.6332 8.88976C17.062 8.74531 16.4585 8.66754 15.8442 8.66754C11.7381 8.66754 8.40788 12.1009 8.40788 16.3342C8.40788 17.5009 7.49181 18.4453 6.36019 18.4453C5.22857 18.4453 4.3125 17.5009 4.3125 16.3342C4.3125 9.76754 9.47487 4.44531 15.8442 4.44531C17.7949 4.44531 19.627 4.94531 21.2329 5.82309Z" fill="#93A6FF"/>
<path d="M6.31714 21.4787C7.3733 21.0564 8.5588 21.5898 8.96832 22.6786C10.8759 27.7453 15.6502 31.3342 21.2329 31.3342C26.8155 31.3342 31.5899 27.7453 33.4974 22.6786C33.907 21.6009 35.0925 21.0564 36.1487 21.4787C37.2049 21.9009 37.7221 23.1231 37.3126 24.212C34.8123 30.8453 28.5614 35.5564 21.2329 35.5564C13.9043 35.5564 7.65346 30.8453 5.15311 24.212C4.74359 23.1231 5.26088 21.9009 6.31714 21.4787Z" fill="#93A6FF"/>
<path d="M174.163 14.745H170.535V21.6343C170.535 22.2084 170.674 22.6279 170.953 22.8929C171.231 23.1579 171.637 23.3124 172.172 23.3566C172.708 23.3787 173.371 23.3676 174.163 23.3235V27.1987C171.316 27.5299 169.305 27.2539 168.128 26.3707C166.972 25.4874 166.394 23.9086 166.394 21.6343V14.745H163.601V10.6379H166.394V7.29261L170.535 6.00087V10.6379H174.163V14.745Z" fill="#93A6FF"/>
<path d="M199.442 13.444C199.829 12.3704 200.463 11.5651 201.343 11.0283C202.245 10.4915 203.244 10.2231 204.339 10.2231V15.0545C203.072 14.8979 201.934 15.1663 200.924 15.8597C199.936 16.5531 199.442 17.705 199.442 19.3155V27.3342H195.286V10.5586H199.442V13.444Z" fill="#93A6FF"/>
<path fill-rule="evenodd" clip-rule="evenodd" d="M144.849 10.6886H140.691V12.6503C139.444 11.0322 137.693 10.2231 135.437 10.2231C133.288 10.2231 131.44 11.0765 129.893 12.7833C128.368 14.4679 127.605 16.5404 127.605 19.0009C127.605 21.4613 128.368 23.5449 129.893 25.2517C131.44 26.9363 133.288 27.7786 135.437 27.7786C137.693 27.7786 139.444 26.9696 140.691 25.3515V27.3132H144.849V10.6886ZM136.211 23.689C134.921 23.689 133.858 23.2568 133.02 22.3923C132.182 21.5056 131.763 20.3752 131.763 19.0009C131.763 17.6266 132.182 16.5072 133.02 15.6427C133.858 14.7561 134.921 14.3127 136.211 14.3127C137.5 14.3127 138.563 14.7561 139.402 15.6427C140.261 16.5072 140.691 17.6266 140.691 19.0009C140.691 20.3752 140.261 21.5056 139.402 22.3923C138.563 23.2568 137.5 23.689 136.211 23.689Z" fill="#93A6FF"/>
<path fill-rule="evenodd" clip-rule="evenodd" d="M188.973 10.6886H193.131V27.3132H188.973V25.3515C187.727 26.9696 185.976 27.7786 183.719 27.7786C181.571 27.7786 179.723 26.9363 178.176 25.2517C176.65 23.5449 175.887 21.4613 175.887 19.0009C175.887 16.5404 176.65 14.4679 178.176 12.7833C179.723 11.0765 181.571 10.2231 183.719 10.2231C185.976 10.2231 187.727 11.0322 188.973 12.6503V10.6886ZM181.302 22.3923C182.14 23.2568 183.204 23.689 184.493 23.689C185.782 23.689 186.846 23.2568 187.684 22.3923C188.543 21.5056 188.973 20.3752 188.973 19.0009C188.973 17.6266 188.543 16.5072 187.684 15.6427C186.846 14.7561 185.782 14.3127 184.493 14.3127C183.204 14.3127 182.14 14.7561 181.302 15.6427C180.464 16.5072 180.045 17.6266 180.045 19.0009C180.045 20.3752 180.464 21.5056 181.302 22.3923Z" fill="#93A6FF"/>
<path fill-rule="evenodd" clip-rule="evenodd" d="M125.449 10.6846H121.541V12.7286C120.362 11.0583 118.707 10.2231 116.577 10.2231C114.405 10.2231 112.575 11.0473 111.086 12.6956C109.597 14.344 108.852 16.333 108.852 18.6627C108.852 21.0143 109.587 23.0143 111.055 24.6627C112.544 26.289 114.385 27.1022 116.577 27.1022C118.707 27.1022 120.362 26.2671 121.541 24.5967V26.3769C121.541 27.6736 121.179 28.6736 120.455 29.3769C119.731 30.0802 118.738 30.4319 117.477 30.4319C115.553 30.4319 114.199 29.6627 113.413 28.1242L110 30.2011C110.683 31.5198 111.655 32.5198 112.916 33.2011C114.199 33.8824 115.677 34.2231 117.353 34.2231C119.586 34.2231 121.489 33.5528 123.061 32.2121C124.653 30.8714 125.449 28.9264 125.449 26.3769V10.6846ZM117.197 23.1791C115.936 23.1791 114.891 22.7616 114.064 21.9264C113.258 21.0692 112.854 19.9813 112.854 18.6627C112.854 17.3659 113.258 16.3 114.064 15.4648C114.891 14.6077 115.936 14.1791 117.197 14.1791C118.459 14.1791 119.493 14.6077 120.3 15.4648C121.127 16.3 121.541 17.3659 121.541 18.6627C121.541 19.9813 121.127 21.0692 120.3 21.9264C119.493 22.7616 118.459 23.1791 117.197 23.1791Z" fill="#93A6FF"/>
<path d="M100.678 10.2231C102.419 10.2231 103.852 10.8334 104.977 12.054C106.124 13.2747 106.697 14.9614 106.697 17.1141V27.3342H102.589V17.6468C102.589 16.5371 102.302 15.6938 101.729 15.1167C101.155 14.5175 100.391 14.2179 99.4357 14.2179C98.3741 14.2179 97.5249 14.5619 96.8879 15.2499C96.251 15.9379 95.9325 16.9699 95.9325 18.3459V27.3342H91.8242V10.6892H95.9325V12.5534C96.9304 10.9999 98.5122 10.2231 100.678 10.2231Z" fill="#93A6FF"/>
<path d="M160.157 12.054C159.032 10.8334 157.599 10.2231 155.858 10.2231C153.692 10.2231 152.11 10.9999 151.112 12.5534V10.6892H147.004V27.3342H151.112V18.3459C151.112 16.9699 151.431 15.9379 152.068 15.2499C152.705 14.5619 153.554 14.2179 154.616 14.2179C155.571 14.2179 156.335 14.5175 156.909 15.1167C157.482 15.6938 157.768 16.5371 157.768 17.6468V27.3342H161.877V17.1141C161.877 14.9614 161.303 13.2747 160.157 12.054Z" fill="#93A6FF"/>
<path fill-rule="evenodd" clip-rule="evenodd" d="M77.4056 20.4962C77.962 22.5271 79.4708 23.5425 81.932 23.5425C83.5158 23.5425 84.7143 23.0024 85.5275 21.9222L88.8662 23.8666C87.2825 26.1783 84.9497 27.3342 81.8678 27.3342C79.214 27.3342 77.0845 26.524 75.4794 24.9036C73.8743 23.2833 73.0717 21.2416 73.0717 18.7786C73.0717 16.3373 73.8636 14.3064 75.4473 12.6861C77.031 11.0441 79.0642 10.2231 81.5468 10.2231C83.901 10.2231 85.8378 11.0441 87.3574 12.6861C88.8983 14.328 89.6688 16.3589 89.6688 18.7786C89.6688 19.3188 89.6153 19.8913 89.5082 20.4962H77.4056ZM77.3414 17.2555H85.5275C85.2921 16.1536 84.7999 15.3327 84.0508 14.7925C83.3231 14.2524 82.4885 13.9823 81.5468 13.9823C80.4339 13.9823 79.5136 14.274 78.786 14.8574C78.0583 15.4191 77.5768 16.2185 77.3414 17.2555Z" fill="#93A6FF"/>
<path d="M69.2546 12.0873C68.1682 10.8445 66.7089 10.2231 64.8769 10.2231C62.7679 10.2231 61.1809 11.0221 60.1157 12.62C59.1784 11.0221 57.7298 10.2231 55.7699 10.2231C53.7675 10.2231 52.2869 10.9666 51.3283 12.4535V10.6892H47.2062V27.3342H51.3283V17.9797C51.3283 16.759 51.5946 15.8269 52.1271 15.1833C52.681 14.5397 53.416 14.2179 54.332 14.2179C55.1841 14.2179 55.8445 14.4953 56.3131 15.0502C56.7818 15.605 57.0161 16.3818 57.0161 17.3805V27.3342H61.1382V17.9797C61.1382 16.759 61.3939 15.8269 61.9051 15.1833C62.4377 14.5397 63.1727 14.2179 64.11 14.2179C64.9621 14.2179 65.6225 14.4953 66.0912 15.0502C66.5598 15.605 66.7942 16.3818 66.7942 17.3805V27.3342H70.9162V17.0809C70.9162 14.9947 70.3624 13.3302 69.2546 12.0873Z" fill="#93A6FF"/>
</svg>
