<svg width="209" height="40" viewBox="0 0 209 40" fill="none" xmlns="http://www.w3.org/2000/svg">
<path d="M21.2309 5.82212C22.8368 4.94434 24.6689 4.44434 26.6196 4.44434C32.9889 4.44434 38.1513 9.76656 38.1513 16.3332C38.1513 17.4999 37.2352 18.4443 36.1036 18.4443C34.972 18.4443 34.0559 17.4999 34.0559 16.3332C34.0559 12.0999 30.7257 8.66656 26.6196 8.66656C26.0052 8.66656 25.4018 8.74433 24.8306 8.88878C26.4256 10.9221 27.374 13.511 27.374 16.3332C27.374 19.8332 24.6258 22.6666 21.2309 22.6666C17.8361 22.6666 15.0879 19.8332 15.0879 16.3332C15.0879 14.3332 15.5621 12.4554 16.4134 10.7999C17.8576 10.9554 19.1401 11.6999 20.0131 12.7999C19.485 13.8554 19.1832 15.0554 19.1832 16.3221C19.1832 17.4888 20.0993 18.4332 21.2309 18.4332C22.3625 18.4332 23.2786 17.4888 23.2786 16.3221C23.2786 14.2777 22.5026 12.4221 21.2309 11.0443C20.2717 10.011 19.0323 9.24433 17.6313 8.88878C17.0601 8.74433 16.4566 8.66656 15.8423 8.66656C11.7362 8.66656 8.40592 12.0999 8.40592 16.3332C8.40592 17.4999 7.48985 18.4443 6.35823 18.4443C5.22662 18.4443 4.31055 17.4999 4.31055 16.3332C4.31055 9.76656 9.47292 4.44434 15.8423 4.44434C17.7929 4.44434 19.6251 4.94434 21.2309 5.82212Z" fill="#2E47BA"/>
<path d="M6.31519 21.4777C7.37134 21.0554 8.55685 21.5888 8.96636 22.6777C10.874 27.7443 15.6483 31.3332 21.2309 31.3332C26.8135 31.3332 31.588 27.7443 33.4955 22.6777C33.9051 21.5999 35.0906 21.0554 36.1467 21.4777C37.2029 21.8999 37.7202 23.1221 37.3107 24.211C34.8103 30.8443 28.5595 35.5555 21.2309 35.5555C13.9023 35.5555 7.65151 30.8443 5.15116 24.211C4.74164 23.1221 5.25893 21.8999 6.31519 21.4777Z" fill="#2E47BA"/>
<path d="M174.161 14.744H170.533V21.6333C170.533 22.2074 170.672 22.6269 170.951 22.8919C171.229 23.1569 171.635 23.3115 172.171 23.3556C172.706 23.3777 173.369 23.3667 174.161 23.3225V27.1977C171.314 27.5289 169.303 27.2529 168.126 26.3697C166.97 25.4864 166.392 23.9076 166.392 21.6333V14.744H163.599V10.6369H166.392V7.29163L170.533 5.99989V10.6369H174.161V14.744Z" fill="#2E47BA"/>
<path d="M199.44 13.443C199.827 12.3694 200.461 11.5642 201.341 11.0273C202.243 10.4905 203.242 10.2221 204.337 10.2221V15.0535C203.07 14.8969 201.932 15.1653 200.922 15.8587C199.934 16.5521 199.44 17.704 199.44 19.3145V27.3332H195.284V10.5576H199.44V13.443Z" fill="#2E47BA"/>
<path fill-rule="evenodd" clip-rule="evenodd" d="M144.847 10.6876H140.689V12.6493C139.443 11.0312 137.691 10.2221 135.435 10.2221C133.286 10.2221 131.438 11.0755 129.891 12.7823C128.366 14.4669 127.603 16.5395 127.603 18.9999C127.603 21.4603 128.366 23.5439 129.891 25.2507C131.438 26.9354 133.286 27.7777 135.435 27.7777C137.691 27.7777 139.443 26.9686 140.689 25.3505V27.3122H144.847V10.6876ZM136.209 23.688C134.919 23.688 133.856 23.2558 133.018 22.3913C132.18 21.5047 131.761 20.3742 131.761 18.9999C131.761 17.6256 132.18 16.5062 133.018 15.6417C133.856 14.7551 134.919 14.3118 136.209 14.3118C137.498 14.3118 138.562 14.7551 139.4 15.6417C140.259 16.5062 140.689 17.6256 140.689 18.9999C140.689 20.3742 140.259 21.5047 139.4 22.3913C138.562 23.2558 137.498 23.688 136.209 23.688Z" fill="#2E47BA"/>
<path fill-rule="evenodd" clip-rule="evenodd" d="M188.971 10.6876H193.129V27.3122H188.971V25.3505C187.725 26.9686 185.974 27.7777 183.717 27.7777C181.569 27.7777 179.721 26.9354 178.174 25.2507C176.648 23.5439 175.885 21.4603 175.885 18.9999C175.885 16.5395 176.648 14.4669 178.174 12.7823C179.721 11.0755 181.569 10.2221 183.717 10.2221C185.974 10.2221 187.725 11.0312 188.971 12.6493V10.6876ZM181.3 22.3913C182.138 23.2558 183.202 23.688 184.491 23.688C185.78 23.688 186.844 23.2558 187.682 22.3913C188.541 21.5047 188.971 20.3742 188.971 18.9999C188.971 17.6256 188.541 16.5062 187.682 15.6417C186.844 14.7551 185.78 14.3118 184.491 14.3118C183.202 14.3118 182.138 14.7551 181.3 15.6417C180.462 16.5062 180.043 17.6256 180.043 18.9999C180.043 20.3742 180.462 21.5047 181.3 22.3913Z" fill="#2E47BA"/>
<path fill-rule="evenodd" clip-rule="evenodd" d="M125.447 10.6837H121.539V12.7276C120.36 11.0573 118.705 10.2221 116.575 10.2221C114.403 10.2221 112.573 11.0463 111.084 12.6946C109.595 14.343 108.85 16.332 108.85 18.6617C108.85 21.0133 109.585 23.0133 111.053 24.6617C112.542 26.288 114.383 27.1012 116.575 27.1012C118.705 27.1012 120.36 26.2661 121.539 24.5957V26.376C121.539 27.6727 121.177 28.6727 120.453 29.376C119.729 30.0793 118.736 30.4309 117.475 30.4309C115.551 30.4309 114.197 29.6617 113.411 28.1232L109.998 30.2001C110.681 31.5188 111.653 32.5188 112.914 33.2001C114.197 33.8815 115.675 34.2221 117.351 34.2221C119.584 34.2221 121.487 33.5518 123.059 32.2111C124.651 30.8705 125.447 28.9254 125.447 26.376V10.6837ZM117.195 23.1782C115.934 23.1782 114.889 22.7606 114.062 21.9254C113.256 21.0683 112.852 19.9804 112.852 18.6617C112.852 17.365 113.256 16.299 114.062 15.4639C114.889 14.6067 115.934 14.1782 117.195 14.1782C118.457 14.1782 119.491 14.6067 120.298 15.4639C121.125 16.299 121.539 17.365 121.539 18.6617C121.539 19.9804 121.125 21.0683 120.298 21.9254C119.491 22.7606 118.457 23.1782 117.195 23.1782Z" fill="#2E47BA"/>
<path d="M100.676 10.2221C102.417 10.2221 103.85 10.8324 104.975 12.0531C106.122 13.2737 106.695 14.9604 106.695 17.1132V27.3332H102.587V17.6458C102.587 16.5361 102.3 15.6928 101.727 15.1158C101.154 14.5165 100.389 14.2169 99.4338 14.2169C98.3722 14.2169 97.5229 14.5609 96.886 15.2489C96.249 15.9369 95.9306 16.9689 95.9306 18.3449V27.3332H91.8223V10.6882H95.9306V12.5524C96.9285 10.9989 98.5102 10.2221 100.676 10.2221Z" fill="#2E47BA"/>
<path d="M160.155 12.0531C159.03 10.8324 157.597 10.2221 155.856 10.2221C153.69 10.2221 152.108 10.9989 151.11 12.5524V10.6882H147.002V27.3332H151.11V18.3449C151.11 16.9689 151.429 15.9369 152.066 15.2489C152.703 14.5609 153.552 14.2169 154.614 14.2169C155.569 14.2169 156.333 14.5165 156.907 15.1158C157.48 15.6928 157.766 16.5361 157.766 17.6458V27.3332H161.875V17.1132C161.875 14.9604 161.301 13.2737 160.155 12.0531Z" fill="#2E47BA"/>
<path fill-rule="evenodd" clip-rule="evenodd" d="M77.4036 20.4953C77.9601 22.5261 79.4689 23.5416 81.9301 23.5416C83.5138 23.5416 84.7123 23.0014 85.5256 21.9212L88.8643 23.8656C87.2805 26.1774 84.9477 27.3332 81.8659 27.3332C79.2121 27.3332 77.0826 26.523 75.4775 24.9027C73.8723 23.2823 73.0698 21.2406 73.0698 18.7777C73.0698 16.3363 73.8616 14.3054 75.4454 12.6851C77.0291 11.0431 79.0623 10.2221 81.5448 10.2221C83.899 10.2221 85.8359 11.0431 87.3554 12.6851C88.8963 14.3271 89.6668 16.3579 89.6668 18.7777C89.6668 19.3178 89.6133 19.8903 89.5063 20.4953H77.4036ZM77.3394 17.2545H85.5256C85.2902 16.1527 84.7979 15.3317 84.0489 14.7916C83.3212 14.2514 82.4865 13.9814 81.5448 13.9814C80.432 13.9814 79.5117 14.273 78.784 14.8564C78.0564 15.4181 77.5748 16.2175 77.3394 17.2545Z" fill="#2E47BA"/>
<path d="M69.2527 12.0864C68.1662 10.8435 66.707 10.2221 64.8749 10.2221C62.766 10.2221 61.1789 11.0211 60.1137 12.619C59.1764 11.0211 57.7278 10.2221 55.768 10.2221C53.7655 10.2221 52.285 10.9656 51.3263 12.4525V10.6882H47.2042V27.3332H51.3263V17.9787C51.3263 16.7581 51.5926 15.8259 52.1252 15.1823C52.6791 14.5387 53.414 14.2169 54.33 14.2169C55.1821 14.2169 55.8425 14.4943 56.3112 15.0492C56.7799 15.604 57.0142 16.3808 57.0142 17.3795V27.3332H61.1363V17.9787C61.1363 16.7581 61.3919 15.8259 61.9032 15.1823C62.4358 14.5387 63.1707 14.2169 64.108 14.2169C64.9602 14.2169 65.6205 14.4943 66.0892 15.0492C66.5579 15.604 66.7922 16.3808 66.7922 17.3795V27.3332H70.9143V17.0799C70.9143 14.9937 70.3604 13.3292 69.2527 12.0864Z" fill="#2E47BA"/>
</svg>
