<svg width="50" height="50" viewBox="0 0 50 50" fill="none" xmlns="http://www.w3.org/2000/svg">
<rect width="50" height="50" rx="25" fill="#DCEDFF"/>
<path d="M10.8398 18.1352C10.8398 17.3826 11.45 16.7725 12.2026 16.7725H18.5057C19.143 16.7725 19.7337 17.1063 20.0624 17.6523L21.3138 19.7309C21.4782 20.0038 21.7735 20.1708 22.0922 20.1708H35.031C35.7836 20.1708 36.3937 20.7809 36.3937 21.5335V38.0002H12.4696C11.5695 38.0002 10.8398 37.2705 10.8398 36.3705V18.1352Z" fill="#CC7051"/>
<path d="M15.2695 12.9085C15.2695 12.4068 15.6763 12 16.178 12H31.7853C32.2871 12 32.6938 12.4068 32.6938 12.9085V34.6958H15.2695V12.9085Z" fill="white"/>
<path d="M19.1074 16.7725H28.8574" stroke="#F6B755" stroke-linecap="round" stroke-linejoin="round"/>
<path d="M19.1074 20.0225H26.6907" stroke="#F6B755" stroke-linecap="round" stroke-linejoin="round"/>
<mask id="mask0_5597_113205" style="mask-type:alpha" maskUnits="userSpaceOnUse" x="10" y="23" width="30" height="15">
<path d="M36.3937 37.9999L39.5901 25.5022C39.8106 24.6403 39.1595 23.8018 38.2699 23.8018H15.8819C15.0518 23.8018 14.3273 24.3643 14.1216 25.1685L10.8398 37.9999H36.3937Z" fill="#BBC7FF"/>
</mask>
<g mask="url(#mask0_5597_113205)">
<path d="M36.3937 37.9999L39.5901 25.5022C39.8106 24.6403 39.1595 23.8018 38.2699 23.8018H15.8819C15.0518 23.8018 14.3273 24.3643 14.1216 25.1685L11.1866 36.6442C11.0108 37.3313 11.5299 37.9999 12.2392 37.9999H36.3937Z" fill="#F9B66F"/>
<path d="M23.5423 34.1803L24.3234 31.1745C24.4128 30.8304 24.1531 30.4946 23.7976 30.4946H16.8676C16.5213 30.4946 16.2187 30.7287 16.1315 31.0639L15.3505 34.0697C15.2611 34.4138 15.5208 34.7496 15.8763 34.7496H22.8062C23.1526 34.7496 23.4552 34.5155 23.5423 34.1803Z" fill="#EB934E"/>
<path d="M18.1738 32.627H21.4238" stroke="#CC7051" stroke-linecap="round" stroke-linejoin="round"/>
<circle cx="35.7121" cy="32.7228" r="6.63984" fill="#BF684F"/>
</g>
<circle cx="36.3939" cy="32.0418" r="5.95832" fill="#F6B755"/>
<path d="M38.0605 31.541L36.3934 29.8739L34.7263 31.541" stroke="white" stroke-width="1.08648" stroke-linecap="round" stroke-linejoin="round"/>
<path d="M36.3945 30.1685L36.3945 34.2084" stroke="white" stroke-width="1.08648" stroke-linecap="round" stroke-linejoin="round"/>
</svg>
