<svg width="40" height="40" viewBox="0 0 40 40" fill="none" xmlns="http://www.w3.org/2000/svg">
<circle cx="20" cy="20" r="20" fill="#DCEDFF"/>
<g clip-path="url(#clip0_3851_189505)">
<path d="M18.6468 10.3363C19.3788 9.55309 20.6208 9.55309 21.3527 10.3363L22.6143 11.6861C22.9793 12.0767 23.4954 12.2904 24.0298 12.2724L25.8763 12.21C26.9476 12.1738 27.8258 13.052 27.7896 14.1233L27.7272 15.9698C27.7091 16.5042 27.9229 17.0202 28.3135 17.3853L29.6633 18.6468C30.4465 19.3788 30.4465 20.6208 29.6633 21.3527L28.3135 22.6143C27.9229 22.9793 27.7091 23.4954 27.7272 24.0298L27.7896 25.8763C27.8258 26.9476 26.9476 27.8258 25.8763 27.7896L24.0298 27.7272C23.4954 27.7091 22.9793 27.9229 22.6143 28.3135L21.3527 29.6633C20.6208 30.4465 19.3788 30.4465 18.6468 29.6633L17.3853 28.3135C17.0202 27.9229 16.5042 27.7091 15.9698 27.7272L14.1233 27.7896C13.052 27.8258 12.1738 26.9476 12.21 25.8763L12.2724 24.0298C12.2904 23.4954 12.0767 22.9793 11.6861 22.6143L10.3363 21.3527C9.55309 20.6208 9.55309 19.3788 10.3363 18.6468L11.6861 17.3853C12.0767 17.0202 12.2904 16.5042 12.2724 15.9698L12.21 14.1233C12.1738 13.052 13.052 12.1738 14.1233 12.21L15.9698 12.2724C16.5042 12.2904 17.0202 12.0767 17.3853 11.6861L18.6468 10.3363Z" fill="#2E47BA" stroke="white" stroke-width="1.44444" stroke-linecap="round" stroke-linejoin="round"/>
<path fill-rule="evenodd" clip-rule="evenodd" d="M20 30.2508V9.74902C20.4935 9.74902 20.987 9.94481 21.3529 10.3364L22.6145 11.6862C22.9796 12.0768 23.4956 12.2906 24.03 12.2725L25.8765 12.2101C26.9478 12.1739 27.826 13.0521 27.7898 14.1234L27.7274 15.97C27.7094 16.5043 27.9231 17.0204 28.3137 17.3854L29.6635 18.647C30.4467 19.3789 30.4467 20.6209 29.6635 21.3529L28.3137 22.6144C27.9231 22.9795 27.7094 23.4956 27.7274 24.0299L27.7898 25.8764C27.826 26.9477 26.9478 27.8259 25.8765 27.7897L24.03 27.7273C23.4956 27.7093 22.9796 27.923 22.6145 28.3137L21.3529 29.6635C20.987 30.055 20.4935 30.2508 20 30.2508Z" fill="#22358B"/>
<path d="M18.6468 10.3363C19.3788 9.55309 20.6208 9.55309 21.3527 10.3363L22.6143 11.6861C22.9793 12.0767 23.4954 12.2904 24.0298 12.2724L25.8763 12.21C26.9476 12.1738 27.8258 13.052 27.7896 14.1233L27.7272 15.9698C27.7091 16.5042 27.9229 17.0202 28.3135 17.3853L29.6633 18.6468C30.4465 19.3788 30.4465 20.6208 29.6633 21.3527L28.3135 22.6143C27.9229 22.9793 27.7091 23.4954 27.7272 24.0298L27.7896 25.8763C27.8258 26.9476 26.9476 27.8258 25.8763 27.7896L24.0298 27.7272C23.4954 27.7091 22.9793 27.9229 22.6143 28.3135L21.3527 29.6633C20.6208 30.4465 19.3788 30.4465 18.6468 29.6633L17.3853 28.3135C17.0202 27.9229 16.5042 27.7091 15.9698 27.7272L14.1233 27.7896C13.052 27.8258 12.1738 26.9476 12.21 25.8763L12.2724 24.0298C12.2904 23.4954 12.0767 22.9793 11.6861 22.6143L10.3363 21.3527C9.55309 20.6208 9.55309 19.3788 10.3363 18.6468L11.6861 17.3853C12.0767 17.0202 12.2904 16.5042 12.2724 15.9698L12.21 14.1233C12.1738 13.052 13.052 12.1738 14.1233 12.21L15.9698 12.2724C16.5042 12.2904 17.0202 12.0767 17.3853 11.6861L18.6468 10.3363Z" stroke="white" stroke-width="1.44444" stroke-linecap="round" stroke-linejoin="round"/>
<path d="M21.62 17.3422C21.62 17.3422 20.7573 16.5807 19.238 17.11C17.8347 17.5976 17.8997 19.5144 20.0273 20.0215" stroke="white" stroke-width="1.44444" stroke-linecap="round" stroke-linejoin="round"/>
<path d="M18.29 22.6626C18.29 22.6626 19.1537 23.4242 20.6721 22.8948C22.0753 22.4063 22.0076 20.4905 19.8837 19.9834" stroke="white" stroke-width="1.44444" stroke-linecap="round" stroke-linejoin="round"/>
<path d="M20.1094 16.9233V15.6816" stroke="white" stroke-width="1.44444" stroke-linecap="round" stroke-linejoin="round"/>
<path d="M20.1094 24.3276V23.0859" stroke="white" stroke-width="1.44444" stroke-linecap="round" stroke-linejoin="round"/>
</g>
<defs>
<clipPath id="clip0_3851_189505">
<rect width="22.2222" height="22.2222" fill="white" transform="translate(8.88867 8.88867)"/>
</clipPath>
</defs>
</svg>
