<svg width="40" height="40" viewBox="0 0 40 40" fill="none" xmlns="http://www.w3.org/2000/svg">
<circle cx="20" cy="20" r="20" fill="#F6F8FC"/>
<g clip-path="url(#clip0_1_17003)">
<path d="M18.7821 10.1915C19.4409 9.48665 20.5587 9.48665 21.2174 10.1915L22.6717 11.7475C23.0003 12.0991 23.4648 12.2915 23.9457 12.2752L26.0743 12.2033C27.0385 12.1707 27.8289 12.9611 27.7963 13.9253L27.7244 16.0539C27.7081 16.5348 27.9005 16.9993 28.252 17.3278L29.8081 18.7821C30.5129 19.4409 30.5129 20.5587 29.8081 21.2174L28.252 22.6717C27.9005 23.0003 27.7081 23.4648 27.7244 23.9457L27.7963 26.0743C27.8289 27.0385 27.0385 27.8289 26.0743 27.7963L23.9457 27.7244C23.4648 27.7081 23.0003 27.9005 22.6717 28.252L21.2174 29.8081C20.5587 30.5129 19.4409 30.5129 18.7821 29.8081L17.3278 28.252C16.9993 27.9005 16.5348 27.7081 16.0539 27.7244L13.9253 27.7963C12.9611 27.8289 12.1707 27.0385 12.2033 26.0743L12.2752 23.9457C12.2915 23.4648 12.0991 23.0003 11.7475 22.6717L10.1915 21.2174C9.48665 20.5587 9.48665 19.4409 10.1915 18.7821L11.7475 17.3278C12.0991 16.9993 12.2915 16.5348 12.2752 16.0539L12.2033 13.9253C12.1707 12.9611 12.9611 12.1707 13.9253 12.2033L16.0539 12.2752C16.5348 12.2915 16.9993 12.0991 17.3278 11.7475L18.7821 10.1915Z" stroke="#6C7E95" stroke-width="1.3" stroke-linecap="round" stroke-linejoin="round"/>
<path d="M21.62 17.3432C21.62 17.3432 20.7573 16.5817 19.238 17.111C17.8347 17.5986 17.8997 19.5154 20.0273 20.0224" stroke="#6C7E95" stroke-width="1.44444" stroke-linecap="round" stroke-linejoin="round"/>
<path d="M18.291 22.6636C18.291 22.6636 19.1547 23.4251 20.6731 22.8958C22.0763 22.4073 22.0085 20.4914 19.8846 19.9844" stroke="#6C7E95" stroke-width="1.44444" stroke-linecap="round" stroke-linejoin="round"/>
<path d="M20.1094 16.9233V15.6816" stroke="#6C7E95" stroke-width="1.44444" stroke-linecap="round" stroke-linejoin="round"/>
<path d="M20.1094 24.3276V23.0859" stroke="#6C7E95" stroke-width="1.44444" stroke-linecap="round" stroke-linejoin="round"/>
</g>
<defs>
<clipPath id="clip0_1_17003">
<rect width="22.2222" height="22.2222" fill="white" transform="translate(8.88867 8.88867)"/>
</clipPath>
</defs>
</svg>
