<svg width="32" height="32" viewBox="0 0 32 32" fill="none" xmlns="http://www.w3.org/2000/svg">
<circle cx="16" cy="16" r="16" fill="#FFAB36" fill-opacity="0.3"/>
<path d="M9.60107 12.7653V12.1153C9.24209 12.1153 8.95107 12.4063 8.95107 12.7653H9.60107ZM23.0489 15.5653C23.0489 15.2063 22.7579 14.9153 22.3989 14.9153C22.0399 14.9153 21.7489 15.2063 21.7489 15.5653H23.0489ZM9.60107 13.4153H22.3989V12.1153H9.60107V13.4153ZM21.3989 22.4403H10.6011V23.7403H21.3989V22.4403ZM10.2511 22.0903V12.7653H8.95107V22.0903H10.2511ZM21.7489 15.5653V22.0903H23.0489V15.5653H21.7489ZM10.6011 22.4403C10.4078 22.4403 10.2511 22.2836 10.2511 22.0903H8.95107C8.95107 23.0016 9.68981 23.7403 10.6011 23.7403V22.4403ZM21.3989 23.7403C22.3102 23.7403 23.0489 23.0016 23.0489 22.0903H21.7489C21.7489 22.2836 21.5922 22.4403 21.3989 22.4403V23.7403Z" fill="#FC9827"/>
<path d="M9.60107 12.7653H22.3989L20.4109 9.40601C20.2309 9.10186 19.9037 8.91531 19.5503 8.91531H12.4497C12.0963 8.91531 11.7691 9.10186 11.5891 9.40601L9.60107 12.7653Z" stroke="#FC9827" stroke-width="1.3" stroke-linejoin="round"/>
<path d="M15.9995 8.91248L15.9995 12.7624" stroke="#FC9827" stroke-width="1.3" stroke-linecap="round" stroke-linejoin="round"/>
<path d="M13.7358 17.7367L15.3734 19.3742L18.2695 16.4781" stroke="#FC9827" stroke-width="1.3" stroke-linecap="round" stroke-linejoin="round"/>
</svg>
