<svg width="32" height="32" viewBox="0 0 32 32" fill="none" xmlns="http://www.w3.org/2000/svg">
<circle cx="16" cy="16" r="16" fill="#E1F1E6"/>
<path d="M13.9375 21.9111C14.9929 21.9111 15.8486 21.0554 15.8486 20C15.8486 18.9445 14.9929 18.0889 13.9375 18.0889C12.882 18.0889 12.0264 18.9445 12.0264 20C12.0264 21.0554 12.882 21.9111 13.9375 21.9111Z" stroke="#59B277" stroke-width="1.3" stroke-linecap="round" stroke-linejoin="round"/>
<path d="M12.0263 20H9.33301" stroke="#59B277" stroke-width="1.3" stroke-linecap="round" stroke-linejoin="round"/>
<path d="M22.6664 20H17.9287" stroke="#59B277" stroke-width="1.3" stroke-linecap="round" stroke-linejoin="round"/>
<path d="M18.0527 13.9111C19.1082 13.9111 19.9638 13.0554 19.9638 12C19.9638 10.9445 19.1082 10.0889 18.0527 10.0889C16.9972 10.0889 16.1416 10.9445 16.1416 12C16.1416 13.0554 16.9972 13.9111 18.0527 13.9111Z" stroke="#59B277" stroke-width="1.3" stroke-linecap="round" stroke-linejoin="round"/>
<path d="M19.9727 12H22.666" stroke="#59B277" stroke-width="1.3" stroke-linecap="round" stroke-linejoin="round"/>
<path d="M9.33301 12H14.0707" stroke="#59B277" stroke-width="1.3" stroke-linecap="round" stroke-linejoin="round"/>
</svg>
