<svg width="20" height="20" viewBox="0 0 20 20" fill="none" xmlns="http://www.w3.org/2000/svg">
<path d="M17 5V3C17 2.44772 16.5523 2 16 2H4C3.44772 2 3 2.44772 3 3V17C3 17.5523 3.44772 18 4 18H13H16C16.5523 18 17 17.5523 17 17V14V7" stroke="#203551" stroke-width="1.3" stroke-miterlimit="10" stroke-linecap="round" stroke-linejoin="round"/>
<path d="M13 6.80469V6.15469C13.359 6.15469 13.65 6.4457 13.65 6.80469H13ZM6.35 8.49972C6.35 8.14074 6.64102 7.84972 7 7.84972C7.35898 7.84972 7.65 8.14074 7.65 8.49972H6.35ZM13 7.45469H7V6.15469H13V7.45469ZM8 10.9954H12V12.2954H8V10.9954ZM12.35 10.6454V6.80469H13.65V10.6454H12.35ZM7.65 8.49972V10.6454H6.35V8.49972H7.65ZM12 10.9954C12.1933 10.9954 12.35 10.8387 12.35 10.6454H13.65C13.65 11.5566 12.9113 12.2954 12 12.2954V10.9954ZM8 12.2954C7.08873 12.2954 6.35 11.5566 6.35 10.6454H7.65C7.65 10.8387 7.8067 10.9954 8 10.9954V12.2954Z" fill="#203551"/>
<path d="M7 6.80469H13L12.2222 5.49042C12.0422 5.18627 11.715 4.99972 11.3616 4.99972H8.63838C8.28496 4.99972 7.95779 5.18627 7.7778 5.49042L7 6.80469Z" stroke="#203551" stroke-width="1.3" stroke-linejoin="round"/>
<path d="M8 15H12" stroke="#203551" stroke-width="1.3" stroke-miterlimit="10" stroke-linecap="round" stroke-linejoin="round"/>
</svg>
