<svg width="76" height="76" viewBox="0 0 76 76" fill="none" xmlns="http://www.w3.org/2000/svg">
<rect width="76" height="76" rx="35" fill="#DCEDFF"/>
<path d="M16.4775 26.8564C16.4775 26.1038 17.0877 25.4937 17.8403 25.4937H28.6637C29.301 25.4937 29.8917 25.8275 30.2204 26.3735L32.5357 30.2192C32.7001 30.4921 32.9954 30.6591 33.3141 30.6591H53.9567C54.7093 30.6591 55.3194 31.2692 55.3194 32.0218V57.7598H18.1072C17.2072 57.7598 16.4775 57.0301 16.4775 56.1301V26.8564Z" fill="#CC7051"/>
<path d="M23.21 19.1484C23.21 18.6466 23.6167 18.2399 24.1185 18.2399H48.7864C49.2882 18.2399 49.6949 18.6466 49.6949 19.1484V52.7375H23.21V19.1484Z" fill="white"/>
<path d="M29.0444 25.4937H43.8644" stroke="#F6B755" stroke-linecap="round" stroke-linejoin="round"/>
<path d="M29.0444 30.4336H40.5711" stroke="#F6B755" stroke-linecap="round" stroke-linejoin="round"/>
<mask id="mask0_5597_138356" style="mask-type:alpha" maskUnits="userSpaceOnUse" x="16" y="36" width="45" height="22">
<path d="M55.3194 57.7601L60.4041 37.8794C60.6246 37.0175 59.9735 36.179 59.0839 36.179L23.4079 36.179C22.5778 36.179 21.8533 36.7415 21.6476 37.5457L16.4775 57.7601H55.3194Z" fill="#BBC7FF"/>
</mask>
<g mask="url(#mask0_5597_138356)">
<path d="M55.3194 57.7601L60.4041 37.8794C60.6246 37.0175 59.9735 36.179 59.0839 36.179L23.4079 36.179C22.5778 36.179 21.8533 36.7415 21.6476 37.5457L16.8243 56.4044C16.6485 57.0915 17.1676 57.7601 17.8769 57.7601H55.3194Z" fill="#F9B66F"/>
<path d="M35.7091 52.2505L37.0651 47.0322C37.1545 46.6881 36.8948 46.3523 36.5393 46.3523L25.3347 46.3523C24.9883 46.3523 24.6857 46.5863 24.5986 46.9216L23.2426 52.1399C23.1532 52.484 23.4129 52.8198 23.7684 52.8198H34.973C35.3194 52.8198 35.622 52.5858 35.7091 52.2505Z" fill="#EB934E"/>
<path d="M27.6245 49.5934H32.5645" stroke="#CC7051" stroke-linecap="round" stroke-linejoin="round"/>
<ellipse cx="54.2825" cy="49.7392" rx="10.0926" ry="10.0926" fill="#BF684F"/>
</g>
<ellipse cx="55.3198" cy="48.7034" rx="9.05665" ry="9.05665" fill="#F6B755"/>
<path d="M57.854 47.9423L55.32 45.4083L52.786 47.9423" stroke="white" stroke-width="1.08648" stroke-linecap="round" stroke-linejoin="round"/>
<path d="M55.3223 45.8556L55.3223 51.9963" stroke="white" stroke-width="1.08648" stroke-linecap="round" stroke-linejoin="round"/>
</svg>
