<svg width="20" height="20" viewBox="0 0 20 20" fill="none" xmlns="http://www.w3.org/2000/svg">
<path d="M10.4621 12.0734C10.1868 12.3488 9.83703 12.5378 9.45581 12.6172L7.73394 12.9759C7.31076 13.0641 6.93602 12.6893 7.02418 12.2661L7.3829 10.5443C7.46232 10.1631 7.6513 9.81332 7.92665 9.53797L14.7575 2.70711C15.148 2.31658 15.7812 2.31658 16.1717 2.70711L17.293 3.82836C17.6835 4.21888 17.6835 4.85205 17.293 5.24257L10.4621 12.0734Z" stroke="#DEDEDE" stroke-width="1.3" stroke-miterlimit="10" stroke-linecap="round" stroke-linejoin="round"/>
<path d="M16.6066 10.4415V16.0002C16.6066 17.1047 15.7112 18.0002 14.6066 18.0002H4C2.89543 18.0002 2 17.1047 2 16.0002V5.39355C2 4.28899 2.89543 3.39355 4 3.39355H9.55866" stroke="#DEDEDE" stroke-width="1.3" stroke-miterlimit="10" stroke-linecap="round" stroke-linejoin="round"/>
</svg>
