<svg width="20" height="20" viewBox="0 0 20 20" fill="none" xmlns="http://www.w3.org/2000/svg">
<path d="M4.16667 8.66667H15.8333M4.16667 8.66667C3.72464 8.66667 3.30072 8.49107 2.98816 8.17851C2.67559 7.86595 2.5 7.44203 2.5 7C2.5 6.55797 2.67559 6.13405 2.98816 5.82149C3.30072 5.50893 3.72464 5.33333 4.16667 5.33333H15.8333C16.2754 5.33333 16.6993 5.50893 17.0118 5.82149C17.3244 6.13405 17.5 6.55797 17.5 7C17.5 7.44203 17.3244 7.86595 17.0118 8.17851C16.6993 8.49107 16.2754 8.66667 15.8333 8.66667M4.16667 8.66667V17C4.16667 17.442 4.34226 17.866 4.65482 18.1785C4.96738 18.4911 5.39131 18.6667 5.83333 18.6667H14.1667C14.6087 18.6667 15.0326 18.4911 15.3452 18.1785C15.6577 17.866 15.8333 17.442 15.8333 17V8.66667M8.33333 13L10 12L11.6667 13M8.33333 3L10 2L11.6667 3" stroke="#DEDEDE" stroke-width="1.3" stroke-linecap="round" stroke-linejoin="round"/>
</svg>
