<svg width="20" height="20" viewBox="0 0 20 20" fill="none" xmlns="http://www.w3.org/2000/svg">
<path d="M4.16667 6.66634H15.8333M4.16667 6.66634C3.72464 6.66634 3.30072 6.49075 2.98816 6.17819C2.67559 5.86563 2.5 5.4417 2.5 4.99967C2.5 4.55765 2.67559 4.13372 2.98816 3.82116C3.30072 3.5086 3.72464 3.33301 4.16667 3.33301H15.8333C16.2754 3.33301 16.6993 3.5086 17.0118 3.82116C17.3244 4.13372 17.5 4.55765 17.5 4.99967C17.5 5.4417 17.3244 5.86563 17.0118 6.17819C16.6993 6.49075 16.2754 6.66634 15.8333 6.66634M4.16667 6.66634V14.9997C4.16667 15.4417 4.34226 15.8656 4.65482 16.1782C4.96738 16.4907 5.39131 16.6663 5.83333 16.6663H14.1667C14.6087 16.6663 15.0326 16.4907 15.3452 16.1782C15.6577 15.8656 15.8333 15.4417 15.8333 14.9997V6.66634M8.33333 9.99967L10 10.9997L11.6667 9.99967" stroke="#DEDEDE" stroke-width="1.3" stroke-linecap="round" stroke-linejoin="round"/>
</svg>
