<svg width="20" height="20" viewBox="0 0 20 20" fill="none" xmlns="http://www.w3.org/2000/svg">
<path d="M2.89014 6.40625V5.75625C2.53115 5.75625 2.24014 6.04726 2.24014 6.40625H2.89014ZM17.76 9.51739C17.76 9.15841 17.469 8.86739 17.11 8.86739C16.751 8.86739 16.46 9.15841 16.46 9.51739H17.76ZM2.89014 7.05625H17.11V5.75625H2.89014V7.05625ZM16.11 17.2285H3.89014V18.5285H16.11V17.2285ZM3.54014 16.8785V6.40625H2.24014V16.8785H3.54014ZM16.46 9.51739V16.8785H17.76V9.51739H16.46ZM3.89014 17.2285C3.69684 17.2285 3.54014 17.0718 3.54014 16.8785H2.24014C2.24014 17.7898 2.97887 18.5285 3.89014 18.5285V17.2285ZM16.11 18.5285C17.0213 18.5285 17.76 17.7898 17.76 16.8785H16.46C16.46 17.0718 16.3033 17.2285 16.11 17.2285V18.5285Z" fill="#2E47BA"/>
<path d="M2.89014 6.40625H17.11L14.8688 2.61923C14.6888 2.31508 14.3616 2.12853 14.0082 2.12853H5.99192C5.6385 2.12853 5.31133 2.31508 5.13133 2.61923L2.89014 6.40625Z" stroke="#2E47BA" stroke-width="1.3" stroke-linejoin="round"/>
<path d="M9.99976 2.125L9.99976 6.4027" stroke="#2E47BA" stroke-width="1.3" stroke-linecap="round" stroke-linejoin="round"/>
<path d="M7.48436 11.9296L9.30391 13.7491L12.5218 10.5312" stroke="#2E47BA" stroke-width="1.3" stroke-linecap="round" stroke-linejoin="round"/>
</svg>
