<svg width="24" height="24" viewBox="0 0 24 24" fill="none" xmlns="http://www.w3.org/2000/svg">
<path d="M14.8162 9.22937H9.18461C8.51812 9.22937 7.97783 9.76966 7.97783 10.4361V16.0678C7.97783 16.7343 8.51812 17.2746 9.18461 17.2746H14.8162C15.4827 17.2746 16.023 16.7343 16.023 16.0678V10.4361C16.023 9.76966 15.4827 9.22937 14.8162 9.22937Z" stroke="#203551" stroke-width="1.3" stroke-linecap="round" stroke-linejoin="round"/>
<path d="M10.4528 9.22937H13.5519V12.5693L12.0023 11.7401L10.4528 12.5693V9.22937Z" fill="#203551"/>
<path d="M16.6822 4.68649C15.304 3.8909 13.7046 3.43567 11.9989 3.43567C6.81777 3.43567 2.61768 7.63576 2.61768 12.8169C2.61768 17.9979 6.81777 22.1981 11.9989 22.1981C17.18 22.1981 21.38 17.9979 21.38 12.8169C21.38 11.9505 21.2626 11.1117 21.0429 10.3153" stroke="#203551" stroke-width="1.3" stroke-linecap="round" stroke-linejoin="round"/>
<path d="M16.4055 1.80194L17.6171 4.99242L14.4267 6.20405" stroke="#203551" stroke-width="1.3" stroke-linecap="round" stroke-linejoin="round"/>
</svg>
