<svg width="20" height="20" viewBox="0 0 20 20" fill="none" xmlns="http://www.w3.org/2000/svg">
<path d="M10.4622 12.0736C10.1868 12.3489 9.83707 12.5379 9.45585 12.6173L7.73394 12.9761C7.31076 13.0642 6.93602 12.6895 7.02418 12.2663L7.38291 10.5444C7.46233 10.1632 7.65131 9.81343 7.92666 9.53808L14.7576 2.70711C15.1482 2.31658 15.7813 2.31658 16.1718 2.70711L17.2931 3.82839C17.6837 4.21891 17.6837 4.85208 17.2931 5.2426L10.4622 12.0736Z" stroke="#203551" stroke-width="1.3" stroke-miterlimit="10" stroke-linecap="round" stroke-linejoin="round"/>
<path d="M16.6068 10.4411V15.9999C16.6068 17.1044 15.7114 17.9999 14.6068 17.9999H4C2.89543 17.9999 2 17.1044 2 15.9999V5.39307C2 4.2885 2.89543 3.39307 4 3.39307H9.55876" stroke="#203551" stroke-width="1.3" stroke-miterlimit="10" stroke-linecap="round" stroke-linejoin="round"/>
</svg>
