<svg width="20" height="20" viewBox="0 0 20 20" fill="none" xmlns="http://www.w3.org/2000/svg">
<path d="M16.2222 14.4444H14.4444H5.55556H3.77778C3.30628 14.4444 2.8541 14.2571 2.5207 13.9237C2.1873 13.5903 2 13.1382 2 12.6667V9.11111C2 8.63962 2.1873 8.18743 2.5207 7.85403C2.8541 7.52063 3.30628 7.33333 3.77778 7.33333H16.2222C16.6937 7.33333 17.1459 7.52063 17.4793 7.85403C17.8127 8.18743 18 8.63962 18 9.11111V12.6667M7.33333 18H12.6667C13.1382 18 13.5903 17.8127 13.9237 17.4793C14.2571 17.1459 14.4444 16.6937 14.4444 16.2222V12.6667C14.4444 12.1952 14.2571 11.743 13.9237 11.4096C13.5903 11.0762 13.1382 10.8889 12.6667 10.8889H7.33333C6.86184 10.8889 6.40965 11.0762 6.07625 11.4096C5.74286 11.743 5.55556 12.1952 5.55556 12.6667V16.2222C5.55556 16.6937 5.74286 17.1459 6.07625 17.4793C6.40965 17.8127 6.86184 18 7.33333 18ZM14.4444 7.33333V3.77778C14.4444 3.30628 14.2571 2.8541 13.9237 2.5207C13.5903 2.1873 13.1382 2 12.6667 2H7.33333C6.86184 2 6.40965 2.1873 6.07625 2.5207C5.74286 2.8541 5.55556 3.30628 5.55556 3.77778V7.33333H14.4444Z" stroke="#203551" stroke-width="1.3" stroke-linecap="round" stroke-linejoin="round"/>
</svg>
