<svg xmlns="http://www.w3.org/2000/svg" width="16" height="18" fill="none" xmlns:v="https://vecta.io/nano"><path d="M.89 5.41v-.65c-.36 0-.65.29-.65.65h.65zm14.87 3.11c0-.36-.29-.65-.65-.65s-.65.29-.65.65h1.3zM.89 6.06h14.22v-1.3H.89v1.3zm13.22 10.17H1.89v1.3h12.22v-1.3zm-12.57-.35V5.41H.24v10.47h1.3zm12.92-7.36v7.36h1.3V8.52h-1.3zM1.89 16.23c-.19 0-.35-.16-.35-.35H.24c0 .91.74 1.65 1.65 1.65v-1.3zm12.22 1.3c.91 0 1.65-.74 1.65-1.65h-1.3c0 .19-.16.35-.35.35v1.3z" fill="#f9fcff"/><g stroke="#f9fcff" stroke-width="1.3" stroke-linejoin="round"><path d="M.89 5.41h14.22l-2.24-3.79a1 1 0 0 0-.86-.49H3.99a1 1 0 0 0-.86.49L.89 5.41z"/><path d="M8 1.13V5.4m-2.52 5.53l1.82 1.82 3.22-3.22" stroke-linecap="round"/></g></svg>