<svg width="24" height="24" viewBox="0 0 24 24" fill="none" xmlns="http://www.w3.org/2000/svg">
<path d="M3.46814 7.68689V7.03689C3.10915 7.03689 2.81814 7.3279 2.81814 7.68689H3.46814ZM21.182 11.4203C21.182 11.0613 20.8909 10.7703 20.532 10.7703C20.173 10.7703 19.882 11.0613 19.882 11.4203H21.182ZM3.46814 8.33689H20.532V7.03689H3.46814V8.33689ZM19.532 20.8036H4.46814V22.1036H19.532V20.8036ZM4.11814 20.4536V7.68689H2.81814V20.4536H4.11814ZM19.882 11.4203V20.4536H21.182V11.4203H19.882ZM4.46814 20.8036C4.27484 20.8036 4.11814 20.6469 4.11814 20.4536H2.81814C2.81814 21.3649 3.55687 22.1036 4.46814 22.1036V20.8036ZM19.532 22.1036C20.4432 22.1036 21.182 21.3649 21.182 20.4536H19.882C19.882 20.6469 19.7253 20.8036 19.532 20.8036V22.1036Z" fill="#203551"/>
<path d="M3.46814 7.68689H20.532L17.7844 3.04432C17.6044 2.74018 17.2773 2.55363 16.9239 2.55363H7.07624C6.72282 2.55363 6.39565 2.74018 6.21565 3.04432L3.46814 7.68689Z" stroke="#203551" stroke-width="1.3" stroke-linejoin="round"/>
<path d="M11.9996 2.54999L11.9996 7.68323" stroke="#203551" stroke-width="1.3" stroke-linecap="round" stroke-linejoin="round"/>
<path d="M8.98119 14.3155L11.1646 16.4989L15.0261 12.6375" stroke="#203551" stroke-width="1.3" stroke-linecap="round" stroke-linejoin="round"/>
</svg>
