<svg width="40" height="40" viewBox="0 0 40 40" fill="none" xmlns="http://www.w3.org/2000/svg">
<rect width="40" height="40" rx="20" fill="#DCEDFF"/>
<path d="M24.0523 22.3136C28.0049 22.3136 31.2091 19.1094 31.2091 15.1568C31.2091 11.2042 28.0049 8 24.0523 8C20.0997 8 16.8955 11.2042 16.8955 15.1568C16.8955 19.1094 20.0997 22.3136 24.0523 22.3136Z" fill="#458B5C"/>
<rect x="22.1416" y="8" width="2.06853" height="14.2945" fill="#458B5C"/>
<path d="M22.1431 22.3136C26.0957 22.3136 29.2999 19.1094 29.2999 15.1568C29.2999 11.2042 26.0957 8 22.1431 8C18.1905 8 14.9863 11.2042 14.9863 15.1568C14.9863 19.1094 18.1905 22.3136 22.1431 22.3136Z" fill="#59B377"/>
<path d="M22.2808 14.5465C21.7629 14.4524 21.3862 14.1698 21.3391 13.8403C21.292 13.5578 21.4333 13.3223 21.7158 13.1811C22.4691 12.8515 22.8929 13.3694 22.9871 13.5107L23.505 13.134L24.0229 12.7573C23.7875 12.4277 23.3637 12.004 22.7046 11.8627V11.1094H21.4333V11.9098C21.3391 11.9569 21.245 11.9569 21.1508 12.004C20.3504 12.3806 19.9266 13.134 20.0208 13.9344C20.1149 14.6407 20.6799 15.4411 21.9041 15.7236C22.4221 15.8178 22.7987 16.1003 22.8458 16.4299C22.8929 16.7124 22.7516 16.9478 22.4691 17.0891C21.7158 17.4187 21.292 16.9007 21.1979 16.7595L20.6799 17.1362L20.162 17.5128C20.3974 17.8424 20.8212 18.2191 21.4804 18.4074V19.2549H22.7516V18.3603C22.8458 18.3133 22.94 18.3133 23.0342 18.2662C23.8346 17.8895 24.2583 17.1362 24.1642 16.3357C24.07 15.6295 23.505 14.7819 22.2808 14.5465Z" fill="white"/>
<mask id="mask0_7428_13608" style="mask-type:alpha" maskUnits="userSpaceOnUse" x="4" y="16" width="32" height="17">
<path d="M34.3292 16.6843C33.5759 16.2134 32.5871 16.3076 31.9279 16.8726L27.1724 21.0631C26.8428 20.7806 26.4191 20.5923 25.9482 20.5923H20.3452C19.8744 20.5923 19.4035 20.451 18.9798 20.2156C18.3206 19.8389 17.0493 19.321 14.9776 19.4152C13.0001 19.4623 11.7759 20.8748 11.1167 21.9577L5.18409 26.6661C4.572 27.137 4.61908 28.1257 5.32535 28.5024L11.5405 32.0337C12.0584 32.3162 12.6705 32.2692 13.0942 31.8925L16.2018 29.397L25.7599 28.5966C26.5132 28.5495 27.2195 28.2199 27.7845 27.702C30.3271 25.2536 33.2463 21.534 34.8471 19.4623C35.4592 18.5677 35.2709 17.2964 34.3292 16.6843Z" fill="#FFE8C5"/>
</mask>
<g mask="url(#mask0_7428_13608)">
<path d="M34.3244 16.6843C33.5711 16.2134 32.5823 16.3076 31.9231 16.8726L27.1676 21.0631C26.838 20.7806 26.4143 20.5923 25.9434 20.5923H20.3404C19.8696 20.5923 19.3987 20.451 18.975 20.2156C18.3158 19.8389 17.0445 19.321 14.9728 19.4152C12.9953 19.4622 11.7711 20.8748 11.1119 21.9577L7.05418 25.44C6.44209 25.9108 6.48917 26.8996 7.19544 27.2763L11.5357 32.0337C12.0536 32.3162 12.6657 32.2692 13.0894 31.8925L16.197 29.397L25.7551 28.5966C26.5084 28.5495 27.2147 28.2199 27.7797 27.702C30.3223 25.2536 33.2415 21.534 34.8423 19.4623C35.4544 18.5677 35.2661 17.2964 34.3244 16.6843Z" fill="#FE967D"/>
<path d="M27.5407 20.5625V20.5625C28.3525 21.749 27.5631 23.368 26.1284 23.4592L21.4746 23.7549" stroke="#E27964" stroke-width="1.5" stroke-linecap="round"/>
</g>
<mask id="mask1_7428_13608" style="mask-type:alpha" maskUnits="userSpaceOnUse" x="5" y="21" width="12" height="13">
<path d="M16.1812 29.3006L11.354 22.2816C11.0255 21.8041 10.3613 21.7048 9.90763 22.0655L5.60262 25.4886C5.16746 25.8346 5.09807 26.4691 5.44817 26.901L10.8785 33.6001C11.2304 34.0341 11.8696 34.0956 12.2978 33.7367L15.9996 30.6336C16.3946 30.3025 16.4733 29.7253 16.1812 29.3006Z" fill="#2E47BA"/>
</mask>
<g mask="url(#mask1_7428_13608)">
<path d="M16.1812 29.3006L11.354 22.2816C11.0255 21.8041 10.3613 21.7048 9.90763 22.0655L4.8125 26.1169L11.5187 34.3898L15.9996 30.6336C16.3947 30.3025 16.4733 29.7253 16.1812 29.3006Z" fill="#2E47BA"/>
<path opacity="0.25" d="M9.62406 32.3657L15.4387 27.7344L17.4518 30.0732L11.5275 35.2352L9.62406 32.3657Z" fill="black"/>
<path d="M9.90928 26.6311C10.4525 26.6311 10.8928 26.1907 10.8928 25.6476C10.8928 25.1044 10.4525 24.6641 9.90928 24.6641C9.36611 24.6641 8.92578 25.1044 8.92578 25.6476C8.92578 26.1907 9.36611 26.6311 9.90928 26.6311Z" fill="white"/>
</g>
</svg>
