<svg width="40" height="40" viewBox="0 0 40 40" fill="none" xmlns="http://www.w3.org/2000/svg">
<rect width="40" height="40" rx="20" fill="#DCEDFF"/>
<path d="M23.0865 31.1427C28.4379 31.1427 32.776 26.8046 32.776 21.4532C32.776 16.1018 28.4379 11.7637 23.0865 11.7637C17.7351 11.7637 13.397 16.1018 13.397 21.4532C13.397 26.8046 17.7351 31.1427 23.0865 31.1427Z" fill="#458B5C"/>
<rect x="20.5034" y="11.7637" width="2.80057" height="19.3532" fill="#458B5C"/>
<mask id="mask0_5509_45643" style="mask-type:alpha" maskUnits="userSpaceOnUse" x="10" y="11" width="21" height="21">
<path d="M20.5084 31.1388C25.8597 31.1388 30.1979 26.8007 30.1979 21.4493C30.1979 16.0979 25.8597 11.7598 20.5084 11.7598C15.157 11.7598 10.8188 16.0979 10.8188 21.4493C10.8188 26.8007 15.157 31.1388 20.5084 31.1388Z" fill="#59B377"/>
</mask>
<g mask="url(#mask0_5509_45643)">
<path d="M20.5084 31.1388C25.8597 31.1388 30.1979 26.8007 30.1979 21.4493C30.1979 16.0979 25.8597 11.7598 20.5084 11.7598C15.157 11.7598 10.8188 16.0979 10.8188 21.4493C10.8188 26.8007 15.157 31.1388 20.5084 31.1388Z" fill="#59B377"/>
<circle cx="12.8477" cy="15.9947" r="5.17242" fill="#458B5C"/>
<path d="M20.7024 20.6203C20.0012 20.4928 19.4912 20.1103 19.4274 19.6641C19.3637 19.2816 19.5549 18.9629 19.9374 18.7717C20.9574 18.3254 21.5311 19.0266 21.6586 19.2179L22.3598 18.7079L23.061 18.1979C22.7423 17.7517 22.1686 17.178 21.2761 16.9867V15.9668H19.5549V17.0505C19.4274 17.1142 19.3 17.1142 19.1725 17.178C18.0888 17.688 17.515 18.7079 17.6425 19.7916C17.77 20.7478 18.535 21.8315 20.1924 22.214C20.8936 22.3415 21.4036 22.724 21.4673 23.1702C21.5311 23.5527 21.3399 23.8714 20.9574 24.0626C19.9374 24.5089 19.3637 23.8077 19.2362 23.6164L18.535 24.1264L17.8338 24.6364C18.1525 25.0826 18.7262 25.5926 19.6187 25.8476V26.995H21.3399V25.7838C21.4673 25.7201 21.5948 25.7201 21.7223 25.6563C22.806 25.1463 23.3798 24.1264 23.2523 23.0427C23.1248 22.0865 22.3598 20.9391 20.7024 20.6203Z" fill="white"/>
</g>
<circle cx="12.3912" cy="14.0416" r="5.17242" fill="#EB934E"/>
<path d="M10.2124 14.0272L11.4811 15.2959L13.982 12.7949" stroke="white" stroke-linecap="round" stroke-linejoin="round"/>
</svg>
