<svg width="24" height="24" viewBox="0 0 24 24" fill="none" xmlns="http://www.w3.org/2000/svg">
<rect width="24" height="24" rx="12" fill="#0D1826"/>
<path d="M14.4313 13.388C16.8028 13.388 18.7254 11.4654 18.7254 9.09388C18.7254 6.72233 16.8028 4.7998 14.4313 4.7998C12.0597 4.7998 10.1372 6.72233 10.1372 9.09388C10.1372 11.4654 12.0597 13.388 14.4313 13.388Z" fill="#458B5C"/>
<rect x="13.2852" y="4.7998" width="1.24112" height="8.57671" fill="#458B5C"/>
<path d="M13.2858 13.388C15.6573 13.388 17.5799 11.4654 17.5799 9.09388C17.5799 6.72233 15.6573 4.7998 13.2858 4.7998C10.9142 4.7998 8.9917 6.72233 8.9917 9.09388C8.9917 11.4654 10.9142 13.388 13.2858 13.388Z" fill="#59B377"/>
<path d="M13.3687 8.7283C13.0579 8.6718 12.8319 8.5023 12.8037 8.30455C12.7754 8.13504 12.8602 7.99379 13.0297 7.90904C13.4817 7.71129 13.7359 8.02204 13.7924 8.10679L14.1032 7.88079L14.4139 7.65478C14.2727 7.45703 14.0184 7.20278 13.6229 7.11802V6.66602H12.8602V7.14627C12.8037 7.17453 12.7472 7.17453 12.6907 7.20278C12.2104 7.42878 11.9562 7.88079 12.0127 8.36105C12.0692 8.78481 12.4082 9.26506 13.1427 9.43457C13.4534 9.49107 13.6794 9.66057 13.7077 9.85832C13.7359 10.0278 13.6512 10.1691 13.4817 10.2538C13.0297 10.4516 12.7754 10.1408 12.7189 10.0561L12.4082 10.2821L12.0974 10.5081C12.2387 10.7058 12.4929 10.9318 12.8884 11.0448V11.5534H13.6512V11.0166C13.7077 10.9883 13.7642 10.9883 13.8207 10.9601C14.3009 10.7341 14.5552 10.2821 14.4987 9.80182C14.4422 9.37807 14.1032 8.86956 13.3687 8.7283Z" fill="white"/>
<mask id="mask0_5827_298104" style="mask-type:alpha" maskUnits="userSpaceOnUse" x="2" y="9" width="20" height="11">
<path d="M20.5973 10.011C20.1453 9.72845 19.5521 9.78496 19.1566 10.124L16.3033 12.6383C16.1055 12.4688 15.8512 12.3558 15.5687 12.3558H12.2069C11.9244 12.3558 11.6419 12.271 11.3877 12.1297C10.9922 11.9037 10.2294 11.593 8.98637 11.6495C7.79985 11.6777 7.06533 12.5253 6.66983 13.175L3.11026 16.0001C2.743 16.2826 2.77125 16.8758 3.19501 17.1018L6.92408 19.2206C7.23484 19.3901 7.60209 19.3619 7.85635 19.1359L9.72088 17.6386L15.4557 17.1583C15.9077 17.1301 16.3315 16.9323 16.6705 16.6216C18.196 15.1526 19.9476 12.9208 20.9081 11.6777C21.2753 11.141 21.1623 10.3782 20.5973 10.011Z" fill="#FFE8C5"/>
</mask>
<g mask="url(#mask0_5827_298104)">
<path d="M20.5945 10.011C20.1425 9.72845 19.5492 9.78496 19.1537 10.124L16.3004 12.6383C16.1026 12.4688 15.8484 12.3558 15.5659 12.3558H12.2041C11.9215 12.3558 11.639 12.271 11.3848 12.1297C10.9893 11.9037 10.2265 11.593 8.98349 11.6495C7.79697 11.6777 7.06246 12.5253 6.66695 13.175L4.23231 15.2644C3.86506 15.5469 3.89331 16.1401 4.31707 16.3661L6.92121 19.2206C7.23196 19.3901 7.59922 19.3619 7.85347 19.1359L9.71801 17.6386L15.4529 17.1583C15.9049 17.1301 16.3286 16.9323 16.6676 16.6216C18.1932 15.1526 19.9447 12.9208 20.9052 11.6777C21.2725 11.141 21.1595 10.3782 20.5945 10.011Z" fill="#FE967D"/>
<path d="M16.5239 12.3379V12.3379C17.011 13.0498 16.5374 14.0212 15.6765 14.0759L12.8843 14.2534" stroke="#E27964" stroke-width="0.9" stroke-linecap="round"/>
</g>
<mask id="mask1_5827_298104" style="mask-type:alpha" maskUnits="userSpaceOnUse" x="3" y="13" width="7" height="8">
<path d="M9.70791 17.5802L6.81159 13.3688C6.61454 13.0822 6.21597 13.0227 5.9438 13.2391L3.36079 15.293C3.09969 15.5006 3.05806 15.8813 3.26812 16.1404L6.52635 20.1598C6.73745 20.4203 7.12098 20.4572 7.37789 20.2418L9.59899 18.38C9.83601 18.1813 9.88317 17.835 9.70791 17.5802Z" fill="#2E47BA"/>
</mask>
<g mask="url(#mask1_5827_298104)">
<path d="M9.70791 17.5802L6.81159 13.3688C6.61454 13.0822 6.21597 13.0227 5.9438 13.2391L2.88672 15.6699L6.91044 20.6337L9.59899 18.38C9.83601 18.1813 9.88317 17.835 9.70791 17.5802Z" fill="#2E47BA"/>
<path opacity="0.25" d="M5.77395 19.4194L9.26275 16.6406L10.4706 18.0439L6.91601 21.1411L5.77395 19.4194Z" fill="black"/>
<path d="M5.94508 15.979C6.27099 15.979 6.53518 15.7148 6.53518 15.3889C6.53518 15.063 6.27099 14.7988 5.94508 14.7988C5.61918 14.7988 5.35498 15.063 5.35498 15.3889C5.35498 15.7148 5.61918 15.979 5.94508 15.979Z" fill="white"/>
</g>
</svg>
