<svg width="20" height="20" viewBox="0 0 20 20" fill="none" xmlns="http://www.w3.org/2000/svg">
<path d="M9.36953 12.3453L12.9724 12.1816C13.5456 12.1816 14.0369 11.6903 14.0369 11.1171C14.0369 10.5439 13.5456 10.0526 12.9724 10.0526H9.69707C9.45142 10.0526 9.12388 9.97071 8.96011 9.88883C8.63258 9.72506 7.81374 9.39753 6.66737 9.47941C4.86593 9.47941 4.12898 11.5265 4.12898 11.5265L2.80156 12.5476C2.36033 12.887 2.2812 13.5214 2.62553 13.9588L4.39816 16.2105C4.74481 16.6508 5.38559 16.7204 5.81864 16.3647L7.32244 15.1294L12.8086 14.6381C13.2181 14.6381 13.6275 14.3924 13.955 14.1468C15.4289 12.7548 17.0666 10.6258 18.0492 9.39753C18.4586 8.90623 18.2949 8.16927 17.8036 7.84174C17.3941 7.5142 16.8209 7.5142 16.4115 7.92362L13.6719 10.3249" stroke="#203551" stroke-width="1.3" stroke-miterlimit="10" stroke-linecap="round" stroke-linejoin="round"/>
<path d="M5.65723 9.65243V3.75391C5.65723 3.20162 6.10494 2.75391 6.65723 2.75391H13.102C13.6543 2.75391 14.102 3.20162 14.102 3.75391V7.48247" stroke="#203551" stroke-width="1.3" stroke-miterlimit="10" stroke-linecap="round" stroke-linejoin="round"/>
<path d="M10.1484 2.75391V5.21042" stroke="#203551" stroke-width="1.3" stroke-miterlimit="10" stroke-linecap="round" stroke-linejoin="round"/>
</svg>
