<svg width="40" height="32" viewBox="0 0 40 32" fill="none" xmlns="http://www.w3.org/2000/svg">
<rect width="40" height="32" rx="16" fill="#54B827"/>
<path d="M19.3695 18.345L22.9724 18.1812C23.5456 18.1812 24.0369 17.6899 24.0369 17.1167C24.0369 16.5435 23.5456 16.0522 22.9724 16.0522H19.6971C19.4514 16.0522 19.1239 15.9703 18.9601 15.8885C18.6326 15.7247 17.8137 15.3972 16.6674 15.479C14.8659 15.479 14.129 17.5261 14.129 17.5261L12.8016 18.5472C12.3603 18.8866 12.2812 19.521 12.6255 19.9584L14.3982 22.2101C14.7448 22.6505 15.3856 22.72 15.8186 22.3643L17.3224 21.129L22.8086 20.6377C23.2181 20.6377 23.6275 20.3921 23.955 20.1464C25.4289 18.7544 27.0666 16.6254 28.0492 15.3972C28.4586 14.9059 28.2949 14.1689 27.8036 13.8414C27.3941 13.5138 26.8209 13.5138 26.4115 13.9233L23.6719 16.3246" stroke="white" stroke-width="1.3" stroke-miterlimit="10" stroke-linecap="round" stroke-linejoin="round"/>
<path d="M15.6577 15.6524V9.75391C15.6577 9.20162 16.1054 8.75391 16.6577 8.75391H23.1025C23.6548 8.75391 24.1025 9.20162 24.1025 9.75391V13.4825" stroke="white" stroke-width="1.3" stroke-miterlimit="10" stroke-linecap="round" stroke-linejoin="round"/>
<path d="M20.1489 8.75391V11.2104" stroke="white" stroke-width="1.3" stroke-miterlimit="10" stroke-linecap="round" stroke-linejoin="round"/>
</svg>
