<svg width="19" height="14" viewBox="0 0 19 14" fill="none" xmlns="http://www.w3.org/2000/svg">
<path d="M17.8334 6.16666V3.59235C17.8334 2.25268 16.7474 1.16666 15.4077 1.16666H3.59244C2.25277 1.16666 1.16675 2.25268 1.16675 3.59235V10.4076C1.16675 11.7473 2.25277 12.8333 3.59244 12.8333H15.4077C16.7474 12.8333 17.8334 11.7473 17.8334 10.4076V8.24999" stroke="#2E47BA" stroke-width="1.3" stroke-miterlimit="10" stroke-linecap="round" stroke-linejoin="round"/>
<line x1="1.81675" y1="4.28845" x2="17.183" y2="4.28845" stroke="#2E47BA" stroke-width="1.3" stroke-miterlimit="10" stroke-linecap="round" stroke-linejoin="round"/>
<path fill-rule="evenodd" clip-rule="evenodd" d="M13.4983 9.84738C13.2902 10.0488 12.9988 10.174 12.6763 10.174C12.0439 10.174 11.5312 9.69278 11.5312 9.09917C11.5312 8.50557 12.0439 8.02435 12.6763 8.02435C12.9989 8.02435 13.2904 8.14962 13.4985 8.35117C13.7066 8.14974 13.998 8.02456 14.3206 8.02456C14.9529 8.02456 15.4656 8.50577 15.4656 9.09937C15.4656 9.69298 14.9529 10.1742 14.3206 10.1742C13.9979 10.1742 13.7064 10.0489 13.4983 9.84738Z" fill="#2E47BA"/>
<path d="M4.50244 9.10004H7.42168" stroke="#2E47BA" stroke-width="1.3" stroke-miterlimit="10" stroke-linecap="round" stroke-linejoin="round"/>
</svg>
