<svg width="20" height="20" viewBox="0 0 20 20" fill="none" xmlns="http://www.w3.org/2000/svg">
<path d="M8.17769 2.91083C9.01905 1.56358 10.981 1.56358 11.8223 2.91083L12.3968 3.83073C12.7753 4.43688 13.4305 4.81513 14.1447 4.83988L15.2286 4.87744C16.816 4.93246 17.797 6.63151 17.0509 8.03378L16.5415 8.99124C16.2058 9.62214 16.2058 10.3786 16.5415 11.0095L17.0509 11.967C17.797 13.3693 16.816 15.0683 15.2286 15.1233L14.1447 15.1609C13.4305 15.1857 12.7753 15.5639 12.3968 16.17L11.8223 17.09C10.981 18.4372 9.01905 18.4372 8.1777 17.09L7.60322 16.17C7.22468 15.5639 6.56952 15.1857 5.85532 15.1609L4.77142 15.1233C3.18398 15.0683 2.20303 13.3693 2.94911 11.967L3.45853 11.0095C3.7942 10.3786 3.7942 9.62214 3.45853 8.99124L2.94911 8.03378C2.20303 6.63151 3.18399 4.93246 4.77142 4.87744L5.85532 4.83988C6.56952 4.81513 7.22468 4.43688 7.60322 3.83073L8.17769 2.91083Z" stroke="#6C7E95" stroke-width="1.3" stroke-linecap="round"/>
<path d="M7.42285 10.0011C7.42285 11.4245 8.57674 12.5784 10.0001 12.5784C11.4235 12.5784 12.5774 11.4245 12.5774 10.0011C12.5774 8.57771 11.4235 7.42383 10.0001 7.42383" stroke="#6C7E95" stroke-width="1.3" stroke-linecap="round"/>
</svg>
