<svg width="42" height="30" viewBox="0 0 42 30" fill="none" xmlns="http://www.w3.org/2000/svg">
<rect width="42" height="30" rx="4" fill="#59B277"/>
<path d="M15.4816 13.5409H13.4659C13.4291 13.2715 13.3539 13.0323 13.2404 12.8232C13.1269 12.6109 12.9811 12.4303 12.8032 12.2814C12.6252 12.1324 12.4197 12.0184 12.1865 11.9392C11.9564 11.8599 11.7064 11.8203 11.4364 11.8203C10.9486 11.8203 10.5236 11.9455 10.1616 12.1958C9.79958 12.443 9.51885 12.8042 9.31943 13.2795C9.12001 13.7516 9.0203 14.3251 9.0203 15C9.0203 15.6939 9.12001 16.2769 9.31943 16.749C9.52192 17.2212 9.80418 17.5776 10.1662 17.8184C10.5282 18.0593 10.947 18.1797 11.4226 18.1797C11.6895 18.1797 11.9365 18.1432 12.1635 18.0703C12.3936 17.9975 12.5976 17.8913 12.7756 17.7519C12.9535 17.6093 13.1008 17.4366 13.2174 17.2338C13.337 17.0311 13.4199 16.7997 13.4659 16.5399L15.4816 16.5494C15.4294 16.9962 15.299 17.4271 15.0904 17.8422C14.8848 18.2541 14.6072 18.6233 14.2574 18.9496C13.9107 19.2728 13.4966 19.5295 13.0149 19.7196C12.5363 19.9065 11.9948 20 11.3904 20C10.5497 20 9.79804 19.8035 9.13535 19.4106C8.47572 19.0177 7.95416 18.449 7.57065 17.7044C7.19022 16.9598 7 16.0583 7 15C7 13.9385 7.19329 13.0355 7.57986 12.2909C7.96643 11.5463 8.49106 10.9791 9.15376 10.5894C9.81645 10.1965 10.562 10 11.3904 10C11.9365 10 12.4427 10.0792 12.909 10.2376C13.3784 10.3961 13.7942 10.6274 14.1562 10.9316C14.5182 11.2326 14.8127 11.6017 15.0398 12.039C15.2699 12.4762 15.4171 12.9769 15.4816 13.5409Z" fill="white"/>
<path d="M25.5716 15C25.5716 16.0615 25.3767 16.9645 24.9871 17.7091C24.6005 18.4537 24.0728 19.0225 23.404 19.4154C22.7382 19.8051 21.9896 20 21.1582 20C20.3206 20 19.569 19.8035 18.9032 19.4106C18.2374 19.0177 17.7113 18.449 17.3247 17.7044C16.9381 16.9598 16.7448 16.0583 16.7448 15C16.7448 13.9385 16.9381 13.0355 17.3247 12.2909C17.7113 11.5463 18.2374 10.9791 18.9032 10.5894C19.569 10.1965 20.3206 10 21.1582 10C21.9896 10 22.7382 10.1965 23.404 10.5894C24.0728 10.9791 24.6005 11.5463 24.9871 12.2909C25.3767 13.0355 25.5716 13.9385 25.5716 15ZM23.5513 15C23.5513 14.3124 23.4515 13.7326 23.2521 13.2605C23.0558 12.7883 22.7781 12.4303 22.4192 12.1863C22.0602 11.9423 21.6399 11.8203 21.1582 11.8203C20.6765 11.8203 20.2562 11.9423 19.8972 12.1863C19.5383 12.4303 19.2591 12.7883 19.0597 13.2605C18.8633 13.7326 18.7651 14.3124 18.7651 15C18.7651 15.6876 18.8633 16.2674 19.0597 16.7395C19.2591 17.2117 19.5383 17.5697 19.8972 17.8137C20.2562 18.0577 20.6765 18.1797 21.1582 18.1797C21.6399 18.1797 22.0602 18.0577 22.4192 17.8137C22.7781 17.5697 23.0558 17.2117 23.2521 16.7395C23.4515 16.2674 23.5513 15.6876 23.5513 15Z" fill="white"/>
<path d="M30.3888 19.8669H27.0477V10.1331H30.4164C31.3644 10.1331 32.1805 10.3279 32.8647 10.7177C33.5488 11.1042 34.075 11.6603 34.4432 12.3859C34.8144 13.1115 35 13.9797 35 14.9905C35 16.0044 34.8144 16.8758 34.4432 17.6046C34.075 18.3333 33.5458 18.8926 32.8554 19.2823C32.1682 19.6721 31.346 19.8669 30.3888 19.8669ZM29.0403 18.1036H30.3059C30.895 18.1036 31.3905 17.9959 31.7924 17.7804C32.1974 17.5618 32.5011 17.2243 32.7036 16.7681C32.9091 16.3086 33.0119 15.7161 33.0119 14.9905C33.0119 14.2712 32.9091 13.6835 32.7036 13.2272C32.5011 12.7709 32.1989 12.435 31.797 12.2196C31.3951 12.0041 30.8996 11.8964 30.3105 11.8964H29.0403V18.1036Z" fill="white"/>
</svg>
