<svg width="32" height="32" viewBox="0 0 32 32" fill="none" xmlns="http://www.w3.org/2000/svg">
<circle cx="16" cy="16" r="16" fill="#39DBE3" fill-opacity="0.1"/>
<path d="M16.4727 12.2656H20.5899" stroke="#39DBE3" stroke-width="1.3" stroke-linecap="round" stroke-linejoin="round"/>
<path d="M16.4727 16H20.5899" stroke="#39DBE3" stroke-width="1.3" stroke-linecap="round" stroke-linejoin="round"/>
<path d="M16.4724 19.7334H20.5897" stroke="#39DBE3" stroke-width="1.3" stroke-linecap="round" stroke-linejoin="round"/>
<path d="M11.4111 12.1453L12.2946 13.0288L13.8204 11.5029" stroke="#39DBE3" stroke-width="1.3" stroke-linecap="round" stroke-linejoin="round"/>
<path d="M11.4104 15.8797L12.2939 16.7631L13.8197 15.2373" stroke="#39DBE3" stroke-width="1.3" stroke-linecap="round" stroke-linejoin="round"/>
<path d="M11.4104 19.6121L12.2939 20.4956L13.8197 18.9697" stroke="#39DBE3" stroke-width="1.3" stroke-linecap="round" stroke-linejoin="round"/>
<path d="M24 11.0518V10C24 8.89543 23.1046 8 22 8H10C8.89543 8 8 8.89543 8 10V22C8 23.1046 8.89543 24 10 24H22C23.1046 24 24 23.1046 24 22V14.1655" stroke="#39DBE3" stroke-width="1.3" stroke-linecap="round" stroke-linejoin="round"/>
</svg>
