<svg width="20" height="20" viewBox="0 0 20 20" fill="none" xmlns="http://www.w3.org/2000/svg">
<path d="M18.3334 9.16675V6.59244C18.3334 5.25277 17.2473 4.16675 15.9077 4.16675H4.09238C2.75271 4.16675 1.66669 5.25277 1.66669 6.59244V13.4077C1.66669 14.7474 2.75271 15.8334 4.09238 15.8334H15.9077C17.2473 15.8334 18.3334 14.7474 18.3334 13.4077V11.2501" stroke="#2E47BA" stroke-width="1.3" stroke-miterlimit="10" stroke-linecap="round" stroke-linejoin="round"/>
<line x1="2.31669" y1="7.28848" x2="17.6829" y2="7.28848" stroke="#2E47BA" stroke-width="1.3" stroke-miterlimit="10" stroke-linecap="round" stroke-linejoin="round"/>
<path fill-rule="evenodd" clip-rule="evenodd" d="M13.9983 12.8474C13.7902 13.0489 13.4988 13.1741 13.1763 13.1741C12.5439 13.1741 12.0312 12.6928 12.0312 12.0992C12.0312 11.5056 12.5439 11.0244 13.1763 11.0244C13.4989 11.0244 13.7904 11.1497 13.9985 11.3512C14.2066 11.1498 14.498 11.0246 14.8206 11.0246C15.4529 11.0246 15.9656 11.5058 15.9656 12.0994C15.9656 12.693 15.4529 13.1743 14.8206 13.1743C14.4979 13.1743 14.2064 13.049 13.9983 12.8474Z" fill="#2E47BA"/>
<path d="M5.00244 12.1001H7.92168" stroke="#2E47BA" stroke-width="1.3" stroke-miterlimit="10" stroke-linecap="round" stroke-linejoin="round"/>
</svg>
