<svg width="21" height="21" viewBox="0 0 21 21" fill="none" xmlns="http://www.w3.org/2000/svg">
<path d="M18.4352 9.35352V6.77921C18.4352 5.43953 17.3492 4.35352 16.0095 4.35352H4.19425C2.85457 4.35352 1.76855 5.43954 1.76855 6.77921V13.5945C1.76855 14.9342 2.85457 16.0202 4.19425 16.0202H16.0095C17.3492 16.0202 18.4352 14.9342 18.4352 13.5945V11.4368" stroke="#6C7E95" stroke-width="1.3" stroke-miterlimit="10" stroke-linecap="round" stroke-linejoin="round"/>
<line x1="2.41855" y1="7.475" x2="17.7848" y2="7.475" stroke="#6C7E95" stroke-width="1.3" stroke-miterlimit="10" stroke-linecap="round" stroke-linejoin="round"/>
<path fill-rule="evenodd" clip-rule="evenodd" d="M14.0999 13.034C13.8918 13.2354 13.6004 13.3606 13.2778 13.3606C12.6455 13.3606 12.1328 12.8794 12.1328 12.2858C12.1328 11.6922 12.6455 11.2109 13.2778 11.2109C13.6005 11.2109 13.892 11.3362 14.1001 11.5378C14.3082 11.3363 14.5996 11.2111 14.9221 11.2111C15.5545 11.2111 16.0671 11.6924 16.0671 12.286C16.0671 12.8796 15.5545 13.3608 14.9221 13.3608C14.5995 13.3608 14.308 13.2355 14.0999 13.034Z" fill="#6C7E95"/>
<path d="M5.10449 12.2871H8.02373" stroke="#6C7E95" stroke-width="1.3" stroke-miterlimit="10" stroke-linecap="round" stroke-linejoin="round"/>
</svg>
