<svg width="24" height="24" viewBox="0 0 24 24" fill="none" xmlns="http://www.w3.org/2000/svg">
<path d="M22 11V7.42569C22 6.08602 20.914 5 19.5743 5H4.42569C3.08602 5 2 6.08602 2 7.42569V16.5743C2 17.914 3.08602 19 4.42569 19H19.5743C20.914 19 22 17.914 22 16.5743V13.5" stroke="#203551" stroke-width="1.5" stroke-miterlimit="10" stroke-linecap="round" stroke-linejoin="round"/>
<line x1="2.75" y1="8.77539" x2="21.2495" y2="8.77539" stroke="#203551" stroke-width="1.5" stroke-miterlimit="10" stroke-linecap="round" stroke-linejoin="round"/>
<path fill-rule="evenodd" clip-rule="evenodd" d="M16.798 15.4161C16.5482 15.6579 16.1986 15.8081 15.8115 15.8081C15.0527 15.8081 14.4375 15.2306 14.4375 14.5183C14.4375 13.806 15.0527 13.2285 15.8115 13.2285C16.1987 13.2285 16.5485 13.3788 16.7982 13.6207C17.048 13.379 17.3976 13.2288 17.7847 13.2288C18.5435 13.2288 19.1587 13.8062 19.1587 14.5185C19.1587 15.2309 18.5435 15.8083 17.7847 15.8083C17.3975 15.8083 17.0477 15.658 16.798 15.4161Z" fill="#203551"/>
<path d="M6.00293 14.5195H9.50601" stroke="#203551" stroke-width="1.5" stroke-miterlimit="10" stroke-linecap="round" stroke-linejoin="round"/>
</svg>
