<svg width="21" height="20" viewBox="0 0 21 20" fill="none" xmlns="http://www.w3.org/2000/svg">
<path d="M9.77925 15H10.3781L10.3813 14.2969C11.7287 14.2 12.4996 13.4438 12.4996 12.4313C12.4996 11.2781 11.4516 10.8313 10.6234 10.6313L10.3909 10.5719L10.3972 8.56563C10.9929 8.64375 11.4006 8.96875 11.4612 9.48125H12.4104C12.3849 8.52813 11.5822 7.81563 10.4004 7.72188L10.4036 7H9.80473L9.80155 7.72813C8.65798 7.84063 7.82022 8.54063 7.82022 9.55C7.82022 10.4406 8.47004 10.9625 9.51805 11.2406L9.79199 11.3125L9.78562 13.4406C9.16447 13.3656 8.68347 13.0344 8.6325 12.4313H7.64502C7.70554 13.5094 8.49871 14.2031 9.78244 14.2969L9.77925 15ZM10.3845 13.4406L10.3909 11.475C11.0375 11.65 11.5249 11.8813 11.5249 12.4219C11.5249 12.9688 11.0598 13.3531 10.3845 13.4406ZM9.79518 10.4156C9.32055 10.2781 8.79814 10.0313 8.80133 9.49375C8.80133 9.025 9.18039 8.65938 9.79836 8.56875L9.79518 10.4156Z" fill="#203551"/>
<path d="M14.1707 3.90563C12.9999 3.24264 11.6414 2.86328 10.1925 2.86328C5.79138 2.86328 2.22363 6.36336 2.22363 10.6809C2.22363 14.9985 5.79138 18.4986 10.1925 18.4986C14.5935 18.4986 18.1612 14.9985 18.1612 10.6809C18.1612 9.95901 18.0615 9.25996 17.8748 8.59627" stroke="#203551" stroke-width="1.3" stroke-linecap="round" stroke-linejoin="round"/>
<path d="M13.9358 1.50195L14.965 4.16069L12.2549 5.17038" stroke="#203551" stroke-width="1.3" stroke-linecap="round" stroke-linejoin="round"/>
</svg>
