<svg width="40" height="40" viewBox="0 0 40 40" fill="none" xmlns="http://www.w3.org/2000/svg">
<circle cx="20" cy="20" r="20" fill="#DCEDFF"/>
<rect x="6.69629" y="14.438" width="22.6971" height="16.0771" rx="1.18214" fill="#EB934E"/>
<path fill-rule="evenodd" clip-rule="evenodd" d="M29.3932 24.8644C28.6929 25.004 27.9681 25.0772 27.2259 25.0772C21.2412 25.0772 16.3896 20.3139 16.3896 14.438H28.3096C28.908 14.438 29.3932 14.9143 29.3932 15.5019V24.8644Z" fill="#F9B66F"/>
<path d="M9.5332 27.6777H13.3161" stroke="white" stroke-width="1.77321" stroke-miterlimit="10" stroke-linecap="round" stroke-linejoin="round"/>
<ellipse cx="26.0836" cy="27.2052" rx="1.41857" ry="1.41857" fill="white"/>
<path d="M24.192 28.9193C25.1387 28.9193 25.9061 28.1519 25.9061 27.2052C25.9061 26.2585 25.1387 25.4911 24.192 25.4911C23.2453 25.4911 22.4779 26.2585 22.4779 27.2052C22.4779 28.1519 23.2453 28.9193 24.192 28.9193Z" fill="white" stroke="#EB934E" stroke-width="0.59107"/>
<path d="M27.6883 21.8881C31.174 21.8881 33.9997 19.003 33.9997 15.444C33.9997 11.8851 31.174 9 27.6883 9C24.2026 9 21.377 11.8851 21.377 15.444C21.377 19.003 24.2026 21.8881 27.6883 21.8881Z" fill="#458B5C"/>
<rect x="26.0029" y="9" width="1.82418" height="12.8709" fill="#458B5C"/>
<mask id="mask0_1_20243" style="mask-type:alpha" maskUnits="userSpaceOnUse" x="19" y="9" width="14" height="13">
<path d="M26.0116 21.8881C29.4972 21.8881 32.3229 19.003 32.3229 15.444C32.3229 11.8851 29.4972 9 26.0116 9C22.5259 9 19.7002 11.8851 19.7002 15.444C19.7002 19.003 22.5259 21.8881 26.0116 21.8881Z" fill="#59B377"/>
</mask>
<g mask="url(#mask0_1_20243)">
<path d="M26.0116 21.8881C29.4972 21.8881 32.3229 19.003 32.3229 15.444C32.3229 11.8851 29.4972 9 26.0116 9C22.5259 9 19.7002 11.8851 19.7002 15.444C19.7002 19.003 22.5259 21.8881 26.0116 21.8881Z" fill="#59B377"/>
<path d="M23.4834 15.1789L25.2039 16.8025L28.212 13.9653" stroke="white" stroke-width="1.41857" stroke-miterlimit="10" stroke-linecap="round" stroke-linejoin="round"/>
</g>
</svg>
