<svg width="32" height="32" viewBox="0 0 32 32" fill="none" xmlns="http://www.w3.org/2000/svg">
<circle cx="16" cy="16" r="16" fill="#FFE5EB"/>
<path d="M22.1691 16.8453C22.1769 17.2042 22.4742 17.4888 22.8331 17.4809C23.192 17.4731 23.4766 17.1758 23.4688 16.8169L22.1691 16.8453ZM21.4846 19.1133C21.739 18.8601 21.74 18.4485 21.4867 18.1941C21.2335 17.9397 20.8219 17.9387 20.5675 18.192L21.4846 19.1133ZM13.8621 22.966L9.36227 18.4662L8.44303 19.3854L12.9429 23.8852L13.8621 22.966ZM9.36227 16.557L15.3496 10.5696L14.4304 9.65041L8.44303 15.6377L9.36227 16.557ZM16.3336 10.1746L20.7342 10.2706L20.7626 8.97089L16.362 8.87487L16.3336 10.1746ZM22.0544 11.5908L22.1691 16.8453L23.4688 16.8169L23.3541 11.5625L22.0544 11.5908ZM20.5675 18.192L15.7691 22.9682L16.6862 23.8896L21.4846 19.1133L20.5675 18.192ZM20.7342 10.2706C21.4567 10.2863 22.0387 10.8683 22.0544 11.5908L23.3541 11.5625C23.3232 10.1442 22.1808 9.00184 20.7626 8.97089L20.7342 10.2706ZM9.36227 18.4662C8.83506 17.9389 8.83506 17.0842 9.36227 16.557L8.44303 15.6377C7.40814 16.6726 7.40814 18.3505 8.44303 19.3854L9.36227 18.4662ZM12.9429 23.8852C13.9761 24.9184 15.6506 24.9204 16.6862 23.8896L15.7691 22.9682C15.2415 23.4933 14.3885 23.4924 13.8621 22.966L12.9429 23.8852ZM15.3496 10.5696C15.61 10.3092 15.9655 10.1665 16.3336 10.1746L16.362 8.87487C15.6393 8.8591 14.9415 9.13925 14.4304 9.65041L15.3496 10.5696Z" fill="#A7399C"/>
<path d="M17.4844 16.393C17.4844 16.393 17.4372 15.6357 16.4821 15.1742C15.6006 14.7473 14.7372 15.6712 15.4927 16.8996" stroke="#A7399C" stroke-width="1.3" stroke-linecap="round" stroke-linejoin="round"/>
<path d="M13.4521 17.3204C13.4521 17.3204 13.4997 18.0781 14.4544 18.5392C15.3363 18.9657 16.1979 18.0409 15.4441 16.8143" stroke="#A7399C" stroke-width="1.3" stroke-linecap="round" stroke-linejoin="round"/>
<path d="M16.9758 15.4934L17.5547 14.9146" stroke="#A7399C" stroke-width="1.3" stroke-linecap="round" stroke-linejoin="round"/>
<path d="M13.5256 18.9436L14.1045 18.3647" stroke="#A7399C" stroke-width="1.3" stroke-linecap="round" stroke-linejoin="round"/>
<circle cx="19.7275" cy="12.5981" r="0.732591" transform="rotate(45 19.7275 12.5981)" fill="#A7399C"/>
</svg>
