<svg width="19" height="18" viewBox="0 0 19 18" fill="none" xmlns="http://www.w3.org/2000/svg">
<g clip-path="url(#clip0_35_743)">
<path d="M14.8333 12.6667H13.1667H4.83333H3.16667C2.72464 12.6667 2.30072 12.4911 1.98816 12.1785C1.67559 11.866 1.5 11.442 1.5 11V7.66667C1.5 7.22464 1.67559 6.80072 1.98816 6.48816C2.30072 6.1756 2.72464 6 3.16667 6H14.8333C15.2754 6 15.6993 6.1756 16.0118 6.48816C16.3244 6.80072 16.5 7.22464 16.5 7.66667V11M6.5 16H11.5C11.942 16 12.366 15.8244 12.6785 15.5118C12.9911 15.1993 13.1667 14.7754 13.1667 14.3333V11C13.1667 10.558 12.9911 10.1341 12.6785 9.82149C12.366 9.50893 11.942 9.33333 11.5 9.33333H6.5C6.05797 9.33333 5.63405 9.50893 5.32149 9.82149C5.00893 10.1341 4.83333 10.558 4.83333 11V14.3333C4.83333 14.7754 5.00893 15.1993 5.32149 15.5118C5.63405 15.8244 6.05797 16 6.5 16ZM13.1667 6V2.66667C13.1667 2.22464 12.9911 1.80072 12.6785 1.48816C12.366 1.17559 11.942 1 11.5 1H6.5C6.05797 1 5.63405 1.17559 5.32149 1.48816C5.00893 1.80072 4.83333 2.22464 4.83333 2.66667V6H13.1667Z" stroke="#203551" stroke-width="1.3" stroke-linecap="round" stroke-linejoin="round"/>
</g>
<defs>
<clipPath id="clip0_35_743">
<rect width="18" height="18" fill="white" transform="translate(0.5)"/>
</clipPath>
</defs>
</svg>
