<svg width="24" height="24" viewBox="0 0 24 24" fill="none" xmlns="http://www.w3.org/2000/svg">
<path d="M14.815 9.22656H9.18334C8.51686 9.22656 7.97656 9.76686 7.97656 10.4333V16.065C7.97656 16.7315 8.51686 17.2717 9.18334 17.2717H14.815C15.4815 17.2717 16.0217 16.7315 16.0217 16.065V10.4333C16.0217 9.76686 15.4815 9.22656 14.815 9.22656Z" stroke="#6C7E95" stroke-width="1.3" stroke-linecap="round" stroke-linejoin="round"/>
<path d="M10.4531 9.22656H13.5522V12.5665L12.0026 11.7373L10.4531 12.5665V9.22656Z" fill="#6C7E95"/>
<path d="M16.6817 4.68832C15.3035 3.89273 13.7041 3.4375 11.9984 3.4375C6.81728 3.4375 2.61719 7.63759 2.61719 12.8187C2.61719 17.9998 6.81728 22.1999 11.9984 22.1999C17.1795 22.1999 21.3795 17.9998 21.3795 12.8187C21.3795 11.9524 21.2621 11.1135 21.0424 10.3171" stroke="#6C7E95" stroke-width="1.3" stroke-linecap="round" stroke-linejoin="round"/>
<path d="M16.4085 1.80469L17.6202 4.99517L14.4297 6.2068" stroke="#6C7E95" stroke-width="1.3" stroke-linecap="round" stroke-linejoin="round"/>
</svg>
