<svg width="20" height="20" viewBox="0 0 20 20" fill="none" xmlns="http://www.w3.org/2000/svg">
<path d="M17.8964 5.22144L10 8.38001L2.10358 5.22144" stroke="#2E47BA" stroke-width="1.3" stroke-miterlimit="10" stroke-linecap="round" stroke-linejoin="round"/>
<path d="M18.1 14.8601L10.3714 17.9516C10.133 18.047 9.86705 18.047 9.62863 17.9516L2.52863 15.1116C2.14897 14.9597 1.90002 14.592 1.90002 14.1831V5.81718C1.90002 5.40828 2.14898 5.04057 2.52863 4.8887L9.62863 2.0487C9.86705 1.95334 10.133 1.95334 10.3714 2.0487L17.4714 4.8887C17.8511 5.04057 18.1 5.40828 18.1 5.81718V12.0252" stroke="#2E47BA" stroke-width="1.3" stroke-miterlimit="10" stroke-linecap="round" stroke-linejoin="round"/>
<path d="M10 17.9785V8.38037" stroke="#2E47BA" stroke-width="1.3" stroke-miterlimit="10" stroke-linecap="round" stroke-linejoin="round"/>
<path d="M6.18146 3.4043L14.2815 6.6443V9.8843" stroke="#2E47BA" stroke-width="1.3" stroke-miterlimit="10" stroke-linecap="round" stroke-linejoin="round"/>
<path d="M13.2815 4L5.1815 7.24V10.48" stroke="#2E47BA" stroke-width="1.3" stroke-miterlimit="10" stroke-linecap="round" stroke-linejoin="round"/>
</svg>
