<svg width="21" height="20" viewBox="0 0 21 20" fill="none" xmlns="http://www.w3.org/2000/svg">
<path d="M18.1457 5.22168L10.2492 8.38025L2.35278 5.22168" stroke="#6C7E95" stroke-width="1.3" stroke-miterlimit="10" stroke-linecap="round" stroke-linejoin="round"/>
<path d="M18.3492 14.8604L10.6206 17.9518C10.3822 18.0472 10.1162 18.0472 9.87778 17.9518L2.77778 15.1118C2.39812 14.96 2.14917 14.5923 2.14917 14.1834V5.81742C2.14917 5.40852 2.39812 5.04081 2.77778 4.88895L9.87778 2.04895C10.1162 1.95358 10.3822 1.95358 10.6206 2.04895L17.7206 4.88895C18.1002 5.04081 18.3492 5.40852 18.3492 5.81742V12.0254" stroke="#6C7E95" stroke-width="1.3" stroke-miterlimit="10" stroke-linecap="round" stroke-linejoin="round"/>
<path d="M10.2493 17.979V8.38086" stroke="#6C7E95" stroke-width="1.3" stroke-miterlimit="10" stroke-linecap="round" stroke-linejoin="round"/>
<path d="M6.43066 3.4043L14.5307 6.6443V9.8843" stroke="#6C7E95" stroke-width="1.3" stroke-miterlimit="10" stroke-linecap="round" stroke-linejoin="round"/>
<path d="M13.5308 4L5.43076 7.24V10.48" stroke="#6C7E95" stroke-width="1.3" stroke-miterlimit="10" stroke-linecap="round" stroke-linejoin="round"/>
</svg>
