<svg width="21" height="20" viewBox="0 0 21 20" fill="none" xmlns="http://www.w3.org/2000/svg">
<path d="M18.5204 5.22168L10.624 8.38025L2.72754 5.22168" stroke="#2E47BA" stroke-width="1.3" stroke-miterlimit="10" stroke-linecap="round" stroke-linejoin="round"/>
<path d="M18.7244 14.8604L10.9958 17.9518C10.7574 18.0472 10.4914 18.0472 10.253 17.9518L3.15302 15.1118C2.77336 14.96 2.52441 14.5923 2.52441 14.1834V5.81742C2.52441 5.40852 2.77337 5.04081 3.15302 4.88895L10.253 2.04895C10.4914 1.95358 10.7574 1.95358 10.9958 2.04895L18.0958 4.88895C18.4755 5.04081 18.7244 5.40852 18.7244 5.81742V12.0254" stroke="#2E47BA" stroke-width="1.3" stroke-miterlimit="10" stroke-linecap="round" stroke-linejoin="round"/>
<path d="M10.624 17.979V8.38086" stroke="#2E47BA" stroke-width="1.3" stroke-miterlimit="10" stroke-linecap="round" stroke-linejoin="round"/>
<path d="M6.80566 3.4043L14.9057 6.6443V9.8843" stroke="#2E47BA" stroke-width="1.3" stroke-miterlimit="10" stroke-linecap="round" stroke-linejoin="round"/>
<path d="M13.9053 4L5.80527 7.24V10.48" stroke="#2E47BA" stroke-width="1.3" stroke-miterlimit="10" stroke-linecap="round" stroke-linejoin="round"/>
</svg>
