<svg width="32" height="32" viewBox="0 0 32 32" fill="none" xmlns="http://www.w3.org/2000/svg">
<circle cx="16" cy="16" r="16" fill="#3A36FF" fill-opacity="0.13"/>
<path d="M9.33301 11.0007V17.6673L13.7775 19.334L15.9997 18.5007M9.33301 11.0007L13.7775 12.6673L15.9997 11.834M9.33301 11.0007L13.7775 9.33398L18.2219 11.0007V14.334" stroke="#3A36FF" stroke-width="1.3" stroke-linecap="round" stroke-linejoin="round"/>
<circle cx="19.3333" cy="18.222" r="3.33333" stroke="#3A36FF" stroke-width="1.3" stroke-linecap="round" stroke-linejoin="round"/>
<path d="M17.8926 18.8341H18.2124V18.1875H18.5384L18.885 18.8341H19.2419L18.8599 18.134C19.0677 18.0504 19.1772 17.8728 19.1772 17.6331C19.1772 17.296 18.96 17.0684 18.5547 17.0684H17.8926V18.8341ZM18.2124 17.9219V17.3356H18.5056C18.7444 17.3356 18.8513 17.4451 18.8513 17.6331C18.8513 17.821 18.7444 17.9219 18.5073 17.9219H18.2124Z" fill="#3A36FF"/>
<path d="M19.5064 19.3307H19.8185V18.6255H19.8315C19.8806 18.722 19.9832 18.8574 20.2108 18.8574C20.5229 18.8574 20.7566 18.6099 20.7566 18.1737C20.7566 17.7322 20.516 17.4926 20.21 17.4926C19.9763 17.4926 19.8789 17.6331 19.8315 17.7288H19.8134V17.5098H19.5064V19.3307ZM19.8125 18.172C19.8125 17.915 19.9229 17.7486 20.1238 17.7486C20.3315 17.7486 20.4385 17.9254 20.4385 18.172C20.4385 18.4203 20.3298 18.6013 20.1238 18.6013C19.9246 18.6013 19.8125 18.4289 19.8125 18.172Z" fill="#3A36FF"/>
</svg>
