<svg width="16" height="16" viewBox="0 0 16 16" fill="none" xmlns="http://www.w3.org/2000/svg">
<path d="M7.99992 1.33334V2.16668M12.9999 11.3333H14.6666M9.66658 11.3333H7.99992V14.6667M7.99992 5.50001V8.00001M7.99992 8.00001H8.00825M7.99992 8.00001H11.3416M11.3333 14.6667H14.6666M1.33325 8.00001H4.66658M14.6666 8.00001H14.6749M2.16659 4.66668H3.83325C4.05427 4.66668 4.26623 4.57888 4.42251 4.4226C4.57879 4.26632 4.66658 4.05436 4.66658 3.83334V2.16668C4.66658 1.94566 4.57879 1.7337 4.42251 1.57742C4.26623 1.42114 4.05427 1.33334 3.83325 1.33334H2.16659C1.94557 1.33334 1.73361 1.42114 1.57733 1.57742C1.42105 1.7337 1.33325 1.94566 1.33325 2.16668V3.83334C1.33325 4.05436 1.42105 4.26632 1.57733 4.4226C1.73361 4.57888 1.94557 4.66668 2.16659 4.66668ZM12.1666 4.66668H13.8333C14.0543 4.66668 14.2662 4.57888 14.4225 4.4226C14.5788 4.26632 14.6666 4.05436 14.6666 3.83334V2.16668C14.6666 1.94566 14.5788 1.7337 14.4225 1.57742C14.2662 1.42114 14.0543 1.33334 13.8333 1.33334H12.1666C11.9456 1.33334 11.7336 1.42114 11.5773 1.57742C11.421 1.7337 11.3333 1.94566 11.3333 2.16668V3.83334C11.3333 4.05436 11.421 4.26632 11.5773 4.4226C11.7336 4.57888 11.9456 4.66668 12.1666 4.66668ZM2.16659 14.6667H3.83325C4.05427 14.6667 4.26623 14.5789 4.42251 14.4226C4.57879 14.2663 4.66658 14.0544 4.66658 13.8333V12.1667C4.66658 11.9457 4.57879 11.7337 4.42251 11.5774C4.26623 11.4211 4.05427 11.3333 3.83325 11.3333H2.16659C1.94557 11.3333 1.73361 11.4211 1.57733 11.5774C1.42105 11.7337 1.33325 11.9457 1.33325 12.1667V13.8333C1.33325 14.0544 1.42105 14.2663 1.57733 14.4226C1.73361 14.5789 1.94557 14.6667 2.16659 14.6667Z" stroke="#2E47BA" stroke-width="1.3" stroke-linecap="round" stroke-linejoin="round"/>
</svg>
