<svg width="20" height="20" viewBox="0 0 20 20" fill="none" xmlns="http://www.w3.org/2000/svg">
<path d="M3.72266 12.0015C3.83774 11.7138 4.84472 9.87247 6.59974 9.81493C7.86565 9.78616 8.2109 10.0163 8.84386 10.3328C9.1028 10.4767 9.36174 10.5342 9.64944 10.5342H13.0732C13.7061 10.5342 14.1952 11.0233 14.1952 11.6563C14.1952 12.2604 13.7061 12.7496 13.1019 12.7783L9.27542 12.9222" stroke="white" stroke-width="1.3" stroke-miterlimit="10" stroke-linecap="round" stroke-linejoin="round"/>
<path d="M7.08984 15.8865L12.9303 15.3974C13.3907 15.3686 13.8222 15.1672 14.1675 14.8508C15.7211 13.3547 17.5049 11.0818 18.4543 9.81587C18.8571 9.29799 18.742 8.57872 18.2242 8.17593C17.7926 7.85945 17.1596 7.85945 16.7568 8.23347L15.2895 9.51377" stroke="white" stroke-width="1.3" stroke-miterlimit="10" stroke-linecap="round" stroke-linejoin="round"/>
<path d="M2.72368 12.1496L1.62188 13.1027C1.27843 13.3998 1.24084 13.919 1.53793 14.2625L4.48995 17.6752C4.78704 18.0187 5.30631 18.0563 5.64976 17.7592L6.75156 16.8061C7.09502 16.509 7.1326 15.9898 6.83551 15.6463L3.88349 12.2336C3.5864 11.8901 3.06714 11.8525 2.72368 12.1496Z" stroke="white" stroke-width="1.3" stroke-miterlimit="10" stroke-linecap="round" stroke-linejoin="round"/>
<circle cx="10.2022" cy="4.72563" r="2.41313" stroke="white" stroke-width="1.3" stroke-miterlimit="10" stroke-linecap="round" stroke-linejoin="round"/>
</svg>
