<svg width="20" height="20" viewBox="0 0 20 20" fill="none" xmlns="http://www.w3.org/2000/svg">
<path d="M16.6243 3.90744C14.9795 2.12 12.6206 1 10 1C5.02944 1 1 5.02944 1 10C1 14.9706 5.02944 19 10 19C14.9706 19 19 14.9706 19 10C19 8.82582 18.7751 7.70415 18.3661 6.67571" stroke="#6C7E95" stroke-width="1.3" stroke-miterlimit="10" stroke-linecap="round" stroke-linejoin="round"/>
<path d="M10.0644 15.1112C10.54 15.1112 10.9256 14.7256 10.9256 14.2499C10.9256 13.7743 10.54 13.3887 10.0644 13.3887C9.58872 13.3887 9.20312 13.7743 9.20312 14.2499C9.20312 14.7256 9.58872 15.1112 10.0644 15.1112Z" fill="#6C7E95"/>
<path d="M7.64819 7.80697C7.74612 6.33809 8.92122 5.55469 9.9984 5.55469C11.1735 5.55469 12.2507 6.53394 12.2507 7.80697C12.2507 9.8634 9.9984 10.1572 9.9984 10.9406V11.6261" stroke="#6C7E95" stroke-width="1.3" stroke-miterlimit="10" stroke-linecap="round" stroke-linejoin="round"/>
</svg>
