<svg width="42" height="34" viewBox="0 0 42 34" fill="none" xmlns="http://www.w3.org/2000/svg">
<rect x="1" y="1" width="40" height="32" rx="16" fill="white" stroke="#E0E9F4"/>
<path d="M27.6243 10.9074C25.9795 9.11994 23.6206 7.99994 21 7.99994C16.0294 7.99994 12 12.0294 12 16.9999C12 21.9705 16.0294 25.9999 21 25.9999C25.9706 25.9999 30 21.9705 30 16.9999C30 15.8258 29.7751 14.7041 29.3661 13.6757" stroke="#8698AE" stroke-width="1.3" stroke-miterlimit="10" stroke-linecap="round" stroke-linejoin="round"/>
<path d="M21.0644 22.1113C21.54 22.1113 21.9256 21.7257 21.9256 21.25C21.9256 20.7744 21.54 20.3888 21.0644 20.3888C20.5887 20.3888 20.2031 20.7744 20.2031 21.25C20.2031 21.7257 20.5887 22.1113 21.0644 22.1113Z" fill="#8698AE"/>
<path d="M18.6484 14.807C18.7464 13.3382 19.9215 12.5547 20.9986 12.5547C22.1737 12.5547 23.2509 13.534 23.2509 14.807C23.2509 16.8635 20.9986 17.1572 20.9986 17.9406V18.6261" stroke="#8698AE" stroke-width="1.3" stroke-miterlimit="10" stroke-linecap="round" stroke-linejoin="round"/>
</svg>
