<svg width="24" height="24" viewBox="0 0 24 24" fill="none" xmlns="http://www.w3.org/2000/svg">
<path d="M20.4001 6.00002V3.40002C20.4001 2.84774 19.9524 2.40002 19.4001 2.40002H4.6001C4.04781 2.40002 3.6001 2.84774 3.6001 3.40002V20.6C3.6001 21.1523 4.04781 21.6 4.6001 21.6H15.6001H19.4001C19.9524 21.6 20.4001 21.1523 20.4001 20.6V16.8V8.40002" stroke="#203551" stroke-width="1.3" stroke-miterlimit="10" stroke-linecap="round" stroke-linejoin="round"/>
<path d="M9.6001 8.80976H10.1362V7.78079H10.6824L11.2633 8.80976H11.8615L11.2214 7.69573C11.5696 7.56265 11.7531 7.28003 11.7531 6.89863C11.7531 6.3622 11.389 6 10.7099 6H9.6001V8.80976ZM10.1362 7.35823V6.4253H10.6275C11.0277 6.4253 11.2069 6.59954 11.2069 6.89863C11.2069 7.19771 11.0277 7.35823 10.6304 7.35823H10.1362Z" fill="#203551"/>
<path d="M12.3049 9.6H12.8279V8.47774H12.8496C12.932 8.6314 13.1039 8.8468 13.4854 8.8468C14.0085 8.8468 14.4001 8.45305 14.4001 7.75884C14.4001 7.0564 13.9969 6.675 13.484 6.675C13.0924 6.675 12.9291 6.89863 12.8496 7.05091H12.8193V6.70244H12.3049V9.6ZM12.8178 7.7561C12.8178 7.34726 13.0028 7.08247 13.3395 7.08247C13.6877 7.08247 13.8669 7.36372 13.8669 7.7561C13.8669 8.15122 13.6848 8.43933 13.3395 8.43933C13.0057 8.43933 12.8178 8.16494 12.8178 7.7561Z" fill="#203551"/>
<path d="M14.3999 16.8H17.9999" stroke="#203551" stroke-width="1.3" stroke-miterlimit="10" stroke-linecap="round" stroke-linejoin="round"/>
<path d="M14.3999 14.4H17.9999" stroke="#203551" stroke-width="1.3" stroke-miterlimit="10" stroke-linecap="round" stroke-linejoin="round"/>
<path d="M14.3999 12H17.9999" stroke="#203551" stroke-width="1.3" stroke-miterlimit="10" stroke-linecap="round" stroke-linejoin="round"/>
<path d="M7.19995 14.4H10.8" stroke="#203551" stroke-width="1.3" stroke-miterlimit="10" stroke-linecap="round" stroke-linejoin="round"/>
<path d="M7.19995 12H10.8" stroke="#203551" stroke-width="1.3" stroke-miterlimit="10" stroke-linecap="round" stroke-linejoin="round"/>
</svg>
