<svg width="100" height="100" viewBox="0 0 100 100" fill="none" xmlns="http://www.w3.org/2000/svg">
<rect width="100" height="100" rx="50" fill="#DCEDFF"/>
<mask id="mask0_6149_58203" style="mask-type:alpha" maskUnits="userSpaceOnUse" x="14" y="14" width="72" height="72">
<rect x="14.4141" y="14.4111" width="71.1771" height="71.1771" rx="35.5885" fill="#5AB277"/>
</mask>
<g mask="url(#mask0_6149_58203)">
<rect x="14.4141" y="14.4111" width="71.1771" height="71.1771" rx="35.5885" fill="#EB934E"/>
<rect x="14.4141" y="14.4111" width="71.1771" height="71.1771" rx="35.5885" fill="#EB934E"/>
<ellipse cx="50.0002" cy="50.0002" rx="16.1318" ry="34.7889" stroke="#A4604D" stroke-width="5"/>
<ellipse cx="49.999" cy="22.0804" rx="16.1318" ry="34.7889" transform="rotate(90 49.999 22.0804)" stroke="#A4604D" stroke-width="5"/>
<ellipse rx="16.1318" ry="34.7889" transform="matrix(-4.37114e-08 -1 -1 4.37114e-08 49.999 78.5009)" stroke="#A4604D" stroke-width="5"/>
<path d="M50.011 12.1274V88.8112" stroke="#A4604D" stroke-width="5" stroke-linecap="round" stroke-linejoin="round"/>
<path d="M88.3533 50.4697L11.6694 50.4697" stroke="#A4604D" stroke-width="5" stroke-linecap="round" stroke-linejoin="round"/>
<rect x="22.5" y="38.2001" width="54.2857" height="22.8571" rx="3.33333" fill="white"/>
<path d="M32.9258 55.5L30.2885 46.2832H32.4172L33.9429 52.6873H34.0194L35.7025 46.2832H37.5252L39.2038 52.7008H39.2848L40.8105 46.2832H42.9391L40.3019 55.5H38.4027L36.6476 49.474H36.5756L34.8249 55.5H32.9258ZM46.3102 55.5L43.673 46.2832H45.8017L47.3273 52.6873H47.4038L49.087 46.2832H50.9096L52.5883 52.7008H52.6693L54.1949 46.2832H56.3236L53.6864 55.5H51.7872L50.0321 49.474H49.9601L48.2094 55.5H46.3102ZM59.6947 55.5L57.0575 46.2832H59.1862L60.7118 52.6873H60.7883L62.4715 46.2832H64.2941L65.9728 52.7008H66.0538L67.5794 46.2832H69.7081L67.0709 55.5H65.1717L63.4165 49.474H63.3445L61.5939 55.5H59.6947Z" fill="#59B277"/>
</g>
</svg>
