<?xml version="1.0" encoding="UTF-8"?><svg id="Layer_2" xmlns="http://www.w3.org/2000/svg" viewBox="0 0 19.9 18.98"><defs><style>.cls-1{fill:none;stroke:#3d51a3;stroke-linecap:round;stroke-width:1.37px;}</style></defs><g id="Layer_1-2"><path class="cls-1" d="m19.11,13.47h-10.69c-.23,0-.41.19-.41.43v.51c0,2.12-1.64,3.85-3.66,3.85h0c-2.02,0-3.65-1.72-3.65-3.84V1.77c0-.6.46-1.08,1.03-1.08h11.55c.57,0,1.03.48,1.03,1.08v8.59"/><path class="cls-1" d="m4.23,8.41v-1.35m3.28,1.35v-3.86m3.28,3.86v-2.66m-6.39,12.54h11.48m3.33-4.71v.84c0,2.12-1.64,3.85-3.66,3.85h0"/></g></svg>