<svg width="80" height="30" viewBox="0 0 80 30" fill="none" xmlns="http://www.w3.org/2000/svg">
<path d="M19 23C14.5816 23 11 19.4184 11 15C11 10.5816 14.5816 7 19 7C23.4184 7 27 10.5816 27 15C27 19.4184 23.4184 23 19 23ZM22.856 19.0608C23.8755 18.0907 24.4924 16.7723 24.5839 15.368C24.6754 13.9637 24.2349 12.5764 23.3499 11.4822C22.4649 10.388 21.2003 9.66717 19.8079 9.46308C18.4155 9.25898 16.9973 9.58662 15.8355 10.3808C14.6737 11.175 13.8535 12.3775 13.5382 13.749C13.2228 15.1205 13.4354 16.5604 14.1336 17.7823C14.8319 19.0042 15.9645 19.9184 17.3063 20.3429C18.648 20.7675 20.1004 20.6714 21.3744 20.0736L20.5944 18.6696C19.8047 19.0128 18.9253 19.092 18.087 18.8955C17.2487 18.699 16.4962 18.2372 15.9413 17.5788C15.3864 16.9203 15.0588 16.1004 15.0072 15.2409C14.9556 14.3814 15.1827 13.5282 15.6547 12.8081C16.1268 12.088 16.8186 11.5394 17.6274 11.244C18.4362 10.9485 19.3187 10.9219 20.1438 11.1681C20.9689 11.4143 21.6925 11.9202 22.2071 12.6106C22.7217 13.301 22.9998 14.1389 23 15H20.6L22.856 19.0608Z" fill="#2E47BA"/>
<path d="M33.0387 20V10.5455H36.4087C37.1412 10.5455 37.7491 10.6716 38.2322 10.924C38.7185 11.1764 39.0817 11.5257 39.3217 11.9719C39.5618 12.4151 39.6818 12.9276 39.6818 13.5092C39.6818 14.0878 39.5603 14.5972 39.3171 15.0373C39.0771 15.4743 38.7139 15.8144 38.2276 16.0575C37.7444 16.3007 37.1366 16.4222 36.4041 16.4222H33.8512V15.1942H36.2749C36.7365 15.1942 37.112 15.1281 37.4013 14.9957C37.6937 14.8634 37.9076 14.671 38.043 14.4187C38.1784 14.1663 38.2461 13.8632 38.2461 13.5092C38.2461 13.1522 38.1768 12.8429 38.0384 12.5813C37.9029 12.3197 37.689 12.1197 37.3967 11.9812C37.1074 11.8396 36.7273 11.7688 36.2564 11.7688H34.4652V20H33.0387ZM37.706 15.7344L40.0419 20H38.4169L36.1271 15.7344H37.706ZM44.5341 20.1431C43.8354 20.1431 43.2338 19.9938 42.729 19.6953C42.2274 19.3937 41.8396 18.9705 41.5657 18.4258C41.2948 17.878 41.1594 17.2363 41.1594 16.5007C41.1594 15.7744 41.2948 15.1342 41.5657 14.5803C41.8396 14.0263 42.2212 13.5939 42.7106 13.283C43.203 12.9722 43.7785 12.8168 44.4371 12.8168C44.8372 12.8168 45.225 12.8829 45.6005 13.0153C45.9759 13.1476 46.3129 13.3554 46.6115 13.6385C46.91 13.9216 47.1454 14.2894 47.3178 14.7418C47.4901 15.1912 47.5763 15.7375 47.5763 16.3807V16.87H41.9396V15.8359H46.2237C46.2237 15.4728 46.1498 15.1512 46.0021 14.8711C45.8544 14.5879 45.6466 14.3648 45.3789 14.2017C45.1142 14.0386 44.8034 13.957 44.4463 13.957C44.0586 13.957 43.72 14.0524 43.4307 14.2433C43.1445 14.431 42.9229 14.6772 42.7659 14.9819C42.6121 15.2835 42.5351 15.6113 42.5351 15.9652V16.7731C42.5351 17.247 42.6182 17.6502 42.7844 17.9826C42.9537 18.315 43.1891 18.5689 43.4907 18.7443C43.7923 18.9167 44.1447 19.0028 44.5479 19.0028C44.8095 19.0028 45.048 18.9659 45.2635 18.892C45.4789 18.8151 45.6651 18.7012 45.8221 18.5504C45.979 18.3996 46.099 18.2134 46.1821 17.9918L47.4886 18.2273C47.384 18.612 47.1962 18.949 46.9254 19.2383C46.6576 19.5245 46.3206 19.7476 45.9144 19.9077C45.5112 20.0646 45.0511 20.1431 44.5341 20.1431ZM54.6814 14.6403L53.4303 14.8619C53.378 14.7018 53.2949 14.5495 53.181 14.4048C53.0702 14.2602 52.9194 14.1417 52.7286 14.0494C52.5378 13.957 52.2993 13.9109 52.0131 13.9109C51.6222 13.9109 51.296 13.9986 51.0344 14.174C50.7728 14.3464 50.642 14.5695 50.642 14.8434C50.642 15.0804 50.7297 15.2712 50.9051 15.4158C51.0805 15.5605 51.3637 15.679 51.7546 15.7713L52.881 16.0298C53.5334 16.1806 54.0197 16.413 54.3398 16.7269C54.6599 17.0408 54.8199 17.4486 54.8199 17.9503C54.8199 18.375 54.6968 18.7536 54.4506 19.0859C54.2074 19.4152 53.8674 19.6738 53.4303 19.8615C52.9964 20.0492 52.4932 20.1431 51.9207 20.1431C51.1267 20.1431 50.4789 19.9738 49.9772 19.6353C49.4756 19.2937 49.1678 18.8089 49.0539 18.1811L50.3881 17.978C50.4712 18.3258 50.642 18.5889 50.9005 18.7674C51.159 18.9428 51.496 19.0305 51.9115 19.0305C52.3639 19.0305 52.7256 18.9367 52.9964 18.7489C53.2672 18.5581 53.4026 18.3258 53.4026 18.0518C53.4026 17.8303 53.3195 17.6441 53.1533 17.4933C52.9902 17.3424 52.7394 17.2286 52.4009 17.1516L51.2006 16.8885C50.5389 16.7377 50.0495 16.4976 49.7325 16.1683C49.4186 15.839 49.2617 15.422 49.2617 14.9173C49.2617 14.4987 49.3786 14.1325 49.6125 13.8185C49.8464 13.5046 50.1696 13.2599 50.582 13.0845C50.9944 12.906 51.4668 12.8168 51.9992 12.8168C52.7656 12.8168 53.3688 12.983 53.8089 13.3153C54.249 13.6446 54.5398 14.0863 54.6814 14.6403ZM59.6537 20.1431C58.955 20.1431 58.3534 19.9938 57.8486 19.6953C57.347 19.3937 56.9592 18.9705 56.6853 18.4258C56.4144 17.878 56.279 17.2363 56.279 16.5007C56.279 15.7744 56.4144 15.1342 56.6853 14.5803C56.9592 14.0263 57.3408 13.5939 57.8302 13.283C58.3226 12.9722 58.8981 12.8168 59.5567 12.8168C59.9568 12.8168 60.3446 12.8829 60.7201 13.0153C61.0955 13.1476 61.4326 13.3554 61.7311 13.6385C62.0296 13.9216 62.2651 14.2894 62.4374 14.7418C62.6098 15.1912 62.6959 15.7375 62.6959 16.3807V16.87H57.0592V15.8359H61.3433C61.3433 15.4728 61.2694 15.1512 61.1217 14.8711C60.974 14.5879 60.7662 14.3648 60.4985 14.2017C60.2338 14.0386 59.923 13.957 59.566 13.957C59.1782 13.957 58.8396 14.0524 58.5503 14.2433C58.2641 14.431 58.0425 14.6772 57.8856 14.9819C57.7317 15.2835 57.6547 15.6113 57.6547 15.9652V16.7731C57.6547 17.247 57.7378 17.6502 57.904 17.9826C58.0733 18.315 58.3087 18.5689 58.6103 18.7443C58.912 18.9167 59.2643 19.0028 59.6675 19.0028C59.9291 19.0028 60.1676 18.9659 60.3831 18.892C60.5985 18.8151 60.7847 18.7012 60.9417 18.5504C61.0986 18.3996 61.2187 18.2134 61.3018 17.9918L62.6082 18.2273C62.5036 18.612 62.3158 18.949 62.045 19.2383C61.7772 19.5245 61.4402 19.7476 61.034 19.9077C60.6308 20.0646 60.1707 20.1431 59.6537 20.1431ZM67.7975 12.9091V14.017H63.9242V12.9091H67.7975ZM64.9629 11.2102H66.3433V17.918C66.3433 18.1857 66.3833 18.3873 66.4633 18.5227C66.5433 18.6551 66.6464 18.7459 66.7726 18.7951C66.9019 18.8413 67.0419 18.8643 67.1927 18.8643C67.3035 18.8643 67.4004 18.8567 67.4835 18.8413C67.5666 18.8259 67.6313 18.8136 67.6774 18.8043L67.9267 19.9446C67.8467 19.9754 67.7328 20.0062 67.5851 20.0369C67.4374 20.0708 67.2527 20.0893 67.0311 20.0923C66.668 20.0985 66.3294 20.0339 66.0155 19.8984C65.7016 19.763 65.4477 19.5537 65.2538 19.2706C65.0599 18.9875 64.9629 18.632 64.9629 18.2042V11.2102Z" fill="#2E47BA"/>
<rect x="1" y="1" width="78" height="28" rx="8" stroke="#2E47BA"/>
</svg>
