<svg width="32" height="32" viewBox="0 0 32 32" fill="none" xmlns="http://www.w3.org/2000/svg">
<circle cx="16" cy="16" r="16" fill="#E1F1E6"/>
<path d="M11.3375 22.9658L20.4481 22.9658C21.471 22.9658 22.3002 22.1365 22.3002 21.1137L22.3002 13.709C22.3002 13.2103 22.0991 12.7326 21.7422 12.3841L18.2398 8.96312C17.8938 8.62517 17.4293 8.43597 16.9457 8.43597H11.3375C10.3146 8.43597 9.48535 9.2652 9.48535 10.2881V21.1137C9.48535 22.1366 10.3146 22.9658 11.3375 22.9658Z" stroke="#59B277" stroke-width="1.3" stroke-linecap="round"/>
<path d="M16.6416 8.65887V12.4595C16.6416 12.9709 17.0562 13.3856 17.5677 13.3856H19.2827" stroke="#59B277" stroke-width="1.3" stroke-linecap="round"/>
<path d="M13.1699 19.3471H17.9745" stroke="#59B277" stroke-width="1.3" stroke-linecap="round"/>
<path d="M14.5029 16.6017H16.6409" stroke="#59B277" stroke-width="1.3" stroke-linecap="round"/>
</svg>
