<svg width="32" height="32" viewBox="0 0 32 32" fill="none" xmlns="http://www.w3.org/2000/svg">
<circle cx="16" cy="16" r="16" fill="#FFAB36" fill-opacity="0.3"/>
<circle cx="16" cy="16" r="7" stroke="#FC9827" stroke-width="1.3" stroke-linecap="round" stroke-linejoin="round"/>
<path d="M12.4304 18V13.6364H14.0668C14.402 13.6364 14.6832 13.6946 14.9105 13.8111C15.1392 13.9276 15.3118 14.0909 15.4283 14.3011C15.5462 14.5099 15.6051 14.7536 15.6051 15.032C15.6051 15.3118 15.5455 15.5547 15.4261 15.7607C15.3082 15.9652 15.1342 16.1236 14.9041 16.2358C14.674 16.3466 14.3913 16.402 14.0561 16.402H12.8906V15.7457H13.9496C14.1456 15.7457 14.3061 15.7187 14.4311 15.6648C14.5561 15.6094 14.6484 15.5291 14.7081 15.424C14.7692 15.3175 14.7997 15.1868 14.7997 15.032C14.7997 14.8771 14.7692 14.745 14.7081 14.6357C14.647 14.5249 14.554 14.4411 14.429 14.3842C14.304 14.326 14.1428 14.2969 13.9453 14.2969H13.2209V18H12.4304ZM14.6847 16.0227L15.7649 18H14.8828L13.8217 16.0227H14.6847ZM16.4187 19.2273V14.7273H17.1772V15.2685H17.2219C17.2617 15.1889 17.3178 15.1044 17.3902 15.0149C17.4627 14.924 17.5607 14.8466 17.6843 14.7827C17.8079 14.7173 17.9655 14.6847 18.1573 14.6847C18.4101 14.6847 18.6381 14.7493 18.8412 14.8786C19.0458 15.0064 19.2077 15.196 19.327 15.4474C19.4478 15.6974 19.5081 16.0043 19.5081 16.3679C19.5081 16.7273 19.4492 17.0327 19.3313 17.2841C19.2134 17.5355 19.0529 17.7273 18.8498 17.8594C18.6466 17.9915 18.4165 18.0575 18.1594 18.0575C17.9719 18.0575 17.8164 18.0263 17.6928 17.9638C17.5692 17.9013 17.4698 17.826 17.3945 17.7379C17.3206 17.6484 17.2631 17.5639 17.2219 17.4844H17.19V19.2273H16.4187ZM17.175 16.3636C17.175 16.5753 17.2049 16.7607 17.2645 16.9197C17.3256 17.0788 17.413 17.2031 17.5266 17.2926C17.6417 17.3807 17.7809 17.4247 17.9442 17.4247C18.1147 17.4247 18.2574 17.3793 18.3725 17.2884C18.4875 17.196 18.5742 17.0703 18.6324 16.9112C18.6921 16.7507 18.7219 16.5682 18.7219 16.3636C18.7219 16.1605 18.6928 15.9801 18.6346 15.8224C18.5763 15.6648 18.4897 15.5412 18.3746 15.4517C18.2596 15.3622 18.1161 15.3175 17.9442 15.3175C17.7794 15.3175 17.6395 15.3608 17.5245 15.4474C17.4094 15.5341 17.3221 15.6555 17.2624 15.8118C17.2042 15.968 17.175 16.152 17.175 16.3636Z" fill="#FC9827"/>
</svg>
