<svg width="40" height="40" viewBox="0 0 40 40" fill="none" xmlns="http://www.w3.org/2000/svg">
<rect width="40" height="40" rx="20" fill="#DCEDFF"/>
<rect x="9.9375" y="12.2754" width="18.2343" height="17.5471" rx="1.3" fill="#CC7051"/>
<rect x="11.8359" y="10.1816" width="18.2343" height="17.6" rx="1.3" fill="white"/>
<rect x="13.3438" y="11.7275" width="15.2335" height="14.507" fill="#DCEDFF"/>
<path d="M22.5321 13.0801C24.3104 13.5566 25.4878 15.1562 25.5056 16.9113C25.5118 17.5148 24.8956 17.8656 24.3126 17.7094L18.6755 16.199C18.0926 16.0428 17.7344 15.4308 18.0414 14.9113C18.9344 13.4002 20.7539 12.6036 22.5321 13.0801Z" fill="#F9B66F"/>
<path d="M18.4445 15.3696L20.7027 19.9279L24.9375 17.1094" stroke="#F9B66F" stroke-width="1.09281" stroke-linecap="round" stroke-linejoin="round"/>
<rect width="5.64892" height="5.64892" rx="0.896044" transform="matrix(-0.965926 -0.258819 -0.258819 0.965926 23.5547 20.1562)" fill="#F9B66F"/>
<path d="M21.6106 20.5753C21.6746 20.3363 21.5328 20.0907 21.2938 20.0266L20.1437 19.7185C19.9047 19.6544 19.6591 19.7963 19.595 20.0353L19.2153 21.4524C19.1275 21.7799 19.5015 22.0349 19.7743 21.8336L19.8446 21.7817C20.076 21.6109 20.4062 21.6994 20.5213 21.963L20.5562 22.0431C20.6918 22.3538 21.1431 22.32 21.2309 21.9925L21.6106 20.5753Z" fill="white"/>
</svg>
