<svg width="40" height="40" viewBox="0 0 40 40" fill="none" xmlns="http://www.w3.org/2000/svg">
<rect width="40" height="40" rx="20" fill="#DCEDFF"/>
<rect x="9.9375" y="12.2754" width="18.2343" height="17.5471" rx="1.3" fill="#CC7051"/>
<rect x="11.8359" y="10.1816" width="18.2343" height="17.6" rx="1.3" fill="white"/>
<rect x="13.3438" y="11.7002" width="15.2335" height="14.507" fill="#DCEDFF"/>
<rect opacity="0.7" x="19.0703" y="24.9326" width="1.95648" height="4.2924" rx="0.978242" transform="rotate(-90 19.0703 24.9326)" fill="#B6C5D6"/>
<path d="M20.647 13.2229C20.9557 12.8925 21.4795 12.8925 21.7883 13.2229L22.3203 13.7922C22.4743 13.9569 22.692 14.0471 22.9174 14.0395L23.6962 14.0131C24.148 13.9979 24.5184 14.3683 24.5032 14.8201L24.4768 15.599C24.4692 15.8243 24.5594 16.042 24.7241 16.196L25.2935 16.7281C25.6238 17.0368 25.6238 17.5606 25.2935 17.8693L24.7241 18.4014C24.5594 18.5554 24.4692 18.7731 24.4768 18.9984L24.5032 19.7772C24.5184 20.2291 24.148 20.5995 23.6962 20.5842L22.9174 20.5579C22.692 20.5503 22.4743 20.6405 22.3203 20.8052L21.7883 21.3745C21.4795 21.7048 20.9557 21.7048 20.647 21.3745L20.1149 20.8052C19.9609 20.6405 19.7432 20.5503 19.5179 20.5579L18.7391 20.5842C18.2872 20.5995 17.9168 20.2291 17.9321 19.7772L17.9584 18.9984C17.966 18.7731 17.8758 18.5554 17.7111 18.4014L17.1418 17.8693C16.8115 17.5606 16.8115 17.0368 17.1418 16.7281L17.7111 16.196C17.8758 16.042 17.966 15.8243 17.9584 15.599L17.9321 14.8201C17.9168 14.3683 18.2872 13.9979 18.7391 14.0131L19.5179 14.0395C19.7432 14.0471 19.9609 13.9569 20.1149 13.7922L20.647 13.2229Z" fill="#F9B66F"/>
<path d="M19.9531 17.2419L21.004 18.2933L22.8412 16.4561" stroke="white" stroke-width="1.30088" stroke-miterlimit="10" stroke-linecap="round" stroke-linejoin="round"/>
</svg>
