<svg width="32" height="32" viewBox="0 0 32 32" fill="none" xmlns="http://www.w3.org/2000/svg">
<circle cx="16" cy="16" r="16" fill="#FFE5EB"/>
<path d="M22.8189 16.8311L22.7043 11.5766C22.6809 10.5062 21.8188 9.64409 20.7484 9.62074L16.3478 9.52472C15.8024 9.51281 15.2757 9.72425 14.89 10.11L8.90265 16.0973C8.1216 16.8784 8.1216 18.1447 8.90265 18.9258L13.4025 23.4256C14.1823 24.2054 15.4461 24.2069 16.2277 23.4289L21.026 18.6526" stroke="#A7399C" stroke-width="1.3" stroke-linecap="round"/>
<path d="M17.4849 16.3932C17.4849 16.3932 17.4377 15.636 16.4826 15.1744C15.601 14.7475 14.7377 15.6715 15.4932 16.8998" stroke="#A7399C" stroke-width="1.3" stroke-linecap="round" stroke-linejoin="round"/>
<path d="M13.4523 17.3204C13.4523 17.3204 13.4999 18.0781 14.4546 18.5392C15.3366 18.9657 16.1982 18.0409 15.4444 16.8143" stroke="#A7399C" stroke-width="1.3" stroke-linecap="round" stroke-linejoin="round"/>
<path d="M16.9758 15.4934L17.5547 14.9146" stroke="#A7399C" stroke-width="1.3" stroke-linecap="round" stroke-linejoin="round"/>
<path d="M13.5255 18.9437L14.1044 18.3649" stroke="#A7399C" stroke-width="1.3" stroke-linecap="round" stroke-linejoin="round"/>
<circle cx="19.7273" cy="12.5981" r="0.732591" transform="rotate(45 19.7273 12.5981)" fill="#A7399C"/>
</svg>
