<svg width="41" height="40" viewBox="0 0 41 40" fill="none" xmlns="http://www.w3.org/2000/svg">
<rect x="0.492188" width="40" height="40" rx="20" fill="#DCEDFF"/>
<mask id="mask0_5509_45532" style="mask-type:alpha" maskUnits="userSpaceOnUse" x="10" y="14" width="22" height="17">
<rect x="10.0752" y="14.2207" width="21.3312" height="16.5729" rx="1.67849" fill="#FFCA64"/>
</mask>
<g mask="url(#mask0_5509_45532)">
<rect x="10.0752" y="14.2207" width="21.3312" height="16.5729" rx="1.67849" fill="#F9B66F"/>
<rect x="8.4751" y="28.4902" width="24.5129" height="5.92302" fill="#EB934E"/>
<path d="M13.1064 21.5957H19.0812V30.7948H13.1064V21.5957Z" fill="#BF684F"/>
<path d="M21.6816 21.5957H28.3767V26.6791H21.6816V21.5957Z" fill="#F8F9FB"/>
<path d="M20.4919 11.1621H15.7227L14.6953 16.676V16.8822C14.6953 18.4828 15.9929 19.7805 17.5936 19.7805C19.1943 19.7805 20.4919 18.4828 20.4919 16.8822V11.1621Z" fill="#EB934E"/>
<path d="M20.4924 11.1621H25.2617L26.2891 16.676V16.8822C26.2891 18.4828 24.9914 19.7805 23.3908 19.7805C21.7901 19.7805 20.4924 18.4828 20.4924 16.8822V11.1621Z" fill="#EB934E"/>
<path d="M15.8162 11.1621H11.6123C11.3389 11.1621 11.0927 11.328 10.9901 11.5815L8.92676 16.676V16.8822C8.92676 18.4828 10.2244 19.7805 11.8251 19.7805C13.4258 19.7805 14.7234 18.4828 14.7234 16.8822V16.6846L15.8162 11.1621Z" fill="#EB934E"/>
<path d="M25.175 11.1621H29.3789C29.6523 11.1621 29.8985 11.328 30.0012 11.5815L32.0645 16.676V16.8822C32.0645 18.4828 30.7668 19.7805 29.1661 19.7805C27.5654 19.7805 26.2678 18.4828 26.2678 16.8822V16.6846L25.175 11.1621Z" fill="#EB934E"/>
</g>
<path d="M20.4891 9.20898H15.3381L14.2285 15.1643V15.3869C14.2285 17.1157 15.63 18.5172 17.3588 18.5172C19.0877 18.5172 20.4891 17.1157 20.4891 15.3869V9.20898Z" fill="#F8F9FB"/>
<path d="M20.4928 9.20898H25.6438L26.7534 15.1643V15.3869C26.7534 17.1157 25.3519 18.5172 23.6231 18.5172C21.8943 18.5172 20.4928 17.1157 20.4928 15.3869V9.20898Z" fill="#F36565"/>
<path d="M15.438 9.20898H10.8614C10.5879 9.20898 10.3418 9.37487 10.2391 9.62835L7.99707 15.1643V15.3869C7.99707 17.1157 9.39856 18.5172 11.1274 18.5172C12.8562 18.5172 14.2577 17.1157 14.2577 15.3869V15.1736L15.438 9.20898Z" fill="#F36565"/>
<path d="M25.5434 9.20898H30.12C30.3935 9.20898 30.6397 9.37487 30.7423 9.62835L32.9844 15.1643V15.3869C32.9844 17.1157 31.5829 18.5172 29.8541 18.5172C28.1252 18.5172 26.7238 17.1157 26.7238 15.3869V15.1736L25.5434 9.20898Z" fill="#F8F9FB"/>
</svg>
