<svg width="21" height="20" viewBox="0 0 21 20" fill="none" xmlns="http://www.w3.org/2000/svg">
<path d="M12.7283 15.1341H7.98032M16.506 15.1341H17.8292C18.3815 15.1341 18.8292 14.6864 18.8292 14.1341V11.3954C18.8292 11.2021 18.7732 11.0129 18.668 10.8508L17.7376 9.41787H12.4124V3.88281C12.4124 3.33053 11.9647 2.88281 11.4124 2.88281H10.7678M4.22771 15.1341H3.06445C2.51217 15.1341 2.06445 14.6864 2.06445 14.1341V11.6555" stroke="white" stroke-width="1.3" stroke-miterlimit="10" stroke-linecap="round" stroke-linejoin="round"/>
<path d="M12.4258 5.66797H14.9642C15.3193 5.66797 15.6477 5.85621 15.8271 6.16256L17.7209 9.39583" stroke="white" stroke-width="1.3" stroke-miterlimit="10" stroke-linecap="round" stroke-linejoin="round"/>
<path d="M14.6102 17.0094C15.6451 17.0094 16.484 16.1705 16.484 15.1356C16.484 14.1007 15.6451 13.2618 14.6102 13.2618C13.5753 13.2618 12.7364 14.1007 12.7364 15.1356C12.7364 16.1705 13.5753 17.0094 14.6102 17.0094Z" stroke="white" stroke-width="1.3" stroke-miterlimit="10" stroke-linecap="round" stroke-linejoin="round"/>
<path d="M6.10235 17.0094C7.13723 17.0094 7.97618 16.1705 7.97618 15.1356C7.97618 14.1007 7.13723 13.2618 6.10235 13.2618C5.06746 13.2618 4.22852 14.1007 4.22852 15.1356C4.22852 16.1705 5.06746 17.0094 6.10235 17.0094Z" stroke="white" stroke-width="1.3" stroke-miterlimit="10" stroke-linecap="round" stroke-linejoin="round"/>
<path d="M5.27832 4.64844V6.09765" stroke="white" stroke-width="1.3" stroke-miterlimit="10" stroke-linecap="round" stroke-linejoin="round"/>
<path d="M5.27832 6.0957L6.30307 7.12045" stroke="white" stroke-width="1.3" stroke-miterlimit="10" stroke-linecap="round" stroke-linejoin="round"/>
<path d="M5.27421 10.1851C7.53447 10.1851 9.36678 8.35283 9.36678 6.09257C9.36678 3.83231 7.53447 2 5.27421 2C3.01395 2 1.18164 3.83231 1.18164 6.09257C1.18164 8.35283 3.01395 10.1851 5.27421 10.1851Z" stroke="white" stroke-width="1.3" stroke-miterlimit="10" stroke-linecap="round" stroke-linejoin="round"/>
</svg>
