<svg width="21" height="20" viewBox="0 0 21 20" fill="none" xmlns="http://www.w3.org/2000/svg">
<path d="M12.7283 15.1341H7.98032M16.506 15.1341H17.8292C18.3815 15.1341 18.8292 14.6864 18.8292 14.1341V11.3954C18.8292 11.2021 18.7732 11.0129 18.668 10.8508L17.7376 9.41787H12.4124V3.88281C12.4124 3.33053 11.9647 2.88281 11.4124 2.88281H10.7678M4.22771 15.1341H3.06445C2.51217 15.1341 2.06445 14.6864 2.06445 14.1341V11.6555" stroke="#203551" stroke-width="1.3" stroke-miterlimit="10" stroke-linecap="round" stroke-linejoin="round"/>
<path d="M12.4258 5.66797H14.9642C15.3193 5.66797 15.6477 5.85621 15.8271 6.16256L17.7209 9.39583" stroke="#203551" stroke-width="1.3" stroke-miterlimit="10" stroke-linecap="round" stroke-linejoin="round"/>
<circle cx="14.6102" cy="15.1356" r="1.87383" stroke="#203551" stroke-width="1.3" stroke-miterlimit="10" stroke-linecap="round" stroke-linejoin="round"/>
<circle cx="6.10235" cy="15.1356" r="1.87383" stroke="#203551" stroke-width="1.3" stroke-miterlimit="10" stroke-linecap="round" stroke-linejoin="round"/>
<path d="M5.27832 4.64844V6.09765" stroke="#203551" stroke-width="1.3" stroke-miterlimit="10" stroke-linecap="round" stroke-linejoin="round"/>
<path d="M5.27832 6.0957L6.30307 7.12045" stroke="#203551" stroke-width="1.3" stroke-miterlimit="10" stroke-linecap="round" stroke-linejoin="round"/>
<circle cx="5.27421" cy="6.09257" r="4.09257" stroke="#203551" stroke-width="1.3" stroke-miterlimit="10" stroke-linecap="round" stroke-linejoin="round"/>
</svg>
