<svg width="40" height="40" viewBox="0 0 40 40" fill="none" xmlns="http://www.w3.org/2000/svg">
<circle cx="20" cy="20" r="20" fill="#E0E3EA"/>
<path d="M11.1111 12.7444C11.1111 11.8104 11.8066 11.0242 12.7333 10.9083L19.7703 10.0287C19.9229 10.0096 20.0772 10.0096 20.2297 10.0287L27.2667 10.9083C28.1935 11.0242 28.8889 11.8108 28.8889 12.7447C28.8889 14.9203 28.8889 18.8723 28.8889 22.1239C28.8889 26.762 22.3453 29.2392 20.4868 29.8492C20.1669 29.9542 19.8331 29.9542 19.5132 29.8492C17.6547 29.2392 11.1111 26.762 11.1111 22.1239C11.1111 18.8374 11.1111 14.9088 11.1111 12.7444Z" fill="#62738A" stroke="white" stroke-width="1.44444" stroke-linecap="round" stroke-linejoin="round"/>
<path d="M15.5554 19.071L18.7971 22.3138L24.4443 16.6666" stroke="white" stroke-width="1.3" stroke-linecap="round" stroke-linejoin="round"/>
</svg>
