<svg width="32" height="32" viewBox="0 0 32 32" fill="none" xmlns="http://www.w3.org/2000/svg">
<circle cx="16" cy="16" r="16" fill="#FFE5C2"/>
<path d="M14.5538 8.51402C15.3416 7.6893 16.6584 7.68931 17.4462 8.51402L17.9907 9.08402C18.3791 9.49058 18.9206 9.7149 19.4827 9.70203L20.2707 9.68398C21.411 9.65787 22.3421 10.589 22.316 11.7293L22.298 12.5173C22.2851 13.0794 22.5094 13.6209 22.916 14.0093L23.486 14.5538C24.3107 15.3416 24.3107 16.6584 23.486 17.4462L22.916 17.9907C22.5094 18.3791 22.2851 18.9206 22.298 19.4827L22.316 20.2707C22.3421 21.411 21.411 22.3421 20.2707 22.316L19.4827 22.298C18.9206 22.2851 18.3791 22.5094 17.9907 22.916L17.4462 23.486C16.6584 24.3107 15.3416 24.3107 14.5538 23.486L14.0093 22.916C13.6209 22.5094 13.0794 22.2851 12.5173 22.298L11.7293 22.316C10.589 22.3421 9.65787 21.411 9.68398 20.2707L9.70203 19.4827C9.7149 18.9206 9.49058 18.3791 9.08401 17.9907L8.51402 17.4462C7.6893 16.6584 7.68931 15.3416 8.51402 14.5538L9.08402 14.0093C9.49058 13.6209 9.7149 13.0794 9.70203 12.5173L9.68398 11.7293C9.65787 10.589 10.589 9.65787 11.7293 9.68398L12.5173 9.70203C13.0794 9.7149 13.6209 9.49058 14.0093 9.08401L14.5538 8.51402Z" stroke="#EB934E" stroke-width="1.3" stroke-linecap="round"/>
<path d="M13 15.8492L15.0982 18L19 14" stroke="#EB934E" stroke-width="1.3" stroke-linecap="round"/>
</svg>
