<svg width="26" height="21" viewBox="0 0 26 21" fill="none" xmlns="http://www.w3.org/2000/svg">
<path d="M19.3732 17.4298L20.3102 17.4298C20.9795 17.4298 21.3811 18.0689 21.3811 18.708C21.3811 19.5068 20.8456 19.9861 20.3102 19.9861L17.2 19.9861L16.3451 19.9861C14.8602 19.9861 13.3939 19.6554 12.0527 19.018L10.6267 18.3403C9.84137 17.9671 8.98279 17.7735 8.1133 17.7735V17.7735L8.1133 8.29937L8.56921 8.29937C9.12367 8.29937 9.66673 8.1474 10.1313 7.84477C11.159 7.17536 13.0038 5.9126 13.6633 5.06759L15.3566 2.18501C15.8039 1.42351 16.7848 1.17048 17.5447 1.62061V1.62061C18.2005 2.00913 18.4897 2.80741 18.235 3.52585L16.6472 8.00356L23.447 8.00356C24.1163 8.00356 24.7402 8.73159 24.7402 9.53043C24.7402 10.3293 24.1163 11.033 23.447 11.033L20.0425 11.033" stroke="#2E47BA" stroke-width="1.3" stroke-linecap="round" stroke-linejoin="round"/>
<path d="M19.6407 14.2344L21.9163 14.2344C22.5856 14.2344 23.2549 14.8734 23.2549 15.832C23.2549 16.6309 22.7194 17.4297 21.9163 17.4297L19.9084 17.4297" stroke="#2E47BA" stroke-width="1.3" stroke-linecap="round" stroke-linejoin="round"/>
<path d="M19.6408 11.0391L22.5857 11.0391C23.3889 11.0391 23.9243 11.8379 23.9243 12.6367C23.9243 13.5953 23.255 14.2344 22.5857 14.2344L20.444 14.2344" stroke="#2E47BA" stroke-width="1.3" stroke-linecap="round" stroke-linejoin="round"/>
<path d="M1.25977 9.61163V7.92578C1.25977 7.3735 1.70748 6.92578 2.25977 6.92578H7.11319C7.66547 6.92578 8.11319 7.3735 8.11319 7.92578V18.3592C8.11319 18.9115 7.66547 19.3592 7.11319 19.3592H2.25977C1.70748 19.3592 1.25977 18.9115 1.25977 18.3592L1.25977 14.1123" stroke="#2E47BA" stroke-width="1.3" stroke-linecap="round" stroke-linejoin="round"/>
</svg>
