<svg width="20" height="20" viewBox="0 0 20 20" fill="none" xmlns="http://www.w3.org/2000/svg">
<path d="M8.78236 1.30282C9.44112 0.59798 10.5589 0.59798 11.2176 1.30282L12.353 2.51764C12.6816 2.86919 13.1461 3.06158 13.627 3.04533L15.2888 2.98916C16.253 2.95658 17.0434 3.74696 17.0108 4.71117L16.9547 6.37302C16.9384 6.85393 17.1308 7.3184 17.4824 7.64696L18.6972 8.78236C19.402 9.44112 19.402 10.5589 18.6972 11.2176L17.4824 12.353C17.1308 12.6816 16.9384 13.1461 16.9547 13.627L17.0108 15.2888C17.0434 16.253 16.253 17.0434 15.2888 17.0108L13.627 16.9547C13.1461 16.9384 12.6816 17.1308 12.353 17.4824L11.2176 18.6972C10.5589 19.402 9.44112 19.402 8.78236 18.6972L7.64696 17.4824C7.3184 17.1308 6.85393 16.9384 6.37302 16.9547L4.71117 17.0108C3.74696 17.0434 2.95658 16.253 2.98916 15.2888L3.04533 13.627C3.06158 13.1461 2.86919 12.6816 2.51764 12.353L1.30282 11.2176C0.59798 10.5589 0.59798 9.44112 1.30282 8.78236L2.51764 7.64696C2.86919 7.3184 3.06158 6.85393 3.04533 6.37302L2.98916 4.71117C2.95658 3.74696 3.74696 2.95658 4.71117 2.98916L6.37302 3.04533C6.85393 3.06158 7.3184 2.86919 7.64696 2.51764L8.78236 1.30282Z" stroke="#6C7E95" stroke-width="1.3" stroke-linecap="round" stroke-linejoin="round"/>
<path d="M11.4988 7.60789C11.4988 7.60789 10.7224 6.92252 9.35498 7.39894C8.09207 7.83774 8.15057 9.56286 10.0654 10.0192" stroke="#6C7E95" stroke-width="1.3" stroke-linecap="round" stroke-linejoin="round"/>
<path d="M8.50208 12.3957C8.50208 12.3957 9.27938 13.0811 10.6459 12.6047C11.9089 12.165 11.8478 10.4407 9.93633 9.98438" stroke="#6C7E95" stroke-width="1.3" stroke-linecap="round" stroke-linejoin="round"/>
<path d="M10.1394 7.23076V6.11328" stroke="#6C7E95" stroke-width="1.3" stroke-linecap="round" stroke-linejoin="round"/>
<path d="M10.1396 13.8948V12.7773" stroke="#6C7E95" stroke-width="1.3" stroke-linecap="round" stroke-linejoin="round"/>
</svg>
