<svg width="40" height="40" viewBox="0 0 40 40" fill="none" xmlns="http://www.w3.org/2000/svg">
<circle cx="20" cy="20" r="20" fill="#DCEDFF"/>
<path d="M11.1114 12.7444C11.1114 11.8104 11.8068 11.0242 12.7335 10.9083L19.7706 10.0287C19.9231 10.0096 20.0774 10.0096 20.2299 10.0287L27.267 10.9083C28.1937 11.0242 28.8891 11.8108 28.8891 12.7447C28.8891 14.9203 28.8891 18.8723 28.8891 22.1239C28.8891 26.762 22.3455 29.2392 20.4871 29.8492C20.1672 29.9542 19.8334 29.9542 19.5134 29.8492C17.655 29.2392 11.1113 26.762 11.1113 22.1239C11.1113 18.8374 11.1114 14.9088 11.1114 12.7444Z" fill="#2E47BA" stroke="white" stroke-width="1.44444" stroke-linecap="round" stroke-linejoin="round"/>
<path d="M15.5566 19.0704L18.7984 22.3132L24.4455 16.666" stroke="white" stroke-width="1.3" stroke-linecap="round" stroke-linejoin="round"/>
</svg>
