<svg xmlns="http://www.w3.org/2000/svg" width="20" height="20" fill="none" stroke="#fff" stroke-width="1.3" xmlns:v="https://vecta.io/nano"><path d="M8.18 2.91c.84-1.35 2.8-1.35 3.64 0l.57.92c.38.61 1.03.98 1.75 1.01l1.08.04c1.59.06 2.57 1.75 1.82 3.16l-.51.96c-.34.63-.34 1.39 0 2.02l.51.96c.75 1.4-.23 3.1-1.82 3.16l-1.08.04c-.71.02-1.37.4-1.75 1.01l-.57.92c-.84 1.35-2.8 1.35-3.64 0l-.57-.92c-.38-.61-1.03-.98-1.75-1.01l-1.08-.04c-1.59-.05-2.57-1.75-1.82-3.16l.51-.96c.34-.63.34-1.39 0-2.02l-.51-.96c-.75-1.4.23-3.1 1.82-3.16l1.08-.04c.71-.02 1.37-.4 1.75-1.01l.57-.92z"/><path d="M7.42 10c0 1.42 1.15 2.58 2.58 2.58s2.58-1.15 2.58-2.58S11.42 7.42 10 7.42" stroke-linecap="round"/></svg>