<svg width="40" height="40" viewBox="0 0 40 40" fill="none" xmlns="http://www.w3.org/2000/svg">
<rect width="40" height="40" rx="20" fill="#DCEDFF"/>
<circle cx="21" cy="19.7463" r="6.97187" fill="#F27676"/>
<circle cx="19" cy="19.7463" r="6.97187" fill="#FFCB71"/>
<path d="M15.7192 21.4227V17.4638H17.2812C17.5801 17.4638 17.8353 17.5173 18.0467 17.6242C18.2593 17.7299 18.421 17.88 18.5319 18.0746C18.644 18.2679 18.7 18.4954 18.7 18.757C18.7 19.0199 18.6433 19.2461 18.5299 19.4355C18.4165 19.6237 18.2522 19.768 18.037 19.8685C17.8231 19.969 17.564 20.0193 17.2599 20.0193H16.2141V19.3466H17.1246C17.2844 19.3466 17.4171 19.3247 17.5228 19.2809C17.6285 19.2371 17.7071 19.1713 17.7586 19.0837C17.8115 18.9961 17.8379 18.8872 17.8379 18.757C17.8379 18.6256 17.8115 18.5147 17.7586 18.4245C17.7071 18.3343 17.6278 18.266 17.5209 18.2196C17.4152 18.1719 17.2818 18.1481 17.1207 18.1481H16.5563V21.4227H15.7192ZM17.8572 19.6211L18.8412 21.4227H17.9171L16.9545 19.6211H17.8572Z" fill="#5472EF"/>
<path d="M19.385 22.5362V18.4535H20.1969V18.9522H20.2336C20.2697 18.8723 20.3219 18.7912 20.3902 18.7087C20.4598 18.6249 20.55 18.5553 20.6608 18.4999C20.7729 18.4432 20.9121 18.4148 21.0783 18.4148C21.2948 18.4148 21.4946 18.4716 21.6776 18.585C21.8606 18.6971 22.0069 18.8665 22.1164 19.0934C22.2259 19.3189 22.2807 19.6018 22.2807 19.942C22.2807 20.2732 22.2272 20.5528 22.1203 20.7809C22.0146 21.0077 21.8703 21.1798 21.6873 21.2971C21.5056 21.413 21.3019 21.471 21.0764 21.471C20.9166 21.471 20.7806 21.4446 20.6685 21.3918C20.5577 21.3389 20.4668 21.2726 20.396 21.1927C20.3251 21.1115 20.271 21.0297 20.2336 20.9472H20.2085V22.5362H19.385ZM20.1911 19.9381C20.1911 20.1147 20.2155 20.2687 20.2645 20.4001C20.3135 20.5316 20.3844 20.634 20.4772 20.7075C20.5699 20.7796 20.6827 20.8157 20.8154 20.8157C20.9495 20.8157 21.0629 20.779 21.1557 20.7055C21.2485 20.6308 21.3187 20.5277 21.3664 20.3963C21.4153 20.2635 21.4398 20.1108 21.4398 19.9381C21.4398 19.7667 21.416 19.6159 21.3683 19.4858C21.3206 19.3556 21.2504 19.2538 21.1576 19.1803C21.0648 19.1069 20.9508 19.0702 20.8154 19.0702C20.6814 19.0702 20.568 19.1056 20.4752 19.1765C20.3837 19.2474 20.3135 19.3479 20.2645 19.478C20.2155 19.6082 20.1911 19.7616 20.1911 19.9381Z" fill="#5472EF"/>
<path d="M31.5206 14.4478C29.5226 10.1622 25.1761 7.19199 20.1359 7.19199C15.0956 7.19199 10.7491 10.1622 8.75116 14.4478" stroke="#5472EF" stroke-width="1.3" stroke-linejoin="round"/>
<path d="M11.8995 13.1165L8.5541 14.8563L7.666 11.2501" stroke="#5472EF" stroke-width="1.3" stroke-linecap="round" stroke-linejoin="round"/>
<path d="M8.47943 25.5522C10.4774 29.8378 14.8239 32.808 19.8641 32.808C24.9044 32.808 29.2509 29.8378 31.2488 25.5522" stroke="#5472EF" stroke-width="1.3" stroke-linejoin="round"/>
<path d="M28.1005 26.8835L31.4459 25.1437L32.334 28.7499" stroke="#5472EF" stroke-width="1.3" stroke-linecap="round" stroke-linejoin="round"/>
</svg>
