<svg width="60" height="60" viewBox="0 0 60 60" fill="none" xmlns="http://www.w3.org/2000/svg">
<rect width="60" height="60" rx="30" fill="#DCEDFF"/>
<rect x="13.7148" y="16.3838" width="26.5536" height="31.6157" rx="2.73451" fill="#814743"/>
<rect x="13.7148" y="15.2256" width="26.5536" height="31.6157" rx="2.73451" fill="#EB934E"/>
<mask id="mask0_1034_86678" style="mask-type:alpha" maskUnits="userSpaceOnUse" x="13" y="15" width="28" height="32">
<rect x="13.7148" y="15.2256" width="26.5536" height="31.6157" rx="2.73451" fill="#EB934E"/>
</mask>
<g mask="url(#mask0_1034_86678)">
<rect x="16.6035" y="15.2256" width="20.7838" height="27.55" fill="white"/>
<circle cx="22.214" cy="23.9815" r="1.91416" fill="#EB934E"/>
<path d="M19.3428 28.9591C19.3428 27.3734 20.6283 26.0879 22.214 26.0879C23.7997 26.0879 25.0852 27.3734 25.0852 28.9591V29.764C25.0852 30.17 24.7561 30.4992 24.35 30.4992H20.078C19.6719 30.4992 19.3428 30.17 19.3428 29.764V28.9591Z" fill="#EB934E"/>
<circle cx="31.7852" cy="23.9815" r="1.91416" fill="#EB934E"/>
<path d="M28.9141 28.9591C28.9141 27.3734 30.1996 26.0879 31.7853 26.0879C33.371 26.0879 34.6565 27.3734 34.6565 28.9591V29.764C34.6565 30.17 34.3274 30.4992 33.9213 30.4992H29.6493C29.2432 30.4992 28.9141 30.17 28.9141 29.764V28.9591Z" fill="#EB934E"/>
<path d="M26.9992 27.2353C25.1114 27.2353 23.581 28.7657 23.581 30.6535V31.4583C23.581 32.1664 24.1551 32.7404 24.8631 32.7404H29.1352C29.8433 32.7404 30.4173 32.1664 30.4173 31.4583V30.6535C30.4173 28.7657 28.8869 27.2353 26.9992 27.2353Z" fill="#814743" stroke="white" stroke-width="1.0938"/>
<circle cx="26.9991" cy="25.5987" r="1.91416" fill="#814743"/>
<path d="M19.8418 36.4316H23.1232" stroke="#662E2B" stroke-width="1.36725" stroke-linecap="round" stroke-linejoin="round"/>
<path d="M30.7793 36.4316H34.0607" stroke="#662E2B" stroke-width="1.36725" stroke-linecap="round" stroke-linejoin="round"/>
<path d="M19.8418 39.166H25.3108" stroke="#662E2B" stroke-width="1.36725" stroke-linecap="round" stroke-linejoin="round"/>
<path d="M21.8672 15.2256H32.1224V16.9829C32.1224 17.738 31.5102 18.3502 30.7551 18.3502H23.2344C22.4793 18.3502 21.8672 17.738 21.8672 16.9829V15.2256Z" fill="#814743"/>
<circle cx="26.9948" cy="14.3249" r="1.3249" stroke="#814743" stroke-width="1.0938"/>
<circle opacity="0.3" cx="41.5" cy="21.5" r="8.5" fill="#814743"/>
</g>
<circle cx="41.2732" cy="19.3582" r="7.22729" fill="#59B277"/>
<path d="M41.2737 15.0889L44.9714 17.2238V21.4935L41.2737 23.6284L37.5759 21.4935V17.2238L41.2737 15.0889Z" fill="white"/>
<circle cx="41.273" cy="19.358" r="0.947851" fill="#59B277"/>
</svg>
