<svg width="60" height="60" viewBox="0 0 60 60" fill="none" xmlns="http://www.w3.org/2000/svg">
<rect width="60" height="60" rx="30" fill="#DCEDFF"/>
<circle cx="32.4511" cy="18.2693" r="3.56717" transform="rotate(15 32.4511 18.2693)" fill="#814743"/>
<path d="M13.5976 39.5124L38.1554 46.0927C39.3714 46.4185 40.4838 45.3053 40.1572 44.0895L39.7915 42.7285C39.2093 40.5617 39.1194 38.292 39.5285 36.0859L40.3678 31.5601C41.4262 25.8529 37.9176 20.2915 32.3109 18.7891C26.7041 17.2868 20.8849 20.3489 18.9479 25.8206L17.4118 30.1598C16.6631 32.2748 15.4504 34.1955 13.8628 35.7809L12.8656 36.7768C11.9748 37.6663 12.3816 39.1866 13.5976 39.5124Z" fill="#F9B66F"/>
<mask id="mask0_1036_83768" style="mask-type:alpha" maskUnits="userSpaceOnUse" x="12" y="18" width="29" height="29">
<path d="M13.5976 39.5124L38.1554 46.0927C39.3714 46.4185 40.4838 45.3053 40.1572 44.0895L39.7915 42.7285C39.2093 40.5617 39.1194 38.292 39.5285 36.0859L40.3678 31.5601C41.4262 25.8529 37.9176 20.2915 32.3109 18.7891C26.7041 17.2868 20.8849 20.3489 18.9479 25.8206L17.4118 30.1598C16.6631 32.2748 15.4504 34.1955 13.8628 35.7809L12.8656 36.7768C11.9748 37.6663 12.3816 39.1866 13.5976 39.5124Z" fill="#F9B66F"/>
</mask>
<g mask="url(#mask0_1036_83768)">
<path d="M8.19763 27.4823L12.6579 27.4882C24.4094 27.5038 35.952 30.5966 46.1369 36.4589L50.0025 38.6839L48.696 43.56L44.8303 41.335C34.6454 35.4727 23.1029 32.3798 11.3514 32.3643L6.89109 32.3584L8.19763 27.4823Z" fill="#EB934E"/>
<circle cx="41.2736" cy="21.8683" r="7.9689" fill="#EB934E"/>
</g>
<ellipse cx="26.0489" cy="42.1629" rx="14.9842" ry="4.47831" transform="rotate(15 26.0489 42.1629)" fill="#A4604D"/>
<mask id="mask1_1036_83768" style="mask-type:alpha" maskUnits="userSpaceOnUse" x="11" y="36" width="30" height="12">
<ellipse cx="26.0489" cy="42.1629" rx="14.9842" ry="4.47831" transform="rotate(15 26.0489 42.1629)" fill="#A4604D"/>
</mask>
<g mask="url(#mask1_1036_83768)">
<ellipse cx="27.0925" cy="38.2558" rx="3.61116" ry="3.65266" transform="rotate(15 27.0925 38.2558)" fill="white"/>
</g>
<circle cx="41.2722" cy="19.3582" r="7.22729" fill="#59B277"/>
<path d="M41.2727 15.0889L44.9704 17.2238V21.4935L41.2727 23.6284L37.575 21.4935V17.2238L41.2727 15.0889Z" fill="white"/>
<circle cx="41.2721" cy="19.358" r="0.947851" fill="#59B277"/>
</svg>
