<svg width="32" height="32" viewBox="0 0 32 32" fill="none" xmlns="http://www.w3.org/2000/svg">
<circle cx="16" cy="16" r="16" fill="#FFAB36" fill-opacity="0.3"/>
<path d="M9.60107 12.7656V12.1156C9.24209 12.1156 8.95107 12.4066 8.95107 12.7656H9.60107ZM23.0489 15.5657C23.0489 15.2067 22.7579 14.9157 22.3989 14.9157C22.0399 14.9157 21.7489 15.2067 21.7489 15.5657H23.0489ZM9.60107 13.4156H22.3989V12.1156H9.60107V13.4156ZM21.3989 22.4407H10.6011V23.7407H21.3989V22.4407ZM10.2511 22.0907V12.7656H8.95107V22.0907H10.2511ZM21.7489 15.5657V22.0907H23.0489V15.5657H21.7489ZM10.6011 22.4407C10.4078 22.4407 10.2511 22.284 10.2511 22.0907H8.95107C8.95107 23.0019 9.68981 23.7407 10.6011 23.7407V22.4407ZM21.3989 23.7407C22.3102 23.7407 23.0489 23.0019 23.0489 22.0907H21.7489C21.7489 22.284 21.5922 22.4407 21.3989 22.4407V23.7407Z" fill="#FC9827"/>
<path d="M9.60107 12.7656H22.3989L20.4109 9.40637C20.2309 9.10223 19.9037 8.91568 19.5503 8.91568H12.4497C12.0963 8.91568 11.7691 9.10223 11.5891 9.40637L9.60107 12.7656Z" stroke="#FC9827" stroke-width="1.3" stroke-linejoin="round"/>
<path d="M15.9998 8.91211L15.9998 12.762" stroke="#FC9827" stroke-width="1.3" stroke-linecap="round" stroke-linejoin="round"/>
<path d="M13.7358 17.737L15.3734 19.3746L18.2695 16.4785" stroke="#FC9827" stroke-width="1.3" stroke-linecap="round" stroke-linejoin="round"/>
</svg>
