<svg width="40" height="32" viewBox="0 0 40 32" fill="none" xmlns="http://www.w3.org/2000/svg">
<rect width="40" height="32" rx="16" fill="#2E47BA"/>
<path d="M22.7945 21.4013H17.9883M26.6183 21.4013H28.0769C28.5702 21.4013 28.9701 21.0015 28.9701 20.5082V17.5815C28.9701 17.4089 28.92 17.24 28.826 17.0952L27.8651 15.6151H22.4746V9.89316C22.4746 9.39988 22.0748 9 21.5815 9H12M14.1897 21.4013H12.8932C12.3999 21.4013 12 21.0015 12 20.5082V12.5902" stroke="white" stroke-width="1.16111" stroke-miterlimit="10" stroke-linecap="round" stroke-linejoin="round"/>
<path d="M22.4863 11.8184H25.1241C25.4412 11.8184 25.7346 11.9865 25.8948 12.2601L27.8463 15.5919" stroke="white" stroke-width="1.16111" stroke-miterlimit="10" stroke-linecap="round" stroke-linejoin="round"/>
<circle cx="24.6912" cy="21.4016" r="1.89678" stroke="white" stroke-width="1.16111" stroke-miterlimit="10" stroke-linecap="round" stroke-linejoin="round"/>
<circle cx="16.0906" cy="21.4016" r="1.89678" stroke="white" stroke-width="1.16111" stroke-miterlimit="10" stroke-linecap="round" stroke-linejoin="round"/>
</svg>
