<svg width="24" height="24" viewBox="0 0 24 24" fill="none" xmlns="http://www.w3.org/2000/svg">
<rect width="24" height="24" rx="12" fill="#0D1826"/>
<path d="M12.9531 8.13281V15.1125H18.7963C19.459 15.1125 19.9963 14.5753 19.9963 13.9125V12.5734C19.9963 12.3263 19.92 12.0853 19.7779 11.8832L17.4994 8.6426C17.2747 8.32301 16.9084 8.13281 16.5178 8.13281H12.9531Z" fill="#5472EF"/>
<rect x="19.2734" y="12.3359" width="0.722307" height="1.26404" fill="#FFCB71"/>
<path d="M17.5237 9.5239L18.5977 11.2458C18.847 11.6454 18.5596 12.1633 18.0886 12.1633H15.9891C15.3263 12.1633 14.7891 11.6261 14.7891 10.9633V10.159C14.7891 9.49624 15.3263 8.95898 15.9891 8.95898H16.5055C16.9196 8.95898 17.3045 9.17252 17.5237 9.5239Z" fill="#DDE3FC"/>
<circle cx="16.4742" cy="15.1129" r="1.89606" fill="#222E60"/>
<circle cx="16.4747" cy="15.1124" r="0.812596" fill="#768EF2"/>
<path d="M4.00586 13.082H12.9526V15.1125H5.20586C4.54312 15.1125 4.00586 14.5752 4.00586 13.9125V13.082Z" fill="#5472EF"/>
<circle cx="6.93317" cy="15.3023" r="1.89606" fill="#222E60"/>
<circle cx="6.93369" cy="15.3019" r="0.812596" fill="#768EF2"/>
<path d="M4.00586 7.40078C4.00586 7.06941 4.27449 6.80078 4.60586 6.80078H12.3526C12.684 6.80078 12.9526 7.06941 12.9526 7.40078V13.0825H4.00586V7.40078Z" fill="#768EF2"/>
<rect x="5.74805" y="7.9043" width="4.07245" height="4.07245" rx="0.6" stroke="#DDE3FC" stroke-width="0.6"/>
<path d="M7.17383 7.9043H8.39527V9.09402L7.78455 8.77903L7.17383 9.09402V7.9043Z" stroke="#DDE3FC" stroke-width="0.6"/>
<path d="M9.17578 7.9043H10.612C10.9434 7.9043 11.212 8.17293 11.212 8.5043V11.3767C11.212 11.7081 10.9434 11.9767 10.612 11.9767H9.17578" stroke="#DDE3FC" stroke-width="0.6"/>
</svg>
