<svg width="17" height="16" viewBox="0 0 17 16" fill="none" xmlns="http://www.w3.org/2000/svg">
<path fill-rule="evenodd" clip-rule="evenodd" d="M5.62839 0.0442524L15.818 4.31955C16.1089 4.44122 16.2487 4.7786 16.1256 5.07173L11.797 15.1488C11.674 15.4364 11.3328 15.5747 11.0364 15.453L0.852338 11.1722C0.561525 11.0505 0.42171 10.7131 0.544747 10.42L4.8678 0.348445C4.99643 0.0608448 5.33758 -0.0774248 5.62839 0.0442524Z" fill="#921D26"/>
<path fill-rule="evenodd" clip-rule="evenodd" d="M15.5613 4.8623C15.5836 4.91761 15.5836 4.97845 15.5613 5.03376L11.378 14.779C11.3277 14.8896 11.1991 14.9449 11.0816 14.8951L1.22753 10.7581C1.1716 10.736 1.12686 10.6917 1.10449 10.6364L15.5613 4.8623Z" fill="#70161E"/>
<path fill-rule="evenodd" clip-rule="evenodd" d="M5.63987 0.934677L15.1696 4.93343C15.2255 4.95556 15.2535 5.02192 15.2311 5.08276L11.1821 14.5017C11.1597 14.557 11.0926 14.5846 11.0311 14.5625L1.50137 10.5638C1.44544 10.5416 1.41748 10.4753 1.43985 10.4144L5.48887 0.989985C5.51124 0.934677 5.57835 0.907023 5.63987 0.934677Z" fill="#D5232B"/>
<path fill-rule="evenodd" clip-rule="evenodd" d="M15.2266 4.99414C15.2378 5.02179 15.2378 5.04945 15.2266 5.08263L11.1832 14.5016C11.1608 14.5569 11.0937 14.5845 11.0322 14.5624L1.50244 10.5636C1.47447 10.5526 1.4521 10.5305 1.44092 10.5028L15.2266 4.99414Z" fill="#A11F24"/>
<path fill-rule="evenodd" clip-rule="evenodd" d="M13.4756 5.27734L7.56427 8.22525L6.97705 5.60919L13.4756 5.27734Z" fill="white"/>
<path fill-rule="evenodd" clip-rule="evenodd" d="M3.33936 10.3307L9.2507 7.38281L9.83792 9.99334L3.33936 10.3307Z" fill="#E6E6E6"/>
<path fill-rule="evenodd" clip-rule="evenodd" d="M7.56201 8.22349L9.25097 7.38281L9.374 7.93589L7.56201 8.22349Z" fill="#B3B3B3"/>
</svg>
