<svg width="25" height="24" viewBox="0 0 25 24" fill="none" xmlns="http://www.w3.org/2000/svg">
<path fill-rule="evenodd" clip-rule="evenodd" d="M9.92497 20.0001C12.889 20.0001 15.305 19.7733 15.305 19.4968C15.305 19.2202 12.889 18.9879 9.92497 18.9879C6.96091 18.9879 4.54492 19.2147 4.54492 19.4912C4.54492 19.7678 6.96091 20.0001 9.92497 20.0001Z" fill="#CAC9C9"/>
<path fill-rule="evenodd" clip-rule="evenodd" d="M9.62839 4.04425L19.818 8.31955C20.1089 8.44122 20.2487 8.7786 20.1256 9.07173L15.797 19.1488C15.674 19.4364 15.3328 19.5747 15.0364 19.453L4.85234 15.1722C4.56152 15.0505 4.42171 14.7131 4.54475 14.42L8.8678 4.34845C8.99643 4.06084 9.33758 3.92258 9.62839 4.04425Z" fill="#921D26"/>
<path fill-rule="evenodd" clip-rule="evenodd" d="M19.5613 8.862C19.5836 8.91731 19.5836 8.97815 19.5613 9.03345L15.378 18.7787C15.3277 18.8893 15.1991 18.9446 15.0816 18.8948L5.22753 14.7578C5.1716 14.7357 5.12686 14.6914 5.10449 14.6361L19.5613 8.862Z" fill="#70161E"/>
<path fill-rule="evenodd" clip-rule="evenodd" d="M9.63938 4.93483L19.1691 8.93358C19.225 8.95571 19.253 9.02208 19.2306 9.08292L15.1816 18.5018C15.1592 18.5571 15.0921 18.5848 15.0306 18.5627L5.50088 14.5639C5.44496 14.5418 5.41699 14.4754 5.43936 14.4146L9.48838 4.99014C9.51075 4.93483 9.57786 4.90718 9.63938 4.93483Z" fill="#D5232B"/>
<path fill-rule="evenodd" clip-rule="evenodd" d="M19.2261 8.99405C19.2373 9.0217 19.2373 9.04936 19.2261 9.08254L15.1827 18.5015C15.1603 18.5568 15.0932 18.5844 15.0317 18.5623L5.50195 14.5635C5.47399 14.5525 5.45161 14.5304 5.44043 14.5027L19.2261 8.99405Z" fill="#A11F24"/>
<path fill-rule="evenodd" clip-rule="evenodd" d="M17.4751 9.27744L11.5638 12.2253L10.9766 9.60928L17.4751 9.27744Z" fill="white"/>
<path fill-rule="evenodd" clip-rule="evenodd" d="M7.33887 14.3307L13.2502 11.3828L13.8374 13.9934L7.33887 14.3307Z" fill="#E6E6E6"/>
<path fill-rule="evenodd" clip-rule="evenodd" d="M11.5625 12.2235L13.2515 11.3828L13.3745 11.9359L11.5625 12.2235Z" fill="#B3B3B3"/>
</svg>
