<svg width="104" height="40" viewBox="0 0 104 40" fill="none" xmlns="http://www.w3.org/2000/svg">
<rect x="0.5" y="0.5" width="103" height="39" rx="7.5" fill="white"/>
<path d="M21.3153 17.9091C21.2599 17.4413 21.0353 17.0781 20.6413 16.8196C20.2474 16.5611 19.7642 16.4318 19.1918 16.4318C18.7732 16.4318 18.407 16.4995 18.093 16.6349C17.7822 16.7704 17.5391 16.9566 17.3636 17.1935C17.1913 17.4305 17.1051 17.6998 17.1051 18.0014C17.1051 18.2538 17.1651 18.4708 17.2852 18.6523C17.4083 18.8308 17.5652 18.9801 17.756 19.1001C17.9469 19.2171 18.1469 19.314 18.3562 19.391C18.5655 19.4648 18.7578 19.5249 18.9332 19.571L19.8935 19.8295C20.1397 19.8942 20.4136 19.9834 20.7152 20.0973C21.0199 20.2112 21.3107 20.3666 21.5877 20.5636C21.8678 20.7575 22.0986 21.0067 22.2802 21.3114C22.4618 21.6161 22.5526 21.9901 22.5526 22.4332C22.5526 22.9441 22.4187 23.4058 22.1509 23.8182C21.8862 24.2306 21.4985 24.5584 20.9876 24.8015C20.4798 25.0446 19.8627 25.1662 19.1364 25.1662C18.4593 25.1662 17.873 25.0569 17.3775 24.8384C16.8851 24.6199 16.4973 24.3152 16.2141 23.9244C15.9341 23.5335 15.7756 23.0795 15.7386 22.5625H16.9205C16.9512 22.9195 17.0713 23.215 17.2805 23.4489C17.4929 23.6797 17.7607 23.852 18.0838 23.9659C18.41 24.0767 18.7609 24.1321 19.1364 24.1321C19.5734 24.1321 19.9658 24.0613 20.3136 23.9197C20.6613 23.7751 20.9368 23.575 21.1399 23.3196C21.343 23.0611 21.4446 22.7595 21.4446 22.4148C21.4446 22.1009 21.3569 21.8454 21.1815 21.6484C21.006 21.4515 20.7752 21.2914 20.489 21.1683C20.2028 21.0452 19.8935 20.9375 19.5611 20.8452L18.3977 20.5128C17.6591 20.3004 17.0743 19.9973 16.6435 19.6033C16.2126 19.2094 15.9972 18.6939 15.9972 18.0568C15.9972 17.5275 16.1403 17.0658 16.4265 16.6719C16.7158 16.2749 17.1036 15.9671 17.5898 15.7486C18.0792 15.527 18.6255 15.4162 19.2287 15.4162C19.8381 15.4162 20.3797 15.5254 20.8537 15.744C21.3277 15.9594 21.7031 16.2549 21.9801 16.6303C22.2602 17.0058 22.4079 17.4321 22.4233 17.9091H21.3153ZM24.5472 25V17.9091H25.6367V25H24.5472ZM25.1012 16.7273C24.8888 16.7273 24.7057 16.6549 24.5518 16.5103C24.401 16.3656 24.3256 16.1918 24.3256 15.9886C24.3256 15.7855 24.401 15.6116 24.5518 15.467C24.7057 15.3223 24.8888 15.25 25.1012 15.25C25.3135 15.25 25.4951 15.3223 25.6459 15.467C25.7998 15.6116 25.8767 15.7855 25.8767 15.9886C25.8767 16.1918 25.7998 16.3656 25.6459 16.5103C25.4951 16.6549 25.3135 16.7273 25.1012 16.7273ZM27.689 25V24.169L31.7146 18.9986V18.9247H27.8183V17.9091H33.118V18.777L29.2032 23.9105V23.9844H33.2473V25H27.689ZM37.9552 25.1477C37.272 25.1477 36.6826 24.9969 36.1871 24.6953C35.6947 24.3906 35.3146 23.9659 35.0469 23.4212C34.7822 22.8733 34.6499 22.2363 34.6499 21.5099C34.6499 20.7836 34.7822 20.1435 35.0469 19.5895C35.3146 19.0324 35.687 18.5985 36.1641 18.2876C36.6442 17.9737 37.2043 17.8168 37.8445 17.8168C38.2138 17.8168 38.5785 17.8783 38.9386 18.0014C39.2986 18.1245 39.6264 18.3246 39.9219 18.6016C40.2173 18.8755 40.4528 19.2386 40.6282 19.6911C40.8036 20.1435 40.8913 20.7005 40.8913 21.3622V21.8239H35.4254V20.8821H39.7834C39.7834 20.482 39.7034 20.125 39.5433 19.8111C39.3864 19.4972 39.1617 19.2494 38.8693 19.0678C38.58 18.8862 38.2384 18.7955 37.8445 18.7955C37.4105 18.7955 37.035 18.9032 36.718 19.1186C36.4041 19.331 36.1625 19.608 35.9932 19.9496C35.824 20.2912 35.7393 20.6574 35.7393 21.0483V21.6761C35.7393 22.2116 35.8317 22.6656 36.0163 23.038C36.2041 23.4073 36.4641 23.6889 36.7965 23.8828C37.1289 24.0736 37.5151 24.169 37.9552 24.169C38.2415 24.169 38.5 24.129 38.7308 24.049C38.9647 23.9659 39.1663 23.8428 39.3356 23.6797C39.5048 23.5135 39.6356 23.3073 39.728 23.0611L40.7805 23.3565C40.6697 23.7135 40.4835 24.0275 40.2219 24.2983C39.9603 24.5661 39.6372 24.7753 39.2525 24.9261C38.8678 25.0739 38.4354 25.1477 37.9552 25.1477Z" fill="#6C7E95"/>
<path d="M83 18L79 22L75 18" stroke="#6C7E95" stroke-width="1.5" stroke-linecap="round" stroke-linejoin="round"/>
<rect x="0.5" y="0.5" width="103" height="39" rx="7.5" stroke="#E7EDF4"/>
</svg>
