<svg width="40" height="40" viewBox="0 0 40 40" fill="none" xmlns="http://www.w3.org/2000/svg">
<rect width="40" height="40" rx="20" fill="#DCEDFF"/>
<rect x="9.9375" y="12.2754" width="18.2343" height="17.5471" rx="1.3" fill="#CC7051"/>
<rect x="11.8359" y="10.1816" width="18.2343" height="17.6" rx="1.3" fill="white"/>
<rect x="13.3438" y="11.7002" width="15.2335" height="14.507" fill="#DCEDFF"/>
<rect x="15.0156" y="21.3567" width="7.48509" height="11.5394" rx="3.74254" transform="rotate(-90 15.0156 21.3567)" fill="#F9B66F"/>
<path d="M20.9043 17.2127C20.5775 17.1533 20.3399 16.9749 20.3102 16.7667C20.2805 16.5883 20.3696 16.4396 20.5478 16.3504C21.0231 16.1422 21.2905 16.4693 21.3499 16.5585L21.6766 16.3207L22.0034 16.0828C21.8549 15.8746 21.5875 15.607 21.1716 15.5178V15.042H20.3696V15.5475C20.3102 15.5772 20.2507 15.5772 20.1913 15.607C19.6863 15.8449 19.419 16.3207 19.4784 16.8262C19.5378 17.2722 19.8943 17.7777 20.6666 17.9561C20.9934 18.0156 21.231 18.194 21.2608 18.4022C21.2905 18.5806 21.2013 18.7293 21.0231 18.8185C20.5478 19.0267 20.2805 18.6996 20.221 18.6103L19.8943 18.8482L19.5675 19.0861C19.716 19.2943 19.9834 19.5322 20.3993 19.6511V20.1864H21.2013V19.6214C21.2608 19.5916 21.3202 19.5916 21.3796 19.5619C21.8846 19.324 22.1519 18.8482 22.0925 18.3427C22.0331 17.8967 21.6766 17.3614 20.9043 17.2127Z" fill="white"/>
<rect opacity="0.7" x="15.0156" y="24.791" width="1.95648" height="11.5394" rx="0.978242" transform="rotate(-90 15.0156 24.791)" fill="#B6C5D6"/>
</svg>
