<svg width="104" height="80" viewBox="0 0 104 80" fill="none" xmlns="http://www.w3.org/2000/svg">
<circle cx="51.5" cy="40" r="40" fill="#DCEDFF"/>
<path d="M33.5 16C33.5 14.8954 34.3954 14 35.5 14H65.5C66.6046 14 67.5 14.8954 67.5 16V62L62.5 58L57.5 62L55.5 58L50.5 62L45.5 58L43.5 62L38.5 58L33.5 62V16Z" fill="#FDA056"/>
<path d="M30.5 20C30.5 18.8954 31.3954 18 32.5 18H68.5C69.6046 18 70.5 18.8954 70.5 20V66L65.5 62L60.5 66L55.5 62L50.5 66L45.5 62L40.5 66L35.5 62L30.5 66V20Z" fill="white"/>
<rect x="36.5" y="52.6143" width="15" height="5" rx="2.5" fill="#DFE4EF"/>
<path d="M58.5 55.1143H63.5972" stroke="black" stroke-width="1.5" stroke-linecap="round"/>
<rect x="36.5" y="32.6143" width="28" height="16" rx="3" fill="#FFD6C5"/>
<path d="M53.2785 42.3422C53.2785 42.7249 53.1828 43.0846 52.9915 43.4214C52.8078 43.7582 52.5322 44.0414 52.1648 44.271C51.8051 44.5006 51.3765 44.6384 50.879 44.6843V45.6143H50.1327V44.6843C49.4132 44.6154 48.8315 44.3896 48.3876 44.0069C47.9436 43.6242 47.7217 43.119 47.7217 42.4914H49.1224C49.1453 42.7899 49.241 43.0387 49.4094 43.2377C49.5778 43.429 49.8189 43.5515 50.1327 43.6051V41.0792C49.6199 40.9491 49.2027 40.819 48.8813 40.6889C48.5598 40.5511 48.2843 40.3368 48.0546 40.0459C47.8327 39.7551 47.7217 39.3571 47.7217 38.8519C47.7217 38.2166 47.9436 37.6923 48.3876 37.279C48.8315 36.858 49.4132 36.6131 50.1327 36.5442V35.6143H50.879V36.5442C51.5525 36.6055 52.0921 36.8198 52.4978 37.1872C52.9111 37.5469 53.1446 38.0444 53.1981 38.6797H51.7975C51.7745 38.4424 51.6826 38.2319 51.5219 38.0482C51.3612 37.8569 51.1469 37.7268 50.879 37.6579V40.1378C51.3918 40.2603 51.8089 40.3904 52.1304 40.5282C52.4519 40.6583 52.7236 40.8688 52.9456 41.1596C53.1675 41.4428 53.2785 41.837 53.2785 42.3422ZM49.0535 38.783C49.0535 39.0968 49.1453 39.3418 49.329 39.5178C49.5204 39.6939 49.7883 39.8355 50.1327 39.9426V37.6234C49.8036 37.6617 49.5395 37.7804 49.3405 37.9794C49.1492 38.1784 49.0535 38.4463 49.0535 38.783ZM50.879 43.6051C51.2157 43.5515 51.4798 43.4175 51.6712 43.2032C51.8625 42.9813 51.9582 42.7172 51.9582 42.411C51.9582 42.1049 51.8625 41.8676 51.6712 41.6992C51.4875 41.5232 51.2234 41.3816 50.879 41.2744V43.6051Z" fill="#DF6C19"/>
<circle opacity="0.2" cx="64.5" cy="26.6143" r="9" fill="#415C7E"/>
<circle cx="65.5" cy="23" r="9" fill="#59B277"/>
<path d="M62 22.771L64.4856 25.2566L69 20.7422" stroke="white" stroke-width="1.3" stroke-linecap="round" stroke-linejoin="round"/>
<path d="M36.5 24H42.5972" stroke="#2E47BA" stroke-width="1.5" stroke-linecap="round"/>
<path d="M36.5 27.5H45.5972" stroke="#97A7BE" stroke-width="1.5" stroke-linecap="round"/>
<path d="M18.5284 59.736C15.845 57.371 12.5587 57.8031 11.251 58.3147V54.8468C14.7073 52.3908 17.5427 54.6194 18.5284 56.0407V59.736Z" fill="#41847C"/>
<path d="M19.6673 32.8906L21.6362 31.0967C21.6362 31.0967 21.6362 27.7712 18.4422 27.7712L16.6919 29.5652C18.8272 29.8803 19.5652 31.9134 19.6673 32.8906Z" fill="#FFAB36"/>
<path d="M7.74081 17.1026L4.7861 15.2085C4.7861 15.2085 0.553734 16.3425 1.643 20.4077L4.52312 22.0235C4.1959 19.1984 6.5319 17.5658 7.74081 17.1026Z" fill="#C05FB4"/>
<path d="M31.9557 8.25131L34.8107 6.77535C34.8107 6.77535 35.8492 2.89959 32.1266 1.90211L29.5265 3.4464C31.9167 4.4804 32.1419 7.08051 31.9557 8.25131Z" fill="#2176FF"/>
<path d="M85.1984 7.02076L85.9878 10.6298C85.9878 10.6298 89.982 12.9359 92.197 9.09941L91.256 5.7531C89.3968 8.09936 86.443 7.57582 85.1984 7.02076Z" fill="#59B277"/>
<path d="M102.189 37.701L98.5249 35.3523C98.5249 35.3523 93.277 36.7585 94.6277 41.799L98.1988 43.8025C97.7931 40.2996 100.69 38.2753 102.189 37.701Z" fill="#2176FF"/>
<path d="M80.0754 33.8828L80.8179 37.2777C80.8179 37.2777 84.5752 39.4469 86.6588 35.8381L85.7735 32.6903C84.0247 34.8974 81.2461 34.4049 80.0754 33.8828Z" fill="#FF5963"/>
</svg>
