<svg width="32" height="32" viewBox="0 0 32 32" fill="none" xmlns="http://www.w3.org/2000/svg">
<circle cx="16" cy="16" r="16" fill="#D2FFE1"/>
<path d="M21.3996 16.8998V12.814C21.3996 12.5488 21.2943 12.2944 21.1067 12.1069L18.0925 9.0927C17.905 8.90516 17.6506 8.7998 17.3854 8.7998H11.5996C11.0473 8.7998 10.5996 9.24752 10.5996 9.79981V22.1998C10.5996 22.7521 11.0473 23.1998 11.5996 23.1998H18.3139H20.3996C20.9519 23.1998 21.3996 22.7521 21.3996 22.1998V19.5998" stroke="#458B5C" stroke-width="1.3" stroke-miterlimit="10" stroke-linecap="round" stroke-linejoin="round"/>
<path d="M20.4998 12.4H18.7998C18.2475 12.4 17.7998 11.9523 17.7998 11.4V9.25" stroke="#458B5C" stroke-width="1.3" stroke-miterlimit="10" stroke-linecap="round" stroke-linejoin="round"/>
<path d="M13.2998 14.3091L14.4248 15.4341L16.334 13.5249" stroke="#458B5C" stroke-width="1.3" stroke-miterlimit="10" stroke-linecap="round" stroke-linejoin="round"/>
<path d="M13.2998 19.6001H18.2498" stroke="#458B5C" stroke-width="1.3" stroke-miterlimit="10" stroke-linecap="round" stroke-linejoin="round"/>
<path d="M13.2998 17.7998H15.9998" stroke="#458B5C" stroke-width="1.3" stroke-miterlimit="10" stroke-linecap="round" stroke-linejoin="round"/>
</svg>
