<svg width="129" height="100" viewBox="0 0 129 100" fill="none" xmlns="http://www.w3.org/2000/svg">
<circle cx="63.8242" cy="50" r="50" fill="#DCEDFF"/>
<path d="M41.3242 20C41.3242 18.6193 42.4435 17.5 43.8242 17.5H81.3242C82.7049 17.5 83.8242 18.6193 83.8242 20V77.5L77.5742 72.5L71.3242 77.5L68.8242 72.5L62.5742 77.5L56.3242 72.5L53.8242 77.5L47.5742 72.5L41.3242 77.5V20Z" fill="#FDA056"/>
<path d="M37.5742 25C37.5742 23.6193 38.6935 22.5 40.0742 22.5H85.0742C86.4549 22.5 87.5742 23.6193 87.5742 25V82.5L81.3242 77.5L75.0742 82.5L68.8242 77.5L62.5742 82.5L56.3242 77.5L50.0742 82.5L43.8242 77.5L37.5742 82.5V25Z" fill="white"/>
<rect x="45.0742" y="65.7678" width="18.75" height="6.25" rx="3.125" fill="#DFE4EF"/>
<path d="M72.5742 68.8928H78.9457" stroke="black" stroke-width="1.875" stroke-linecap="round"/>
<rect x="45.0742" y="40.7678" width="35" height="20" rx="3.75" fill="#FFD6C5"/>
<path d="M66.0474 52.9277C66.0474 53.4061 65.9278 53.8557 65.6886 54.2767C65.459 54.6977 65.1145 55.0517 64.6553 55.3387C64.2056 55.6257 63.6698 55.798 63.0479 55.8554V57.0178H62.1151V55.8554C61.2157 55.7693 60.4886 55.487 59.9337 55.0086C59.3788 54.5303 59.1013 53.8988 59.1013 53.1143H60.8522C60.8809 53.4874 61.0005 53.7983 61.211 54.0471C61.4214 54.2863 61.7228 54.4394 62.1151 54.5063V51.3491C61.4741 51.1864 60.9526 51.0238 60.5508 50.8611C60.149 50.6889 59.8045 50.421 59.5175 50.0574C59.24 49.6939 59.1013 49.1964 59.1013 48.5649C59.1013 47.7708 59.3788 47.1154 59.9337 46.5988C60.4886 46.0725 61.2157 45.7664 62.1151 45.6803V44.5178H63.0479V45.6803C63.8899 45.7568 64.5644 46.0247 65.0715 46.484C65.5881 46.9336 65.8799 47.5555 65.9469 48.3496H64.196C64.1673 48.053 64.0525 47.7899 63.8516 47.5603C63.6507 47.3211 63.3828 47.1585 63.0479 47.0724V50.1722C63.689 50.3253 64.2104 50.488 64.6122 50.6602C65.0141 50.8228 65.3537 51.0859 65.6312 51.4495C65.9086 51.8035 66.0474 52.2962 66.0474 52.9277ZM60.7661 48.4788C60.7661 48.8711 60.8809 49.1772 61.1105 49.3973C61.3497 49.6173 61.6846 49.7943 62.1151 49.9283V47.0293C61.7037 47.0771 61.3736 47.2254 61.1249 47.4742C60.8857 47.723 60.7661 48.0578 60.7661 48.4788ZM63.0479 54.5063C63.4689 54.4394 63.799 54.2719 64.0382 54.004C64.2774 53.7266 64.397 53.3965 64.397 53.0138C64.397 52.6311 64.2774 52.3345 64.0382 52.124C63.8086 51.904 63.4785 51.727 63.0479 51.593V54.5063Z" fill="#DF6C19"/>
<circle opacity="0.2" cx="80.0742" cy="33.2678" r="11.25" fill="#415C7E"/>
<circle cx="81.3242" cy="28.75" r="11.25" fill="#59B277"/>
<path d="M76.9492 28.4638L80.0562 31.5708L85.6992 25.9277" stroke="white" stroke-width="1.625" stroke-linecap="round" stroke-linejoin="round"/>
<path d="M45.0742 30H52.6957" stroke="#2E47BA" stroke-width="1.875" stroke-linecap="round"/>
<path d="M45.0742 34.375H56.4457" stroke="#97A7BE" stroke-width="1.875" stroke-linecap="round"/>
<path d="M22.6045 74.6725C19.2504 71.7162 15.1425 72.2563 13.5078 72.8958V68.5609C17.8283 65.4909 21.3725 68.2766 22.6045 70.0533V74.6725Z" fill="#41847C"/>
<path d="M24.031 41.1133L26.4922 38.8708C26.4922 38.8708 26.4922 34.714 22.4996 34.714L20.3118 36.9565C22.9809 37.3503 23.9034 39.8918 24.031 41.1133Z" fill="#FFAB36"/>
<path d="M9.12059 21.3786L5.42721 19.0108C5.42721 19.0108 0.136748 20.4284 1.49833 25.5099L5.09848 27.5296C4.68945 23.9983 7.60946 21.9575 9.12059 21.3786Z" fill="#C05FB4"/>
<path d="M39.3873 10.3134L42.9562 8.46846C42.9562 8.46846 44.2543 3.62376 39.601 2.3769L36.3508 4.30726C39.3386 5.59977 39.6201 8.84991 39.3873 10.3134Z" fill="#2176FF"/>
<path d="M105.943 8.77424L106.93 13.2855C106.93 13.2855 111.923 16.1682 114.691 11.3726L113.515 7.18967C111.191 10.1225 107.499 9.46806 105.943 8.77424Z" fill="#59B277"/>
<path d="M127.179 47.1262L122.6 44.1904C122.6 44.1904 116.04 45.9481 117.728 52.2488L122.192 54.7531C121.685 50.3745 125.306 47.8441 127.179 47.1262Z" fill="#2176FF"/>
<path d="M99.5371 42.3559L100.465 46.5995C100.465 46.5995 105.162 49.3111 107.766 44.8L106.66 40.8653C104.474 43.6242 101.001 43.0086 99.5371 42.3559Z" fill="#FF5963"/>
</svg>
