<svg width="21" height="20" viewBox="0 0 21 20" fill="none" xmlns="http://www.w3.org/2000/svg">
<path d="M16.374 11V6.41421C16.374 6.149 16.2687 5.89464 16.0811 5.70711L12.6669 2.29289C12.4794 2.10536 12.225 2 11.9598 2H5.37402C4.82174 2 4.37402 2.44772 4.37402 3V17C4.37402 17.5523 4.82174 18 5.37402 18H12.9455H15.374C15.9263 18 16.374 17.5523 16.374 17V14" stroke="#2E47BA" stroke-width="1.3" stroke-miterlimit="10" stroke-linecap="round" stroke-linejoin="round"/>
<path d="M15.374 6H13.374C12.8217 6 12.374 5.55228 12.374 5V2.5" stroke="#2E47BA" stroke-width="1.3" stroke-miterlimit="10" stroke-linecap="round" stroke-linejoin="round"/>
<path d="M7.3738 8.12132L8.6238 9.37133L10.7451 7.25001" stroke="#2E47BA" stroke-width="1.3" stroke-miterlimit="10" stroke-linecap="round" stroke-linejoin="round"/>
<path d="M7.37402 14H12.874" stroke="#2E47BA" stroke-width="1.3" stroke-miterlimit="10" stroke-linecap="round" stroke-linejoin="round"/>
<path d="M7.37402 12H10.374" stroke="#2E47BA" stroke-width="1.3" stroke-miterlimit="10" stroke-linecap="round" stroke-linejoin="round"/>
</svg>
