<svg width="21" height="20" viewBox="0 0 21 20" fill="none" xmlns="http://www.w3.org/2000/svg">
<path d="M16.124 11V6.41421C16.124 6.149 16.0187 5.89464 15.8311 5.70711L12.4169 2.29289C12.2294 2.10536 11.975 2 11.7098 2H5.12402C4.57174 2 4.12402 2.44772 4.12402 3V17C4.12402 17.5523 4.57174 18 5.12402 18H12.6955H15.124C15.6763 18 16.124 17.5523 16.124 17V14" stroke="#6C7E95" stroke-width="1.3" stroke-miterlimit="10" stroke-linecap="round" stroke-linejoin="round"/>
<path d="M15.124 6H13.124C12.5717 6 12.124 5.55228 12.124 5V2.5" stroke="#6C7E95" stroke-width="1.3" stroke-miterlimit="10" stroke-linecap="round" stroke-linejoin="round"/>
<path d="M7.1238 8.12132L8.3738 9.37133L10.4951 7.25001" stroke="#6C7E95" stroke-width="1.3" stroke-miterlimit="10" stroke-linecap="round" stroke-linejoin="round"/>
<path d="M7.12402 14H12.624" stroke="#6C7E95" stroke-width="1.3" stroke-miterlimit="10" stroke-linecap="round" stroke-linejoin="round"/>
<path d="M7.12402 12H10.124" stroke="#6C7E95" stroke-width="1.3" stroke-miterlimit="10" stroke-linecap="round" stroke-linejoin="round"/>
</svg>
