<svg width="32" height="32" viewBox="0 0 32 32" fill="none" xmlns="http://www.w3.org/2000/svg">
<circle cx="16" cy="16" r="16" fill="#DCEEE2"/>
<circle cx="16" cy="13.75" r="1.75" stroke="#59B277" stroke-width="1.3"/>
<path d="M19.5 20.75C19.5 18.817 17.933 17.25 16 17.25C14.067 17.25 12.5 18.817 12.5 20.75" stroke="#59B277" stroke-width="1.3" stroke-linecap="round"/>
<circle cx="11.625" cy="15.5" r="1.3125" stroke="#59B277" stroke-width="1.3"/>
<circle r="1.3125" transform="matrix(-1 0 0 1 20.375 15.5)" stroke="#59B277" stroke-width="1.3"/>
<path d="M9 20.75C9 19.3003 10.1753 18.125 11.625 18.125C12.1617 18.125 12.6608 18.2861 13.0765 18.5625" stroke="#59B277" stroke-width="1.3" stroke-linecap="round"/>
<path d="M23 20.75C23 19.3003 21.8247 18.125 20.375 18.125C19.8383 18.125 19.3392 18.2861 18.9235 18.5625" stroke="#59B277" stroke-width="1.3" stroke-linecap="round"/>
</svg>
