<svg width="32" height="32" viewBox="0 0 32 32" fill="none" xmlns="http://www.w3.org/2000/svg">
<circle cx="16" cy="16" r="16" fill="#FCDBDB"/>
<path d="M8 16C8 18.3081 8.97746 20.3879 10.541 21.8481L9.77618 24.9285L13.6423 23.6469C14.3876 23.8764 15.1794 24 16 24C20.4183 24 24 20.4183 24 16C24 11.5817 20.4183 8 16 8C12.991 8 10.37 9.66121 9.00415 12.1165" stroke="#F36565" stroke-width="1.3" stroke-linecap="round" stroke-linejoin="round"/>
<path d="M15.9996 11.1797L17.2461 14.2838L20.5835 14.5101L18.0165 16.6549L18.8326 19.8989L15.9996 18.1203L13.1665 19.8989L13.9826 16.6549L11.4156 14.5101L14.753 14.2838L15.9996 11.1797Z" stroke="#F36565" stroke-width="1.3" stroke-linejoin="round"/>
</svg>
