<svg width="40" height="40" viewBox="0 0 40 40" fill="none" xmlns="http://www.w3.org/2000/svg">
<circle cx="20" cy="20" r="20" fill="#DCEDFF"/>
<path d="M17.2764 17.0033H18.776L20.2757 9.50488C22.3692 9.50488 23.9616 11.3846 23.6174 13.4496L23.2751 15.5036H27.1118C29.5628 15.5036 31.4371 17.6883 31.0644 20.1108L30.255 25.3717C29.9781 27.1719 28.4292 28.5007 26.6078 28.5007H24.4674C22.6891 28.5007 20.9271 28.1614 19.2759 27.501H17.2764V17.0033Z" fill="#FE967D"/>
<path fill-rule="evenodd" clip-rule="evenodd" d="M19.5752 13.0052L20.1253 10.2549C21.325 10.728 22.0384 11.8089 21.6842 12.9156L21.6556 13.0052H19.5752Z" fill="#FEBDAD"/>
<mask id="mask0_3851_189509" style="mask-type:alpha" maskUnits="userSpaceOnUse" x="7" y="14" width="13" height="17">
<rect x="7.77832" y="14.0049" width="11.9974" height="15.9965" fill="#C4C4C4"/>
</mask>
<g mask="url(#mask0_3851_189509)">
<path d="M17.4081 27.8366L18.2486 16.7271C18.2923 16.1493 17.8373 15.6555 17.2579 15.6519L8.85504 15.5999L8.89797 28.909L16.4309 28.7607C16.9461 28.7506 17.3693 28.3504 17.4081 27.8366Z" fill="#2E47BA"/>
<path opacity="0.25" fill-rule="evenodd" clip-rule="evenodd" d="M17.5838 25.5134L17.408 27.8373C17.3691 28.3511 16.946 28.7513 16.4307 28.7614L8.89783 28.9097L8.88672 25.4668L17.5838 25.5134Z" fill="black"/>
<path d="M13.4223 20.0976C13.951 20.5234 14.7248 20.4399 15.1505 19.9112C15.5763 19.3825 15.4928 18.6088 14.9641 18.183C14.4354 17.7573 13.6617 17.8407 13.2359 18.3694C12.8102 18.8981 12.8936 19.6719 13.4223 20.0976Z" fill="white"/>
</g>
</svg>
