<svg width="40" height="40" viewBox="0 0 40 40" fill="none" xmlns="http://www.w3.org/2000/svg">
<circle cx="20" cy="20" r="20" fill="#F6F8FC"/>
<path d="M18.3869 17.0036V17.0036C18.6128 17.0036 18.8073 16.8441 18.8516 16.6226L20.0071 10.8451C20.1629 10.066 20.8746 9.46348 21.6052 9.77548C22.9912 10.3673 23.8829 11.8533 23.6168 13.45L23.5979 13.5633C23.4286 14.5792 24.212 15.5039 25.2419 15.5039H27.1112C29.5622 15.5039 31.4365 17.6887 31.0638 20.1112L30.2544 25.3721C29.9775 27.1723 28.4285 28.5011 26.6072 28.5011H24.4668C22.7955 28.5011 21.1386 28.2014 19.5747 27.6171C19.3761 27.5429 19.1664 27.5013 18.9543 27.5013H17.7778" stroke="#6C7E95" stroke-width="1.3" stroke-linecap="round"/>
<path fill-rule="evenodd" clip-rule="evenodd" d="M19.5752 13.0054L20.1253 10.2551C21.325 10.7283 22.0384 11.8091 21.6842 12.9159L21.6556 13.0054H19.5752Z" fill="#6C7E95"/>
<mask id="mask0_4671_8772" style="mask-type:alpha" maskUnits="userSpaceOnUse" x="7" y="14" width="13" height="17">
<rect x="7.77783" y="14.0052" width="11.9974" height="15.9965" fill="#C4C4C4"/>
</mask>
<g mask="url(#mask0_4671_8772)">
<path d="M17.4077 27.8366L18.2481 16.7271C18.2919 16.1493 17.8368 15.6555 17.2574 15.6519L10.5369 15.6103C9.61036 15.6046 8.85699 16.3558 8.85998 17.2824L8.89202 27.2147C8.89502 28.1459 9.66045 28.894 10.5915 28.8757L16.4304 28.7607C16.9457 28.7506 17.3688 28.3504 17.4077 27.8366Z" stroke="#6C7E95" stroke-width="1.3" stroke-linecap="round" stroke-linejoin="round"/>
<path d="M13.4218 20.098C13.9505 20.5237 14.7243 20.4403 15.15 19.9116C15.5758 19.3829 15.4923 18.6091 14.9636 18.1834C14.4349 17.7576 13.6612 17.8411 13.2354 18.3698C12.8097 18.8985 12.8931 19.6722 13.4218 20.098Z" fill="#6C7E95"/>
</g>
</svg>
