<svg width="40" height="40" viewBox="0 0 40 40" fill="none" xmlns="http://www.w3.org/2000/svg">
<circle cx="20" cy="20" r="20" fill="#E0E3EA"/>
<path d="M17.2756 17.0036H18.7753L20.275 9.50525C22.3684 9.50525 23.9608 11.385 23.6167 13.45L23.2743 15.5039H27.111C29.5621 15.5039 31.4364 17.6887 31.0637 20.1112L30.2543 25.3721C29.9774 27.1723 28.4284 28.5011 26.6071 28.5011H24.4667C22.6883 28.5011 20.9263 28.1618 19.2752 27.5013H17.2756V17.0036Z" fill="#9EA9B8"/>
<path fill-rule="evenodd" clip-rule="evenodd" d="M19.5752 13.0053L20.1253 10.255C21.325 10.7281 22.0384 11.809 21.6842 12.9158L21.6556 13.0053H19.5752Z" fill="#62738A"/>
<mask id="mask0_7833_70528" style="mask-type:alpha" maskUnits="userSpaceOnUse" x="7" y="14" width="13" height="17">
<rect x="7.77808" y="14.0055" width="11.9974" height="15.9965" fill="#C4C4C4"/>
</mask>
<g mask="url(#mask0_7833_70528)">
<path d="M17.4079 27.8369L18.2484 16.7275C18.2921 16.1497 17.8371 15.6559 17.2576 15.6523L8.85479 15.6003L8.89773 28.9094L16.4306 28.7611C16.9459 28.7509 17.369 28.3508 17.4079 27.8369Z" fill="#62738A"/>
<path opacity="0.25" fill-rule="evenodd" clip-rule="evenodd" d="M17.5841 25.5144L17.4082 27.8382C17.3694 28.3521 16.9462 28.7523 16.431 28.7624L8.89807 28.9107L8.88696 25.4678L17.5841 25.5144Z" fill="black"/>
<path d="M13.4218 20.0982C13.9505 20.524 14.7243 20.4405 15.15 19.9118C15.5758 19.3831 15.4923 18.6094 14.9636 18.1836C14.4349 17.7579 13.6612 17.8413 13.2354 18.37C12.8097 18.8987 12.8931 19.6725 13.4218 20.0982Z" fill="white"/>
</g>
</svg>
