<svg width="40" height="40" viewBox="0 0 40 40" fill="none" xmlns="http://www.w3.org/2000/svg">
<circle cx="20" cy="20" r="20" fill="#F6F8FC"/>
<path d="M18.3864 17.0042V17.0042C18.6123 17.0042 18.8068 16.8448 18.8511 16.6232L20.0066 10.8457C20.1625 10.0666 20.8741 9.46409 21.6047 9.77609C22.9907 10.3679 23.8824 11.8539 23.6163 13.4506L23.5974 13.5639C23.4281 14.5798 24.2115 15.5046 25.2414 15.5046H27.1107C29.5617 15.5046 31.436 17.6893 31.0633 20.1118L30.2539 25.3727C29.977 27.1729 28.4281 28.5017 26.6067 28.5017H24.4663C22.795 28.5017 21.1381 28.202 19.5742 27.6177C19.3756 27.5435 19.1659 27.5019 18.9539 27.5019H17.7773" stroke="#6C7E95" stroke-width="1.3" stroke-linecap="round"/>
<path fill-rule="evenodd" clip-rule="evenodd" d="M19.5742 13.0062L20.1243 10.2559C21.324 10.729 22.0375 11.8098 21.6833 12.9166L21.6546 13.0062H19.5742Z" fill="#6C7E95"/>
<mask id="mask0_1_16978" style="mask-type:alpha" maskUnits="userSpaceOnUse" x="7" y="14" width="13" height="17">
<rect x="7.77734" y="14.0059" width="11.9974" height="15.9965" fill="#C4C4C4"/>
</mask>
<g mask="url(#mask0_1_16978)">
<path d="M17.4062 27.8366L18.2467 16.7271C18.2904 16.1493 17.8354 15.6555 17.2559 15.6519L10.5355 15.6103C9.60889 15.6046 8.85552 16.3558 8.85851 17.2824L8.89055 27.2147C8.89356 28.1459 9.65899 28.894 10.59 28.8757L16.4289 28.7607C16.9442 28.7506 17.3673 28.3504 17.4062 27.8366Z" stroke="#6C7E95" stroke-width="1.3" stroke-linecap="round" stroke-linejoin="round"/>
<path d="M13.4214 20.0996C13.9501 20.5253 14.7238 20.4419 15.1496 19.9132C15.5753 19.3845 15.4919 18.6107 14.9632 18.185C14.4345 17.7592 13.6607 17.8427 13.235 18.3714C12.8092 18.9001 12.8927 19.6738 13.4214 20.0996Z" fill="#6C7E95"/>
</g>
</svg>
