<svg width="33" height="32" viewBox="0 0 33 32" fill="none" xmlns="http://www.w3.org/2000/svg">
<ellipse cx="16.1602" cy="16" rx="16.1602" ry="16" fill="#FCDBDB"/>
<path d="M7 9H18" stroke="#F36565" stroke-width="1.3"/>
<path d="M9 20H16" stroke="#F36565" stroke-width="1.3"/>
<rect x="9" y="9" width="7" height="14" stroke="#F36565" stroke-width="1.3"/>
<path fill-rule="evenodd" clip-rule="evenodd" d="M12 11H11V12H12V11ZM12 13H11V14H12V13ZM13 11H14V12H13V11ZM14 13H13V14H14V13ZM11 15H12V16H11V15ZM12 17H11V18H12V17ZM13 15H14V16H13V15ZM14 17H13V18H14V17Z" fill="#F36565"/>
<path fill-rule="evenodd" clip-rule="evenodd" d="M19 16H18V17H19V16ZM19 18H18V19H19V18ZM20 16H21V17H20V16ZM21 18H20V19H21V18ZM18 20H19V21H18V20ZM21 20H20V21H21V20Z" fill="#F36565"/>
<rect x="16" y="14" width="7" height="9" stroke="#F36565" stroke-width="1.3"/>
</svg>
