<svg width="40" height="40" viewBox="0 0 40 40" fill="none" xmlns="http://www.w3.org/2000/svg">
<rect width="40" height="40" rx="20" fill="#0D1826"/>
<path d="M12.7693 30.0234L32.6788 30.0234C33.5073 30.0234 34.1788 29.3519 34.1788 28.5234V21.0556C34.1788 20.2272 33.5073 19.5556 32.6788 19.5556H12.7693V30.0234Z" fill="#EB934E"/>
<path d="M20.3544 19.6328H29.0256V11.4882C29.0256 10.6597 28.3541 9.98816 27.5256 9.98816L20.3544 9.98816V19.6328Z" fill="#CC7051"/>
<path d="M20.409 9.98438H12.5282C11.6998 9.98438 11.0282 10.6559 11.0282 11.4844V19.6129H21.909V11.4844C21.909 10.6559 21.2375 9.98438 20.409 9.98438Z" fill="#F9B66F"/>
<path d="M25.977 19.6172H16.4453V30.0247H25.977C26.8054 30.0247 27.477 29.3531 27.477 28.5247V21.1172C27.477 20.2888 26.8054 19.6172 25.977 19.6172Z" fill="#F9B66F"/>
<mask id="mask0_2119_85813" style="mask-type:alpha" maskUnits="userSpaceOnUse" x="16" y="19" width="12" height="12">
<path d="M25.9538 19.6172H16.422V30.0247H25.9538C26.7822 30.0247 27.4538 29.3531 27.4538 28.5247V21.1172C27.4538 20.2888 26.7822 19.6172 25.9538 19.6172Z" fill="#F9B66F"/>
</mask>
<g mask="url(#mask0_2119_85813)">
<ellipse opacity="0.5" cx="25.7234" cy="27.9213" rx="5.37443" ry="5.37443" fill="#EB934E"/>
</g>
<path d="M17.8001 9.98438H15.1414V12.2119H17.8001V9.98438Z" fill="#CC7051"/>
<path d="M16.4361 19.2266H7.33618C6.50775 19.2266 5.83618 19.8981 5.83618 20.7266V28.5235C5.83618 29.352 6.50775 30.0235 7.33618 30.0235H16.4361V19.2266Z" fill="#F9B66F"/>
<path d="M21.909 19.4219H11.0282" stroke="#CC7051" stroke-width="0.5" stroke-miterlimit="10"/>
<path d="M23.2482 19.6172H20.5895V21.8608H23.2482V19.6172Z" fill="#CC7051"/>
<path d="M16.4453 30.0247L16.4453 19.6172" stroke="#CC7051" stroke-width="0.5" stroke-miterlimit="10"/>
<path d="M12.3675 19.2266H9.70886V21.8435H12.3675V19.2266Z" fill="#CC7051"/>
<circle cx="27.0891" cy="28.0396" r="5.17242" fill="#F36565"/>
<circle cx="27.0891" cy="28.0396" r="5.17242" fill="#59B277"/>
<path d="M25.1142 27.9152L26.5173 29.3183L29.0778 26.7578" stroke="white" stroke-width="1.3" stroke-linecap="round" stroke-linejoin="round"/>
</svg>
