<svg width="40" height="40" viewBox="0 0 40 40" fill="none" xmlns="http://www.w3.org/2000/svg">
<rect width="40" height="40" rx="20" fill="#DCEDFF"/>
<mask id="mask0_7428_7468" style="mask-type:alpha" maskUnits="userSpaceOnUse" x="9" y="10" width="18" height="21">
<path d="M25.606 10.5391H10.7881C10.2358 10.5391 9.78809 10.9868 9.78809 11.5391V26.3164C9.78809 28.5255 11.579 30.3164 13.7881 30.3164H26.606V11.5391C26.606 10.9868 26.1583 10.5391 25.606 10.5391Z" fill="white"/>
</mask>
<g mask="url(#mask0_7428_7468)">
<path d="M25.606 10.5391H10.7881C10.2358 10.5391 9.78809 10.9868 9.78809 11.5391V26.3164C9.78809 28.5255 11.579 30.3164 13.7881 30.3164H26.606V11.5391C26.606 10.9868 26.1583 10.5391 25.606 10.5391Z" fill="white"/>
<path d="M13.2958 27.6953L18.5855 27.6953C18.9315 27.6953 19.2119 27.4149 19.2119 27.0689C19.2119 26.723 18.9315 26.4425 18.5855 26.4425L13.2958 26.4425C12.9499 26.4425 12.6695 26.723 12.6695 27.0689C12.6695 27.4149 12.9499 27.6953 13.2958 27.6953Z" fill="#BAC8DB"/>
<path d="M13.2955 24.0547L23.1031 24.0547C23.449 24.0547 23.7295 23.7742 23.7295 23.4283C23.7295 23.0823 23.449 22.8019 23.1031 22.8019L13.2955 22.8019C12.9496 22.8019 12.6691 23.0823 12.6691 23.4283C12.6691 23.7742 12.9496 24.0547 13.2955 24.0547Z" fill="#BAC8DB"/>
<path d="M18.413 16.4252C17.9508 16.338 17.6456 16.1025 17.6107 15.7886C17.5758 15.5531 17.7154 15.3351 17.9595 15.2218C18.6136 14.9165 19.006 15.3962 19.0758 15.5008L19.9129 14.9165C19.7385 14.6636 19.381 14.341 18.9013 14.1927V13.2422H17.8723V14.1753C17.759 14.2102 17.6456 14.2451 17.5235 14.2974C16.8695 14.6026 16.5032 15.2392 16.5991 15.9194C16.6776 16.5037 17.1398 17.1839 18.1688 17.3932V17.4019C18.631 17.4804 18.9362 17.7158 18.9798 18.0298C19.006 18.2652 18.8752 18.4833 18.631 18.5966C17.977 18.9018 17.5845 18.4222 17.5148 18.3176L16.6689 18.9106C16.8607 19.1896 17.2968 19.5559 17.8723 19.678V20.6024H18.8926V19.582C18.945 19.5646 18.9973 19.5559 19.0583 19.5297C19.7036 19.2245 20.0699 18.5879 19.9827 17.899C19.9042 17.3147 19.442 16.6432 18.413 16.4252Z" fill="#5CB97B"/>
<circle cx="27.0164" cy="14.4519" r="5.54565" fill="#FFD9B1"/>
</g>
<ellipse cx="27.9518" cy="13.0719" rx="5.09533" ry="5.09533" fill="#59B277"/>
<path d="M26.1016 12.8684L27.5357 14.3026L30.0024 11.8359" stroke="white" stroke-width="1.45343" stroke-linecap="round" stroke-linejoin="round"/>
<path d="M17.7461 26.0703V26.3185C17.7461 28.5277 15.9553 30.3185 13.7461 30.3185H26.9972C29.2063 30.3185 30.9972 28.5277 30.9972 26.3185V26.0703C30.9972 25.518 30.5494 25.0703 29.9972 25.0703H18.7461C18.1938 25.0703 17.7461 25.518 17.7461 26.0703Z" fill="#EB934E"/>
</svg>
