<svg width="40" height="40" viewBox="0 0 40 40" fill="none" xmlns="http://www.w3.org/2000/svg">
<rect width="40" height="40" rx="20" fill="#DCEDFF"/>
<rect x="6.7124" y="13.647" width="28.4555" height="18" rx="1" fill="#5472EF"/>
<rect x="11.6849" y="20.8178" width="3.35369" height="8.53664" rx="1.67685" fill="white"/>
<rect x="19.2633" y="17.6674" width="3.35369" height="11.6871" rx="1.67685" fill="white"/>
<rect x="26.8417" y="16.0439" width="3.35369" height="13.3106" rx="1.67685" fill="#22C1CB"/>
<path d="M9.781 21.4324C13.1315 21.4324 15.8477 18.7163 15.8477 15.3657C15.8477 14.7688 15.7614 14.1919 15.6008 13.647H7.7124C7.16012 13.647 6.7124 14.0947 6.7124 14.647V20.6003C7.61265 21.1291 8.66141 21.4324 9.781 21.4324Z" fill="#222E60"/>
<circle cx="10.8988" cy="14.4196" r="6.06667" fill="#FFCB71"/>
<path d="M7.61804 15.8424V11.8834H9.17997C9.47895 11.8834 9.73412 11.9369 9.94547 12.0439C10.1581 12.1495 10.3198 12.2997 10.4307 12.4943C10.5428 12.6876 10.5988 12.915 10.5988 13.1767C10.5988 13.4395 10.5421 13.6657 10.4287 13.8552C10.3153 14.0433 10.151 14.1876 9.9358 14.2882C9.72187 14.3887 9.46284 14.4389 9.1587 14.4389H8.11291V13.7662H9.02339C9.18319 13.7662 9.31593 13.7443 9.4216 13.7005C9.52728 13.6567 9.60589 13.591 9.65744 13.5033C9.71027 13.4157 9.73669 13.3068 9.73669 13.1767C9.73669 13.0452 9.71027 12.9344 9.65744 12.8442C9.60589 12.754 9.52663 12.6856 9.41967 12.6393C9.31399 12.5916 9.18061 12.5677 9.01952 12.5677H8.45506V15.8424H7.61804ZM9.75602 14.0407L10.74 15.8424H9.81595L8.85328 14.0407H9.75602Z" fill="#F27676"/>
<path d="M11.2838 16.9558V12.8732H12.0957V13.3719H12.1324C12.1685 13.292 12.2207 13.2108 12.289 13.1283C12.3586 13.0446 12.4488 12.975 12.5596 12.9196C12.6717 12.8628 12.8109 12.8345 12.9771 12.8345C13.1937 12.8345 13.3934 12.8912 13.5764 13.0046C13.7594 13.1167 13.9057 13.2862 14.0152 13.513C14.1247 13.7385 14.1795 14.0214 14.1795 14.3616C14.1795 14.6928 14.126 14.9725 14.0191 15.2006C13.9134 15.4274 13.7691 15.5994 13.5861 15.7167C13.4044 15.8327 13.2007 15.8907 12.9752 15.8907C12.8154 15.8907 12.6795 15.8643 12.5673 15.8114C12.4565 15.7586 12.3657 15.6922 12.2948 15.6123C12.2239 15.5311 12.1698 15.4493 12.1324 15.3668H12.1073V16.9558H11.2838ZM12.0899 14.3578C12.0899 14.5343 12.1144 14.6883 12.1633 14.8198C12.2123 14.9512 12.2832 15.0537 12.376 15.1271C12.4687 15.1993 12.5815 15.2354 12.7142 15.2354C12.8483 15.2354 12.9617 15.1986 13.0545 15.1252C13.1473 15.0504 13.2175 14.9473 13.2652 14.8159C13.3141 14.6832 13.3386 14.5304 13.3386 14.3578C13.3386 14.1864 13.3148 14.0356 13.2671 13.9054C13.2194 13.7753 13.1492 13.6735 13.0564 13.6C12.9636 13.5265 12.8496 13.4898 12.7142 13.4898C12.5802 13.4898 12.4668 13.5252 12.374 13.5961C12.2825 13.667 12.2123 13.7675 12.1633 13.8977C12.1144 14.0278 12.0899 14.1812 12.0899 14.3578Z" fill="#F27676"/>
</svg>
