<svg width="24" height="24" viewBox="0 0 24 24" fill="none" xmlns="http://www.w3.org/2000/svg">
<rect width="24" height="24" rx="12" fill="#0D1826"/>
<mask id="mask0_5827_298113" style="mask-type:alpha" maskUnits="userSpaceOnUse" x="5" y="6" width="11" height="13">
<path d="M15.3628 6.32812H6.47207C6.1407 6.32812 5.87207 6.59675 5.87207 6.92812V15.7945C5.87207 17.12 6.94659 18.1945 8.27207 18.1945H15.9628V6.92813C15.9628 6.59675 15.6942 6.32812 15.3628 6.32812Z" fill="white"/>
</mask>
<g mask="url(#mask0_5827_298113)">
<path d="M15.3628 6.32812H6.47207C6.1407 6.32812 5.87207 6.59675 5.87207 6.92812V15.7945C5.87207 17.12 6.94659 18.1945 8.27207 18.1945H15.9628V6.92813C15.9628 6.59675 15.6942 6.32812 15.3628 6.32812Z" fill="white"/>
<path d="M7.97526 16.6221L11.1491 16.6221C11.3566 16.6221 11.5249 16.4538 11.5249 16.2462C11.5249 16.0387 11.3566 15.8704 11.1491 15.8704L7.97526 15.8704C7.76769 15.8704 7.59943 16.0387 7.59943 16.2462C7.59943 16.4538 7.76769 16.6221 7.97526 16.6221Z" fill="#BAC8DB"/>
<path d="M7.97009 14.4375L13.8546 14.4375C14.0622 14.4375 14.2305 14.2692 14.2305 14.0617C14.2305 13.8541 14.0622 13.6858 13.8546 13.6858L7.97009 13.6858C7.76252 13.6858 7.59425 13.8541 7.59425 14.0617C7.59425 14.2692 7.76252 14.4375 7.97009 14.4375Z" fill="#BAC8DB"/>
<path d="M11.0486 9.86C10.7713 9.80768 10.5881 9.6664 10.5672 9.47804C10.5463 9.33677 10.63 9.20596 10.7765 9.13794C11.1689 8.95481 11.4044 9.24258 11.4462 9.30537L11.9485 8.95481C11.8439 8.80307 11.6294 8.60947 11.3416 8.52052V7.9502H10.7242V8.51006C10.6562 8.53099 10.5881 8.55192 10.5149 8.58331C10.1225 8.76644 9.9027 9.1484 9.96025 9.55653C10.0073 9.90709 10.2847 10.3152 10.9021 10.4408V10.446C11.1794 10.4931 11.3625 10.6344 11.3887 10.8228C11.4044 10.964 11.3259 11.0948 11.1794 11.1629C10.787 11.346 10.5515 11.0582 10.5096 10.9954L10.0021 11.3512C10.1172 11.5187 10.3788 11.7384 10.7242 11.8117V12.3663H11.3364V11.7541C11.3678 11.7436 11.3991 11.7384 11.4358 11.7227C11.823 11.5396 12.0427 11.1576 11.9904 10.7443C11.9433 10.3937 11.666 9.99081 11.0486 9.86Z" fill="#5CB97B"/>
<ellipse cx="16.2122" cy="8.67603" rx="3.32739" ry="3.32739" fill="#FFD9B1"/>
</g>
<ellipse cx="16.7755" cy="7.84333" rx="3.0572" ry="3.0572" fill="#59B277"/>
<path d="M15.6602 7.72104L16.5207 8.58158L18.0007 7.10156" stroke="white" stroke-width="0.872055" stroke-linecap="round" stroke-linejoin="round"/>
<path d="M10.6528 15.642V15.7909C10.6528 17.1164 9.57823 18.1909 8.25275 18.1909H16.2034C17.5289 18.1909 18.6034 17.1164 18.6034 15.7909V15.642C18.6034 15.3106 18.3347 15.042 18.0034 15.042H11.2528C10.9214 15.042 10.6528 15.3106 10.6528 15.642Z" fill="#EB934E"/>
</svg>
