<svg width="20" height="22" viewBox="0 0 20 22" fill="none" xmlns="http://www.w3.org/2000/svg">
<path d="M17.6271 6.11714C17.6271 8.9533 14.9188 11.492 13.7222 12.4752C13.3952 12.744 12.9351 12.744 12.6081 12.4752C11.4115 11.492 8.70312 8.9533 8.70312 6.11714C8.70312 4.71701 9.3306 3.45689 10.3764 2.61681C11.1433 1.98675 12.1194 1.63672 13.1651 1.63672C14.3504 1.63672 15.3961 2.12677 16.2328 2.82683C17.0694 3.66691 17.6271 4.78702 17.6271 6.11714Z" stroke="#203551" stroke-width="1.3" stroke-linecap="round"/>
<path d="M13.1658 7.6652C14.0179 7.6652 14.7086 6.97162 14.7086 6.11605C14.7086 5.26047 14.0179 4.56689 13.1658 4.56689C12.3138 4.56689 11.623 5.26047 11.623 6.11605C11.623 6.97162 12.3138 7.6652 13.1658 7.6652Z" fill="#203551"/>
<path d="M7.48651 10.8633H4.53259C3.14143 10.8633 2.01367 11.991 2.01367 13.3822V13.3822C2.01367 14.7734 3.14143 15.9011 4.53259 15.9011H12.7971C14.2304 15.9011 15.3923 17.063 15.3923 18.4963V18.4963C15.3923 19.9296 14.2304 21.0915 12.7971 21.0915H7.48651" stroke="#203551" stroke-width="1.3" stroke-linecap="round"/>
</svg>
