<svg width="21" height="20" viewBox="0 0 21 20" fill="none" xmlns="http://www.w3.org/2000/svg">
<path d="M8.253 18.8687C9.2012 18.8687 9.96987 18.1001 9.96987 17.1519C9.96987 16.2037 9.2012 15.435 8.253 15.435C7.3048 15.435 6.53613 16.2037 6.53613 17.1519C6.53613 18.1001 7.3048 18.8687 8.253 18.8687Z" fill="#203551"/>
<path d="M17.0665 18.8687C18.0147 18.8687 18.7833 18.1 18.7833 17.1518C18.7833 16.2036 18.0147 15.4349 17.0665 15.4349C16.1183 15.4349 15.3496 16.2036 15.3496 17.1518C15.3496 18.1 16.1183 18.8687 17.0665 18.8687Z" fill="#203551"/>
<path d="M1.5 1.81445H3.92806C4.38506 1.81445 4.78392 2.12427 4.89698 2.56707L7.06749 11.0683C7.2936 11.9539 8.09132 12.5735 9.00533 12.5735H16.5688C17.4707 12.5735 18.261 11.9698 18.4983 11.0997L20.1555 5.02335C20.329 4.38721 19.8501 3.76024 19.1908 3.76024H8.68541" stroke="#203551" stroke-width="1.3" stroke-miterlimit="10" stroke-linecap="round" stroke-linejoin="round"/>
</svg>
