<svg width="32" height="32" viewBox="0 0 32 32" fill="none" xmlns="http://www.w3.org/2000/svg">
<circle cx="16" cy="16" r="16" fill="#F6F8FC"/>
<path d="M18.1284 19.7115H13.7267M21.0816 19.7115H21.8979C22.4502 19.7115 22.8979 19.2637 22.8979 18.7115V16.8532C22.8979 16.6599 22.8419 16.4708 22.7366 16.3087L22.0445 15.2426H17.8814V11.8235C17.8814 11.2712 17.4337 10.8235 16.8814 10.8235H10.1018C9.54952 10.8235 9.10181 11.2712 9.10181 11.8235L9.10183 18.7115C9.10183 19.2637 9.54954 19.7115 10.1018 19.7115H10.793" stroke="#6C7E95" stroke-width="1.3" stroke-miterlimit="10" stroke-linecap="round" stroke-linejoin="round"/>
<path d="M14.6203 13.5828H11.8611" stroke="#6C7E95" stroke-width="1.3" stroke-miterlimit="10" stroke-linecap="round" stroke-linejoin="round"/>
<path d="M13.2407 15.3073H11.8611" stroke="#6C7E95" stroke-width="1.3" stroke-miterlimit="10" stroke-linecap="round" stroke-linejoin="round"/>
<path d="M17.8906 12.3104H19.75C20.1051 12.3104 20.4335 12.4987 20.6129 12.805L22.0302 15.2248" stroke="#6C7E95" stroke-width="1.3" stroke-miterlimit="10" stroke-linecap="round" stroke-linejoin="round"/>
<circle cx="19.5933" cy="19.7116" r="1.46492" stroke="#6C7E95" stroke-width="1.3" stroke-miterlimit="10" stroke-linecap="round" stroke-linejoin="round"/>
<circle cx="12.2613" cy="19.7116" r="1.46492" stroke="#6C7E95" stroke-width="1.3" stroke-miterlimit="10" stroke-linecap="round" stroke-linejoin="round"/>
</svg>
