<svg width="574" height="115" viewBox="0 0 574 115" fill="none" xmlns="http://www.w3.org/2000/svg">
<rect x="229.5" width="115" height="115" rx="57.5" fill="#DCEDFF"/>
<path d="M255.486 76.791C255.486 83.1423 260.635 88.291 266.986 88.291H316.288C317.876 88.291 319.163 87.0038 319.163 85.416V47.6797C319.163 46.0918 317.876 44.8047 316.288 44.8047H255.486V76.791Z" fill="#EB934E"/>
<path d="M261.938 55.0918L261.938 78.3818" stroke="#F9B66F" stroke-width="4.1786" stroke-linecap="round"/>
<path d="M301.324 66.5468C301.324 70.7553 304.736 74.167 308.944 74.167H320.969C322.054 74.167 322.933 73.2875 322.933 72.2025V60.891C322.933 59.806 322.054 58.9265 320.969 58.9265H308.944C304.736 58.9265 301.324 62.3382 301.324 66.5468Z" fill="#F9B66F"/>
<path d="M255.486 38.7686H313.468V44.8066H255.486V38.7686Z" fill="#EB934E"/>
<path d="M255.486 38.7624C255.486 35.4268 258.19 32.7227 261.526 32.7227H310.707C312.232 32.7227 313.468 33.9588 313.468 35.4837V44.8022H261.526C258.19 44.8022 255.486 42.0981 255.486 38.7624Z" fill="#93452B"/>
<path d="M261.939 29.1372C261.939 27.5494 263.227 26.2622 264.814 26.2622H304.131C305.719 26.2622 307.006 27.5494 307.006 29.1372V44.7995H261.939V29.1372Z" fill="#F6B755"/>
<path d="M296.118 35.5361L272.828 35.5361" stroke="white" stroke-width="4.1786" stroke-linecap="round"/>
<circle cx="309.528" cy="66.5433" r="3.22888" fill="#93452B"/>
<circle cx="265.5" cy="76" r="16" fill="#F36565"/>
<path d="M265.12 68.542L265.12 75.625" stroke="white" stroke-width="4.49592" stroke-linecap="round"/>
<circle cx="265.089" cy="82.4455" r="2.33905" fill="white"/>
</svg>
