<svg width="40" height="40" viewBox="0 0 40 40" fill="none" xmlns="http://www.w3.org/2000/svg">
<rect width="40" height="40" rx="20" fill="#DCEDFF"/>
<path d="M23.1153 31.1369C28.4667 31.1369 32.8048 26.7987 32.8048 21.4473C32.8048 16.096 28.4667 11.7578 23.1153 11.7578C17.7639 11.7578 13.4258 16.096 13.4258 21.4473C13.4258 26.7987 17.7639 31.1369 23.1153 31.1369Z" fill="#458B5C"/>
<rect x="20.5195" y="11.7578" width="2.80057" height="19.3532" fill="#458B5C"/>
<path d="M20.5313 31.1369C25.8827 31.1369 30.2208 26.7987 30.2208 21.4473C30.2208 16.096 25.8827 11.7578 20.5313 11.7578C15.1799 11.7578 10.8418 16.096 10.8418 21.4473C10.8418 26.7987 15.1799 31.1369 20.5313 31.1369Z" fill="#59B377"/>
<mask id="mask0_7428_33500" style="mask-type:alpha" maskUnits="userSpaceOnUse" x="10" y="11" width="21" height="21">
<path d="M20.5313 31.1369C25.8827 31.1369 30.2208 26.7987 30.2208 21.4473C30.2208 16.096 25.8827 11.7578 20.5313 11.7578C15.1799 11.7578 10.8418 16.096 10.8418 21.4473C10.8418 26.7987 15.1799 31.1369 20.5313 31.1369Z" fill="#59B377"/>
</mask>
<g mask="url(#mask0_7428_33500)">
<ellipse cx="12.8629" cy="15.9927" rx="5.17242" ry="5.17242" fill="#458B5C"/>
<path d="M20.7258 20.6223C20.0246 20.4948 19.5146 20.1123 19.4509 19.6661C19.3871 19.2836 19.5784 18.9649 19.9609 18.7736C20.9808 18.3274 21.5545 19.0286 21.682 19.2198L22.3832 18.7099L23.0845 18.1999C22.7657 17.7537 22.192 17.1799 21.2995 16.9887V15.9688H19.5784V17.0524C19.4509 17.1162 19.3234 17.1162 19.1959 17.1799C18.1122 17.6899 17.5385 18.7099 17.666 19.7936C17.7935 20.7498 18.5584 21.8335 20.2158 22.2159C20.9171 22.3434 21.427 22.7259 21.4908 23.1721C21.5545 23.5546 21.3633 23.8734 20.9808 24.0646C19.9609 24.5108 19.3871 23.8096 19.2596 23.6184L18.5584 24.1283L17.8572 24.6383C18.1759 25.0846 18.7497 25.5945 19.6421 25.8495V26.997H21.3633V25.7858C21.4908 25.722 21.6183 25.722 21.7458 25.6583C22.8295 25.1483 23.4032 24.1283 23.2757 23.0447C23.1482 22.0884 22.3832 20.941 20.7258 20.6223Z" fill="white"/>
</g>
<circle cx="12.3902" cy="14.0318" r="5.17242" fill="#F36565"/>
<path d="M12.266 11.6207L12.266 13.9105" stroke="white" stroke-width="1.45343" stroke-linecap="round"/>
<circle cx="12.2581" cy="16.1155" r="0.756159" fill="white"/>
</svg>
