<svg width="24" height="24" viewBox="0 0 24 24" fill="none" xmlns="http://www.w3.org/2000/svg">
<rect width="24" height="24" rx="12" fill="#0D1826"/>
<path d="M13.8601 18.6763C17.0709 18.6763 19.6738 16.0734 19.6738 12.8625C19.6738 9.65172 17.0709 7.04883 13.8601 7.04883C10.6493 7.04883 8.04639 9.65172 8.04639 12.8625C8.04639 16.0734 10.6493 18.6763 13.8601 18.6763Z" fill="#458B5C"/>
<rect x="12.3101" y="7.04883" width="1.68034" height="11.6119" fill="#458B5C"/>
<path d="M12.3147 18.6763C15.5255 18.6763 18.1284 16.0734 18.1284 12.8625C18.1284 9.65172 15.5255 7.04883 12.3147 7.04883C9.10386 7.04883 6.50098 9.65172 6.50098 12.8625C6.50098 16.0734 9.10386 18.6763 12.3147 18.6763Z" fill="#59B377"/>
<mask id="mask0_5827_298126" style="mask-type:alpha" maskUnits="userSpaceOnUse" x="6" y="7" width="13" height="12">
<path d="M12.3166 18.6763C15.5275 18.6763 18.1304 16.0734 18.1304 12.8625C18.1304 9.65172 15.5275 7.04883 12.3166 7.04883C9.10582 7.04883 6.50293 9.65172 6.50293 12.8625C6.50293 16.0734 9.10582 18.6763 12.3166 18.6763Z" fill="#59B377"/>
</mask>
<g mask="url(#mask0_5827_298126)">
<circle cx="7.72357" cy="9.58978" r="3.10345" fill="#458B5C"/>
<path d="M12.4329 12.3644C12.0121 12.2879 11.7061 12.0584 11.6679 11.7907C11.6296 11.5612 11.7444 11.3699 11.9739 11.2552C12.5858 10.9874 12.9301 11.4082 13.0066 11.5229L13.4273 11.2169L13.848 10.911C13.6568 10.6432 13.3126 10.299 12.7771 10.1842V9.57227H11.7444V10.2225C11.6679 10.2607 11.5914 10.2607 11.5149 10.299C10.8647 10.605 10.5204 11.2169 10.5969 11.8672C10.6734 12.4409 11.1324 13.0911 12.1269 13.3206C12.5476 13.3971 12.8536 13.6266 12.8918 13.8943C12.9301 14.1238 12.8153 14.315 12.5858 14.4298C11.9739 14.6975 11.6296 14.2768 11.5531 14.162L11.1324 14.468L10.7117 14.774C10.9029 15.0417 11.2472 15.3477 11.7826 15.5007V16.1892H12.8153V15.4625C12.8918 15.4242 12.9683 15.4242 13.0448 15.386C13.695 15.08 14.0393 14.468 13.9628 13.8178C13.8863 13.2441 13.4273 12.5556 12.4329 12.3644Z" fill="white"/>
</g>
<circle cx="7.435" cy="8.41205" r="3.10345" fill="#F36565"/>
<path d="M7.35442 6.96931L7.35441 8.34318" stroke="white" stroke-width="0.872055" stroke-linecap="round"/>
<circle cx="7.35799" cy="9.66268" r="0.453696" fill="white"/>
</svg>
