<svg width="21" height="20" viewBox="0 0 21 20" fill="none" xmlns="http://www.w3.org/2000/svg">
<path d="M5.44434 18L15.5559 18C16.6605 18 17.5559 17.1046 17.5559 16L17.5559 7.78997C17.5559 7.25137 17.3387 6.73554 16.9534 6.35921L13.0731 2.56924C12.6995 2.2043 12.1979 2 11.6756 2H5.44434C4.33977 2 3.44434 2.89543 3.44434 4V16C3.44434 17.1046 4.33977 18 5.44434 18Z" stroke="white" stroke-width="1.3" stroke-linecap="round"/>
<path d="M12.5947 12.2842L10.31 9.99943L8.02526 12.2842" stroke="white" stroke-width="1.3" stroke-linecap="round" stroke-linejoin="round"/>
<path d="M10.3101 10.0922L10.3101 14.5635" stroke="white" stroke-width="1.3" stroke-linecap="round" stroke-linejoin="round"/>
<path d="M11.3242 2.24609V6.45104C11.3242 7.00333 11.7719 7.45104 12.3242 7.45104H14.2325" stroke="white" stroke-width="1.3" stroke-linecap="round"/>
</svg>
