<svg width="100" height="100" viewBox="0 0 100 100" fill="none" xmlns="http://www.w3.org/2000/svg">
<circle cx="50" cy="50" r="50" fill="#DCEDFF"/>
<path d="M35.7098 70.3245L36.6455 70.8792C40.5773 73.2123 45.085 74.4463 49.6816 74.4488H49.6917C63.8083 74.4488 75.2978 62.962 75.3038 48.8442C75.3059 42.0023 72.6448 35.569 67.8089 30.7296C62.9728 25.8903 56.5428 23.2236 49.7013 23.2208C35.5734 23.2208 24.0842 34.706 24.0786 48.8234C24.0767 53.6611 25.4302 58.3726 27.9943 62.4494L28.6039 63.4179L26.0158 72.8661L35.7098 70.3245ZM18.6172 80.1849L22.989 64.2222C20.2925 59.5504 18.8738 54.2507 18.8759 48.8213C18.8827 31.8362 32.7057 18.0176 49.6917 18.0176C57.9345 18.0212 65.6713 21.2294 71.4897 27.0518C77.3072 32.8746 80.5098 40.6145 80.507 48.8463C80.4997 65.8304 66.6748 79.6515 49.6917 79.6515C49.6905 79.6515 49.6924 79.6515 49.6917 79.6515H49.6784C44.5214 79.6495 39.4538 78.3561 34.953 75.9015L18.6172 80.1849Z" fill="white"/>
<path d="M19.9176 48.7969C19.9176 54.0782 21.298 59.1795 23.9386 63.6806L19.6776 79.1045L35.4615 74.9634C39.7826 77.3641 44.7039 78.5644 49.6851 78.5644C66.0693 78.5644 79.4526 65.241 79.4526 48.8569C79.4526 40.8749 76.3318 33.433 70.7504 27.7916C65.109 22.2101 57.6671 19.0894 49.6851 19.0894C33.301 19.0894 19.9176 32.4127 19.9176 48.7969Z" fill="#25D366"/>
<path d="M18.8545 48.7728C18.8545 54.2435 20.2843 59.5277 23.0197 64.1902L18.6058 80.1672L34.9558 75.8777C39.4319 78.3644 44.5296 79.6077 49.6895 79.6077C66.6611 79.6077 80.5244 65.8066 80.5244 48.8349C80.5244 40.5667 77.2917 32.8579 71.5102 27.0142C65.6664 21.2327 57.9577 18 49.6895 18C32.7178 18 18.8545 31.8011 18.8545 48.7728ZM28.6147 63.3821L27.9931 62.4496C25.4442 58.3465 24.0765 53.6218 24.0765 48.8349C24.0765 34.6608 35.5775 23.222 49.6895 23.222C56.5279 23.222 62.9932 25.8952 67.7801 30.6821C72.6292 35.5311 75.3024 41.9965 75.3024 48.8349C75.3024 62.9469 63.8014 74.4478 49.6895 74.4478C45.0891 74.4478 40.5509 73.2045 36.6343 70.8421L35.7018 70.2826L26.0037 72.8315L28.6147 63.3821Z" fill="url(#paint0_linear_6149_58881)"/>
<path fill-rule="evenodd" clip-rule="evenodd" d="M41.9899 35.9546C41.4131 34.6724 40.806 34.6467 40.2573 34.6242C39.8085 34.605 39.2947 34.6062 38.7817 34.6062C38.2684 34.6062 37.4341 34.799 36.7287 35.5695C36.0228 36.3401 34.0334 38.2026 34.0334 41.9908C34.0334 45.7794 36.7928 49.4399 37.1774 49.954C37.5625 50.4675 42.5041 58.4897 50.3303 61.576C56.8345 64.1408 58.1581 63.6307 59.5698 63.5024C60.9816 63.374 64.1252 61.6402 64.7669 59.8422C65.4086 58.0445 65.4086 56.5036 65.2161 56.1816C65.0236 55.8606 64.5103 55.6681 63.7402 55.2831C62.9701 54.898 59.1848 53.0351 58.4788 52.7784C57.773 52.5218 57.2596 52.3934 56.7463 53.1642C56.2329 53.9343 54.7582 55.6681 54.3089 56.1816C53.8597 56.6962 53.4106 56.7603 52.6405 56.3753C51.8704 55.989 49.3906 55.1769 46.4487 52.5538C44.1598 50.5131 42.6145 47.9928 42.1652 47.222C41.716 46.4519 42.1171 46.0348 42.5034 45.651C42.8491 45.306 43.2734 44.7522 43.6585 44.3026C44.0426 43.853 44.171 43.5321 44.4277 43.0187C44.6843 42.5045 44.5561 42.0549 44.3635 41.6698C44.171 41.2848 42.6746 37.477 41.9899 35.9546Z" fill="white"/>
<circle opacity="0.2" cx="66.5" cy="36.5" r="12.5" fill="#203551"/>
<circle cx="69.5" cy="32.5" r="12.5" fill="white"/>
<path d="M63 33.496V31.9434C63 28.3535 65.9101 25.4434 69.5 25.4434V25.4434C73.0899 25.4434 76 28.3535 76 31.9434V35.5578C76 37.7669 74.2091 39.5578 72 39.5578H69.9364" stroke="#662E2B" stroke-width="1.3" stroke-linecap="round" stroke-linejoin="round"/>
<rect x="63" y="31.6348" width="3.48669" height="4.78568" rx="1.74334" stroke="#662E2B" stroke-width="1.3" stroke-linecap="round" stroke-linejoin="round"/>
<rect x="72.5137" y="31.6348" width="3.48669" height="4.78568" rx="1.74334" stroke="#662E2B" stroke-width="1.3" stroke-linecap="round" stroke-linejoin="round"/>
<defs>
<linearGradient id="paint0_linear_6149_58881" x1="49.5624" y1="80.1672" x2="49.5624" y2="18" gradientUnits="userSpaceOnUse">
<stop stop-color="#F9F9F9"/>
<stop offset="1" stop-color="white"/>
</linearGradient>
</defs>
</svg>
