<svg width="100" height="100" viewBox="0 0 100 100" fill="none" xmlns="http://www.w3.org/2000/svg">
<circle cx="50" cy="50" r="50" fill="#DCEDFF"/>
<path d="M35.7098 70.3245L36.6455 70.8792C40.5773 73.2123 45.085 74.4463 49.6816 74.4488H49.6917C63.8083 74.4488 75.2978 62.962 75.3038 48.8442C75.3059 42.0023 72.6448 35.569 67.8089 30.7296C62.9728 25.8903 56.5428 23.2236 49.7013 23.2208C35.5734 23.2208 24.0842 34.706 24.0786 48.8234C24.0767 53.6611 25.4302 58.3726 27.9943 62.4494L28.6039 63.4179L26.0158 72.8661L35.7098 70.3245ZM18.6172 80.1849L22.989 64.2222C20.2925 59.5504 18.8738 54.2507 18.8759 48.8213C18.8827 31.8362 32.7057 18.0176 49.6917 18.0176C57.9345 18.0212 65.6713 21.2294 71.4897 27.0518C77.3072 32.8746 80.5098 40.6145 80.507 48.8463C80.4997 65.8304 66.6748 79.6515 49.6917 79.6515C49.6905 79.6515 49.6924 79.6515 49.6917 79.6515H49.6784C44.5214 79.6495 39.4538 78.3561 34.953 75.9015L18.6172 80.1849Z" fill="white"/>
<path d="M19.9177 48.7969C19.9177 54.0782 21.2981 59.1795 23.9388 63.6806L19.6777 79.1045L35.4617 74.9634C39.7828 77.3641 44.704 78.5644 49.6852 78.5644C66.0694 78.5644 79.4528 65.241 79.4528 48.8569C79.4528 40.8749 76.332 33.433 70.7506 27.7916C65.1091 22.2101 57.6673 19.0894 49.6852 19.0894C33.3011 19.0894 19.9177 32.4127 19.9177 48.7969Z" fill="#25D366"/>
<path d="M18.8546 48.7728C18.8546 54.2435 20.2845 59.5277 23.0198 64.1902L18.6059 80.1672L34.9559 75.8777C39.432 78.3644 44.5297 79.6077 49.6896 79.6077C66.6612 79.6077 80.5245 65.8066 80.5245 48.8349C80.5245 40.5667 77.2918 32.8579 71.5103 27.0142C65.6666 21.2327 57.9578 18 49.6896 18C32.7179 18 18.8546 31.8011 18.8546 48.7728ZM28.6149 63.3821L27.9932 62.4496C25.4443 58.3465 24.0767 53.6218 24.0767 48.8349C24.0767 34.6608 35.5776 23.222 49.6896 23.222C56.528 23.222 62.9934 25.8952 67.7802 30.6821C72.6293 35.5311 75.3025 41.9965 75.3025 48.8349C75.3025 62.9469 63.8015 74.4478 49.6896 74.4478C45.0892 74.4478 40.551 73.2045 36.6344 70.8421L35.7019 70.2826L26.0038 72.8315L28.6149 63.3821Z" fill="url(#paint0_linear_6149_58525)"/>
<path fill-rule="evenodd" clip-rule="evenodd" d="M41.9898 35.9546C41.413 34.6724 40.8059 34.6467 40.2571 34.6242C39.8084 34.605 39.2946 34.6062 38.7816 34.6062C38.2683 34.6062 37.4339 34.799 36.7286 35.5695C36.0226 36.3401 34.0333 38.2026 34.0333 41.9908C34.0333 45.7794 36.7927 49.4399 37.1773 49.954C37.5623 50.4675 42.504 58.4897 50.3301 61.576C56.8344 64.1408 58.1579 63.6307 59.5697 63.5024C60.9814 63.374 64.1251 61.6402 64.7668 59.8422C65.4085 58.0445 65.4085 56.5036 65.216 56.1816C65.0234 55.8606 64.5102 55.6681 63.7401 55.2831C62.97 54.898 59.1847 53.0351 58.4787 52.7784C57.7729 52.5218 57.2595 52.3934 56.7462 53.1642C56.2328 53.9343 54.7581 55.6681 54.3088 56.1816C53.8596 56.6962 53.4104 56.7603 52.6404 56.3753C51.8703 55.989 49.3905 55.1769 46.4486 52.5538C44.1597 50.5131 42.6143 47.9928 42.165 47.222C41.7159 46.4519 42.117 46.0348 42.5032 45.651C42.849 45.306 43.2733 44.7522 43.6583 44.3026C44.0425 43.853 44.1709 43.5321 44.4275 43.0187C44.6842 42.5045 44.5559 42.0549 44.3634 41.6698C44.1709 41.2848 42.6745 37.477 41.9898 35.9546Z" fill="white"/>
<circle opacity="0.2" cx="66.5" cy="36.5" r="12.5" fill="#203551"/>
<circle cx="69.5" cy="32.5" r="12.5" fill="white"/>
<path d="M63.9434 34.9492H66.5168C67.2694 34.9492 67.9303 34.4486 68.1341 33.7241V33.7241L68.4787 32.4989L68.8233 31.2737V31.2737C69.0271 30.5492 69.6879 30.0486 70.4406 30.0486H74.6818" stroke="#662E2B" stroke-width="1.3" stroke-linecap="round" stroke-linejoin="round"/>
<path d="M73.8809 31.2344L75.0601 30.0552L73.8809 28.876" stroke="#662E2B" stroke-width="1.3" stroke-linecap="round" stroke-linejoin="round"/>
<path d="M63.9414 30.0586H66.5148M70.4387 34.9592H74.6798" stroke="#662E2B" stroke-width="1.3" stroke-linecap="round" stroke-linejoin="round"/>
<path d="M73.8789 33.7734L75.0581 34.9526L73.8789 36.1318" stroke="#662E2B" stroke-width="1.3" stroke-linecap="round" stroke-linejoin="round"/>
<defs>
<linearGradient id="paint0_linear_6149_58525" x1="49.5625" y1="80.1672" x2="49.5625" y2="18" gradientUnits="userSpaceOnUse">
<stop stop-color="#F9F9F9"/>
<stop offset="1" stop-color="white"/>
</linearGradient>
</defs>
</svg>
