<svg width="18" height="20" viewBox="0 0 18 20" fill="none" xmlns="http://www.w3.org/2000/svg">
<path d="M6.29417 5.79761C6.45369 5.80414 6.63018 5.81161 6.79786 6.18434C6.91246 6.43915 7.10528 6.91419 7.25894 7.29277C7.37217 7.57173 7.46414 7.79831 7.48788 7.8458C7.54385 7.95773 7.58113 8.08843 7.50652 8.2379C7.49536 8.26024 7.48502 8.28133 7.47515 8.30147C7.41908 8.41592 7.37788 8.50001 7.28292 8.61115C7.2457 8.6546 7.20723 8.7014 7.16875 8.74821C7.09149 8.84219 7.01421 8.93618 6.94712 9.00313C6.83485 9.11471 6.71823 9.23597 6.8488 9.45983C6.97942 9.68391 7.42865 10.4166 8.09406 11.0098C8.80887 11.6472 9.42985 11.9167 9.74519 12.0536C9.80713 12.0805 9.85728 12.1023 9.89402 12.1207C10.1179 12.2327 10.2485 12.214 10.379 12.0644C10.5096 11.9152 10.9383 11.4111 11.0876 11.1873C11.2368 10.9632 11.3861 11.0005 11.5913 11.0751C11.7965 11.1497 12.8969 11.6913 13.1208 11.8032C13.1644 11.825 13.2052 11.8447 13.243 11.863C13.3993 11.9384 13.5047 11.9893 13.5498 12.0644C13.6058 12.158 13.6058 12.606 13.4192 13.1286C13.2327 13.6513 12.3188 14.1553 11.9084 14.1926C11.8689 14.1962 11.8297 14.2008 11.7893 14.2056C11.41 14.2502 10.9313 14.3065 9.22244 13.6326C7.11976 12.8034 5.73334 10.7485 5.44691 10.324C5.42342 10.2892 5.40733 10.2654 5.39885 10.254L5.39635 10.2507C5.27566 10.0894 4.48488 9.03261 4.48488 7.93909C4.48488 6.90829 4.99157 6.36796 5.22469 6.11935C5.24062 6.10237 5.25528 6.08674 5.2684 6.07241C5.47345 5.84842 5.716 5.79237 5.86521 5.79237C5.87339 5.79237 5.88157 5.79237 5.88975 5.79237C6.03067 5.79235 6.17088 5.79233 6.29417 5.79761Z" fill="white"/>
<path fill-rule="evenodd" clip-rule="evenodd" d="M1.28313 14.3926C0.487953 13.0371 0.0722893 11.501 0.0722893 9.91063C0.0722893 4.97689 4.10241 0.964844 9.03615 0.964844C11.4398 0.964844 13.6807 1.9046 15.3795 3.58533C17.0602 5.28412 18 7.52508 18 9.9287C18 14.8624 13.9699 18.8745 9.03615 18.8745C7.53615 18.8745 6.05422 18.513 4.75301 17.7901L0 19.0371L1.28313 14.3926ZM2.72892 13.8865L2.90964 14.1576L2.1506 16.9046L4.96988 16.1636L5.24096 16.3263C6.37952 17.013 7.6988 17.3745 9.03615 17.3745C13.1386 17.3745 16.4819 14.0311 16.4819 9.9287C16.4819 7.94075 15.7048 6.06123 14.2952 4.65159C12.9036 3.26002 11.0241 2.48292 9.03615 2.48292C4.93373 2.48292 1.59036 5.80822 1.59036 9.9287C1.59036 11.3203 1.98795 12.6938 2.72892 13.8865Z" fill="white"/>
</svg>
