<svg width="33" height="33" viewBox="0 0 33 33" fill="none" xmlns="http://www.w3.org/2000/svg">
<path fill-rule="evenodd" clip-rule="evenodd" d="M11.6463 6.62549C7.94684 6.62549 4.94782 9.62452 4.94782 13.324C4.94782 14.3427 4.122 15.1685 3.1033 15.1685C2.08461 15.1685 1.25879 14.3427 1.25879 13.324C1.25879 7.58712 5.90945 2.93646 11.6463 2.93646C13.3997 2.93646 15.0516 3.37089 16.5003 4.13798C17.949 3.37089 19.6009 2.93646 21.3543 2.93646C27.0912 2.93646 31.7418 7.58712 31.7418 13.324C31.7418 14.3427 30.916 15.1685 29.8973 15.1685C28.8786 15.1685 28.0528 14.3427 28.0528 13.324C28.0528 9.62452 25.0538 6.62549 21.3543 6.62549C20.7999 6.62549 20.2612 6.69285 19.746 6.81983C21.1773 8.6 22.0339 10.862 22.0339 13.324C22.0339 16.3801 19.5564 18.8575 16.5003 18.8575C13.4442 18.8575 10.9668 16.3801 10.9668 13.324C10.9668 10.862 11.8233 8.6 13.2547 6.81983C12.7394 6.69285 12.2007 6.62549 11.6463 6.62549ZM16.5003 8.70784C15.3573 9.90935 14.6558 11.5347 14.6558 13.324C14.6558 14.3427 15.4816 15.1685 16.5003 15.1685C17.519 15.1685 18.3448 14.3427 18.3448 13.324C18.3448 11.5347 17.6433 9.90935 16.5003 8.70784Z" fill="white"/>
<path d="M5.45265 18.8673C5.08377 17.9159 4.01589 17.4499 3.06453 17.8188C2.11307 18.1877 1.64711 19.2556 2.01599 20.207C4.26826 26.0026 9.89889 30.1188 16.5003 30.1188C23.1017 30.1188 28.7324 26.0026 30.9846 20.207C31.3535 19.2556 30.8876 18.1877 29.9362 17.8188C28.9848 17.4499 27.917 17.9256 27.548 18.8673C25.8297 23.2941 21.529 26.4298 16.5003 26.4298C11.4716 26.4298 7.17098 23.2941 5.45265 18.8673Z" fill="white"/>
<path d="M13.2545 6.81982C12.8364 7.33987 12.4673 7.90103 12.1543 8.49628C13.4604 8.63213 14.6125 9.2859 15.4018 10.2486C15.6945 9.68324 16.0654 9.16488 16.5002 8.70786C15.6341 7.79741 14.5145 7.13035 13.2545 6.81982Z" fill="url(#paint0_linear_6773_345073)"/>
<defs>
<linearGradient id="paint0_linear_6773_345073" x1="16.5001" y1="6.81963" x2="12.1315" y2="10.2174" gradientUnits="userSpaceOnUse">
<stop stop-color="#535353"/>
<stop offset="1" stop-opacity="0"/>
</linearGradient>
</defs>
</svg>
