<svg width="20" height="20" viewBox="0 0 20 20" fill="none" xmlns="http://www.w3.org/2000/svg">
<path d="M5.09374 3.39076C4.75726 3.26564 4.38307 3.43698 4.25795 3.77345C4.13283 4.10992 4.30416 4.48412 4.64064 4.60924L5.09374 3.39076ZM4.62895 11.2557C4.29494 11.3873 4.13085 11.7647 4.26242 12.0987C4.394 12.4327 4.77143 12.5968 5.10543 12.4653L4.62895 11.2557ZM13.9166 8.29557L13.6783 7.6908L13.9166 8.29557ZM4.64064 4.60924L13.681 7.97096L14.1341 6.75247L5.09374 3.39076L4.64064 4.60924ZM13.6783 7.6908L4.62895 11.2557L5.10543 12.4653L14.1548 8.90033L13.6783 7.6908ZM13.681 7.97096C13.6584 7.96254 13.6295 7.94222 13.6086 7.91071C13.59 7.88257 13.5835 7.85471 13.5833 7.83181C13.5831 7.8089 13.589 7.78092 13.6071 7.75243C13.6274 7.72052 13.6559 7.69965 13.6783 7.6908L14.1548 8.90033C15.1362 8.51371 15.1228 7.12012 14.1341 6.75247L13.681 7.97096Z" fill="#203551"/>
<path d="M4 15.4604H16" stroke="#203551" stroke-width="1.3" stroke-linecap="round"/>
</svg>
